<?xml version="1.0" encoding="UTF-8" standalone="no"?><!-- Generator: Gravit.io --><svg xmlns="http://www.w3.org/2000/svg" xmlns:xlink="http://www.w3.org/1999/xlink" style="isolation:isolate" viewBox="0 0 3710 3710" width="3710pt" height="3710pt"><defs><clipPath id="_clipPath_mizWapBjoKZqToL45NPUpmms76L0Oj0q"><rect width="3710" height="3710"/></clipPath></defs><g clip-path="url(#_clipPath_mizWapBjoKZqToL45NPUpmms76L0Oj0q)"><g><clipPath id="_clipPath_cJj2Fgddt7nBU6oj61Mcm1FibkUW25mh"><path d=" M 0 0 L 0 3710 L 3710 3710 L 3710 0 L 0 0 Z " fill="rgb(255,255,255)"/></clipPath><g clip-path="url(#_clipPath_cJj2Fgddt7nBU6oj61Mcm1FibkUW25mh)"><path d=" M 762.402 479.258 C 757.585 464.389 774.922 452.171 787.45 461.516 C 914.675 556.399 1227.62 848.268 1223 1421.02 C 1217.21 2139.63 1394.26 2381.47 1595.98 2518.34 C 1595.98 2518.34 1335.15 2472.84 1146.52 2228.46 C 683.393 1628.44 848.055 743.624 762.402 479.258 Z " fill="rgb(189,208,251)"/><path d=" M 987.795 1148.59 C 973.791 1073.32 957.547 998.424 939.155 924.034 C 920.213 845.657 898.399 767.967 875.049 690.696 C 874.409 688.568 875.549 686.281 877.667 685.537 C 878.126 685.375 878.595 685.299 879.056 685.299 C 880.782 685.299 882.398 686.375 883.003 688.098 C 909.831 764.413 933.718 841.78 955.543 919.751 C 967.408 962.934 978.517 1006.33 988.884 1049.92 L 987.795 1148.59 Z " fill="rgb(220,230,253)"/><path d=" M 1158.83 2695.68 C 1152.04 2723.67 1118.87 2735.61 1095.56 2718.7 C 966.976 2625.34 627.286 2328.52 597.425 1780.79 C 572.209 1318.25 514.581 1069.84 480.605 958.888 C 473.422 935.425 500.366 916.429 520.079 931.039 C 737.585 1092.23 1405.15 1681.66 1158.83 2695.68 Z " fill="rgb(145,179,250)"/><path d=" M 973.721 2423.59 C 870.575 2182.29 737.318 1810.73 699.372 1431.03 C 698.757 1424.86 703.262 1419.35 709.442 1418.73 C 709.821 1418.69 710.198 1418.67 710.572 1418.67 C 716.28 1418.67 721.168 1423 721.751 1428.8 C 757.019 1781.71 875.309 2127.72 974.344 2367.14 L 973.721 2423.59 Z " fill="rgb(192,214,252)"/><linearGradient id="_lgradient_954" x1="0" y1="0" x2="1" y2="0" gradientTransform="matrix(219.084,-846.46,846.46,219.084,958.951,2799.18)" gradientUnits="userSpaceOnUse"><stop offset="0%" stop-opacity="1" style="stop-color:rgb(79,82,255)"/><stop offset="100%" stop-opacity="1" style="stop-color:rgb(64,66,226)"/></linearGradient><path d=" M 1028.79 2558.9 C 1026.5 2558.9 1024.63 2557.04 1024.63 2554.74 L 1024.63 2503.92 C 1024.63 2501.62 1026.5 2499.76 1028.79 2499.76 C 1031.09 2499.76 1032.95 2501.62 1032.95 2503.92 L 1032.95 2554.74 C 1032.95 2557.04 1031.09 2558.9 1028.79 2558.9 Z " fill="url(#_lgradient_954)"/><path d=" M 1184.92 798.965 C 1406.25 828.979 2167.36 921.811 2796.64 873.505 C 2825.34 871.302 2850.25 893.045 2851.77 921.786 L 2955.03 2927.11 C 2956.75 2959.48 2932.04 2987.15 2899.69 2989.07 C 2635.02 3004.73 1545.06 3065.27 1156.28 3024.55 C 1132.62 3022.08 1114.66 3002.16 1114.52 2978.36 L 1122.12 854.181 C 1121.93 820.503 1151.54 794.439 1184.92 798.965 Z " fill="rgb(125,151,244)"/><path d=" M 1208.62 860.192 C 1421.62 889.077 2154.08 978.413 2759.66 931.926 C 2787.28 929.805 2811.24 950.73 2812.71 978.389 L 2911.25 2894.83 C 2912.9 2925.98 2889.12 2952.61 2857.99 2954.46 C 2603.29 2969.53 1554.37 3027.8 1180.23 2988.61 C 1157.46 2986.22 1140.18 2967.05 1140.04 2944.16 L 1148.2 913.329 C 1148.01 880.92 1176.51 855.837 1208.62 860.192 Z " fill="rgb(189,208,251)"/><path d=" M 1493.47 1483.79 C 1493.31 1483.79 1493.16 1483.79 1493.01 1483.79 C 1467.32 1484.11 1421.22 1488.04 1384.19 1491.19 C 1366.53 1492.7 1349.85 1494.12 1337.95 1494.94 L 1337.95 1494.94 C 1332.04 1495.34 1326.63 1497.97 1323.11 1502.15 C 1320.17 1505.66 1318.79 1509.96 1319.25 1514.28 L 1331.6 1632.17 C 1332.99 1645.46 1345.52 1655.6 1360.74 1655.74 L 1501.25 1657.09 C 1501.34 1657.09 1501.44 1657.09 1501.53 1657.09 C 1515.82 1657.09 1527.65 1646.96 1527.97 1634.38 C 1529.34 1580.55 1530 1530.09 1523.01 1504.25 C 1519.74 1492.16 1507.63 1483.79 1493.47 1483.79 Z  M 1501.53 1665.41 C 1501.41 1665.41 1501.29 1665.41 1501.17 1665.41 L 1360.65 1664.06 C 1341.21 1663.87 1325.16 1650.54 1323.33 1633.04 L 1310.97 1515.15 C 1310.28 1508.56 1312.33 1502.05 1316.74 1496.8 C 1321.71 1490.9 1329.23 1487.19 1337.38 1486.63 L 1337.38 1486.63 C 1349.21 1485.82 1365.86 1484.41 1383.49 1482.9 C 1420.65 1479.74 1466.91 1475.8 1492.91 1475.48 C 1493.09 1475.48 1493.28 1475.47 1493.47 1475.47 C 1511.38 1475.47 1526.79 1486.35 1531.04 1502.08 C 1538.32 1528.99 1537.68 1580.12 1536.29 1634.6 C 1535.85 1651.66 1520.29 1665.41 1501.53 1665.41 Z " fill="rgb(255,255,255)"/><path d=" M 1484.11 1644.56 C 1484.02 1644.56 1483.93 1644.56 1483.84 1644.56 L 1371.55 1643.48 C 1357.74 1643.35 1346.28 1633.93 1345 1621.67 L 1335.12 1527.46 C 1334.1 1517.71 1342.21 1509.08 1353.15 1508.33 C 1382.67 1506.32 1446.82 1499.8 1477.25 1499.42 C 1477.38 1499.42 1477.51 1499.42 1477.64 1499.42 C 1490.37 1499.42 1501.48 1507.17 1504.47 1518.23 C 1510.35 1539.95 1509.57 1583.23 1508.55 1623.17 C 1508.25 1635.06 1497.4 1644.56 1484.11 1644.56 Z " fill="rgb(229,236,253)"/><path d=" M 1978.35 1614.58 L 1645.12 1614.58 C 1641.61 1614.58 1637.76 1611.88 1636.57 1608.58 L 1615.52 1550.37 C 1614.34 1547.11 1616.18 1544.48 1619.62 1544.48 C 1619.66 1544.48 1619.69 1544.48 1619.73 1544.48 L 2042.66 1551.82 C 2019.29 1571.14 1997.81 1592.17 1978.35 1614.58 Z " fill="rgb(229,236,253)"/><linearGradient id="_lgradient_955" x1="0" y1="0" x2="1" y2="0" gradientTransform="matrix(-717.499,1224.6,-1224.6,-717.499,1771.71,944.187)" gradientUnits="userSpaceOnUse"><stop offset="0%" stop-opacity="1" style="stop-color:rgb(254,112,98)"/><stop offset="100%" stop-opacity="1" style="stop-color:rgb(255,146,142)"/></linearGradient><path d=" M 1359.13 1526.82 L 1359.13 1526.82 C 1369.56 1520.7 1382.99 1524.35 1388.88 1534.92 L 1416.59 1584.6 C 1419.37 1589.57 1426.62 1589.26 1428.96 1584.06 L 1497.7 1431.02 C 1501.13 1423.39 1512.5 1425.97 1512.37 1434.34 C 1511.67 1481.15 1499.25 1570.13 1424.45 1644.61 C 1424.45 1644.61 1383.23 1628.59 1350.04 1555.7 C 1345.25 1545.17 1349.15 1532.68 1359.13 1526.82 Z " fill="url(#_lgradient_955)"/><path d=" M 1337.95 1796.09 C 1332.03 1796.49 1326.63 1799.12 1323.11 1803.31 C 1320.17 1806.81 1318.79 1811.11 1319.25 1815.43 L 1331.6 1933.33 C 1332.99 1946.62 1345.52 1956.75 1360.74 1956.89 L 1501.25 1958.24 C 1501.34 1958.24 1501.44 1958.24 1501.54 1958.24 C 1515.82 1958.25 1527.65 1948.11 1527.97 1935.54 C 1529.34 1881.7 1530 1831.24 1523.01 1805.41 C 1519.71 1793.18 1507.48 1784.59 1493.01 1784.94 C 1467.34 1785.27 1421.3 1789.19 1384.31 1792.34 C 1366.6 1793.84 1349.87 1795.27 1337.95 1796.09 Z  M 1501.54 1966.56 C 1501.41 1966.56 1501.29 1966.56 1501.17 1966.56 L 1360.65 1965.21 C 1341.21 1965.03 1325.16 1951.69 1323.33 1934.2 L 1310.97 1816.3 C 1310.28 1809.72 1312.33 1803.2 1316.74 1797.95 C 1321.7 1792.05 1329.23 1788.34 1337.38 1787.78 C 1349.24 1786.98 1365.93 1785.55 1383.6 1784.05 C 1420.73 1780.89 1466.94 1776.95 1492.91 1776.63 C 1493.09 1776.63 1493.27 1776.62 1493.45 1776.62 C 1511.38 1776.62 1526.79 1787.5 1531.04 1803.24 C 1538.32 1830.15 1537.68 1881.27 1536.29 1935.75 C 1535.85 1952.81 1520.3 1966.56 1501.54 1966.56 Z " fill="rgb(255,255,255)"/><path d=" M 1484.11 1945.71 C 1484.02 1945.71 1483.93 1945.71 1483.84 1945.71 L 1371.55 1944.63 C 1357.74 1944.5 1346.28 1935.08 1345 1922.82 L 1335.12 1828.61 C 1334.1 1818.86 1342.21 1810.23 1353.15 1809.49 C 1382.67 1807.47 1446.82 1800.96 1477.25 1800.58 C 1477.38 1800.57 1477.51 1800.57 1477.64 1800.57 C 1490.37 1800.57 1501.48 1808.32 1504.47 1819.38 C 1510.35 1841.1 1509.57 1884.38 1508.55 1924.33 C 1508.25 1936.21 1497.4 1945.71 1484.11 1945.71 Z " fill="rgb(229,236,253)"/><path d=" M 1848.16 1915.73 L 1645.12 1915.73 C 1641.61 1915.73 1637.76 1913.03 1636.57 1909.73 L 1615.52 1851.52 C 1614.34 1848.26 1616.18 1845.63 1619.62 1845.63 C 1619.66 1845.63 1619.7 1845.63 1619.73 1845.63 L 1858.9 1849.78 C 1853.95 1871.51 1850.36 1893.53 1848.16 1915.73 Z " fill="rgb(229,236,253)"/><linearGradient id="_lgradient_956" x1="0" y1="0" x2="1" y2="0" gradientTransform="matrix(-717.499,1224.6,-1224.6,-717.499,1903.06,1021.15)" gradientUnits="userSpaceOnUse"><stop offset="0%" stop-opacity="1" style="stop-color:rgb(254,112,98)"/><stop offset="100%" stop-opacity="1" style="stop-color:rgb(255,146,142)"/></linearGradient><path d=" M 1359.13 1827.97 L 1359.13 1827.97 C 1369.56 1821.85 1382.99 1825.51 1388.88 1836.07 L 1416.59 1885.75 C 1419.37 1890.72 1426.62 1890.41 1428.96 1885.21 L 1497.7 1732.18 C 1501.13 1724.54 1512.5 1727.12 1512.37 1735.49 C 1511.67 1782.3 1499.25 1871.28 1424.45 1945.76 C 1424.45 1945.76 1383.23 1929.74 1350.04 1856.85 C 1345.25 1846.32 1349.15 1833.83 1359.13 1827.97 Z " fill="url(#_lgradient_956)"/><path d=" M 1337.95 2097.24 C 1332.03 2097.64 1326.63 2100.27 1323.11 2104.46 C 1320.17 2107.96 1318.79 2112.27 1319.25 2116.58 L 1331.6 2234.48 C 1332.99 2247.77 1345.52 2257.9 1360.74 2258.04 L 1501.25 2259.39 C 1501.34 2259.39 1501.44 2259.39 1501.54 2259.39 C 1515.82 2259.4 1527.65 2249.26 1527.97 2236.69 C 1529.34 2182.85 1530 2132.39 1523.01 2106.56 C 1519.71 2094.33 1507.48 2085.82 1493.01 2086.09 C 1467.34 2086.42 1421.3 2090.34 1384.31 2093.49 C 1366.6 2094.99 1349.87 2096.42 1337.95 2097.24 Z  M 1501.54 2267.71 C 1501.41 2267.71 1501.29 2267.71 1501.17 2267.71 L 1360.65 2266.36 C 1341.21 2266.18 1325.16 2252.84 1323.33 2235.35 L 1310.97 2117.45 C 1310.28 2110.87 1312.33 2104.35 1316.74 2099.11 C 1321.7 2093.2 1329.23 2089.49 1337.38 2088.93 C 1349.24 2088.13 1365.93 2086.7 1383.6 2085.2 C 1420.73 2082.04 1466.94 2078.1 1492.91 2077.78 C 1493.09 2077.78 1493.27 2077.77 1493.45 2077.77 C 1511.38 2077.77 1526.79 2088.65 1531.04 2104.39 C 1538.32 2131.3 1537.68 2182.42 1536.29 2236.9 C 1535.85 2253.96 1520.3 2267.71 1501.54 2267.71 Z " fill="rgb(255,255,255)"/><path d=" M 1484.11 2246.86 C 1484.02 2246.86 1483.93 2246.86 1483.84 2246.86 L 1371.55 2245.78 C 1357.74 2245.65 1346.28 2236.24 1345 2223.97 L 1335.12 2129.76 C 1334.1 2120.02 1342.21 2111.39 1353.15 2110.64 C 1382.67 2108.62 1446.82 2102.11 1477.25 2101.73 C 1477.38 2101.73 1477.51 2101.73 1477.64 2101.73 C 1490.37 2101.73 1501.48 2109.47 1504.47 2120.54 C 1510.35 2142.25 1509.57 2185.53 1508.55 2225.48 C 1508.25 2237.36 1497.4 2246.86 1484.11 2246.86 Z " fill="rgb(229,236,253)"/><path d=" M 1908.6 2216.89 L 1645.51 2216.89 C 1642 2216.89 1638.13 2214.19 1636.92 2210.89 L 1615.55 2152.67 C 1614.35 2149.41 1616.18 2146.78 1619.62 2146.78 C 1619.66 2146.78 1619.7 2146.78 1619.73 2146.78 L 1878.73 2151.21 C 1886.07 2170.81 1894.67 2190.18 1904.54 2209.21 C 1905.88 2211.79 1907.23 2214.34 1908.6 2216.89 Z " fill="rgb(229,236,253)"/><linearGradient id="_lgradient_957" x1="0" y1="0" x2="1" y2="0" gradientTransform="matrix(-944.078,1316.31,-1316.31,-944.078,2013.51,1323.03)" gradientUnits="userSpaceOnUse"><stop offset="0%" stop-opacity="1" style="stop-color:rgb(254,112,98)"/><stop offset="100%" stop-opacity="1" style="stop-color:rgb(255,146,142)"/></linearGradient><path d=" M 1359.13 2129.13 L 1359.13 2129.13 C 1369.56 2123 1382.99 2126.66 1388.88 2137.22 L 1416.59 2186.9 C 1419.37 2191.87 1426.62 2191.56 1428.96 2186.36 L 1497.7 2033.33 C 1501.13 2025.69 1512.5 2028.27 1512.37 2036.64 C 1511.67 2083.45 1499.25 2172.43 1424.45 2246.92 C 1424.45 2246.92 1383.23 2230.89 1350.04 2158 C 1345.25 2147.47 1349.15 2134.98 1359.13 2129.13 Z " fill="url(#_lgradient_957)"/><path d=" M 1493.47 2387.25 C 1493.31 2387.25 1493.16 2387.25 1493.01 2387.25 C 1467.31 2387.57 1421.22 2391.49 1384.18 2394.65 C 1366.52 2396.15 1349.85 2397.58 1337.95 2398.39 L 1337.95 2398.39 C 1332.04 2398.79 1326.63 2401.43 1323.11 2405.61 C 1320.17 2409.11 1318.79 2413.42 1319.25 2417.73 L 1331.6 2535.63 C 1332.99 2548.92 1345.52 2559.05 1360.74 2559.2 L 1501.25 2560.54 C 1501.34 2560.54 1501.44 2560.54 1501.54 2560.54 C 1515.82 2560.55 1527.65 2550.41 1527.97 2537.84 C 1529.34 2484 1530 2433.54 1523.01 2407.71 C 1519.74 2395.61 1507.63 2387.25 1493.47 2387.25 Z  M 1501.54 2568.86 C 1501.41 2568.86 1501.29 2568.86 1501.17 2568.86 L 1360.65 2567.51 C 1341.21 2567.33 1325.16 2553.99 1323.33 2536.5 L 1310.97 2418.6 C 1310.28 2412.02 1312.33 2405.5 1316.74 2400.26 C 1321.71 2394.35 1329.23 2390.65 1337.38 2390.09 L 1337.38 2390.09 C 1349.21 2389.28 1365.85 2387.86 1383.48 2386.36 C 1420.65 2383.2 1466.91 2379.25 1492.91 2378.93 C 1493.09 2378.93 1493.28 2378.93 1493.47 2378.93 C 1511.38 2378.93 1526.79 2389.81 1531.04 2405.54 C 1538.32 2432.45 1537.68 2483.57 1536.29 2538.05 C 1535.85 2555.11 1520.3 2568.86 1501.54 2568.86 Z " fill="rgb(255,255,255)"/><path d=" M 1484.11 2548.01 C 1484.02 2548.01 1483.93 2548.01 1483.84 2548.01 L 1371.55 2546.93 C 1357.74 2546.8 1346.28 2537.39 1345 2525.13 L 1335.12 2430.91 C 1334.1 2421.17 1342.21 2412.54 1353.15 2411.79 C 1382.67 2409.77 1446.82 2403.26 1477.25 2402.88 C 1477.38 2402.88 1477.51 2402.88 1477.64 2402.88 C 1490.37 2402.88 1501.48 2410.62 1504.47 2421.69 C 1510.35 2443.4 1509.57 2486.68 1508.55 2526.63 C 1508.25 2538.51 1497.4 2548.01 1484.11 2548.01 Z " fill="rgb(229,236,253)"/><path d=" M 2086.087 2518.34 L 1634.394 2518.34 C 1631.351 2518.34 1627.988 2515.65 1626.916 2512.37 L 1607.89 2454.1 C 1606.827 2450.85 1608.383 2448.23 1611.356 2448.23 C 1611.391 2448.23 1611.425 2448.23 1611.451 2448.23 L 2097.195 2457.56 C 2150.912 2481.71 2208.527 2494.32 2267.016 2494.32 C 2297.142 2494.32 2327.51 2490.96 2357.663 2484.11 L 2532.861 2491.22 C 2392.768 2494.52 2239.864 2501.41 2101.837 2514.87 C 2096.4 2515.4 2091.135 2516.58 2086.087 2518.34 Z " fill="rgb(229,236,253)"/><linearGradient id="_lgradient_958" x1="0" y1="0" x2="1" y2="0" gradientTransform="matrix(-717.499,1224.6,-1224.6,-717.499,2165.77,1175.07)" gradientUnits="userSpaceOnUse"><stop offset="0%" stop-opacity="1" style="stop-color:rgb(254,112,98)"/><stop offset="100%" stop-opacity="1" style="stop-color:rgb(255,146,142)"/></linearGradient><path d=" M 1359.13 2430.28 L 1359.13 2430.28 C 1369.56 2424.16 1382.99 2427.81 1388.88 2438.37 L 1416.59 2488.05 C 1419.37 2493.03 1426.62 2492.71 1428.96 2487.52 L 1497.7 2334.48 C 1501.13 2326.84 1512.5 2329.43 1512.37 2337.79 C 1511.67 2384.6 1499.25 2473.58 1424.45 2548.07 C 1424.45 2548.07 1383.23 2532.04 1350.04 2459.16 C 1345.25 2448.63 1349.15 2436.13 1359.13 2430.28 Z " fill="url(#_lgradient_958)"/><path d=" M 1510.29 2687.63 C 1510.14 2687.63 1509.99 2687.63 1509.84 2687.64 C 1484.14 2687.95 1438.05 2691.88 1401.01 2695.04 C 1383.35 2696.54 1366.67 2697.96 1354.78 2698.78 L 1354.78 2698.78 C 1348.86 2699.18 1343.46 2701.81 1339.94 2706 C 1336.99 2709.5 1335.62 2713.8 1336.07 2718.12 L 1348.43 2836.01 C 1349.82 2849.3 1362.35 2859.43 1377.56 2859.58 L 1518.08 2860.93 C 1518.17 2860.93 1518.27 2860.93 1518.37 2860.93 C 1532.65 2860.93 1544.48 2850.8 1544.8 2838.22 C 1546.17 2784.39 1546.83 2733.93 1539.84 2708.1 C 1536.57 2696 1524.46 2687.63 1510.29 2687.63 Z  M 1518.37 2869.25 C 1518.24 2869.25 1518.12 2869.25 1517.99 2869.25 L 1377.48 2867.9 C 1358.04 2867.71 1341.99 2854.38 1340.15 2836.88 L 1327.8 2718.99 C 1327.11 2712.41 1329.16 2705.89 1333.57 2700.64 C 1338.54 2694.74 1346.06 2691.03 1354.21 2690.47 L 1354.21 2690.47 C 1366.04 2689.67 1382.68 2688.25 1400.3 2686.75 C 1437.48 2683.58 1483.74 2679.64 1509.74 2679.32 C 1509.92 2679.32 1510.11 2679.31 1510.29 2679.31 C 1528.21 2679.31 1543.62 2690.19 1547.87 2705.93 C 1555.15 2732.84 1554.51 2783.96 1553.11 2838.43 C 1552.68 2855.49 1537.13 2869.25 1518.37 2869.25 Z " fill="rgb(255,255,255)"/><path d=" M 1500.94 2848.4 C 1500.85 2848.4 1500.76 2848.4 1500.67 2848.4 L 1388.38 2847.32 C 1374.57 2847.19 1363.11 2837.77 1361.82 2825.51 L 1351.95 2731.3 C 1350.93 2721.55 1359.03 2712.92 1369.98 2712.17 C 1399.49 2710.16 1463.65 2703.64 1494.08 2703.26 C 1494.21 2703.26 1494.34 2703.26 1494.47 2703.26 C 1507.2 2703.26 1518.31 2711.01 1521.3 2722.07 C 1527.17 2743.79 1526.4 2787.07 1525.38 2827.01 C 1525.07 2838.9 1514.23 2848.4 1500.94 2848.4 Z " fill="rgb(229,236,253)"/><path d=" M 1969.92 2818.42 L 1669.64 2818.42 C 1666.13 2818.42 1662.24 2815.74 1661 2812.45 L 1639.02 2754.18 C 1637.8 2750.93 1639.6 2748.31 1643.04 2748.31 C 1643.08 2748.31 1643.12 2748.31 1643.16 2748.31 L 1978.38 2753.89 C 1974.57 2762.1 1972.3 2771.39 1971.99 2781.25 L 1969.92 2818.42 Z " fill="rgb(229,236,253)"/><linearGradient id="_lgradient_959" x1="0" y1="0" x2="1" y2="0" gradientTransform="matrix(-717.499,1224.6,-1224.6,-717.499,2182.6,1475.45)" gradientUnits="userSpaceOnUse"><stop offset="0%" stop-opacity="1" style="stop-color:rgb(254,112,98)"/><stop offset="100%" stop-opacity="1" style="stop-color:rgb(255,146,142)"/></linearGradient><path d=" M 1375.96 2730.66 L 1375.96 2730.66 C 1386.39 2724.54 1399.81 2728.19 1405.71 2738.76 L 1433.42 2788.44 C 1436.2 2793.41 1443.45 2793.1 1445.79 2787.9 L 1514.53 2634.86 C 1517.96 2627.23 1529.32 2629.81 1529.2 2638.18 C 1528.5 2684.99 1516.08 2773.97 1441.28 2848.45 C 1441.28 2848.45 1400.06 2832.43 1366.87 2759.54 C 1362.07 2749.01 1365.98 2736.52 1375.96 2730.66 Z " fill="url(#_lgradient_959)"/><linearGradient id="_lgradient_960" x1="0" y1="0" x2="1" y2="0" gradientTransform="matrix(-826.696,952.297,-952.297,-826.696,1919.45,589.562)" gradientUnits="userSpaceOnUse"><stop offset="0%" stop-opacity="1" style="stop-color:rgb(225,71,61)"/><stop offset="100%" stop-opacity="1" style="stop-color:rgb(233,96,90)"/></linearGradient><path d=" M 1305.21 1245.98 L 1364.26 1244.63 L 1340.31 1183.54 C 1339.22 1180.83 1338.02 1177.63 1336.69 1173.95 C 1335.37 1170.26 1334.06 1166.26 1332.77 1161.93 C 1331.67 1166.31 1330.59 1170.39 1329.52 1174.18 C 1328.46 1177.96 1327.4 1181.27 1326.35 1184.12 L 1305.21 1245.98 Z  M 1426.7 1313.18 L 1400.06 1313.78 C 1397.07 1313.85 1394.6 1313.16 1392.64 1311.71 C 1390.69 1310.26 1389.25 1308.44 1388.35 1306.24 L 1373.65 1268.77 L 1296.93 1270.52 L 1283.96 1308.62 C 1283.32 1310.6 1282.02 1312.43 1280.05 1314.09 C 1278.08 1315.76 1275.64 1316.63 1272.74 1316.69 L 1245.97 1317.31 L 1314.49 1130.44 L 1349.71 1129.63 L 1426.7 1313.18 Z " fill-rule="evenodd" fill="url(#_lgradient_960)"/><linearGradient id="_lgradient_961" x1="0" y1="0" x2="1" y2="0" gradientTransform="matrix(-826.693,952.294,-952.294,-826.693,1972.07,635.255)" gradientUnits="userSpaceOnUse"><stop offset="0%" stop-opacity="1" style="stop-color:rgb(225,71,61)"/><stop offset="100%" stop-opacity="1" style="stop-color:rgb(233,96,90)"/></linearGradient><path d=" M 1479.28 1219.83 L 1505.15 1219.24 C 1511.47 1219.1 1516.96 1218.18 1521.62 1216.49 C 1526.28 1214.81 1530.11 1212.46 1533.12 1209.44 C 1536.13 1206.42 1538.35 1202.78 1539.79 1198.52 C 1541.23 1194.26 1541.89 1189.53 1541.77 1184.32 C 1541.66 1179.37 1540.79 1174.9 1539.16 1170.92 C 1537.53 1166.94 1535.15 1163.58 1532.01 1160.83 C 1528.87 1158.09 1524.94 1156.02 1520.21 1154.63 C 1515.48 1153.25 1509.95 1152.62 1503.63 1152.77 L 1477.76 1153.36 L 1479.28 1219.83 Z  M 1479.89 1246.73 L 1481.38 1311.93 L 1446.93 1312.71 L 1442.7 1127.51 L 1503.02 1126.13 C 1515.41 1125.84 1526.15 1127.05 1535.27 1129.75 C 1544.39 1132.44 1551.96 1136.33 1557.97 1141.4 C 1563.98 1146.48 1568.47 1152.61 1571.46 1159.8 C 1574.44 1167 1576.03 1174.91 1576.23 1183.53 C 1576.43 1192.5 1575.13 1200.75 1572.31 1208.29 C 1569.49 1215.83 1565.15 1222.36 1559.3 1227.87 C 1553.45 1233.39 1546.07 1237.74 1537.17 1240.94 C 1528.28 1244.13 1517.81 1245.86 1505.77 1246.14 L 1479.89 1246.73 Z " fill-rule="evenodd" fill="url(#_lgradient_961)"/><linearGradient id="_lgradient_962" x1="0" y1="0" x2="1" y2="0" gradientTransform="matrix(-826.693,952.294,-952.294,-826.693,2061.55,712.944)" gradientUnits="userSpaceOnUse"><stop offset="0%" stop-opacity="1" style="stop-color:rgb(225,71,61)"/><stop offset="100%" stop-opacity="1" style="stop-color:rgb(233,96,90)"/></linearGradient><path d=" M 1639.38 1216.17 L 1665.26 1215.58 C 1671.57 1215.44 1677.06 1214.52 1681.73 1212.83 C 1686.38 1211.15 1690.22 1208.8 1693.22 1205.78 C 1696.23 1202.76 1698.46 1199.13 1699.9 1194.86 C 1701.34 1190.6 1702 1185.87 1701.88 1180.66 C 1701.76 1175.71 1700.89 1171.24 1699.27 1167.26 C 1697.64 1163.28 1695.25 1159.92 1692.11 1157.17 C 1688.98 1154.43 1685.04 1152.36 1680.31 1150.97 C 1675.58 1149.59 1670.05 1148.96 1663.74 1149.11 L 1637.86 1149.7 L 1639.38 1216.17 Z  M 1640 1243.07 L 1641.49 1308.27 L 1607.04 1309.05 L 1602.8 1123.85 L 1663.13 1122.47 C 1675.51 1122.18 1686.26 1123.39 1695.38 1126.09 C 1704.49 1128.78 1712.06 1132.67 1718.07 1137.74 C 1724.08 1142.82 1728.58 1148.95 1731.56 1156.14 C 1734.54 1163.34 1736.14 1171.25 1736.33 1179.87 C 1736.54 1188.83 1735.23 1197.09 1732.41 1204.63 C 1729.59 1212.17 1725.26 1218.7 1719.41 1224.21 C 1713.55 1229.73 1706.17 1234.08 1697.28 1237.28 C 1688.38 1240.47 1677.91 1242.2 1665.87 1242.48 L 1640 1243.07 Z " fill-rule="evenodd" fill="url(#_lgradient_962)"/><linearGradient id="_lgradient_963" x1="0" y1="0" x2="1" y2="0" gradientTransform="matrix(-826.693,952.295,-952.295,-826.693,2180.31,816.045)" gradientUnits="userSpaceOnUse"><stop offset="0%" stop-opacity="1" style="stop-color:rgb(225,71,61)"/><stop offset="100%" stop-opacity="1" style="stop-color:rgb(233,96,90)"/></linearGradient><path d=" M 1799.37 1207.52 L 1820.89 1207.03 C 1827.38 1206.88 1833.02 1205.94 1837.81 1204.21 C 1842.59 1202.47 1846.51 1200.14 1849.56 1197.21 C 1852.62 1194.28 1854.87 1190.83 1856.31 1186.87 C 1857.76 1182.91 1858.43 1178.57 1858.32 1173.88 C 1858.11 1164.48 1854.85 1157.34 1848.54 1152.44 C 1842.23 1147.55 1832.72 1145.24 1820 1145.54 L 1797.97 1146.04 L 1799.37 1207.52 Z  M 1799.94 1232.24 L 1801.59 1304.61 L 1767.14 1305.39 L 1762.9 1120.19 L 1819.39 1118.89 C 1832.03 1118.61 1842.88 1119.66 1851.95 1122.06 C 1861.01 1124.46 1868.49 1127.94 1874.36 1132.5 C 1880.23 1137.07 1884.58 1142.59 1887.42 1149.06 C 1890.26 1155.53 1891.77 1162.69 1891.95 1170.54 C 1892.09 1176.78 1891.31 1182.69 1889.6 1188.28 C 1887.89 1193.88 1885.36 1198.98 1882 1203.58 C 1878.65 1208.19 1874.47 1212.25 1869.47 1215.78 C 1864.47 1219.32 1858.74 1222.18 1852.3 1224.38 C 1856.71 1226.76 1860.55 1230.21 1863.81 1234.75 L 1911.74 1302.09 L 1880.75 1302.8 C 1877.76 1302.86 1875.21 1302.32 1873.09 1301.18 C 1870.96 1300.03 1869.16 1298.36 1867.65 1296.17 L 1827.36 1237.76 C 1825.86 1235.58 1824.22 1234.03 1822.45 1233.13 C 1820.68 1232.23 1818.08 1231.82 1814.67 1231.9 L 1799.94 1232.24 Z " fill-rule="evenodd" fill="url(#_lgradient_963)"/><linearGradient id="_lgradient_964" x1="0" y1="0" x2="1" y2="0" gradientTransform="matrix(-826.688,952.289,-952.289,-826.688,2276.43,899.499)" gradientUnits="userSpaceOnUse"><stop offset="0%" stop-opacity="1" style="stop-color:rgb(225,71,61)"/><stop offset="100%" stop-opacity="1" style="stop-color:rgb(233,96,90)"/></linearGradient><path d=" M 2067.81 1205.87 C 2067.58 1195.71 2066.02 1186.62 2063.15 1178.61 C 2060.28 1170.61 2056.25 1163.84 2051.09 1158.32 C 2045.92 1152.8 2039.7 1148.63 2032.41 1145.81 C 2025.13 1142.98 2016.96 1141.67 2007.91 1141.88 C 1998.86 1142.09 1990.74 1143.77 1983.55 1146.92 C 1976.36 1150.08 1970.29 1154.53 1965.34 1160.28 C 1960.39 1166.03 1956.64 1172.98 1954.09 1181.11 C 1951.54 1189.24 1950.38 1198.39 1950.62 1208.55 C 1950.85 1218.71 1952.42 1227.79 1955.34 1235.8 C 1958.26 1243.8 1962.32 1250.55 1967.53 1256.02 C 1972.74 1261.5 1979 1265.65 1986.33 1268.47 C 1993.66 1271.3 2001.84 1272.6 2010.9 1272.4 C 2019.95 1272.19 2028.04 1270.51 2035.19 1267.35 C 2042.34 1264.2 2048.37 1259.77 2053.28 1254.06 C 2058.19 1248.36 2061.9 1241.44 2064.4 1233.31 C 2066.91 1225.18 2068.04 1216.03 2067.81 1205.87 Z  M 2103.16 1205.06 C 2103.47 1218.64 2101.5 1231.26 2097.24 1242.94 C 2092.97 1254.61 2086.84 1264.77 2078.84 1273.41 C 2070.83 1282.05 2061.12 1288.87 2049.7 1293.87 C 2038.29 1298.87 2025.57 1301.54 2011.57 1301.86 C 1997.56 1302.18 1984.72 1300.1 1973.04 1295.63 C 1961.37 1291.15 1951.31 1284.78 1942.88 1276.51 C 1934.44 1268.25 1927.83 1258.38 1923.04 1246.92 C 1918.25 1235.45 1915.7 1222.93 1915.39 1209.35 C 1915.08 1195.78 1917.06 1183.15 1921.32 1171.48 C 1925.58 1159.8 1931.73 1149.64 1939.78 1141 C 1947.83 1132.36 1957.58 1125.54 1969.04 1120.53 C 1980.5 1115.53 1993.24 1112.87 2007.24 1112.55 C 2021.24 1112.23 2034.07 1114.33 2045.7 1118.85 C 2057.34 1123.37 2067.35 1129.74 2075.74 1137.96 C 2084.13 1146.18 2090.72 1156.03 2095.51 1167.49 C 2100.3 1178.96 2102.85 1191.48 2103.16 1205.06 Z " fill-rule="evenodd" fill="url(#_lgradient_964)"/><linearGradient id="_lgradient_965" x1="0" y1="0" x2="1" y2="0" gradientTransform="matrix(-826.697,952.299,-952.299,-826.697,2359.49,971.613)" gradientUnits="userSpaceOnUse"><stop offset="0%" stop-opacity="1" style="stop-color:rgb(225,71,61)"/><stop offset="100%" stop-opacity="1" style="stop-color:rgb(233,96,90)"/></linearGradient><path d=" M 2102.84 1112.42 L 2130.63 1111.78 C 2133.62 1111.71 2136.07 1112.38 2137.98 1113.79 C 2139.89 1115.2 2141.35 1117.05 2142.34 1119.33 L 2188.47 1231.3 C 2190 1234.94 2191.48 1238.94 2192.91 1243.31 C 2194.33 1247.68 2195.7 1252.28 2197 1257.12 C 2198.75 1247.26 2200.98 1238.54 2203.71 1230.95 L 2244.55 1116.99 C 2245.27 1115.01 2246.6 1113.19 2248.52 1111.52 C 2250.45 1109.85 2252.87 1108.99 2255.77 1108.92 L 2283.56 1108.28 L 2213 1295.2 L 2181.87 1295.91 L 2102.84 1112.42 Z " fill="url(#_lgradient_965)"/><linearGradient id="_lgradient_966" x1="0" y1="0" x2="1" y2="0" gradientTransform="matrix(-826.694,952.295,-952.295,-826.694,2474.35,1071.33)" gradientUnits="userSpaceOnUse"><stop offset="0%" stop-opacity="1" style="stop-color:rgb(225,71,61)"/><stop offset="100%" stop-opacity="1" style="stop-color:rgb(233,96,90)"/></linearGradient><path d=" M 2419.71 1105.17 L 2420.34 1132.58 L 2338.24 1134.46 L 2339.41 1185.82 L 2404.09 1184.34 L 2404.7 1210.85 L 2340.02 1212.33 L 2341.22 1264.72 L 2423.32 1262.84 L 2423.95 1290.38 L 2307.14 1293.05 L 2302.9 1107.84 L 2419.71 1105.17 Z " fill="url(#_lgradient_966)"/><linearGradient id="_lgradient_967" x1="0" y1="0" x2="1" y2="0" gradientTransform="matrix(-826.689,952.29,-952.29,-826.689,2555.86,1142.1)" gradientUnits="userSpaceOnUse"><stop offset="0%" stop-opacity="1" style="stop-color:rgb(225,71,61)"/><stop offset="100%" stop-opacity="1" style="stop-color:rgb(233,96,90)"/></linearGradient><path d=" M 2580.91 1194.14 C 2580.67 1183.98 2579.1 1174.89 2576.18 1166.89 C 2573.26 1158.88 2569.22 1152.14 2564.06 1146.66 C 2558.89 1141.18 2552.67 1137.03 2545.39 1134.21 C 2538.1 1131.38 2529.93 1130.08 2520.88 1130.28 L 2484.89 1131.11 L 2487.87 1261.49 L 2523.86 1260.67 C 2532.91 1260.46 2541.01 1258.78 2548.16 1255.63 C 2555.31 1252.48 2561.34 1248.05 2566.25 1242.34 C 2571.16 1236.63 2574.88 1229.71 2577.43 1221.58 C 2579.98 1213.45 2581.14 1204.3 2580.91 1194.14 Z  M 2616.13 1193.33 C 2616.44 1206.91 2614.46 1219.43 2610.2 1230.89 C 2605.93 1242.35 2599.79 1252.27 2591.78 1260.65 C 2583.77 1269.04 2574.06 1275.63 2562.63 1280.42 C 2551.21 1285.21 2538.49 1287.76 2524.49 1288.08 L 2453.79 1289.7 L 2449.56 1104.49 L 2520.26 1102.87 C 2534.26 1102.55 2547.08 1104.55 2558.71 1108.85 C 2570.34 1113.15 2580.35 1119.29 2588.73 1127.26 C 2597.12 1135.23 2603.7 1144.84 2608.49 1156.09 C 2613.27 1167.34 2615.82 1179.76 2616.13 1193.33 Z " fill-rule="evenodd" fill="url(#_lgradient_967)"/><linearGradient id="_lgradient_968" x1="0" y1="0" x2="1" y2="0" gradientTransform="matrix(-826.71,952.314,-952.314,-826.71,2654.15,1227.44)" gradientUnits="userSpaceOnUse"><stop offset="0%" stop-opacity="1" style="stop-color:rgb(225,71,61)"/><stop offset="100%" stop-opacity="1" style="stop-color:rgb(233,96,90)"/></linearGradient><path d=" M 2640.65 1268 C 2640.58 1265.35 2641.02 1262.82 2641.95 1260.41 C 2642.87 1257.99 2644.19 1255.91 2645.91 1254.16 C 2647.62 1252.42 2649.65 1251 2652.02 1249.92 C 2654.39 1248.84 2656.94 1248.27 2659.67 1248.21 C 2662.32 1248.15 2664.85 1248.6 2667.26 1249.58 C 2669.68 1250.54 2671.76 1251.87 2673.5 1253.53 C 2675.25 1255.2 2676.67 1257.22 2677.74 1259.59 C 2678.82 1261.96 2679.39 1264.46 2679.45 1267.11 C 2679.52 1269.84 2679.06 1272.39 2678.09 1274.76 C 2677.12 1277.14 2675.8 1279.2 2674.13 1280.94 C 2672.46 1282.69 2670.44 1284.08 2668.08 1285.12 C 2665.71 1286.15 2663.2 1286.7 2660.55 1286.76 C 2657.82 1286.83 2655.25 1286.39 2652.83 1285.47 C 2650.42 1284.54 2648.32 1283.24 2646.53 1281.57 C 2644.74 1279.91 2643.33 1277.91 2642.29 1275.58 C 2641.26 1273.26 2640.71 1270.73 2640.65 1268 Z  M 2638.56 1176.67 C 2638.5 1174.03 2638.93 1171.5 2639.86 1169.08 C 2640.78 1166.67 2642.1 1164.59 2643.82 1162.84 C 2645.53 1161.09 2647.57 1159.68 2649.93 1158.6 C 2652.3 1157.52 2654.85 1156.95 2657.59 1156.89 C 2660.23 1156.83 2662.76 1157.28 2665.18 1158.25 C 2667.59 1159.22 2669.67 1160.54 2671.42 1162.21 C 2673.16 1163.88 2674.58 1165.9 2675.66 1168.26 C 2676.74 1170.63 2677.31 1173.14 2677.37 1175.79 C 2677.43 1178.52 2676.97 1181.07 2676 1183.44 C 2675.03 1185.82 2673.71 1187.87 2672.04 1189.62 C 2670.37 1191.37 2668.36 1192.76 2665.99 1193.79 C 2663.62 1194.83 2661.11 1195.38 2658.47 1195.44 C 2655.73 1195.5 2653.16 1195.07 2650.75 1194.14 C 2648.33 1193.22 2646.23 1191.92 2644.44 1190.25 C 2642.65 1188.58 2641.24 1186.59 2640.21 1184.26 C 2639.17 1181.94 2638.62 1179.41 2638.56 1176.67 Z " fill-rule="evenodd" fill="url(#_lgradient_968)"/><linearGradient id="_lgradient_969" x1="0" y1="0" x2="1" y2="0" gradientTransform="matrix(-745.512,980.704,-980.704,-745.512,2271.69,255.688)" gradientUnits="userSpaceOnUse"><stop offset="0%" stop-opacity="1" style="stop-color:rgb(9,0,93)"/><stop offset="100%" stop-opacity="1" style="stop-color:rgb(26,15,145)"/></linearGradient><path d=" M 2009.98 633.707 C 1984.66 633.707 1964.13 613.178 1964.13 587.852 C 1964.13 562.527 1984.66 541.997 2009.98 541.997 C 2035.31 541.997 2055.84 562.527 2055.84 587.852 C 2055.84 613.178 2035.31 633.707 2009.98 633.707 Z  M 2090.86 497.621 C 2032.31 456.892 1981.4 457.699 1945.57 468.273 C 1912.88 477.918 1891.69 509.48 1894.8 543.421 L 1910.25 712.104 L 2094.15 728.424 C 2094.15 728.424 2205.67 577.497 2090.86 497.621 Z " fill-rule="evenodd" fill="url(#_lgradient_969)"/><path d=" M 1923.8 588.225 C 1921.68 588.225 1919.86 586.604 1919.67 584.445 L 1917.8 564.049 C 1914.84 531.844 1935.1 501.861 1965.97 492.756 C 1987.87 486.292 2010.44 485.363 2033.05 489.998 C 2035.3 490.459 2036.75 492.656 2036.29 494.907 C 2035.83 497.155 2033.64 498.613 2031.38 498.146 C 2010.12 493.79 1988.9 494.663 1968.32 500.733 C 1941.26 508.719 1923.49 535.028 1926.08 563.289 L 1927.95 583.686 C 1928.16 585.975 1926.47 587.998 1924.19 588.207 C 1924.06 588.219 1923.93 588.225 1923.8 588.225 Z  M 1928.63 640.868 C 1926.5 640.868 1924.69 639.247 1924.49 637.088 L 1922.03 610.227 C 1921.82 607.94 1923.5 605.915 1925.79 605.706 C 1928.14 605.509 1930.1 607.18 1930.31 609.467 L 1932.77 636.329 C 1932.98 638.615 1931.3 640.64 1929.01 640.849 C 1928.88 640.861 1928.75 640.868 1928.63 640.868 Z " fill="rgb(145,179,250)"/><linearGradient id="_lgradient_970" x1="0" y1="0" x2="1" y2="0" gradientTransform="matrix(-745.512,980.703,-980.703,-745.512,2353.46,317.851)" gradientUnits="userSpaceOnUse"><stop offset="0%" stop-opacity="1" style="stop-color:rgb(9,0,93)"/><stop offset="100%" stop-opacity="1" style="stop-color:rgb(26,15,145)"/></linearGradient><path d=" M 1659.26 821.115 L 1659.26 736.307 C 1659.26 707.031 1683.53 683.583 1712.79 684.586 L 2297.51 704.619 C 2323.46 705.508 2344.47 725.991 2346.03 751.909 L 2350.91 833.397 L 1659.26 821.115 Z " fill="url(#_lgradient_970)"/><path d=" M 1877.29 716.263 L 1852.15 716.263 C 1849.85 716.263 1847.99 714.4 1847.99 712.104 C 1847.99 709.807 1849.85 707.944 1852.15 707.944 L 1877.29 707.944 C 1879.59 707.944 1881.45 709.807 1881.45 712.104 C 1881.45 714.4 1879.59 716.263 1877.29 716.263 Z " fill="rgb(145,179,250)"/><path d=" M 1690.91 794.207 C 1688.62 794.207 1686.75 792.345 1686.75 790.048 L 1686.75 755.741 C 1686.75 729.385 1708.2 707.944 1734.55 707.944 L 1827 707.944 C 1829.3 707.944 1831.16 709.807 1831.16 712.104 C 1831.16 714.4 1829.3 716.263 1827 716.263 L 1734.55 716.263 C 1712.78 716.263 1695.07 733.973 1695.07 755.741 L 1695.07 790.048 C 1695.07 792.345 1693.21 794.207 1690.91 794.207 Z " fill="rgb(145,179,250)"/><linearGradient id="_lgradient_971" x1="0" y1="0" x2="1" y2="0" gradientTransform="matrix(-514.76,945.204,-945.204,-514.76,2259.52,377.84)" gradientUnits="userSpaceOnUse"><stop offset="0%" stop-opacity="1" style="stop-color:rgb(79,82,255)"/><stop offset="100%" stop-opacity="1" style="stop-color:rgb(64,66,226)"/></linearGradient><path d=" M 1476.05 790.077 L 2498.54 790.048 C 2535.31 790.047 2566.74 816.505 2573.01 852.732 L 2573.88 857.732 C 2580.75 897.413 2550.19 933.706 2509.92 933.706 L 1460.91 933.706 C 1436.81 933.706 1417.6 913.555 1418.76 889.482 L 1421.02 842.531 C 1422.43 813.164 1446.65 790.078 1476.05 790.077 Z " fill="url(#_lgradient_971)"/><path d=" M 2864.54 1986.28 L 2848.67 1677.78 C 2855.04 1688.2 2861.08 1698.9 2866.79 1709.91 C 2878.13 1731.77 2887.78 1754.07 2895.79 1776.67 L 2906.57 1986 C 2892.93 1986.06 2878.89 1986.15 2864.54 1986.28 Z " fill="rgb(160,179,247)"/><path d=" M 2633.92 1614.58 L 1978.35 1614.58 C 1997.81 1592.17 2019.29 1571.14 2042.66 1551.82 L 2632.35 1562.05 C 2635.86 1562.12 2638.82 1565.04 2638.93 1568.55 L 2640.12 1608.2 C 2640.22 1611.71 2637.43 1614.58 2633.92 1614.58 Z " fill="rgb(236,241,254)"/><path d=" M 2633.92 1915.73 L 1848.16 1915.73 C 1850.36 1893.53 1853.95 1871.51 1858.9 1849.78 L 2632.35 1863.21 C 2635.86 1863.27 2638.82 1866.19 2638.93 1869.7 L 2640.12 1909.35 C 2640.22 1912.86 2637.43 1915.73 2633.92 1915.73 Z " fill="rgb(236,241,254)"/><path d=" M 2344.46 2216.89 L 1908.6 2216.89 C 1907.23 2214.34 1905.88 2211.79 1904.54 2209.21 C 1894.67 2190.18 1886.07 2170.81 1878.73 2151.21 L 2348.17 2159.24 L 2344.46 2216.89 Z " fill="rgb(236,241,254)"/><path d=" M 1466.24 2991.19 C 1465.88 2991.24 1465.49 2991.14 1465.2 2990.88 C 1464.65 2990.4 1464.6 2989.57 1465.08 2989.03 L 1475.33 2977.35 C 1475.8 2976.8 1476.63 2976.75 1477.18 2977.23 C 1477.72 2977.7 1477.77 2978.53 1477.3 2979.07 L 1467.05 2990.75 C 1466.83 2991 1466.54 2991.15 1466.24 2991.19 Z " fill="rgb(145,179,250)"/><linearGradient id="_lgradient_972" x1="0" y1="0" x2="1" y2="0" gradientTransform="matrix(157.568,0,0,-157.568,988.667,2054.59)" gradientUnits="userSpaceOnUse"><stop offset="0%" stop-opacity="1" style="stop-color:rgb(254,187,186)"/><stop offset="100%" stop-opacity="1" style="stop-color:rgb(255,146,142)"/></linearGradient><path d=" M 1146.24 2031.02 C 1146.24 2031.02 1146.24 2213.21 1066.36 2198.36 C 1017.56 2189.28 988.667 1993.02 988.667 1993.02 C 988.667 1993.02 1039.16 1880.55 1044.8 1917.37 C 1085.79 2184.98 1116.32 1980.16 1146.24 2031.02 Z " fill="url(#_lgradient_972)"/><linearGradient id="_lgradient_973" x1="0" y1="0" x2="1" y2="0" gradientTransform="matrix(4.153,456.806,-456.806,4.153,1021.92,2815.47)" gradientUnits="userSpaceOnUse"><stop offset="0%" stop-opacity="1" style="stop-color:rgb(9,0,93)"/><stop offset="100%" stop-opacity="1" style="stop-color:rgb(26,15,145)"/></linearGradient><path d=" M 931.712 3112.42 C 931.712 3112.42 925.681 3146.57 922.725 3180.36 C 921.568 3193.57 931.753 3205.04 945.001 3205.59 C 990.011 3207.47 1086.29 3211.11 1120.84 3209.57 C 1126.03 3209.34 1129.43 3204.02 1127.5 3199.19 C 1125.89 3195.15 1122.79 3191.87 1118.83 3190.05 L 959.794 3116.96 L 931.712 3112.42 Z " fill="url(#_lgradient_973)"/><linearGradient id="_lgradient_974" x1="0" y1="0" x2="1" y2="0" gradientTransform="matrix(51.73,0,0,51.73,926.772,3112.28)" gradientUnits="userSpaceOnUse"><stop offset="0%" stop-opacity="1" style="stop-color:rgb(254,187,186)"/><stop offset="100%" stop-opacity="1" style="stop-color:rgb(255,146,142)"/></linearGradient><path d=" M 926.771 3092.36 L 931.618 3133.2 C 931.618 3133.2 959.476 3146.17 978.501 3131.57 L 966.964 3086.05 L 926.771 3092.36 Z " fill="url(#_lgradient_974)"/><linearGradient id="_lgradient_975" x1="0" y1="0" x2="1" y2="0" gradientTransform="matrix(35.306,-947.362,947.362,35.306,868.323,3309.11)" gradientUnits="userSpaceOnUse"><stop offset="0%" stop-opacity="1" style="stop-color:rgb(9,0,93)"/><stop offset="100%" stop-opacity="1" style="stop-color:rgb(26,15,145)"/></linearGradient><path d=" M 930.413 2324.54 C 928.32 2335.21 919.179 2856.77 974.929 3090.49 C 975.838 3094.31 973.906 3098.24 970.275 3099.72 C 961.725 3103.21 944.962 3108.27 924.872 3108.95 C 918.65 3109.16 913.072 3105.11 911.317 3099.14 C 895.381 3044.91 819.018 2773.21 809.056 2513.67 C 797.924 2223.65 809.056 2503.79 809.056 2503.79 L 815.584 2324.52 L 930.413 2324.54 Z " fill="url(#_lgradient_975)"/><linearGradient id="_lgradient_976" x1="0" y1="0" x2="1" y2="0" gradientTransform="matrix(4.153,456.805,-456.805,4.153,767.625,2817.78)" gradientUnits="userSpaceOnUse"><stop offset="0%" stop-opacity="1" style="stop-color:rgb(9,0,93)"/><stop offset="100%" stop-opacity="1" style="stop-color:rgb(26,15,145)"/></linearGradient><path d=" M 748.771 3130.23 C 748.771 3130.23 739.169 3147.47 729.875 3193.27 C 728.197 3201.55 733.977 3209.46 742.376 3210.29 C 757.239 3211.75 780.119 3213.63 798.446 3213.5 C 806.896 3213.44 813.489 3206.09 812.471 3197.7 C 810.44 3180.98 804.116 3153.55 784.579 3132.17 L 748.771 3130.23 Z " fill="url(#_lgradient_976)"/><linearGradient id="_lgradient_977" x1="0" y1="0" x2="1" y2="0" gradientTransform="matrix(44.663,0,0,44.663,740.339,3109.63)" gradientUnits="userSpaceOnUse"><stop offset="0%" stop-opacity="1" style="stop-color:rgb(254,187,186)"/><stop offset="100%" stop-opacity="1" style="stop-color:rgb(255,146,142)"/></linearGradient><path d=" M 740.339 3077.7 L 751.661 3139.47 C 751.661 3139.47 762.856 3147.79 785.002 3141.76 L 779.598 3075.3 L 740.339 3077.7 Z " fill="url(#_lgradient_977)"/><linearGradient id="_lgradient_978" x1="0" y1="0" x2="1" y2="0" gradientTransform="matrix(35.306,-947.359,947.359,35.306,781.005,3305.86)" gradientUnits="userSpaceOnUse"><stop offset="0%" stop-opacity="1" style="stop-color:rgb(9,0,93)"/><stop offset="100%" stop-opacity="1" style="stop-color:rgb(26,15,145)"/></linearGradient><path d=" M 709.751 2340.55 C 664.154 2615.73 719.642 3020.67 738.355 3099.93 C 739.501 3104.78 743.417 3108.5 748.335 3109.32 C 756.688 3110.7 770.44 3111.83 784 3107.89 C 788.671 3106.54 791.953 3102.32 792.143 3097.46 C 794.654 3033.38 790.135 2640.01 832.621 2484.54 C 834.774 2476.67 839.585 2469.8 846.241 2465.06 L 928.704 2406.44 L 935.025 2311.68 L 709.751 2340.55 Z " fill="url(#_lgradient_978)"/><linearGradient id="_lgradient_979" x1="0" y1="0" x2="1" y2="0" gradientTransform="matrix(59.748,-408.274,-408.274,-59.748,670.847,3470.06)" gradientUnits="userSpaceOnUse"><stop offset="0%" stop-opacity="1" style="stop-color:rgb(255,146,142)"/><stop offset="100%" stop-opacity="1" style="stop-color:rgb(254,112,98)"/></linearGradient><path d=" M 1005.32 1829.53 C 838.827 1812.88 712.878 1855.02 712.878 1855.02 C 672.147 2092.68 705.755 2366.81 705.755 2366.81 C 811.542 2394.55 930.875 2349.84 930.875 2349.84 C 948.458 2250.51 1021.72 2021.13 1021.72 2021.13 C 1055.1 2016.99 1086.43 2033.85 1079.22 1987.51 C 1072.02 1941.17 1026.29 1831.63 1005.32 1829.53 Z " fill="url(#_lgradient_979)"/><linearGradient id="_lgradient_980" x1="0" y1="0" x2="1" y2="0" gradientTransform="matrix(59.748,-408.273,-408.273,-59.748,457.074,3438.77)" gradientUnits="userSpaceOnUse"><stop offset="0%" stop-opacity="1" style="stop-color:rgb(255,146,142)"/><stop offset="100%" stop-opacity="1" style="stop-color:rgb(254,112,98)"/></linearGradient><path d=" M 765.289 1987.33 L 712.878 1855.02 C 712.878 1855.02 585.245 1941.74 564.255 2051.69 C 588.371 2053.47 632.255 2059.74 675.209 2081.43 C 684.648 2029.51 765.289 1987.33 765.289 1987.33 Z " fill="url(#_lgradient_980)"/><linearGradient id="_lgradient_981" x1="0" y1="0" x2="1" y2="0" gradientTransform="matrix(345.45,0,0,345.45,561.44,2130.54)" gradientUnits="userSpaceOnUse"><stop offset="0%" stop-opacity="1" style="stop-color:rgb(254,187,186)"/><stop offset="100%" stop-opacity="1" style="stop-color:rgb(255,146,142)"/></linearGradient><path d=" M 887.926 2111.83 C 887.926 2111.83 740.497 2192.59 692.146 2123.44 C 682.107 2109.08 673.075 2090.02 675.549 2076.41 C 632.594 2054.72 588.372 2053.47 564.255 2051.69 C 557.927 2084.84 561.169 2112.99 585.37 2158.29 C 650.1 2279.45 906.89 2147.16 906.89 2147.16 L 887.926 2111.83 Z " fill="url(#_lgradient_981)"/><linearGradient id="_lgradient_982" x1="0" y1="0" x2="1" y2="0" gradientTransform="matrix(-108.436,165.973,-165.973,-108.436,1321.91,1573.08)" gradientUnits="userSpaceOnUse"><stop offset="0%" stop-opacity="1" style="stop-color:rgb(9,0,93)"/><stop offset="100%" stop-opacity="1" style="stop-color:rgb(26,15,145)"/></linearGradient><path d=" M 894.604 2164.88 L 957.235 1946.16 C 957.946 1943.67 960.064 1941.86 962.629 1941.56 C 973.977 1940.24 1006.86 1936.52 1044.82 1933.31 C 1090.55 1929.44 1143.66 1926.31 1175.39 1928.98 C 1179.9 1929.36 1182.63 1934.13 1180.62 1938.19 C 1162.58 1974.7 1088.35 2123.21 1051.18 2171.86 C 1049.94 2173.47 1048.04 2174.41 1046.01 2174.39 L 900.697 2173.04 C 896.469 2173 893.44 2168.94 894.604 2164.88 Z " fill="url(#_lgradient_982)"/><path d=" M 1053.66 1914.6 L 1098.25 1907.17 C 1100.63 1906.77 1102.57 1909.04 1101.82 1911.33 L 1097.4 1924.7 C 1097.02 1925.87 1096 1926.71 1094.79 1926.87 L 1051.88 1932.6 C 1049.66 1932.9 1047.83 1930.88 1048.34 1928.7 L 1051.07 1917.02 C 1051.37 1915.77 1052.39 1914.81 1053.66 1914.6 Z " fill="rgb(145,179,250)"/><path d=" M 1020.28 1952.34 L 1023.95 1933.21 C 1024.32 1931.29 1025.9 1929.84 1027.85 1929.64 L 1117.91 1920.51 C 1120.94 1920.2 1123.37 1922.98 1122.65 1925.94 L 1116.93 1949.78 C 1116.47 1951.69 1114.81 1953.07 1112.85 1953.17 L 1024.84 1957.6 C 1021.98 1957.74 1019.74 1955.16 1020.28 1952.34 Z " fill="rgb(125,151,244)"/><linearGradient id="_lgradient_983" x1="0" y1="0" x2="1" y2="0" gradientTransform="matrix(104.194,0,0,104.194,882.059,2101.92)" gradientUnits="userSpaceOnUse"><stop offset="0%" stop-opacity="1" style="stop-color:rgb(254,187,186)"/><stop offset="100%" stop-opacity="1" style="stop-color:rgb(255,146,142)"/></linearGradient><path d=" M 900.685 2148.61 C 894.411 2149.22 888.744 2144.82 887.462 2138.65 C 884.539 2124.57 879.994 2098.85 883.103 2087.61 C 887.498 2071.71 896.013 2051.28 924.393 2055.82 C 952.773 2060.36 986.253 2072.32 986.253 2072.32 C 986.253 2072.32 984.561 2093.02 962.992 2086.34 L 976.367 2096.69 C 976.367 2096.69 974.455 2113.27 956.235 2104.41 L 968.676 2118.14 C 968.676 2118.14 960.852 2131.75 947.447 2123.02 C 935.465 2115.21 929.059 2145.87 900.685 2148.61 Z " fill="url(#_lgradient_983)"/><linearGradient id="_lgradient_984" x1="0" y1="0" x2="1" y2="0" gradientTransform="matrix(-88.277,-55.35,-55.35,88.277,1139.48,2043.76)" gradientUnits="userSpaceOnUse"><stop offset="0%" stop-opacity="1" style="stop-color:rgb(254,187,186)"/><stop offset="100%" stop-opacity="1" style="stop-color:rgb(255,146,142)"/></linearGradient><path d=" M 1108.49 2078.99 C 1108.49 2078.99 1141.51 2046.82 1146.24 2031.02 C 1150.96 2015.22 1154.6 1993.38 1128.14 1982.15 C 1101.68 1970.93 1066.97 1963.27 1066.97 1963.27 C 1066.97 1963.27 1057.4 1981.71 1079.22 1987.51 L 1062.39 1989.17 C 1062.39 1989.17 1055.21 2004.23 1075.35 2006.41 L 1057.52 2011.43 C 1057.52 2011.43 1056.92 2027.12 1072.91 2026.84 C 1088.91 2026.56 1073.42 2063.36 1108.49 2078.99 Z " fill="url(#_lgradient_984)"/><linearGradient id="_lgradient_985" x1="0" y1="0" x2="1" y2="0" gradientTransform="matrix(132.229,0,0,132.229,824.202,1796.49)" gradientUnits="userSpaceOnUse"><stop offset="0%" stop-opacity="1" style="stop-color:rgb(254,187,186)"/><stop offset="100%" stop-opacity="1" style="stop-color:rgb(255,146,142)"/></linearGradient><path d=" M 867.933 1725.18 L 824.456 1850.91 C 823.735 1852.99 824.592 1855.3 826.52 1856.37 C 838.373 1862.92 881.071 1881.86 932.527 1849.24 C 937.888 1845.84 941.537 1840.3 942.351 1834 L 956.431 1725.18 L 867.933 1725.18 Z " fill="url(#_lgradient_985)"/><linearGradient id="_lgradient_986" x1="0" y1="0" x2="1" y2="0" gradientTransform="matrix(-65.729,-157.099,157.099,-65.729,957.5,1792.85)" gradientUnits="userSpaceOnUse"><stop offset="0%" stop-opacity="1" style="stop-color:rgb(254,187,186)"/><stop offset="100%" stop-opacity="1" style="stop-color:rgb(255,146,142)"/></linearGradient><path d=" M 997.76 1694.06 C 997.76 1694.06 983.71 1794.85 957.459 1820.66 C 931.208 1846.48 884.814 1809.66 860.263 1755.47 L 887.942 1655.7 L 997.76 1694.06 Z " fill="url(#_lgradient_986)"/><linearGradient id="_lgradient_987" x1="0" y1="0" x2="1" y2="0" gradientTransform="matrix(65.094,230.322,-230.322,65.094,884.271,1514.91)" gradientUnits="userSpaceOnUse"><stop offset="0%" stop-opacity="1" style="stop-color:rgb(9,0,93)"/><stop offset="100%" stop-opacity="1" style="stop-color:rgb(26,15,145)"/></linearGradient><path d=" M 890.066 1718.21 C 892.313 1718.69 894.447 1717.06 894.555 1714.77 C 894.885 1707.79 896.071 1693.93 900.34 1684.14 C 900.34 1684.14 896.613 1674.65 925.529 1686.6 C 954.444 1698.55 997.825 1716.01 1020.74 1700.63 C 1043.08 1685.63 1060.55 1619.87 999.296 1637.98 C 996.966 1638.67 994.588 1637 994.52 1634.58 C 994.223 1624.09 990.742 1600.26 965.713 1595.05 C 942.291 1590.18 930.918 1601.69 926.432 1608.4 C 925.112 1610.37 922.313 1610.62 920.686 1608.89 C 912.983 1600.71 892.596 1583.72 866.65 1598.47 C 845.279 1610.62 843.208 1624.76 844.456 1633.31 C 844.86 1636.08 842.229 1638.26 839.58 1637.35 C 832.403 1634.89 821.21 1634.38 812.002 1648.69 C 799.273 1668.48 821.758 1682.21 828.442 1685.73 C 829.538 1686.3 830.291 1687.37 830.425 1688.6 C 831.455 1698.1 837.18 1739.45 860.372 1760.73 C 862.38 1762.57 865.647 1761.64 866.44 1759.03 L 878.553 1719.24 C 879.116 1717.39 880.999 1716.28 882.889 1716.68 L 890.066 1718.21 Z " fill="url(#_lgradient_987)"/><linearGradient id="_lgradient_988" x1="0" y1="0" x2="1" y2="0" gradientTransform="matrix(-59.137,-141.343,141.343,-59.137,907.173,1797.24)" gradientUnits="userSpaceOnUse"><stop offset="0%" stop-opacity="1" style="stop-color:rgb(254,187,186)"/><stop offset="100%" stop-opacity="1" style="stop-color:rgb(255,146,142)"/></linearGradient><path d=" M 891.196 1725.92 C 891.196 1725.92 877.346 1687.09 863.813 1701.55 C 850.281 1716 871.918 1742.54 889.489 1746.23 L 891.196 1725.92 Z " fill="url(#_lgradient_988)"/></g></g></g></svg>