<?xml version="1.0" encoding="UTF-8" standalone="no"?><!-- Generator: Gravit.io --><svg xmlns="http://www.w3.org/2000/svg" xmlns:xlink="http://www.w3.org/1999/xlink" style="isolation:isolate" viewBox="0 0 3710 3710" width="3710pt" height="3710pt"><defs><clipPath id="_clipPath_7TkGBUfns6dQCaSAIoBZ41Bhr0I7wl6n"><rect width="3710" height="3710"/></clipPath></defs><g clip-path="url(#_clipPath_7TkGBUfns6dQCaSAIoBZ41Bhr0I7wl6n)"><g><clipPath id="_clipPath_jEAbGI5CA7oleHRvzMO2qyXSprsPrLJS"><path d=" M 0 0 L 0 3710 L 3710 3710 L 3710 0 L 0 0 Z " fill="rgb(255,255,255)"/></clipPath><g clip-path="url(#_clipPath_jEAbGI5CA7oleHRvzMO2qyXSprsPrLJS)"><linearGradient id="_lgradient_844" x1="0" y1="0" x2="1" y2="0" gradientTransform="matrix(-2479.3,-3079.13,3079.13,-2479.3,3596.37,4050.38)" gradientUnits="userSpaceOnUse"><stop offset="0%" stop-opacity="1" style="stop-color:rgb(218,227,254)"/><stop offset="100%" stop-opacity="1" style="stop-color:rgb(233,239,253)"/></linearGradient><path d=" M 1890.38 3228 C 1722.19 3228 1593.71 3204.49 1542.47 3194.08 C 1387.14 3162.53 1110.71 3106.4 872.474 2910.48 L 1932.7 2910.48 C 1932.18 3002.41 1932.4 3082.96 1933.84 3136.67 C 1934.4 3157.42 1948.62 3174.08 1966.36 3174.76 C 2018.58 3176.76 2153.71 3180.58 2284.79 3181.86 C 2142.63 3216.7 2006.98 3228 1890.38 3228 Z  M 2574.09 3077.22 C 2574.32 3062.76 2574.57 3046.98 2574.81 3030.09 C 2579.97 3025.91 2585.12 3021.63 2590.27 3017.23 C 2590.59 3017.57 2590.9 3017.9 2591.23 3018.25 C 2597.23 3024.62 2605.1 3027.63 2612.91 3027.63 C 2624.18 3027.63 2635.31 3021.36 2640.52 3009.85 C 2648.69 2991.82 2658.58 2967.93 2668.53 2938.92 C 2681.61 2923.55 2694.29 2907.23 2706.4 2889.95 C 2813.42 2737.22 2869.59 2570.25 2896.38 2404.36 C 2927.83 2404.49 2957.49 2404.55 2985.15 2404.55 C 3039.56 2404.55 3086.06 2404.3 3122.88 2403.76 C 3135.97 2403.56 3148.56 2401.27 3160.31 2397.19 C 3105.35 2570.53 3021.8 2722.91 2914.3 2836.08 C 2857.36 2896.03 2803.47 2934.69 2760.9 2965.24 C 2699.66 3009.18 2637.05 3046.17 2574.09 3077.22 Z  M 589.356 2550.82 C 368.959 2100.46 452.247 1514.95 710.74 1107.38 C 766.489 1019.48 1060.97 531.621 1659.49 453.383 C 1718.9 445.618 1779.97 441.692 1841.83 441.692 C 2157.13 441.692 2494.09 543.544 2749.71 757.705 C 2853.45 844.614 2939.2 945.817 3008.29 1056.4 C 2615.04 1045.38 1582.54 1022.34 1107.44 1022.34 C 1043.6 1022.34 989.893 1022.76 949.084 1023.67 C 884.913 1025.11 833.673 1077.53 833.673 1141.72 L 833.673 1809.59 L 649.621 1804.83 C 648.98 1804.81 648.336 1804.8 647.697 1804.8 C 628.071 1804.8 609.215 1812.57 595.285 1826.46 C 580.901 1840.8 573.031 1860.4 573.511 1880.69 L 589.356 2550.82 Z " fill-rule="evenodd" fill="url(#_lgradient_844)"/><linearGradient id="_lgradient_845" x1="0" y1="0" x2="1" y2="0" gradientTransform="matrix(-30.498,-603.862,603.862,-30.498,2111.15,2979)" gradientUnits="userSpaceOnUse"><stop offset="0%" stop-opacity="1" style="stop-color:rgb(9,0,93)"/><stop offset="100%" stop-opacity="1" style="stop-color:rgb(26,15,145)"/></linearGradient><path d=" M 1856.28 2293.46 L 1805.63 2747.75 L 2393.31 2747.75 L 2316.76 2293.46 L 1856.28 2293.46 Z " fill="url(#_lgradient_845)"/><linearGradient id="_lgradient_846" x1="0" y1="0" x2="1" y2="0" gradientTransform="matrix(2413.9,0,0,2413.9,833.673,1713.44)" gradientUnits="userSpaceOnUse"><stop offset="0%" stop-opacity="1" style="stop-color:rgb(9,0,93)"/><stop offset="100%" stop-opacity="1" style="stop-color:rgb(26,15,145)"/></linearGradient><path d=" M 2985.15 2404.55 C 2957.49 2404.55 2927.83 2404.49 2896.38 2404.36 C 2901.41 2373.16 2905.41 2341.99 2908.51 2310.97 L 3177.85 2315.56 L 3177.91 2315.56 C 3179.72 2315.56 3181.21 2314.1 3181.24 2312.28 C 3181.28 2310.44 3179.81 2308.92 3177.97 2308.88 L 2909.16 2304.3 C 2910.22 2293.33 2911.16 2282.4 2911.99 2271.47 L 3069.33 2273.41 C 3069.79 2273.42 3070.27 2273.42 3070.73 2273.42 C 3121.07 2273.43 3162.09 2232.7 3162.28 2182.18 L 3165.75 1174.1 C 3165.75 1174.03 3165.75 1173.96 3165.75 1173.89 C 3165.78 1137.53 3136.78 1107.78 3100.41 1106.89 L 975.188 1063.96 C 974.585 1063.94 973.985 1063.93 973.386 1063.93 C 933.444 1063.93 900.852 1096.34 900.852 1136.5 L 900.852 1811.33 L 833.673 1809.59 L 833.673 1141.72 C 833.673 1077.53 884.913 1025.11 949.084 1023.67 C 989.893 1022.76 1043.6 1022.34 1107.44 1022.34 C 1582.54 1022.34 2615.04 1045.38 3008.29 1056.4 C 3043.96 1057.4 3074.39 1058.3 3098.64 1059.08 C 3157.79 1060.97 3207.15 1104.7 3216.23 1163.17 C 3259.38 1440.84 3247.72 2038.93 3240.54 2287.66 C 3239.07 2338.53 3205.98 2381.33 3160.31 2397.19 C 3148.56 2401.27 3135.97 2403.56 3122.88 2403.76 C 3086.06 2404.3 3039.56 2404.55 2985.15 2404.55 Z " fill="url(#_lgradient_846)"/><linearGradient id="_lgradient_847" x1="0" y1="0" x2="1" y2="0" gradientTransform="matrix(-184.274,2378.2,-2378.2,-184.274,2136.04,311.241)" gradientUnits="userSpaceOnUse"><stop offset="0%" stop-opacity="1" style="stop-color:rgb(83,216,255)"/><stop offset="100%" stop-opacity="1" style="stop-color:rgb(56,64,247)"/></linearGradient><path d=" M 900.852 1136.5 L 900.852 2153.68 C 900.852 2205.1 942.13 2247 993.546 2247.77 L 3069.33 2273.41 C 3120.31 2274.17 3162.09 2233.16 3162.28 2182.18 L 3165.75 1174.1 C 3165.89 1137.65 3136.85 1107.78 3100.41 1106.89 L 975.188 1063.96 C 934.429 1062.96 900.852 1095.73 900.852 1136.5 Z " fill="url(#_lgradient_847)"/><path d=" M 3177.91 2315.56 L 3177.85 2315.56 L 900.797 2276.76 C 898.955 2276.73 897.486 2275.21 897.517 2273.37 C 897.547 2271.53 899.05 2270.07 900.91 2270.09 L 3177.97 2308.88 C 3179.81 2308.92 3181.28 2310.44 3181.24 2312.28 C 3181.21 2314.1 3179.72 2315.56 3177.91 2315.56 Z " fill="rgb(125,151,244)"/><linearGradient id="_lgradient_848" x1="0" y1="0" x2="1" y2="0" gradientTransform="matrix(-280.583,616.062,-616.062,-280.583,2113.05,2751.14)" gradientUnits="userSpaceOnUse"><stop offset="0%" stop-opacity="1" style="stop-color:rgb(9,0,93)"/><stop offset="100%" stop-opacity="1" style="stop-color:rgb(26,15,145)"/></linearGradient><path d=" M 2519.9 2840.7 L 1659.79 2840.7 C 1636.42 2840.7 1618.87 2824.07 1623.39 2806.2 L 1634.43 2762.55 C 1637.75 2749.42 1652.19 2739.79 1669.34 2739.25 L 2498.51 2713.38 C 2516.43 2712.82 2532.3 2722.33 2536.21 2735.97 L 2556.1 2805.5 C 2561.27 2823.56 2543.64 2840.7 2519.9 2840.7 Z " fill="url(#_lgradient_848)"/><path d=" M 900.852 1136.5 L 900.852 2153.68 C 900.852 2205.1 942.13 2247 993.546 2247.77 L 3069.33 2273.41 C 3120.31 2274.17 3162.09 2233.16 3162.28 2182.18 L 3165.75 1174.1 C 3165.89 1137.65 3136.85 1107.78 3100.41 1106.89 L 975.188 1063.96 C 934.429 1062.96 900.852 1095.73 900.852 1136.5 Z " fill="rgb(145,179,250)"/><linearGradient id="_lgradient_849" x1="0" y1="0" x2="1" y2="0" gradientTransform="matrix(2263.81,0,0,2263.81,901.939,1177.94)" gradientUnits="userSpaceOnUse"><stop offset="0%" stop-opacity="1" style="stop-color:rgb(79,82,255)"/><stop offset="100%" stop-opacity="1" style="stop-color:rgb(64,66,226)"/></linearGradient><path d=" M 3165.35 1292.01 L 3165.75 1173.88 C 3165.89 1137.42 3136.85 1107.67 3100.41 1106.78 L 975.731 1063.9 C 934.972 1062.91 901.938 1095.73 901.938 1136.5 L 901.938 1292.01 L 3165.35 1292.01 Z " fill="url(#_lgradient_849)"/><path d=" M 1061.87 1202.28 C 1061.87 1215.72 1050.97 1226.61 1037.53 1226.61 C 1024.09 1226.61 1013.2 1215.72 1013.2 1202.28 C 1013.2 1188.84 1024.09 1177.94 1037.53 1177.94 C 1050.97 1177.94 1061.87 1188.84 1061.87 1202.28 Z " fill="rgb(145,179,250)"/><path d=" M 1146.17 1202.28 C 1146.17 1215.72 1135.28 1226.61 1121.84 1226.61 C 1108.4 1226.61 1097.51 1215.72 1097.51 1202.28 C 1097.51 1188.84 1108.4 1177.94 1121.84 1177.94 C 1135.28 1177.94 1146.17 1188.84 1146.17 1202.28 Z " fill="rgb(145,179,250)"/><path d=" M 1227.88 1202.28 C 1227.88 1215.72 1216.99 1226.61 1203.55 1226.61 C 1190.11 1226.61 1179.21 1215.72 1179.21 1202.28 C 1179.21 1188.84 1190.11 1177.94 1203.55 1177.94 C 1216.99 1177.94 1227.88 1188.84 1227.88 1202.28 Z " fill="rgb(145,179,250)"/><path d=" M 3039.24 2217.79 L 1043.92 2189.03 C 1013.59 2188.59 989.237 2163.88 989.237 2133.55 L 989.237 1933.85 C 989.237 1905.63 1012.29 1882.84 1040.51 1883.16 L 3040.52 1905.9 C 3063.48 1906.16 3081.96 1924.85 3081.96 1947.82 L 3081.96 2175.69 C 3081.96 2199.18 3062.73 2218.13 3039.24 2217.79 Z " fill="rgb(189,208,251)"/><path d=" M 2320.89 1858.2 L 1045.4 1839.85 C 1014.25 1839.4 989.237 1814.03 989.237 1782.88 L 989.237 1388.02 C 989.237 1365.72 1007.31 1347.64 1029.61 1347.64 L 2312.4 1347.64 C 2338.01 1347.64 2358.76 1368.4 2358.76 1394 L 2358.76 1820.87 C 2358.76 1841.7 2341.72 1858.5 2320.89 1858.2 Z " fill="rgb(189,208,251)"/><path d=" M 3039.83 1858.75 L 2432.17 1858.75 C 2410.71 1858.75 2393.31 1841.35 2393.31 1819.89 L 2393.31 1396.05 C 2393.31 1369.31 2414.98 1347.64 2441.72 1347.64 L 3052.75 1347.64 C 3068.88 1347.64 3081.96 1360.72 3081.96 1376.85 L 3081.96 1816.62 C 3081.96 1839.89 3063.1 1858.75 3039.83 1858.75 Z " fill="rgb(189,208,251)"/><linearGradient id="_lgradient_850" x1="0" y1="0" x2="1" y2="0" gradientTransform="matrix(-27.815,1281.82,-1281.82,-27.815,1421.26,1809.07)" gradientUnits="userSpaceOnUse"><stop offset="0%" stop-opacity="1" style="stop-color:rgb(9,0,93)"/><stop offset="100%" stop-opacity="1" style="stop-color:rgb(26,15,145)"/></linearGradient><path d=" M 1933.3 2830.11 L 609.303 2830.11 C 600.954 2824.91 595.369 2815.65 595.369 2805.14 L 589.356 2550.82 L 573.511 1880.69 C 573.031 1860.4 580.901 1840.8 595.285 1826.46 C 609.215 1812.57 628.071 1804.8 647.697 1804.8 C 648.336 1804.8 648.98 1804.81 649.621 1804.83 L 833.673 1809.59 L 900.852 1811.33 L 2205.18 1845.08 C 2206.43 1844.99 2207.66 1844.95 2208.88 1844.95 C 2241.44 1844.95 2259.16 1874.86 2259.16 1890.45 L 2259.06 1897.01 L 2257.8 1983.85 C 2248.51 2045.69 2242.83 2112.86 2243.33 2183.95 C 2233.82 2183.37 2224.36 2182.81 2214.89 2182.27 L 2218.44 1946.57 C 2217.01 1897.98 2175.54 1879.66 2148.84 1879.66 C 2148.08 1879.66 2147.33 1879.67 2146.6 1879.7 L 655.738 1839.7 C 655.273 1839.69 654.806 1839.68 654.342 1839.68 C 640.57 1839.68 627.341 1845.15 617.564 1854.9 C 607.457 1864.98 601.898 1878.78 602.256 1893.05 L 624.428 2776.93 C 624.428 2792.25 636.959 2804.78 652.274 2804.78 L 1933.54 2804.78 C 1933.45 2813.28 1933.37 2821.7 1933.3 2830.11 Z " fill="url(#_lgradient_850)"/><path d=" M 624.428 2776.93 C 624.428 2792.25 636.959 2804.78 652.274 2804.78 L 2178.09 2804.78 C 2193.41 2804.78 2205.94 2792.25 2205.94 2776.93 L 2218.44 1946.57 C 2216.97 1896.6 2173.16 1878.64 2146.6 1879.7 L 655.738 1839.7 C 641.468 1839.32 627.671 1844.82 617.564 1854.9 C 607.457 1864.98 601.898 1878.78 602.256 1893.05 L 624.428 2776.93 Z " fill="rgb(145,179,250)"/><linearGradient id="_lgradient_851" x1="0" y1="0" x2="1" y2="0" gradientTransform="matrix(-20.322,858.565,-858.565,-20.322,1428.88,1840.37)" gradientUnits="userSpaceOnUse"><stop offset="0%" stop-opacity="1" style="stop-color:rgb(9,0,93)"/><stop offset="100%" stop-opacity="1" style="stop-color:rgb(26,15,145)"/></linearGradient><path d=" M 1932.7 2910.48 L 872.474 2910.48 L 471.899 2910.48 C 468.79 2910.48 466.246 2907.94 466.246 2904.83 L 466.246 2835.77 C 466.246 2832.66 468.79 2830.11 471.899 2830.11 L 609.303 2830.11 L 1933.3 2830.11 C 1933.05 2857.57 1932.84 2884.49 1932.7 2910.48 Z " fill="url(#_lgradient_851)"/><linearGradient id="_lgradient_852" x1="0" y1="0" x2="1" y2="0" gradientTransform="matrix(198.171,-2440.66,2440.66,198.171,1245.95,3977.14)" gradientUnits="userSpaceOnUse"><stop offset="0%" stop-opacity="1" style="stop-color:rgb(79,82,255)"/><stop offset="100%" stop-opacity="1" style="stop-color:rgb(64,66,226)"/></linearGradient><path d=" M 2217.19 2030.3 L 2218.44 1947.1 C 2216.97 1897.13 2173.16 1878.91 2146.6 1879.97 L 655.738 1839.84 C 641.468 1839.45 627.671 1844.88 617.563 1854.97 C 607.457 1865.05 601.899 1879.35 602.256 1893.62 L 605.673 2030.3 L 2217.19 2030.3 Z " fill="url(#_lgradient_852)"/><path d=" M 2189.45 2382.45 L 2189.39 2382.45 C 2187.14 2382.42 2185.34 2380.57 2185.37 2378.31 L 2186.36 2310.97 C 2186.39 2308.74 2188.21 2306.95 2190.44 2306.95 L 2190.48 2306.95 C 2192.75 2306.98 2194.55 2308.83 2194.52 2311.09 L 2193.53 2378.43 C 2193.5 2380.66 2191.68 2382.45 2189.45 2382.45 Z " fill="rgb(255,255,255)"/><path d=" M 2191.88 2217.43 L 2191.81 2217.43 C 2189.56 2217.4 2187.76 2215.54 2187.79 2213.29 L 2191.58 1955.37 C 2191.51 1940.05 2186.86 1927.82 2177.76 1919.1 C 2160.77 1902.82 2133.79 1903.65 2132.66 1903.7 L 1656.14 1890.93 C 1653.89 1890.87 1652.11 1888.99 1652.18 1886.74 C 1652.23 1884.48 1653.96 1882.57 1656.36 1882.77 L 2132.59 1895.55 C 2135.56 1895.37 2164.28 1894.88 2183.4 1913.2 C 2194.16 1923.51 2199.66 1937.72 2199.74 1955.41 L 2195.95 2213.41 C 2195.92 2215.64 2194.1 2217.43 2191.88 2217.43 Z " fill="rgb(189,208,251)"/><path d=" M 1543.17 2453.33 L 707.484 2453.33 C 686.701 2453.33 669.854 2436.48 669.854 2415.7 L 669.854 2108.5 C 669.854 2087.71 686.701 2070.87 707.484 2070.87 L 1543.17 2070.87 C 1563.95 2070.87 1580.8 2087.71 1580.8 2108.5 L 1580.8 2415.7 C 1580.8 2436.48 1563.95 2453.33 1543.17 2453.33 Z " fill="rgb(189,208,251)"/><path d=" M 2146.07 2453.33 L 1655.28 2453.33 C 1640.39 2453.33 1628.32 2441.26 1628.32 2426.37 L 1628.32 2097.83 C 1628.32 2082.94 1640.39 2070.87 1655.28 2070.87 L 2146.07 2070.87 C 2160.96 2070.87 2173.03 2082.94 2173.03 2097.83 L 2173.03 2426.37 C 2173.03 2441.26 2160.96 2453.33 2146.07 2453.33 Z " fill="rgb(189,208,251)"/><path d=" M 2139.9 2768.57 L 702.991 2768.57 C 684.689 2768.57 669.853 2753.73 669.853 2735.43 L 669.853 2542.09 C 669.853 2523.79 684.689 2508.96 702.991 2508.96 L 2139.9 2508.96 C 2158.2 2508.96 2173.03 2523.79 2173.03 2542.09 L 2173.03 2735.43 C 2173.03 2753.73 2158.2 2768.57 2139.9 2768.57 Z " fill="rgb(189,208,251)"/><path d=" M 700.759 1932.36 C 700.759 1942.94 692.187 1951.51 681.613 1951.51 C 671.039 1951.51 662.467 1942.94 662.467 1932.36 C 662.467 1921.79 671.039 1913.22 681.613 1913.22 C 692.187 1913.22 700.759 1921.79 700.759 1932.36 Z " fill="rgb(145,179,250)"/><path d=" M 764.578 1934.21 C 764.578 1944.78 756.006 1953.36 745.433 1953.36 C 734.858 1953.36 726.287 1944.78 726.287 1934.21 C 726.287 1923.64 734.858 1915.06 745.433 1915.06 C 756.006 1915.06 764.578 1923.64 764.578 1934.21 Z " fill="rgb(145,179,250)"/><path d=" M 824.143 1937.76 C 824.143 1948.33 815.571 1956.9 804.997 1956.9 C 794.423 1956.9 785.852 1948.33 785.852 1937.76 C 785.852 1927.18 794.423 1918.61 804.997 1918.61 C 815.571 1918.61 824.143 1927.18 824.143 1937.76 Z " fill="rgb(145,179,250)"/><path d=" M 2422.39 1338.77 C 2422.39 1485.75 2304.74 1604.9 2159.62 1604.9 C 2014.5 1604.9 1896.86 1485.75 1896.86 1338.77 C 1896.86 1191.79 2014.5 1072.64 2159.62 1072.64 C 2304.74 1072.64 2422.39 1191.79 2422.39 1338.77 Z " fill="rgb(255,255,255)"/><linearGradient id="_lgradient_853" x1="0" y1="0" x2="1" y2="0" gradientTransform="matrix(0,512.229,-512.229,0,2159.62,442.71)" gradientUnits="userSpaceOnUse"><stop offset="0%" stop-opacity="1" style="stop-color:rgb(254,187,186)"/><stop offset="100%" stop-opacity="1" style="stop-color:rgb(255,146,142)"/></linearGradient><path d=" M 2150.37 1482.17 C 2138.98 1482.17 2128.38 1476.13 2122.49 1466.19 L 2023.63 1299.54 C 2014.38 1283.94 2019.37 1263.7 2034.77 1254.33 C 2050.16 1244.97 2070.15 1250.01 2079.4 1265.61 L 2148.02 1381.3 L 2238.74 1200.83 C 2246.89 1184.62 2266.48 1178.17 2282.48 1186.42 C 2298.49 1194.68 2304.86 1214.51 2296.71 1230.73 L 2179.36 1464.17 C 2173.99 1474.85 2163.33 1481.73 2151.51 1482.15 C 2151.13 1482.16 2150.75 1482.17 2150.37 1482.17 Z " fill="url(#_lgradient_853)"/><path d=" M 1242.45 2360.05 C 1242.45 2507.03 1124.8 2626.18 979.679 2626.18 C 834.556 2626.18 716.912 2507.03 716.912 2360.05 C 716.912 2213.07 834.556 2093.92 979.679 2093.92 C 1124.8 2093.92 1242.45 2213.07 1242.45 2360.05 Z " fill="rgb(255,255,255)"/><linearGradient id="_lgradient_854" x1="0" y1="0" x2="1" y2="0" gradientTransform="matrix(0,512.229,-512.229,0,979.679,442.71)" gradientUnits="userSpaceOnUse"><stop offset="0%" stop-opacity="1" style="stop-color:rgb(254,187,186)"/><stop offset="100%" stop-opacity="1" style="stop-color:rgb(255,146,142)"/></linearGradient><path d=" M 970.424 2503.45 C 959.034 2503.45 948.439 2497.41 942.546 2487.48 L 843.691 2320.82 C 834.438 2305.22 839.423 2284.99 854.823 2275.62 C 870.216 2266.25 890.202 2271.29 899.455 2286.89 L 968.077 2402.58 L 1058.79 2222.12 C 1066.94 2205.9 1086.53 2199.45 1102.54 2207.71 C 1118.55 2215.96 1124.92 2235.8 1116.77 2252.01 L 999.416 2485.46 C 994.05 2496.13 983.384 2503.02 971.568 2503.43 C 971.187 2503.45 970.805 2503.45 970.424 2503.45 Z " fill="url(#_lgradient_854)"/><linearGradient id="_lgradient_855" x1="0" y1="0" x2="1" y2="0" gradientTransform="matrix(343.623,196.135,196.135,-343.623,1142.09,2766.73)" gradientUnits="userSpaceOnUse"><stop offset="0%" stop-opacity="1" style="stop-color:rgb(254,187,186)"/><stop offset="100%" stop-opacity="1" style="stop-color:rgb(255,146,142)"/></linearGradient><path d=" M 1194.33 3086.48 C 1194.74 3086.32 1412.7 2704.63 1442.15 2668.71 C 1447.1 2662.67 1454.77 2659.59 1462.53 2660.52 L 1523.37 2667.77 L 1594.83 2822.38 L 1475.77 2753.04 C 1487.55 2834.52 1334.6 2955.61 1282.14 2999.8 C 1276.82 3004.28 1276.38 3012.31 1281.19 3017.34 L 1302.13 3039.27 C 1267.75 3074.12 1228.07 3096.5 1183.3 3106.85 L 1194.33 3086.48 Z " fill="url(#_lgradient_855)"/><linearGradient id="_lgradient_856" x1="0" y1="0" x2="1" y2="0" gradientTransform="matrix(154.781,374.612,-374.612,154.781,1187.01,2962.84)" gradientUnits="userSpaceOnUse"><stop offset="0%" stop-opacity="1" style="stop-color:rgb(79,82,255)"/><stop offset="100%" stop-opacity="1" style="stop-color:rgb(64,66,226)"/></linearGradient><path d=" M 1290.02 3027.44 C 1290.02 3027.44 1303.38 3031.75 1307.91 3043.66 C 1310.07 3049.35 1307.74 3055.8 1302.79 3059.35 C 1280.78 3075.12 1208.18 3126.03 1174.68 3136 C 1171.93 3136.81 1169.32 3134.33 1169.94 3131.53 C 1171.66 3123.75 1177.22 3108.21 1195.13 3085.46 L 1193.53 3088.71 C 1191.49 3092.82 1195.97 3097.11 1199.97 3094.85 C 1222.38 3082.2 1268.02 3054.52 1290.02 3027.44 Z " fill="url(#_lgradient_856)"/><linearGradient id="_lgradient_857" x1="0" y1="0" x2="1" y2="0" gradientTransform="matrix(-1175.71,-736.011,-736.011,1175.71,1175.33,2815.65)" gradientUnits="userSpaceOnUse"><stop offset="0%" stop-opacity="1" style="stop-color:rgb(254,187,186)"/><stop offset="100%" stop-opacity="1" style="stop-color:rgb(255,146,142)"/></linearGradient><path d=" M 1279.23 3180.16 C 1279.6 3179.92 1312.3 3101.14 1312.66 3100.91 C 1342.64 2918.36 1415.8 2762.02 1437.37 2720.88 C 1441 2713.96 1447.89 2709.4 1455.67 2708.73 L 1516.72 2703.52 L 1618 2840.47 L 1487.36 2796.66 C 1515.39 2874.07 1390.11 3023.61 1347.68 3077.5 C 1343.37 3082.97 1344.57 3090.92 1350.29 3094.88 L 1375.24 3112.11 C 1348.62 3153.2 1314.3 3183.14 1272.54 3202.34 L 1279.23 3180.16 Z " fill="url(#_lgradient_857)"/><linearGradient id="_lgradient_858" x1="0" y1="0" x2="1" y2="0" gradientTransform="matrix(227.384,335.497,-335.497,227.384,1247.04,3060.58)" gradientUnits="userSpaceOnUse"><stop offset="0%" stop-opacity="1" style="stop-color:rgb(79,82,255)"/><stop offset="100%" stop-opacity="1" style="stop-color:rgb(64,66,226)"/></linearGradient><path d=" M 1360.98 3102.97 C 1360.98 3102.97 1374.95 3104.5 1381.79 3115.24 C 1385.06 3120.38 1384.08 3127.17 1379.95 3131.65 C 1361.58 3151.54 1300.79 3216.09 1270 3232.63 C 1267.48 3233.99 1264.42 3232.08 1264.46 3229.22 C 1264.56 3221.25 1266.86 3204.9 1279.81 3179 L 1278.89 3182.51 C 1277.73 3186.95 1282.98 3190.24 1286.44 3187.22 C 1305.83 3170.29 1344.92 3133.95 1360.98 3102.97 Z " fill="url(#_lgradient_858)"/><linearGradient id="_lgradient_859" x1="0" y1="0" x2="1" y2="0" gradientTransform="matrix(282.617,309.717,309.717,-282.617,1463.96,2520.47)" gradientUnits="userSpaceOnUse"><stop offset="0%" stop-opacity="1" style="stop-color:rgb(225,71,61)"/><stop offset="100%" stop-opacity="1" style="stop-color:rgb(233,96,90)"/></linearGradient><path d=" M 1802.45 2674.68 C 1802.45 2674.68 1857.67 2756.82 1862.21 2794.28 C 1866.74 2831.75 1846.94 2844.71 1789.14 2849.48 C 1617.14 2863.7 1532.35 2812.15 1532.35 2812.15 C 1520.58 2737.13 1512.21 2718.05 1413.94 2677.26 C 1413.94 2677.26 1538.23 2687.13 1563.25 2677.42 C 1588.26 2667.71 1802.45 2674.68 1802.45 2674.68 Z " fill="url(#_lgradient_859)"/><linearGradient id="_lgradient_860" x1="0" y1="0" x2="1" y2="0" gradientTransform="matrix(149.403,172.478,-172.478,149.403,1523.36,2100.3)" gradientUnits="userSpaceOnUse"><stop offset="0%" stop-opacity="1" style="stop-color:rgb(9,0,93)"/><stop offset="100%" stop-opacity="1" style="stop-color:rgb(26,15,145)"/></linearGradient><path d=" M 1582.25 2214.5 C 1582.25 2214.5 1620.71 2169 1661.6 2224.83 C 1669 2234.94 1697.45 2226.6 1707.88 2247.77 C 1713.26 2258.7 1724.89 2264.9 1736.87 2262.69 C 1766.71 2257.19 1815.48 2256.73 1839.56 2303.48 C 1857.94 2339.17 1843.75 2360.06 1825.37 2371.97 C 1811.88 2380.72 1807.06 2398.47 1815.22 2412.33 C 1823.05 2425.62 1824.52 2443.62 1804.31 2465.28 C 1759.02 2513.82 1669.37 2434.47 1669.37 2434.47 L 1598.19 2266.27 L 1582.25 2214.5 Z " fill="url(#_lgradient_860)"/><linearGradient id="_lgradient_861" x1="0" y1="0" x2="1" y2="0" gradientTransform="matrix(-74.139,141.537,-141.537,-74.139,1936.25,2086.26)" gradientUnits="userSpaceOnUse"><stop offset="0%" stop-opacity="1" style="stop-color:rgb(255,146,142)"/><stop offset="100%" stop-opacity="1" style="stop-color:rgb(254,112,98)"/></linearGradient><path d=" M 1653.11 2663.81 C 1653.11 2663.81 1588.8 2602.57 1557.15 2562.02 C 1540.04 2540.09 1534.67 2511.23 1542.58 2484.57 C 1557.03 2435.88 1582.71 2385.46 1585.06 2377.61 C 1588.65 2365.58 1660.75 2366.08 1660.75 2366.08 C 1660.75 2366.08 1802.64 2458.16 1858.38 2614.15 L 1795.78 2633.64 C 1795.78 2633.64 1758.73 2571.49 1722.13 2531.97 C 1722.13 2531.97 1785.46 2615.64 1787.69 2649.9 L 1653.11 2663.81 Z " fill="url(#_lgradient_861)"/><linearGradient id="_lgradient_862" x1="0" y1="0" x2="1" y2="0" gradientTransform="matrix(342.3,0,0,342.3,1743.93,2653.68)" gradientUnits="userSpaceOnUse"><stop offset="0%" stop-opacity="1" style="stop-color:rgb(254,187,186)"/><stop offset="100%" stop-opacity="1" style="stop-color:rgb(255,146,142)"/></linearGradient><path d=" M 1530.59 2687.97 L 1578.91 2635.4 L 1634.71 2650.42 C 1634.71 2650.42 1699.77 2660.5 1737 2650.42 C 1774.24 2640.34 1774.24 2640.34 1774.24 2640.34 L 1858.38 2614.15 L 1871.6 2651.5 C 1874.96 2660.98 1871.58 2671.51 1863.38 2677.33 C 1856.11 2682.51 1847.57 2688.19 1842.13 2690.57 C 1831.05 2695.42 1586.87 2692.1 1586.87 2692.1 L 1530.59 2687.97 Z " fill="url(#_lgradient_862)"/><linearGradient id="_lgradient_863" x1="0" y1="0" x2="1" y2="0" gradientTransform="matrix(7.912,-123.296,123.296,7.912,1604.62,2490.08)" gradientUnits="userSpaceOnUse"><stop offset="0%" stop-opacity="1" style="stop-color:rgb(254,187,186)"/><stop offset="100%" stop-opacity="1" style="stop-color:rgb(255,146,142)"/></linearGradient><path d=" M 1611.2 2279.38 L 1659.66 2369.5 C 1656.46 2389.17 1606.91 2389.72 1599.26 2377.98 C 1598.48 2376.78 1598.03 2375.4 1597.74 2374 L 1568.75 2313.79 C 1567.5 2307.92 1583.6 2288.14 1588.9 2285.32 L 1608.16 2275.06 C 1615.58 2271.12 1584.63 2270.8 1611.2 2279.38 Z " fill="url(#_lgradient_863)"/><linearGradient id="_lgradient_864" x1="0" y1="0" x2="1" y2="0" gradientTransform="matrix(-148.946,-285.048,285.048,-148.946,1616.27,2385.76)" gradientUnits="userSpaceOnUse"><stop offset="0%" stop-opacity="1" style="stop-color:rgb(254,187,186)"/><stop offset="100%" stop-opacity="1" style="stop-color:rgb(255,146,142)"/></linearGradient><path d=" M 1513.12 2258.23 C 1513.12 2258.23 1507.65 2288.68 1531.58 2327.39 C 1555.51 2366.1 1579.34 2364.35 1591.44 2350.55 C 1603.55 2336.74 1618.05 2313.75 1611.45 2275.14 C 1604.85 2236.53 1521.38 2219.41 1513.12 2258.23 Z " fill="url(#_lgradient_864)"/><linearGradient id="_lgradient_865" x1="0" y1="0" x2="1" y2="0" gradientTransform="matrix(208.569,41.847,-41.847,208.569,1430.16,2224.1)" gradientUnits="userSpaceOnUse"><stop offset="0%" stop-opacity="1" style="stop-color:rgb(9,0,93)"/><stop offset="100%" stop-opacity="1" style="stop-color:rgb(26,15,145)"/></linearGradient><path d=" M 1582.48 2279.34 C 1582.48 2279.34 1543.74 2228.44 1513.99 2272.81 L 1514.49 2288.13 C 1514.49 2288.13 1475.8 2286.33 1480 2250.67 C 1484.19 2215.01 1515.78 2190.66 1559.56 2202.84 C 1603.35 2215.02 1628.93 2228.89 1633.87 2259.29 C 1638.82 2289.69 1614 2284.73 1614 2284.73 C 1614 2284.73 1604.51 2263.75 1593.07 2262.32 C 1581.62 2260.89 1585.75 2277.48 1585.75 2277.48 L 1582.48 2279.34 Z " fill="url(#_lgradient_865)"/><linearGradient id="_lgradient_866" x1="0" y1="0" x2="1" y2="0" gradientTransform="matrix(-148.945,-285.046,285.046,-148.945,1650.36,2367.94)" gradientUnits="userSpaceOnUse"><stop offset="0%" stop-opacity="1" style="stop-color:rgb(254,187,186)"/><stop offset="100%" stop-opacity="1" style="stop-color:rgb(255,146,142)"/></linearGradient><path d=" M 1591.38 2277.98 C 1591.38 2277.98 1571.3 2251.93 1589.57 2246.53 C 1607.85 2241.12 1607.16 2272.05 1605.97 2283.55 L 1591.38 2277.98 Z " fill="url(#_lgradient_866)"/><linearGradient id="_lgradient_867" x1="0" y1="0" x2="1" y2="0" gradientTransform="matrix(-176.428,57.865,-57.865,-176.428,1728.24,2649.73)" gradientUnits="userSpaceOnUse"><stop offset="0%" stop-opacity="1" style="stop-color:rgb(9,0,93)"/><stop offset="100%" stop-opacity="1" style="stop-color:rgb(26,15,145)"/></linearGradient><path d=" M 1690.53 2708.78 C 1690.36 2708.79 1690.19 2708.79 1690.02 2708.79 L 1467.77 2708.55 C 1462.28 2708.54 1457.83 2704.08 1457.83 2698.59 C 1457.84 2693.09 1462.31 2688.55 1467.79 2688.65 L 1690.04 2688.89 C 1695.54 2688.9 1699.99 2693.36 1699.98 2698.85 C 1699.97 2704.17 1695.79 2708.52 1690.53 2708.78 Z " fill="url(#_lgradient_867)"/><linearGradient id="_lgradient_868" x1="0" y1="0" x2="1" y2="0" gradientTransform="matrix(1610.52,-135.501,135.501,1610.52,1263.49,2620.9)" gradientUnits="userSpaceOnUse"><stop offset="0%" stop-opacity="1" style="stop-color:rgb(9,0,93)"/><stop offset="100%" stop-opacity="1" style="stop-color:rgb(26,15,145)"/></linearGradient><path d=" M 1267.98 2506.99 L 1453.07 2506.99 C 1466.72 2506.99 1479.15 2514.87 1484.98 2527.22 L 1570.54 2708.66 L 1340.52 2708.66 C 1331.73 2708.66 1323.82 2703.28 1320.58 2695.1 L 1254.23 2527.2 C 1250.4 2517.5 1257.55 2506.99 1267.98 2506.99 Z " fill="url(#_lgradient_868)"/><linearGradient id="_lgradient_869" x1="0" y1="0" x2="1" y2="0" gradientTransform="matrix(-189.12,465.527,-465.527,-189.12,1534.16,2236.08)" gradientUnits="userSpaceOnUse"><stop offset="0%" stop-opacity="1" style="stop-color:rgb(79,82,255)"/><stop offset="100%" stop-opacity="1" style="stop-color:rgb(64,66,226)"/></linearGradient><path d=" M 1398.38 2600.02 C 1402.39 2612.48 1399.42 2624.58 1391.76 2627.05 C 1384.09 2629.52 1374.63 2621.42 1370.62 2608.95 C 1366.6 2596.49 1369.57 2584.39 1377.23 2581.92 C 1384.9 2579.46 1394.37 2587.56 1398.38 2600.02 Z " fill="url(#_lgradient_869)"/><linearGradient id="_lgradient_870" x1="0" y1="0" x2="1" y2="0" gradientTransform="matrix(608.137,0,0,608.137,2309.39,2284.47)" gradientUnits="userSpaceOnUse"><stop offset="0%" stop-opacity="1" style="stop-color:rgb(79,82,255)"/><stop offset="100%" stop-opacity="1" style="stop-color:rgb(64,66,226)"/></linearGradient><path d=" M 2574.81 3030.09 C 2574.94 3020.73 2575.08 3011.01 2575.21 3000.99 C 2580.16 3006.41 2585.18 3011.82 2590.27 3017.23 C 2585.12 3021.63 2579.97 3025.91 2574.81 3030.09 Z  M 2668.53 2938.92 C 2717.96 2794.89 2768.9 2524.81 2617.42 2221.4 C 2586.47 2159.41 2559.57 2102.56 2536.18 2050.58 C 2538.16 1997.28 2544.51 1947.22 2554.2 1900.37 C 2609.84 1631.39 2775.61 1468.18 2857.21 1402.01 C 2860.35 1399.46 2864.06 1398.34 2867.69 1398.34 C 2876.68 1398.34 2885.13 1405.22 2883.01 1414.27 C 2860.85 1508.61 2892.16 1688.13 2908.58 1904.4 C 2916.01 2002.26 2920.39 2107.6 2915.38 2216.01 C 2914.53 2234.4 2913.41 2252.92 2911.99 2271.47 C 2911.16 2282.4 2910.22 2293.33 2909.16 2304.3 C 2908.95 2306.53 2908.73 2308.74 2908.51 2310.97 C 2905.41 2341.99 2901.41 2373.16 2896.38 2404.36 C 2869.59 2570.25 2813.42 2737.22 2706.4 2889.95 C 2694.29 2907.23 2681.61 2923.55 2668.53 2938.92 Z " fill-rule="evenodd" fill="url(#_lgradient_870)"/><path d=" M 2798.54 1598.84 C 2784.66 1664.62 2772.28 1730.61 2762.72 1796.89 C 2752.76 1863.12 2745.12 1929.58 2739.89 1996.15 C 2734.97 2062.73 2731.48 2129.38 2731.29 2196.06 C 2730.74 2262.73 2733.51 2329.35 2736.57 2396.23 C 2739.19 2463.09 2742.27 2530.43 2737.37 2598.24 C 2732.56 2665.92 2718.31 2734.19 2690.04 2798.18 C 2682.98 2814.13 2675.55 2830.03 2667.11 2845.4 C 2658.99 2860.9 2650.08 2876.1 2640.85 2891.16 C 2622.23 2921.19 2601.26 2950.22 2577.89 2977.76 C 2531 3032.76 2474.43 3081.55 2412.12 3122.84 C 2405.56 3127.19 2396.16 3126.12 2391.13 3120.45 C 2386.19 3114.89 2387.29 3106.97 2393.54 3102.57 L 2393.59 3102.54 C 2408.42 3092.13 2423.08 3081.58 2437.16 3070.5 C 2444.3 3065.06 2451.15 3059.36 2458.12 3053.77 C 2464.83 3047.96 2471.81 3042.37 2478.31 3036.38 C 2504.77 3012.83 2529.28 2987.71 2551.52 2961.14 C 2596.25 2908.25 2632.06 2849.32 2659.19 2788.23 C 2672.36 2757.54 2682.89 2726.06 2690.58 2694 C 2698.24 2661.93 2703.05 2629.3 2705.72 2596.4 C 2711.05 2530.58 2708.64 2463.91 2706.58 2397.04 C 2704.62 2330.16 2703.18 2262.93 2704.94 2195.76 C 2705.72 2162.18 2707.2 2128.61 2709.37 2095.08 C 2710.34 2078.32 2711.69 2061.57 2713 2044.82 C 2714.51 2028.08 2716.11 2011.35 2717.88 1994.64 C 2725.08 1927.79 2734.65 1861.17 2746.63 1794.9 C 2758.99 1728.68 2773.38 1662.77 2790.68 1597.44 C 2791.17 1595.58 2793.33 1594.41 2795.49 1594.84 C 2797.59 1595.25 2798.92 1597.03 2798.54 1598.84 Z " fill="rgb(125,151,244)"/><path d=" M 2591.23 3018.25 C 2605.9 3033.81 2631.7 3029.33 2640.52 3009.85 C 2689.22 2902.34 2799.42 2585.93 2617.42 2221.4 C 2463.73 1913.57 2409.65 1732.05 2390.81 1647.94 C 2386.83 1630.16 2362.45 1627.8 2355.1 1644.47 C 2273.93 1828.44 2059.62 2454.21 2591.23 3018.25 Z " fill="rgb(125,151,244)"/><path d=" M 2617.87 3006.9 C 2618.4 3006.99 2618.93 3007.04 2619.48 3007.03 C 2624.09 3006.96 2627.78 3003.16 2627.71 2998.55 C 2627.62 2993.32 2617.45 2470.76 2423.09 2033.1 C 2421.22 2028.88 2416.29 2026.98 2412.07 2028.85 C 2407.86 2030.73 2405.96 2035.66 2407.83 2039.88 C 2600.77 2474.36 2610.92 2993.62 2611 2998.81 C 2611.07 3002.87 2614.02 3006.21 2617.87 3006.9 Z " fill="rgb(145,179,250)"/><linearGradient id="_lgradient_871" x1="0" y1="0" x2="1" y2="0" gradientTransform="matrix(644.949,0,0,644.949,1932.45,2679.44)" gradientUnits="userSpaceOnUse"><stop offset="0%" stop-opacity="1" style="stop-color:rgb(9,0,93)"/><stop offset="100%" stop-opacity="1" style="stop-color:rgb(26,15,145)"/></linearGradient><path d=" M 2367.23 3182.3 C 2340.5 3182.3 2312.73 3182.14 2284.79 3181.86 C 2153.71 3180.58 2018.58 3176.76 1966.36 3174.76 C 1948.62 3174.08 1934.4 3157.42 1933.84 3136.67 C 1932.4 3082.96 1932.18 3002.41 1932.7 2910.48 C 1932.84 2884.49 1933.05 2857.57 1933.3 2830.11 C 1933.37 2821.7 1933.45 2813.28 1933.54 2804.78 C 1933.66 2792.8 1933.79 2780.69 1933.92 2768.57 C 1934.9 2681.46 1936.25 2591.49 1937.64 2508.96 C 1937.96 2489.99 1938.29 2471.38 1938.61 2453.33 C 1940.32 2356.78 1941.99 2275.19 1943 2227.84 C 1943.55 2201.64 1961.07 2180.22 1983.43 2178.52 C 2001.12 2177.18 2022.87 2176.58 2047.43 2176.58 C 2084.35 2176.58 2127.62 2177.93 2173.03 2180.09 C 2178.09 2180.33 2183.17 2180.58 2188.27 2180.84 C 2190.98 2180.98 2193.7 2181.12 2196.42 2181.27 C 2202.55 2181.59 2208.72 2181.93 2214.89 2182.27 C 2224.36 2182.81 2233.82 2183.37 2243.33 2183.95 C 2359.08 2191.08 2474.92 2201.65 2525.92 2207.62 C 2548.08 2210.22 2565.5 2230.89 2567.37 2256.86 C 2580.26 2435.5 2578.06 2788.33 2575.21 3000.99 C 2575.08 3011.01 2574.94 3020.73 2574.81 3030.09 C 2574.57 3046.98 2574.32 3062.76 2574.09 3077.22 C 2573.86 3091 2573.65 3103.58 2573.45 3114.81 C 2572.83 3149.8 2549.06 3178.12 2519.17 3179.58 C 2479.32 3181.54 2425.75 3182.3 2367.23 3182.3 Z  M 2063.84 2234.26 C 2045.81 2234.26 2030.04 2234.63 2017.3 2235.44 C 1998.17 2236.66 1982.96 2254.62 1982.14 2277.01 C 1977.42 2406.34 1962.52 2836.61 1967.25 2995.72 C 1967.94 3018.97 1983.61 3037.78 2003.46 3039.14 C 2061.2 3043.09 2217.3 3050.41 2346.26 3050.41 C 2399.91 3050.41 2448.84 3049.14 2484.07 3045.84 C 2505.66 3043.82 2522.61 3023.39 2523.78 2998.08 C 2529.85 2866.13 2547.3 2465.49 2542.77 2308.17 C 2542.05 2283.07 2525.43 2262.58 2504.05 2260.33 C 2426.66 2252.2 2190.05 2234.26 2063.84 2234.26 Z  M 2180.8 2197.02 C 2176.13 2197.02 2171.62 2197.1 2167.37 2197.28 C 2163.13 2197.46 2159.8 2201.56 2159.8 2206.52 C 2159.8 2211.44 2163.08 2215.49 2167.27 2215.75 C 2188 2217.02 2246.36 2220.61 2272.45 2222.38 C 2272.61 2222.39 2272.77 2222.4 2272.92 2222.4 C 2277.84 2222.4 2281.6 2217.14 2280.66 2211.4 L 2280.49 2210.39 C 2279.82 2206.36 2276.96 2203.32 2273.46 2202.94 C 2257.95 2201.28 2214.93 2197.02 2180.8 2197.02 Z " fill-rule="evenodd" fill="url(#_lgradient_871)"/><path d=" M 1982.14 2277.01 C 1977.42 2406.34 1962.52 2836.61 1967.25 2995.72 C 1967.94 3018.97 1983.61 3037.78 2003.46 3039.14 C 2085.22 3044.73 2364.16 3057.07 2484.07 3045.84 C 2505.66 3043.82 2522.61 3023.39 2523.78 2998.08 C 2529.85 2866.13 2547.3 2465.49 2542.77 2308.17 C 2542.05 2283.07 2525.43 2262.58 2504.05 2260.33 C 2415.6 2251.04 2119.2 2228.94 2017.3 2235.44 C 1998.17 2236.66 1982.96 2254.62 1982.14 2277.01 Z " fill="rgb(145,179,250)"/><linearGradient id="_lgradient_872" x1="0" y1="0" x2="1" y2="0" gradientTransform="matrix(644.949,0,0,644.949,1932.45,2679.44)" gradientUnits="userSpaceOnUse"><stop offset="0%" stop-opacity="1" style="stop-color:rgb(132,128,174)"/><stop offset="100%" stop-opacity="1" style="stop-color:rgb(141,135,200)"/></linearGradient><path d=" M 2272.92 2222.4 C 2272.77 2222.4 2272.61 2222.39 2272.45 2222.38 C 2246.36 2220.61 2188 2217.02 2167.27 2215.75 C 2163.08 2215.49 2159.8 2211.44 2159.8 2206.52 C 2159.8 2201.56 2163.13 2197.46 2167.37 2197.28 C 2171.62 2197.1 2176.13 2197.02 2180.8 2197.02 C 2214.93 2197.02 2257.95 2201.28 2273.46 2202.94 C 2276.96 2203.32 2279.82 2206.36 2280.49 2210.39 L 2280.66 2211.4 C 2281.6 2217.14 2277.84 2222.4 2272.92 2222.4 Z " fill="url(#_lgradient_872)"/><linearGradient id="_lgradient_873" x1="0" y1="0" x2="1" y2="0" gradientTransform="matrix(69.539,-1029.17,1029.17,69.539,2206.87,3144.91)" gradientUnits="userSpaceOnUse"><stop offset="0%" stop-opacity="1" style="stop-color:rgb(79,82,255)"/><stop offset="100%" stop-opacity="1" style="stop-color:rgb(64,66,226)"/></linearGradient><path d=" M 2543.48 2357.12 L 1979.77 2344.35 C 1980.88 2313.06 1981.41 2297.25 1982.14 2277.19 C 1982.96 2254.8 1998.17 2236.7 2017.3 2235.48 C 2030.02 2234.67 2045.75 2234.3 2063.75 2234.3 C 2189.94 2234.3 2426.64 2252.28 2504.05 2260.41 C 2525.43 2262.66 2542.05 2283.24 2542.77 2308.33 C 2543.18 2322.65 2543.41 2339.74 2543.48 2357.12 Z  M 2129.16 2293.15 C 2120.52 2293.15 2113.51 2300.15 2113.51 2308.79 C 2113.51 2317.43 2120.52 2324.44 2129.16 2324.44 C 2137.8 2324.44 2144.8 2317.43 2144.8 2308.79 C 2144.8 2300.15 2137.8 2293.15 2129.16 2293.15 Z  M 2080.48 2290.25 C 2071.84 2290.25 2064.84 2297.25 2064.84 2305.89 C 2064.84 2314.54 2071.84 2321.54 2080.48 2321.54 C 2089.12 2321.54 2096.13 2314.54 2096.13 2305.89 C 2096.13 2297.25 2089.12 2290.25 2080.48 2290.25 Z  M 2028.33 2288.74 C 2019.69 2288.74 2012.68 2295.75 2012.68 2304.39 C 2012.68 2313.03 2019.69 2320.03 2028.33 2320.03 C 2036.97 2320.03 2043.97 2313.03 2043.97 2304.39 C 2043.97 2295.75 2036.97 2288.74 2028.33 2288.74 Z " fill-rule="evenodd" fill="url(#_lgradient_873)"/><path d=" M 2257.62 2632.78 L 2027.1 2632.78 C 2013.47 2632.78 2002.42 2621.4 2002.42 2607.37 L 2002.42 2404.95 C 2002.42 2392.31 2012.38 2382.11 2024.58 2382.11 C 2024.76 2382.11 2024.94 2382.12 2025.13 2382.12 L 2257.79 2387.85 C 2270.59 2388.16 2280.8 2398.93 2280.8 2412.12 L 2280.8 2608.91 C 2280.8 2622.09 2270.42 2632.78 2257.62 2632.78 Z " fill="rgb(191,211,252)"/><path d=" M 2507.39 2632.78 L 2310.15 2632.78 C 2305.19 2632.78 2301.16 2628.75 2301.16 2623.79 L 2301.16 2395.43 C 2301.16 2391.55 2304.31 2388.41 2308.18 2388.41 L 2507.86 2388.41 C 2511.76 2388.41 2514.92 2391.57 2514.92 2395.47 L 2514.92 2625.24 C 2514.92 2629.4 2511.55 2632.78 2507.39 2632.78 Z " fill="rgb(191,211,252)"/><path d=" M 2507.69 2831.14 L 2002.15 2831.14 C 1997.73 2831.14 1994.14 2827.55 1994.14 2823.13 L 1994.14 2671.32 C 1994.14 2667.74 1997.05 2664.83 2000.64 2664.83 L 2507.37 2664.83 C 2511.54 2664.83 2514.92 2668.21 2514.92 2672.38 L 2514.92 2823.9 C 2514.92 2827.9 2511.68 2831.14 2507.69 2831.14 Z " fill="rgb(191,211,252)"/><path d=" M 2461.59 3018.89 C 2461.37 3018.89 2461.16 3018.89 2460.95 3018.89 L 2017.65 3012.71 C 2004.51 3012.52 1993.97 3002.94 1993.97 2991.18 L 1993.97 2883.87 C 1993.97 2873.52 2003.35 2865.13 2014.92 2865.13 L 2481.26 2865.13 C 2492.32 2865.13 2501.3 2873.14 2501.33 2883.03 L 2501.62 2982.96 C 2501.68 3002.82 2483.7 3018.89 2461.59 3018.89 Z " fill="rgb(191,211,252)"/><linearGradient id="_lgradient_874" x1="0" y1="0" x2="1" y2="0" gradientTransform="matrix(69.539,-1029.17,1029.17,69.539,2206.87,3144.91)" gradientUnits="userSpaceOnUse"><stop offset="0%" stop-opacity="1" style="stop-color:rgb(209,210,255)"/><stop offset="100%" stop-opacity="1" style="stop-color:rgb(206,206,247)"/></linearGradient><path d=" M 2028.33 2320.03 C 2019.69 2320.03 2012.68 2313.03 2012.68 2304.39 C 2012.68 2295.75 2019.69 2288.74 2028.33 2288.74 C 2036.97 2288.74 2043.97 2295.75 2043.97 2304.39 C 2043.97 2313.03 2036.97 2320.03 2028.33 2320.03 Z " fill="url(#_lgradient_874)"/><linearGradient id="_lgradient_875" x1="0" y1="0" x2="1" y2="0" gradientTransform="matrix(69.539,-1029.17,1029.17,69.539,2206.87,3144.91)" gradientUnits="userSpaceOnUse"><stop offset="0%" stop-opacity="1" style="stop-color:rgb(209,210,255)"/><stop offset="100%" stop-opacity="1" style="stop-color:rgb(206,206,247)"/></linearGradient><path d=" M 2080.48 2321.54 C 2071.84 2321.54 2064.84 2314.54 2064.84 2305.89 C 2064.84 2297.25 2071.84 2290.25 2080.48 2290.25 C 2089.12 2290.25 2096.13 2297.25 2096.13 2305.89 C 2096.13 2314.54 2089.12 2321.54 2080.48 2321.54 Z " fill="url(#_lgradient_875)"/><linearGradient id="_lgradient_876" x1="0" y1="0" x2="1" y2="0" gradientTransform="matrix(69.539,-1029.17,1029.17,69.539,2206.87,3144.91)" gradientUnits="userSpaceOnUse"><stop offset="0%" stop-opacity="1" style="stop-color:rgb(209,210,255)"/><stop offset="100%" stop-opacity="1" style="stop-color:rgb(206,206,247)"/></linearGradient><path d=" M 2129.16 2324.44 C 2120.52 2324.44 2113.51 2317.43 2113.51 2308.79 C 2113.51 2300.15 2120.52 2293.15 2129.16 2293.15 C 2137.8 2293.15 2144.8 2300.15 2144.8 2308.79 C 2144.8 2317.43 2137.8 2324.44 2129.16 2324.44 Z " fill="url(#_lgradient_876)"/><path d=" M 2480.81 2602.93 C 2480.81 2716.67 2389.77 2808.87 2277.48 2808.87 C 2165.18 2808.87 2074.14 2716.67 2074.14 2602.93 C 2074.14 2489.2 2165.18 2397 2277.48 2397 C 2389.77 2397 2480.81 2489.2 2480.81 2602.93 Z " fill="rgb(255,255,255)"/><linearGradient id="_lgradient_877" x1="0" y1="0" x2="1" y2="0" gradientTransform="matrix(0,512.23,-512.23,0,2277.48,442.711)" gradientUnits="userSpaceOnUse"><stop offset="0%" stop-opacity="1" style="stop-color:rgb(254,187,186)"/><stop offset="100%" stop-opacity="1" style="stop-color:rgb(255,146,142)"/></linearGradient><path d=" M 2270.31 2713.9 C 2261.5 2713.9 2253.3 2709.22 2248.74 2701.54 L 2172.25 2572.58 C 2165.09 2560.51 2168.95 2544.85 2180.86 2537.6 C 2192.77 2530.35 2208.24 2534.25 2215.4 2546.32 L 2268.5 2635.84 L 2338.7 2496.2 C 2345 2483.65 2360.16 2478.66 2372.55 2485.05 C 2384.93 2491.43 2389.87 2506.78 2383.56 2519.33 L 2292.75 2699.97 C 2288.6 2708.23 2280.34 2713.56 2271.2 2713.88 C 2270.9 2713.89 2270.61 2713.9 2270.31 2713.9 Z " fill="url(#_lgradient_877)"/></g></g></g></svg>