<?xml version="1.0" encoding="UTF-8" standalone="no"?><!-- Generator: Gravit.io --><svg xmlns="http://www.w3.org/2000/svg" xmlns:xlink="http://www.w3.org/1999/xlink" style="isolation:isolate" viewBox="0 0 3710 3710" width="3710pt" height="3710pt"><defs><clipPath id="_clipPath_ZiC0Z6D6jhuRrvj77w7i6AnWR2xZiUUj"><rect x="0" y="0" width="3710" height="3710"/></clipPath></defs><g clip-path="url(#_clipPath_ZiC0Z6D6jhuRrvj77w7i6AnWR2xZiUUj)"><g><clipPath id="_clipPath_7uxGLQN9L6FhW5gLtcTLhW47LCqRmNXz"><path d=" M 0 0 L 0 3710 L 3710 3710 L 3710 0 L 0 0 Z " fill="rgb(255,255,255)"/></clipPath><g clip-path="url(#_clipPath_7uxGLQN9L6FhW5gLtcTLhW47LCqRmNXz)"><linearGradient id="_lgradient_62" x1="0" y1="0" x2="1" y2="0" gradientTransform="matrix(-1993.39,-1744.21,1744.21,-1993.39,3439.53,3171.67)" gradientUnits="userSpaceOnUse"><stop offset="0%" stop-opacity="1" style="stop-color:rgb(218,227,254)"/><stop offset="100%" stop-opacity="1" style="stop-color:rgb(233,239,253)"/></linearGradient><path d=" M 1757.95 3135.4 C 1691.89 3135.4 1626.33 3130.53 1561.75 3120.59 C 1464.91 3105.67 1199.42 3061.24 964.373 2851.62 C 751.634 2661.9 617.533 2384.81 573.076 2085.86 C 655.296 2254.09 805.251 2417.39 1077.71 2419.79 C 1077.71 2419.79 1082.93 2367.87 1059.97 2287.62 C 1129.87 2331.33 1207.74 2370.91 1294.42 2405.41 C 1294.42 2405.41 1572.52 1834.06 869.521 963.994 C 1137.18 639.372 1546.52 455 1942.04 455 C 1952.89 455 1963.7 455.138 1974.52 455.416 C 2071.99 457.918 2445.54 473.346 2773.82 744.042 C 2822.04 783.802 2928.39 878.282 3024.24 1028.17 C 3249.31 1380.13 3268.65 1870.49 3100.75 2265.82 C 2871.08 2806.6 2300.67 3135.4 1757.95 3135.4 Z  M 615.271 1792.1 C 597.566 1781.94 579.206 1771.86 560.127 1761.86 C 561.987 1734.28 564.608 1706.68 567.995 1679.17 C 581.799 1717.07 597.508 1754.83 615.271 1792.1 Z " fill-rule="evenodd" fill="url(#_lgradient_62)"/><path d=" M 1126.5 487.793 C 1041.03 623.015 575.84 1430.24 1254.91 2002.83 C 1254.91 2002.83 1697.97 1550.25 1149.96 488.773 C 1145.16 479.487 1132.08 478.959 1126.5 487.793 Z " fill="rgb(145,179,250)"/><path d=" M 1143.56 648.878 C 1135.59 699.263 1128.64 749.874 1122.14 800.504 C 1115.66 851.146 1109.76 901.862 1104.46 952.637 C 1093.85 1054.18 1085.52 1155.97 1080.32 1257.9 C 1075.21 1359.82 1073.05 1461.93 1076.48 1563.82 C 1078.03 1614.77 1081.43 1665.64 1086.76 1716.26 C 1092.17 1766.85 1099.57 1817.25 1110.92 1866.7 L 1110.93 1866.73 C 1111.74 1870.26 1109.53 1873.78 1106 1874.59 C 1102.47 1875.41 1098.94 1873.2 1098.13 1869.67 L 1098.12 1869.63 C 1086.92 1819.4 1079.78 1768.5 1074.65 1717.51 C 1069.59 1666.5 1066.5 1615.34 1065.25 1564.17 C 1062.44 1461.83 1065.24 1359.48 1070.99 1257.4 C 1076.82 1155.3 1085.8 1053.43 1097.05 951.838 C 1102.67 901.04 1108.89 850.31 1115.69 799.658 C 1122.51 749.004 1129.77 698.436 1138.08 647.966 C 1138.33 646.451 1139.76 645.425 1141.27 645.674 C 1142.78 645.923 1143.81 647.343 1143.57 648.852 L 1143.56 648.878 Z " fill="rgb(189,208,251)"/><path d=" M 533.445 636.913 C 484.938 833.571 249.391 1989.53 1294.42 2405.41 C 1294.42 2405.41 1645.4 1684.32 562.019 628.695 C 552.542 619.46 536.614 624.065 533.445 636.913 Z " fill="rgb(189,208,251)"/><linearGradient id="_lgradient_63" x1="0" y1="0" x2="1" y2="0" gradientTransform="matrix(601.811,0,0,601.811,612.196,1572.31)" gradientUnits="userSpaceOnUse"><stop offset="0%" stop-opacity="1" style="stop-color:rgb(218,227,254)"/><stop offset="100%" stop-opacity="1" style="stop-color:rgb(233,239,253)"/></linearGradient><path d=" M 617.745 823.851 C 625.38 891.405 635.85 958.754 647.634 1025.78 C 659.477 1092.81 672.94 1159.55 688.053 1225.92 C 718.326 1358.61 754.886 1489.94 799.916 1618.33 C 845.063 1746.59 898.545 1872.18 965.089 1990.65 C 981.623 2020.32 999.28 2049.33 1017.66 2077.85 C 1035.99 2106.4 1055.42 2134.23 1075.87 2161.27 C 1116.56 2215.5 1161.93 2266.18 1211.83 2311.86 L 1211.88 2311.9 C 1214.55 2314.34 1214.73 2318.5 1212.29 2321.17 C 1209.84 2323.84 1205.69 2324.03 1203.01 2321.58 L 1202.99 2321.56 C 1152.59 2275 1106.95 2223.51 1066.13 2168.58 C 1045.61 2141.2 1026.15 2113.04 1007.81 2084.18 C 989.426 2055.36 971.783 2026.06 955.284 1996.14 C 888.879 1876.62 835.788 1750.27 791.092 1621.4 C 746.521 1492.41 710.496 1360.63 680.782 1227.55 C 665.95 1161 652.774 1094.08 641.224 1026.89 C 629.729 959.682 619.566 892.28 612.212 824.408 C 612.047 822.881 613.15 821.51 614.677 821.344 C 616.204 821.179 617.575 822.283 617.741 823.809 L 617.745 823.851 Z " fill="url(#_lgradient_63)"/><path d=" M 573.076 2085.86 C 499.743 1935.82 480.297 1781.87 475.843 1734.6 C 475.338 1729.25 479.358 1724.92 483.856 1724.92 C 484.865 1724.92 485.898 1725.14 486.909 1725.61 C 512.4 1737.54 536.779 1749.63 560.127 1761.86 C 558.47 1786.43 557.418 1811.02 556.96 1835.57 C 552.004 1825.7 547.153 1815.79 542.441 1805.83 L 542.421 1805.79 C 541.958 1804.81 540.987 1804.24 539.971 1804.24 C 539.592 1804.24 539.206 1804.32 538.839 1804.49 C 537.48 1805.12 536.886 1806.72 537.514 1808.08 C 543.73 1821.56 550.17 1834.89 556.778 1848.14 C 555.955 1928.07 561.458 2007.74 573.076 2085.86 Z " fill="rgb(151,183,250)"/><linearGradient id="_lgradient_64" x1="0" y1="0" x2="1" y2="0" gradientTransform="matrix(-1993.39,-1744.21,1744.21,-1993.39,3439.53,3171.67)" gradientUnits="userSpaceOnUse"><stop offset="0%" stop-opacity="1" style="stop-color:rgb(149,182,250)"/><stop offset="100%" stop-opacity="1" style="stop-color:rgb(150,183,250)"/></linearGradient><path d=" M 1077.71 2419.79 C 805.251 2417.39 655.296 2254.09 573.076 2085.86 C 561.458 2007.74 555.955 1928.07 556.778 1848.14 C 564.367 1863.35 572.176 1878.45 580.112 1893.49 C 594.976 1921.6 610.478 1949.38 626.521 1976.84 C 642.591 2004.29 659.261 2031.4 676.539 2058.12 C 693.805 2084.84 711.677 2111.2 730.392 2136.96 C 749.082 2162.73 768.326 2188.14 788.694 2212.66 C 809.027 2237.2 829.968 2261.29 852.327 2284.09 C 896.689 2329.94 945.678 2371.9 1000.77 2405.18 L 1000.83 2405.21 C 1001.85 2405.81 1002.97 2406.1 1004.07 2406.1 C 1006.26 2406.1 1008.4 2404.97 1009.59 2402.95 C 1011.38 2399.91 1010.37 2395.99 1007.33 2394.19 L 1007.25 2394.15 C 980.222 2378.22 954.555 2359.93 930.033 2340.17 L 911.852 2325.07 L 894.238 2309.28 C 888.277 2304.12 882.748 2298.47 877.011 2293.06 C 871.302 2287.61 865.599 2282.15 860.148 2276.43 C 837.81 2254.1 816.816 2230.41 796.401 2206.25 C 775.95 2182.11 756.58 2157.04 737.745 2131.59 C 718.883 2106.15 700.841 2080.09 683.389 2053.64 C 665.924 2027.2 649.053 2000.35 632.771 1973.15 C 616.516 1945.93 600.791 1918.38 585.7 1890.49 C 575.883 1872.32 566.235 1854.02 556.96 1835.57 C 557.418 1811.02 558.47 1786.43 560.127 1761.86 C 579.206 1771.86 597.566 1781.94 615.271 1792.1 C 703.69 1977.6 843.642 2152.34 1059.97 2287.62 C 1082.93 2367.87 1077.71 2419.79 1077.71 2419.79 Z " fill="url(#_lgradient_64)"/><path d=" M 1059.97 2287.62 C 843.642 2152.34 703.69 1977.6 615.271 1792.1 C 918.645 1966.23 1023.97 2161.76 1059.97 2287.62 Z " fill="rgb(148,181,250)"/><path d=" M 556.778 1848.14 C 550.17 1834.89 543.73 1821.56 537.514 1808.08 C 536.886 1806.72 537.48 1805.12 538.839 1804.49 C 539.206 1804.32 539.592 1804.24 539.971 1804.24 C 540.987 1804.24 541.958 1804.81 542.421 1805.79 L 542.441 1805.83 C 547.153 1815.79 552.004 1825.7 556.96 1835.57 C 556.882 1839.78 556.822 1843.93 556.778 1848.14 Z " fill="rgb(193,211,251)"/><linearGradient id="_lgradient_65" x1="0" y1="0" x2="1" y2="0" gradientTransform="matrix(-1993.39,-1744.21,1744.21,-1993.39,3439.53,3171.67)" gradientUnits="userSpaceOnUse"><stop offset="0%" stop-opacity="1" style="stop-color:rgb(191,209,251)"/><stop offset="100%" stop-opacity="1" style="stop-color:rgb(192,210,251)"/></linearGradient><path d=" M 1004.07 2406.1 C 1002.97 2406.1 1001.85 2405.81 1000.83 2405.21 L 1000.77 2405.18 C 945.678 2371.9 896.689 2329.94 852.327 2284.09 C 829.968 2261.29 809.027 2237.2 788.694 2212.66 C 768.326 2188.14 749.082 2162.73 730.392 2136.96 C 711.677 2111.2 693.805 2084.84 676.539 2058.12 C 659.261 2031.4 642.591 2004.29 626.521 1976.84 C 610.478 1949.38 594.976 1921.6 580.112 1893.49 C 572.176 1878.45 564.367 1863.35 556.778 1848.14 C 556.822 1843.93 556.882 1839.78 556.96 1835.57 C 566.235 1854.02 575.883 1872.32 585.7 1890.49 C 600.791 1918.38 616.516 1945.93 632.771 1973.15 C 649.053 2000.35 665.924 2027.2 683.389 2053.64 C 700.841 2080.09 718.883 2106.15 737.745 2131.59 C 756.58 2157.04 775.95 2182.11 796.401 2206.25 C 816.816 2230.41 837.81 2254.1 860.148 2276.43 C 865.599 2282.15 871.302 2287.61 877.011 2293.06 C 882.748 2298.47 888.277 2304.12 894.238 2309.28 L 911.852 2325.07 L 930.033 2340.17 C 954.555 2359.93 980.222 2378.22 1007.25 2394.15 L 1007.33 2394.19 C 1010.37 2395.99 1011.38 2399.91 1009.59 2402.95 C 1008.4 2404.97 1006.26 2406.1 1004.07 2406.1 Z " fill="url(#_lgradient_65)"/><linearGradient id="_lgradient_66" x1="0" y1="0" x2="1" y2="0" gradientTransform="matrix(13.412,1381.28,-1381.28,13.412,2030.72,2533.5)" gradientUnits="userSpaceOnUse"><stop offset="0%" stop-opacity="1" style="stop-color:rgb(9,0,93)"/><stop offset="100%" stop-opacity="1" style="stop-color:rgb(26,15,145)"/></linearGradient><path d=" M 1775.15 2733.8 L 1720.75 3109.19 L 2351.86 3109.19 L 2269.66 2733.8 L 1775.15 2733.8 Z " fill="url(#_lgradient_66)"/><linearGradient id="_lgradient_67" x1="0" y1="0" x2="1" y2="0" gradientTransform="matrix(46.937,2863.13,-2863.13,46.937,1939.93,283.273)" gradientUnits="userSpaceOnUse"><stop offset="0%" stop-opacity="1" style="stop-color:rgb(9,0,93)"/><stop offset="100%" stop-opacity="1" style="stop-color:rgb(26,15,145)"/></linearGradient><path d=" M 714.997 1531.81 L 714.997 2649.14 C 714.997 2741.06 788.243 2816.22 880.127 2818.59 C 1288.23 2829.11 2715.59 2854.63 3104.07 2848.91 C 3170.85 2847.92 3224.94 2794.49 3226.86 2727.74 C 3234.35 2468.17 3246.52 1843.98 3201.5 1554.2 C 3192.01 1493.17 3140.5 1447.54 3078.78 1445.57 C 2736.84 1434.63 1223.75 1399.89 835.442 1408.61 C 768.472 1410.12 714.997 1464.82 714.997 1531.81 Z " fill="url(#_lgradient_67)"/><linearGradient id="_lgradient_68" x1="0" y1="0" x2="1" y2="0" gradientTransform="matrix(2561.39,-2460.81,2460.81,2561.39,1285.21,2729.3)" gradientUnits="userSpaceOnUse"><stop offset="0%" stop-opacity="1" style="stop-color:rgb(254,187,186)"/><stop offset="100%" stop-opacity="1" style="stop-color:rgb(255,146,142)"/></linearGradient><path d=" M 785.106 1526.37 L 785.106 2587.91 C 785.106 2641.58 828.185 2685.31 881.845 2686.11 L 3048.18 2712.87 C 3101.38 2713.67 3144.99 2670.87 3145.19 2617.66 L 3148.81 1565.6 C 3148.96 1527.56 3118.65 1496.39 3080.62 1495.46 L 862.685 1450.65 C 820.148 1449.62 785.106 1483.82 785.106 1526.37 Z " fill="url(#_lgradient_68)"/><path d=" M 3161.5 2756.7 L 3161.44 2756.7 L 785.05 2716.21 C 783.215 2716.17 781.754 2714.66 781.785 2712.83 C 781.817 2710.99 783.407 2709.49 785.163 2709.56 L 3161.55 2750.05 C 3163.39 2750.09 3164.85 2751.6 3164.82 2753.43 C 3164.79 2755.25 3163.31 2756.7 3161.5 2756.7 Z " fill="rgb(145,179,250)"/><path d=" M 1996.75 2756.7 C 1984.94 2756.7 1975.34 2766.3 1975.34 2778.1 C 1975.34 2789.9 1984.94 2799.5 1996.75 2799.5 C 2008.55 2799.5 2018.15 2789.9 2018.15 2778.1 C 2018.15 2766.3 2008.55 2756.7 1996.75 2756.7 Z  M 1996.75 2806.15 C 1981.28 2806.15 1968.7 2793.57 1968.7 2778.1 C 1968.7 2762.64 1981.28 2750.05 1996.75 2750.05 C 2012.21 2750.05 2024.79 2762.64 2024.79 2778.1 C 2024.79 2793.57 2012.21 2806.15 1996.75 2806.15 Z " fill="rgb(145,179,250)"/><linearGradient id="_lgradient_69" x1="0" y1="0" x2="1" y2="0" gradientTransform="matrix(20.117,-1220.36,1220.36,20.117,2008.16,4257.97)" gradientUnits="userSpaceOnUse"><stop offset="0%" stop-opacity="1" style="stop-color:rgb(9,0,93)"/><stop offset="100%" stop-opacity="1" style="stop-color:rgb(26,15,145)"/></linearGradient><path d=" M 2487.8 3209.01 L 1564.13 3209.01 C 1539.04 3209.01 1520.19 3191.15 1525.04 3171.96 L 1536.9 3125.08 C 1540.46 3110.99 1555.97 3100.64 1574.39 3100.06 L 2464.84 3072.28 C 2484.08 3071.68 2501.12 3081.89 2505.32 3096.54 L 2526.68 3171.2 C 2532.23 3190.6 2513.3 3209.01 2487.8 3209.01 Z " fill="url(#_lgradient_69)"/><path d=" M 2061.36 3113.08 C 2059.55 3113.08 2058.07 3111.62 2058.04 3109.8 C 2058.01 3107.97 2059.48 3106.46 2061.31 3106.43 L 2099.47 3105.87 C 2101.25 3105.85 2102.81 3107.31 2102.84 3109.15 C 2102.87 3110.98 2101.4 3112.49 2099.57 3112.52 L 2061.41 3113.08 L 2061.36 3113.08 Z " fill="rgb(145,179,250)"/><path d=" M 1559.24 3183.48 C 1559.07 3183.48 1558.89 3183.47 1558.71 3183.44 C 1556.9 3183.15 1555.67 3181.45 1555.96 3179.64 L 1561.4 3145.54 C 1564.35 3127.07 1580.06 3113.47 1598.77 3113.19 L 2003.48 3107.27 C 2005.28 3107.18 2006.82 3108.71 2006.85 3110.55 C 2006.88 3112.38 2005.41 3113.89 2003.58 3113.92 L 1598.86 3119.84 C 1583.4 3120.06 1570.4 3131.31 1567.96 3146.59 L 1562.52 3180.68 C 1562.26 3182.32 1560.85 3183.48 1559.24 3183.48 Z " fill="rgb(145,179,250)"/><path d=" M 2884.78 2386.64 C 2888.66 2486.22 2887.58 3066.62 2342.76 3163.44 C 2342.76 3163.44 2245.11 2781.16 2871.82 2379.85 C 2877.31 2376.34 2884.52 2380.14 2884.78 2386.64 Z " fill="rgb(145,179,250)"/><path d=" M 2829.02 2469.43 C 2818.79 2501.47 2807.21 2532.94 2795.07 2564.23 C 2782.89 2595.5 2769.95 2626.47 2756.23 2657.11 C 2742.51 2687.74 2728.01 2718.03 2712.72 2747.92 C 2708.84 2755.37 2705.12 2762.89 2701.11 2770.27 L 2689.17 2792.45 C 2680.94 2807.08 2672.83 2821.79 2664.15 2836.18 C 2655.73 2850.72 2646.68 2864.88 2637.77 2879.13 L 2623.92 2900.2 C 2619.37 2907.27 2614.39 2914.04 2609.64 2920.98 C 2590.33 2948.5 2570.04 2975.41 2547.94 3000.84 L 2539.74 3010.45 L 2531.2 3019.76 L 2522.65 3029.07 L 2518.38 3033.73 L 2513.92 3038.21 L 2496.05 3056.11 L 2477.38 3073.22 C 2452.09 3095.57 2425.09 3116.12 2396.13 3133.76 C 2393.69 3135.25 2390.51 3134.47 2389.02 3132.04 C 2387.54 3129.6 2388.31 3126.42 2390.75 3124.93 L 2390.78 3124.91 L 2390.85 3124.87 C 2419.29 3107.83 2445.95 3087.86 2471.03 3066.03 L 2489.56 3049.3 L 2507.33 3031.76 L 2511.77 3027.36 L 2516.03 3022.79 L 2524.54 3013.65 L 2533.06 3004.5 L 2541.25 2995.05 C 2563.31 2970.04 2583.64 2943.5 2603.02 2916.31 C 2607.79 2909.45 2612.79 2902.76 2617.36 2895.77 L 2631.28 2874.93 C 2640.24 2860.83 2649.35 2846.81 2657.83 2832.41 C 2666.57 2818.15 2674.76 2803.57 2683.06 2789.06 L 2695.11 2767.06 C 2699.16 2759.74 2702.93 2752.27 2706.85 2744.89 C 2722.3 2715.22 2736.97 2685.13 2750.88 2654.69 C 2764.78 2624.25 2777.92 2593.45 2790.3 2562.35 C 2802.64 2531.25 2814.44 2499.87 2824.84 2468.13 L 2824.85 2468.08 C 2825.23 2466.94 2826.47 2466.31 2827.62 2466.69 C 2828.76 2467.06 2829.38 2468.29 2829.02 2469.43 Z " fill="rgb(189,208,251)"/><path d=" M 2889.84 2869.98 C 2863.36 2936.5 2694.86 3317.1 2342.27 3217.17 C 2342.27 3217.17 2394.65 2936.97 2884.09 2861.63 C 2888.37 2860.97 2891.57 2865.63 2889.84 2869.98 Z " fill="rgb(189,208,251)"/><linearGradient id="_lgradient_70" x1="0" y1="0" x2="1" y2="0" gradientTransform="matrix(-528.008,1443.23,-1443.23,-528.008,2913.17,2240.47)" gradientUnits="userSpaceOnUse"><stop offset="0%" stop-opacity="1" style="stop-color:rgb(218,227,254)"/><stop offset="100%" stop-opacity="1" style="stop-color:rgb(233,239,253)"/></linearGradient><path d=" M 2833.28 2907.96 C 2818.38 2925.06 2802.91 2941.52 2787.17 2957.76 C 2771.41 2973.98 2755.29 2989.85 2738.87 3005.4 C 2722.42 3020.93 2705.64 3036.1 2688.51 3050.89 C 2671.4 3065.69 2653.94 3080.12 2636.03 3093.97 C 2618.13 3107.84 2599.92 3121.34 2581.12 3134.02 C 2562.34 3146.72 2543.24 3158.99 2523.42 3170.1 C 2483.98 3192.55 2442.14 3211.44 2397.83 3223.18 C 2395.07 3223.91 2392.24 3222.27 2391.51 3219.51 C 2390.78 3216.75 2392.42 3213.92 2395.18 3213.19 L 2395.21 3213.18 L 2395.31 3213.15 C 2438.51 3202.22 2479.89 3184.14 2519.09 3162.38 C 2538.79 3151.63 2557.84 3139.68 2576.6 3127.3 C 2595.38 3114.93 2613.6 3101.72 2631.54 3088.14 C 2649.5 3074.56 2667.02 3060.41 2684.22 3045.86 C 2701.42 3031.33 2718.31 3016.4 2734.86 3001.11 C 2751.39 2985.8 2767.63 2970.17 2783.51 2954.17 C 2799.37 2938.17 2815.02 2921.88 2829.97 2905.1 L 2829.99 2905.07 C 2830.8 2904.17 2832.18 2904.08 2833.08 2904.89 C 2833.98 2905.69 2834.06 2907.06 2833.28 2907.96 Z " fill="url(#_lgradient_70)"/></g></g></g></svg>