<?xml version="1.0" encoding="UTF-8" standalone="no"?><!-- Generator: Gravit.io --><svg xmlns="http://www.w3.org/2000/svg" xmlns:xlink="http://www.w3.org/1999/xlink" style="isolation:isolate" viewBox="0 0 3710 3710" width="3710pt" height="3710pt"><defs><clipPath id="_clipPath_MKLrt4vvNmY5CxxDraxvzlANBIEJ13R4"><rect width="3710" height="3710"/></clipPath></defs><g clip-path="url(#_clipPath_MKLrt4vvNmY5CxxDraxvzlANBIEJ13R4)"><g><clipPath id="_clipPath_SLWOlPrq5FWELcSyBmsOZz5MdAR7lOGD"><path d=" M 0 0 L 0 3710 L 3710 3710 L 3710 0 L 0 0 Z " fill="rgb(255,255,255)"/></clipPath><g clip-path="url(#_clipPath_SLWOlPrq5FWELcSyBmsOZz5MdAR7lOGD)"><path d=" M 3710 3710 L 0 3710 L 0 0 L 3710 0 L 3710 3710 Z " fill="rgb(255,255,255)"/><path d=" M 1989.52 460.895 C 1682.07 583.141 1652.62 895.633 1375.8 922.451 C 1259.21 933.745 1177.55 886.728 1105.18 839.709 C 1027.84 789.458 961.106 739.205 873.669 760.145 C 615.859 821.886 453.769 1436.53 557.312 1941.93 C 664.226 2463.79 1113.44 3157.53 1857.65 3204.87 C 2693.18 3258.02 3325.38 2459.81 3363.98 1759.34 C 3368.16 1683.58 3392.81 1048.87 2907.56 673.92 C 2883.31 655.186 2405.14 295.636 1989.52 460.895 Z " fill="rgb(244,247,250)"/><clipPath id="_clipPath_B1TP6egMeuN1h5kc8pZvD9C4vZtJdvSr"><path d=" M 2159.14 2476.76 L 2404.53 2299.28 C 2404.53 2299.28 2359.68 2139.99 2235.3 2094.65 C 1981.5 2002.13 2080.25 1786.31 2108.08 1689.73 C 2150.06 1544.07 2123.52 1397.41 1947.02 1452.87 C 1770.52 1508.32 1754.02 1184.55 1855.72 959.089 C 1955.23 738.461 1620.46 434.256 1361.23 891.999 C 1206.42 1165.36 1420.15 1384.54 1501.77 1520.88 C 1583.39 1657.22 1400.29 1805.82 1578.92 1915.29 C 1731.5 2008.81 1908.05 2029.77 1893.74 2180.28 C 1879.43 2330.79 1945.69 2440.02 2159.14 2476.76 Z " fill="rgb(255,255,255)"/></clipPath><g clip-path="url(#_clipPath_B1TP6egMeuN1h5kc8pZvD9C4vZtJdvSr)"><linearGradient id="_lgradient_1327" x1="0" y1="0" x2="1" y2="0" gradientTransform="matrix(515.597,1741.79,-1741.79,515.597,1560.49,734.412)" gradientUnits="userSpaceOnUse"><stop offset="0%" stop-opacity="1" style="stop-color:rgb(227,141,221)"/><stop offset="0.35971200000000003%" stop-opacity="1" style="stop-color:rgb(227,141,221)"/><stop offset="100%" stop-opacity="1" style="stop-color:rgb(149,113,246)"/></linearGradient><path d=" M 1832.08 1018.63 L 1671.61 1012.18 C 1744.39 916.052 1830.39 868.394 1872.13 849.47 C 1873.15 857.925 1873.67 866.456 1873.67 875.015 C 1873.69 903.254 1868.02 931.807 1855.72 959.089 L 1855.72 959.089 C 1846.9 978.643 1839.01 998.554 1832.08 1018.63 Z  M 1663.86 1011.86 L 1609.78 1009.69 C 1627.86 895.047 1672.68 782.237 1754.37 676.677 C 1816.61 709.327 1860.66 773.173 1871.23 842.877 C 1828.94 861.829 1738.97 911.038 1663.86 1011.86 Z  M 1602.23 1009.39 L 1426.45 1002.32 C 1401.59 952.181 1382.09 907.815 1369.47 877.754 C 1466.03 714.175 1572.21 653.851 1662.13 653.851 C 1683.93 653.851 1704.79 657.402 1724.31 663.882 C 1732.64 666.649 1740.7 669.938 1748.52 673.726 C 1670.7 774.402 1621.81 886.665 1602.23 1009.39 Z  M 1419.19 1002.03 L 1375.47 1000.27 C 1375.24 961.838 1371.42 923.479 1364.44 886.376 C 1364.78 885.797 1365.11 885.224 1365.44 884.648 C 1377.85 913.998 1396.18 955.425 1419.19 1002.03 Z " fill-rule="evenodd" fill="url(#_lgradient_1327)"/><linearGradient id="_lgradient_1328" x1="0" y1="0" x2="1" y2="0" gradientTransform="matrix(515.597,1741.79,-1741.79,515.597,1560.49,734.412)" gradientUnits="userSpaceOnUse"><stop offset="0%" stop-opacity="1" style="stop-color:rgb(230,152,228)"/><stop offset="0.3540022857142857%" stop-opacity="1" style="stop-color:rgb(230,152,228)"/><stop offset="0.35971200000000003%" stop-opacity="1" style="stop-color:rgb(230,152,228)"/><stop offset="100%" stop-opacity="1" style="stop-color:rgb(160,126,248)"/></linearGradient><path d=" M 1609.78 1009.69 L 1602.23 1009.39 C 1621.81 886.665 1670.7 774.402 1748.52 673.726 C 1750.49 674.68 1752.44 675.663 1754.37 676.677 C 1672.68 782.237 1627.86 895.047 1609.78 1009.69 Z " fill="url(#_lgradient_1328)"/><linearGradient id="_lgradient_1329" x1="0" y1="0" x2="1" y2="0" gradientTransform="matrix(515.597,1741.79,-1741.79,515.597,1560.49,734.412)" gradientUnits="userSpaceOnUse"><stop offset="0%" stop-opacity="1" style="stop-color:rgb(230,152,228)"/><stop offset="0.3540022857142857%" stop-opacity="1" style="stop-color:rgb(230,152,228)"/><stop offset="0.35971200000000003%" stop-opacity="1" style="stop-color:rgb(230,152,228)"/><stop offset="100%" stop-opacity="1" style="stop-color:rgb(160,126,248)"/></linearGradient><path d=" M 1426.45 1002.32 L 1419.19 1002.03 C 1396.18 955.425 1377.85 913.998 1365.44 884.648 C 1366.77 882.344 1368.13 880.019 1369.47 877.754 C 1382.09 907.815 1401.59 952.181 1426.45 1002.32 Z " fill="url(#_lgradient_1329)"/><linearGradient id="_lgradient_1330" x1="0" y1="0" x2="1" y2="0" gradientTransform="matrix(515.597,1741.79,-1741.79,515.597,1560.49,734.412)" gradientUnits="userSpaceOnUse"><stop offset="0%" stop-opacity="1" style="stop-color:rgb(230,152,228)"/><stop offset="0.3540022857142857%" stop-opacity="1" style="stop-color:rgb(230,152,228)"/><stop offset="0.35971200000000003%" stop-opacity="1" style="stop-color:rgb(230,152,228)"/><stop offset="100%" stop-opacity="1" style="stop-color:rgb(160,126,248)"/></linearGradient><path d=" M 1671.61 1012.18 L 1663.86 1011.86 C 1738.97 911.038 1828.94 861.829 1871.23 842.877 C 1871.56 845.069 1871.86 847.267 1872.13 849.47 C 1830.39 868.394 1744.39 916.052 1671.61 1012.18 Z " fill="url(#_lgradient_1330)"/></g><linearGradient id="_lgradient_1331" x1="0" y1="0" x2="1" y2="0" gradientTransform="matrix(1296.22,2064.19,2064.19,-1296.22,469.881,981.538)" gradientUnits="userSpaceOnUse"><stop offset="0%" stop-opacity="1" style="stop-color:rgb(255,196,68)"/><stop offset="99.64030000000001%" stop-opacity="1" style="stop-color:rgb(243,111,86)"/><stop offset="100%" stop-opacity="1" style="stop-color:rgb(243,111,86)"/></linearGradient><path d=" M 764.502 2088.62 C 719.059 2067.71 689.513 2048.94 673.354 2008.3 C 631.93 1904.12 753.856 1845.57 714.781 1729.85 C 684.704 1640.78 589.136 1606.36 526.857 1551.35 C 497.769 1525.65 475.937 1495.46 471.44 1453.13 C 469.018 1430.33 467.15 1406.84 476.119 1377.6 C 498.259 1305.42 565.892 1279.51 544.577 1203.56 C 501.733 1050.89 561.284 885.288 723.709 867.35 C 723.983 867.32 724.262 867.29 724.536 867.261 C 729.963 866.69 735.371 866.407 740.742 866.407 C 803.312 866.407 861.697 904.778 908.516 973.798 C 907.652 976.346 906.744 978.886 905.797 981.401 L 839.265 978.73 C 838.337 978.692 837.418 978.674 836.498 978.674 C 834.335 978.674 832.199 978.776 830.095 978.976 L 825.193 978.736 C 824.267 978.699 823.345 978.681 822.429 978.681 C 790.36 978.681 764.502 1001.25 764.502 1029.93 L 764.502 1175.76 C 759.225 1155.73 754.258 1135.73 749.6 1115.73 C 730.075 1031.93 716.162 949.292 708.138 869.574 C 706.171 869.92 704.195 870.294 702.261 870.685 C 710.31 950.626 724.264 1033.48 743.835 1117.49 C 748.129 1135.93 752.688 1154.38 757.507 1172.84 C 700.78 1069.4 624.7 976.777 589.533 935.173 C 588.169 936.738 586.83 938.323 585.513 939.93 C 623.461 984.858 707.494 1087.48 764.405 1198.89 L 764.468 1198.85 C 764.479 1198.89 764.491 1198.94 764.502 1198.98 L 764.502 1519.47 C 647.507 1446.27 524.625 1396.71 475.897 1378.33 C 475.316 1380.26 474.771 1382.21 474.258 1384.21 C 523.783 1402.91 647.573 1452.96 764.502 1526.64 L 764.502 2088.62 Z " fill="url(#_lgradient_1331)"/><clipPath id="_clipPath_lrxV9ugwPsxENyWZnwV0WINJhCjP6tiU"><path d=" M 1839.13 2523.64 L 1610.85 2733.2 C 1610.85 2733.2 1391.49 2684.99 1406.53 2563.4 C 1421.57 2441.81 1228.66 2369.26 1131.2 2318.24 C 866.765 2179.79 1082.44 1908.86 758.939 1702.53 C 672.897 1647.65 488.25 1573.35 471.44 1453.13 C 452.289 1316.16 571.989 1301.24 544.576 1203.56 C 501.733 1050.89 561.284 885.288 723.707 867.352 C 884.013 849.648 1021.72 1082.76 1016.75 1441.21 C 1042.27 1696.54 1081.97 1725.55 1191.86 1776.66 C 1268.83 1812.46 1501.23 1858.54 1506.34 2006.67 C 1511.45 2154.8 1538.63 2282.82 1644.9 2294.64 C 1806.61 2312.61 1839.13 2523.64 1839.13 2523.64 Z " fill="rgb(255,255,255)"/></clipPath><g clip-path="url(#_clipPath_lrxV9ugwPsxENyWZnwV0WINJhCjP6tiU)"><linearGradient id="_lgradient_1332" x1="0" y1="0" x2="1" y2="0" gradientTransform="matrix(1296.22,2064.19,2064.19,-1296.22,469.881,981.538)" gradientUnits="userSpaceOnUse"><stop offset="0%" stop-opacity="1" style="stop-color:rgb(255,210,100)"/><stop offset="98.05870793650794%" stop-opacity="1" style="stop-color:rgb(246,140,117)"/><stop offset="99.64030000000001%" stop-opacity="1" style="stop-color:rgb(246,139,117)"/><stop offset="100%" stop-opacity="1" style="stop-color:rgb(246,139,117)"/></linearGradient><path d=" M 764.502 1198.98 C 764.491 1198.94 764.479 1198.89 764.468 1198.85 L 764.502 1198.83 L 764.502 1198.98 Z  M 764.502 1185.84 C 762.208 1181.49 759.872 1177.15 757.507 1172.84 C 752.688 1154.38 748.129 1135.93 743.835 1117.49 C 724.264 1033.48 710.31 950.626 702.261 870.685 C 704.195 870.294 706.171 869.92 708.138 869.574 C 716.162 949.292 730.075 1031.93 749.6 1115.73 C 754.258 1135.73 759.225 1155.73 764.502 1175.76 L 764.502 1185.84 Z " fill-rule="evenodd" fill="url(#_lgradient_1332)"/><linearGradient id="_lgradient_1333" x1="0" y1="0" x2="1" y2="0" gradientTransform="matrix(1296.22,2064.19,2064.19,-1296.22,469.881,981.538)" gradientUnits="userSpaceOnUse"><stop offset="0%" stop-opacity="1" style="stop-color:rgb(255,210,100)"/><stop offset="98.05870793650794%" stop-opacity="1" style="stop-color:rgb(246,140,117)"/><stop offset="99.64030000000001%" stop-opacity="1" style="stop-color:rgb(246,139,117)"/><stop offset="100%" stop-opacity="1" style="stop-color:rgb(246,139,117)"/></linearGradient><path d=" M 764.502 1526.64 C 647.573 1452.96 523.783 1402.91 474.258 1384.21 C 474.771 1382.21 475.316 1380.26 475.897 1378.33 C 524.625 1396.71 647.507 1446.27 764.502 1519.47 L 764.502 1526.64 Z " fill="url(#_lgradient_1333)"/><linearGradient id="_lgradient_1334" x1="0" y1="0" x2="1" y2="0" gradientTransform="matrix(1296.22,2064.19,2064.19,-1296.22,469.881,981.538)" gradientUnits="userSpaceOnUse"><stop offset="0%" stop-opacity="1" style="stop-color:rgb(255,210,100)"/><stop offset="98.05870793650794%" stop-opacity="1" style="stop-color:rgb(246,140,117)"/><stop offset="99.64030000000001%" stop-opacity="1" style="stop-color:rgb(246,139,117)"/><stop offset="100%" stop-opacity="1" style="stop-color:rgb(246,139,117)"/></linearGradient><path d=" M 764.405 1198.89 C 707.494 1087.48 623.461 984.858 585.513 939.93 C 586.83 938.323 588.169 936.738 589.533 935.173 C 624.7 976.777 700.78 1069.4 757.507 1172.84 C 759.872 1177.15 762.208 1181.49 764.502 1185.84 L 764.502 1198.83 L 764.468 1198.85 L 764.405 1198.89 Z " fill="url(#_lgradient_1334)"/></g><linearGradient id="_lgradient_1335" x1="0" y1="0" x2="1" y2="0" gradientTransform="matrix(736.613,1472.96,1472.96,-736.613,946.283,826.549)" gradientUnits="userSpaceOnUse"><stop offset="0%" stop-opacity="1" style="stop-color:rgb(255,144,133)"/><stop offset="100%" stop-opacity="1" style="stop-color:rgb(251,111,187)"/></linearGradient><path d=" M 1375.47 1000.27 L 1090.62 988.825 C 1089.86 983.395 1089.13 977.929 1088.42 972.492 C 1094.54 836.711 1186.04 701.658 1242.86 630.293 C 1241.12 628.532 1239.36 626.783 1237.61 625.083 C 1185.01 691.081 1102.53 811.645 1084.23 937.702 C 1070.57 814.227 1069.67 689.036 1082.45 564.744 C 1079.91 565.038 1077.35 565.393 1074.8 565.807 C 1060.94 701.689 1063.35 838.571 1080.85 973.182 C 1080.8 974.213 1080.76 975.261 1080.73 976.293 L 1081.25 976.281 C 1081.79 980.375 1082.34 984.425 1082.91 988.515 L 1024.32 986.16 L 905.797 981.401 C 906.744 978.886 907.652 976.346 908.516 973.798 C 931.54 905.924 925.977 826.633 929.848 756.007 C 933.611 687.36 946.289 626.896 1002.8 593.105 C 1036.68 572.841 1069.83 563.639 1101.5 563.639 C 1228.34 563.639 1331.51 711.214 1364.44 886.376 C 1371.42 923.479 1375.24 961.838 1375.47 1000.27 Z " fill="url(#_lgradient_1335)"/><clipPath id="_clipPath_lQK4b2JaOm6XoR2F7efqfV0alW4eHxCA"><path d=" M 1742.63 1898.21 L 1548.89 2201.99 C 1496.62 2194.31 1406.61 2170.11 1428.5 2095.01 C 1458.94 1990.61 1311.05 1897.78 1242.95 1890.09 C 1158.66 1880.57 963.08 1854.3 1007.67 1692.3 C 1044.79 1557.43 1095.59 1476.53 960.644 1383.51 C 825.701 1290.5 788.641 1157.35 880.459 1029.32 C 977.083 894.586 871.344 671.713 1002.8 593.106 C 1231.85 456.137 1426.62 824.657 1363.42 1122.09 C 1300.23 1419.53 1471.29 1330.82 1589.93 1393.85 C 1751.91 1479.9 1579.44 1681.25 1604.14 1777.12 C 1623.5 1852.28 1695.29 1884.13 1742.63 1898.21 Z " fill="rgb(255,255,255)"/></clipPath><g clip-path="url(#_clipPath_lQK4b2JaOm6XoR2F7efqfV0alW4eHxCA)"><linearGradient id="_lgradient_1336" x1="0" y1="0" x2="1" y2="0" gradientTransform="matrix(736.613,1472.96,1472.96,-736.613,946.283,826.549)" gradientUnits="userSpaceOnUse"><stop offset="0%" stop-opacity="1" style="stop-color:rgb(255,168,158)"/><stop offset="100%" stop-opacity="1" style="stop-color:rgb(252,139,202)"/></linearGradient><path d=" M 1090.62 988.825 L 1082.91 988.515 C 1082.34 984.425 1081.79 980.375 1081.25 976.281 L 1088.27 976.119 C 1088.32 974.91 1088.36 973.701 1088.42 972.492 C 1089.13 977.929 1089.86 983.395 1090.62 988.825 Z  M 1080.85 973.182 C 1063.35 838.571 1060.94 701.689 1074.8 565.807 C 1077.35 565.393 1079.91 565.038 1082.45 564.744 C 1069.67 689.036 1070.57 814.227 1084.23 937.702 C 1082.51 949.495 1081.36 961.333 1080.85 973.182 Z " fill-rule="evenodd" fill="url(#_lgradient_1336)"/><linearGradient id="_lgradient_1337" x1="0" y1="0" x2="1" y2="0" gradientTransform="matrix(736.613,1472.96,1472.96,-736.613,946.283,826.549)" gradientUnits="userSpaceOnUse"><stop offset="0%" stop-opacity="1" style="stop-color:rgb(255,168,158)"/><stop offset="100%" stop-opacity="1" style="stop-color:rgb(252,139,202)"/></linearGradient><path d=" M 1080.73 976.293 C 1080.76 975.261 1080.8 974.213 1080.85 973.182 C 1081.36 961.333 1082.51 949.495 1084.23 937.702 C 1102.53 811.645 1185.01 691.081 1237.61 625.083 C 1239.36 626.783 1241.12 628.532 1242.86 630.293 C 1186.04 701.658 1094.54 836.711 1088.42 972.492 C 1088.36 973.701 1088.32 974.91 1088.27 976.119 L 1081.25 976.281 L 1080.73 976.293 Z " fill="url(#_lgradient_1337)"/></g><path d=" M 2288.69 2961.19 C 2249.22 2948.1 2219.71 2914.6 2211.39 2873.42 L 2153.93 2589.05 L 1662.44 2606.51 L 1601.96 2902.75 C 1593.48 2944.24 1627.4 2985.86 1666.45 3001.14 L 1872.08 3081.6 C 1910.32 3096.56 1951.44 3102.52 1992.3 3099.03 L 2426.87 3061.85 C 2439.57 3060.77 2449.76 3050.78 2451.24 3037.97 C 2452.72 3025.16 2461.62 3010.77 2449.5 3006.75 L 2288.69 2961.19 Z " fill="rgb(151,166,183)"/><linearGradient id="_lgradient_1338" x1="0" y1="0" x2="1" y2="0" gradientTransform="matrix(7.471,280.162,-280.162,7.471,2029.46,2690.2)" gradientUnits="userSpaceOnUse"><stop offset="0%" stop-opacity="1" style="stop-color:rgb(68,75,140)"/><stop offset="99.64030000000001%" stop-opacity="1" style="stop-color:rgb(38,38,79)"/><stop offset="100%" stop-opacity="1" style="stop-color:rgb(38,38,79)"/></linearGradient><path d=" M 1974.72 3080.96 C 1941.49 3080.96 1908.48 3074.82 1877.36 3062.79 L 1671.94 2983.35 C 1632.92 2968.26 1610.53 2927.18 1619 2886.21 L 1638.19 2793.27 L 1905.18 2734.92 L 1796.69 2731.12 L 2187.18 2714.61 L 2216.33 2857.23 C 2224.64 2897.89 2254.12 2930.97 2293.55 2943.9 L 2437.68 2991.15 C 2449.78 2995.12 2457.42 3007.06 2455.94 3019.71 C 2455.55 3023.01 2454.57 3026.12 2453.11 3028.94 C 2448.98 3036.91 2440.97 3042.5 2431.59 3043.29 L 1997.46 3080 C 1989.88 3080.64 1982.3 3080.96 1974.72 3080.96 Z " fill="url(#_lgradient_1338)"/><linearGradient id="_lgradient_1339" x1="0" y1="0" x2="1" y2="0" gradientTransform="matrix(1599.711,778.343,-778.343,1599.711,1460.815,1639.763)" gradientUnits="userSpaceOnUse"><stop offset="0%" stop-opacity="1" style="stop-color:rgb(68,75,140)"/><stop offset="64.4699%" stop-opacity="1" style="stop-color:rgb(49,51,101)"/><stop offset="99.64030000000001%" stop-opacity="1" style="stop-color:rgb(38,38,79)"/><stop offset="100%" stop-opacity="1" style="stop-color:rgb(38,38,79)"/></linearGradient><path d=" M 598.13 2553.217 L 598.13 2552.851 L 598.13 1033.914 C 598.13 1005.106 622.889 981.986 654.308 979 C 656.576 978.784 658.879 978.674 661.211 978.674 C 662.203 978.674 663.194 978.693 664.194 978.734 L 735.925 981.614 L 863.709 986.745 L 926.877 989.284 L 935.19 989.618 L 1242.298 1001.958 L 1289.434 1003.855 L 1297.262 1004.168 L 1486.777 1011.79 L 1494.917 1012.114 L 1553.223 1014.453 L 1561.578 1014.798 L 1734.587 1021.752 L 2379.531 1047.671 L 2415.088 1049.094 L 2537.92 1054.032 L 2641.001 1058.182 L 3023.266 1073.697 L 2987 1073.233 C 3024 1076.667 2992.667 1133.333 3015.601 1159.5 L 2699.296 1132.035 L 946.478 1066.646 C 945.583 1065.32 944.57 1064.004 943.599 1062.678 C 921.713 1032.587 894.318 1007.262 863.709 986.745 L 664.194 978.734 C 663.194 978.693 662.203 978.674 661.211 978.674 C 626.593 978.674 598.13 1003.025 598.13 1033.914 L 598.13 2553.217 Z  M 1614.386 2528.517 C 1614.386 2528.517 1614.386 2528.517 1614.386 2528.517 C 1596.909 2507.838 1582.3 2485.176 1571.551 2460.433 C 1571.551 2460.433 1571.551 2460.433 1571.54 2460.422 L 2425.675 2436.131 L 2425.675 2508.809 L 1614.461 2528.517 L 1614.386 2528.517 Z  M 3023.266 2329.169 L 3023.266 2230.746 L 3023.266 1312.645 L 3023.266 1191.171 C 3023.266 1169.317 3061.528 1204.964 3041 1198.98 L 3041 1191.171 C 3013.333 1175.333 3011.107 1152.624 3008.38 1144.52 C 2995.745 1118.893 3019.333 1093.333 2999 1073.233 L 3015.601 1073.233 L 3027.158 1073.697 C 3055.654 1074.829 3079.75 1098.828 3079.75 1127 L 3079.75 1343.404 L 3079.75 2328.9 L 3023.266 2329.169 Z " fill-rule="evenodd" fill="url(#_lgradient_1339)"/><linearGradient id="_lgradient_1340" x1="0" y1="0" x2="1" y2="0" gradientTransform="matrix(734.134,2502.09,-2647.504,693.811,1468.785,-398.249)" gradientUnits="userSpaceOnUse"><stop offset="0%" stop-opacity="1" style="stop-color:rgb(170,128,249)"/><stop offset="99.64030000000001%" stop-opacity="1" style="stop-color:rgb(97,101,215)"/><stop offset="100%" stop-opacity="1" style="stop-color:rgb(97,101,215)"/></linearGradient><path d=" M 3027.158 1185 C 3051.391 1185.36 3047.509 1235.183 3023.266 1272.37 L 3008.38 1272.37 L 2975.2 1269 C 2981.22 1250.556 2981.23 1202.496 2975.2 1124.79 C 2994.24 1130.34 3015.601 1139.23 3015.601 1159.5 L 3027.158 1185 Z  M 2980.777 1272.37 L 1134.24 1227.34 C 1133.19 1202.7 1130.68 1178.39 1125.57 1154.58 C 1125.85 1154.6 1126.12 1154.62 1126.4 1154.62 C 1126.62 1154.63 1126.85 1154.64 1127.07 1154.64 C 1137.16 1154.64 1145.22 1147.44 1145.22 1138.29 C 1145.22 1128.94 1136.8 1121.08 1126.4 1120.72 C 1126.15 1120.72 1125.91 1120.71 1125.67 1120.71 C 1122.52 1120.71 1119.56 1121.41 1116.99 1122.66 C 1109.13 1098.59 1097.89 1075.22 1082.12 1052.82 C 1082.12 1052.81 1082.11 1052.8 1082.11 1052.8 L 2975.2 1140.34 C 2980.257 1221.17 2982.126 1265.19 2980.777 1272.37 Z " fill-rule="evenodd" fill="url(#_lgradient_1340)"/><path d=" M 999.049 1140.34 C 999.049 1149.8 990.428 1157.19 979.78 1156.86 C 969.115 1156.52 960.458 1148.56 960.458 1139.07 C 960.458 1129.59 969.115 1122.19 979.78 1122.56 C 990.428 1122.92 999.049 1130.88 999.049 1140.34 Z " fill="rgb(255,255,255)"/><path d=" M 1082.11 1143.07 C 1082.11 1152.47 1073.59 1159.82 1063.06 1159.49 C 1052.52 1159.16 1043.97 1151.24 1043.97 1141.81 C 1043.97 1132.38 1052.52 1125.03 1063.06 1125.39 C 1073.59 1125.75 1082.11 1133.66 1082.11 1143.07 Z " fill="rgb(255,255,255)"/><path d=" M 1164.2 1145.76 C 1164.2 1155.11 1155.78 1162.42 1145.38 1162.09 C 1134.96 1161.77 1126.5 1153.9 1126.5 1144.52 C 1126.5 1135.15 1134.96 1127.84 1145.38 1128.19 C 1155.78 1128.55 1164.2 1136.41 1164.2 1145.76 Z " fill="rgb(255,255,255)"/><linearGradient id="_lgradient_1341" x1="0" y1="0" x2="1" y2="0" gradientTransform="matrix(2680.462,1304.186,-1304.186,2680.462,890.868,2045.237)" gradientUnits="userSpaceOnUse"><stop offset="0%" stop-opacity="1" style="stop-color:rgb(68,75,140)"/><stop offset="99.64030000000001%" stop-opacity="1" style="stop-color:rgb(38,38,79)"/><stop offset="100%" stop-opacity="1" style="stop-color:rgb(38,38,79)"/></linearGradient><path d=" M 1858.043 2928.639 L 1857.808 2928.621 L 3079.75 2876.982 L 3079.75 2877 L 2563.353 2898.819 L 1858.043 2928.639 Z  M 2397.994 2643.329 C 2325.058 2643.329 2252.376 2636.231 2180.326 2618.223 C 2022.156 2578.613 1839.674 2496.773 1725.684 2365.768 C 1723.932 2363.799 1722.216 2361.831 1720.59 2359.808 L 1720.716 2359.808 L 3079.75 2326.79 L 3079.75 2553.217 C 2855.364 2574.567 2625.216 2643.329 2397.994 2643.329 Z " fill-rule="evenodd" fill="url(#_lgradient_1341)"/><path d=" M 778.854 2729.39 C 778.285 2726.51 777.989 2723.53 777.989 2720.49 L 777.989 2720.49 C 777.989 2723.53 778.287 2726.51 778.859 2729.39 L 778.854 2729.39 Z " fill="rgb(156,170,186)"/><linearGradient id="_lgradient_1342" x1="0" y1="0" x2="1" y2="0" gradientTransform="matrix(1483.77,721.931,-721.931,1483.77,1578.15,1591.85)" gradientUnits="userSpaceOnUse"><stop offset="0%" stop-opacity="1" style="stop-color:rgb(75,81,145)"/><stop offset="63.44656825396825%" stop-opacity="1" style="stop-color:rgb(55,57,108)"/><stop offset="64.4699%" stop-opacity="1" style="stop-color:rgb(55,57,107)"/><stop offset="99.08203968253969%" stop-opacity="1" style="stop-color:rgb(44,44,85)"/><stop offset="99.64030000000001%" stop-opacity="1" style="stop-color:rgb(44,44,85)"/><stop offset="100%" stop-opacity="1" style="stop-color:rgb(44,44,85)"/></linearGradient><path d=" M 777.989 2439.1 L 777.989 1029.91 C 777.989 1001.26 804.389 978.674 836.498 978.674 C 837.418 978.674 838.337 978.692 839.265 978.73 L 1024.32 986.16 C 1052.71 1005.19 1078.12 1028.68 1098.42 1056.59 C 1099.32 1057.82 1100.26 1059.04 1101.09 1060.27 L 902.125 1052.84 C 901.347 1052.81 900.568 1052.8 899.798 1052.8 C 870.537 1052.8 846.923 1073.49 846.923 1099.72 L 846.923 1226.04 L 846.923 2326.79 C 846.923 2353.73 871.336 2375.17 901.46 2375.17 C 902.064 2375.17 902.666 2375.16 903.275 2375.14 L 1680.85 2353.03 C 1680.86 2353.04 1680.86 2353.04 1680.86 2353.04 C 1690.83 2375.99 1704.38 2397.01 1720.59 2416.19 C 1720.59 2416.19 1720.59 2416.19 1720.59 2416.19 L 777.989 2439.1 Z " fill="url(#_lgradient_1342)"/><linearGradient id="_lgradient_1343" x1="0" y1="0" x2="1" y2="0" gradientTransform="matrix(2180.44,0,0,2180.44,846.923,1800.61)" gradientUnits="userSpaceOnUse"><stop offset="0%" stop-opacity="1" style="stop-color:rgb(255,255,255)"/><stop offset="98.05870793650794%" stop-opacity="1" style="stop-color:rgb(236,240,243)"/><stop offset="99.64030000000001%" stop-opacity="1" style="stop-color:rgb(236,240,243)"/><stop offset="100%" stop-opacity="1" style="stop-color:rgb(236,240,243)"/></linearGradient><path d=" M 901.46 2375.17 C 871.336 2375.17 846.923 2353.73 846.923 2326.79 L 846.923 1226.04 L 1153.22 1234.81 C 1153.22 1234.81 1153.22 1234.82 1153.22 1234.82 C 1155.47 1286.91 1151.38 1340.38 1151.59 1393.05 C 1152.03 1499.8 1158.7 1606.48 1229.53 1692.42 C 1281.98 1756.07 1367.42 1780.25 1438.32 1817.26 C 1501.4 1850.19 1558.58 1891.32 1600.82 1946.7 L 1600.82 2029.82 L 1600.82 2029.82 C 1600.82 2067.85 1623.05 2103.21 1661.25 2132.71 C 1661.5 2197.96 1652.19 2264.33 1671.87 2328.72 C 1674.4 2337.05 1677.41 2345.17 1680.85 2353.03 L 903.275 2375.14 C 902.666 2375.16 902.064 2375.17 901.46 2375.17 Z " fill="url(#_lgradient_1343)"/><linearGradient id="_lgradient_1344" x1="0" y1="0" x2="1" y2="0" gradientTransform="matrix(720.986,2600.09,-2600.09,720.986,1480.84,-447.613)" gradientUnits="userSpaceOnUse"><stop offset="0%" stop-opacity="1" style="stop-color:rgb(174,133,249)"/><stop offset="98.05870793650794%" stop-opacity="1" style="stop-color:rgb(104,107,218)"/><stop offset="99.64030000000001%" stop-opacity="1" style="stop-color:rgb(103,107,217)"/><stop offset="100%" stop-opacity="1" style="stop-color:rgb(103,107,217)"/></linearGradient><path d=" M 1153.22 1234.81 L 846.923 1226.04 L 846.923 1099.72 C 846.923 1073.49 870.537 1052.8 899.798 1052.8 C 900.568 1052.8 901.347 1052.81 902.125 1052.84 L 1101.09 1060.27 C 1101.09 1060.27 1101.1 1060.28 1101.1 1060.29 C 1116.87 1082.69 1128.11 1106.06 1135.97 1130.13 C 1130.31 1132.87 1126.5 1138.23 1126.5 1144.52 C 1126.5 1153.65 1134.52 1161.35 1144.55 1162.05 C 1149.66 1185.86 1152.17 1210.17 1153.22 1234.81 Z  M 1062.32 1125.38 C 1052.13 1125.38 1043.97 1132.61 1043.97 1141.81 C 1043.97 1151.24 1052.52 1159.16 1063.06 1159.49 C 1063.29 1159.5 1063.52 1159.5 1063.75 1159.5 C 1073.95 1159.5 1082.11 1152.26 1082.11 1143.07 C 1082.11 1133.66 1073.59 1125.75 1063.06 1125.39 C 1062.81 1125.38 1062.57 1125.38 1062.32 1125.38 Z  M 979.028 1122.54 C 968.711 1122.54 960.458 1129.81 960.458 1139.07 C 960.458 1148.56 969.115 1156.52 979.78 1156.86 C 980.015 1156.86 980.247 1156.87 980.479 1156.87 C 990.802 1156.87 999.049 1149.59 999.049 1140.34 C 999.049 1130.88 990.428 1122.92 979.78 1122.56 C 979.528 1122.55 979.278 1122.54 979.028 1122.54 Z " fill-rule="evenodd" fill="url(#_lgradient_1344)"/><path d=" M 980.479 1156.87 C 980.247 1156.87 980.015 1156.86 979.78 1156.86 C 969.115 1156.52 960.458 1148.56 960.458 1139.07 C 960.458 1129.81 968.711 1122.54 979.028 1122.54 C 979.278 1122.54 979.528 1122.55 979.78 1122.56 C 990.428 1122.92 999.049 1130.88 999.049 1140.34 C 999.049 1149.59 990.802 1156.87 980.479 1156.87 Z " fill="rgb(255,255,255)"/><path d=" M 1063.75 1159.5 C 1063.52 1159.5 1063.29 1159.5 1063.06 1159.49 C 1052.52 1159.16 1043.97 1151.24 1043.97 1141.81 C 1043.97 1132.61 1052.13 1125.38 1062.32 1125.38 C 1062.57 1125.38 1062.81 1125.38 1063.06 1125.39 C 1073.59 1125.75 1082.11 1133.66 1082.11 1143.07 C 1082.11 1152.26 1073.95 1159.5 1063.75 1159.5 Z " fill="rgb(255,255,255)"/><path d=" M 1144.55 1162.05 C 1134.52 1161.35 1126.5 1153.65 1126.5 1144.52 C 1126.5 1138.23 1130.31 1132.87 1135.97 1130.13 C 1135.97 1130.13 1135.97 1130.14 1135.98 1130.14 C 1139.46 1140.65 1142.26 1151.27 1144.55 1162.04 C 1144.55 1162.04 1144.55 1162.05 1144.55 1162.05 Z " fill="rgb(255,255,255)"/><linearGradient id="_lgradient_1345" x1="0" y1="0" x2="1" y2="0" gradientTransform="matrix(2015.148,980.476,-980.476,2015.148,1434.168,2123.344)" gradientUnits="userSpaceOnUse"><stop offset="0%" stop-opacity="1" style="stop-color:rgb(75,81,145)"/><stop offset="98.05870793650794%" stop-opacity="1" style="stop-color:rgb(44,45,86)"/><stop offset="99.64030000000001%" stop-opacity="1" style="stop-color:rgb(44,44,85)"/><stop offset="100%" stop-opacity="1" style="stop-color:rgb(44,44,85)"/></linearGradient><path d=" M 2161.105 2787.465 L 1366.096 2759.614 L 779.17 2785.129 C 778.394 2781.218 777.989 2777.172 777.989 2773.044 L 777.989 2390.945 L 2057.945 2359.835 C 2059.167 2361.356 2060.457 2362.836 2061.774 2364.316 C 2147.471 2462.805 2284.66 2524.331 2403.571 2554.11 C 2457.738 2567.648 2512.379 2572.985 2567.211 2572.985 C 2738.035 2572.985 2911.058 2521.289 3079.75 2505.239 L 3079.75 2748.642 L 2161.105 2787.465 Z " fill="url(#_lgradient_1345)"/></g></g></g></svg>