<?xml version="1.0" encoding="UTF-8" standalone="no"?><!-- Generator: Gravit.io --><svg xmlns="http://www.w3.org/2000/svg" xmlns:xlink="http://www.w3.org/1999/xlink" style="isolation:isolate" viewBox="0 0 3710 3710" width="3710pt" height="3710pt"><defs><clipPath id="_clipPath_gouIlBQClwjztusExqiLSRZTjp4tV0wO"><rect width="3710" height="3710"/></clipPath></defs><g clip-path="url(#_clipPath_gouIlBQClwjztusExqiLSRZTjp4tV0wO)"><g><clipPath id="_clipPath_s7sLuDOpzjWKfby2lriRKNz8V1ZeBjnz"><path d=" M 0 0 L 0 3710 L 3710 3710 L 3710 0 L 0 0 Z " fill="rgb(255,255,255)"/></clipPath><g clip-path="url(#_clipPath_s7sLuDOpzjWKfby2lriRKNz8V1ZeBjnz)"><linearGradient id="_lgradient_696" x1="0" y1="0" x2="1" y2="0" gradientTransform="matrix(2784.85,0,0,2784.85,464.64,1830.88)" gradientUnits="userSpaceOnUse"><stop offset="0%" stop-opacity="1" style="stop-color:rgb(218,227,254)"/><stop offset="100%" stop-opacity="1" style="stop-color:rgb(233,239,253)"/></linearGradient><path d=" M 1857.06 3223.3 C 1088.05 3223.3 464.64 2599.89 464.64 1830.88 C 464.64 1771.27 468.38 1712.58 475.649 1654.94 C 505.686 1786.15 557.324 1916.29 642.028 2037.17 C 789.727 2247.95 1024.49 2307.53 1024.49 2307.53 L 1024.49 2307.53 L 1024.49 2307.53 C 918.169 2228.73 824.854 2118.58 788.818 1909.61 C 1168.04 1446.93 1023.94 955.326 949.711 774.649 C 1193.42 565.088 1510.43 438.456 1857.06 438.456 C 2626.08 438.456 3249.49 1061.87 3249.49 1830.88 C 3249.49 2599.89 2626.08 3223.3 1857.06 3223.3 Z  M 1709.86 3139.82 L 1994.97 3139.82 C 2127.26 3126.43 2254.04 3094.65 2372.84 3047.02 C 2373.01 3051.25 2373.31 3055.48 2373.74 3059.66 C 2373.99 3062.16 2376.1 3064.02 2378.56 3064.02 C 2378.72 3064.02 2378.89 3064.01 2379.06 3064 C 2381.72 3063.72 2383.66 3061.34 2383.39 3058.68 C 2382.86 3053.54 2382.54 3048.33 2382.41 3043.14 C 2479.6 3003.35 2571.32 2952.92 2656.12 2893.33 C 2657.63 2892.83 2658.93 2891.9 2659.87 2890.69 C 2736.2 2836.68 2806.88 2775.21 2870.85 2707.35 C 2888.49 2612.18 2906.11 2516.88 2923.74 2421.16 L 1311.75 2421.16 C 1352.6 2643.02 1393.48 2862.69 1434.34 3083.47 C 1522.74 3111.11 1614.89 3130.21 1709.86 3139.82 Z  M 2382.69 3079.2 C 2382.33 3079.2 2381.96 3079.24 2381.59 3079.32 C 2378.98 3079.93 2377.35 3082.52 2377.95 3085.13 C 2378.87 3089.15 2379.93 3093.19 2381.09 3097.14 C 2381.71 3099.26 2383.64 3100.62 2385.74 3100.62 C 2386.19 3100.62 2386.65 3100.56 2387.1 3100.43 C 2389.67 3099.67 2391.15 3096.98 2390.39 3094.41 C 2389.29 3090.64 2388.28 3086.79 2387.4 3082.97 C 2386.89 3080.72 2384.9 3079.2 2382.69 3079.2 Z  M 2993.3 2542.13 C 2989.38 2542.13 2986 2545.09 2985.53 2549.07 C 2985.03 2553.38 2988.12 2557.28 2992.43 2557.78 C 3000.83 2558.76 3009.28 2560.11 3017.55 2561.79 C 3018.08 2561.9 3018.6 2561.95 3019.12 2561.95 C 3022.78 2561.95 3026.05 2559.38 3026.81 2555.66 C 3027.67 2551.41 3024.93 2547.26 3020.68 2546.4 C 3011.98 2544.63 3003.08 2543.21 2994.24 2542.18 C 2993.92 2542.14 2993.61 2542.13 2993.3 2542.13 Z  M 2950.98 2540.12 L 2950.81 2540.12 C 2941.92 2540.31 2932.93 2540.88 2924.1 2541.82 C 2919.79 2542.28 2916.67 2546.15 2917.13 2550.46 C 2917.56 2554.49 2920.96 2557.48 2924.92 2557.48 C 2925.2 2557.48 2925.48 2557.47 2925.77 2557.44 C 2934.15 2556.54 2942.69 2556 2951.14 2555.82 C 2955.48 2555.73 2958.92 2552.14 2958.83 2547.8 C 2958.74 2543.53 2955.24 2540.12 2950.98 2540.12 Z  M 789.34 1087.27 C 781.302 1047.59 770.768 1010.27 758.418 975.311 C 797.797 924.815 840.532 877.156 886.376 832.575 C 867.771 893.496 837.745 977.342 789.34 1087.27 Z " fill-rule="evenodd" fill="url(#_lgradient_696)"/><path d=" M 471.898 615.598 C 469.026 603.374 486.221 595.249 496.751 603.788 C 603.671 690.489 860.566 950.12 796.543 1403.84 C 716.216 1973.11 853.545 2180.83 1024.49 2307.53 C 1024.49 2307.53 789.727 2247.95 642.028 2037.17 C 279.395 1519.67 522.954 832.936 471.898 615.598 Z " fill="rgb(145,179,250)"/><path d=" M 934.287 2264.09 C 931.224 2264.09 928.138 2263.25 925.52 2261.52 C 865.493 2221.74 811.003 2174.74 765.823 2121.76 C 743.314 2095.23 723.117 2067.27 705.173 2038.33 C 696.287 2023.83 687.701 2009.19 679.884 1994.25 C 671.751 1979.45 664.593 1964.13 657.786 1948.77 C 630.553 1887.12 616.83 1821.35 612.194 1756.16 C 607.479 1690.83 610.445 1625.96 612.969 1561.56 C 615.911 1497.13 618.582 1432.95 618.056 1368.72 C 617.866 1304.49 614.512 1240.28 609.763 1176.15 C 604.73 1112.02 597.374 1047.99 587.775 984.195 C 578.563 920.342 566.641 856.774 553.265 793.401 C 552.901 791.656 554.185 789.946 556.208 789.547 C 556.499 789.489 556.79 789.462 557.076 789.462 C 558.839 789.462 560.431 790.511 560.842 792.058 C 577.509 854.987 591.368 918.485 603.27 982.276 C 614.818 1046.11 624.031 1110.3 630.971 1174.69 C 632.672 1190.79 634.221 1206.9 635.667 1223.03 C 636.933 1239.16 638.233 1255.3 639.172 1271.45 C 641.264 1303.75 642.686 1336.09 643.435 1368.44 C 643.924 1387.02 644.157 1405.61 644.197 1424.19 C 573.63 1680.62 648.133 1890.57 684.422 1970.68 C 689.079 1980.96 699.028 1986.57 709.095 1986.57 C 709.602 1986.57 710.11 1986.55 710.617 1986.52 C 732.983 2028.4 759.823 2068.62 791.23 2105.75 C 812.653 2131.34 836.267 2155.55 861.756 2178.23 C 868.017 2184 874.74 2189.38 881.208 2194.98 C 887.921 2200.37 894.517 2205.86 901.397 2211.1 C 914.956 2221.77 929.089 2231.93 943.371 2241.96 L 943.414 2241.99 C 949.436 2246.23 950.499 2253.87 945.738 2259.22 C 942.898 2262.42 938.617 2264.09 934.287 2264.09 Z " fill="rgb(192,214,252)"/><path d=" M 728.472 1978.18 C 715.362 1992.09 692.308 1988.09 684.422 1970.68 C 640.906 1874.61 542.436 1591.87 705.063 1266.13 C 842.396 991.058 890.724 828.853 907.56 753.697 C 911.121 737.805 932.899 735.695 939.473 750.596 C 1012 914.99 1203.51 1474.17 728.472 1978.18 Z " fill="rgb(189,208,251)"/><path d=" M 703.352 1968.16 C 703.309 1968.16 703.265 1968.16 703.222 1968.16 C 699.101 1968.1 695.811 1964.7 695.874 1960.58 C 695.946 1955.91 705.037 1488.96 878.712 1097.86 C 879.948 1095.08 882.677 1093.43 885.539 1093.43 C 886.55 1093.43 887.578 1093.64 888.562 1094.07 C 892.329 1095.75 894.026 1100.15 892.354 1103.92 C 719.943 1492.17 710.869 1956.17 710.797 1960.81 C 710.742 1964.44 708.104 1967.43 704.659 1968.04 C 704.234 1968.12 703.798 1968.16 703.352 1968.16 Z " fill="rgb(220,230,253)"/><clipPath id="_clipPath_pqlSYxlWrCgIOK58C9Sy4uJvQnkQCAM0"><path d=" M 3251.85 1747.55 C 3251.85 2520.44 2625.3 3146.99 1852.42 3146.99 C 1079.53 3146.99 452.979 2520.44 452.979 1747.55 C 452.979 974.663 1072.51 424.549 1845.4 424.549 C 2618.29 424.549 3251.85 974.663 3251.85 1747.55 Z " fill="rgb(255,255,255)"/></clipPath><g clip-path="url(#_clipPath_pqlSYxlWrCgIOK58C9Sy4uJvQnkQCAM0)"><linearGradient id="_lgradient_697" x1="0" y1="0" x2="1" y2="0" gradientTransform="matrix(795.449,-504.804,504.804,795.449,2454,1284.68)" gradientUnits="userSpaceOnUse"><stop offset="0%" stop-opacity="1" style="stop-color:rgb(79,82,255)"/><stop offset="100%" stop-opacity="1" style="stop-color:rgb(64,66,226)"/></linearGradient><path d=" M 2257.34 1106.6 L 2204.39 1102.87 L 2138.34 1296.23 L 2224.93 1730.24 L 2307.09 1718.12 L 2257.34 1106.6 Z " fill="url(#_lgradient_697)"/><path d=" M 2573.26 1699.69 L 2468.65 1303.12 L 2406.2 1088.42 L 2257.34 1106.6 L 2188.85 1306.27 L 2282.89 1718.07 L 2573.51 1718.07 L 2573.26 1699.69 Z " fill="rgb(125,151,244)"/><linearGradient id="_lgradient_698" x1="0" y1="0" x2="1" y2="0" gradientTransform="matrix(36.262,-383.013,383.013,36.262,2314.46,998.84)" gradientUnits="userSpaceOnUse"><stop offset="0%" stop-opacity="1" style="stop-color:rgb(79,82,255)"/><stop offset="100%" stop-opacity="1" style="stop-color:rgb(64,66,226)"/></linearGradient><path d=" M 2204.39 1102.87 L 2337.67 1083.57 L 2406.2 1088.42 L 2257.34 1106.6 L 2204.39 1102.87 Z " fill="url(#_lgradient_698)"/><path d=" M 2234.34 1296.42 L 2307.23 1273.53 L 2307.23 1182.47 L 2270.79 1185.71 L 2234.34 1296.42 Z " fill="rgb(145,179,250)"/><path d=" M 2367.39 1171.03 L 2400.71 1162.61 L 2430.99 1263.12 L 2381.79 1263.12 L 2367.39 1171.03 Z " fill="rgb(145,179,250)"/><linearGradient id="_lgradient_699" x1="0" y1="0" x2="1" y2="0" gradientTransform="matrix(319.454,-157.598,157.598,319.454,2727.54,1825.88)" gradientUnits="userSpaceOnUse"><stop offset="0%" stop-opacity="1" style="stop-color:rgb(9,0,93)"/><stop offset="100%" stop-opacity="1" style="stop-color:rgb(26,15,145)"/></linearGradient><path d=" M 3169.67 1697.35 L 2741.36 1697.35 C 2732.05 1697.35 2727.81 1708.69 2727.81 1718 L 2727.81 1722.17 L 3186.96 1722.17 L 3186.96 1718 C 3186.96 1708.69 3178.98 1697.35 3169.67 1697.35 Z " fill="url(#_lgradient_699)"/><linearGradient id="_lgradient_700" x1="0" y1="0" x2="1" y2="0" gradientTransform="matrix(110.968,0,0,110.968,2572.97,1696.46)" gradientUnits="userSpaceOnUse"><stop offset="0%" stop-opacity="1" style="stop-color:rgb(9,0,93)"/><stop offset="100%" stop-opacity="1" style="stop-color:rgb(26,15,145)"/></linearGradient><path d=" M 2573.27 1722.17 L 2683.94 1722.17 C 2683.94 1722.17 2658.81 1668.17 2612.83 1670.85 C 2566.86 1673.52 2573.27 1722.17 2573.27 1722.17 Z " fill="url(#_lgradient_700)"/><linearGradient id="_lgradient_701" x1="0" y1="0" x2="1" y2="0" gradientTransform="matrix(1233.16,-20.553,20.553,1233.16,2461.81,1629.43)" gradientUnits="userSpaceOnUse"><stop offset="0%" stop-opacity="1" style="stop-color:rgb(254,187,186)"/><stop offset="100%" stop-opacity="1" style="stop-color:rgb(255,146,142)"/></linearGradient><path d=" M 2617.84 1556.3 C 2617.84 1556.3 2649.95 1719.76 2661.57 1719.76 C 2673.18 1719.76 2888.39 1694.01 2888.39 1694.01 L 2888.39 1647.41 L 2718.17 1653.66 L 2677.05 1532.19 L 2617.84 1556.3 Z " fill="url(#_lgradient_701)"/><linearGradient id="_lgradient_702" x1="0" y1="0" x2="1" y2="0" gradientTransform="matrix(-72.523,183.574,-183.574,-72.523,2582.32,1285.86)" gradientUnits="userSpaceOnUse"><stop offset="0%" stop-opacity="1" style="stop-color:rgb(255,146,142)"/><stop offset="100%" stop-opacity="1" style="stop-color:rgb(254,112,98)"/></linearGradient><path d=" M 2577.43 1733.59 L 2290.71 1733.59 L 2308.13 1529.73 C 2308.13 1529.73 2286.69 1376.06 2384.5 1359.06 C 2442.11 1343.39 2442.11 1343.33 2442.11 1343.33 C 2442.11 1343.33 2515.8 1331.77 2577.43 1358.97 C 2639.06 1386.18 2689.97 1549.62 2689.97 1549.62 L 2616.28 1579.09 L 2597.52 1519.01 L 2577.43 1733.59 Z " fill="url(#_lgradient_702)"/><linearGradient id="_lgradient_703" x1="0" y1="0" x2="1" y2="0" gradientTransform="matrix(-152.488,376.799,-376.799,-152.488,2529.23,1225.33)" gradientUnits="userSpaceOnUse"><stop offset="0%" stop-opacity="1" style="stop-color:rgb(254,187,186)"/><stop offset="100%" stop-opacity="1" style="stop-color:rgb(255,146,142)"/></linearGradient><path d=" M 2456.01 1244.95 L 2426.83 1357.03 C 2426.83 1357.03 2487.82 1386.47 2539.61 1360.99 L 2523.26 1252.33 L 2456.01 1244.95 Z " fill="url(#_lgradient_703)"/><linearGradient id="_lgradient_704" x1="0" y1="0" x2="1" y2="0" gradientTransform="matrix(-223.413,69.064,-69.064,-223.413,2577.01,1218.46)" gradientUnits="userSpaceOnUse"><stop offset="0%" stop-opacity="1" style="stop-color:rgb(254,187,186)"/><stop offset="100%" stop-opacity="1" style="stop-color:rgb(255,146,142)"/></linearGradient><path d=" M 2593.35 1154.48 C 2593.35 1154.48 2598 1235.73 2586.5 1273.24 C 2574.99 1310.74 2574.12 1337.51 2528.9 1329.24 C 2483.67 1320.97 2455.68 1286.6 2449.79 1242.84 C 2449.79 1242.84 2440.21 1175.23 2455.55 1154.64 C 2470.88 1134.05 2593.35 1154.48 2593.35 1154.48 Z " fill="url(#_lgradient_704)"/><linearGradient id="_lgradient_705" x1="0" y1="0" x2="1" y2="0" gradientTransform="matrix(85.226,268.782,-268.782,85.226,2493.28,1067.66)" gradientUnits="userSpaceOnUse"><stop offset="0%" stop-opacity="1" style="stop-color:rgb(9,0,93)"/><stop offset="100%" stop-opacity="1" style="stop-color:rgb(26,15,145)"/></linearGradient><path d=" M 2474.02 1221.87 L 2476.83 1221.7 C 2480.41 1221.48 2483.08 1218.3 2482.64 1214.74 C 2480.91 1200.95 2479.02 1170.11 2496.39 1169.49 C 2518.78 1168.69 2601.61 1181.39 2628.31 1160.18 C 2653.97 1139.8 2652.33 1100.67 2634.61 1083.18 C 2633.43 1082.01 2631.56 1081.91 2630.32 1083.02 L 2627.31 1085.72 C 2625.25 1087.57 2621.99 1085.97 2622.18 1083.21 C 2622.37 1080.56 2619.36 1078.92 2617.26 1080.54 C 2609.13 1086.84 2590.45 1095.01 2551.06 1088.21 C 2495.07 1078.55 2452.58 1086.99 2438.36 1122.89 C 2437.46 1125.17 2434.54 1125.55 2433.01 1123.63 C 2430.01 1119.84 2424.23 1116.45 2413.38 1120.36 C 2394.52 1127.15 2388.83 1160.73 2410.87 1198.2 C 2411.91 1199.98 2411.04 1202.31 2409.02 1202.77 C 2401.93 1204.39 2390.13 1210.1 2407.87 1230.07 C 2426.23 1250.72 2443.67 1256.01 2450.64 1257.35 C 2452.37 1257.68 2454.01 1256.49 2454.25 1254.74 L 2458.98 1220.31 C 2459.25 1218.36 2461.25 1217.16 2463.09 1217.84 L 2474.02 1221.87 Z " fill="url(#_lgradient_705)"/><linearGradient id="_lgradient_706" x1="0" y1="0" x2="1" y2="0" gradientTransform="matrix(79.048,-53.592,53.592,79.048,2446.92,1293.56)" gradientUnits="userSpaceOnUse"><stop offset="0%" stop-opacity="1" style="stop-color:rgb(79,82,255)"/><stop offset="100%" stop-opacity="1" style="stop-color:rgb(64,66,226)"/></linearGradient><path d=" M 2533.92 1291.69 C 2481.43 1286.71 2460.51 1227.97 2460.3 1227.37 L 2464.1 1226.06 C 2464.3 1226.63 2484.41 1282.96 2534.3 1287.69 L 2533.92 1291.69 Z " fill="url(#_lgradient_706)"/><linearGradient id="_lgradient_707" x1="0" y1="0" x2="1" y2="0" gradientTransform="matrix(20.103,0,0,20.103,2520.7,1288.87)" gradientUnits="userSpaceOnUse"><stop offset="0%" stop-opacity="1" style="stop-color:rgb(79,82,255)"/><stop offset="100%" stop-opacity="1" style="stop-color:rgb(64,66,226)"/></linearGradient><path d=" M 2539 1293.87 L 2521.93 1292.78 C 2521.21 1292.74 2520.65 1292.11 2520.7 1291.39 L 2521.1 1285.1 C 2521.15 1284.38 2521.77 1283.83 2522.49 1283.88 L 2539.57 1284.97 C 2540.29 1285.01 2540.84 1285.64 2540.8 1286.36 L 2540.4 1292.64 C 2540.35 1293.37 2539.72 1293.92 2539 1293.87 Z " fill="url(#_lgradient_707)"/><linearGradient id="_lgradient_708" x1="0" y1="0" x2="1" y2="0" gradientTransform="matrix(-559.439,92.429,-92.429,-559.439,2698.95,1095.2)" gradientUnits="userSpaceOnUse"><stop offset="0%" stop-opacity="1" style="stop-color:rgb(79,82,255)"/><stop offset="100%" stop-opacity="1" style="stop-color:rgb(64,66,226)"/></linearGradient><path d=" M 2473.25 1168.92 C 2473.25 1168.92 2506.17 1089.36 2559.22 1089.71 C 2559.22 1089.71 2545.87 1080.67 2529.27 1085.59 C 2512.67 1090.51 2466.67 1124.51 2459.97 1168.92 C 2469.8 1174.02 2473.25 1168.92 2473.25 1168.92 Z " fill="url(#_lgradient_708)"/><linearGradient id="_lgradient_709" x1="0" y1="0" x2="1" y2="0" gradientTransform="matrix(-62.891,113.884,-113.884,-62.891,2616.45,923.06)" gradientUnits="userSpaceOnUse"><stop offset="0%" stop-opacity="1" style="stop-color:rgb(79,82,255)"/><stop offset="100%" stop-opacity="1" style="stop-color:rgb(64,66,226)"/></linearGradient><path d=" M 2465.33 1162.41 C 2435.86 1163.3 2433.18 1199.92 2433.18 1199.92 C 2426.64 1225.71 2432.04 1239.98 2440.76 1247.83 C 2446.72 1253.19 2455.06 1255.03 2462.72 1252.68 C 2470.38 1250.33 2476.25 1244.14 2478.19 1236.36 C 2479.93 1229.33 2481.7 1222.67 2482.64 1220.36 C 2484.91 1214.76 2494.81 1161.51 2465.33 1162.41 Z " fill="url(#_lgradient_709)"/><linearGradient id="_lgradient_710" x1="0" y1="0" x2="1" y2="0" gradientTransform="matrix(181.875,-305.957,305.957,181.875,2459.88,1201.51)" gradientUnits="userSpaceOnUse"><stop offset="0%" stop-opacity="1" style="stop-color:rgb(79,82,255)"/><stop offset="100%" stop-opacity="1" style="stop-color:rgb(64,66,226)"/></linearGradient><path d=" M 2466.38 1171.96 C 2460.65 1169.92 2454.28 1172.06 2450.95 1177.17 C 2427.16 1213.68 2443.66 1242.92 2453.83 1245.21 C 2464.55 1247.63 2473.26 1195.57 2473.25 1181.83 C 2473.25 1176.08 2470.07 1173.28 2466.38 1171.96 Z " fill="url(#_lgradient_710)"/><linearGradient id="_lgradient_711" x1="0" y1="0" x2="1" y2="0" gradientTransform="matrix(-369.654,678.544,-678.544,-369.654,2559.56,1142.53)" gradientUnits="userSpaceOnUse"><stop offset="0%" stop-opacity="1" style="stop-color:rgb(225,71,61)"/><stop offset="100%" stop-opacity="1" style="stop-color:rgb(233,96,90)"/></linearGradient><path d=" M 2346.09 1588.91 C 2345.66 1588.91 2345.24 1588.7 2344.98 1588.32 L 2312.83 1540.98 C 2312.41 1540.37 2312.57 1539.54 2313.18 1539.12 C 2313.79 1538.7 2314.63 1538.86 2315.04 1539.48 L 2347.2 1586.81 C 2347.61 1587.43 2347.45 1588.26 2346.84 1588.67 C 2346.61 1588.83 2346.35 1588.91 2346.09 1588.91 Z " fill="url(#_lgradient_711)"/><linearGradient id="_lgradient_712" x1="0" y1="0" x2="1" y2="0" gradientTransform="matrix(-369.654,678.544,-678.544,-369.654,2594.75,1161.7)" gradientUnits="userSpaceOnUse"><stop offset="0%" stop-opacity="1" style="stop-color:rgb(225,71,61)"/><stop offset="100%" stop-opacity="1" style="stop-color:rgb(233,96,90)"/></linearGradient><path d=" M 2416.51 1564.9 C 2416.11 1564.9 2415.7 1564.71 2415.44 1564.36 C 2415 1563.77 2415.12 1562.93 2415.71 1562.48 L 2427.56 1553.59 L 2389.49 1448.24 C 2389.24 1447.54 2389.6 1446.77 2390.29 1446.52 C 2390.99 1446.27 2391.76 1446.63 2392.01 1447.33 L 2430.42 1553.62 C 2430.62 1554.17 2430.43 1554.79 2429.96 1555.14 L 2417.32 1564.63 C 2417.08 1564.81 2416.79 1564.9 2416.51 1564.9 Z " fill="url(#_lgradient_712)"/><linearGradient id="_lgradient_713" x1="0" y1="0" x2="1" y2="0" gradientTransform="matrix(1497.49,-24.958,24.958,1497.49,2162.15,1647.6)" gradientUnits="userSpaceOnUse"><stop offset="0%" stop-opacity="1" style="stop-color:rgb(254,187,186)"/><stop offset="100%" stop-opacity="1" style="stop-color:rgb(255,146,142)"/></linearGradient><path d=" M 2352.21 1593.15 L 2416.51 1563.56 L 2473.37 1663.49 C 2473.37 1663.49 2634.14 1638.48 2662.73 1668.85 C 2691.31 1699.22 2677.91 1698.77 2674.34 1698.77 C 2670.77 1698.77 2654.24 1680.91 2654.24 1680.91 C 2654.24 1680.91 2668.73 1702.7 2660.94 1703.68 C 2653.15 1704.66 2634.14 1684.03 2634.14 1684.03 C 2634.14 1684.03 2649.78 1711.27 2640.4 1708.15 C 2631.02 1705.02 2623.43 1690.28 2623.43 1690.28 C 2623.43 1690.28 2635.93 1707.75 2627.45 1708.4 C 2618.96 1709.04 2606.01 1694.01 2606.01 1694.01 C 2606.01 1694.01 2586.14 1703.01 2574.75 1703.01 C 2563.36 1703.01 2448.58 1731.67 2427.82 1719.76 C 2407.05 1707.85 2352.21 1593.15 2352.21 1593.15 Z " fill="url(#_lgradient_713)"/><linearGradient id="_lgradient_714" x1="0" y1="0" x2="1" y2="0" gradientTransform="matrix(-433.418,402.824,-402.824,-433.418,3223.85,1212.12)" gradientUnits="userSpaceOnUse"><stop offset="0%" stop-opacity="1" style="stop-color:rgb(9,0,93)"/><stop offset="100%" stop-opacity="1" style="stop-color:rgb(26,15,145)"/></linearGradient><path d=" M 3133.92 1334.39 L 3088.04 1648.7 C 3086.54 1658.97 3076.9 1667.29 3066.47 1667.29 L 2722.98 1667.28 C 2712.01 1667.28 2704.71 1658.76 2706.67 1648.2 L 2766.85 1325.45 C 2768.68 1315.63 2778.68 1307.88 2789.18 1308.15 L 3118.37 1316.6 C 3128.37 1316.85 3135.32 1324.82 3133.92 1334.39 Z " fill="url(#_lgradient_714)"/><linearGradient id="_lgradient_715" x1="0" y1="0" x2="1" y2="0" gradientTransform="matrix(-6.499,-428.894,428.894,-6.499,2756.45,1780.43)" gradientUnits="userSpaceOnUse"><stop offset="0%" stop-opacity="1" style="stop-color:rgb(9,0,93)"/><stop offset="100%" stop-opacity="1" style="stop-color:rgb(26,15,145)"/></linearGradient><path d=" M 2797.46 1314.06 L 2734.05 1659.96 C 2733.26 1664.27 2728.18 1667.79 2723.72 1667.79 C 2712.75 1667.79 2704.63 1659.15 2706.61 1648.54 L 2766.83 1325.54 C 2768.68 1315.67 2778.68 1307.88 2789.18 1308.15 L 2794.96 1308.3 C 2796.8 1309.63 2797.88 1311.75 2797.46 1314.06 Z " fill="url(#_lgradient_715)"/><path d=" M 3077.97 1540.06 C 3076.7 1540.01 3075.85 1538.9 3076.09 1537.57 L 3108.9 1351.35 C 3110.39 1342.9 3103.71 1337.47 3096.38 1337.09 L 3061.49 1335.31 C 3060.24 1335.25 3059.41 1334.17 3059.64 1332.89 C 3059.87 1331.62 3061.07 1330.64 3062.33 1330.7 L 3097.2 1332.49 C 3108.08 1333.05 3115.2 1341.43 3113.42 1351.57 L 3080.71 1537.74 C 3080.47 1539.07 3079.25 1540.1 3077.97 1540.06 Z " fill="rgb(145,179,250)"/><path d=" M 2823.11 1639.68 L 2774.78 1639.58 C 2764.87 1639.56 2758.99 1630.72 2761.1 1619.04 L 2774.12 1547.22 C 2774.37 1545.86 2775.65 1544.76 2776.99 1544.77 C 2778.32 1544.78 2779.2 1545.9 2778.96 1547.26 L 2765.98 1619.06 C 2764.39 1627.87 2768.56 1634.53 2775.68 1634.55 L 2823.98 1634.66 C 2825.32 1634.67 2826.21 1635.79 2825.97 1637.18 C 2825.73 1638.56 2824.45 1639.68 2823.11 1639.68 Z " fill="rgb(145,179,250)"/><linearGradient id="_lgradient_716" x1="0" y1="0" x2="1" y2="0" gradientTransform="matrix(-313.832,3.531,-3.531,-313.832,3018.8,1708.63)" gradientUnits="userSpaceOnUse"><stop offset="0%" stop-opacity="1" style="stop-color:rgb(9,0,93)"/><stop offset="100%" stop-opacity="1" style="stop-color:rgb(26,15,145)"/></linearGradient><path d=" M 3036.94 1717.24 L 3036.94 1721.38 L 2953.81 1723.47 L 2832.96 1723.47 C 2830.05 1723.47 2827.68 1720.79 2827.68 1717.87 C 2827.68 1706.53 2835.67 1696.46 2847.03 1696.46 L 3017.63 1696.46 C 3019.09 1696.46 3020.82 1696.47 3022.12 1696.75 C 3031.08 1698.82 3036.94 1707.36 3036.94 1717.24 Z " fill="url(#_lgradient_716)"/><linearGradient id="_lgradient_717" x1="0" y1="0" x2="1" y2="0" gradientTransform="matrix(142.837,-190.449,190.449,142.837,2941.74,1732.04)" gradientUnits="userSpaceOnUse"><stop offset="0%" stop-opacity="1" style="stop-color:rgb(9,0,93)"/><stop offset="100%" stop-opacity="1" style="stop-color:rgb(26,15,145)"/></linearGradient><path d=" M 3059.63 1716.92 C 3059.6 1705.58 3050.37 1696.47 3039.01 1696.52 L 3021.77 1696.59 L 2953.71 1696.91 L 2868.42 1697.41 C 2857.08 1697.46 2847.92 1707.6 2847.94 1718.94 C 2847.96 1721.18 2849.78 1723.47 2852.02 1723.47 L 3055.56 1723.47 C 3056.64 1723.47 3057.68 1722.56 3058.45 1721.79 C 3059.21 1721.02 3059.64 1719.74 3059.63 1718.66 L 3059.63 1716.92 Z " fill="url(#_lgradient_717)"/><linearGradient id="_lgradient_718" x1="0" y1="0" x2="1" y2="0" gradientTransform="matrix(376.214,-176.775,176.775,376.214,2953.76,1576.2)" gradientUnits="userSpaceOnUse"><stop offset="0%" stop-opacity="1" style="stop-color:rgb(9,0,93)"/><stop offset="100%" stop-opacity="1" style="stop-color:rgb(26,15,145)"/></linearGradient><path d=" M 2896.91 1466.89 C 2889.13 1466.89 2885.02 1474.7 2885.02 1482.48 L 2885.02 1696.46 L 2989.67 1696.46 L 2989.67 1466.89 L 2896.91 1466.89 Z " fill="url(#_lgradient_718)"/><linearGradient id="_lgradient_719" x1="0" y1="0" x2="1" y2="0" gradientTransform="matrix(-262.897,317.289,-317.289,-262.897,3270.4,1203.26)" gradientUnits="userSpaceOnUse"><stop offset="0%" stop-opacity="1" style="stop-color:rgb(9,0,93)"/><stop offset="100%" stop-opacity="1" style="stop-color:rgb(26,15,145)"/></linearGradient><path d=" M 2993.4 1466.89 L 2913.69 1466.89 C 2905.91 1466.89 2898.52 1474.7 2898.52 1482.48 L 2898.52 1696.46 L 3006.55 1696.46 L 3006.55 1482.48 C 3006.55 1474.7 3001.18 1466.89 2993.4 1466.89 Z " fill="url(#_lgradient_719)"/><linearGradient id="_lgradient_720" x1="0" y1="0" x2="1" y2="0" gradientTransform="matrix(-311.041,515.002,-515.002,-311.041,2942.13,1435.5)" gradientUnits="userSpaceOnUse"><stop offset="0%" stop-opacity="1" style="stop-color:rgb(79,82,255)"/><stop offset="100%" stop-opacity="1" style="stop-color:rgb(64,66,226)"/></linearGradient><path d=" M 2902.22 1750.47 L 2714.81 1750.47 L 2489.54 1750.47 L 2367.66 1750.47 L 1954.98 1750.47 C 1969.18 1939.53 1983.38 2121.86 1997.57 2307.65 C 1998.4 2318.49 2002.75 2327.77 2006.69 2327.77 L 2419.37 2327.77 L 2438.15 2327.77 L 2766.52 2327.77 L 2850.82 2327.77 L 3197.97 2327.77 C 3201.92 2327.77 3205.95 2318.49 3206.79 2307.65 C 3220.98 2121.86 3235.18 1939.53 3249.37 1750.47 L 2902.22 1750.47 Z " fill="url(#_lgradient_720)"/><linearGradient id="_lgradient_721" x1="0" y1="0" x2="1" y2="0" gradientTransform="matrix(516.333,-502.746,502.746,516.333,1700.46,2371)" gradientUnits="userSpaceOnUse"><stop offset="0%" stop-opacity="1" style="stop-color:rgb(83,216,255)"/><stop offset="100%" stop-opacity="1" style="stop-color:rgb(56,64,247)"/></linearGradient><path d=" M 2144.64 1750.47 C 2138.97 1939.53 2133.31 2135.34 2127.64 2327.77 L 2006.69 2327.77 C 2002.75 2327.77 1998.4 2318.49 1997.57 2307.65 C 1983.38 2121.86 1969.18 1939.53 1954.98 1750.47 L 2144.64 1750.47 Z " fill="url(#_lgradient_721)"/><linearGradient id="_lgradient_722" x1="0" y1="0" x2="1" y2="0" gradientTransform="matrix(151.846,-471.401,471.401,151.846,2618.25,1691.1)" gradientUnits="userSpaceOnUse"><stop offset="0%" stop-opacity="1" style="stop-color:rgb(79,82,255)"/><stop offset="100%" stop-opacity="1" style="stop-color:rgb(64,66,226)"/></linearGradient><path d=" M 3249.81 1716.71 L 2899.87 1716.71 L 2719.13 1716.71 L 2520.9 1716.71 L 2489.98 1716.71 L 2400.28 1716.71 L 2400.28 1712.62 C 2400.28 1704.84 2397.17 1699.83 2393.96 1699.83 L 2246.2 1699.83 C 2242.99 1699.83 2241.34 1704.84 2241.34 1712.62 L 2241.34 1716.71 L 1959.31 1716.71 C 1955.1 1716.71 1951.69 1724.19 1951.69 1733.59 C 1951.69 1742.99 1955.1 1750.47 1959.31 1750.47 L 2357.77 1750.47 L 2369.2 1750.47 L 2489.98 1750.47 L 2520.9 1750.47 L 2719.13 1750.47 L 2899.87 1750.47 L 3249.81 1750.47 C 3254.02 1750.47 3257.43 1742.99 3257.43 1733.59 C 3257.43 1724.19 3254.02 1716.71 3249.81 1716.71 Z " fill="url(#_lgradient_722)"/><linearGradient id="_lgradient_723" x1="0" y1="0" x2="1" y2="0" gradientTransform="matrix(-274.827,3.093,-3.093,-274.827,2112.72,1732.78)" gradientUnits="userSpaceOnUse"><stop offset="0%" stop-opacity="1" style="stop-color:rgb(79,82,255)"/><stop offset="100%" stop-opacity="1" style="stop-color:rgb(64,66,226)"/></linearGradient><path d=" M 2120.65 1733.59 C 2120.65 1724.27 2124.09 1716.71 2128.34 1716.71 L 1952.97 1716.71 C 1948.73 1716.71 1945.28 1724.27 1945.28 1733.59 C 1945.28 1742.92 1948.73 1750.47 1952.97 1750.47 L 2128.34 1750.47 C 2124.09 1750.47 2120.65 1742.92 2120.65 1733.59 Z " fill="url(#_lgradient_723)"/><linearGradient id="_lgradient_724" x1="0" y1="0" x2="1" y2="0" gradientTransform="matrix(-1141.21,-1009.44,1009.44,-1141.21,1328.16,2141.43)" gradientUnits="userSpaceOnUse"><stop offset="0%" stop-opacity="1" style="stop-color:rgb(79,82,255)"/><stop offset="100%" stop-opacity="1" style="stop-color:rgb(64,66,226)"/></linearGradient><path d=" M 666.447 1236.96 L 614.634 1233.3 L 550.001 1422.51 L 634.733 1847.22 L 715.131 1835.36 L 666.447 1236.96 Z " fill="url(#_lgradient_724)"/><path d=" M 975.587 1817.32 L 873.223 1429.26 L 812.115 1219.17 L 666.447 1236.96 L 599.423 1432.34 L 691.45 1835.3 L 975.835 1835.3 L 975.587 1817.32 Z " fill="rgb(125,151,244)"/><linearGradient id="_lgradient_725" x1="0" y1="0" x2="1" y2="0" gradientTransform="matrix(-333.472,-294.969,294.969,-333.472,910.149,1400.29)" gradientUnits="userSpaceOnUse"><stop offset="0%" stop-opacity="1" style="stop-color:rgb(79,82,255)"/><stop offset="100%" stop-opacity="1" style="stop-color:rgb(64,66,226)"/></linearGradient><path d=" M 614.634 1233.3 L 745.051 1214.42 L 812.115 1219.17 L 666.447 1236.96 L 614.634 1233.3 Z " fill="url(#_lgradient_725)"/><path d=" M 643.946 1422.71 L 715.272 1400.3 L 715.272 1311.2 L 679.609 1314.37 L 643.946 1422.71 Z " fill="rgb(145,179,250)"/><path d=" M 774.137 1300 L 806.744 1291.76 L 836.372 1390.11 L 788.23 1390.11 L 774.137 1300 Z " fill="rgb(145,179,250)"/><linearGradient id="_lgradient_726" x1="0" y1="0" x2="1" y2="0" gradientTransform="matrix(351.128,-173.224,173.224,351.128,1093.69,1950.56)" gradientUnits="userSpaceOnUse"><stop offset="0%" stop-opacity="1" style="stop-color:rgb(9,0,93)"/><stop offset="100%" stop-opacity="1" style="stop-color:rgb(26,15,145)"/></linearGradient><path d=" M 1579.65 1809.28 L 1108.88 1809.28 C 1098.64 1809.28 1093.98 1821.75 1093.98 1831.99 L 1093.98 1836.56 L 1598.66 1836.56 L 1598.66 1831.99 C 1598.66 1821.75 1589.89 1809.28 1579.65 1809.28 Z " fill="url(#_lgradient_726)"/><linearGradient id="_lgradient_727" x1="0" y1="0" x2="1" y2="0" gradientTransform="matrix(121.97,0,0,121.97,967.286,1809.28)" gradientUnits="userSpaceOnUse"><stop offset="0%" stop-opacity="1" style="stop-color:rgb(9,0,93)"/><stop offset="100%" stop-opacity="1" style="stop-color:rgb(26,15,145)"/></linearGradient><path d=" M 967.622 1837.54 L 1089.26 1837.54 C 1089.26 1837.54 1061.64 1778.19 1011.1 1781.13 C 960.571 1784.07 967.622 1837.54 967.622 1837.54 Z " fill="url(#_lgradient_727)"/><linearGradient id="_lgradient_728" x1="0" y1="0" x2="1" y2="0" gradientTransform="matrix(-117.413,-332.445,332.445,-117.413,1091.69,1922.3)" gradientUnits="userSpaceOnUse"><stop offset="0%" stop-opacity="1" style="stop-color:rgb(255,146,142)"/><stop offset="100%" stop-opacity="1" style="stop-color:rgb(254,112,98)"/></linearGradient><path d=" M 1088.99 1714.83 C 1009.46 1701.28 997.158 1549.42 999.732 1544.77 L 927.047 1633.35 C 927.047 1633.35 917.727 1701.82 1008.5 1760.05 C 1031.47 1774.78 1054.26 1780.5 1075.51 1780.87 C 1072.75 1753.7 1079.76 1731.53 1088.99 1714.83 Z " fill="url(#_lgradient_728)"/><linearGradient id="_lgradient_729" x1="0" y1="0" x2="1" y2="0" gradientTransform="matrix(206.751,48.196,-48.196,206.751,1082.57,1723.28)" gradientUnits="userSpaceOnUse"><stop offset="0%" stop-opacity="1" style="stop-color:rgb(254,187,186)"/><stop offset="100%" stop-opacity="1" style="stop-color:rgb(255,146,142)"/></linearGradient><path d=" M 1249.44 1712.48 C 1224.95 1685.33 1187.1 1697.94 1187.1 1697.94 C 1142.06 1714.39 1110.62 1718.52 1088.99 1714.83 C 1079.76 1731.53 1072.75 1753.7 1075.51 1780.87 C 1121.48 1781.67 1160.19 1757.29 1177.59 1744.2 C 1183.85 1739.49 1192.76 1740.5 1197.65 1746.63 C 1202.62 1752.85 1206.99 1760.81 1204.31 1767.48 C 1199.01 1780.65 1213.85 1788.69 1216.2 1784.01 C 1218.55 1779.34 1218.78 1748.43 1218.78 1748.43 C 1218.78 1748.43 1243.04 1787.69 1252.56 1802.83 C 1262.08 1817.96 1280.49 1809.34 1280.49 1809.34 C 1280.49 1809.34 1273.92 1739.62 1249.44 1712.48 Z " fill="url(#_lgradient_729)"/><linearGradient id="_lgradient_730" x1="0" y1="0" x2="1" y2="0" gradientTransform="matrix(-63.13,-397.11,-397.11,63.131,892.305,2392.37)" gradientUnits="userSpaceOnUse"><stop offset="0%" stop-opacity="1" style="stop-color:rgb(83,216,255)"/><stop offset="100%" stop-opacity="1" style="stop-color:rgb(56,64,247)"/></linearGradient><path d=" M 854.899 2406.88 L 884.108 2406.88 L 884.108 2091.01 L 854.899 2091.01 L 854.899 2406.88 Z " fill="url(#_lgradient_730)"/><linearGradient id="_lgradient_731" x1="0" y1="0" x2="1" y2="0" gradientTransform="matrix(-63.131,-397.113,-397.113,63.131,866.989,2396.39)" gradientUnits="userSpaceOnUse"><stop offset="0%" stop-opacity="1" style="stop-color:rgb(83,216,255)"/><stop offset="100%" stop-opacity="1" style="stop-color:rgb(56,64,247)"/></linearGradient><path d=" M 741.591 2412.97 L 997.416 2412.97 C 997.416 2402.47 988.903 2393.96 978.403 2393.96 L 760.604 2393.96 C 750.104 2393.96 741.591 2402.47 741.591 2412.97 Z " fill="url(#_lgradient_731)"/><linearGradient id="_lgradient_732" x1="0" y1="0" x2="1" y2="0" gradientTransform="matrix(-63.13,-397.109,-397.109,63.13,915.766,2388.64)" gradientUnits="userSpaceOnUse"><stop offset="0%" stop-opacity="1" style="stop-color:rgb(83,216,255)"/><stop offset="100%" stop-opacity="1" style="stop-color:rgb(56,64,247)"/></linearGradient><path d=" M 703.624 2080.04 C 703.624 2097.32 717.759 2111.45 735.035 2111.45 L 993.863 2111.45 C 1011.14 2111.45 1025.27 2097.32 1025.27 2080.04 L 1025.27 2051.64 C 1025.27 2034.36 1011.14 2020.23 993.863 2020.23 L 735.035 2020.23 C 717.759 2020.23 703.624 2034.36 703.624 2051.64 L 703.624 2080.04 Z " fill="url(#_lgradient_732)"/><linearGradient id="_lgradient_733" x1="0" y1="0" x2="1" y2="0" gradientTransform="matrix(-207.683,0,0,207.683,1188.26,2139.53)" gradientUnits="userSpaceOnUse"><stop offset="0%" stop-opacity="1" style="stop-color:rgb(254,187,186)"/><stop offset="100%" stop-opacity="1" style="stop-color:rgb(255,146,142)"/></linearGradient><path d=" M 1085.14 1880.39 C 1085.14 1880.39 1128.54 1887.12 1177.34 1919.74 C 1185.02 1924.87 1189.23 1933.82 1188.07 1942.99 C 1182.23 1989.27 1158.2 2139.08 1078.98 2285.4 C 1074.8 2293.12 1073.6 2302.1 1075.44 2310.68 L 1089.21 2374.73 L 1114.73 2398.67 L 1048.99 2398.67 L 1005.21 2280.2 L 1023.93 2274.28 C 1038.44 2269.69 1048.4 2256.35 1048.67 2241.13 L 1050.86 2114.05 C 1048.99 2057.43 1085.58 2018.37 1085.58 2018.37 L 980.578 2013.26 L 1085.14 1880.39 Z " fill="url(#_lgradient_733)"/><linearGradient id="_lgradient_734" x1="0" y1="0" x2="1" y2="0" gradientTransform="matrix(30.547,468.385,468.385,-30.547,1061.19,2274.85)" gradientUnits="userSpaceOnUse"><stop offset="0%" stop-opacity="1" style="stop-color:rgb(203,35,109)"/><stop offset="100%" stop-opacity="1" style="stop-color:rgb(76,36,109)"/></linearGradient><path d=" M 1140.41 2410.22 C 1146.39 2418.06 1075.96 2428.4 1040.38 2411.26 C 1040.38 2411.26 991.053 2325.44 991.053 2281.25 C 991.053 2281.25 994.968 2272.24 1023.93 2274.28 C 1023.93 2274.28 1040.49 2375.9 1057.98 2387.28 C 1075.47 2398.67 1106.91 2388.43 1106.91 2388.43 C 1106.91 2388.43 1131.57 2398.66 1140.41 2410.22 Z " fill="url(#_lgradient_734)"/><linearGradient id="_lgradient_735" x1="0" y1="0" x2="1" y2="0" gradientTransform="matrix(-438.253,0,0,438.253,1432.12,2153.72)" gradientUnits="userSpaceOnUse"><stop offset="0%" stop-opacity="1" style="stop-color:rgb(254,187,186)"/><stop offset="100%" stop-opacity="1" style="stop-color:rgb(255,146,142)"/></linearGradient><path d=" M 993.863 2020.23 C 994.422 2019.26 1106.91 2006.7 1106.91 2006.7 C 1106.91 2006.7 1103.23 2040.91 1114.73 2087.99 C 1126.24 2135.07 1291.4 2339.06 1291.4 2339.06 L 1274.08 2393.96 C 1327.62 2412.61 1380.29 2415.59 1432.12 2403.46 L 1324.79 2339.06 C 1324.79 2339.06 1224.35 1996.78 1162.83 1935.71 L 1050.08 1896.7 L 993.863 2020.23 Z " fill="url(#_lgradient_735)"/><linearGradient id="_lgradient_736" x1="0" y1="0" x2="1" y2="0" gradientTransform="matrix(-490.969,0,0,490.969,1161.7,1925.09)" gradientUnits="userSpaceOnUse"><stop offset="0%" stop-opacity="1" style="stop-color:rgb(255,146,142)"/><stop offset="100%" stop-opacity="1" style="stop-color:rgb(254,112,98)"/></linearGradient><path d=" M 741.591 1821.07 C 741.591 1821.07 676.781 1917.46 671.463 1961.44 C 666.146 2005.41 689.217 2023.27 757.219 2026.22 C 825.22 2029.17 1006.76 2029.12 1006.76 2029.12 L 1161.7 1896.7 C 1161.7 1896.7 1048.79 1856.41 1019.43 1845.02 C 990.072 1833.63 741.591 1821.07 741.591 1821.07 Z " fill="url(#_lgradient_736)"/><linearGradient id="_lgradient_737" x1="0" y1="0" x2="1" y2="0" gradientTransform="matrix(30.547,468.385,468.385,-30.547,1355.96,2255.63)" gradientUnits="userSpaceOnUse"><stop offset="0%" stop-opacity="1" style="stop-color:rgb(203,35,109)"/><stop offset="100%" stop-opacity="1" style="stop-color:rgb(76,36,109)"/></linearGradient><path d=" M 1280.62 2375.47 C 1280.62 2375.47 1261.98 2393.53 1274.57 2413.62 C 1274.57 2413.62 1422.26 2439.8 1462.36 2427.92 C 1462.36 2427.92 1454.04 2408.91 1408.88 2387.28 L 1412.22 2389.84 C 1416.43 2393.08 1413.96 2399.82 1408.65 2399.52 C 1378.9 2397.82 1317.32 2392.37 1280.62 2375.47 Z " fill="url(#_lgradient_737)"/><linearGradient id="_lgradient_738" x1="0" y1="0" x2="1" y2="0" gradientTransform="matrix(72.294,379.802,379.802,-72.294,815.862,1105.06)" gradientUnits="userSpaceOnUse"><stop offset="0%" stop-opacity="1" style="stop-color:rgb(9,0,93)"/><stop offset="100%" stop-opacity="1" style="stop-color:rgb(26,15,145)"/></linearGradient><path d=" M 1022.33 1209.74 C 889.845 1187.21 827.473 1295.27 832.03 1317.97 C 832.635 1320.98 829.797 1323.53 826.83 1322.73 C 811.621 1318.64 778.02 1313.47 757.192 1339.57 C 738.802 1362.62 752.545 1384.36 763.75 1396.3 C 766.456 1399.18 764.181 1403.86 760.259 1403.36 C 732.295 1399.84 671.533 1398.99 661.591 1455.91 C 652.321 1508.99 689.266 1523.96 711.177 1528.18 C 714.885 1528.89 715.752 1533.76 712.564 1535.79 C 701.632 1542.72 688.968 1557.05 694.085 1585.33 C 702.106 1629.66 789.009 1626.03 799.165 1625.45 C 799.809 1625.41 800.417 1625.23 800.977 1624.91 L 940.172 1545.52 C 941.257 1544.9 942.009 1543.83 942.222 1542.6 L 970.323 1380.31 C 970.55 1379 970.139 1377.66 969.215 1376.7 L 1059.96 1248.64 C 1092.9 1243.79 1023.89 1210 1022.33 1209.74 Z " fill="url(#_lgradient_738)"/><linearGradient id="_lgradient_739" x1="0" y1="0" x2="1" y2="0" gradientTransform="matrix(-372.229,331.437,-331.437,-372.229,1132.19,1434.79)" gradientUnits="userSpaceOnUse"><stop offset="0%" stop-opacity="1" style="stop-color:rgb(255,146,142)"/><stop offset="100%" stop-opacity="1" style="stop-color:rgb(254,112,98)"/></linearGradient><path d=" M 916.862 1808.31 C 916.862 1808.31 992.333 1736.44 1029.48 1688.84 C 1049.56 1663.11 1055.87 1629.24 1046.58 1597.95 C 1029.62 1540.81 999.481 1481.63 996.732 1472.42 C 992.519 1458.3 907.896 1458.89 907.896 1458.89 C 907.896 1458.89 741.375 1566.96 675.948 1750.03 L 749.427 1772.9 C 749.427 1772.9 792.905 1699.96 835.865 1653.58 C 835.865 1653.58 761.53 1751.78 758.912 1791.98 L 916.862 1808.31 Z " fill="url(#_lgradient_739)"/><linearGradient id="_lgradient_740" x1="0" y1="0" x2="1" y2="0" gradientTransform="matrix(29.583,-189.825,-189.825,-29.583,935.5,1580.24)" gradientUnits="userSpaceOnUse"><stop offset="0%" stop-opacity="1" style="stop-color:rgb(254,187,186)"/><stop offset="100%" stop-opacity="1" style="stop-color:rgb(255,146,142)"/></linearGradient><path d=" M 1006.97 1393.51 C 1006.08 1396.44 983.995 1469.66 982.268 1471.18 C 980.54 1472.7 933.83 1475.22 911.844 1460.19 L 966.381 1353.51 L 1006.97 1393.51 Z " fill="url(#_lgradient_740)"/><linearGradient id="_lgradient_741" x1="0" y1="0" x2="1" y2="0" gradientTransform="matrix(-221.795,-74.821,-74.821,221.795,1096.34,1379.02)" gradientUnits="userSpaceOnUse"><stop offset="0%" stop-opacity="1" style="stop-color:rgb(254,187,186)"/><stop offset="100%" stop-opacity="1" style="stop-color:rgb(255,146,142)"/></linearGradient><path d=" M 1095.51 1299.42 C 1095.51 1299.42 1106.18 1341.37 1076.65 1397.79 C 1047.12 1454.2 1013.69 1454.14 995.413 1436.09 C 977.138 1418.03 954.602 1387.39 959.955 1332.84 C 965.308 1278.3 1080.09 1246.06 1095.51 1299.42 Z " fill="url(#_lgradient_741)"/><linearGradient id="_lgradient_742" x1="0" y1="0" x2="1" y2="0" gradientTransform="matrix(-258.948,287.083,287.083,258.948,1143.65,1181.04)" gradientUnits="userSpaceOnUse"><stop offset="0%" stop-opacity="1" style="stop-color:rgb(9,0,93)"/><stop offset="100%" stop-opacity="1" style="stop-color:rgb(26,15,145)"/></linearGradient><path d=" M 1000.81 1335.8 C 1000.81 1335.8 1049.8 1260.9 1095.75 1319.85 L 1096.58 1341.29 C 1096.58 1341.29 1150.39 1334.91 1140.98 1285.56 C 1131.56 1236.22 1085.05 1205.38 1025.16 1226.75 C 965.267 1248.12 930.946 1270.04 927.082 1312.96 C 923.217 1355.88 957.364 1346.47 957.364 1346.47 C 957.364 1346.47 968.501 1316.25 984.338 1313.11 C 1000.17 1309.97 996.057 1333.54 996.057 1333.54 L 1000.81 1335.8 Z " fill="url(#_lgradient_742)"/><linearGradient id="_lgradient_743" x1="0" y1="0" x2="1" y2="0" gradientTransform="matrix(-221.793,-74.82,-74.82,221.793,1102.94,1359.44)" gradientUnits="userSpaceOnUse"><stop offset="0%" stop-opacity="1" style="stop-color:rgb(254,187,186)"/><stop offset="100%" stop-opacity="1" style="stop-color:rgb(255,146,142)"/></linearGradient><path d=" M 988.26 1334.8 C 988.26 1334.8 1013.67 1296.44 987.633 1290.72 C 961.593 1285 965.634 1328.1 968.445 1344.04 L 988.26 1334.8 Z " fill="url(#_lgradient_743)"/><linearGradient id="_lgradient_744" x1="0" y1="0" x2="1" y2="0" gradientTransform="matrix(-411.686,0,0,411.686,814.02,1795.77)" gradientUnits="userSpaceOnUse"><stop offset="0%" stop-opacity="1" style="stop-color:rgb(254,187,186)"/><stop offset="100%" stop-opacity="1" style="stop-color:rgb(255,146,142)"/></linearGradient><path d=" M 1070.61 1813.64 L 1015.16 1760.2 L 938.457 1792.6 C 938.457 1792.6 862.103 1804.43 818.402 1792.6 C 774.702 1780.77 774.702 1780.77 774.702 1780.77 L 675.948 1750.03 L 660.438 1793.86 C 656.5 1804.99 660.458 1817.34 670.08 1824.18 C 678.624 1830.25 688.639 1836.93 695.021 1839.72 C 708.027 1845.41 1015.61 1835.78 1015.61 1835.78 L 1070.61 1813.64 Z " fill="url(#_lgradient_744)"/><linearGradient id="_lgradient_745" x1="0" y1="0" x2="1" y2="0" gradientTransform="matrix(79.671,-69.523,69.523,79.671,969.217,1447.14)" gradientUnits="userSpaceOnUse"><stop offset="0%" stop-opacity="1" style="stop-color:rgb(79,82,255)"/><stop offset="100%" stop-opacity="1" style="stop-color:rgb(64,66,226)"/></linearGradient><path d=" M 1064.58 1433.39 C 1006.23 1434.98 975.335 1373.23 975.03 1372.6 L 979.028 1370.65 C 979.321 1371.25 1008.99 1430.45 1064.46 1428.95 L 1064.58 1433.39 Z " fill="url(#_lgradient_745)"/><linearGradient id="_lgradient_746" x1="0" y1="0" x2="1" y2="0" gradientTransform="matrix(21.89,0,0,21.89,1050.94,1431.46)" gradientUnits="userSpaceOnUse"><stop offset="0%" stop-opacity="1" style="stop-color:rgb(79,82,255)"/><stop offset="100%" stop-opacity="1" style="stop-color:rgb(64,66,226)"/></linearGradient><path d=" M 1071.58 1436.26 L 1052.18 1436.26 C 1051.5 1436.26 1050.94 1435.7 1050.94 1435.01 L 1050.94 1427.91 C 1050.94 1427.22 1051.5 1426.67 1052.18 1426.67 L 1071.58 1426.67 C 1072.27 1426.67 1072.83 1427.22 1072.83 1427.91 L 1072.83 1435.01 C 1072.83 1435.7 1072.27 1436.26 1071.58 1436.26 Z " fill="url(#_lgradient_746)"/><linearGradient id="_lgradient_747" x1="0" y1="0" x2="1" y2="0" gradientTransform="matrix(-602.434,176.785,-176.785,-602.434,1215.81,1202.73)" gradientUnits="userSpaceOnUse"><stop offset="0%" stop-opacity="1" style="stop-color:rgb(79,82,255)"/><stop offset="100%" stop-opacity="1" style="stop-color:rgb(64,66,226)"/></linearGradient><path d=" M 977.663 1314.09 C 977.663 1314.09 1003.16 1222.23 1061.5 1215.49 C 1061.5 1215.49 1045.61 1207.35 1028.03 1214.98 C 1010.45 1222.62 964.464 1266.17 963.069 1315.88 C 974.553 1320.16 977.663 1314.09 977.663 1314.09 Z " fill="url(#_lgradient_747)"/><linearGradient id="_lgradient_748" x1="0" y1="0" x2="1" y2="0" gradientTransform="matrix(-331.834,97.377,-97.377,-331.834,1083.06,1318.97)" gradientUnits="userSpaceOnUse"><stop offset="0%" stop-opacity="1" style="stop-color:rgb(79,82,255)"/><stop offset="100%" stop-opacity="1" style="stop-color:rgb(64,66,226)"/></linearGradient><path d=" M 971.823 1300.53 C 939.547 1305.47 941.525 1346.08 941.525 1346.08 C 937.805 1375.3 945.663 1390.25 956.299 1397.71 C 963.565 1402.81 972.979 1403.7 981.085 1400.09 C 989.191 1396.48 994.81 1388.88 995.89 1380.07 C 996.866 1372.12 997.908 1364.56 998.632 1361.9 C 1000.38 1355.44 1004.1 1295.58 971.823 1300.53 Z " fill="url(#_lgradient_748)"/><linearGradient id="_lgradient_749" x1="0" y1="0" x2="1" y2="0" gradientTransform="matrix(176.343,-24.557,24.557,176.343,926.193,1357.99)" gradientUnits="userSpaceOnUse"><stop offset="0%" stop-opacity="1" style="stop-color:rgb(79,82,255)"/><stop offset="100%" stop-opacity="1" style="stop-color:rgb(64,66,226)"/></linearGradient><path d=" M 974.264 1310.89 C 967.685 1309.41 960.971 1312.62 958.004 1318.68 C 936.765 1362.01 958.828 1391.92 970.313 1393.08 C 982.418 1394.3 984.991 1335.9 983.138 1320.81 C 982.361 1314.49 978.495 1311.84 974.264 1310.89 Z " fill="url(#_lgradient_749)"/><linearGradient id="_lgradient_750" x1="0" y1="0" x2="1" y2="0" gradientTransform="matrix(-438.517,372.229,-372.229,-438.517,1669.45,1349.13)" gradientUnits="userSpaceOnUse"><stop offset="0%" stop-opacity="1" style="stop-color:rgb(9,0,93)"/><stop offset="100%" stop-opacity="1" style="stop-color:rgb(26,15,145)"/></linearGradient><path d=" M 1640.09 1398.28 L 1589.66 1743.75 C 1588.01 1755.03 1577.41 1764.18 1565.95 1764.18 L 1188.4 1764.17 C 1176.33 1764.17 1168.31 1754.8 1170.47 1743.2 L 1236.62 1388.44 C 1238.63 1377.65 1249.62 1369.14 1261.16 1369.43 L 1622.99 1378.71 C 1633.98 1379 1641.62 1387.76 1640.09 1398.28 Z " fill="url(#_lgradient_750)"/><linearGradient id="_lgradient_751" x1="0" y1="0" x2="1" y2="0" gradientTransform="matrix(-7.143,-471.419,471.419,-7.143,1225.18,1888.53)" gradientUnits="userSpaceOnUse"><stop offset="0%" stop-opacity="1" style="stop-color:rgb(9,0,93)"/><stop offset="100%" stop-opacity="1" style="stop-color:rgb(26,15,145)"/></linearGradient><path d=" M 1270.26 1375.93 L 1200.56 1756.12 C 1199.69 1760.86 1194.11 1764.73 1189.21 1764.73 C 1177.15 1764.73 1168.23 1755.24 1170.4 1743.57 L 1236.6 1388.55 C 1238.62 1377.69 1249.62 1369.14 1261.16 1369.43 L 1267.51 1369.59 C 1269.54 1371.05 1270.72 1373.38 1270.26 1375.93 Z " fill="url(#_lgradient_751)"/><path d=" M 1578.59 1624.33 C 1577.19 1624.28 1576.26 1623.06 1576.51 1621.6 L 1612.59 1416.91 C 1614.22 1407.62 1606.88 1401.65 1598.82 1401.24 L 1560.47 1399.29 C 1559.09 1399.22 1558.18 1398.02 1558.44 1396.62 C 1558.69 1395.22 1560.01 1394.15 1561.39 1394.22 L 1599.72 1396.19 C 1611.68 1396.8 1619.51 1406 1617.55 1417.16 L 1581.59 1621.78 C 1581.34 1623.24 1579.99 1624.38 1578.59 1624.33 Z " fill="rgb(145,179,250)"/><path d=" M 1298.45 1733.83 L 1245.33 1733.72 C 1234.44 1733.7 1227.98 1723.98 1230.3 1711.14 L 1244.61 1632.21 C 1244.88 1630.71 1246.29 1629.5 1247.76 1629.51 C 1249.22 1629.53 1250.19 1630.75 1249.92 1632.25 L 1235.66 1711.16 C 1233.91 1720.85 1238.5 1728.17 1246.32 1728.19 L 1299.41 1728.32 C 1300.88 1728.32 1301.86 1729.56 1301.6 1731.08 C 1301.33 1732.6 1299.92 1733.83 1298.45 1733.83 Z " fill="rgb(145,179,250)"/><linearGradient id="_lgradient_752" x1="0" y1="0" x2="1" y2="0" gradientTransform="matrix(-344.949,3.882,-3.882,-344.949,1513.55,1809.62)" gradientUnits="userSpaceOnUse"><stop offset="0%" stop-opacity="1" style="stop-color:rgb(9,0,93)"/><stop offset="100%" stop-opacity="1" style="stop-color:rgb(26,15,145)"/></linearGradient><path d=" M 1533.48 1819.08 L 1533.48 1823.64 L 1442.11 1825.93 L 1309.28 1825.93 C 1306.08 1825.93 1303.48 1822.98 1303.48 1819.78 C 1303.48 1807.31 1312.26 1796.24 1324.75 1796.24 L 1512.26 1796.24 C 1513.86 1796.24 1515.77 1796.25 1517.19 1796.56 C 1527.05 1798.83 1533.48 1808.22 1533.48 1819.08 Z " fill="url(#_lgradient_752)"/><linearGradient id="_lgradient_753" x1="0" y1="0" x2="1" y2="0" gradientTransform="matrix(156.999,-209.333,209.333,156.999,1428.85,1835.34)" gradientUnits="userSpaceOnUse"><stop offset="0%" stop-opacity="1" style="stop-color:rgb(9,0,93)"/><stop offset="100%" stop-opacity="1" style="stop-color:rgb(26,15,145)"/></linearGradient><path d=" M 1558.42 1818.73 C 1558.4 1806.27 1548.25 1796.26 1535.76 1796.31 L 1516.82 1796.39 L 1442.01 1796.73 L 1348.25 1797.28 C 1335.79 1797.34 1325.72 1808.48 1325.75 1820.95 C 1325.76 1823.41 1327.76 1825.93 1330.23 1825.93 L 1553.95 1825.93 C 1555.14 1825.93 1556.28 1824.93 1557.13 1824.08 C 1557.97 1823.24 1558.44 1821.83 1558.43 1820.64 L 1558.42 1818.73 Z " fill="url(#_lgradient_753)"/><linearGradient id="_lgradient_754" x1="0" y1="0" x2="1" y2="0" gradientTransform="matrix(258.364,-18.131,18.131,258.364,1574.45,1659.96)" gradientUnits="userSpaceOnUse"><stop offset="0%" stop-opacity="1" style="stop-color:rgb(9,0,93)"/><stop offset="100%" stop-opacity="1" style="stop-color:rgb(26,15,145)"/></linearGradient><path d=" M 1379.57 1543.91 C 1371.02 1543.91 1366.5 1552.49 1366.5 1561.04 L 1366.5 1796.24 L 1481.53 1796.24 L 1481.53 1543.91 L 1379.57 1543.91 Z " fill="url(#_lgradient_754)"/><linearGradient id="_lgradient_755" x1="0" y1="0" x2="1" y2="0" gradientTransform="matrix(-244.766,-222.102,222.102,-244.766,1744.74,1950.31)" gradientUnits="userSpaceOnUse"><stop offset="0%" stop-opacity="1" style="stop-color:rgb(9,0,93)"/><stop offset="100%" stop-opacity="1" style="stop-color:rgb(26,15,145)"/></linearGradient><path d=" M 1485.63 1543.91 L 1398.02 1543.91 C 1389.47 1543.91 1381.34 1552.49 1381.34 1561.04 L 1381.34 1796.24 L 1500.09 1796.24 L 1500.09 1561.04 C 1500.09 1552.49 1494.18 1543.91 1485.63 1543.91 Z " fill="url(#_lgradient_755)"/><linearGradient id="_lgradient_756" x1="0" y1="0" x2="1" y2="0" gradientTransform="matrix(185.841,-679.905,679.905,185.841,1144.78,1807.38)" gradientUnits="userSpaceOnUse"><stop offset="0%" stop-opacity="1" style="stop-color:rgb(79,82,255)"/><stop offset="100%" stop-opacity="1" style="stop-color:rgb(64,66,226)"/></linearGradient><path d=" M 1385.51 1874.5 L 1206.7 1874.5 L 991.75 1874.5 L 875.455 1874.5 L 481.69 1874.5 C 541.302 2085.43 665.306 2507.87 678.127 2509.04 L 924.793 2509.04 L 942.713 2509.04 L 1256.03 2509.04 L 1336.48 2509.04 L 1598.66 2505.01 C 1602.42 2505.01 1665.49 2081.98 1716.75 1874.5 L 1385.51 1874.5 Z " fill="url(#_lgradient_756)"/><linearGradient id="_lgradient_757" x1="0" y1="0" x2="1" y2="0" gradientTransform="matrix(-18.131,15.864,-15.864,-18.131,1116.42,1816.2)" gradientUnits="userSpaceOnUse"><stop offset="0%" stop-opacity="1" style="stop-color:rgb(79,82,255)"/><stop offset="100%" stop-opacity="1" style="stop-color:rgb(64,66,226)"/></linearGradient><path d=" M 933.19 1874.5 C 919.695 2082.3 906.221 2297.52 892.726 2509.04 L 678.127 2509.04 C 668.738 2509.04 532.254 2067.64 481.691 1874.5 L 933.19 1874.5 Z " fill="url(#_lgradient_757)"/><linearGradient id="_lgradient_758" x1="0" y1="0" x2="1" y2="0" gradientTransform="matrix(-24.93,299.158,-299.158,-24.93,1147.18,1315.47)" gradientUnits="userSpaceOnUse"><stop offset="0%" stop-opacity="1" style="stop-color:rgb(79,82,255)"/><stop offset="100%" stop-opacity="1" style="stop-color:rgb(64,66,226)"/></linearGradient><path d=" M 1724.01 1837.39 L 1386.75 1837.39 L 1212.56 1837.39 L 1021.51 1837.39 L 991.712 1837.39 L 905.257 1837.39 L 905.257 1832.89 C 905.257 1824.34 902.261 1818.84 899.165 1818.84 L 756.758 1818.84 C 753.662 1818.84 752.079 1824.34 752.079 1832.89 L 752.079 1837.39 L 480.262 1837.39 C 476.205 1837.39 472.916 1845.61 472.916 1855.95 C 472.916 1866.28 476.205 1874.5 480.262 1874.5 L 864.285 1874.5 L 875.3 1874.5 L 991.712 1874.5 L 1021.51 1874.5 L 1212.56 1874.5 L 1386.75 1874.5 L 1724.01 1874.5 C 1728.07 1874.5 1731.36 1866.28 1731.36 1855.95 C 1731.36 1845.61 1728.07 1837.39 1724.01 1837.39 Z " fill="url(#_lgradient_758)"/><linearGradient id="_lgradient_759" x1="0" y1="0" x2="1" y2="0" gradientTransform="matrix(167.71,392.079,-392.079,167.71,748.924,1964)" gradientUnits="userSpaceOnUse"><stop offset="0%" stop-opacity="1" style="stop-color:rgb(79,82,255)"/><stop offset="100%" stop-opacity="1" style="stop-color:rgb(64,66,226)"/></linearGradient><path d=" M 922.629 1855.95 C 922.629 1845.7 931.795 1837.39 943.101 1837.39 L 476.337 1837.39 C 465.031 1837.39 455.865 1845.7 455.865 1855.95 C 455.865 1866.19 465.031 1874.5 476.337 1874.5 L 943.101 1874.5 C 931.795 1874.5 922.629 1866.19 922.629 1855.95 Z " fill="url(#_lgradient_759)"/><path d=" M 1536.92 1636.75 L 1471.74 1632.15 L 1390.43 1870.17 L 1497.02 2404.43 L 1598.16 2389.51 L 1536.92 1636.75 Z " fill="rgb(145,179,250)"/><path d=" M 1925.81 2366.82 L 1797.04 1878.66 L 1720.16 1614.37 L 1536.92 1636.75 L 1452.61 1882.53 L 1568.37 2389.45 L 1926.12 2389.45 L 1925.81 2366.82 Z " fill="rgb(125,151,244)"/><path d=" M 1471.74 1632.15 L 1635.8 1608.4 L 1720.16 1614.37 L 1536.92 1636.75 L 1471.74 1632.15 Z " fill="rgb(145,179,250)"/><path d=" M 1508.61 1870.41 L 1598.34 1842.23 L 1598.34 1730.14 L 1553.48 1734.13 L 1508.61 1870.41 Z " fill="rgb(145,179,250)"/><path d=" M 1672.39 1716.05 L 1713.41 1705.69 L 1750.68 1829.41 L 1690.12 1829.41 L 1672.39 1716.05 Z " fill="rgb(145,179,250)"/><linearGradient id="_lgradient_760" x1="0" y1="0" x2="1" y2="0" gradientTransform="matrix(80.76,-4.465,4.465,80.76,2141.91,3098)" gradientUnits="userSpaceOnUse"><stop offset="0%" stop-opacity="1" style="stop-color:rgb(254,187,186)"/><stop offset="100%" stop-opacity="1" style="stop-color:rgb(255,146,142)"/></linearGradient><path d=" M 2161.97 3049.36 L 2143.95 3112.53 C 2141.23 3122.07 2145.05 3132.54 2153.71 3137.36 C 2158.05 3139.78 2163.91 3141.91 2171.84 3143.25 C 2183.02 3145.15 2194.14 3139.42 2198.9 3129.12 L 2221.88 3079.4 L 2161.97 3049.36 Z " fill="url(#_lgradient_760)"/><linearGradient id="_lgradient_761" x1="0" y1="0" x2="1" y2="0" gradientTransform="matrix(316.599,-499.981,499.981,316.599,2018.35,2890.5)" gradientUnits="userSpaceOnUse"><stop offset="0%" stop-opacity="1" style="stop-color:rgb(21,14,66)"/><stop offset="100%" stop-opacity="1" style="stop-color:rgb(43,53,130)"/></linearGradient><path d=" M 1922.47 2502.93 C 1922.47 2502.93 2194.4 2534.73 2315.83 2635.08 C 2437.27 2735.43 2234.49 3088.14 2234.49 3088.14 C 2234.49 3088.14 2198.17 3089.93 2152.09 3054.65 C 2152.09 3054.65 2269.33 2791.32 2151.98 2722.91 C 2020.04 2645.99 1872.29 2635.19 1872.29 2635.19 L 1920.32 2511.3 L 1922.47 2502.93 Z " fill="url(#_lgradient_761)"/><linearGradient id="_lgradient_762" x1="0" y1="0" x2="1" y2="0" gradientTransform="matrix(-15.86,-614.027,614.027,-15.86,1905.56,3103.97)" gradientUnits="userSpaceOnUse"><stop offset="0%" stop-opacity="1" style="stop-color:rgb(9,0,93)"/><stop offset="100%" stop-opacity="1" style="stop-color:rgb(26,15,145)"/></linearGradient><path d=" M 1658.73 2436.4 C 1658.73 2436.4 1607.74 2599.66 1670.25 2644.99 C 1732.76 2690.33 1878.48 2737.21 1915.71 2832.33 C 1952.94 2927.45 1989.22 3067.25 2065.3 3129.93 C 2065.3 3129.93 2140.71 3151.25 2158.63 3129.93 C 2158.63 3129.93 2105.27 2867.57 2074.09 2796.95 C 2047.09 2735.79 2007.41 2647.56 1938.14 2600.84 C 1918.31 2587.47 1920.36 2564.44 1927.96 2541.76 L 1941.8 2500.46 L 1658.73 2436.4 Z " fill="url(#_lgradient_762)"/><linearGradient id="_lgradient_763" x1="0" y1="0" x2="1" y2="0" gradientTransform="matrix(432.893,-483.557,483.557,432.893,-7126.32,12680)" gradientUnits="userSpaceOnUse"><stop offset="0%" stop-opacity="1" style="stop-color:rgb(255,146,142)"/><stop offset="100%" stop-opacity="1" style="stop-color:rgb(254,112,98)"/></linearGradient><path d=" M 2275.67 2276.57 C 2175.71 2288.16 2198.11 2126.2 2199.56 2119.72 L 2053.27 2235.66 C 2053.27 2235.66 2066.07 2320.9 2195.11 2358.86 C 2227.76 2368.46 2257.06 2367.35 2282.63 2360.36 C 2269.81 2328.79 2270.46 2299.79 2275.67 2276.57 Z " fill="url(#_lgradient_763)"/><linearGradient id="_lgradient_764" x1="0" y1="0" x2="1" y2="0" gradientTransform="matrix(264.394,-14.616,14.617,264.394,2270.93,2288.94)" gradientUnits="userSpaceOnUse"><stop offset="0%" stop-opacity="1" style="stop-color:rgb(254,187,186)"/><stop offset="100%" stop-opacity="1" style="stop-color:rgb(255,146,142)"/></linearGradient><path d=" M 2466.94 2217.63 C 2428.13 2193.7 2387.22 2222.03 2387.22 2222.03 C 2339.06 2257.48 2302.85 2273.42 2275.67 2276.57 C 2270.46 2299.79 2269.81 2328.79 2282.63 2360.36 C 2337.94 2345.23 2375.76 2302.5 2392.01 2280.75 C 2397.87 2272.92 2408.89 2271 2416.89 2276.63 C 2425.01 2282.34 2433.03 2290.34 2432.15 2299.27 C 2430.41 2316.89 2450.99 2321.32 2452.16 2314.9 C 2453.34 2308.48 2442.81 2271.4 2442.81 2271.4 C 2442.81 2271.4 2485.59 2309.92 2502.28 2324.71 C 2518.97 2339.5 2538 2322.74 2538 2322.74 C 2538 2322.74 2505.75 2241.56 2466.94 2217.63 Z " fill="url(#_lgradient_764)"/><linearGradient id="_lgradient_765" x1="0" y1="0" x2="1" y2="0" gradientTransform="matrix(458.913,-458.913,458.913,458.913,1546.08,2514.97)" gradientUnits="userSpaceOnUse"><stop offset="0%" stop-opacity="1" style="stop-color:rgb(255,146,142)"/><stop offset="100%" stop-opacity="1" style="stop-color:rgb(254,112,98)"/></linearGradient><path d=" M 1785.45 1894.39 C 1785.45 1894.39 1928.14 1827.9 2212.08 2037.09 C 2212.08 2037.09 2237.36 2082.79 2214.92 2125.95 C 2192.48 2169.1 1967.96 2385.75 1941.8 2500.46 C 1941.8 2500.46 1803.85 2553.86 1652.61 2453.66 C 1652.61 2453.66 1648.07 2138.68 1785.45 1894.39 Z " fill="url(#_lgradient_765)"/><linearGradient id="_lgradient_766" x1="0" y1="0" x2="1" y2="0" gradientTransform="matrix(175.425,-9.698,9.698,175.425,1997.1,1912.68)" gradientUnits="userSpaceOnUse"><stop offset="0%" stop-opacity="1" style="stop-color:rgb(254,187,186)"/><stop offset="100%" stop-opacity="1" style="stop-color:rgb(255,146,142)"/></linearGradient><path d=" M 2071.03 1826.31 L 2004.01 1917.36 C 1997.36 1926.4 1996.45 1938.52 2001.94 1948.31 C 2013.03 1968.09 2038.32 1996.4 2090.56 1989.4 C 2106.1 1987.32 2119.41 1977.14 2125.44 1962.67 L 2169.93 1856.07 L 2071.03 1826.31 Z " fill="url(#_lgradient_766)"/><linearGradient id="_lgradient_767" x1="0" y1="0" x2="1" y2="0" gradientTransform="matrix(458.913,-458.913,458.913,458.913,1433.13,2402.03)" gradientUnits="userSpaceOnUse"><stop offset="0%" stop-opacity="1" style="stop-color:rgb(255,146,142)"/><stop offset="100%" stop-opacity="1" style="stop-color:rgb(254,112,98)"/></linearGradient><path d=" M 1693.09 2273.58 C 1672.34 2205.53 1835.42 2042.25 1835.42 2042.25 L 1785.45 1894.39 C 1785.45 1894.39 1428.58 2161.5 1533.96 2354.63 C 1549.06 2382.31 1568.14 2401.24 1589.72 2413.4 C 1615.12 2331.45 1660.63 2292 1693.09 2273.58 Z " fill="url(#_lgradient_767)"/><linearGradient id="_lgradient_768" x1="0" y1="0" x2="1" y2="0" gradientTransform="matrix(-896.285,769.691,-769.691,-896.285,2341.05,1647.73)" gradientUnits="userSpaceOnUse"><stop offset="0%" stop-opacity="1" style="stop-color:rgb(225,71,61)"/><stop offset="100%" stop-opacity="1" style="stop-color:rgb(233,96,90)"/></linearGradient><path d=" M 1692.41 2263.54 C 1690.59 2263.64 1688.86 2262.5 1688.31 2260.67 C 1667.09 2191.09 1824.92 2032.03 1831.65 2025.29 C 1833.23 2023.71 1835.8 2023.7 1837.39 2025.29 C 1838.98 2026.87 1838.98 2029.44 1837.4 2031.03 C 1835.78 2032.64 1676.27 2193.35 1696.08 2258.3 C 1696.73 2260.45 1695.52 2262.72 1693.37 2263.37 C 1693.06 2263.47 1692.73 2263.52 1692.41 2263.54 Z " fill="url(#_lgradient_768)"/><linearGradient id="_lgradient_769" x1="0" y1="0" x2="1" y2="0" gradientTransform="matrix(-607.073,1204.15,-1204.15,-607.073,1899.21,2312.66)" gradientUnits="userSpaceOnUse"><stop offset="0%" stop-opacity="1" style="stop-color:rgb(254,187,186)"/><stop offset="100%" stop-opacity="1" style="stop-color:rgb(255,146,142)"/></linearGradient><path d=" M 1952.64 2253.28 C 1952.64 2253.28 1753.57 2343.5 1700.63 2286.84 C 1697.05 2283 1694.6 2278.53 1693.09 2273.58 C 1660.63 2292 1615.12 2331.45 1589.72 2413.4 C 1700.49 2475.86 1877.49 2359.35 1925.2 2325.26 C 1933.05 2319.65 1942.71 2317.3 1952.25 2318.73 C 1971.54 2321.63 2004.81 2325.63 2022.43 2321.91 C 2048.21 2316.47 2090.61 2406.1 2131.18 2375.49 C 2131.18 2375.49 2086.29 2218.09 1952.64 2253.28 Z " fill="url(#_lgradient_769)"/><linearGradient id="_lgradient_770" x1="0" y1="0" x2="1" y2="0" gradientTransform="matrix(-121.307,343.446,-343.446,-121.307,2179.58,1704.04)" gradientUnits="userSpaceOnUse"><stop offset="0%" stop-opacity="1" style="stop-color:rgb(254,187,186)"/><stop offset="100%" stop-opacity="1" style="stop-color:rgb(255,146,142)"/></linearGradient><path d=" M 2220.26 1689.77 C 2221.14 1692.53 2214.1 1883.86 2214.1 1883.86 L 2104.94 1877.51 L 2084.67 1695.19 C 2084.67 1695.19 2205.58 1643.57 2220.26 1689.77 Z " fill="url(#_lgradient_770)"/><linearGradient id="_lgradient_771" x1="0" y1="0" x2="1" y2="0" gradientTransform="matrix(250.035,-79.471,79.471,250.035,2040.94,1821.65)" gradientUnits="userSpaceOnUse"><stop offset="0%" stop-opacity="1" style="stop-color:rgb(9,0,93)"/><stop offset="100%" stop-opacity="1" style="stop-color:rgb(26,15,145)"/></linearGradient><path d=" M 2115.02 1731.53 L 2118.17 1828.34 C 2118.21 1829.58 2118.41 1830.78 2118.79 1831.97 C 2121.08 1839.22 2130.8 1863.58 2155.12 1852.11 C 2177.19 1841.71 2197.48 1832.55 2212.89 1834.6 C 2219.81 1835.52 2224.89 1841.53 2224.63 1848.5 C 2223.98 1865.89 2221.81 1905.03 2214.73 1938.75 C 2213.29 1945.59 2206.81 1950.14 2199.87 1949.3 C 2178.95 1946.8 2134.98 1940.28 2100.83 1926.75 C 2096.21 1924.92 2092.94 1920.76 2092.34 1915.82 C 2089.38 1891.74 2080.1 1818.58 2074.37 1798.59 C 2068.98 1779.83 2043.61 1772.27 2032.73 1769.86 C 2029.16 1769.07 2026.1 1766.87 2024.21 1763.74 C 2017.52 1752.69 2006.46 1726.38 2039.11 1709.43 C 2045.95 1705.88 2048.46 1697.46 2044.71 1690.74 C 2037.23 1677.36 2031.47 1656 2056.19 1639.6 C 2081.3 1622.94 2103.97 1634.04 2116.87 1643.98 C 2122.08 1648 2129.3 1647.54 2134.22 1643.16 C 2137.02 1640.67 2140.93 1639.35 2146.3 1641.58 C 2153.54 1644.57 2161.75 1640.35 2163.99 1632.84 C 2168.27 1618.42 2179.14 1601.94 2206.47 1602.08 C 2254.95 1602.32 2268.96 1653.68 2261.61 1686.36 C 2254.25 1719.04 2201.7 1715.78 2173.75 1704.56 C 2152.49 1696.03 2129.49 1712.49 2119.69 1720.87 C 2116.58 1723.52 2114.89 1727.44 2115.02 1731.53 Z " fill="url(#_lgradient_771)"/><linearGradient id="_lgradient_772" x1="0" y1="0" x2="1" y2="0" gradientTransform="matrix(113.142,-225.613,225.613,113.142,1942.71,2020.78)" gradientUnits="userSpaceOnUse"><stop offset="0%" stop-opacity="1" style="stop-color:rgb(254,187,186)"/><stop offset="100%" stop-opacity="1" style="stop-color:rgb(255,146,142)"/></linearGradient><path d=" M 2075.87 1833.83 C 2075.87 1833.83 2086.24 1776.34 2064.12 1766.36 C 2042 1756.37 2013.66 1768.17 2026.68 1806.41 C 2042.87 1853.97 2075.87 1833.83 2075.87 1833.83 Z " fill="url(#_lgradient_772)"/><path d=" M 2223.41 1698.84 C 2222.73 1698.84 2222.16 1698.3 2222.14 1697.61 C 2222.11 1696.91 2222.66 1696.32 2223.36 1696.29 C 2233.64 1695.93 2241.38 1692.5 2246.37 1686.09 C 2256.56 1673.03 2252.16 1651.76 2252.12 1651.55 C 2251.97 1650.86 2252.41 1650.18 2253.1 1650.04 C 2253.81 1649.89 2254.46 1650.33 2254.61 1651.02 C 2254.81 1651.94 2259.29 1673.67 2248.39 1687.66 C 2242.9 1694.69 2234.52 1698.45 2223.46 1698.84 L 2223.41 1698.84 Z " fill="rgb(255,255,255)"/><linearGradient id="_lgradient_773" x1="0" y1="0" x2="1" y2="0" gradientTransform="matrix(38.839,275.845,-275.845,38.839,1793.19,-398.229)" gradientUnits="userSpaceOnUse"><stop offset="0%" stop-opacity="1" style="stop-color:rgb(255,146,142)"/><stop offset="100%" stop-opacity="1" style="stop-color:rgb(254,112,98)"/></linearGradient><path d=" M 2161.86 1891.65 C 2094.79 1893.47 2059.28 1822.48 2058.92 1821.77 L 2063.52 1819.52 C 2063.86 1820.2 2097.96 1888.26 2161.72 1886.53 L 2161.86 1891.65 Z " fill="url(#_lgradient_773)"/><linearGradient id="_lgradient_774" x1="0" y1="0" x2="1" y2="0" gradientTransform="matrix(24.036,0,0,24.036,2144.62,1888.12)" gradientUnits="userSpaceOnUse"><stop offset="0%" stop-opacity="1" style="stop-color:rgb(255,146,142)"/><stop offset="100%" stop-opacity="1" style="stop-color:rgb(254,112,98)"/></linearGradient><path d=" M 2166.74 1894.21 L 2145.85 1892.88 C 2145.13 1892.83 2144.58 1892.21 2144.63 1891.49 L 2145.15 1883.25 C 2145.2 1882.53 2145.82 1881.98 2146.54 1882.03 L 2167.43 1883.36 C 2168.15 1883.41 2168.7 1884.03 2168.66 1884.75 L 2168.13 1892.99 C 2168.09 1893.71 2167.46 1894.26 2166.74 1894.21 Z " fill="url(#_lgradient_774)"/><linearGradient id="_lgradient_775" x1="0" y1="0" x2="1" y2="0" gradientTransform="matrix(31.689,-422.217,422.217,31.689,1917.89,4147.94)" gradientUnits="userSpaceOnUse"><stop offset="0%" stop-opacity="1" style="stop-color:rgb(255,146,142)"/><stop offset="100%" stop-opacity="1" style="stop-color:rgb(254,112,98)"/></linearGradient><path d=" M 2061.95 1754.5 C 2061.95 1754.5 2091.26 1648.91 2158.33 1641.16 C 2158.33 1641.16 2140.06 1631.8 2119.85 1640.57 C 2099.64 1649.35 2046.78 1699.42 2045.18 1756.55 C 2058.38 1761.48 2061.95 1754.5 2061.95 1754.5 Z " fill="url(#_lgradient_775)"/><linearGradient id="_lgradient_776" x1="0" y1="0" x2="1" y2="0" gradientTransform="matrix(31.689,-422.217,422.217,31.689,1877.29,4144.89)" gradientUnits="userSpaceOnUse"><stop offset="0%" stop-opacity="1" style="stop-color:rgb(255,146,142)"/><stop offset="100%" stop-opacity="1" style="stop-color:rgb(254,112,98)"/></linearGradient><path d=" M 2055.24 1738.91 C 2018.14 1744.59 2020.41 1791.27 2020.41 1791.27 C 2016.13 1824.86 2025.17 1842.05 2037.39 1850.63 C 2045.75 1856.48 2056.57 1857.51 2065.88 1853.36 C 2075.2 1849.21 2081.66 1840.48 2082.9 1830.35 C 2084.03 1821.21 2085.22 1812.52 2086.06 1809.46 C 2088.07 1802.03 2092.34 1733.23 2055.24 1738.91 Z " fill="url(#_lgradient_776)"/><linearGradient id="_lgradient_777" x1="0" y1="0" x2="1" y2="0" gradientTransform="matrix(101.28,-389.929,389.929,101.28,1979.33,2068.13)" gradientUnits="userSpaceOnUse"><stop offset="0%" stop-opacity="1" style="stop-color:rgb(255,146,142)"/><stop offset="100%" stop-opacity="1" style="stop-color:rgb(254,112,98)"/></linearGradient><path d=" M 2058.04 1750.82 C 2050.48 1749.13 2042.76 1752.82 2039.35 1759.78 C 2014.94 1809.58 2040.3 1843.98 2053.5 1845.3 C 2067.42 1846.71 2070.38 1779.58 2068.25 1762.23 C 2067.35 1754.96 2062.91 1751.91 2058.04 1750.82 Z " fill="url(#_lgradient_777)"/><linearGradient id="_lgradient_778" x1="0" y1="0" x2="1" y2="0" gradientTransform="matrix(332.337,-163.953,163.953,332.337,2175.55,2490.33)" gradientUnits="userSpaceOnUse"><stop offset="0%" stop-opacity="1" style="stop-color:rgb(9,0,93)"/><stop offset="100%" stop-opacity="1" style="stop-color:rgb(26,15,145)"/></linearGradient><path d=" M 2635.51 2356.61 L 2189.92 2356.61 C 2180.24 2356.61 2175.83 2368.41 2175.83 2378.1 L 2175.83 2382.43 L 2653.5 2382.43 L 2653.5 2378.1 C 2653.5 2368.41 2645.2 2356.61 2635.51 2356.61 Z " fill="url(#_lgradient_778)"/><linearGradient id="_lgradient_779" x1="0" y1="0" x2="1" y2="0" gradientTransform="matrix(453.814,-377.329,377.329,453.814,2227.11,2329.46)" gradientUnits="userSpaceOnUse"><stop offset="0%" stop-opacity="1" style="stop-color:rgb(9,0,93)"/><stop offset="100%" stop-opacity="1" style="stop-color:rgb(26,15,145)"/></linearGradient><path d=" M 2762.74 1907.08 L 2705.6 2298.5 C 2703.74 2311.28 2691.73 2321.65 2678.74 2321.65 L 2250.98 2321.64 C 2237.31 2321.64 2228.22 2311.02 2230.67 2297.88 L 2305.61 1895.94 C 2307.89 1883.71 2320.34 1874.07 2333.42 1874.4 L 2743.37 1884.92 C 2755.82 1885.24 2764.48 1895.16 2762.74 1907.08 Z " fill="url(#_lgradient_779)"/><linearGradient id="_lgradient_780" x1="0" y1="0" x2="1" y2="0" gradientTransform="matrix(-8.093,-534.114,534.114,-8.093,2292.65,2462.54)" gradientUnits="userSpaceOnUse"><stop offset="0%" stop-opacity="1" style="stop-color:rgb(9,0,93)"/><stop offset="100%" stop-opacity="1" style="stop-color:rgb(26,15,145)"/></linearGradient><path d=" M 2343.72 1881.76 L 2264.76 2312.52 C 2263.78 2317.89 2257.46 2322.27 2251.9 2322.27 C 2238.24 2322.27 2228.13 2311.51 2230.59 2298.3 L 2305.59 1896.06 C 2307.88 1883.76 2320.34 1874.07 2333.42 1874.4 L 2340.62 1874.59 C 2342.91 1876.24 2344.25 1878.88 2343.72 1881.76 Z " fill="url(#_lgradient_780)"/><path d=" M 2693.06 2163.2 C 2691.47 2163.14 2690.42 2161.76 2690.71 2160.1 L 2731.58 1928.2 C 2733.44 1917.67 2725.11 1910.91 2715.98 1910.44 L 2672.53 1908.23 C 2670.97 1908.15 2669.94 1906.8 2670.23 1905.21 C 2670.52 1903.63 2672.02 1902.41 2673.58 1902.49 L 2717 1904.72 C 2730.56 1905.41 2739.43 1915.84 2737.2 1928.48 L 2696.46 2160.31 C 2696.17 2161.97 2694.65 2163.26 2693.06 2163.2 Z " fill="rgb(145,179,250)"/><path d=" M 2375.67 2287.26 L 2315.48 2287.14 C 2303.14 2287.11 2295.82 2276.11 2298.46 2261.56 L 2314.66 2172.12 C 2314.97 2170.42 2316.57 2169.06 2318.23 2169.07 C 2319.89 2169.09 2320.99 2170.48 2320.69 2172.18 L 2304.53 2261.58 C 2302.55 2272.55 2307.74 2280.85 2316.6 2280.88 L 2376.76 2281.02 C 2378.42 2281.02 2379.53 2282.42 2379.23 2284.15 C 2378.93 2285.87 2377.34 2287.26 2375.67 2287.26 Z " fill="rgb(145,179,250)"/><linearGradient id="_lgradient_781" x1="0" y1="0" x2="1" y2="0" gradientTransform="matrix(-395.167,4.447,-4.447,-395.167,2622.03,2371.72)" gradientUnits="userSpaceOnUse"><stop offset="0%" stop-opacity="1" style="stop-color:rgb(9,0,93)"/><stop offset="100%" stop-opacity="1" style="stop-color:rgb(26,15,145)"/></linearGradient><path d=" M 2644.89 2383.85 L 2644.89 2389.01 L 2538.44 2386.73 L 2387.94 2386.73 C 2384.31 2386.73 2381.37 2385.15 2381.37 2381.52 C 2381.37 2367.4 2391.31 2356.61 2405.46 2356.61 L 2617.91 2356.61 C 2619.73 2356.61 2623.35 2357.3 2624.97 2357.66 C 2636.13 2360.23 2644.89 2371.55 2644.89 2383.85 Z " fill="url(#_lgradient_781)"/><linearGradient id="_lgradient_782" x1="0" y1="0" x2="1" y2="0" gradientTransform="matrix(174.785,-233.047,233.047,174.785,2523.68,2400.02)" gradientUnits="userSpaceOnUse"><stop offset="0%" stop-opacity="1" style="stop-color:rgb(9,0,93)"/><stop offset="100%" stop-opacity="1" style="stop-color:rgb(26,15,145)"/></linearGradient><path d=" M 2670.21 2383.46 C 2670.19 2369.34 2658.69 2357.99 2644.54 2358.05 L 2623.07 2358.14 L 2538.32 2358.53 L 2432.09 2359.16 C 2417.97 2359.22 2406.57 2369.41 2406.6 2383.53 C 2406.61 2386.32 2408.88 2386.73 2411.67 2386.73 L 2665.15 2386.73 C 2666.5 2386.73 2667.79 2388.04 2668.74 2387.08 C 2669.7 2386.12 2670.23 2385.75 2670.22 2384.4 L 2670.21 2383.46 Z " fill="url(#_lgradient_782)"/><linearGradient id="_lgradient_783" x1="0" y1="0" x2="1" y2="0" gradientTransform="matrix(358.083,-163.177,163.177,358.083,2533.38,2211.54)" gradientUnits="userSpaceOnUse"><stop offset="0%" stop-opacity="1" style="stop-color:rgb(9,0,93)"/><stop offset="100%" stop-opacity="1" style="stop-color:rgb(26,15,145)"/></linearGradient><path d=" M 2467.58 2072.59 C 2457.89 2072.59 2451.24 2081.81 2451.24 2091.49 L 2451.24 2356.61 L 2588.95 2356.61 L 2588.95 2072.59 L 2467.58 2072.59 Z " fill="url(#_lgradient_783)"/><linearGradient id="_lgradient_784" x1="0" y1="0" x2="1" y2="0" gradientTransform="matrix(-233.434,97.453,-97.453,-233.434,2989.01,2029.61)" gradientUnits="userSpaceOnUse"><stop offset="0%" stop-opacity="1" style="stop-color:rgb(9,0,93)"/><stop offset="100%" stop-opacity="1" style="stop-color:rgb(26,15,145)"/></linearGradient><path d=" M 2587.74 2072.59 L 2488.47 2072.59 C 2478.79 2072.59 2472.76 2081.81 2472.76 2091.49 L 2472.76 2356.61 L 2606.16 2356.61 L 2606.16 2091.49 C 2606.16 2081.81 2597.43 2072.59 2587.74 2072.59 Z " fill="url(#_lgradient_784)"/><linearGradient id="_lgradient_785" x1="0" y1="0" x2="1" y2="0" gradientTransform="matrix(115.443,0,0,115.443,1995.18,2355.69)" gradientUnits="userSpaceOnUse"><stop offset="0%" stop-opacity="1" style="stop-color:rgb(9,0,93)"/><stop offset="100%" stop-opacity="1" style="stop-color:rgb(26,15,145)"/></linearGradient><path d=" M 1995.5 2382.43 L 2110.63 2382.43 C 2110.63 2382.43 2084.49 2326.26 2036.66 2329.04 C 1988.83 2331.82 1995.5 2382.43 1995.5 2382.43 Z " fill="url(#_lgradient_785)"/><linearGradient id="_lgradient_786" x1="0" y1="0" x2="1" y2="0" gradientTransform="matrix(-71.386,836.242,-836.242,-71.386,2212.88,1369.38)" gradientUnits="userSpaceOnUse"><stop offset="0%" stop-opacity="1" style="stop-color:rgb(79,82,255)"/><stop offset="100%" stop-opacity="1" style="stop-color:rgb(64,66,226)"/></linearGradient><path d=" M 2948.06 2399.64 C 2948.06 2411.35 2937.77 2421.16 2925.08 2421.16 L 1324.79 2421.16 C 1312.09 2421.16 1301.8 2411.35 1301.8 2399.64 C 1301.8 2387.94 1312.09 2378.13 1324.79 2378.13 L 2925.08 2378.13 C 2937.77 2378.13 2948.06 2387.94 2948.06 2399.64 Z " fill="url(#_lgradient_786)"/><linearGradient id="_lgradient_787" x1="0" y1="0" x2="1" y2="0" gradientTransform="matrix(474.21,-1203.37,1203.37,474.21,2178.63,2451.32)" gradientUnits="userSpaceOnUse"><stop offset="0%" stop-opacity="1" style="stop-color:rgb(79,82,255)"/><stop offset="100%" stop-opacity="1" style="stop-color:rgb(64,66,226)"/></linearGradient><path d=" M 1994.97 3139.82 L 1709.86 3139.82 C 1614.89 3130.21 1522.74 3111.11 1434.34 3083.47 C 1393.48 2862.69 1352.6 2643.02 1311.75 2421.16 L 2923.74 2421.16 C 2906.11 2516.88 2888.49 2612.18 2870.85 2707.35 C 2806.88 2775.21 2736.2 2836.68 2659.87 2890.69 C 2661.07 2889.15 2661.7 2887.15 2661.48 2885.05 C 2660.6 2876.67 2660.07 2868.13 2659.91 2859.66 C 2659.83 2855.38 2656.33 2851.96 2652.07 2851.96 L 2651.91 2851.96 C 2647.58 2852.05 2644.13 2855.63 2644.21 2859.96 C 2644.38 2868.88 2644.94 2877.87 2645.86 2886.69 C 2646.28 2890.72 2649.69 2893.72 2653.66 2893.72 C 2653.93 2893.72 2654.21 2893.71 2654.49 2893.68 C 2655.06 2893.62 2655.6 2893.5 2656.12 2893.33 C 2571.32 2952.92 2479.6 3003.35 2382.41 3043.14 C 2382.37 3041.55 2382.35 3039.95 2382.35 3038.36 C 2382.35 3036.93 2382.37 3035.5 2382.4 3034.07 C 2382.46 3031.39 2380.33 3029.17 2377.65 3029.12 C 2375.12 3029.17 2372.76 3031.19 2372.7 3033.87 C 2372.67 3035.37 2372.66 3036.86 2372.66 3038.36 C 2372.66 3041.24 2372.72 3044.13 2372.84 3047.02 C 2254.04 3094.65 2127.26 3126.43 1994.97 3139.82 Z  M 2384.74 2979.29 C 2382.61 2979.29 2380.64 2980.71 2380.05 2982.86 C 2377.8 2991.13 2376.04 2999.63 2374.82 3008.14 C 2374.44 3010.79 2376.28 3013.25 2378.93 3013.63 C 2379.16 3013.67 2379.4 3013.68 2379.62 3013.68 C 2382 3013.68 2384.07 3011.94 2384.42 3009.52 C 2385.58 3001.41 2387.26 2993.3 2389.41 2985.41 C 2390.11 2982.83 2388.59 2980.17 2386.01 2979.46 C 2385.58 2979.35 2385.16 2979.29 2384.74 2979.29 Z  M 2403.9 2932.71 C 2402.21 2932.71 2400.57 2933.6 2399.68 2935.18 C 2395.45 2942.66 2391.65 2950.47 2388.38 2958.41 C 2387.36 2960.88 2388.54 2963.72 2391.02 2964.74 C 2391.63 2964.98 2392.25 2965.1 2392.86 2965.1 C 2394.77 2965.1 2396.58 2963.97 2397.35 2962.1 C 2400.47 2954.53 2404.09 2947.08 2408.12 2939.95 C 2409.44 2937.62 2408.62 2934.66 2406.29 2933.35 C 2405.53 2932.92 2404.71 2932.71 2403.9 2932.71 Z  M 2433.89 2892.28 C 2432.61 2892.28 2431.34 2892.78 2430.38 2893.78 C 2424.47 2899.98 2418.88 2906.62 2413.75 2913.53 C 2412.16 2915.68 2412.61 2918.72 2414.76 2920.31 C 2415.63 2920.95 2416.64 2921.27 2417.64 2921.27 C 2419.13 2921.27 2420.59 2920.59 2421.54 2919.31 C 2426.43 2912.72 2431.76 2906.38 2437.4 2900.47 C 2439.25 2898.53 2439.18 2895.46 2437.24 2893.61 C 2436.3 2892.72 2435.09 2892.28 2433.89 2892.28 Z  M 2472.81 2860.34 C 2471.92 2860.34 2471.02 2860.59 2470.22 2861.1 C 2462.98 2865.68 2455.94 2870.77 2449.3 2876.21 C 2447.23 2877.91 2446.93 2880.97 2448.62 2883.04 C 2449.58 2884.2 2450.97 2884.81 2452.38 2884.81 C 2453.46 2884.81 2454.55 2884.45 2455.45 2883.71 C 2461.78 2878.52 2468.5 2873.67 2475.41 2869.29 C 2477.67 2867.86 2478.34 2864.87 2476.91 2862.6 C 2475.98 2861.14 2474.41 2860.34 2472.81 2860.34 Z  M 2518.3 2838.87 C 2517.8 2838.87 2517.29 2838.95 2516.79 2839.11 C 2508.65 2841.78 2500.59 2845 2492.83 2848.66 C 2490.41 2849.81 2489.37 2852.69 2490.51 2855.11 C 2491.34 2856.87 2493.08 2857.89 2494.9 2857.89 C 2495.59 2857.89 2496.3 2857.75 2496.97 2857.43 C 2504.37 2853.94 2512.05 2850.87 2519.82 2848.32 C 2522.36 2847.49 2523.75 2844.75 2522.91 2842.21 C 2522.24 2840.16 2520.35 2838.87 2518.3 2838.87 Z  M 2567.64 2829.2 C 2567.55 2829.2 2567.46 2829.2 2567.37 2829.21 C 2558.78 2829.81 2550.17 2830.94 2541.77 2832.59 C 2539.15 2833.1 2537.43 2835.65 2537.95 2838.28 C 2538.4 2840.59 2540.43 2842.2 2542.7 2842.2 C 2543.01 2842.2 2543.32 2842.17 2543.64 2842.11 C 2551.64 2840.54 2559.85 2839.45 2568.04 2838.89 C 2570.71 2838.7 2572.73 2836.38 2572.54 2833.71 C 2572.36 2831.13 2570.2 2829.2 2567.64 2829.2 Z  M 2592.8 2829 C 2590.31 2829 2588.21 2831.05 2588.08 2833.61 C 2587.94 2836.28 2590 2838.56 2592.67 2838.7 C 2593.74 2838.75 2594.8 2838.82 2595.88 2838.9 C 2603.02 2839.39 2610.18 2840.27 2617.14 2841.51 C 2617.42 2841.56 2617.71 2841.58 2617.99 2841.58 C 2620.3 2841.58 2622.34 2839.93 2622.76 2837.58 C 2623.23 2834.94 2621.47 2832.43 2618.83 2831.96 C 2611.53 2830.66 2604.04 2829.74 2596.57 2829.23 C 2595.44 2829.14 2594.31 2829.07 2593.18 2829.01 C 2593.05 2829 2592.93 2829 2592.8 2829 Z  M 2658.32 2783.86 C 2654.65 2783.86 2651.39 2786.42 2650.63 2790.14 C 2648.84 2798.82 2647.41 2807.71 2646.36 2816.55 C 2645.85 2820.86 2648.93 2824.76 2653.24 2825.27 C 2653.55 2825.31 2653.86 2825.32 2654.17 2825.32 C 2658.09 2825.32 2661.48 2822.39 2661.96 2818.4 C 2662.95 2809.99 2664.31 2801.55 2666.01 2793.29 C 2666.88 2789.05 2664.15 2784.9 2659.9 2784.02 C 2659.37 2783.92 2658.84 2783.86 2658.32 2783.86 Z  M 2679.54 2718.85 C 2676.56 2718.85 2673.7 2720.55 2672.38 2723.44 C 2668.69 2731.53 2665.31 2739.88 2662.33 2748.25 C 2660.87 2752.34 2663 2756.83 2667.09 2758.28 C 2667.96 2758.59 2668.85 2758.74 2669.72 2758.74 C 2672.95 2758.74 2675.97 2756.73 2677.12 2753.52 C 2679.95 2745.57 2683.16 2737.64 2686.67 2729.96 C 2688.47 2726.02 2686.73 2721.36 2682.79 2719.56 C 2681.73 2719.08 2680.62 2718.85 2679.54 2718.85 Z  M 2714.76 2660.2 C 2712.4 2660.2 2710.07 2661.26 2708.52 2663.28 C 2703.12 2670.34 2697.95 2677.72 2693.17 2685.22 C 2690.84 2688.87 2691.91 2693.73 2695.57 2696.06 C 2696.87 2696.89 2698.33 2697.29 2699.78 2697.29 C 2702.37 2697.29 2704.91 2696.01 2706.41 2693.66 C 2710.95 2686.54 2715.86 2679.53 2720.99 2672.82 C 2723.62 2669.38 2722.97 2664.45 2719.53 2661.81 C 2718.1 2660.73 2716.42 2660.2 2714.76 2660.2 Z  M 2762.11 2610.85 C 2760.34 2610.85 2758.55 2611.44 2757.09 2612.67 C 2750.25 2618.37 2743.58 2624.42 2737.27 2630.66 C 2734.18 2633.7 2734.15 2638.67 2737.2 2641.76 C 2738.74 2643.31 2740.76 2644.09 2742.78 2644.09 C 2744.78 2644.09 2746.77 2643.34 2748.3 2641.82 C 2754.3 2635.9 2760.64 2630.15 2767.14 2624.73 C 2770.47 2621.95 2770.92 2617 2768.14 2613.67 C 2766.59 2611.81 2764.36 2610.85 2762.11 2610.85 Z  M 2819.2 2573.2 C 2818 2573.2 2816.78 2573.47 2815.64 2574.06 C 2807.72 2578.09 2799.88 2582.52 2792.33 2587.21 C 2788.65 2589.5 2787.52 2594.34 2789.81 2598.03 C 2791.3 2600.42 2793.86 2601.73 2796.48 2601.73 C 2797.9 2601.73 2799.33 2601.35 2800.62 2600.55 C 2807.79 2596.09 2815.24 2591.88 2822.77 2588.05 C 2826.63 2586.08 2828.17 2581.35 2826.2 2577.49 C 2824.81 2574.77 2822.06 2573.2 2819.2 2573.2 Z  M 2883.19 2549.21 C 2882.56 2549.21 2881.92 2549.28 2881.29 2549.44 C 2872.67 2551.6 2864.04 2554.17 2855.64 2557.07 C 2851.54 2558.48 2849.36 2562.95 2850.77 2567.05 C 2851.89 2570.3 2854.94 2572.34 2858.19 2572.34 C 2859.04 2572.34 2859.91 2572.2 2860.75 2571.91 C 2868.73 2569.16 2876.93 2566.72 2885.11 2564.67 C 2889.32 2563.61 2891.87 2559.34 2890.82 2555.14 C 2889.92 2551.57 2886.71 2549.21 2883.19 2549.21 Z " fill-rule="evenodd" fill="url(#_lgradient_787)"/><linearGradient id="_lgradient_788" x1="0" y1="0" x2="1" y2="0" gradientTransform="matrix(-601.686,438.517,-438.517,-601.686,2421.67,2124.95)" gradientUnits="userSpaceOnUse"><stop offset="0%" stop-opacity="1" style="stop-color:rgb(79,82,255)"/><stop offset="100%" stop-opacity="1" style="stop-color:rgb(64,66,226)"/></linearGradient><path d=" M 1774.09 2421.16 C 1760.27 2657.84 1746.48 2903.13 1732.66 3139.82 L 1437.81 3139.82 C 1428.19 3139.82 1417.6 3128.39 1415.55 3114.89 C 1380.96 2883.52 1346.34 2653.54 1311.75 2421.16 L 1774.09 2421.16 Z " fill="url(#_lgradient_788)"/><linearGradient id="_lgradient_789" x1="0" y1="0" x2="1" y2="0" gradientTransform="matrix(-758.964,8.54,-8.54,-758.964,1745.66,2397.29)" gradientUnits="userSpaceOnUse"><stop offset="0%" stop-opacity="1" style="stop-color:rgb(79,82,255)"/><stop offset="100%" stop-opacity="1" style="stop-color:rgb(64,66,226)"/></linearGradient><path d=" M 1789.32 2399.64 C 1789.32 2411.35 1786.16 2421.16 1782.26 2421.16 L 1290.32 2421.16 C 1286.42 2421.16 1283.26 2411.35 1283.26 2399.64 C 1283.26 2387.94 1286.42 2378.13 1290.32 2378.13 L 1782.26 2378.13 C 1786.16 2378.13 1789.32 2387.94 1789.32 2399.64 Z " fill="url(#_lgradient_789)"/></g></g></g></g></svg>