<?xml version="1.0" encoding="UTF-8" standalone="no"?><!-- Generator: Gravit.io --><svg xmlns="http://www.w3.org/2000/svg" xmlns:xlink="http://www.w3.org/1999/xlink" style="isolation:isolate" viewBox="0 0 3710 3710" width="3710pt" height="3710pt"><defs><clipPath id="_clipPath_ilcOv2EPIgN9FWYdZ4yFTEdlAYPO7LPi"><rect x="0" y="0" width="3710" height="3710"/></clipPath></defs><g clip-path="url(#_clipPath_ilcOv2EPIgN9FWYdZ4yFTEdlAYPO7LPi)"><g><clipPath id="_clipPath_c5CfEiohUU9d6a2OtRXg8GfY0wAT3UPU"><path d=" M 0 0 L 0 3710 L 3710 3710 L 3710 0 L 0 0 Z " fill="rgb(255,255,255)"/></clipPath><g clip-path="url(#_clipPath_c5CfEiohUU9d6a2OtRXg8GfY0wAT3UPU)"><linearGradient id="_lgradient_292" x1="0" y1="0" x2="1" y2="0" gradientTransform="matrix(-1946.66,-2191.73,2191.73,-1946.66,3359.58,3548.26)" gradientUnits="userSpaceOnUse"><stop offset="0%" stop-opacity="1" style="stop-color:rgb(218,227,254)"/><stop offset="100%" stop-opacity="1" style="stop-color:rgb(233,239,253)"/></linearGradient><path d=" M 1111.01 3057.62 C 1013.4 3016.72 913.919 2957.16 824.631 2869.1 C 468.074 2517.45 445.179 1880.05 669.706 1363.56 C 776.375 1535.51 947.996 1582.37 1055.39 1644.77 C 1067.4 1651.75 1078.46 1660.14 1088.66 1669.7 C 1090.53 2185.51 1096.14 2768.21 1111.01 3057.62 Z  M 2779.55 2759.92 C 2776.87 2237.99 2764.98 1295.47 2715.32 829.464 C 2708.41 764.602 2656.27 713.975 2591.24 708.908 C 2373.17 691.918 1874.22 656.62 1492.76 656.62 C 1413.57 656.62 1339.48 658.139 1273.97 661.661 C 1450.56 551.763 1685.38 455 1965.26 455 C 1977.79 455 1990.41 455.194 2003.13 455.589 C 2457 469.709 2770.25 732.839 2808.32 765.6 C 2856.42 806.985 2962.36 905.155 3056.45 1059.34 C 3277.55 1421.63 3287.16 1921.11 3107.74 2317.28 C 3028.04 2493.26 2914.3 2640.43 2779.55 2759.92 Z " fill-rule="evenodd" fill="url(#_lgradient_292)"/><path d=" M 1208.84 2090.1 C 1208.84 2090.1 1217.2 1738.8 1055.39 1644.77 C 893.58 1550.75 585.926 1491.96 574.394 987.523 C 567.642 692.2 560.336 563.08 555.438 506.779 C 553.527 484.816 573.044 467.088 594.708 471.169 C 747.953 500.038 1245.78 618.864 1350.15 958.655 C 1473.89 1361.48 1208.84 2090.1 1208.84 2090.1 Z " fill="rgb(145,179,250)"/><path d=" M 713.223 611.521 C 881.44 761.546 1075.95 1027.06 1179.63 1292.58 C 1192.94 1336.34 1231.87 1429.4 1248.77 1594.73 C 1263.87 1732.63 1256.36 1878.34 1238.06 1974.8 C 1236.9 1980.9 1231.02 1984.9 1224.92 1983.74 C 1214.43 1981.75 1215.83 1970.48 1215.92 1970.83 C 1236.83 1806.04 1228.15 1600.92 1180.24 1415.85 C 1119.03 1188.6 982.512 968.269 841.305 781.4 L 826.774 762.999 C 717.373 622.501 694.341 621.467 704.569 611.673 C 706.984 609.36 710.765 609.339 713.223 611.521 Z " fill="rgb(125,151,244)"/><path d=" M 1468.87 2765.54 C 1490.76 2776.27 1261.62 2488.12 1189.84 2035.56 C 1156.02 1822.31 1155.57 1555.11 1034.09 1452.14 C 932.988 1366.45 588.942 1420.55 476.37 1441.11 C 462.304 1443.68 457.568 1461.45 468.518 1470.65 C 522.502 1515.98 637.985 1622.92 668.075 1730.7 C 707.735 1872.76 842.792 1963.11 963.702 1987.57 C 1084.61 2012.02 1151.87 2035.75 1210.77 2229.11 C 1269.68 2422.47 1406.67 2735.04 1468.87 2765.54 Z " fill="rgb(125,151,244)"/><path d=" M 634.696 1501.13 C 778.32 1507.15 932.49 1572.66 1010.73 1695.56 L 1018.11 1707.29 C 1035.17 1734.79 1131.82 1930.26 1185.51 2092.3 C 1186.17 2094.32 1185.08 2096.5 1183.06 2097.17 C 1179.63 2098.3 1177.91 2094.53 1178.24 2094.86 C 1140.83 2003.32 1087.12 1887.26 1044.33 1800.48 C 998.45 1705.77 966.341 1641.63 861.687 1580.2 C 745.203 1514.04 633.919 1507.23 634.253 1507.3 C 632.555 1507.12 631.318 1505.61 631.492 1503.91 C 631.658 1502.27 633.078 1501.07 634.696 1501.13 Z " fill="rgb(145,179,250)"/><path d=" M 1370.64 2803.44 C 1383.63 2810.29 1297.46 2661.98 1290.85 2531.31 C 1284.24 2400.65 1254.76 2177.63 1142.08 2044.22 C 1029.4 1910.81 906.003 1898.64 750.517 2019.92 C 620.946 2120.99 540.123 2171.99 492.723 2181.47 C 480.986 2183.82 474.996 2197.07 480.708 2207.59 C 511.109 2263.58 597.062 2392.18 741.38 2383.12 C 925.468 2371.57 1148.57 2251.9 1216.57 2351.73 C 1284.56 2451.56 1275.83 2507.42 1277.92 2554.73 C 1280.01 2602.04 1284.67 2758.12 1370.64 2803.44 Z " fill="rgb(145,179,250)"/><path d=" M 802.752 2180.11 C 859.147 2126.04 950.994 2072.91 1031.27 2082.82 C 1135.7 2099.64 1205.27 2169.38 1243.22 2273.2 C 1258.06 2317.28 1264.16 2340.82 1272.93 2394.85 C 1273.63 2399.17 1267.27 2400.45 1266.21 2396.24 C 1259.83 2370.86 1253.51 2344.29 1244.05 2316.8 C 1189 2139.47 1071.49 2115.59 1066.92 2111.96 C 1058.04 2112.83 1004.18 2072.52 876.387 2141.28 C 852.524 2154.27 829.295 2169.1 807.487 2185.45 L 807.366 2185.54 C 805.788 2186.72 803.55 2186.4 802.367 2184.83 C 801.271 2183.37 801.465 2181.34 802.752 2180.11 Z " fill="rgb(125,151,244)"/><linearGradient id="_lgradient_293" x1="0" y1="0" x2="1" y2="0" gradientTransform="matrix(-217.005,3180.44,-3180.44,-217.005,2065.05,-30.74)" gradientUnits="userSpaceOnUse"><stop offset="0%" stop-opacity="1" style="stop-color:rgb(9,0,93)"/><stop offset="100%" stop-opacity="1" style="stop-color:rgb(26,15,145)"/></linearGradient><path d=" M 1636.25 3163.14 C 1456.25 3163.14 1301.29 3161.84 1208.81 3160.84 C 1156.85 3160.29 1114.3 3119.52 1111.53 3067.62 C 1111.35 3064.33 1111.18 3060.99 1111.01 3057.62 C 1096.14 2768.21 1090.53 2185.51 1088.66 1669.7 C 1087.32 1297.23 1087.92 959.654 1088.39 792.535 C 1088.51 749.649 1109.97 711.406 1143.07 688.471 C 1160.61 676.318 1181.42 668.465 1204.06 666.496 C 1226.03 664.585 1249.39 662.982 1273.97 661.661 C 1339.48 658.139 1413.57 656.62 1492.76 656.62 C 1874.22 656.62 2373.17 691.918 2591.24 708.908 C 2656.27 713.975 2708.41 764.602 2715.32 829.464 C 2764.98 1295.47 2776.87 2237.99 2779.55 2759.92 C 2779.98 2844.29 2780.17 2917.65 2780.24 2976.25 C 2780.35 3063.85 2712.32 3136.26 2624.9 3141.85 C 2356.19 3159.04 1956.53 3163.14 1636.25 3163.14 Z  M 1544.22 776.796 C 1447.61 776.796 1360.96 779.115 1293.13 784.764 C 1236.39 789.488 1192.44 838.266 1191.57 897.687 C 1186.52 1240.91 1172.15 2382.69 1197.24 2804.09 C 1200.9 2865.69 1248.75 2914.32 1307.83 2916.38 C 1432.18 2920.71 1656.02 2927.12 1892.58 2927.12 C 2118.74 2927.12 2356.52 2921.26 2530.25 2902.15 C 2594.25 2895.11 2643.16 2839.63 2644.86 2772.46 C 2651.75 2501.28 2667.7 1802.65 2663.23 1307.61 L 2704.54 1301.8 C 2707.36 1301.41 2708.36 1299.27 2708.65 1298.37 C 2708.95 1297.47 2709.42 1295.16 2707.39 1293.16 L 2674.49 1260.78 C 2669.66 1256.04 2667.49 1249.22 2668.66 1242.56 L 2676.68 1197.1 C 2677.02 1195.17 2676.29 1193.81 2675.63 1193.01 C 2674.64 1191.83 2673.18 1191.12 2671.71 1191.11 C 2671.7 1191.11 2671.69 1191.11 2671.68 1191.11 C 2670.89 1191.11 2670.11 1191.31 2669.34 1191.71 L 2661.8 1195.63 C 2660.13 1097.52 2657.42 1010.97 2653.39 942.073 C 2649.5 875.599 2598.71 822.558 2535.05 818.268 C 2430.58 811.228 2261.11 800.541 2075.81 791.779 L 2085.88 717.523 C 2086.42 713.462 2084.8 710.684 2083.34 709.068 C 2081.26 706.776 2078.29 705.432 2075.33 705.432 C 2075.22 705.432 2075.11 705.434 2074.99 705.438 C 2073.33 705.496 2071.68 705.985 2070.1 706.888 L 2047.79 719.638 C 2045.35 716.654 2041.53 714.055 2035.55 713.639 C 2004.68 711.492 1925.56 706.525 1854.53 706.525 C 1833.85 706.525 1813.86 706.946 1795.95 707.98 C 1780.18 708.889 1778.82 726.238 1779.22 726.239 C 1779.23 726.239 1779.25 726.218 1779.27 726.173 C 1779.47 735.655 1787.04 743.313 1796.52 743.601 C 1808.86 743.976 1827.13 744.533 1848.41 745.189 L 1856.23 782.788 C 1748.2 779.133 1641.21 776.796 1544.22 776.796 Z  M 1965.02 760.435 C 1958.58 760.435 1952.16 758.974 1946.35 756.179 L 1928.74 747.697 C 1951.9 748.43 1974.8 749.168 1994.95 749.838 L 1986.32 754.771 C 1980.3 758.214 1973.45 760.164 1966.51 760.409 C 1966.01 760.426 1965.52 760.435 1965.02 760.435 Z " fill-rule="evenodd" fill="url(#_lgradient_293)"/><linearGradient id="_lgradient_294" x1="0" y1="0" x2="1" y2="0" gradientTransform="matrix(1481.13,0,0,1481.13,1182.88,1851.96)" gradientUnits="userSpaceOnUse"><stop offset="0%" stop-opacity="1" style="stop-color:rgb(218,227,254)"/><stop offset="100%" stop-opacity="1" style="stop-color:rgb(233,239,253)"/></linearGradient><path d=" M 1892.58 2927.12 C 1656.02 2927.12 1432.18 2920.71 1307.83 2916.38 C 1248.75 2914.32 1200.9 2865.69 1197.24 2804.09 C 1172.15 2382.69 1186.52 1240.91 1191.57 897.687 C 1192.44 838.266 1236.39 789.488 1293.13 784.764 C 1360.96 779.115 1447.61 776.796 1544.22 776.796 C 1641.21 776.796 1748.2 779.133 1856.23 782.788 L 1864.07 820.501 C 1866.95 834.351 1862.84 848.725 1853.06 858.95 L 1786.37 928.697 C 1782.26 932.997 1783.39 937.794 1784.07 939.657 C 1784.75 941.52 1786.97 945.922 1792.88 946.571 L 1888.81 957.078 C 1902.87 958.617 1915.27 966.974 1921.97 979.433 L 1967.7 1064.41 C 1970.35 1069.35 1974.87 1069.99 1977.04 1069.99 C 1977.17 1069.99 1977.3 1069.99 1977.41 1069.98 C 1979.39 1069.91 1984.26 1069.16 1986.71 1063.74 L 2026.34 975.758 C 2032.16 962.858 2043.93 953.65 2057.85 951.125 L 2152.8 933.896 C 2158.66 932.834 2160.56 928.286 2161.1 926.38 C 2161.65 924.474 2162.44 919.61 2158.04 915.608 L 2086.61 850.725 C 2076.14 841.213 2071.02 827.165 2072.92 813.146 L 2075.81 791.779 C 2261.11 800.541 2430.58 811.228 2535.05 818.268 C 2598.71 822.558 2649.5 875.599 2653.39 942.073 C 2657.42 1010.97 2660.13 1097.52 2661.8 1195.63 L 2628.38 1213 C 2625.46 1214.52 2622.18 1215.32 2618.89 1215.32 C 2618.86 1215.32 2618.83 1215.32 2618.8 1215.32 C 2615.48 1215.3 2612.18 1214.47 2609.25 1212.91 L 2568.49 1191.24 C 2567.72 1190.83 2566.92 1190.62 2566.13 1190.61 C 2566.12 1190.61 2566.11 1190.61 2566.11 1190.61 C 2564.65 1190.61 2563.18 1191.31 2562.19 1192.47 C 2561.52 1193.27 2560.78 1194.62 2561.1 1196.55 L 2568.69 1242.09 C 2569.8 1248.76 2567.56 1255.55 2562.69 1260.26 L 2529.48 1292.32 C 2527.43 1294.3 2527.88 1296.62 2528.17 1297.52 C 2528.46 1298.42 2529.44 1300.57 2532.25 1300.99 L 2577.91 1307.85 C 2584.6 1308.85 2590.36 1313.08 2593.33 1319.16 L 2613.57 1360.66 C 2614.82 1363.21 2617.16 1363.5 2618.1 1363.51 C 2618.11 1363.51 2618.12 1363.51 2618.13 1363.51 C 2619.09 1363.51 2621.41 1363.22 2622.67 1360.7 L 2643.29 1319.4 C 2646.32 1313.34 2652.12 1309.17 2658.83 1308.23 L 2663.23 1307.61 C 2667.7 1802.65 2651.75 2501.28 2644.86 2772.46 C 2643.16 2839.63 2594.25 2895.11 2530.25 2902.15 C 2356.52 2921.26 2118.74 2927.12 1892.58 2927.12 Z  M 1233.21 1213.05 C 1233.16 1213.05 1233.1 1213.05 1233.04 1213.05 C 1231.58 1213.1 1230.13 1213.85 1229.19 1215.06 C 1228.54 1215.88 1227.86 1217.26 1228.26 1219.18 L 1237.66 1264.38 C 1239.04 1271 1237.07 1277.88 1232.39 1282.77 L 1200.49 1316.14 C 1198.52 1318.2 1199.06 1320.49 1199.39 1321.38 C 1199.71 1322.27 1200.77 1324.38 1203.6 1324.69 L 1249.49 1329.72 C 1256.22 1330.45 1262.15 1334.45 1265.36 1340.41 L 1287.23 1381.06 C 1288.5 1383.42 1290.66 1383.73 1291.7 1383.73 C 1291.76 1383.73 1291.82 1383.73 1291.88 1383.73 C 1292.83 1383.7 1295.16 1383.34 1296.33 1380.74 L 1315.29 1338.65 C 1318.07 1332.48 1323.7 1328.08 1330.36 1326.87 L 1375.78 1318.63 C 1378.58 1318.12 1379.5 1315.94 1379.76 1315.03 C 1380.02 1314.12 1380.4 1311.79 1378.29 1309.88 L 1344.12 1278.84 C 1339.11 1274.29 1336.66 1267.57 1337.57 1260.86 L 1343.77 1215.11 C 1344.03 1213.17 1343.25 1211.84 1342.55 1211.07 C 1341.56 1209.97 1340.14 1209.33 1338.73 1209.33 C 1338.67 1209.33 1338.62 1209.33 1338.56 1209.33 C 1337.77 1209.36 1336.98 1209.59 1336.22 1210.03 L 1296.14 1232.93 C 1293.26 1234.58 1289.98 1235.51 1286.66 1235.63 C 1286.42 1235.64 1286.19 1235.64 1285.95 1235.64 C 1282.87 1235.64 1279.8 1234.94 1277.02 1233.61 L 1235.43 1213.58 C 1234.7 1213.22 1233.95 1213.05 1233.21 1213.05 Z  M 2342.47 926.002 C 2340.13 926.002 2337.8 927.11 2336.21 928.971 C 2335.13 930.24 2333.95 932.4 2334.47 935.49 L 2346.6 1008.26 C 2348.37 1018.93 2344.79 1029.78 2337.01 1037.29 L 2283.94 1088.54 C 2280.67 1091.7 2281.39 1095.4 2281.85 1096.84 C 2282.31 1098.28 2283.87 1101.71 2288.37 1102.39 L 2361.33 1113.34 C 2372.02 1114.95 2381.24 1121.71 2385.98 1131.43 L 2418.32 1197.73 C 2420.31 1201.82 2424.05 1202.28 2425.57 1202.29 C 2425.58 1202.29 2425.59 1202.29 2425.6 1202.29 C 2427.14 1202.29 2430.84 1201.84 2432.86 1197.8 L 2465.82 1131.8 C 2470.65 1122.13 2479.93 1115.45 2490.64 1113.95 L 2563.69 1103.68 C 2568.2 1103.05 2569.79 1099.63 2570.27 1098.2 C 2570.74 1096.76 2571.5 1093.06 2568.25 1089.87 L 2515.67 1038.13 C 2507.96 1030.55 2504.48 1019.66 2506.36 1009.01 L 2519.17 936.36 C 2519.71 933.274 2518.55 931.103 2517.49 929.824 C 2515.91 927.939 2513.57 926.807 2511.23 926.796 C 2511.21 926.796 2511.2 926.796 2511.19 926.796 C 2509.93 926.796 2508.67 927.118 2507.44 927.755 L 2441.99 961.776 C 2437.32 964.2 2432.09 965.479 2426.83 965.479 C 2426.78 965.479 2426.73 965.478 2426.68 965.478 C 2421.38 965.453 2416.09 964.123 2411.41 961.633 L 2346.27 926.997 C 2345.04 926.342 2343.78 926.009 2342.5 926.002 C 2342.49 926.002 2342.48 926.002 2342.47 926.002 Z  M 1412 876.124 C 1411.91 876.124 1411.83 876.126 1411.74 876.129 C 1409.4 876.211 1407.09 877.414 1405.57 879.347 C 1404.55 880.657 1403.45 882.864 1404.09 885.93 L 1419.11 958.156 C 1421.32 968.745 1418.17 979.733 1410.69 987.55 L 1359.71 1040.87 C 1356.57 1044.16 1357.44 1047.83 1357.96 1049.25 C 1358.47 1050.67 1360.17 1054.04 1364.69 1054.54 L 1438.02 1062.57 C 1448.77 1063.74 1458.25 1070.13 1463.38 1079.66 L 1498.33 1144.62 C 1500.37 1148.4 1503.82 1148.89 1505.48 1148.89 C 1505.58 1148.89 1505.67 1148.89 1505.76 1148.88 C 1507.27 1148.83 1511 1148.26 1512.87 1144.11 L 1543.17 1076.85 C 1547.61 1066.99 1556.62 1059.95 1567.26 1058.02 L 1639.84 1044.85 C 1644.32 1044.03 1645.77 1040.56 1646.19 1039.1 C 1646.61 1037.64 1647.22 1033.92 1643.85 1030.86 L 1589.24 981.263 C 1581.24 973.99 1577.32 963.251 1578.78 952.533 L 1588.68 879.43 C 1589.1 876.327 1587.86 874.203 1586.74 872.966 C 1585.15 871.214 1582.88 870.187 1580.62 870.187 C 1580.53 870.187 1580.45 870.188 1580.36 870.191 C 1579.09 870.236 1577.83 870.609 1576.62 871.3 L 1512.57 907.906 C 1507.97 910.539 1502.73 912.029 1497.43 912.216 C 1497.05 912.229 1496.67 912.236 1496.28 912.236 C 1491.36 912.236 1486.45 911.119 1482.01 908.983 L 1415.55 876.972 C 1414.38 876.409 1413.19 876.124 1412 876.124 Z " fill-rule="evenodd" fill="url(#_lgradient_294)"/><linearGradient id="_lgradient_295" x1="0" y1="0" x2="1" y2="0" gradientTransform="matrix(273.395,0,0,273.395,1779.16,728.86)" gradientUnits="userSpaceOnUse"><stop offset="0%" stop-opacity="1" style="stop-color:rgb(79,82,255)"/><stop offset="100%" stop-opacity="1" style="stop-color:rgb(64,66,226)"/></linearGradient><path d=" M 1994.95 749.838 C 1974.8 749.168 1951.9 748.43 1928.74 747.697 L 1859.41 714.307 C 1857.88 713.571 1856.32 713.199 1854.77 713.199 C 1854.65 713.199 1854.54 713.201 1854.43 713.205 C 1851.36 713.313 1848.35 714.887 1846.36 717.414 C 1845.02 719.128 1843.59 722.015 1844.42 726.024 L 1848.41 745.189 C 1827.13 744.533 1808.86 743.976 1796.52 743.601 C 1787.04 743.313 1779.47 735.655 1779.27 726.173 C 1779.25 726.218 1779.23 726.239 1779.22 726.239 C 1778.82 726.238 1780.18 708.889 1795.95 707.98 C 1813.86 706.946 1833.85 706.525 1854.53 706.525 C 1925.56 706.525 2004.68 711.492 2035.55 713.639 C 2041.53 714.055 2045.35 716.654 2047.79 719.638 L 1994.95 749.838 Z " fill="url(#_lgradient_295)"/><linearGradient id="_lgradient_296" x1="0" y1="0" x2="1" y2="0" gradientTransform="matrix(329.107,-538.265,538.265,329.107,1801.02,1153.77)" gradientUnits="userSpaceOnUse"><stop offset="0%" stop-opacity="1" style="stop-color:rgb(255,146,142)"/><stop offset="100%" stop-opacity="1" style="stop-color:rgb(254,112,98)"/></linearGradient><path d=" M 1977.04 1069.99 C 1974.87 1069.99 1970.35 1069.35 1967.7 1064.41 L 1921.97 979.433 C 1915.27 966.974 1902.87 958.617 1888.81 957.078 L 1792.88 946.571 C 1786.97 945.922 1784.75 941.52 1784.07 939.657 C 1783.39 937.794 1782.26 932.997 1786.37 928.697 L 1853.06 858.95 C 1862.84 848.725 1866.95 834.351 1864.07 820.501 L 1856.23 782.788 L 1848.41 745.189 L 1844.42 726.024 C 1843.59 722.015 1845.02 719.128 1846.36 717.414 C 1848.35 714.887 1851.36 713.313 1854.43 713.205 C 1854.54 713.201 1854.65 713.199 1854.77 713.199 C 1856.32 713.199 1857.88 713.571 1859.41 714.307 L 1928.74 747.697 L 1946.35 756.179 C 1952.16 758.974 1958.58 760.435 1965.02 760.435 C 1965.52 760.435 1966.01 760.426 1966.51 760.409 C 1973.45 760.164 1980.3 758.214 1986.32 754.771 L 1994.95 749.838 L 2047.79 719.638 L 2070.1 706.888 C 2071.68 705.985 2073.33 705.496 2074.99 705.438 C 2075.11 705.434 2075.22 705.432 2075.33 705.432 C 2078.29 705.432 2081.26 706.776 2083.34 709.068 C 2084.8 710.684 2086.42 713.462 2085.88 717.523 L 2075.81 791.779 L 2072.92 813.146 C 2071.02 827.165 2076.14 841.213 2086.61 850.725 L 2158.04 915.608 C 2162.44 919.61 2161.65 924.474 2161.1 926.38 C 2160.56 928.286 2158.66 932.834 2152.8 933.896 L 2057.85 951.125 C 2043.93 953.65 2032.16 962.858 2026.34 975.758 L 1986.71 1063.74 C 1984.26 1069.16 1979.39 1069.91 1977.41 1069.98 C 1977.3 1069.99 1977.17 1069.99 1977.04 1069.99 Z  M 1886.69 744.873 C 1886.46 744.873 1886.24 744.877 1886.01 744.885 C 1881.29 745.052 1876.71 746.946 1873.11 750.352 C 1868.1 755.089 1865.95 761.964 1867.36 768.742 L 1877.54 817.7 C 1881.34 835.984 1875.91 854.959 1863 868.456 L 1828.44 904.599 C 1823.2 910.085 1821.55 917.923 1824.15 925.056 C 1826.75 932.188 1833.05 937.132 1840.6 937.958 L 1890.3 943.404 C 1908.87 945.436 1925.24 956.467 1934.09 972.915 L 1957.78 1016.95 C 1961.26 1023.42 1967.89 1027.36 1975.19 1027.36 C 1975.43 1027.36 1975.67 1027.36 1975.91 1027.35 C 1983.5 1027.09 1990.14 1022.62 1993.26 1015.7 L 2013.8 970.107 C 2021.47 953.078 2037.02 940.923 2055.4 937.589 L 2104.6 928.661 C 2108.47 927.959 2111.98 926.188 2114.74 923.541 C 2115.71 922.615 2115.75 921.078 2114.82 920.11 C 2114.34 919.612 2113.7 919.361 2113.07 919.361 C 2112.46 919.361 2111.86 919.585 2111.39 920.035 C 2109.31 922.021 2106.67 923.352 2103.73 923.885 L 2054.53 932.813 C 2034.58 936.43 2017.7 949.627 2009.38 968.112 L 1988.84 1013.71 C 1986.45 1019.01 1981.55 1022.3 1975.74 1022.5 C 1975.55 1022.51 1975.36 1022.51 1975.17 1022.51 C 1969.59 1022.51 1964.72 1019.6 1962.06 1014.65 L 1938.36 970.613 C 1928.75 952.759 1910.99 940.783 1890.83 938.577 L 1841.13 933.131 C 1835.34 932.499 1830.71 928.859 1828.71 923.394 C 1826.72 917.929 1827.93 912.159 1831.95 907.956 L 1866.51 871.812 C 1880.52 857.159 1886.42 836.561 1882.3 816.712 L 1872.11 767.754 C 1871.03 762.561 1872.61 757.505 1876.44 753.881 C 1879.3 751.176 1882.96 749.731 1886.7 749.731 C 1887.96 749.731 1889.23 749.895 1890.48 750.23 C 1890.69 750.286 1890.9 750.313 1891.11 750.312 C 1892.19 750.312 1893.17 749.596 1893.46 748.511 C 1893.8 747.216 1893.03 745.886 1891.74 745.539 C 1890.07 745.092 1888.37 744.873 1886.69 744.873 Z  M 2059.92 836.738 C 2059.89 836.738 2059.86 836.738 2059.83 836.739 C 2059.59 836.747 2059.34 836.795 2059.09 836.884 C 2057.83 837.344 2057.18 838.737 2057.64 839.996 C 2061.04 849.34 2066.73 857.814 2074.1 864.502 L 2101.27 889.186 C 2101.74 889.608 2102.32 889.816 2102.9 889.816 C 2103.56 889.816 2104.22 889.548 2104.7 889.021 C 2105.6 888.028 2105.53 886.493 2104.54 885.592 L 2077.36 860.907 C 2070.58 854.747 2065.34 846.941 2062.2 838.335 C 2061.84 837.349 2060.91 836.738 2059.92 836.738 Z  M 1939.33 768.331 C 1938.43 768.331 1937.56 768.838 1937.14 769.707 C 1936.56 770.914 1937.07 772.365 1938.27 772.946 C 1946.59 776.952 1955.8 779.046 1965.02 779.046 C 1965.74 779.046 1966.45 779.034 1967.17 779.008 C 1977.1 778.658 1986.92 775.865 1995.56 770.931 L 2006.77 764.521 C 2007.93 763.856 2008.34 762.372 2007.67 761.209 C 2007.22 760.425 2006.41 759.985 2005.56 759.985 C 2005.53 759.985 2005.51 759.985 2005.48 759.986 C 2005.1 760 2004.71 760.103 2004.36 760.306 L 1993.15 766.716 C 1985.19 771.261 1976.15 773.833 1966.99 774.156 C 1966.34 774.18 1965.68 774.191 1965.02 774.191 C 1956.52 774.191 1948.04 772.262 1940.38 768.572 C 1940.04 768.408 1939.68 768.331 1939.33 768.331 Z " fill-rule="evenodd" fill="url(#_lgradient_296)"/><linearGradient id="_lgradient_297" x1="0" y1="0" x2="1" y2="0" gradientTransform="matrix(329.107,-538.265,538.265,329.107,1801.02,1153.77)" gradientUnits="userSpaceOnUse"><stop offset="0%" stop-opacity="1" style="stop-color:rgb(255,219,218)"/><stop offset="100%" stop-opacity="1" style="stop-color:rgb(255,208,203)"/></linearGradient><path d=" M 2102.9 889.816 C 2102.32 889.816 2101.74 889.608 2101.27 889.186 L 2074.1 864.502 C 2066.73 857.814 2061.04 849.34 2057.64 839.996 C 2057.18 838.737 2057.83 837.344 2059.09 836.884 C 2059.34 836.795 2059.59 836.747 2059.83 836.739 C 2059.86 836.738 2059.89 836.738 2059.92 836.738 C 2060.91 836.738 2061.84 837.349 2062.2 838.335 C 2065.34 846.941 2070.58 854.747 2077.36 860.907 L 2104.54 885.592 C 2105.53 886.493 2105.6 888.028 2104.7 889.021 C 2104.22 889.548 2103.56 889.816 2102.9 889.816 Z " fill="url(#_lgradient_297)"/><linearGradient id="_lgradient_298" x1="0" y1="0" x2="1" y2="0" gradientTransform="matrix(329.107,-538.265,538.265,329.107,1801.02,1153.77)" gradientUnits="userSpaceOnUse"><stop offset="0%" stop-opacity="1" style="stop-color:rgb(255,219,218)"/><stop offset="100%" stop-opacity="1" style="stop-color:rgb(255,208,203)"/></linearGradient><path d=" M 1965.02 779.046 C 1955.8 779.046 1946.59 776.952 1938.27 772.946 C 1937.07 772.365 1936.56 770.914 1937.14 769.707 C 1937.56 768.838 1938.43 768.331 1939.33 768.331 C 1939.68 768.331 1940.04 768.408 1940.38 768.572 C 1948.04 772.262 1956.52 774.191 1965.02 774.191 C 1965.68 774.191 1966.34 774.18 1966.99 774.156 C 1976.15 773.833 1985.19 771.261 1993.15 766.716 L 2004.36 760.306 C 2004.71 760.103 2005.1 760 2005.48 759.986 C 2005.51 759.985 2005.53 759.985 2005.56 759.985 C 2006.41 759.985 2007.22 760.425 2007.67 761.209 C 2008.34 762.372 2007.93 763.856 2006.77 764.521 L 1995.56 770.931 C 1986.92 775.865 1977.1 778.658 1967.17 779.008 C 1966.45 779.034 1965.74 779.046 1965.02 779.046 Z " fill="url(#_lgradient_298)"/><linearGradient id="_lgradient_299" x1="0" y1="0" x2="1" y2="0" gradientTransform="matrix(329.107,-538.265,538.265,329.107,1801.02,1153.77)" gradientUnits="userSpaceOnUse"><stop offset="0%" stop-opacity="1" style="stop-color:rgb(255,219,218)"/><stop offset="100%" stop-opacity="1" style="stop-color:rgb(255,208,203)"/></linearGradient><path d=" M 1975.19 1027.36 C 1967.89 1027.36 1961.26 1023.42 1957.78 1016.95 L 1934.09 972.915 C 1925.24 956.467 1908.87 945.436 1890.3 943.404 L 1840.6 937.958 C 1833.05 937.132 1826.75 932.188 1824.15 925.056 C 1821.55 917.923 1823.2 910.085 1828.44 904.599 L 1863 868.456 C 1875.91 854.959 1881.34 835.984 1877.54 817.7 L 1867.36 768.742 C 1865.95 761.964 1868.1 755.089 1873.11 750.352 C 1876.71 746.946 1881.29 745.052 1886.01 744.885 C 1886.24 744.877 1886.46 744.873 1886.69 744.873 C 1888.37 744.873 1890.07 745.092 1891.74 745.539 C 1893.03 745.886 1893.8 747.216 1893.46 748.511 C 1893.17 749.596 1892.19 750.312 1891.11 750.312 C 1890.9 750.313 1890.69 750.286 1890.48 750.23 C 1889.23 749.895 1887.96 749.731 1886.7 749.731 C 1882.96 749.731 1879.3 751.176 1876.44 753.881 C 1872.61 757.505 1871.03 762.561 1872.11 767.754 L 1882.3 816.712 C 1886.42 836.561 1880.52 857.159 1866.51 871.812 L 1831.95 907.956 C 1827.93 912.159 1826.72 917.929 1828.71 923.394 C 1830.71 928.859 1835.34 932.499 1841.13 933.131 L 1890.83 938.577 C 1910.99 940.783 1928.75 952.759 1938.36 970.613 L 1962.06 1014.65 C 1964.72 1019.6 1969.59 1022.51 1975.17 1022.51 C 1975.36 1022.51 1975.55 1022.51 1975.74 1022.5 C 1981.55 1022.3 1986.45 1019.01 1988.84 1013.71 L 2009.38 968.112 C 2017.7 949.627 2034.58 936.43 2054.53 932.813 L 2103.73 923.885 C 2106.67 923.352 2109.31 922.021 2111.39 920.035 C 2111.86 919.585 2112.46 919.361 2113.07 919.361 C 2113.7 919.361 2114.34 919.612 2114.82 920.11 C 2115.75 921.078 2115.71 922.615 2114.74 923.541 C 2111.98 926.188 2108.47 927.959 2104.6 928.661 L 2055.4 937.589 C 2037.02 940.923 2021.47 953.078 2013.8 970.107 L 1993.26 1015.7 C 1990.14 1022.62 1983.5 1027.09 1975.91 1027.35 C 1975.67 1027.36 1975.43 1027.36 1975.19 1027.36 Z " fill="url(#_lgradient_299)"/><linearGradient id="_lgradient_300" x1="0" y1="0" x2="1" y2="0" gradientTransform="matrix(244.115,340.744,-340.744,244.115,1354.38,796.673)" gradientUnits="userSpaceOnUse"><stop offset="0%" stop-opacity="1" style="stop-color:rgb(255,146,142)"/><stop offset="100%" stop-opacity="1" style="stop-color:rgb(254,112,98)"/></linearGradient><path d=" M 1505.48 1148.89 C 1503.82 1148.89 1500.37 1148.4 1498.33 1144.62 L 1463.38 1079.66 C 1458.25 1070.13 1448.77 1063.74 1438.02 1062.57 L 1364.69 1054.54 C 1360.17 1054.04 1358.47 1050.67 1357.96 1049.25 C 1357.44 1047.83 1356.57 1044.16 1359.71 1040.87 L 1410.69 987.55 C 1418.17 979.733 1421.32 968.745 1419.11 958.156 L 1404.09 885.93 C 1403.45 882.864 1404.55 880.657 1405.57 879.347 C 1407.09 877.414 1409.4 876.211 1411.74 876.129 C 1411.83 876.126 1411.91 876.124 1412 876.124 C 1413.19 876.124 1414.38 876.409 1415.55 876.972 L 1482.01 908.983 C 1486.45 911.119 1491.36 912.236 1496.28 912.236 C 1496.67 912.236 1497.05 912.229 1497.43 912.216 C 1502.73 912.029 1507.97 910.539 1512.57 907.906 L 1576.62 871.3 C 1577.83 870.609 1579.09 870.236 1580.36 870.191 C 1580.45 870.188 1580.53 870.187 1580.62 870.187 C 1582.88 870.187 1585.15 871.214 1586.74 872.966 C 1587.86 874.203 1589.1 876.327 1588.68 879.43 L 1578.78 952.533 C 1577.32 963.251 1581.24 973.99 1589.24 981.263 L 1643.85 1030.86 C 1647.22 1033.92 1646.61 1037.64 1646.19 1039.1 C 1645.77 1040.56 1644.32 1044.03 1639.84 1044.85 L 1567.26 1058.02 C 1556.62 1059.95 1547.61 1066.99 1543.17 1076.85 L 1512.87 1144.11 C 1511 1148.26 1507.27 1148.83 1505.76 1148.88 C 1505.67 1148.89 1505.58 1148.89 1505.48 1148.89 Z  M 1436.4 900.339 C 1436.23 900.339 1436.06 900.342 1435.88 900.348 C 1432.27 900.476 1428.78 901.923 1426.02 904.528 C 1422.19 908.15 1420.55 913.405 1421.63 918.587 L 1429.41 956.015 C 1432.32 969.993 1428.16 984.498 1418.3 994.818 L 1391.88 1022.45 C 1387.87 1026.64 1386.61 1032.64 1388.6 1038.09 C 1390.58 1043.54 1395.4 1047.32 1401.17 1047.95 L 1439.17 1052.11 C 1453.36 1053.67 1465.87 1062.1 1472.64 1074.67 L 1490.75 1108.34 C 1493.42 1113.29 1498.48 1116.3 1504.06 1116.3 C 1504.25 1116.3 1504.43 1116.3 1504.61 1116.29 C 1510.41 1116.09 1515.49 1112.67 1517.88 1107.38 L 1533.58 1072.53 C 1539.45 1059.51 1551.33 1050.22 1565.38 1047.67 L 1602.99 1040.84 C 1605.96 1040.31 1608.64 1038.95 1610.75 1036.93 C 1611.49 1036.22 1611.52 1035.05 1610.81 1034.31 C 1610.44 1033.93 1609.96 1033.73 1609.47 1033.73 C 1609.01 1033.73 1608.54 1033.9 1608.18 1034.25 C 1606.6 1035.77 1604.58 1036.78 1602.33 1037.19 L 1564.72 1044.02 C 1549.47 1046.78 1536.56 1056.87 1530.2 1071 L 1514.49 1105.86 C 1512.67 1109.91 1508.93 1112.43 1504.48 1112.58 C 1504.34 1112.59 1504.19 1112.59 1504.05 1112.59 C 1499.78 1112.59 1496.06 1110.37 1494.02 1106.58 L 1475.91 1072.92 C 1468.56 1059.27 1454.98 1050.11 1439.57 1048.42 L 1401.57 1044.26 C 1397.15 1043.78 1393.6 1040.99 1392.08 1036.82 C 1390.56 1032.64 1391.49 1028.23 1394.56 1025.01 L 1420.98 997.383 C 1431.69 986.18 1436.2 970.433 1433.04 955.259 L 1425.26 917.832 C 1424.43 913.862 1425.64 909.996 1428.57 907.226 C 1430.76 905.158 1433.56 904.053 1436.42 904.053 C 1437.38 904.053 1438.35 904.178 1439.31 904.434 C 1439.47 904.477 1439.63 904.497 1439.79 904.497 C 1440.61 904.497 1441.36 903.95 1441.58 903.12 C 1441.84 902.13 1441.25 901.113 1440.26 900.848 C 1438.99 900.506 1437.69 900.339 1436.4 900.339 Z  M 1568.84 970.569 C 1568.82 970.569 1568.8 970.57 1568.77 970.571 C 1568.58 970.576 1568.39 970.612 1568.2 970.681 C 1567.24 971.032 1566.74 972.098 1567.09 973.06 C 1569.7 980.203 1574.05 986.681 1579.68 991.795 L 1600.45 1010.67 C 1600.81 1010.99 1601.25 1011.15 1601.7 1011.15 C 1602.2 1011.15 1602.71 1010.94 1603.07 1010.54 C 1603.76 1009.78 1603.7 1008.61 1602.95 1007.92 L 1582.17 989.046 C 1576.99 984.337 1572.98 978.369 1570.58 971.79 C 1570.31 971.037 1569.6 970.569 1568.84 970.569 Z  M 1476.65 918.273 C 1475.96 918.273 1475.29 918.66 1474.97 919.324 C 1474.53 920.247 1474.92 921.357 1475.84 921.801 C 1482.2 924.863 1489.23 926.464 1496.29 926.464 C 1496.83 926.464 1497.38 926.454 1497.93 926.435 C 1505.53 926.168 1513.03 924.032 1519.63 920.261 L 1528.21 915.36 C 1529.1 914.852 1529.4 913.718 1528.9 912.828 C 1528.55 912.228 1527.93 911.892 1527.28 911.892 C 1527.26 911.892 1527.24 911.893 1527.22 911.893 C 1526.93 911.904 1526.63 911.984 1526.36 912.138 L 1517.79 917.038 C 1511.71 920.512 1504.8 922.48 1497.8 922.727 C 1497.3 922.744 1496.8 922.753 1496.3 922.753 C 1489.8 922.753 1483.31 921.279 1477.45 918.458 C 1477.19 918.332 1476.92 918.273 1476.65 918.273 Z " fill-rule="evenodd" fill="url(#_lgradient_300)"/><linearGradient id="_lgradient_301" x1="0" y1="0" x2="1" y2="0" gradientTransform="matrix(244.115,340.744,-340.744,244.115,1354.38,796.673)" gradientUnits="userSpaceOnUse"><stop offset="0%" stop-opacity="1" style="stop-color:rgb(255,219,218)"/><stop offset="100%" stop-opacity="1" style="stop-color:rgb(255,208,203)"/></linearGradient><path d=" M 1601.7 1011.15 C 1601.25 1011.15 1600.81 1010.99 1600.45 1010.67 L 1579.68 991.795 C 1574.05 986.681 1569.7 980.203 1567.09 973.06 C 1566.74 972.098 1567.24 971.032 1568.2 970.681 C 1568.39 970.612 1568.58 970.576 1568.77 970.571 C 1568.8 970.57 1568.82 970.569 1568.84 970.569 C 1569.6 970.569 1570.31 971.037 1570.58 971.79 C 1572.98 978.369 1576.99 984.337 1582.17 989.046 L 1602.95 1007.92 C 1603.7 1008.61 1603.76 1009.78 1603.07 1010.54 C 1602.71 1010.94 1602.2 1011.15 1601.7 1011.15 Z " fill="url(#_lgradient_301)"/><linearGradient id="_lgradient_302" x1="0" y1="0" x2="1" y2="0" gradientTransform="matrix(244.115,340.744,-340.744,244.115,1354.38,796.673)" gradientUnits="userSpaceOnUse"><stop offset="0%" stop-opacity="1" style="stop-color:rgb(255,219,218)"/><stop offset="100%" stop-opacity="1" style="stop-color:rgb(255,208,203)"/></linearGradient><path d=" M 1496.29 926.464 C 1489.23 926.464 1482.2 924.863 1475.84 921.801 C 1474.92 921.357 1474.53 920.247 1474.97 919.324 C 1475.29 918.66 1475.96 918.273 1476.65 918.273 C 1476.92 918.273 1477.19 918.332 1477.45 918.458 C 1483.31 921.279 1489.8 922.753 1496.3 922.753 C 1496.8 922.753 1497.3 922.744 1497.8 922.727 C 1504.8 922.48 1511.71 920.512 1517.79 917.038 L 1526.36 912.138 C 1526.63 911.984 1526.93 911.904 1527.22 911.893 C 1527.24 911.893 1527.26 911.892 1527.28 911.892 C 1527.93 911.892 1528.55 912.228 1528.9 912.828 C 1529.4 913.718 1529.1 914.852 1528.21 915.36 L 1519.63 920.261 C 1513.03 924.032 1505.53 926.168 1497.93 926.435 C 1497.38 926.454 1496.83 926.464 1496.29 926.464 Z " fill="url(#_lgradient_302)"/><linearGradient id="_lgradient_303" x1="0" y1="0" x2="1" y2="0" gradientTransform="matrix(244.115,340.744,-340.744,244.115,1354.38,796.673)" gradientUnits="userSpaceOnUse"><stop offset="0%" stop-opacity="1" style="stop-color:rgb(255,219,218)"/><stop offset="100%" stop-opacity="1" style="stop-color:rgb(255,208,203)"/></linearGradient><path d=" M 1504.06 1116.3 C 1498.48 1116.3 1493.42 1113.29 1490.75 1108.34 L 1472.64 1074.67 C 1465.87 1062.1 1453.36 1053.67 1439.17 1052.11 L 1401.17 1047.95 C 1395.4 1047.32 1390.58 1043.54 1388.6 1038.09 C 1386.61 1032.64 1387.87 1026.64 1391.88 1022.45 L 1418.3 994.818 C 1428.16 984.498 1432.32 969.993 1429.41 956.015 L 1421.63 918.587 C 1420.55 913.405 1422.19 908.15 1426.02 904.528 C 1428.78 901.923 1432.27 900.476 1435.88 900.348 C 1436.06 900.342 1436.23 900.339 1436.4 900.339 C 1437.69 900.339 1438.99 900.506 1440.26 900.848 C 1441.25 901.113 1441.84 902.13 1441.58 903.12 C 1441.36 903.95 1440.61 904.497 1439.79 904.497 C 1439.63 904.497 1439.47 904.477 1439.31 904.434 C 1438.35 904.178 1437.38 904.053 1436.42 904.053 C 1433.56 904.053 1430.76 905.158 1428.57 907.226 C 1425.64 909.996 1424.43 913.862 1425.26 917.832 L 1433.04 955.259 C 1436.2 970.433 1431.69 986.18 1420.98 997.383 L 1394.56 1025.01 C 1391.49 1028.23 1390.56 1032.64 1392.08 1036.82 C 1393.6 1040.99 1397.15 1043.78 1401.57 1044.26 L 1439.57 1048.42 C 1454.98 1050.11 1468.56 1059.27 1475.91 1072.92 L 1494.02 1106.58 C 1496.06 1110.37 1499.78 1112.59 1504.05 1112.59 C 1504.19 1112.59 1504.34 1112.59 1504.48 1112.58 C 1508.93 1112.43 1512.67 1109.91 1514.49 1105.86 L 1530.2 1071 C 1536.56 1056.87 1549.47 1046.78 1564.72 1044.02 L 1602.33 1037.19 C 1604.58 1036.78 1606.6 1035.77 1608.18 1034.25 C 1608.54 1033.9 1609.01 1033.73 1609.47 1033.73 C 1609.96 1033.73 1610.44 1033.93 1610.81 1034.31 C 1611.52 1035.05 1611.49 1036.22 1610.75 1036.93 C 1608.64 1038.95 1605.96 1040.31 1602.99 1040.84 L 1565.38 1047.67 C 1551.33 1050.22 1539.45 1059.51 1533.58 1072.53 L 1517.88 1107.38 C 1515.49 1112.67 1510.41 1116.09 1504.61 1116.29 C 1504.43 1116.3 1504.25 1116.3 1504.06 1116.3 Z " fill="url(#_lgradient_303)"/><linearGradient id="_lgradient_304" x1="0" y1="0" x2="1" y2="0" gradientTransform="matrix(294.972,193.258,-193.258,294.972,1142.19,1183.2)" gradientUnits="userSpaceOnUse"><stop offset="0%" stop-opacity="1" style="stop-color:rgb(255,146,142)"/><stop offset="100%" stop-opacity="1" style="stop-color:rgb(254,112,98)"/></linearGradient><path d=" M 1291.7 1383.73 C 1290.66 1383.73 1288.5 1383.42 1287.23 1381.06 L 1265.36 1340.41 C 1262.15 1334.45 1256.22 1330.45 1249.49 1329.72 L 1203.6 1324.69 C 1200.77 1324.38 1199.71 1322.27 1199.39 1321.38 C 1199.06 1320.49 1198.52 1318.2 1200.49 1316.14 L 1232.39 1282.77 C 1237.07 1277.88 1239.04 1271 1237.66 1264.38 L 1228.26 1219.18 C 1227.86 1217.26 1228.54 1215.88 1229.19 1215.06 C 1230.13 1213.85 1231.58 1213.1 1233.04 1213.05 C 1233.1 1213.05 1233.16 1213.05 1233.21 1213.05 C 1233.95 1213.05 1234.7 1213.22 1235.43 1213.58 L 1277.02 1233.61 C 1279.8 1234.94 1282.87 1235.64 1285.95 1235.64 C 1286.19 1235.64 1286.42 1235.64 1286.66 1235.63 C 1289.98 1235.51 1293.26 1234.58 1296.14 1232.93 L 1336.22 1210.03 C 1336.98 1209.59 1337.77 1209.36 1338.56 1209.33 C 1338.62 1209.33 1338.67 1209.33 1338.73 1209.33 C 1340.14 1209.33 1341.56 1209.97 1342.55 1211.07 C 1343.25 1211.84 1344.03 1213.17 1343.77 1215.11 L 1337.57 1260.86 C 1336.66 1267.57 1339.11 1274.29 1344.12 1278.84 L 1378.29 1309.88 C 1380.4 1311.79 1380.02 1314.12 1379.76 1315.03 C 1379.5 1315.94 1378.58 1318.12 1375.78 1318.63 L 1330.36 1326.87 C 1323.7 1328.08 1318.07 1332.48 1315.29 1338.65 L 1296.33 1380.74 C 1295.16 1383.34 1292.83 1383.7 1291.88 1383.73 C 1291.82 1383.73 1291.76 1383.73 1291.7 1383.73 Z  M 1248.48 1228.2 C 1248.37 1228.2 1248.26 1228.2 1248.15 1228.2 C 1245.89 1228.28 1243.7 1229.19 1241.98 1230.82 C 1239.58 1233.09 1238.55 1236.38 1239.23 1239.62 L 1244.1 1263.04 C 1245.92 1271.79 1243.32 1280.86 1237.15 1287.32 L 1220.61 1304.61 C 1218.1 1307.24 1217.32 1310.99 1218.56 1314.4 C 1219.8 1317.81 1222.82 1320.17 1226.43 1320.57 L 1250.21 1323.18 C 1259.09 1324.15 1266.92 1329.42 1271.15 1337.29 L 1282.49 1358.36 C 1284.15 1361.46 1287.32 1363.34 1290.82 1363.34 C 1290.93 1363.34 1291.05 1363.34 1291.16 1363.34 C 1294.79 1363.21 1297.97 1361.07 1299.46 1357.76 L 1309.29 1335.95 C 1312.96 1327.8 1320.4 1321.99 1329.19 1320.39 L 1352.72 1316.12 C 1354.58 1315.79 1356.26 1314.94 1357.58 1313.67 C 1358.04 1313.23 1358.06 1312.49 1357.61 1312.03 C 1357.39 1311.79 1357.08 1311.67 1356.77 1311.67 C 1356.49 1311.67 1356.2 1311.78 1355.97 1312 C 1354.98 1312.95 1353.71 1313.58 1352.31 1313.84 L 1328.77 1318.11 C 1319.23 1319.84 1311.15 1326.15 1307.17 1335 L 1297.34 1356.81 C 1296.2 1359.34 1293.86 1360.92 1291.08 1361.01 C 1290.99 1361.02 1290.9 1361.02 1290.8 1361.02 C 1288.14 1361.02 1285.81 1359.63 1284.53 1357.26 L 1273.2 1336.19 C 1268.6 1327.65 1260.1 1321.92 1250.46 1320.87 L 1226.68 1318.26 C 1223.91 1317.96 1221.7 1316.22 1220.74 1313.6 C 1219.79 1310.99 1220.37 1308.23 1222.29 1306.22 L 1238.82 1288.93 C 1245.53 1281.92 1248.35 1272.06 1246.38 1262.57 L 1241.5 1239.14 C 1240.99 1236.66 1241.74 1234.24 1243.58 1232.51 C 1244.94 1231.21 1246.7 1230.52 1248.49 1230.52 C 1249.09 1230.52 1249.69 1230.6 1250.29 1230.76 C 1250.39 1230.79 1250.5 1230.8 1250.59 1230.8 C 1251.11 1230.8 1251.58 1230.46 1251.71 1229.94 C 1251.88 1229.32 1251.51 1228.68 1250.89 1228.52 C 1250.09 1228.3 1249.28 1228.2 1248.48 1228.2 Z  M 1331.35 1272.15 C 1331.34 1272.15 1331.32 1272.15 1331.31 1272.15 C 1331.19 1272.15 1331.07 1272.17 1330.95 1272.22 C 1330.35 1272.44 1330.04 1273.1 1330.26 1273.71 C 1331.89 1278.17 1334.61 1282.23 1338.13 1285.43 L 1351.13 1297.24 C 1351.36 1297.44 1351.63 1297.54 1351.91 1297.54 C 1352.23 1297.54 1352.54 1297.41 1352.77 1297.16 C 1353.2 1296.68 1353.17 1295.95 1352.69 1295.52 L 1339.69 1283.71 C 1336.45 1280.76 1333.94 1277.03 1332.44 1272.91 C 1332.27 1272.44 1331.83 1272.15 1331.35 1272.15 Z  M 1273.66 1239.42 C 1273.23 1239.42 1272.81 1239.66 1272.61 1240.08 C 1272.33 1240.66 1272.58 1241.35 1273.16 1241.63 C 1277.14 1243.55 1281.54 1244.55 1285.95 1244.55 C 1286.3 1244.55 1286.64 1244.54 1286.98 1244.53 C 1291.73 1244.36 1296.43 1243.03 1300.56 1240.67 L 1305.92 1237.6 C 1306.48 1237.28 1306.67 1236.57 1306.36 1236.01 C 1306.14 1235.64 1305.75 1235.43 1305.34 1235.43 C 1305.33 1235.43 1305.32 1235.43 1305.31 1235.43 C 1305.12 1235.44 1304.94 1235.49 1304.77 1235.58 L 1299.41 1238.65 C 1295.6 1240.82 1291.27 1242.05 1286.9 1242.21 C 1286.58 1242.22 1286.27 1242.22 1285.95 1242.22 C 1281.89 1242.22 1277.83 1241.3 1274.16 1239.54 C 1274 1239.46 1273.83 1239.42 1273.66 1239.42 Z " fill-rule="evenodd" fill="url(#_lgradient_304)"/><linearGradient id="_lgradient_305" x1="0" y1="0" x2="1" y2="0" gradientTransform="matrix(294.972,193.258,-193.258,294.972,1142.19,1183.2)" gradientUnits="userSpaceOnUse"><stop offset="0%" stop-opacity="1" style="stop-color:rgb(255,219,218)"/><stop offset="100%" stop-opacity="1" style="stop-color:rgb(255,208,203)"/></linearGradient><path d=" M 1351.91 1297.54 C 1351.63 1297.54 1351.36 1297.44 1351.13 1297.24 L 1338.13 1285.43 C 1334.61 1282.23 1331.89 1278.17 1330.26 1273.71 C 1330.04 1273.1 1330.35 1272.44 1330.95 1272.22 C 1331.07 1272.17 1331.19 1272.15 1331.31 1272.15 C 1331.32 1272.15 1331.34 1272.15 1331.35 1272.15 C 1331.83 1272.15 1332.27 1272.44 1332.44 1272.91 C 1333.94 1277.03 1336.45 1280.76 1339.69 1283.71 L 1352.69 1295.52 C 1353.17 1295.95 1353.2 1296.68 1352.77 1297.16 C 1352.54 1297.41 1352.23 1297.54 1351.91 1297.54 Z " fill="url(#_lgradient_305)"/><linearGradient id="_lgradient_306" x1="0" y1="0" x2="1" y2="0" gradientTransform="matrix(294.972,193.258,-193.258,294.972,1142.19,1183.2)" gradientUnits="userSpaceOnUse"><stop offset="0%" stop-opacity="1" style="stop-color:rgb(255,219,218)"/><stop offset="100%" stop-opacity="1" style="stop-color:rgb(255,208,203)"/></linearGradient><path d=" M 1285.95 1244.55 C 1281.54 1244.55 1277.14 1243.55 1273.16 1241.63 C 1272.58 1241.35 1272.33 1240.66 1272.61 1240.08 C 1272.81 1239.66 1273.23 1239.42 1273.66 1239.42 C 1273.83 1239.42 1274 1239.46 1274.16 1239.54 C 1277.83 1241.3 1281.89 1242.22 1285.95 1242.22 C 1286.27 1242.22 1286.58 1242.22 1286.9 1242.21 C 1291.27 1242.05 1295.6 1240.82 1299.41 1238.65 L 1304.77 1235.58 C 1304.94 1235.49 1305.12 1235.44 1305.31 1235.43 C 1305.32 1235.43 1305.33 1235.43 1305.34 1235.43 C 1305.75 1235.43 1306.14 1235.64 1306.36 1236.01 C 1306.67 1236.57 1306.48 1237.28 1305.92 1237.6 L 1300.56 1240.67 C 1296.43 1243.03 1291.73 1244.36 1286.98 1244.53 C 1286.64 1244.54 1286.3 1244.55 1285.95 1244.55 Z " fill="url(#_lgradient_306)"/><linearGradient id="_lgradient_307" x1="0" y1="0" x2="1" y2="0" gradientTransform="matrix(294.972,193.258,-193.258,294.972,1142.19,1183.2)" gradientUnits="userSpaceOnUse"><stop offset="0%" stop-opacity="1" style="stop-color:rgb(255,219,218)"/><stop offset="100%" stop-opacity="1" style="stop-color:rgb(255,208,203)"/></linearGradient><path d=" M 1290.82 1363.34 C 1287.32 1363.34 1284.15 1361.46 1282.49 1358.36 L 1271.15 1337.29 C 1266.92 1329.42 1259.09 1324.15 1250.21 1323.18 L 1226.43 1320.57 C 1222.82 1320.17 1219.8 1317.81 1218.56 1314.4 C 1217.32 1310.99 1218.1 1307.24 1220.61 1304.61 L 1237.15 1287.32 C 1243.32 1280.86 1245.92 1271.79 1244.1 1263.04 L 1239.23 1239.62 C 1238.55 1236.38 1239.58 1233.09 1241.98 1230.82 C 1243.7 1229.19 1245.89 1228.28 1248.15 1228.2 C 1248.26 1228.2 1248.37 1228.2 1248.48 1228.2 C 1249.28 1228.2 1250.09 1228.3 1250.89 1228.52 C 1251.51 1228.68 1251.88 1229.32 1251.71 1229.94 C 1251.58 1230.46 1251.11 1230.8 1250.59 1230.8 C 1250.5 1230.8 1250.39 1230.79 1250.29 1230.76 C 1249.69 1230.6 1249.09 1230.52 1248.49 1230.52 C 1246.7 1230.52 1244.94 1231.21 1243.58 1232.51 C 1241.74 1234.24 1240.99 1236.66 1241.5 1239.14 L 1246.38 1262.57 C 1248.35 1272.06 1245.53 1281.92 1238.82 1288.93 L 1222.29 1306.22 C 1220.37 1308.23 1219.79 1310.99 1220.74 1313.6 C 1221.7 1316.22 1223.91 1317.96 1226.68 1318.26 L 1250.46 1320.87 C 1260.1 1321.92 1268.6 1327.65 1273.2 1336.19 L 1284.53 1357.26 C 1285.81 1359.63 1288.14 1361.02 1290.8 1361.02 C 1290.9 1361.02 1290.99 1361.02 1291.08 1361.01 C 1293.86 1360.92 1296.2 1359.34 1297.34 1356.81 L 1307.17 1335 C 1311.15 1326.15 1319.23 1319.84 1328.77 1318.11 L 1352.31 1313.84 C 1353.71 1313.58 1354.98 1312.95 1355.97 1312 C 1356.2 1311.78 1356.49 1311.67 1356.77 1311.67 C 1357.08 1311.67 1357.39 1311.79 1357.61 1312.03 C 1358.06 1312.49 1358.04 1313.23 1357.58 1313.67 C 1356.26 1314.94 1354.58 1315.79 1352.72 1316.12 L 1329.19 1320.39 C 1320.4 1321.99 1312.96 1327.8 1309.29 1335.95 L 1299.46 1357.76 C 1297.97 1361.07 1294.79 1363.21 1291.16 1363.34 C 1291.05 1363.34 1290.93 1363.34 1290.82 1363.34 Z " fill="url(#_lgradient_307)"/><linearGradient id="_lgradient_308" x1="0" y1="0" x2="1" y2="0" gradientTransform="matrix(400.043,-306.895,306.895,400.043,2183.37,1221.41)" gradientUnits="userSpaceOnUse"><stop offset="0%" stop-opacity="1" style="stop-color:rgb(255,146,142)"/><stop offset="100%" stop-opacity="1" style="stop-color:rgb(254,112,98)"/></linearGradient><path d=" M 2425.6 1202.29 C 2425.59 1202.29 2425.58 1202.29 2425.57 1202.29 C 2424.05 1202.28 2420.31 1201.82 2418.32 1197.73 L 2385.98 1131.43 C 2381.24 1121.71 2372.02 1114.95 2361.33 1113.34 L 2288.37 1102.39 C 2283.87 1101.71 2282.31 1098.28 2281.85 1096.84 C 2281.39 1095.4 2280.67 1091.7 2283.94 1088.54 L 2337.01 1037.29 C 2344.79 1029.78 2348.37 1018.93 2346.6 1008.26 L 2334.47 935.49 C 2333.95 932.4 2335.13 930.24 2336.21 928.971 C 2337.8 927.11 2340.13 926.002 2342.47 926.002 C 2342.48 926.002 2342.49 926.002 2342.5 926.002 C 2343.78 926.009 2345.04 926.342 2346.27 926.997 L 2411.41 961.633 C 2416.09 964.123 2421.38 965.453 2426.68 965.478 C 2426.73 965.478 2426.78 965.479 2426.83 965.479 C 2432.09 965.479 2437.32 964.2 2441.99 961.776 L 2507.44 927.755 C 2508.67 927.118 2509.93 926.796 2511.19 926.796 C 2511.2 926.796 2511.21 926.796 2511.23 926.796 C 2513.57 926.807 2515.91 927.939 2517.49 929.824 C 2518.55 931.103 2519.71 933.274 2519.17 936.36 L 2506.36 1009.01 C 2504.48 1019.66 2507.96 1030.55 2515.67 1038.13 L 2568.25 1089.87 C 2571.5 1093.06 2570.74 1096.76 2570.27 1098.2 C 2569.79 1099.63 2568.2 1103.05 2563.69 1103.68 L 2490.64 1113.95 C 2479.93 1115.45 2470.65 1122.13 2465.82 1131.8 L 2432.86 1197.8 C 2430.84 1201.84 2427.14 1202.29 2425.6 1202.29 Z  M 2318.45 1090.36 C 2317.95 1090.36 2317.44 1090.56 2317.07 1090.97 C 2316.39 1091.73 2316.45 1092.9 2317.21 1093.59 C 2319.38 1095.55 2322.11 1096.82 2325.08 1097.27 L 2362.89 1102.94 C 2377.01 1105.06 2389.17 1113.99 2395.43 1126.82 L 2412.19 1161.18 C 2414.73 1166.39 2419.92 1169.65 2425.72 1169.68 C 2425.74 1169.68 2425.77 1169.68 2425.79 1169.68 C 2431.57 1169.68 2436.75 1166.48 2439.33 1161.31 L 2456.41 1127.11 C 2462.79 1114.33 2475.04 1105.52 2489.18 1103.54 L 2527.03 1098.22 C 2532.78 1097.41 2537.48 1093.48 2539.3 1087.97 C 2541.12 1082.46 2539.68 1076.51 2535.54 1072.44 L 2508.29 1045.63 C 2498.12 1035.62 2493.52 1021.24 2496 1007.18 L 2502.64 969.535 C 2503.56 964.323 2501.76 959.12 2497.82 955.618 C 2494.98 953.098 2491.44 951.758 2487.83 951.74 C 2487.81 951.74 2487.79 951.74 2487.76 951.74 C 2486.33 951.74 2484.89 951.948 2483.47 952.373 C 2482.49 952.668 2481.93 953.703 2482.23 954.684 C 2482.47 955.488 2483.2 956.007 2484 956.007 C 2484.18 956.007 2484.36 955.981 2484.54 955.928 C 2485.6 955.61 2486.68 955.454 2487.75 955.454 C 2490.49 955.454 2493.19 956.47 2495.35 958.391 C 2498.36 961.07 2499.69 964.898 2498.98 968.891 L 2492.34 1006.54 C 2489.65 1021.8 2494.64 1037.4 2505.69 1048.27 L 2532.94 1075.09 C 2536.11 1078.21 2537.17 1082.59 2535.77 1086.81 C 2534.38 1091.03 2530.92 1093.92 2526.52 1094.54 L 2488.66 1099.86 C 2473.31 1102.01 2460.02 1111.58 2453.09 1125.45 L 2436.01 1159.65 C 2434.03 1163.61 2430.22 1165.97 2425.8 1165.97 C 2425.78 1165.97 2425.76 1165.97 2425.74 1165.97 C 2421.29 1165.95 2417.47 1163.55 2415.52 1159.55 L 2398.77 1125.19 C 2391.97 1111.26 2378.77 1101.57 2363.44 1099.27 L 2325.63 1093.6 C 2323.38 1093.26 2321.33 1092.3 2319.7 1090.83 C 2319.34 1090.51 2318.9 1090.36 2318.45 1090.36 Z  M 2357.14 1025.98 C 2356.36 1025.98 2355.63 1026.48 2355.38 1027.26 C 2353.18 1033.9 2349.36 1039.99 2344.32 1044.86 L 2324.13 1064.35 C 2323.39 1065.06 2323.37 1066.24 2324.08 1066.98 C 2324.45 1067.35 2324.93 1067.54 2325.42 1067.54 C 2325.88 1067.54 2326.35 1067.37 2326.71 1067.02 L 2346.9 1047.53 C 2352.37 1042.25 2356.52 1035.64 2358.9 1028.42 C 2359.22 1027.45 2358.69 1026.4 2357.72 1026.07 C 2357.53 1026.01 2357.34 1025.98 2357.15 1025.98 C 2357.14 1025.98 2357.14 1025.98 2357.14 1025.98 Z  M 2396.88 966.065 C 2396.22 966.065 2395.58 966.423 2395.24 967.05 C 2394.76 967.954 2395.11 969.079 2396.01 969.559 L 2404.73 974.197 C 2411.44 977.766 2419.01 979.671 2426.61 979.707 C 2426.68 979.707 2426.76 979.707 2426.83 979.707 C 2434.36 979.707 2441.86 977.875 2448.55 974.401 C 2449.46 973.929 2449.81 972.808 2449.34 971.899 C 2449.01 971.262 2448.36 970.898 2447.69 970.898 C 2447.4 970.898 2447.11 970.965 2446.84 971.107 C 2440.68 974.307 2433.77 975.996 2426.83 975.996 C 2426.76 975.996 2426.7 975.996 2426.63 975.995 C 2419.63 975.962 2412.66 974.207 2406.47 970.919 L 2397.75 966.283 C 2397.48 966.136 2397.18 966.066 2396.89 966.065 C 2396.89 966.065 2396.89 966.065 2396.88 966.065 Z " fill-rule="evenodd" fill="url(#_lgradient_308)"/><linearGradient id="_lgradient_309" x1="0" y1="0" x2="1" y2="0" gradientTransform="matrix(400.043,-306.895,306.895,400.043,2183.37,1221.41)" gradientUnits="userSpaceOnUse"><stop offset="0%" stop-opacity="1" style="stop-color:rgb(255,219,218)"/><stop offset="100%" stop-opacity="1" style="stop-color:rgb(255,208,203)"/></linearGradient><path d=" M 2325.42 1067.54 C 2324.93 1067.54 2324.45 1067.35 2324.08 1066.98 C 2323.37 1066.24 2323.39 1065.06 2324.13 1064.35 L 2344.32 1044.86 C 2349.36 1039.99 2353.18 1033.9 2355.38 1027.26 C 2355.63 1026.48 2356.36 1025.98 2357.14 1025.98 C 2357.14 1025.98 2357.14 1025.98 2357.15 1025.98 C 2357.34 1025.98 2357.53 1026.01 2357.72 1026.07 C 2358.69 1026.4 2359.22 1027.45 2358.9 1028.42 C 2356.52 1035.64 2352.37 1042.25 2346.9 1047.53 L 2326.71 1067.02 C 2326.35 1067.37 2325.88 1067.54 2325.42 1067.54 Z " fill="url(#_lgradient_309)"/><linearGradient id="_lgradient_310" x1="0" y1="0" x2="1" y2="0" gradientTransform="matrix(400.043,-306.895,306.895,400.043,2183.37,1221.41)" gradientUnits="userSpaceOnUse"><stop offset="0%" stop-opacity="1" style="stop-color:rgb(255,219,218)"/><stop offset="100%" stop-opacity="1" style="stop-color:rgb(255,208,203)"/></linearGradient><path d=" M 2426.83 979.707 C 2426.76 979.707 2426.68 979.707 2426.61 979.707 C 2419.01 979.671 2411.44 977.766 2404.73 974.197 L 2396.01 969.559 C 2395.11 969.079 2394.76 967.954 2395.24 967.05 C 2395.58 966.423 2396.22 966.065 2396.88 966.065 C 2396.89 966.065 2396.89 966.065 2396.89 966.065 C 2397.18 966.066 2397.48 966.136 2397.75 966.283 L 2406.47 970.919 C 2412.66 974.207 2419.63 975.962 2426.63 975.995 C 2426.7 975.996 2426.76 975.996 2426.83 975.996 C 2433.77 975.996 2440.68 974.307 2446.84 971.107 C 2447.11 970.965 2447.4 970.898 2447.69 970.898 C 2448.36 970.898 2449.01 971.262 2449.34 971.899 C 2449.81 972.808 2449.46 973.929 2448.55 974.401 C 2441.86 977.875 2434.36 979.707 2426.83 979.707 Z " fill="url(#_lgradient_310)"/><linearGradient id="_lgradient_311" x1="0" y1="0" x2="1" y2="0" gradientTransform="matrix(400.043,-306.895,306.895,400.043,2183.37,1221.41)" gradientUnits="userSpaceOnUse"><stop offset="0%" stop-opacity="1" style="stop-color:rgb(255,219,218)"/><stop offset="100%" stop-opacity="1" style="stop-color:rgb(255,208,203)"/></linearGradient><path d=" M 2425.79 1169.68 C 2425.77 1169.68 2425.74 1169.68 2425.72 1169.68 C 2419.92 1169.65 2414.73 1166.39 2412.19 1161.18 L 2395.43 1126.82 C 2389.17 1113.99 2377.01 1105.06 2362.89 1102.94 L 2325.08 1097.27 C 2322.11 1096.82 2319.38 1095.55 2317.21 1093.59 C 2316.45 1092.9 2316.39 1091.73 2317.07 1090.97 C 2317.44 1090.56 2317.95 1090.36 2318.45 1090.36 C 2318.9 1090.36 2319.34 1090.51 2319.7 1090.83 C 2321.33 1092.3 2323.38 1093.26 2325.63 1093.6 L 2363.44 1099.27 C 2378.77 1101.57 2391.97 1111.26 2398.77 1125.19 L 2415.52 1159.55 C 2417.47 1163.55 2421.29 1165.95 2425.74 1165.97 C 2425.76 1165.97 2425.78 1165.97 2425.8 1165.97 C 2430.22 1165.97 2434.03 1163.61 2436.01 1159.65 L 2453.09 1125.45 C 2460.02 1111.58 2473.31 1102.01 2488.66 1099.86 L 2526.52 1094.54 C 2530.92 1093.92 2534.38 1091.03 2535.77 1086.81 C 2537.17 1082.59 2536.11 1078.21 2532.94 1075.09 L 2505.69 1048.27 C 2494.64 1037.4 2489.65 1021.8 2492.34 1006.54 L 2498.98 968.891 C 2499.69 964.898 2498.36 961.07 2495.35 958.391 C 2493.19 956.47 2490.49 955.454 2487.75 955.454 C 2486.68 955.454 2485.6 955.61 2484.54 955.928 C 2484.36 955.981 2484.18 956.007 2484 956.007 C 2483.2 956.007 2482.47 955.488 2482.23 954.684 C 2481.93 953.703 2482.49 952.668 2483.47 952.373 C 2484.89 951.948 2486.33 951.74 2487.76 951.74 C 2487.79 951.74 2487.81 951.74 2487.83 951.74 C 2491.44 951.758 2494.98 953.098 2497.82 955.618 C 2501.76 959.12 2503.56 964.323 2502.64 969.535 L 2496 1007.18 C 2493.52 1021.24 2498.12 1035.62 2508.29 1045.63 L 2535.54 1072.44 C 2539.68 1076.51 2541.12 1082.46 2539.3 1087.97 C 2537.48 1093.48 2532.78 1097.41 2527.03 1098.22 L 2489.18 1103.54 C 2475.04 1105.52 2462.79 1114.33 2456.41 1127.11 L 2439.33 1161.31 C 2436.75 1166.48 2431.57 1169.68 2425.79 1169.68 Z " fill="url(#_lgradient_311)"/><linearGradient id="_lgradient_312" x1="0" y1="0" x2="1" y2="0" gradientTransform="matrix(270.018,-242.906,242.906,270.018,2461.57,1402.25)" gradientUnits="userSpaceOnUse"><stop offset="0%" stop-opacity="1" style="stop-color:rgb(255,146,142)"/><stop offset="100%" stop-opacity="1" style="stop-color:rgb(254,112,98)"/></linearGradient><path d=" M 2618.13 1363.51 C 2618.12 1363.51 2618.11 1363.51 2618.1 1363.51 C 2617.16 1363.5 2614.82 1363.21 2613.57 1360.66 L 2593.33 1319.16 C 2590.36 1313.08 2584.6 1308.85 2577.91 1307.85 L 2532.25 1300.99 C 2529.44 1300.57 2528.46 1298.42 2528.17 1297.52 C 2527.88 1296.62 2527.43 1294.3 2529.48 1292.32 L 2562.69 1260.26 C 2567.56 1255.55 2569.8 1248.76 2568.69 1242.09 L 2561.1 1196.55 C 2560.78 1194.62 2561.52 1193.27 2562.19 1192.47 C 2563.18 1191.31 2564.65 1190.61 2566.11 1190.61 C 2566.11 1190.61 2566.12 1190.61 2566.13 1190.61 C 2566.92 1190.62 2567.72 1190.83 2568.49 1191.24 L 2609.25 1212.91 C 2612.18 1214.47 2615.48 1215.3 2618.8 1215.32 C 2618.83 1215.32 2618.86 1215.32 2618.89 1215.32 C 2622.18 1215.32 2625.46 1214.52 2628.38 1213 L 2661.8 1195.63 L 2669.34 1191.71 C 2670.11 1191.31 2670.89 1191.11 2671.68 1191.11 C 2671.69 1191.11 2671.7 1191.11 2671.71 1191.11 C 2673.18 1191.12 2674.64 1191.83 2675.63 1193.01 C 2676.29 1193.81 2677.02 1195.17 2676.68 1197.1 L 2668.66 1242.56 C 2667.49 1249.22 2669.66 1256.04 2674.49 1260.78 L 2707.39 1293.16 C 2709.42 1295.16 2708.95 1297.47 2708.65 1298.37 C 2708.36 1299.27 2707.36 1301.41 2704.54 1301.8 L 2663.23 1307.61 L 2658.83 1308.23 C 2652.12 1309.17 2646.32 1313.34 2643.29 1319.4 L 2622.67 1360.7 C 2621.41 1363.22 2619.09 1363.51 2618.13 1363.51 Z  M 2551.08 1293.46 C 2550.76 1293.46 2550.44 1293.59 2550.21 1293.85 C 2549.78 1294.32 2549.82 1295.06 2550.3 1295.49 C 2551.66 1296.71 2553.36 1297.51 2555.23 1297.79 L 2578.88 1301.34 C 2587.72 1302.66 2595.33 1308.25 2599.25 1316.28 L 2609.73 1337.78 C 2611.33 1341.04 2614.57 1343.08 2618.2 1343.1 C 2618.22 1343.1 2618.23 1343.1 2618.25 1343.1 C 2621.86 1343.1 2625.1 1341.1 2626.72 1337.86 L 2637.41 1316.46 C 2641.4 1308.47 2649.06 1302.95 2657.91 1301.71 L 2681.6 1298.38 C 2685.19 1297.87 2688.14 1295.42 2689.27 1291.97 C 2690.41 1288.52 2689.51 1284.8 2686.93 1282.25 L 2669.87 1265.47 C 2663.5 1259.21 2660.63 1250.21 2662.18 1241.41 L 2666.33 1217.86 C 2666.91 1214.59 2665.78 1211.34 2663.32 1209.15 C 2661.54 1207.57 2659.33 1206.73 2657.07 1206.72 C 2657.06 1206.72 2657.04 1206.72 2657.03 1206.72 C 2656.13 1206.72 2655.23 1206.85 2654.34 1207.12 C 2653.72 1207.3 2653.38 1207.95 2653.56 1208.56 C 2653.71 1209.07 2654.17 1209.39 2654.67 1209.39 C 2654.78 1209.39 2654.9 1209.37 2655.01 1209.34 C 2655.67 1209.14 2656.35 1209.04 2657.02 1209.04 C 2658.74 1209.04 2660.42 1209.68 2661.77 1210.88 C 2663.66 1212.56 2664.49 1214.95 2664.05 1217.45 L 2659.89 1241.01 C 2658.21 1250.56 2661.33 1260.33 2668.24 1267.13 L 2685.3 1283.91 C 2687.28 1285.86 2687.94 1288.6 2687.07 1291.24 C 2686.2 1293.88 2684.03 1295.69 2681.28 1296.08 L 2657.59 1299.41 C 2647.98 1300.76 2639.66 1306.74 2635.33 1315.42 L 2624.64 1336.82 C 2623.4 1339.3 2621.02 1340.78 2618.25 1340.78 C 2618.24 1340.78 2618.22 1340.78 2618.21 1340.78 C 2615.43 1340.76 2613.04 1339.26 2611.82 1336.76 L 2601.34 1315.26 C 2597.08 1306.54 2588.82 1300.48 2579.23 1299.04 L 2555.57 1295.49 C 2554.16 1295.28 2552.88 1294.68 2551.85 1293.76 C 2551.63 1293.56 2551.35 1293.46 2551.08 1293.46 Z  M 2575.29 1253.18 C 2574.8 1253.18 2574.34 1253.49 2574.18 1253.98 C 2572.81 1258.14 2570.42 1261.94 2567.26 1264.99 L 2554.63 1277.19 C 2554.17 1277.64 2554.15 1278.37 2554.6 1278.83 C 2554.83 1279.07 2555.13 1279.19 2555.44 1279.19 C 2555.73 1279.19 2556.02 1279.08 2556.24 1278.86 L 2568.88 1266.66 C 2572.3 1263.36 2574.9 1259.22 2576.39 1254.7 C 2576.59 1254.09 2576.26 1253.44 2575.65 1253.24 C 2575.53 1253.2 2575.41 1253.18 2575.29 1253.18 C 2575.29 1253.18 2575.29 1253.18 2575.29 1253.18 Z  M 2600.16 1215.68 C 2599.74 1215.68 2599.34 1215.91 2599.13 1216.3 C 2598.83 1216.87 2599.04 1217.57 2599.61 1217.87 L 2605.07 1220.77 C 2609.27 1223.01 2614 1224.2 2618.76 1224.22 C 2618.8 1224.22 2618.85 1224.22 2618.9 1224.22 C 2623.61 1224.22 2628.3 1223.07 2632.49 1220.9 C 2633.06 1220.6 2633.28 1219.9 2632.98 1219.34 C 2632.77 1218.94 2632.37 1218.71 2631.95 1218.71 C 2631.77 1218.71 2631.59 1218.75 2631.42 1218.84 C 2627.56 1220.84 2623.24 1221.9 2618.9 1221.9 C 2618.85 1221.9 2618.81 1221.9 2618.77 1221.9 C 2614.39 1221.88 2610.03 1220.78 2606.16 1218.72 L 2600.7 1215.82 C 2600.53 1215.73 2600.34 1215.68 2600.16 1215.68 C 2600.16 1215.68 2600.16 1215.68 2600.16 1215.68 Z " fill-rule="evenodd" fill="url(#_lgradient_312)"/><linearGradient id="_lgradient_313" x1="0" y1="0" x2="1" y2="0" gradientTransform="matrix(270.018,-242.906,242.906,270.018,2461.57,1402.25)" gradientUnits="userSpaceOnUse"><stop offset="0%" stop-opacity="1" style="stop-color:rgb(255,219,218)"/><stop offset="100%" stop-opacity="1" style="stop-color:rgb(255,208,203)"/></linearGradient><path d=" M 2555.44 1279.19 C 2555.13 1279.19 2554.83 1279.07 2554.6 1278.83 C 2554.15 1278.37 2554.17 1277.64 2554.63 1277.19 L 2567.26 1264.99 C 2570.42 1261.94 2572.81 1258.14 2574.18 1253.98 C 2574.34 1253.49 2574.8 1253.18 2575.29 1253.18 C 2575.29 1253.18 2575.29 1253.18 2575.29 1253.18 C 2575.41 1253.18 2575.53 1253.2 2575.65 1253.24 C 2576.26 1253.44 2576.59 1254.09 2576.39 1254.7 C 2574.9 1259.22 2572.3 1263.36 2568.88 1266.66 L 2556.24 1278.86 C 2556.02 1279.08 2555.73 1279.19 2555.44 1279.19 Z " fill="url(#_lgradient_313)"/><linearGradient id="_lgradient_314" x1="0" y1="0" x2="1" y2="0" gradientTransform="matrix(270.018,-242.906,242.906,270.018,2461.57,1402.25)" gradientUnits="userSpaceOnUse"><stop offset="0%" stop-opacity="1" style="stop-color:rgb(255,219,218)"/><stop offset="100%" stop-opacity="1" style="stop-color:rgb(255,208,203)"/></linearGradient><path d=" M 2618.9 1224.22 C 2618.85 1224.22 2618.8 1224.22 2618.76 1224.22 C 2614 1224.2 2609.27 1223.01 2605.07 1220.77 L 2599.61 1217.87 C 2599.04 1217.57 2598.83 1216.87 2599.13 1216.3 C 2599.34 1215.91 2599.74 1215.68 2600.16 1215.68 C 2600.16 1215.68 2600.16 1215.68 2600.16 1215.68 C 2600.34 1215.68 2600.53 1215.73 2600.7 1215.82 L 2606.16 1218.72 C 2610.03 1220.78 2614.39 1221.88 2618.77 1221.9 C 2618.81 1221.9 2618.85 1221.9 2618.9 1221.9 C 2623.24 1221.9 2627.56 1220.84 2631.42 1218.84 C 2631.59 1218.75 2631.77 1218.71 2631.95 1218.71 C 2632.37 1218.71 2632.77 1218.94 2632.98 1219.34 C 2633.28 1219.9 2633.06 1220.6 2632.49 1220.9 C 2628.3 1223.07 2623.61 1224.22 2618.9 1224.22 Z " fill="url(#_lgradient_314)"/><linearGradient id="_lgradient_315" x1="0" y1="0" x2="1" y2="0" gradientTransform="matrix(270.018,-242.906,242.906,270.018,2461.57,1402.25)" gradientUnits="userSpaceOnUse"><stop offset="0%" stop-opacity="1" style="stop-color:rgb(255,219,218)"/><stop offset="100%" stop-opacity="1" style="stop-color:rgb(255,208,203)"/></linearGradient><path d=" M 2618.25 1343.1 C 2618.23 1343.1 2618.22 1343.1 2618.2 1343.1 C 2614.57 1343.08 2611.33 1341.04 2609.73 1337.78 L 2599.25 1316.28 C 2595.33 1308.25 2587.72 1302.66 2578.88 1301.34 L 2555.23 1297.79 C 2553.36 1297.51 2551.66 1296.71 2550.3 1295.49 C 2549.82 1295.06 2549.78 1294.32 2550.21 1293.85 C 2550.44 1293.59 2550.76 1293.46 2551.08 1293.46 C 2551.35 1293.46 2551.63 1293.56 2551.85 1293.76 C 2552.88 1294.68 2554.16 1295.28 2555.57 1295.49 L 2579.23 1299.04 C 2588.82 1300.48 2597.08 1306.54 2601.34 1315.26 L 2611.82 1336.76 C 2613.04 1339.26 2615.43 1340.76 2618.21 1340.78 C 2618.22 1340.78 2618.24 1340.78 2618.25 1340.78 C 2621.02 1340.78 2623.4 1339.3 2624.64 1336.82 L 2635.33 1315.42 C 2639.66 1306.74 2647.98 1300.76 2657.59 1299.41 L 2681.28 1296.08 C 2684.03 1295.69 2686.2 1293.88 2687.07 1291.24 C 2687.94 1288.6 2687.28 1285.86 2685.3 1283.91 L 2668.24 1267.13 C 2661.33 1260.33 2658.21 1250.56 2659.89 1241.01 L 2664.05 1217.45 C 2664.49 1214.95 2663.66 1212.56 2661.77 1210.88 C 2660.42 1209.68 2658.74 1209.04 2657.02 1209.04 C 2656.35 1209.04 2655.67 1209.14 2655.01 1209.34 C 2654.9 1209.37 2654.78 1209.39 2654.67 1209.39 C 2654.17 1209.39 2653.71 1209.07 2653.56 1208.56 C 2653.38 1207.95 2653.72 1207.3 2654.34 1207.12 C 2655.23 1206.85 2656.13 1206.72 2657.03 1206.72 C 2657.04 1206.72 2657.06 1206.72 2657.07 1206.72 C 2659.33 1206.73 2661.54 1207.57 2663.32 1209.15 C 2665.78 1211.34 2666.91 1214.59 2666.33 1217.86 L 2662.18 1241.41 C 2660.63 1250.21 2663.5 1259.21 2669.87 1265.47 L 2686.93 1282.25 C 2689.51 1284.8 2690.41 1288.52 2689.27 1291.97 C 2688.14 1295.42 2685.19 1297.87 2681.6 1298.38 L 2657.91 1301.71 C 2649.06 1302.95 2641.4 1308.47 2637.41 1316.46 L 2626.72 1337.86 C 2625.1 1341.1 2621.86 1343.1 2618.25 1343.1 Z " fill="url(#_lgradient_315)"/><path d=" M 2554.65 2728.59 L 1282.33 2728.59 C 1272.56 2728.59 1264.64 2720.67 1264.64 2710.9 L 1264.64 1475.26 C 1264.64 1465.49 1272.56 1457.57 1282.33 1457.57 L 2554.65 1457.57 C 2564.42 1457.57 2572.34 1465.49 2572.34 1475.26 L 2572.34 2710.9 C 2572.34 2720.67 2564.42 2728.59 2554.65 2728.59 Z " fill="rgb(125,151,244)"/><path d=" M 2247.7 1596.6 L 1651.96 1596.6 C 1648.52 1596.6 1645.73 1593.81 1645.73 1590.38 L 1645.73 1525.09 C 1645.73 1521.65 1648.52 1518.87 1651.96 1518.87 L 2247.7 1518.87 C 2251.14 1518.87 2253.93 1521.65 2253.93 1525.09 L 2253.93 1590.38 C 2253.93 1593.81 2251.14 1596.6 2247.7 1596.6 Z " fill="rgb(189,208,251)"/><path d=" M 2507.75 1756.51 L 1346.41 1756.51 C 1342.97 1756.51 1340.18 1753.73 1340.18 1750.29 L 1340.18 1691.67 C 1340.18 1688.23 1342.97 1685.44 1346.41 1685.44 L 2507.75 1685.44 C 2511.19 1685.44 2513.98 1688.23 2513.98 1691.67 L 2513.98 1750.29 C 2513.98 1753.73 2511.19 1756.51 2507.75 1756.51 Z " fill="rgb(189,208,251)"/><path d=" M 2080.41 1916.42 L 1342.77 1916.42 C 1339.33 1916.42 1336.55 1913.64 1336.55 1910.2 L 1336.55 1851.58 C 1336.55 1848.14 1339.33 1845.35 1342.77 1845.35 L 2080.41 1845.35 C 2083.85 1845.35 2086.63 1848.14 2086.63 1851.58 L 2086.63 1910.2 C 2086.63 1913.64 2083.85 1916.42 2080.41 1916.42 Z " fill="rgb(189,208,251)"/><path d=" M 2473.88 2078.71 L 1348.23 2078.71 C 1344.79 2078.71 1342 2075.92 1342 2072.49 L 1342 2013.86 C 1342 2010.43 1344.79 2007.64 1348.23 2007.64 L 2473.88 2007.64 C 2477.32 2007.64 2480.11 2010.43 2480.11 2013.86 L 2480.11 2072.49 C 2480.11 2075.92 2477.32 2078.71 2473.88 2078.71 Z " fill="rgb(189,208,251)"/><path d=" M 2275.22 2238.62 L 1344.59 2238.62 C 1341.15 2238.62 1338.37 2235.84 1338.37 2232.4 L 1338.37 2173.78 C 1338.37 2170.34 1341.15 2167.55 1344.59 2167.55 L 2275.22 2167.55 C 2278.66 2167.55 2281.45 2170.34 2281.45 2173.78 L 2281.45 2232.4 C 2281.45 2235.84 2278.66 2238.62 2275.22 2238.62 Z " fill="rgb(189,208,251)"/><path d=" M 2511.39 2409.68 L 1350.04 2409.68 C 1346.61 2409.68 1343.82 2406.89 1343.82 2403.45 L 1343.82 2344.83 C 1343.82 2341.39 1346.61 2338.61 1350.04 2338.61 L 2511.39 2338.61 C 2514.82 2338.61 2517.61 2341.39 2517.61 2344.83 L 2517.61 2403.45 C 2517.61 2406.89 2514.82 2409.68 2511.39 2409.68 Z " fill="rgb(189,208,251)"/><path d=" M 2027.46 2569.59 L 1346.41 2569.59 C 1342.97 2569.59 1340.18 2566.8 1340.18 2563.36 L 1340.18 2504.74 C 1340.18 2501.3 1342.97 2498.52 1346.41 2498.52 L 2027.46 2498.52 C 2030.9 2498.52 2033.69 2501.3 2033.69 2504.74 L 2033.69 2563.36 C 2033.69 2566.8 2030.9 2569.59 2027.46 2569.59 Z " fill="rgb(189,208,251)"/><linearGradient id="_lgradient_316" x1="0" y1="0" x2="1" y2="0" gradientTransform="matrix(-173.742,0,0,173.742,2789.8,3208.52)" gradientUnits="userSpaceOnUse"><stop offset="0%" stop-opacity="1" style="stop-color:rgb(79,82,255)"/><stop offset="100%" stop-opacity="1" style="stop-color:rgb(64,66,226)"/></linearGradient><path d=" M 2620.97 3200.11 C 2650.73 3202.69 2702.39 3206.87 2743.11 3208.66 C 2767.59 3209.74 2781.68 3207.34 2789.8 3204.09 C 2789.79 3205 2789.76 3205.87 2789.73 3206.67 C 2789.53 3210.96 2786.05 3214.39 2781.72 3214.63 C 2704.77 3218.92 2643.57 3216.11 2621.79 3214.79 C 2617.28 3214.51 2614.6 3209.62 2616.9 3205.78 C 2618.05 3203.86 2619.45 3201.97 2620.97 3200.11 Z " fill="url(#_lgradient_316)"/><linearGradient id="_lgradient_317" x1="0" y1="0" x2="1" y2="0" gradientTransform="matrix(-168.846,0,0,168.846,2789.81,3174.47)" gradientUnits="userSpaceOnUse"><stop offset="0%" stop-opacity="1" style="stop-color:rgb(9,0,93)"/><stop offset="100%" stop-opacity="1" style="stop-color:rgb(26,15,145)"/></linearGradient><path d=" M 2743.11 3208.66 C 2702.39 3206.87 2650.73 3202.69 2620.97 3200.11 C 2650.23 3164.21 2743.11 3140.01 2743.11 3140.01 L 2769.34 3140.01 C 2787.39 3166.02 2790 3190.78 2789.8 3204.09 C 2781.68 3207.34 2767.59 3209.74 2743.11 3208.66 Z " fill="url(#_lgradient_317)"/><linearGradient id="_lgradient_318" x1="0" y1="0" x2="1" y2="0" gradientTransform="matrix(-48.939,0,0,48.94,2773.76,3126.93)" gradientUnits="userSpaceOnUse"><stop offset="0%" stop-opacity="1" style="stop-color:rgb(254,187,186)"/><stop offset="100%" stop-opacity="1" style="stop-color:rgb(255,146,142)"/></linearGradient><path d=" M 2773.76 3097.19 L 2771.31 3145.77 C 2771.04 3151.03 2767.1 3155.45 2761.83 3156.2 C 2756.59 3156.95 2749.57 3157.04 2742.13 3154.57 C 2737.55 3153.04 2734.15 3149.18 2733.3 3144.48 L 2724.82 3097.19 L 2773.76 3097.19 Z " fill="url(#_lgradient_318)"/><linearGradient id="_lgradient_319" x1="0" y1="0" x2="1" y2="0" gradientTransform="matrix(-66.581,0,0,66.581,3136.17,3204.77)" gradientUnits="userSpaceOnUse"><stop offset="0%" stop-opacity="1" style="stop-color:rgb(79,82,255)"/><stop offset="100%" stop-opacity="1" style="stop-color:rgb(64,66,226)"/></linearGradient><path d=" M 3114.49 3208.29 C 3127.4 3206.49 3133.24 3199.79 3135.69 3192.62 L 3135.73 3192.81 C 3137.63 3200.38 3133.23 3208.21 3124.43 3211.94 C 3113.79 3216.44 3102.16 3217.21 3093.13 3216.84 C 3083.44 3216.44 3074.55 3212.43 3069.66 3206.01 L 3069.59 3205.92 C 3079.31 3210.73 3092.96 3211.3 3114.49 3208.29 Z " fill="url(#_lgradient_319)"/><linearGradient id="_lgradient_320" x1="0" y1="0" x2="1" y2="0" gradientTransform="matrix(-97.727,0,0,97.728,3135.69,3153.51)" gradientUnits="userSpaceOnUse"><stop offset="0%" stop-opacity="1" style="stop-color:rgb(9,0,93)"/><stop offset="100%" stop-opacity="1" style="stop-color:rgb(26,15,145)"/></linearGradient><path d=" M 3053.63 3096.88 L 3075.27 3096.88 C 3108.22 3096.2 3128.91 3165.71 3135.69 3192.62 C 3133.24 3199.79 3127.4 3206.49 3114.49 3208.29 C 3092.96 3211.3 3079.31 3210.73 3069.59 3205.92 C 3051.79 3182.49 3042.96 3148.18 3038.72 3128.16 C 3033.89 3105.38 3053.63 3096.88 3053.63 3096.88 Z " fill="url(#_lgradient_320)"/><linearGradient id="_lgradient_321" x1="0" y1="0" x2="1" y2="0" gradientTransform="matrix(-58.488,0,0,58.488,3084.89,3086.13)" gradientUnits="userSpaceOnUse"><stop offset="0%" stop-opacity="1" style="stop-color:rgb(254,187,186)"/><stop offset="100%" stop-opacity="1" style="stop-color:rgb(255,146,142)"/></linearGradient><path d=" M 3072.49 3051.79 L 3084.5 3099.57 C 3085.97 3105.42 3083.17 3111.48 3077.75 3114.26 C 3071.03 3117.71 3061.57 3121.34 3052.88 3120.29 C 3048.79 3119.79 3045.39 3116.91 3044.04 3113.06 L 3026.4 3062.79 L 3072.49 3051.79 Z " fill="url(#_lgradient_321)"/><linearGradient id="_lgradient_322" x1="0" y1="0" x2="1" y2="0" gradientTransform="matrix(-381.429,193.257,-193.257,-381.429,3601.11,2378.53)" gradientUnits="userSpaceOnUse"><stop offset="0%" stop-opacity="1" style="stop-color:rgb(79,82,255)"/><stop offset="100%" stop-opacity="1" style="stop-color:rgb(64,66,226)"/></linearGradient><path d=" M 3086.82 3065.6 C 3071.87 3078.86 3023.26 3080.6 3023.26 3080.6 C 2848.14 2660.31 2776.51 2600.61 2776.51 2600.61 C 2801.79 2759.24 2780.58 3110.45 2780.58 3110.45 C 2751.69 3123.2 2714.43 3110.45 2714.43 3110.45 C 2712.09 2850.74 2672.17 2624.24 2625.01 2445.68 C 2743.37 2443.02 2806.31 2402.52 2826.86 2386.26 C 2925.52 2545.32 3086.82 3065.6 3086.82 3065.6 Z " fill="url(#_lgradient_322)"/><linearGradient id="_lgradient_323" x1="0" y1="0" x2="1" y2="0" gradientTransform="matrix(522.162,569.632,569.632,-522.162,-14177.9,-16244.2)" gradientUnits="userSpaceOnUse"><stop offset="0%" stop-opacity="1" style="stop-color:rgb(255,146,142)"/><stop offset="100%" stop-opacity="1" style="stop-color:rgb(254,112,98)"/></linearGradient><path d=" M 2796.8 1902.93 C 2819.2 2014.67 2811.17 2214.67 2805.9 2305.9 C 2804.42 2331.54 2822.32 2367.08 2836.78 2391.33 C 2839.05 2395.13 2837.65 2400 2833.71 2402.03 C 2809.49 2414.48 2727.43 2453.06 2632.33 2457.86 C 2625.99 2458.18 2620.33 2453.86 2618.68 2447.73 C 2548.14 2184.32 2466.2 2016 2466.2 2016 C 2556.66 1871.54 2796.8 1902.93 2796.8 1902.93 Z " fill="url(#_lgradient_323)"/><linearGradient id="_lgradient_324" x1="0" y1="0" x2="1" y2="0" gradientTransform="matrix(-28.026,-56.051,-56.051,28.026,2887.79,2869.53)" gradientUnits="userSpaceOnUse"><stop offset="0%" stop-opacity="1" style="stop-color:rgb(83,216,255)"/><stop offset="100%" stop-opacity="1" style="stop-color:rgb(56,64,247)"/></linearGradient><path d=" M 2764.56 2590.66 C 2765.55 2590.66 2766.56 2590.39 2767.47 2589.83 C 2770.12 2588.22 2770.95 2584.77 2769.35 2582.13 C 2768.4 2580.58 2745.75 2543.97 2699.91 2521.86 C 2697.13 2520.52 2693.77 2521.67 2692.42 2524.47 C 2691.08 2527.26 2692.25 2530.61 2695.04 2531.96 C 2737.77 2552.58 2759.55 2587.62 2759.77 2587.97 C 2760.82 2589.7 2762.67 2590.66 2764.56 2590.66 Z " fill="url(#_lgradient_324)"/><linearGradient id="_lgradient_325" x1="0" y1="0" x2="1" y2="0" gradientTransform="matrix(208.206,184.371,184.371,-208.206,2816.93,2233.6)" gradientUnits="userSpaceOnUse"><stop offset="0%" stop-opacity="1" style="stop-color:rgb(254,187,186)"/><stop offset="100%" stop-opacity="1" style="stop-color:rgb(255,146,142)"/></linearGradient><path d=" M 2937.32 2223.63 C 2930.12 2275.68 2908.86 2332.46 2866.33 2392.78 L 2850.16 2379.6 C 2850.16 2379.6 2868.83 2303.87 2858.22 2217.94 C 2884.45 2212.82 2915.44 2218.09 2937.32 2223.63 Z " fill="url(#_lgradient_325)"/><linearGradient id="_lgradient_326" x1="0" y1="0" x2="1" y2="0" gradientTransform="matrix(522.161,569.631,569.631,-522.161,-14053.5,-16358.2)" gradientUnits="userSpaceOnUse"><stop offset="0%" stop-opacity="1" style="stop-color:rgb(255,146,142)"/><stop offset="100%" stop-opacity="1" style="stop-color:rgb(254,112,98)"/></linearGradient><path d=" M 2771.78 2040.8 L 2796.8 1902.93 C 2796.8 1902.93 2963.98 2030.72 2937.32 2223.63 C 2915.44 2218.09 2884.45 2212.82 2858.22 2217.94 C 2850.57 2156.03 2827.74 2088.83 2771.78 2040.8 Z " fill="url(#_lgradient_326)"/><linearGradient id="_lgradient_327" x1="0" y1="0" x2="1" y2="0" gradientTransform="matrix(522.16,569.63,569.63,-522.16,-14308,-16125)" gradientUnits="userSpaceOnUse"><stop offset="0%" stop-opacity="1" style="stop-color:rgb(255,146,142)"/><stop offset="100%" stop-opacity="1" style="stop-color:rgb(254,112,98)"/></linearGradient><path d=" M 2466.2 2016 L 2530.73 2154.98 C 2520.3 2238.89 2475.22 2275.17 2426.62 2289.08 C 2423.59 2250.84 2413.92 2219.95 2404.95 2198.58 C 2467.05 2134.46 2466.2 2016 2466.2 2016 Z " fill="url(#_lgradient_327)"/><linearGradient id="_lgradient_328" x1="0" y1="0" x2="1" y2="0" gradientTransform="matrix(-163.971,0,0,163.971,2426.62,2251.03)" gradientUnits="userSpaceOnUse"><stop offset="0%" stop-opacity="1" style="stop-color:rgb(254,187,186)"/><stop offset="100%" stop-opacity="1" style="stop-color:rgb(255,146,142)"/></linearGradient><path d=" M 2404.95 2198.58 C 2413.92 2219.95 2423.59 2250.84 2426.62 2289.08 C 2296.96 2339.39 2262.65 2241.82 2262.65 2241.82 L 2286.62 2237.6 C 2340.73 2243.3 2378.53 2225.85 2404.95 2198.58 Z " fill="url(#_lgradient_328)"/><linearGradient id="_lgradient_329" x1="0" y1="0" x2="1" y2="0" gradientTransform="matrix(1.791,306.203,306.203,-1.791,2586.01,1812.84)" gradientUnits="userSpaceOnUse"><stop offset="0%" stop-opacity="1" style="stop-color:rgb(254,187,186)"/><stop offset="100%" stop-opacity="1" style="stop-color:rgb(255,146,142)"/></linearGradient><path d=" M 2525.66 1844.42 L 2556.81 1958.95 C 2560.31 1971.81 2574.23 1978.72 2586.61 1973.77 C 2599.97 1968.43 2616.92 1961.14 2631.51 1953.26 C 2647.08 1944.85 2651.96 1924.82 2642.1 1910.12 L 2577.33 1813.54 L 2525.66 1844.42 Z " fill="url(#_lgradient_329)"/><linearGradient id="_lgradient_330" x1="0" y1="0" x2="1" y2="0" gradientTransform="matrix(120.701,218.87,218.87,-120.701,2486.65,1762.49)" gradientUnits="userSpaceOnUse"><stop offset="0%" stop-opacity="1" style="stop-color:rgb(254,187,186)"/><stop offset="100%" stop-opacity="1" style="stop-color:rgb(255,146,142)"/></linearGradient><path d=" M 2457.5 1757.41 C 2457.21 1759.38 2483.48 1888.1 2483.48 1888.1 L 2556.66 1871.54 L 2549.89 1745.84 C 2549.89 1745.84 2462.25 1724.48 2457.5 1757.41 Z " fill="url(#_lgradient_330)"/><linearGradient id="_lgradient_331" x1="0" y1="0" x2="1" y2="0" gradientTransform="matrix(519.299,761.164,-761.164,519.299,2203.07,1337.79)" gradientUnits="userSpaceOnUse"><stop offset="0%" stop-opacity="1" style="stop-color:rgb(9,0,93)"/><stop offset="100%" stop-opacity="1" style="stop-color:rgb(26,15,145)"/></linearGradient><path d=" M 2533.43 1773.85 L 2542.18 1839.74 C 2542.29 1840.59 2542.29 1841.42 2542.17 1842.26 C 2541.43 1847.43 2537.59 1865.01 2519.84 1859.99 C 2503.73 1855.42 2488.96 1851.5 2478.76 1854.62 C 2474.18 1856.02 2471.42 1860.66 2472.38 1865.35 C 2474.77 1877.05 2480.64 1903.3 2489.22 1925.33 C 2490.96 1929.8 2495.86 1932.15 2500.47 1930.81 C 2514.35 1926.76 2543.38 1917.41 2564.97 1904.41 C 2567.9 1902.65 2569.64 1899.47 2569.5 1896.06 C 2568.8 1879.42 2566.85 1828.85 2568.49 1814.68 C 2570.03 1801.38 2586.36 1793.41 2593.45 1790.55 C 2595.78 1789.61 2597.6 1787.78 2598.53 1785.45 C 2601.81 1777.22 2606.34 1758.17 2582.33 1750.36 C 2577.31 1748.73 2574.66 1743.31 2576.45 1738.34 C 2580 1728.44 2581.5 1713.33 2562.93 1705.01 C 2544.05 1696.55 2529.96 1706.61 2522.34 1714.79 C 2519.27 1718.1 2514.33 1718.6 2510.51 1716.19 C 2508.33 1714.81 2505.53 1714.36 2502.15 1716.47 C 2497.59 1719.31 2491.55 1717.37 2489.2 1712.54 C 2484.68 1703.27 2475.46 1693.33 2456.98 1696.49 C 2424.19 1702.11 2420.47 1738.45 2429.13 1759.74 C 2437.78 1781.04 2472.98 1772.93 2490.65 1762.19 C 2504.08 1754.03 2521.5 1762.58 2529.07 1767.15 C 2531.48 1768.6 2533.06 1771.07 2533.43 1773.85 Z " fill="url(#_lgradient_331)"/><linearGradient id="_lgradient_332" x1="0" y1="0" x2="1" y2="0" gradientTransform="matrix(-101.938,-140.022,-140.022,101.938,2682.58,1950.3)" gradientUnits="userSpaceOnUse"><stop offset="0%" stop-opacity="1" style="stop-color:rgb(254,187,186)"/><stop offset="100%" stop-opacity="1" style="stop-color:rgb(255,146,142)"/></linearGradient><path d=" M 2571.44 1838.7 C 2571.44 1838.7 2557.95 1800.95 2571.8 1791.71 C 2585.66 1782.46 2606.17 1787.26 2601.65 1814.61 C 2596.04 1848.63 2571.44 1838.7 2571.44 1838.7 Z " fill="url(#_lgradient_332)"/><linearGradient id="_lgradient_333" x1="0" y1="0" x2="1" y2="0" gradientTransform="matrix(-58.719,0,0,58.719,2280.07,2231.78)" gradientUnits="userSpaceOnUse"><stop offset="0%" stop-opacity="1" style="stop-color:rgb(254,187,186)"/><stop offset="100%" stop-opacity="1" style="stop-color:rgb(255,146,142)"/></linearGradient><path d=" M 2272.26 2259.67 C 2265.74 2264.77 2243.38 2254.13 2229.69 2246.77 C 2223.03 2243.18 2219.8 2235.38 2222.08 2228.17 C 2225.38 2217.78 2230.87 2204.38 2237.63 2202.69 C 2248.84 2199.89 2299.16 2238.66 2272.26 2259.67 Z " fill="url(#_lgradient_333)"/><linearGradient id="_lgradient_334" x1="0" y1="0" x2="1" y2="0" gradientTransform="matrix(1955.75,1287.28,1287.28,-1955.75,1847.75,1959.23)" gradientUnits="userSpaceOnUse"><stop offset="0%" stop-opacity="1" style="stop-color:rgb(9,0,93)"/><stop offset="100%" stop-opacity="1" style="stop-color:rgb(26,15,145)"/></linearGradient><path d=" M 3210.28 2504.52 L 1885.33 2104.03 L 1825.64 2298.79 L 3150.76 2712.24 C 3178.91 2721.02 3209.23 2708.32 3222.83 2682.15 C 3236.79 2655.28 3249.37 2613.74 3247.29 2552.52 C 3246.54 2530.26 3231.6 2510.96 3210.28 2504.52 Z " fill="url(#_lgradient_334)"/><linearGradient id="_lgradient_335" x1="0" y1="0" x2="1" y2="0" gradientTransform="matrix(-259.285,-204.339,-204.339,259.285,1796.27,2269.19)" gradientUnits="userSpaceOnUse"><stop offset="0%" stop-opacity="1" style="stop-color:rgb(9,0,93)"/><stop offset="100%" stop-opacity="1" style="stop-color:rgb(26,15,145)"/></linearGradient><path d=" M 1479.96 2073.98 L 1660.96 2087.4 C 1661.96 2112.17 1655.4 2144.6 1629.72 2182.68 L 1474.67 2090.8 C 1466.44 2085.92 1470.42 2073.27 1479.96 2073.98 Z " fill="url(#_lgradient_335)"/><linearGradient id="_lgradient_336" x1="0" y1="0" x2="1" y2="0" gradientTransform="matrix(967.063,902.608,902.608,-967.063,1563.39,1962.16)" gradientUnits="userSpaceOnUse"><stop offset="0%" stop-opacity="1" style="stop-color:rgb(255,146,142)"/><stop offset="100%" stop-opacity="1" style="stop-color:rgb(254,112,98)"/></linearGradient><path d=" M 1885.33 2104.03 C 1899.36 2223.61 1825.64 2298.79 1825.64 2298.79 L 1629.72 2182.68 C 1655.4 2144.6 1661.96 2112.17 1660.96 2087.4 L 1885.33 2104.03 Z " fill="url(#_lgradient_336)"/><linearGradient id="_lgradient_337" x1="0" y1="0" x2="1" y2="0" gradientTransform="matrix(872.72,814.554,814.554,-872.72,2126.66,1962.71)" gradientUnits="userSpaceOnUse"><stop offset="0%" stop-opacity="1" style="stop-color:rgb(255,146,142)"/><stop offset="100%" stop-opacity="1" style="stop-color:rgb(254,112,98)"/></linearGradient><path d=" M 3196.95 2564 C 3198.53 2563.92 3199.96 2562.87 3200.43 2561.27 C 3201.04 2559.25 3199.89 2557.11 3197.87 2556.5 L 1930.38 2176.14 C 1928.35 2175.54 1926.21 2176.68 1925.61 2178.71 C 1925 2180.74 1926.15 2182.87 1928.18 2183.48 L 3195.66 2563.84 C 3196.09 2563.97 3196.53 2564.02 3196.95 2564 Z " fill="url(#_lgradient_337)"/><linearGradient id="_lgradient_338" x1="0" y1="0" x2="1" y2="0" gradientTransform="matrix(872.722,814.555,814.555,-872.722,2108.78,2038.85)" gradientUnits="userSpaceOnUse"><stop offset="0%" stop-opacity="1" style="stop-color:rgb(255,146,142)"/><stop offset="100%" stop-opacity="1" style="stop-color:rgb(254,112,98)"/></linearGradient><path d=" M 3179.07 2640.14 C 3180.65 2640.07 3182.08 2639.02 3182.56 2637.42 C 3183.17 2635.39 3182.01 2633.25 3179.99 2632.64 L 1912.5 2252.28 C 1910.47 2251.67 1908.34 2252.82 1907.73 2254.85 C 1907.12 2256.88 1908.27 2259.01 1910.3 2259.62 L 3177.79 2639.98 C 3178.21 2640.11 3178.65 2640.16 3179.07 2640.14 Z " fill="url(#_lgradient_338)"/><linearGradient id="_lgradient_339" x1="0" y1="0" x2="1" y2="0" gradientTransform="matrix(208.206,184.371,184.371,-208.206,2734.71,2326.45)" gradientUnits="userSpaceOnUse"><stop offset="0%" stop-opacity="1" style="stop-color:rgb(254,187,186)"/><stop offset="100%" stop-opacity="1" style="stop-color:rgb(255,146,142)"/></linearGradient><path d=" M 2856.83 2377.3 L 2781.36 2371.15 L 2748.68 2401.28 C 2748.68 2401.28 2756.41 2411.97 2780.59 2405.82 C 2804.76 2399.68 2837.87 2398.17 2837.87 2398.17 C 2837.87 2398.17 2871.25 2413.22 2871.65 2385.07 L 2856.83 2377.3 Z " fill="url(#_lgradient_339)"/></g></g></g></svg>