<?xml version="1.0" encoding="UTF-8" standalone="no"?><!-- Generator: Gravit.io --><svg xmlns="http://www.w3.org/2000/svg" xmlns:xlink="http://www.w3.org/1999/xlink" style="isolation:isolate" viewBox="0 0 3710 3710" width="3710pt" height="3710pt"><defs><clipPath id="_clipPath_fGncUv4WZLO6PPGmNEBFE1e2E3mOvHep"><rect width="3710" height="3710"/></clipPath></defs><g clip-path="url(#_clipPath_fGncUv4WZLO6PPGmNEBFE1e2E3mOvHep)"><g><clipPath id="_clipPath_qGbPsqqq4UzSjjy8DU6aCti0ONnrF6Gf"><path d=" M 0 0 L 0 3710 L 3710 3710 L 3710 0 L 0 0 Z " fill="rgb(255,255,255)"/></clipPath><g clip-path="url(#_clipPath_qGbPsqqq4UzSjjy8DU6aCti0ONnrF6Gf)"><path d=" M 1125.07 623.292 C 1030.64 758.476 1141.36 977.642 1001.24 1079.31 C 931.195 1130.14 852.93 1112.08 775.953 1094.02 C 703.035 1076.91 631.271 1059.81 568.74 1101.25 C 378.051 1227.63 412.874 1805.9 691.672 2165.19 C 775.516 2273.24 845.573 2315.28 876.601 2437.48 C 943.226 2699.88 709.07 2855.97 753.63 2985.75 C 853.962 3277.96 2397 3523.16 3016.13 2644.97 C 3305.29 2234.82 3348.56 1642.56 3090.2 1192.73 C 2623.35 379.902 1336.96 319.963 1125.07 623.292 Z " fill="rgb(244,247,250)"/><linearGradient id="_lgradient_1238" x1="0" y1="0" x2="1" y2="0" gradientTransform="matrix(-1493.55,-904.85,904.85,-1493.55,1419.9,2284.83)" gradientUnits="userSpaceOnUse"><stop offset="0%" stop-opacity="1" style="stop-color:rgb(255,144,133)"/><stop offset="100%" stop-opacity="1" style="stop-color:rgb(251,111,187)"/></linearGradient><path d=" M 755.673 2368.59 L 714.524 2345.25 C 703.516 2339.01 699.742 2325.15 706.1 2314.31 L 728.847 2275.53 C 712.584 2262.04 697.522 2247.18 683.873 2231.08 L 644.28 2253.51 C 640.65 2255.56 636.688 2256.54 632.776 2256.54 C 624.786 2256.54 617.008 2252.46 612.723 2245.17 L 572.762 2177.15 C 566.364 2166.26 570.161 2152.38 581.237 2146.14 L 621.133 2123.68 C 613.971 2104.2 608.552 2083.92 604.901 2063.04 L 558.498 2062.79 C 545.695 2062.72 535.306 2052.48 535.306 2039.92 L 535.306 1961.37 C 535.306 1948.98 545.403 1938.99 557.957 1938.82 C 558.07 1938.82 558.182 1938.82 558.295 1938.82 C 558.362 1938.82 558.43 1938.82 558.498 1938.82 L 605.273 1939.21 C 609.03 1918.5 614.506 1898.4 621.737 1879.14 L 581.237 1855.78 C 570.161 1849.39 566.364 1835.45 572.762 1824.65 L 612.723 1757.19 C 616.951 1750.05 624.575 1746.09 632.452 1746.09 C 636.468 1746.09 640.551 1747.12 644.28 1749.29 L 685.068 1772.95 C 698.632 1757.31 713.536 1742.86 729.643 1729.8 L 706.1 1689.33 C 699.742 1678.41 703.516 1664.61 714.524 1658.52 L 783.228 1620.5 C 786.725 1618.57 790.531 1617.65 794.299 1617.65 C 802.35 1617.65 810.226 1621.84 814.533 1629.27 L 837.987 1669.73 C 857.367 1663.07 877.53 1658.11 898.257 1654.85 L 898.257 1608.46 C 898.257 1596.14 908.253 1586.29 920.659 1586.29 C 920.789 1586.29 920.922 1586.29 921.054 1586.3 L 999.596 1587.62 C 1012.13 1587.83 1022.28 1598.07 1022.28 1610.48 L 1022.28 1656.73 C 1042.87 1660.61 1062.85 1666.15 1082.03 1673.34 L 1105.19 1633.86 C 1109.3 1626.84 1116.72 1622.95 1124.39 1622.95 C 1128.34 1622.95 1132.35 1623.98 1136.01 1626.14 L 1203.36 1665.87 C 1214.11 1672.21 1217.79 1685.95 1211.58 1696.57 L 1188.58 1735.93 C 1204.32 1749.26 1218.87 1763.92 1232.1 1779.7 L 1271.76 1757.37 C 1275.2 1755.43 1278.94 1754.51 1282.65 1754.51 C 1290.49 1754.51 1298.15 1758.63 1302.34 1765.93 L 1340.94 1833.16 C 1347.11 1843.9 1343.45 1857.5 1332.77 1863.55 L 1293.62 1885.73 C 1300.62 1904.82 1305.92 1924.69 1309.55 1945.11 L 1354.69 1945.49 C 1367.01 1945.6 1376.99 1955.66 1376.99 1967.97 L 1376.99 2044.97 C 1376.99 2057.24 1367.07 2067.14 1354.81 2067.14 C 1354.77 2067.14 1354.73 2067.14 1354.69 2067.14 L 1309.91 2066.89 C 1308.21 2076.74 1306.12 2086.44 1303.64 2095.99 L 1170.07 2095.99 C 1182.1 2068.47 1188.77 2038.1 1188.77 2006.17 C 1188.77 1881.28 1086.81 1778.78 960.363 1777.22 C 959.384 1777.21 958.423 1777.2 957.447 1777.2 C 831.572 1777.2 729.449 1877.71 729.449 2003.01 C 729.449 2043.98 740.373 2082.46 759.474 2115.75 C 757.045 2120.68 755.673 2126.26 755.673 2132.18 L 755.673 2368.59 Z " fill="url(#_lgradient_1238)"/><linearGradient id="_lgradient_1239" x1="0" y1="0" x2="1" y2="0" gradientTransform="matrix(-221.651,1288.34,-1288.34,-221.651,1550.97,718.346)" gradientUnits="userSpaceOnUse"><stop offset="0%" stop-opacity="1" style="stop-color:rgb(255,144,133)"/><stop offset="100%" stop-opacity="1" style="stop-color:rgb(251,111,187)"/></linearGradient><path d=" M 1491.21 900.415 C 1606.56 904.251 1699.29 996.737 1699.29 1107.02 C 1699.29 1217.3 1606.56 1305.12 1491.21 1303.15 C 1374.78 1301.16 1279.59 1208.61 1279.59 1096.46 C 1279.59 984.3 1374.78 896.543 1491.21 900.415 Z  M 1849.68 1056.33 L 1808.83 1055.21 C 1805.54 1037.14 1800.74 1019.52 1794.4 1002.56 L 1829.85 983.728 C 1839.52 978.592 1842.83 966.669 1837.25 957.092 L 1802.31 897.096 C 1796.71 887.486 1784.31 883.833 1774.6 888.943 L 1738.63 907.876 C 1726.63 893.691 1713.42 880.471 1699.12 868.39 L 1720.01 834.096 C 1725.64 824.852 1722.3 812.647 1712.54 806.828 L 1651.34 770.329 C 1641.53 764.476 1628.96 767.236 1623.29 776.503 L 1602.2 810.929 C 1584.73 804.173 1566.52 798.86 1547.74 794.997 L 1547.74 754.069 C 1547.74 743.082 1538.48 733.804 1527.04 733.346 L 1455.27 730.474 C 1443.76 730.013 1434.42 738.587 1434.42 749.625 L 1434.42 790.739 C 1415.44 793.203 1396.98 797.177 1379.22 802.676 L 1357.71 766.295 C 1351.91 756.481 1339.05 752.695 1328.99 757.845 L 1265.87 790.146 C 1255.75 795.327 1252.27 807.511 1258.12 817.352 L 1279.77 853.783 C 1264.96 865.062 1251.25 877.603 1238.77 891.237 L 1201.22 869.389 C 1191.04 863.47 1178.02 866.331 1172.14 875.79 L 1135.28 935.039 C 1129.37 944.53 1132.88 957.009 1143.1 962.905 L 1180.45 984.445 C 1173.78 1001.45 1168.73 1019.23 1165.27 1037.58 L 1122.11 1036.4 C 1110.28 1036.08 1100.69 1044.88 1100.69 1056.07 L 1100.69 1126.02 C 1100.69 1137.21 1110.28 1146.49 1122.11 1146.77 L 1164.92 1147.75 C 1168.29 1166.38 1173.29 1184.52 1179.89 1201.96 L 1143.1 1221.32 C 1132.88 1226.7 1129.37 1239.01 1135.28 1248.79 L 1172.14 1309.9 C 1178.02 1319.66 1191.04 1323.17 1201.22 1317.77 L 1237.67 1298.4 C 1250.23 1312.9 1264.09 1326.31 1279.04 1338.53 L 1258.12 1372.67 C 1252.27 1382.22 1255.75 1394.58 1265.87 1400.27 L 1328.99 1435.75 C 1339.05 1441.41 1351.91 1438.27 1357.71 1428.75 L 1378.31 1394.95 C 1396.34 1401.5 1415.12 1406.49 1434.42 1409.97 L 1434.42 1449.29 C 1434.42 1460.32 1443.76 1469.37 1455.27 1469.49 L 1527.04 1470.23 C 1538.48 1470.35 1547.74 1461.54 1547.74 1450.55 L 1547.74 1411.42 C 1566.83 1408.45 1585.36 1403.97 1603.1 1397.94 L 1623.29 1431.93 C 1628.96 1441.48 1641.53 1444.87 1651.34 1439.52 L 1712.54 1406.1 C 1722.3 1400.77 1725.64 1388.74 1720.01 1379.21 L 1699.82 1345.06 C 1714.26 1333.52 1727.61 1320.79 1739.68 1306.98 L 1774.6 1327.11 C 1784.31 1332.71 1796.71 1329.69 1802.31 1320.36 L 1837.25 1262.12 C 1842.83 1252.83 1839.52 1240.74 1829.85 1235.12 L 1794.93 1214.8 C 1801.21 1198.06 1805.96 1180.59 1809.16 1162.58 L 1849.68 1163.51 C 1860.82 1163.77 1869.85 1155.19 1869.85 1144.34 L 1869.85 1076.52 C 1869.85 1065.67 1860.82 1056.63 1849.68 1056.33 Z " fill-rule="evenodd" fill="url(#_lgradient_1239)"/><path d=" M 893.931 1112.51 C 875.832 1112.51 857.526 1110.5 839.148 1107.42 C 838.858 1099.8 838.711 1092.13 838.711 1084.44 C 838.711 807.195 1029.1 581.51 1288.16 512.024 C 1213.64 539.923 1157.08 577.47 1125.07 623.292 C 1084.11 681.923 1081.75 756.362 1080.77 830.152 C 1029.68 901.186 999.269 987.454 997.883 1081.69 C 964.696 1104.66 929.714 1112.51 893.931 1112.51 Z " fill="rgb(255,255,255)"/><path d=" M 1491.68 1711.07 C 1491.53 1711.07 1491.36 1711.07 1491.21 1711.07 C 1142.94 1710.83 851.908 1442.62 839.148 1107.42 C 857.526 1110.5 875.832 1112.51 893.931 1112.51 C 929.714 1112.51 964.696 1104.66 997.883 1081.69 C 997.85 1083.93 997.833 1086.2 997.833 1088.45 C 997.833 1263.74 1098.17 1417.44 1245.68 1500.26 L 1167.97 1627.45 C 1259.89 1678.45 1365.27 1708.43 1476.79 1710.88 L 1476.79 1564.86 C 1481.58 1565.03 1486.39 1565.13 1491.21 1565.16 C 1492.34 1565.16 1493.45 1565.17 1494.57 1565.17 C 1498.26 1565.17 1501.94 1565.13 1505.61 1565.05 L 1505.61 1710.9 C 1537.46 1710.24 1568.65 1707.34 1599.03 1702.34 C 1564.21 1708.08 1528.36 1711.07 1491.68 1711.07 Z  M 1806.18 1629.87 L 1731.87 1504.47 C 1871.57 1426.8 1964.66 1282.22 1965.77 1115.85 C 1965.31 1183.71 1949.6 1247.71 1921.88 1305.01 L 2048.61 1378.65 C 2044.52 1386.69 2040.26 1394.62 2035.81 1402.45 L 1909.38 1329.14 C 1872.79 1394.24 1819.94 1449.56 1755.88 1490.26 L 1830.12 1615.7 C 1822.28 1620.58 1814.27 1625.32 1806.18 1629.87 Z  M 2111.2 1118.97 C 2111.2 1118.94 2111.2 1118.92 2111.2 1118.89 C 2111.2 1118.93 2111.2 1118.93 2111.2 1118.97 Z  M 2111.2 1118.53 C 2111.21 1118.46 2111.21 1118.4 2111.21 1118.33 C 2111.21 1118.41 2111.21 1118.45 2111.2 1118.53 Z  M 2111.21 1118.05 C 2111.21 1117.96 2111.21 1117.87 2111.21 1117.79 C 2111.21 1117.89 2111.21 1117.95 2111.21 1118.05 Z  M 2111.21 1117.54 C 2111.21 1117.43 2111.21 1117.32 2111.21 1117.2 C 2111.21 1117.3 2111.21 1117.44 2111.21 1117.54 Z  M 2111.21 1117.03 C 2111.21 1116.86 2111.21 1116.69 2111.21 1116.51 C 2111.21 1116.69 2111.21 1116.85 2111.21 1117.03 Z  M 2111.21 1116.51 C 2111.21 1111.18 2111.13 1105.86 2110.99 1100.56 L 1965.49 1096.8 C 1956.77 852.328 1749.91 647.962 1491.21 636.616 C 1483.66 636.285 1476.15 636.122 1468.68 636.122 C 1307.84 636.122 1165.72 712.037 1080.77 830.152 C 1081.75 756.362 1084.11 681.923 1125.07 623.292 C 1157.08 577.47 1213.64 539.923 1288.16 512.024 C 1342.05 497.572 1398.9 489.87 1457.62 489.87 C 1468.73 489.87 1479.97 490.148 1491.21 490.706 C 1837.49 507.92 2111.21 787.911 2111.21 1116.51 L 2111.21 1116.51 Z  M 1965.77 1115.75 C 1965.77 1115.67 1965.77 1115.58 1965.77 1115.51 C 1965.77 1115.59 1965.77 1115.67 1965.77 1115.75 Z  M 1965.77 1115.37 C 1965.77 1115.29 1965.77 1115.21 1965.77 1115.14 C 1965.77 1115.22 1965.77 1115.29 1965.77 1115.37 Z  M 1965.77 1114.97 C 1965.77 1114.91 1965.77 1114.83 1965.77 1114.76 C 1965.77 1114.83 1965.77 1114.9 1965.77 1114.97 Z  M 1965.77 1114.58 C 1965.77 1114.5 1965.77 1114.46 1965.77 1114.39 C 1965.77 1114.45 1965.77 1114.51 1965.77 1114.58 Z  M 1965.77 1114.17 C 1965.77 1114.11 1965.77 1114.07 1965.77 1114.01 C 1965.77 1114.06 1965.77 1114.12 1965.77 1114.17 Z  M 1965.77 1113.78 C 1965.77 1113.73 1965.77 1113.67 1965.78 1113.62 C 1965.77 1113.67 1965.77 1113.72 1965.77 1113.78 Z  M 1965.78 1113.36 C 1965.78 1113.31 1965.78 1113.28 1965.78 1113.23 C 1965.78 1113.27 1965.78 1113.32 1965.78 1113.36 Z " fill="rgb(252,253,254)"/><linearGradient id="_lgradient_1240" x1="0" y1="0" x2="1" y2="0" gradientTransform="matrix(287.219,1459.64,-1459.64,287.219,874.626,437.822)" gradientUnits="userSpaceOnUse"><stop offset="0%" stop-opacity="1" style="stop-color:rgb(255,196,68)"/><stop offset="99.64030000000001%" stop-opacity="1" style="stop-color:rgb(243,111,86)"/><stop offset="100%" stop-opacity="1" style="stop-color:rgb(243,111,86)"/></linearGradient><path d=" M 1058.5 1315.26 L 921.44 1387.67 C 974.822 1479.12 1051.21 1556.56 1142.71 1612.72 L 1220.79 1485.09 C 1153.56 1441.99 1097.56 1383.68 1058.5 1315.26 Z " fill="url(#_lgradient_1240)"/><linearGradient id="_lgradient_1241" x1="0" y1="0" x2="1" y2="0" gradientTransform="matrix(280.827,1427.16,-1427.16,280.827,1783.03,306.818)" gradientUnits="userSpaceOnUse"><stop offset="0%" stop-opacity="1" style="stop-color:rgb(255,196,68)"/><stop offset="99.64030000000001%" stop-opacity="1" style="stop-color:rgb(243,111,86)"/><stop offset="100%" stop-opacity="1" style="stop-color:rgb(243,111,86)"/></linearGradient><path d=" M 1881.51 849.046 L 2008.89 781.917 C 1956.65 703.435 1886.59 636.296 1804.05 586.272 L 1729.63 708.1 C 1790.14 744.315 1841.97 792.548 1881.51 849.046 Z " fill="url(#_lgradient_1241)"/><linearGradient id="_lgradient_1242" x1="0" y1="0" x2="1" y2="0" gradientTransform="matrix(280.441,1425.19,-1425.19,280.441,1041.32,418.355)" gradientUnits="userSpaceOnUse"><stop offset="0%" stop-opacity="1" style="stop-color:rgb(255,196,68)"/><stop offset="99.64030000000001%" stop-opacity="1" style="stop-color:rgb(243,111,86)"/><stop offset="100%" stop-opacity="1" style="stop-color:rgb(243,111,86)"/></linearGradient><path d=" M 1088.27 820.584 C 1130.28 765.416 1184.93 720.105 1248.14 688.179 L 1170.3 556.83 C 1082.86 600.473 1007.69 663.625 951.061 740.851 L 1088.27 820.584 Z " fill="url(#_lgradient_1242)"/><linearGradient id="_lgradient_1243" x1="0" y1="0" x2="1" y2="0" gradientTransform="matrix(290.251,1475.05,-1475.05,290.251,789.312,440.626)" gradientUnits="userSpaceOnUse"><stop offset="0%" stop-opacity="1" style="stop-color:rgb(255,196,68)"/><stop offset="99.64030000000001%" stop-opacity="1" style="stop-color:rgb(243,111,86)"/><stop offset="100%" stop-opacity="1" style="stop-color:rgb(243,111,86)"/></linearGradient><path d=" M 997.833 1088.45 C 997.833 1082.86 998.077 1077.33 998.281 1071.79 L 838.955 1067.67 C 838.797 1073.24 838.711 1078.83 838.711 1084.44 C 838.711 1183.88 863.514 1278.32 907.462 1362.37 L 1045.1 1289.84 C 1014.86 1228.44 997.833 1160.16 997.833 1088.45 Z " fill="url(#_lgradient_1243)"/><linearGradient id="_lgradient_1244" x1="0" y1="0" x2="1" y2="0" gradientTransform="matrix(277.206,1408.75,-1408.75,277.206,1839.77,304.996)" gradientUnits="userSpaceOnUse"><stop offset="0%" stop-opacity="1" style="stop-color:rgb(247,234,204)"/><stop offset="99.64030000000001%" stop-opacity="1" style="stop-color:rgb(244,213,209)"/><stop offset="100%" stop-opacity="1" style="stop-color:rgb(244,213,209)"/></linearGradient><path d=" M 2048.81 1378.77 L 2048.61 1378.65 C 2088.41 1300.28 2110.81 1212.14 2111.2 1118.97 C 2110.82 1212.54 2088.42 1300.61 2048.81 1378.77 Z  M 2111.2 1118.89 C 2111.2 1118.79 2111.2 1118.63 2111.2 1118.53 C 2111.2 1118.65 2111.2 1118.77 2111.2 1118.89 Z  M 2111.21 1118.33 C 2111.21 1118.25 2111.21 1118.13 2111.21 1118.05 C 2111.21 1118.14 2111.21 1118.24 2111.21 1118.33 Z  M 2111.21 1117.79 C 2111.21 1117.71 2111.21 1117.62 2111.21 1117.54 C 2111.21 1117.63 2111.21 1117.7 2111.21 1117.79 Z  M 2111.21 1117.2 C 2111.21 1117.14 2111.21 1117.09 2111.21 1117.03 C 2111.21 1117.09 2111.21 1117.15 2111.21 1117.2 Z  M 1965.77 1115.85 C 1965.77 1115.82 1965.77 1115.78 1965.77 1115.75 C 1965.77 1115.78 1965.77 1115.82 1965.77 1115.85 Z  M 1965.77 1115.51 C 1965.77 1115.46 1965.77 1115.41 1965.77 1115.37 C 1965.77 1115.41 1965.77 1115.46 1965.77 1115.51 Z  M 1965.77 1115.14 C 1965.77 1115.08 1965.77 1115.03 1965.77 1114.97 C 1965.77 1115.03 1965.77 1115.08 1965.77 1115.14 Z  M 1965.77 1114.76 C 1965.77 1114.7 1965.77 1114.64 1965.77 1114.58 C 1965.77 1114.64 1965.77 1114.7 1965.77 1114.76 Z  M 1965.77 1114.39 C 1965.77 1114.32 1965.77 1114.24 1965.77 1114.17 C 1965.77 1114.23 1965.77 1114.33 1965.77 1114.39 Z  M 1965.77 1114.01 C 1965.77 1113.93 1965.77 1113.85 1965.77 1113.78 C 1965.77 1113.85 1965.77 1113.93 1965.77 1114.01 Z  M 1965.78 1113.62 C 1965.78 1113.53 1965.78 1113.44 1965.78 1113.36 C 1965.78 1113.45 1965.78 1113.53 1965.78 1113.62 Z  M 1965.78 1113.23 C 1965.78 1113.1 1965.78 1112.98 1965.78 1112.85 C 1965.78 1112.97 1965.78 1113.11 1965.78 1113.23 Z  M 1965.78 1112.85 C 1965.78 1107.47 1965.55 1102.13 1965.36 1096.79 L 1965.49 1096.8 C 1965.68 1102.13 1965.78 1107.47 1965.78 1112.85 L 1965.78 1112.85 Z " fill-rule="evenodd" fill="url(#_lgradient_1244)"/><linearGradient id="_lgradient_1245" x1="0" y1="0" x2="1" y2="0" gradientTransform="matrix(277.206,1408.75,-1408.75,277.206,1839.77,304.996)" gradientUnits="userSpaceOnUse"><stop offset="0%" stop-opacity="1" style="stop-color:rgb(253,239,207)"/><stop offset="99.64030000000001%" stop-opacity="1" style="stop-color:rgb(250,217,212)"/><stop offset="100%" stop-opacity="1" style="stop-color:rgb(250,217,212)"/></linearGradient><path d=" M 2048.61 1378.65 L 1921.88 1305.01 C 1949.6 1247.71 1965.31 1183.71 1965.77 1115.85 C 1965.77 1115.82 1965.77 1115.78 1965.77 1115.75 C 1965.77 1115.67 1965.77 1115.59 1965.77 1115.51 C 1965.77 1115.46 1965.77 1115.41 1965.77 1115.37 C 1965.77 1115.29 1965.77 1115.22 1965.77 1115.14 C 1965.77 1115.08 1965.77 1115.03 1965.77 1114.97 C 1965.77 1114.9 1965.77 1114.83 1965.77 1114.76 C 1965.77 1114.7 1965.77 1114.64 1965.77 1114.58 C 1965.77 1114.51 1965.77 1114.45 1965.77 1114.39 C 1965.77 1114.33 1965.77 1114.23 1965.77 1114.17 C 1965.77 1114.12 1965.77 1114.06 1965.77 1114.01 C 1965.77 1113.93 1965.77 1113.85 1965.77 1113.78 C 1965.77 1113.72 1965.77 1113.67 1965.78 1113.62 C 1965.78 1113.53 1965.78 1113.45 1965.78 1113.36 C 1965.78 1113.32 1965.78 1113.27 1965.78 1113.23 C 1965.78 1113.11 1965.78 1112.97 1965.78 1112.85 L 1965.78 1112.85 L 1965.78 1112.85 L 1965.78 1112.85 C 1965.78 1107.47 1965.68 1102.13 1965.49 1096.8 L 2110.99 1100.56 C 2111.13 1105.86 2111.21 1111.18 2111.21 1116.51 L 2111.21 1116.51 C 2111.21 1116.69 2111.21 1116.86 2111.21 1117.03 C 2111.21 1117.09 2111.21 1117.14 2111.21 1117.2 C 2111.21 1117.32 2111.21 1117.43 2111.21 1117.54 C 2111.21 1117.62 2111.21 1117.71 2111.21 1117.79 C 2111.21 1117.87 2111.21 1117.96 2111.21 1118.05 C 2111.21 1118.13 2111.21 1118.25 2111.21 1118.33 C 2111.21 1118.4 2111.21 1118.46 2111.2 1118.53 C 2111.2 1118.63 2111.2 1118.79 2111.2 1118.89 C 2111.2 1118.92 2111.2 1118.94 2111.2 1118.97 C 2110.81 1212.14 2088.41 1300.28 2048.61 1378.65 Z " fill="url(#_lgradient_1245)"/><linearGradient id="_lgradient_1246" x1="0" y1="0" x2="1" y2="0" gradientTransform="matrix(275.647,1400.83,-1400.83,275.647,1678.31,340.317)" gradientUnits="userSpaceOnUse"><stop offset="0%" stop-opacity="1" style="stop-color:rgb(247,234,204)"/><stop offset="99.64030000000001%" stop-opacity="1" style="stop-color:rgb(244,213,209)"/><stop offset="100%" stop-opacity="1" style="stop-color:rgb(244,213,209)"/></linearGradient><path d=" M 1830.22 1615.87 L 1830.12 1615.7 C 1915.97 1562.22 1986.74 1488.9 2035.81 1402.45 L 2036.04 1402.58 C 1987.03 1489.05 1916.19 1562.43 1830.22 1615.87 Z " fill="url(#_lgradient_1246)"/><linearGradient id="_lgradient_1247" x1="0" y1="0" x2="1" y2="0" gradientTransform="matrix(275.647,1400.83,-1400.83,275.647,1678.31,340.317)" gradientUnits="userSpaceOnUse"><stop offset="0%" stop-opacity="1" style="stop-color:rgb(253,239,207)"/><stop offset="99.64030000000001%" stop-opacity="1" style="stop-color:rgb(250,217,212)"/><stop offset="100%" stop-opacity="1" style="stop-color:rgb(250,217,212)"/></linearGradient><path d=" M 1830.12 1615.7 L 1755.88 1490.26 C 1819.94 1449.56 1872.79 1394.24 1909.38 1329.14 L 2035.81 1402.45 C 1986.74 1488.9 1915.97 1562.22 1830.12 1615.7 Z " fill="url(#_lgradient_1247)"/><linearGradient id="_lgradient_1248" x1="0" y1="0" x2="1" y2="0" gradientTransform="matrix(277.67,1411.11,-1411.11,277.67,1873.37,301.356)" gradientUnits="userSpaceOnUse"><stop offset="0%" stop-opacity="1" style="stop-color:rgb(255,196,68)"/><stop offset="99.64030000000001%" stop-opacity="1" style="stop-color:rgb(243,111,86)"/><stop offset="100%" stop-opacity="1" style="stop-color:rgb(243,111,86)"/></linearGradient><path d=" M 1896.91 872.343 C 1933.33 931.415 1956.81 998.434 1963.64 1069.62 L 2109.63 1073.56 C 2102.64 976.833 2072.23 885.607 2023.76 805.33 L 1896.91 872.343 Z " fill="url(#_lgradient_1248)"/><linearGradient id="_lgradient_1249" x1="0" y1="0" x2="1" y2="0" gradientTransform="matrix(286.195,1454.43,-1454.43,286.195,1087.54,402.609)" gradientUnits="userSpaceOnUse"><stop offset="0%" stop-opacity="1" style="stop-color:rgb(247,234,204)"/><stop offset="99.64030000000001%" stop-opacity="1" style="stop-color:rgb(244,213,209)"/><stop offset="100%" stop-opacity="1" style="stop-color:rgb(244,213,209)"/></linearGradient><path d=" M 1476.79 1564.86 C 1393.11 1561.97 1314.3 1538.78 1245.68 1500.26 L 1245.81 1500.05 C 1314.49 1538.67 1393.23 1561.81 1476.79 1564.71 L 1476.79 1564.86 Z " fill="url(#_lgradient_1249)"/><linearGradient id="_lgradient_1250" x1="0" y1="0" x2="1" y2="0" gradientTransform="matrix(286.195,1454.43,-1454.43,286.195,1087.54,402.609)" gradientUnits="userSpaceOnUse"><stop offset="0%" stop-opacity="1" style="stop-color:rgb(253,239,207)"/><stop offset="99.64030000000001%" stop-opacity="1" style="stop-color:rgb(250,217,212)"/><stop offset="100%" stop-opacity="1" style="stop-color:rgb(250,217,212)"/></linearGradient><path d=" M 1476.79 1710.88 C 1365.27 1708.43 1259.89 1678.45 1167.97 1627.45 L 1245.68 1500.26 C 1314.3 1538.78 1393.11 1561.97 1476.79 1564.86 L 1476.79 1710.88 Z " fill="url(#_lgradient_1250)"/><linearGradient id="_lgradient_1251" x1="0" y1="0" x2="1" y2="0" gradientTransform="matrix(276.932,1407.36,-1407.36,276.932,1403.32,386.66)" gradientUnits="userSpaceOnUse"><stop offset="0%" stop-opacity="1" style="stop-color:rgb(247,234,204)"/><stop offset="99.64030000000001%" stop-opacity="1" style="stop-color:rgb(244,213,209)"/><stop offset="100%" stop-opacity="1" style="stop-color:rgb(244,213,209)"/></linearGradient><path d=" M 1599.03 1702.34 C 1673.73 1690.03 1743.56 1665.08 1806.18 1629.87 L 1806.27 1630.01 C 1743.71 1665.11 1673.84 1690.05 1599.03 1702.34 Z  M 1505.61 1565.05 L 1505.61 1564.9 C 1588.42 1563.11 1665.46 1541.33 1731.87 1504.46 L 1731.87 1504.47 C 1665.38 1541.44 1588.32 1563.26 1505.61 1565.05 Z " fill-rule="evenodd" fill="url(#_lgradient_1251)"/><linearGradient id="_lgradient_1252" x1="0" y1="0" x2="1" y2="0" gradientTransform="matrix(276.932,1407.36,-1407.36,276.932,1403.32,386.66)" gradientUnits="userSpaceOnUse"><stop offset="0%" stop-opacity="1" style="stop-color:rgb(253,239,207)"/><stop offset="99.64030000000001%" stop-opacity="1" style="stop-color:rgb(250,217,212)"/><stop offset="100%" stop-opacity="1" style="stop-color:rgb(250,217,212)"/></linearGradient><path d=" M 1505.61 1710.9 L 1505.61 1565.05 C 1588.32 1563.26 1665.38 1541.44 1731.87 1504.47 L 1806.18 1629.87 C 1743.56 1665.08 1673.73 1690.03 1599.03 1702.34 C 1568.65 1707.34 1537.46 1710.24 1505.61 1710.9 Z " fill="url(#_lgradient_1252)"/><linearGradient id="_lgradient_1253" x1="0" y1="0" x2="1" y2="0" gradientTransform="matrix(276.554,1405.44,-1405.44,276.554,1308.96,377.379)" gradientUnits="userSpaceOnUse"><stop offset="0%" stop-opacity="1" style="stop-color:rgb(255,196,68)"/><stop offset="99.64030000000001%" stop-opacity="1" style="stop-color:rgb(243,111,86)"/><stop offset="100%" stop-opacity="1" style="stop-color:rgb(243,111,86)"/></linearGradient><path d=" M 1274.01 676.041 C 1335.73 649.382 1404.46 635.198 1476.79 636.334 L 1476.79 490.164 C 1376.55 487.32 1281.26 506.958 1196.24 544.638 L 1274.01 676.041 Z " fill="url(#_lgradient_1253)"/><linearGradient id="_lgradient_1254" x1="0" y1="0" x2="1" y2="0" gradientTransform="matrix(289.946,1473.5,-1473.5,289.946,856.363,434.31)" gradientUnits="userSpaceOnUse"><stop offset="0%" stop-opacity="1" style="stop-color:rgb(255,196,68)"/><stop offset="99.64030000000001%" stop-opacity="1" style="stop-color:rgb(243,111,86)"/><stop offset="100%" stop-opacity="1" style="stop-color:rgb(243,111,86)"/></linearGradient><path d=" M 1000.15 1043.63 C 1007.52 970.072 1032.81 902.069 1071.84 843.505 L 934.854 764.078 C 881.745 844.347 848.197 938.014 840.459 1039.33 L 1000.15 1043.63 Z " fill="url(#_lgradient_1254)"/><linearGradient id="_lgradient_1255" x1="0" y1="0" x2="1" y2="0" gradientTransform="matrix(292.624,1487.11,-1487.11,292.624,1587.15,323.634)" gradientUnits="userSpaceOnUse"><stop offset="0%" stop-opacity="1" style="stop-color:rgb(255,196,68)"/><stop offset="99.64030000000001%" stop-opacity="1" style="stop-color:rgb(243,111,86)"/><stop offset="100%" stop-opacity="1" style="stop-color:rgb(243,111,86)"/></linearGradient><path d=" M 1505.61 637.598 C 1577.36 642.763 1644.77 662.693 1704.69 694.087 L 1779.35 572.038 C 1697.68 527.217 1604.83 498.647 1505.61 491.597 L 1505.61 637.598 Z " fill="url(#_lgradient_1255)"/><linearGradient id="_lgradient_1256" x1="0" y1="0" x2="1" y2="0" gradientTransform="matrix(-106.702,620.205,-620.205,-106.702,685.444,1179.83)" gradientUnits="userSpaceOnUse"><stop offset="0%" stop-opacity="1" style="stop-color:rgb(255,196,68)"/><stop offset="99.64030000000001%" stop-opacity="1" style="stop-color:rgb(243,111,86)"/><stop offset="100%" stop-opacity="1" style="stop-color:rgb(243,111,86)"/></linearGradient><path d=" M 655.17 1267.72 C 710.776 1267.42 755.673 1310.24 755.673 1363.37 C 755.673 1416.5 710.776 1460.15 655.17 1460.89 C 599.314 1461.62 553.851 1418.8 553.851 1365.24 C 553.851 1311.69 599.314 1268.02 655.17 1267.72 Z  M 828.861 1336.36 L 808.937 1336.53 C 807.334 1327.86 804.995 1319.44 801.906 1311.36 L 819.185 1301.64 C 823.9 1298.98 825.516 1293.16 822.793 1288.63 L 805.757 1260.31 C 803.03 1255.77 796.989 1254.24 792.264 1256.89 L 774.772 1266.7 C 768.943 1260.09 762.528 1253.97 755.59 1248.42 L 765.73 1231.49 C 768.465 1226.93 766.842 1221.11 762.104 1218.5 L 732.437 1202.13 C 727.685 1199.52 721.608 1201.09 718.863 1205.66 L 708.671 1222.63 C 700.234 1219.73 691.442 1217.53 682.389 1216.05 L 682.389 1196.39 C 682.389 1191.12 677.924 1186.85 672.414 1186.86 L 637.902 1186.94 C 632.374 1186.95 627.892 1191.25 627.892 1196.53 L 627.892 1216.23 C 618.792 1217.78 609.942 1220.05 601.439 1223.02 L 591.15 1206.04 C 588.375 1201.46 582.23 1199.91 577.422 1202.57 L 547.311 1219.24 C 542.489 1221.91 540.837 1227.79 543.622 1232.38 L 553.935 1249.36 C 546.879 1255.02 540.351 1261.26 534.411 1268 L 516.554 1258.28 C 511.72 1255.65 505.537 1257.25 502.744 1261.87 L 485.265 1290.76 C 482.467 1295.38 484.127 1301.26 488.972 1303.89 L 506.688 1313.49 C 503.524 1321.71 501.128 1330.27 499.484 1339.07 L 479.027 1339.24 C 473.43 1339.29 468.889 1343.64 468.889 1348.96 L 468.889 1382.24 C 468.889 1387.56 473.43 1391.83 479.027 1391.77 L 499.322 1391.56 C 500.919 1400.38 503.291 1408.95 506.423 1417.15 L 488.972 1426.94 C 484.127 1429.66 482.467 1435.56 485.265 1440.14 L 502.744 1468.7 C 505.537 1473.27 511.72 1474.76 516.554 1472.04 L 533.887 1462.28 C 539.864 1469.02 546.461 1475.23 553.587 1480.85 L 543.622 1497.44 C 540.837 1502.07 542.489 1507.93 547.311 1510.51 L 577.422 1526.62 C 582.23 1529.19 588.375 1527.52 591.15 1522.89 L 601.003 1506.45 C 609.639 1509.34 618.637 1511.48 627.892 1512.88 L 627.892 1531.72 C 627.892 1537.01 632.374 1541.22 637.902 1541.13 L 672.414 1540.56 C 677.924 1540.47 682.389 1536.12 682.389 1530.85 L 682.389 1512.05 C 691.595 1510.37 700.536 1507.97 709.103 1504.83 L 718.863 1520.9 C 721.608 1525.42 727.685 1526.89 732.437 1524.18 L 762.104 1507.27 C 766.842 1504.57 768.465 1498.72 765.73 1494.2 L 755.933 1478.03 C 762.939 1472.27 769.419 1465.94 775.286 1459.1 L 792.264 1468.31 C 796.989 1470.87 803.03 1469.23 805.757 1464.65 L 822.793 1436 C 825.516 1431.43 823.9 1425.64 819.185 1423.07 L 802.164 1413.8 C 805.224 1405.62 807.538 1397.11 809.096 1388.37 L 828.861 1388.16 C 834.302 1388.11 838.711 1383.81 838.711 1378.57 L 838.711 1345.78 C 838.711 1340.53 834.302 1336.32 828.861 1336.36 Z " fill-rule="evenodd" fill="url(#_lgradient_1256)"/><path d=" M 2513.04 1675.75 C 2501.96 1675.75 2492.98 1666.78 2492.98 1655.7 L 2492.98 1593.03 C 2492.98 1581.95 2501.96 1572.97 2513.04 1572.97 C 2524.11 1572.97 2533.09 1581.95 2533.09 1593.03 L 2533.09 1655.7 C 2533.09 1666.78 2524.11 1675.75 2513.04 1675.75 Z " fill="rgb(65,57,116)"/><path d=" M 1383.32 1566.49 C 1372.25 1566.49 1363.27 1557.51 1363.27 1546.43 L 1363.27 1483.76 C 1363.27 1472.68 1372.25 1463.71 1383.32 1463.71 C 1394.4 1463.71 1403.38 1472.68 1403.38 1483.76 L 1403.38 1546.43 C 1403.38 1557.51 1394.4 1566.49 1383.32 1566.49 Z " fill="rgb(65,57,116)"/><path d=" M 1383.32 1759.17 C 1372.25 1759.17 1363.27 1750.19 1363.27 1739.12 L 1363.27 1642.77 C 1363.27 1631.7 1372.25 1622.72 1383.32 1622.72 C 1394.4 1622.72 1403.38 1631.7 1403.38 1642.77 L 1403.38 1739.12 C 1403.38 1750.19 1394.4 1759.17 1383.32 1759.17 Z " fill="rgb(65,57,116)"/><path d=" M 1383.32 1918.18 C 1372.25 1918.18 1363.27 1909.21 1363.27 1898.13 L 1363.27 1835.46 C 1363.27 1824.38 1372.25 1815.4 1383.32 1815.4 C 1394.4 1815.4 1403.38 1824.38 1403.38 1835.46 L 1403.38 1898.13 C 1403.38 1909.21 1394.4 1918.18 1383.32 1918.18 Z " fill="rgb(65,57,116)"/><path d=" M 1965.77 1237.91 C 1954.7 1237.91 1945.72 1228.94 1945.72 1217.86 L 1945.72 1155.19 C 1945.72 1144.11 1954.7 1135.13 1965.77 1135.13 C 1976.85 1135.13 1985.83 1144.11 1985.83 1155.19 L 1985.83 1217.86 C 1985.83 1228.94 1976.85 1237.91 1965.77 1237.91 Z " fill="rgb(65,57,116)"/><path d=" M 1965.77 1430.6 C 1954.7 1430.6 1945.72 1421.62 1945.72 1410.54 L 1945.72 1314.2 C 1945.72 1303.13 1954.7 1294.15 1965.77 1294.15 C 1976.85 1294.15 1985.83 1303.13 1985.83 1314.2 L 1985.83 1410.54 C 1985.83 1421.62 1976.85 1430.6 1965.77 1430.6 Z " fill="rgb(65,57,116)"/><path d=" M 1965.77 1589.61 C 1954.7 1589.61 1945.72 1580.63 1945.72 1569.56 L 1945.72 1506.89 C 1945.72 1495.81 1954.7 1486.83 1965.77 1486.83 C 1976.85 1486.83 1985.83 1495.81 1985.83 1506.89 L 1985.83 1569.56 C 1985.83 1580.63 1976.85 1589.61 1965.77 1589.61 Z " fill="rgb(65,57,116)"/><path d=" M 962.758 1922.45 C 951.683 1922.45 942.704 1913.47 942.704 1902.4 L 942.704 1839.72 C 942.704 1828.65 951.683 1819.67 962.758 1819.67 C 973.833 1819.67 982.813 1828.65 982.813 1839.72 L 982.813 1902.4 C 982.813 1913.47 973.833 1922.45 962.758 1922.45 Z " fill="rgb(65,57,116)"/><path d=" M 962.758 2115.13 C 951.683 2115.13 942.704 2106.16 942.704 2095.08 L 942.704 1998.74 C 942.704 1987.66 951.683 1978.68 962.758 1978.68 C 973.833 1978.68 982.813 1987.66 982.813 1998.74 L 982.813 2095.08 C 982.813 2106.16 973.833 2115.13 962.758 2115.13 Z " fill="rgb(65,57,116)"/><path d=" M 962.758 2274.15 C 951.682 2274.15 942.703 2265.17 942.703 2254.09 L 942.703 2191.42 C 942.703 2180.35 951.682 2171.37 962.758 2171.37 C 973.833 2171.37 982.813 2180.35 982.813 2191.42 L 982.813 2254.09 C 982.813 2265.17 973.833 2274.15 962.758 2274.15 Z " fill="rgb(65,57,116)"/><path d=" M 2488.42 2956.71 L 772.818 2942.09 L 772.818 2985.36 C 772.818 2997.1 780.301 3007.09 790.436 3008.87 L 1275.56 3094.07 C 1281.31 3095.09 1287.15 3095.35 1292.96 3094.87 L 2469.78 2997.73 C 2480.29 2996.86 2488.42 2986.84 2488.42 2974.78 L 2488.42 2956.71 Z " fill="rgb(38,38,79)"/><path d=" M 1865.84 2887.37 L 790.559 2966.53 C 771.318 2967.95 755.673 2952.9 755.673 2932.91 L 755.673 2132.18 C 755.673 2112.19 771.318 2095.99 790.559 2095.99 L 1865.84 2095.99 C 1881.69 2095.99 1894.51 2110.64 1894.51 2128.71 L 1894.51 2852.55 C 1894.51 2870.62 1881.69 2886.21 1865.84 2887.37 Z " fill="rgb(38,38,79)"/><linearGradient id="_lgradient_1257" x1="0" y1="0" x2="1" y2="0" gradientTransform="matrix(1138.83,0,0,1138.83,772.819,2531.31)" gradientUnits="userSpaceOnUse"><stop offset="0%" stop-opacity="1" style="stop-color:rgb(68,75,140)"/><stop offset="99.64030000000001%" stop-opacity="1" style="stop-color:rgb(38,38,79)"/><stop offset="100%" stop-opacity="1" style="stop-color:rgb(38,38,79)"/></linearGradient><path d=" M 794.311 2964.75 C 781.699 2960.23 772.818 2947.97 772.818 2932.91 C 772.818 2947.97 781.703 2960.23 794.314 2964.75 L 794.311 2964.75 Z  M 772.818 2932.91 L 772.818 2932.91 L 772.818 2132.18 C 772.818 2112.19 788.463 2095.99 807.705 2095.99 L 1865.84 2095.99 L 1882.98 2095.99 C 1898.83 2095.99 1911.65 2110.64 1911.65 2128.71 L 1911.65 2852.55 C 1911.65 2867.46 1902.92 2880.68 1890.96 2885.5 L 1890.93 2885.51 C 1895.05 2883.84 1898.79 2881.17 1901.92 2877.79 C 1846.77 2874.77 1806.6 2859.9 1776.9 2841.33 L 1849.48 2836.34 C 1862.56 2835.44 1873.14 2822.67 1873.14 2807.81 L 1873.14 2169.29 C 1873.14 2154.46 1862.61 2142.48 1849.57 2142.48 C 1849.55 2142.48 1849.51 2142.48 1849.48 2142.48 L 1252.08 2145.06 L 1252.08 2145 L 875.335 2146.52 C 867.443 2130.81 861.842 2113.65 857.945 2095.99 L 807.705 2095.99 C 788.463 2095.99 772.818 2112.19 772.818 2132.18 L 772.818 2932.91 Z " fill-rule="evenodd" fill="url(#_lgradient_1257)"/><path d=" M 1849.48 2836.34 L 847.975 2905.1 C 832.317 2906.17 819.592 2893.82 819.592 2877.5 L 819.592 2176.47 C 819.592 2160.15 832.317 2146.87 847.975 2146.8 L 1849.48 2142.48 C 1862.56 2142.43 1873.14 2154.43 1873.14 2169.29 L 1873.14 2807.81 C 1873.14 2822.67 1862.56 2835.44 1849.48 2836.34 Z " fill="rgb(255,255,255)"/><path d=" M 1383.32 2117.89 C 1383.32 2125.33 1377.78 2131.38 1370.95 2131.4 C 1364.11 2131.43 1358.55 2125.4 1358.55 2117.94 C 1358.55 2110.49 1364.11 2104.44 1370.95 2104.43 C 1377.78 2104.43 1383.32 2110.45 1383.32 2117.89 Z " fill="rgb(255,255,255)"/><linearGradient id="_lgradient_1258" x1="0" y1="0" x2="1" y2="0" gradientTransform="matrix(1715.6,0,0,1715.6,772.819,2969.19)" gradientUnits="userSpaceOnUse"><stop offset="0%" stop-opacity="1" style="stop-color:rgb(68,75,140)"/><stop offset="99.64030000000001%" stop-opacity="1" style="stop-color:rgb(38,38,79)"/><stop offset="100%" stop-opacity="1" style="stop-color:rgb(38,38,79)"/></linearGradient><path d=" M 1287.36 3055.63 C 1283.41 3055.63 1279.47 3055.29 1275.56 3054.6 L 772.818 2966.3 L 780.519 2965.75 L 794.311 2964.75 L 794.314 2964.75 C 797.708 2965.97 801.372 2966.62 805.206 2966.62 C 806.031 2966.62 806.861 2966.59 807.701 2966.53 L 1877.54 2887.77 L 1882.98 2887.37 C 1885.74 2887.17 1888.41 2886.53 1890.93 2885.51 L 1890.96 2885.5 L 1925.84 2882.98 C 1927.98 2882.83 1930.12 2882.75 1932.27 2882.75 C 1936.25 2882.75 1940.22 2883.02 1944.18 2883.55 L 2488.42 2956.71 L 1292.96 3055.4 C 1291.1 3055.55 1289.23 3055.63 1287.36 3055.63 Z " fill="url(#_lgradient_1258)"/><path d=" M 941.063 2967.02 L 1900.99 2896.62 L 2198.07 2936.24 L 1246.42 3011.49 L 941.063 2967.02 Z " fill="rgb(38,38,79)"/><path d=" M 1252.08 2876.18 L 843.517 2903.67 C 831.531 2904.48 821.364 2894.97 821.364 2882.96 L 821.364 2167.41 C 821.364 2155.98 830.607 2146.7 842.04 2146.65 L 1252.08 2145 L 1252.08 2876.18 Z " fill="rgb(216,222,232)"/><path d=" M 1779.69 2485.98 L 1349.23 2501.11 L 1349.23 2457.58 L 1779.69 2444.09 L 1779.69 2485.98 Z " fill="rgb(216,222,232)"/><path d=" M 1779.69 2554.61 L 1349.23 2572.41 L 1349.23 2528.89 L 1779.69 2512.72 L 1779.69 2554.61 Z " fill="rgb(216,222,232)"/><path d=" M 1209.94 2493.8 L 962.757 2502.23 L 962.757 2469.7 L 1209.94 2461.95 L 1209.94 2493.8 Z " fill="rgb(255,255,255)"/><path d=" M 1209.94 2545.98 L 962.757 2555.52 L 962.757 2522.99 L 1209.94 2514.13 L 1209.94 2545.98 Z " fill="rgb(255,255,255)"/><path d=" M 1209.94 2598.16 L 962.757 2608.81 L 962.757 2576.28 L 1209.94 2566.31 L 1209.94 2598.16 Z " fill="rgb(255,255,255)"/><path d=" M 1209.94 2650.35 L 962.757 2662.11 L 962.757 2629.57 L 1209.94 2618.49 L 1209.94 2650.35 Z " fill="rgb(255,255,255)"/><path d=" M 1539.45 2634.67 L 1349.23 2643.72 L 1349.23 2600.19 L 1539.45 2591.86 L 1539.45 2634.67 Z " fill="rgb(216,222,232)"/><path d=" M 1553.48 2361.19 L 1562.49 2333.88 C 1558.63 2331.89 1556.02 2327.97 1556.02 2323.39 C 1556.02 2316.68 1561.64 2311.13 1568.58 2311 C 1575.5 2310.87 1581.11 2316.19 1581.11 2322.89 C 1581.11 2327.45 1578.51 2331.48 1574.66 2333.63 L 1583.64 2360.49 L 1553.48 2361.19 Z  M 1508.82 2293.6 L 1508.82 2358.98 C 1508.82 2377.88 1524.72 2392.79 1544.28 2392.28 L 1592.77 2391.02 C 1612.1 2390.51 1627.71 2374.94 1627.71 2356.24 L 1627.71 2291.54 L 1508.82 2293.6 Z " fill="rgb(216,222,232)"/><path d=" M 1613.93 2285.88 C 1608.78 2285.97 1604.61 2281.99 1604.61 2276.99 C 1604.61 2257.77 1588.47 2242.34 1568.58 2242.6 C 1548.61 2242.85 1532.32 2258.8 1532.32 2278.14 C 1532.32 2283.17 1528.09 2287.32 1522.86 2287.41 C 1517.63 2287.49 1513.39 2283.48 1513.39 2278.44 C 1513.39 2249.01 1538.21 2224.78 1568.58 2224.44 C 1598.78 2224.1 1623.23 2247.54 1623.23 2276.69 C 1623.23 2281.68 1619.06 2285.79 1613.93 2285.88 Z " fill="rgb(216,222,232)"/><linearGradient id="_lgradient_1259" x1="0" y1="0" x2="1" y2="0" gradientTransform="matrix(1138.83,0,0,1138.83,772.819,2531.31)" gradientUnits="userSpaceOnUse"><stop offset="0%" stop-opacity="1" style="stop-color:rgb(99,105,163)"/><stop offset="98.05870793650794%" stop-opacity="1" style="stop-color:rgb(67,68,110)"/><stop offset="99.64030000000001%" stop-opacity="1" style="stop-color:rgb(67,67,109)"/><stop offset="100%" stop-opacity="1" style="stop-color:rgb(67,67,109)"/></linearGradient><path d=" M 794.314 2964.75 C 781.703 2960.23 772.818 2947.97 772.818 2932.91 L 772.818 2932.91 L 772.818 2132.18 C 772.818 2112.19 788.463 2095.99 807.705 2095.99 L 857.945 2095.99 C 861.842 2113.65 867.443 2130.81 875.335 2146.52 L 842.04 2146.65 C 831.067 2146.7 822.111 2155.25 821.408 2166.04 C 820.234 2169.29 819.592 2172.8 819.592 2176.47 L 819.592 2877.5 C 819.592 2883.08 821.08 2888.2 823.665 2892.47 C 825.583 2896.19 828.585 2899.24 832.239 2901.22 C 836.252 2903.73 840.984 2905.16 846.082 2905.16 C 846.707 2905.16 847.34 2905.14 847.975 2905.1 L 1776.9 2841.33 C 1806.6 2859.9 1846.77 2874.77 1901.92 2877.79 C 1898.79 2881.17 1895.05 2883.84 1890.93 2885.51 L 794.314 2964.75 Z " fill="url(#_lgradient_1259)"/><path d=" M 846.082 2905.16 C 840.984 2905.16 836.252 2903.73 832.239 2901.22 C 835.18 2902.82 838.541 2903.72 842.098 2903.72 C 842.567 2903.72 843.042 2903.71 843.517 2903.67 L 1252.08 2876.18 L 1252.08 2447.88 C 1284.19 2464.71 1312.21 2466.6 1349.53 2508.27 C 1355.91 2515.39 1361.09 2522.04 1365.36 2528.28 L 1349.23 2528.89 L 1349.23 2572.41 L 1385.85 2570.9 C 1389.09 2580.39 1391.93 2589.24 1396.77 2598.11 L 1349.23 2600.19 L 1349.23 2643.72 L 1440.43 2639.38 C 1458.02 2648.17 1475.93 2650.26 1494.49 2650.26 C 1502.91 2650.26 1511.46 2649.83 1520.17 2649.4 C 1528.88 2648.97 1537.76 2648.54 1546.82 2648.54 C 1572.24 2648.54 1599.17 2651.92 1628.27 2668.15 C 1695.07 2705.43 1684.32 2761.33 1746.27 2818.03 C 1755.02 2826.03 1765.14 2833.97 1776.9 2841.33 L 847.975 2905.1 C 847.34 2905.14 846.707 2905.16 846.082 2905.16 Z  M 823.665 2892.47 C 821.08 2888.2 819.592 2883.08 819.592 2877.5 L 819.592 2176.47 C 819.592 2172.8 820.234 2169.29 821.408 2166.04 C 821.379 2166.5 821.364 2166.95 821.364 2167.41 L 821.364 2882.96 C 821.364 2886.4 822.195 2889.63 823.665 2892.47 Z " fill="rgb(255,255,255)"/><linearGradient id="_lgradient_1260" x1="0" y1="0" x2="1" y2="0" gradientTransform="matrix(1715.6,0,0,1715.6,772.819,2969.19)" gradientUnits="userSpaceOnUse"><stop offset="0%" stop-opacity="1" style="stop-color:rgb(99,105,163)"/><stop offset="98.05870793650794%" stop-opacity="1" style="stop-color:rgb(67,68,110)"/><stop offset="99.64030000000001%" stop-opacity="1" style="stop-color:rgb(67,67,109)"/><stop offset="100%" stop-opacity="1" style="stop-color:rgb(67,67,109)"/></linearGradient><path d=" M 805.206 2966.62 C 801.372 2966.62 797.708 2965.97 794.314 2964.75 L 1890.93 2885.51 C 1888.41 2886.53 1885.74 2887.17 1882.98 2887.37 L 1877.54 2887.77 L 807.701 2966.53 C 806.861 2966.59 806.031 2966.62 805.206 2966.62 Z " fill="url(#_lgradient_1260)"/><path d=" M 842.098 2903.72 C 838.541 2903.72 835.18 2902.82 832.239 2901.22 C 828.585 2899.24 825.583 2896.19 823.665 2892.47 C 822.195 2889.63 821.364 2886.4 821.364 2882.96 L 821.364 2167.41 C 821.364 2166.95 821.379 2166.5 821.408 2166.04 C 822.111 2155.25 831.067 2146.7 842.04 2146.65 L 875.335 2146.52 C 883.966 2163.7 895.336 2179.15 910.213 2191.64 C 976.245 2247.09 1051.06 2193.58 1120.42 2251.39 C 1177.6 2299.05 1144.4 2350.69 1210.78 2417.06 C 1225.77 2432.04 1239.25 2441.15 1252.08 2447.88 L 1252.08 2876.18 L 843.517 2903.67 C 843.042 2903.71 842.567 2903.72 842.098 2903.72 Z  M 1209.94 2618.49 L 962.757 2629.57 L 962.757 2662.11 L 1209.94 2650.35 L 1209.94 2618.49 Z  M 1209.94 2566.31 L 962.757 2576.28 L 962.757 2608.81 L 1209.94 2598.16 L 1209.94 2566.31 Z  M 1209.94 2514.13 L 962.757 2522.99 L 962.757 2555.52 L 1209.94 2545.98 L 1209.94 2514.13 Z  M 1209.94 2461.95 L 962.757 2469.7 L 962.757 2502.23 L 1209.94 2493.8 L 1209.94 2461.95 Z " fill="rgb(225,230,237)"/><path d=" M 1349.23 2572.41 L 1349.23 2528.89 L 1365.36 2528.28 C 1376.57 2544.69 1381.56 2558.36 1385.85 2570.9 L 1349.23 2572.41 Z " fill="rgb(225,230,237)"/><path d=" M 962.757 2502.23 L 962.757 2469.7 L 1209.94 2461.95 L 1209.94 2493.8 L 962.757 2502.23 Z " fill="rgb(255,255,255)"/><path d=" M 962.757 2555.52 L 962.757 2522.99 L 1209.94 2514.13 L 1209.94 2545.98 L 962.757 2555.52 Z " fill="rgb(255,255,255)"/><path d=" M 962.757 2608.81 L 962.757 2576.28 L 1209.94 2566.31 L 1209.94 2598.16 L 962.757 2608.81 Z " fill="rgb(255,255,255)"/><path d=" M 962.757 2662.11 L 962.757 2629.57 L 1209.94 2618.49 L 1209.94 2650.35 L 962.757 2662.11 Z " fill="rgb(255,255,255)"/><path d=" M 1349.23 2643.72 L 1349.23 2600.19 L 1396.77 2598.11 C 1401.09 2606.03 1407 2613.98 1416.21 2622.45 C 1424.24 2629.82 1432.3 2635.32 1440.43 2639.38 L 1349.23 2643.72 Z " fill="rgb(225,230,237)"/><linearGradient id="_lgradient_1261" x1="0" y1="0" x2="1" y2="0" gradientTransform="matrix(-341.829,328.554,-328.554,-341.829,2759.16,1422.2)" gradientUnits="userSpaceOnUse"><stop offset="0%" stop-opacity="1" style="stop-color:rgb(255,144,133)"/><stop offset="100%" stop-opacity="1" style="stop-color:rgb(251,111,187)"/></linearGradient><path d=" M 2077.1 2958.49 C 2046.95 2959.36 2017.54 2951.76 1992.06 2936.49 C 1914.44 2889.96 1799.75 2813.13 1696.57 2712.54 C 1565.63 2584.9 1490.41 2455.16 1473.95 2327.76 L 1473.69 2325.76 L 1470.5 1782.14 C 1470.5 1674.7 1540.57 1587.49 1672.13 1530.18 C 1780.83 1482.84 1924.9 1459.38 2077.1 1463.79 C 2227.53 1468.14 2366.73 1499.18 2469.76 1550.9 C 2592.23 1612.38 2656.49 1698.77 2656.49 1801.21 L 2653.58 2320.64 L 2653.34 2322.55 C 2638.3 2444.55 2569.09 2570.66 2446.75 2698.18 C 2348.63 2800.46 2237.74 2881.52 2161.59 2931.74 C 2136.4 2948.36 2107.19 2957.62 2077.1 2958.49 Z " fill="url(#_lgradient_1261)"/><linearGradient id="_lgradient_1262" x1="0" y1="0" x2="1" y2="0" gradientTransform="matrix(-584.001,973.334,-973.334,-584.001,1826.91,2503.68)" gradientUnits="userSpaceOnUse"><stop offset="0%" stop-opacity="1" style="stop-color:rgb(255,144,133)"/><stop offset="100%" stop-opacity="1" style="stop-color:rgb(251,111,187)"/></linearGradient><path d=" M 2106.96 2958.49 C 2077.2 2959.36 2048.18 2951.76 2023.04 2936.49 C 1946.44 2889.96 1833.27 2813.13 1731.45 2712.54 C 1602.24 2584.9 1528.01 2455.16 1511.77 2327.76 L 1511.51 2325.76 L 1508.36 1782.14 C 1508.36 1674.7 1577.51 1587.49 1707.34 1530.18 C 1814.6 1482.84 1956.77 1459.38 2106.96 1463.79 C 2255.4 1468.14 2392.76 1499.18 2494.42 1550.9 C 2615.28 1612.38 2678.69 1698.77 2678.69 1801.21 L 2675.81 2320.64 L 2675.58 2322.55 C 2660.74 2444.55 2592.44 2570.66 2471.72 2698.18 C 2374.89 2800.46 2265.47 2881.52 2190.33 2931.74 C 2165.47 2948.36 2136.65 2957.62 2106.96 2958.49 Z " fill="url(#_lgradient_1262)"/><linearGradient id="_lgradient_1263" x1="0" y1="0" x2="1" y2="0" gradientTransform="matrix(-943.679,-1897.54,1897.54,-943.679,2359.33,2579.11)" gradientUnits="userSpaceOnUse"><stop offset="0%" stop-opacity="1" style="stop-color:rgb(255,144,133)"/><stop offset="100%" stop-opacity="1" style="stop-color:rgb(251,111,187)"/></linearGradient><path d=" M 1544.26 1782.53 L 1547.43 2323.4 C 1583.03 2599.38 1907.36 2822.81 2048.61 2907.7 C 2089.08 2932.01 2140.81 2930.57 2180.99 2904.13 C 2319.3 2813.13 2625.86 2584.01 2658.62 2318.68 L 2661.53 1800.67 C 2661.53 1416.36 1544.26 1381.22 1544.26 1782.53 Z " fill="url(#_lgradient_1263)"/><linearGradient id="_lgradient_1264" x1="0" y1="0" x2="1" y2="0" gradientTransform="matrix(911.172,0,0,911.172,1651.35,2210.99)" gradientUnits="userSpaceOnUse"><stop offset="0%" stop-opacity="1" style="stop-color:rgb(49,25,68)"/><stop offset="100%" stop-opacity="1" style="stop-color:rgb(137,57,118)"/></linearGradient><path d=" M 2114.97 2824.33 C 2112.38 2824.39 2108.46 2823.96 2104.51 2821.56 C 2046.34 2786.34 1933.6 2712.56 1835.52 2616.22 C 1729.57 2512.15 1668.47 2410.97 1654.46 2315.95 L 1651.35 1784.02 C 1651.48 1732.99 1691.88 1689.31 1771.08 1654.36 C 1859.48 1615.34 1985.04 1594.86 2114.97 1597.95 C 2243.62 1601 2365.5 1626.9 2449.95 1668.8 C 2524.64 1705.86 2562.4 1749.56 2562.52 1798.83 L 2559.63 2312.34 C 2546.55 2404.29 2489.2 2503.43 2388.51 2607.64 C 2293.83 2705.62 2183.24 2783.29 2125.43 2821.07 C 2121.48 2823.65 2117.56 2824.27 2114.97 2824.33 Z " fill="url(#_lgradient_1264)"/><path d=" M 2101.7 2787.97 C 2042.96 2751.79 1938.52 2681.94 1847.39 2592.26 C 1747.83 2494.27 1690.21 2400.24 1676.67 2313.24 L 1673.58 1784.41 C 1673.67 1747.92 1707.22 1714.45 1773.03 1685.31 C 1856.77 1648.23 1976.77 1628.68 2101.7 1631.49 C 2225.43 1634.27 2342.06 1658.71 2422.21 1698.36 C 2484.48 1729.17 2515.99 1762.78 2516.07 1798.37 L 2513.18 2309.99 C 2500.47 2394.4 2446.13 2486.72 2351.09 2584.89 C 2262.86 2676.04 2160.17 2749.34 2101.7 2787.97 Z " fill="rgb(244,247,250)"/><linearGradient id="_lgradient_1265" x1="0" y1="0" x2="1" y2="0" gradientTransform="matrix(-374.75,692.718,-692.718,-374.75,2397.16,1740.88)" gradientUnits="userSpaceOnUse"><stop offset="0%" stop-opacity="1" style="stop-color:rgb(227,141,221)"/><stop offset="0.35971200000000003%" stop-opacity="1" style="stop-color:rgb(227,141,221)"/><stop offset="100%" stop-opacity="1" style="stop-color:rgb(149,113,246)"/></linearGradient><path d=" M 2311.87 2095.58 L 1916.34 2099.1 C 1885.94 2099.37 1861.17 2123.08 1861.17 2152.03 L 1861.17 2405.44 C 1861.17 2434.23 1885.84 2456.54 1916.14 2455.29 L 2310.27 2439.16 C 2338.3 2438.01 2361.04 2414.8 2361.18 2387.3 L 2362.43 2145.21 C 2362.57 2117.56 2340 2095.33 2311.87 2095.58 Z " fill="url(#_lgradient_1265)"/><linearGradient id="_lgradient_1266" x1="0" y1="0" x2="1" y2="0" gradientTransform="matrix(102.318,0,0,102.318,2065.91,2287.94)" gradientUnits="userSpaceOnUse"><stop offset="0%" stop-opacity="1" style="stop-color:rgb(49,25,68)"/><stop offset="100%" stop-opacity="1" style="stop-color:rgb(137,57,118)"/></linearGradient><path d=" M 2168.22 2240.9 C 2168.31 2212.91 2144.29 2190.79 2114.96 2192.64 C 2088.99 2194.28 2067.45 2215.26 2065.99 2240.43 C 2064.86 2259.95 2075.42 2276.86 2091.49 2285.45 C 2098.32 2289.1 2101.7 2296.75 2100.36 2304.3 L 2088.92 2368.31 C 2087.47 2376.46 2093.93 2383.63 2102.44 2383.33 L 2131.38 2382.32 C 2139.84 2382.02 2146.27 2374.44 2144.88 2366.43 L 2133.82 2303.02 C 2132.49 2295.45 2136.4 2287.95 2143.25 2283.82 C 2158.16 2274.85 2168.17 2258.89 2168.22 2240.9 Z " fill="url(#_lgradient_1266)"/><linearGradient id="_lgradient_1267" x1="0" y1="0" x2="1" y2="0" gradientTransform="matrix(-374.749,692.717,-692.717,-374.749,2288.88,1682.3)" gradientUnits="userSpaceOnUse"><stop offset="0%" stop-opacity="1" style="stop-color:rgb(227,141,221)"/><stop offset="0.35971200000000003%" stop-opacity="1" style="stop-color:rgb(227,141,221)"/><stop offset="100%" stop-opacity="1" style="stop-color:rgb(149,113,246)"/></linearGradient><path d=" M 2306.31 2070.45 C 2294.43 2070.53 2284.83 2061.09 2284.88 2049.37 L 2285.12 1994.17 C 2285.36 1938.72 2239.52 1893.11 2182.4 1892.54 L 2053.3 1891.26 C 1994.18 1890.68 1945.57 1936.78 1945.52 1993.97 L 1945.47 2050.92 C 1945.46 2063.01 1935.17 2072.88 1922.45 2072.96 C 1909.71 2073.04 1899.36 2063.27 1899.36 2051.13 L 1899.39 1993.95 C 1899.42 1912.2 1969.03 1846.56 2053.38 1847.73 L 2182.54 1849.53 C 2263.68 1850.66 2328.5 1915.6 2328.12 1994.19 L 2327.85 2049.17 C 2327.79 2060.85 2318.16 2070.37 2306.31 2070.45 Z " fill="url(#_lgradient_1267)"/><linearGradient id="_lgradient_1268" x1="0" y1="0" x2="1" y2="0" gradientTransform="matrix(162.994,205.068,-205.068,162.994,2219.78,1799.64)" gradientUnits="userSpaceOnUse"><stop offset="0%" stop-opacity="1" style="stop-color:rgb(255,196,68)"/><stop offset="99.64030000000001%" stop-opacity="1" style="stop-color:rgb(243,111,86)"/><stop offset="100%" stop-opacity="1" style="stop-color:rgb(243,111,86)"/></linearGradient><path d=" M 2342.22 1907.58 L 2311.21 1873.74 C 2305.47 1866.96 2296.49 1857.85 2283.63 1849.96 C 2258.68 1834.66 2224.35 1827.16 2219.21 1835.89 C 2213.38 1845.8 2245.99 1875.17 2257.09 1884.86 C 2272.42 1896 2287.76 1907.13 2303.09 1918.27 L 2342.22 1907.58 Z " fill="url(#_lgradient_1268)"/><linearGradient id="_lgradient_1269" x1="0" y1="0" x2="1" y2="0" gradientTransform="matrix(4401.99,-1718.68,1718.68,4401.99,2211.95,2214.53)" gradientUnits="userSpaceOnUse"><stop offset="0%" stop-opacity="1" style="stop-color:rgb(255,196,68)"/><stop offset="99.64030000000001%" stop-opacity="1" style="stop-color:rgb(243,111,86)"/><stop offset="100%" stop-opacity="1" style="stop-color:rgb(243,111,86)"/></linearGradient><path d=" M 3004.66 1677.6 C 3013.08 1680.78 3141.53 1731.86 3167.93 1865.92 C 3170.07 1876.75 3190.7 1991.94 3112.59 2073.3 C 3025 2164.55 2856.34 2162.28 2789.4 2086.01 C 2773.78 2068.22 2765.55 2048.5 2760.93 2031.94 L 2778.57 1985.08 C 2800.1 1959.09 2829.4 1952.94 2845.05 1949.08 C 2883.64 1939.57 2912.77 1956.76 2934.86 1938.15 C 2947.09 1927.86 2949.52 1913.04 2951.69 1899.8 C 2959.08 1854.73 2933.63 1826.98 2931.78 1799.18 C 2930.4 1778.4 2923.13 1732.86 2950.25 1703.17 C 2967.43 1684.36 2991.22 1679.24 3004.66 1677.6 Z " fill="url(#_lgradient_1269)"/><linearGradient id="_lgradient_1270" x1="0" y1="0" x2="1" y2="0" gradientTransform="matrix(58.685,38.999,-38.999,58.685,3039.91,3147.86)" gradientUnits="userSpaceOnUse"><stop offset="0%" stop-opacity="1" style="stop-color:rgb(68,75,140)"/><stop offset="99.64030000000001%" stop-opacity="1" style="stop-color:rgb(38,38,79)"/><stop offset="100%" stop-opacity="1" style="stop-color:rgb(38,38,79)"/></linearGradient><path d=" M 3054.71 3171.68 C 3056.21 3163.42 3082.86 3155.95 3096.06 3167.01 C 3102.61 3172.5 3107.13 3183.62 3103.33 3188.65 C 3101.95 3190.48 3107.6 3193.69 3102.19 3193.75 C 3084.24 3193.96 3053.22 3179.88 3054.71 3171.68 Z " fill="url(#_lgradient_1270)"/><linearGradient id="_lgradient_1271" x1="0" y1="0" x2="1" y2="0" gradientTransform="matrix(-12.84,-90.814,90.814,-12.84,3096.69,3187.22)" gradientUnits="userSpaceOnUse"><stop offset="0%" stop-opacity="1" style="stop-color:rgb(255,196,68)"/><stop offset="99.64030000000001%" stop-opacity="1" style="stop-color:rgb(243,111,86)"/><stop offset="100%" stop-opacity="1" style="stop-color:rgb(243,111,86)"/></linearGradient><path d=" M 3082.65 3174.68 L 3110.06 3170.81 C 3097.36 3155.52 3099.71 3106.83 3099.71 3106.83 L 3070.56 3113.33 C 3070.56 3113.33 3073.88 3126.7 3079.53 3146.41 C 3081.47 3153.16 3082.33 3163.72 3082.65 3174.68 Z " fill="url(#_lgradient_1271)"/><linearGradient id="_lgradient_1272" x1="0" y1="0" x2="1" y2="0" gradientTransform="matrix(58.686,38.999,-38.999,58.685,3044.32,3141.23)" gradientUnits="userSpaceOnUse"><stop offset="0%" stop-opacity="1" style="stop-color:rgb(68,75,140)"/><stop offset="99.64030000000001%" stop-opacity="1" style="stop-color:rgb(38,38,79)"/><stop offset="100%" stop-opacity="1" style="stop-color:rgb(38,38,79)"/></linearGradient><path d=" M 3080.22 3171.3 C 3080.22 3171.3 3113.22 3163.7 3116.79 3170.25 C 3120.36 3176.79 3123.13 3194.32 3102.19 3193.75 C 3081.25 3193.19 3078.36 3176.85 3080.22 3171.3 Z " fill="url(#_lgradient_1272)"/><linearGradient id="_lgradient_1273" x1="0" y1="0" x2="1" y2="0" gradientTransform="matrix(52.648,46.831,-46.83,52.648,2667.28,3176.97)" gradientUnits="userSpaceOnUse"><stop offset="0%" stop-opacity="1" style="stop-color:rgb(68,75,140)"/><stop offset="99.64030000000001%" stop-opacity="1" style="stop-color:rgb(38,38,79)"/><stop offset="100%" stop-opacity="1" style="stop-color:rgb(38,38,79)"/></linearGradient><path d=" M 2678.6 3202.62 C 2681.24 3194.66 2708.68 3191 2720.2 3203.79 C 2725.92 3210.14 2728.83 3221.79 2724.37 3226.23 C 2722.75 3227.85 2727.89 3231.83 2722.52 3231.13 C 2704.72 3228.82 2675.98 3210.54 2678.6 3202.62 Z " fill="url(#_lgradient_1273)"/><linearGradient id="_lgradient_1274" x1="0" y1="0" x2="1" y2="0" gradientTransform="matrix(0,-91.717,91.717,0,2717.99,3223.89)" gradientUnits="userSpaceOnUse"><stop offset="0%" stop-opacity="1" style="stop-color:rgb(255,196,68)"/><stop offset="99.64030000000001%" stop-opacity="1" style="stop-color:rgb(243,111,86)"/><stop offset="100%" stop-opacity="1" style="stop-color:rgb(243,111,86)"/></linearGradient><path d=" M 2705.84 3209.51 L 2733.53 3209.51 C 2723.09 3192.59 2732.24 3144.71 2732.24 3144.71 L 2702.46 3147.07 C 2702.46 3147.07 2703.88 3160.77 2706.72 3181.08 C 2707.69 3188.04 2707.06 3198.61 2705.84 3209.51 Z " fill="url(#_lgradient_1274)"/><linearGradient id="_lgradient_1275" x1="0" y1="0" x2="1" y2="0" gradientTransform="matrix(-122.272,-855.902,855.902,-122.272,2907.84,3246.74)" gradientUnits="userSpaceOnUse"><stop offset="0%" stop-opacity="1" style="stop-color:rgb(227,141,221)"/><stop offset="0.35971200000000003%" stop-opacity="1" style="stop-color:rgb(227,141,221)"/><stop offset="100%" stop-opacity="1" style="stop-color:rgb(149,113,246)"/></linearGradient><path d=" M 2634.1 2162.64 C 2621.28 2204.99 2602.96 2273.33 2591.17 2359.09 C 2557.55 2603.69 2629.02 2611.49 2615.67 2882.54 C 2611.41 2969.05 2690.62 3168.56 2697.61 3172.96 C 2700.99 3173.29 2704.65 3173.51 2708.56 3173.39 C 2715.45 3173.19 2725.17 3172.13 2736.46 3168.74 C 2749.01 3166.58 2794.25 3044.04 2783.77 2971.18 C 2776.35 2919.62 2778.5 2864.28 2782.8 2753.6 C 2783.5 2735.66 2829.38 2404.68 2829.38 2404.68 C 2843.34 2527.19 2859.39 2631.29 2873.31 2711.99 C 2918.02 2971.29 3063.38 3128.23 3070.97 3130.75 C 3072.47 3131.35 3086.11 3136.31 3097.26 3128.96 C 3102.22 3125.69 3103.91 3121.46 3103.91 3121.46 C 3107.8 3118.42 3102.77 2862.59 3058.43 2670.05 C 2994.07 2390.58 3022.09 2325.19 3001.7 2200.37 C 2984.06 2092.36 2634.1 2162.64 2634.1 2162.64 Z " fill="url(#_lgradient_1275)"/><linearGradient id="_lgradient_1276" x1="0" y1="0" x2="1" y2="0" gradientTransform="matrix(4402.01,-1718.69,1718.69,4402.01,2203.99,2194.16)" gradientUnits="userSpaceOnUse"><stop offset="0%" stop-opacity="1" style="stop-color:rgb(255,196,68)"/><stop offset="99.64030000000001%" stop-opacity="1" style="stop-color:rgb(243,111,86)"/><stop offset="100%" stop-opacity="1" style="stop-color:rgb(243,111,86)"/></linearGradient><path d=" M 2894.06 1655.78 C 2851.33 1654.53 2753.11 1639.44 2699.02 1688.12 C 2698.08 1688.96 2709.16 1694.88 2703.7 1701.28 C 2698.64 1707.21 2681.26 1727.99 2665.51 1756.08 C 2654.1 1776.43 2643.8 1800.14 2633.41 1835.48 C 2615.08 1897.81 2609.83 1950.89 2608.07 1974.02 C 2598.18 2104.06 2607.98 2164.06 2616.88 2204.86 C 2655.52 2224.71 2755.06 2260.21 2873.68 2242.57 C 2927.85 2234.51 2971.2 2216.49 3001.7 2200.4 C 2970.92 2107.21 2995.07 2057.34 3006.46 2011.38 C 3022.71 1945.84 3022.97 1950.8 3036.34 1898.74 C 3058.41 1812.83 3062.03 1725.05 3046.87 1707.09 C 3005.98 1658.66 2932.31 1656.91 2894.06 1655.78 Z " fill="url(#_lgradient_1276)"/><linearGradient id="_lgradient_1277" x1="0" y1="0" x2="1" y2="0" gradientTransform="matrix(52.647,46.83,-46.83,52.647,2672.57,3171.02)" gradientUnits="userSpaceOnUse"><stop offset="0%" stop-opacity="1" style="stop-color:rgb(68,75,140)"/><stop offset="99.64030000000001%" stop-opacity="1" style="stop-color:rgb(38,38,79)"/><stop offset="100%" stop-opacity="1" style="stop-color:rgb(38,38,79)"/></linearGradient><path d=" M 2703.91 3205.82 C 2703.91 3205.82 2737.65 3202.92 2740.27 3209.9 C 2742.89 3216.88 2743.18 3234.62 2722.52 3231.13 C 2701.87 3227.64 2701.29 3211.06 2703.91 3205.82 Z " fill="url(#_lgradient_1277)"/><linearGradient id="_lgradient_1278" x1="0" y1="0" x2="1" y2="0" gradientTransform="matrix(-109.487,-213.843,-213.843,109.487,2855.3,1679.39)" gradientUnits="userSpaceOnUse"><stop offset="0%" stop-opacity="1" style="stop-color:rgb(255,196,68)"/><stop offset="99.64030000000001%" stop-opacity="1" style="stop-color:rgb(243,111,86)"/><stop offset="100%" stop-opacity="1" style="stop-color:rgb(243,111,86)"/></linearGradient><path d=" M 2773.8 1606.79 C 2760.57 1584.42 2766.46 1558.85 2767.79 1553.33 C 2773.36 1530.2 2775.43 1526.69 2779.72 1521.8 L 2785.79 1515.38 C 2785.79 1515.38 2786.17 1515.1 2786.57 1514.83 C 2790.79 1511.92 2806.55 1507.21 2809.95 1507.04 C 2820.82 1506.49 2842.94 1545.46 2855.6 1605.52 C 2856.63 1607.66 2857.65 1609.83 2858.65 1612.02 C 2864.94 1625.64 2870.32 1639.04 2874.95 1652.11 C 2948.4 1658.32 2958.59 1666.93 2958.92 1671.91 C 2959.61 1682.39 2917.76 1694.49 2886.29 1699.1 C 2817.65 1709.15 2747.1 1691.05 2747.42 1678.25 C 2747.56 1672.68 2761.2 1665.41 2819.39 1657.79 C 2818.02 1648.17 2816.66 1638.54 2815.3 1628.91 C 2810.57 1627.86 2783.55 1623.28 2773.8 1606.79 Z " fill="url(#_lgradient_1278)"/><linearGradient id="_lgradient_1279" x1="0" y1="0" x2="1" y2="0" gradientTransform="matrix(12.877,447.014,-447.014,12.877,2825.01,1463.81)" gradientUnits="userSpaceOnUse"><stop offset="0%" stop-opacity="1" style="stop-color:rgb(171,49,109)"/><stop offset="100%" stop-opacity="1" style="stop-color:rgb(121,45,61)"/></linearGradient><path d=" M 2760 1504.24 C 2764.95 1522.57 2778.82 1539.86 2784.06 1541.84 C 2784.74 1542.09 2788.61 1543.77 2792.64 1547.33 C 2793.19 1547.81 2793.72 1548.41 2794.27 1549.22 C 2801.37 1559.71 2786.61 1578.21 2791.54 1582.45 C 2795.11 1585.52 2806.27 1577.16 2808.62 1580.01 C 2810.83 1582.69 2802.14 1591.78 2804.7 1595.01 C 2806.63 1597.45 2812.35 1593.22 2817.51 1596.37 C 2820.08 1597.94 2819.93 1599.77 2823.78 1605.64 C 2825.95 1608.96 2828.7 1612.49 2830.59 1614.36 C 2839.81 1623.44 2858.82 1622.59 2861.12 1617.36 C 2861.76 1615.9 2860.67 1615.11 2860.58 1610.82 C 2860.58 1610.82 2860.49 1606.84 2861.94 1601.82 C 2864.01 1594.66 2871.8 1587.86 2879.11 1578.93 C 2892.65 1562.39 2894.46 1550.89 2894.9 1547.05 C 2895.06 1545.69 2895.11 1544.67 2895.15 1543.94 C 2895.9 1529.25 2890.63 1509.38 2881.29 1498.79 C 2865.65 1481.04 2845.26 1496.88 2821.05 1481.62 C 2793.12 1464.01 2797.52 1428.58 2784.8 1428.19 C 2770.78 1427.76 2750.84 1470.34 2760 1504.24 Z " fill="url(#_lgradient_1279)"/><linearGradient id="_lgradient_1280" x1="0" y1="0" x2="1" y2="0" gradientTransform="matrix(285.109,358.704,-358.704,285.109,2731.09,1496.99)" gradientUnits="userSpaceOnUse"><stop offset="0%" stop-opacity="1" style="stop-color:rgb(255,196,68)"/><stop offset="99.64030000000001%" stop-opacity="1" style="stop-color:rgb(243,111,86)"/><stop offset="100%" stop-opacity="1" style="stop-color:rgb(243,111,86)"/></linearGradient><path d=" M 2796.98 1576.38 C 2799.83 1569 2809.29 1572.7 2811.46 1580.68 C 2813.64 1588.66 2808.11 1599.04 2800.17 1599.46 C 2792.24 1599.89 2793.15 1586.3 2796.98 1576.38 Z " fill="url(#_lgradient_1280)"/><path d=" M 2988.09 2141.19 C 2987.59 2141.19 2987.16 2140.81 2987.1 2140.3 C 2982 2094.4 2991.48 2061.16 2999.85 2031.83 C 3001.89 2024.67 3003.82 2017.9 3005.5 2011.14 C 3014.73 1973.89 3018.77 1959.51 3023.05 1944.29 C 3025.83 1934.4 3028.7 1924.18 3033.15 1907.1 C 3033.29 1906.57 3033.82 1906.25 3034.37 1906.39 C 3034.9 1906.53 3035.21 1907.07 3035.07 1907.6 C 3030.62 1924.7 3027.74 1934.93 3024.96 1944.83 C 3020.69 1960.04 3016.65 1974.4 3007.43 2011.62 C 3005.74 2018.42 3003.81 2025.2 3001.76 2032.38 C 2993.45 2061.53 2984.03 2094.57 2989.08 2140.08 C 2989.14 2140.63 2988.75 2141.12 2988.2 2141.18 L 2988.09 2141.19 Z " fill="rgb(155,48,94)"/><linearGradient id="_lgradient_1281" x1="0" y1="0" x2="1" y2="0" gradientTransform="matrix(12.877,447.013,-447.013,12.877,2779.66,1465.12)" gradientUnits="userSpaceOnUse"><stop offset="0%" stop-opacity="1" style="stop-color:rgb(171,49,109)"/><stop offset="100%" stop-opacity="1" style="stop-color:rgb(121,45,61)"/></linearGradient><path d=" M 2797.07 1562.03 L 2790.25 1578.38 C 2790.25 1578.38 2783.44 1598.01 2774.44 1590.65 C 2767.09 1584.63 2765.75 1585.17 2765.5 1585.57 L 2765.45 1585.74 C 2765.35 1585.74 2765.25 1581.83 2765.17 1578.38 C 2763.46 1583.11 2761.36 1590.6 2761.36 1599.92 C 2761.36 1608.97 2761.36 1618.66 2768.45 1626.08 C 2768.86 1626.51 2776.58 1634.36 2786.98 1633.99 C 2786.98 1633.99 2791.07 1633.84 2806.61 1626.63 C 2806.61 1626.63 2785.35 1618.45 2784.25 1615.45 C 2781.29 1607.3 2791.67 1599.7 2795.7 1580.29 C 2797.26 1572.8 2797.3 1566.38 2797.07 1562.03 Z " fill="url(#_lgradient_1281)"/><linearGradient id="_lgradient_1282" x1="0" y1="0" x2="1" y2="0" gradientTransform="matrix(4402.01,-1718.69,1718.69,4402.01,2156.28,2071.96)" gradientUnits="userSpaceOnUse"><stop offset="0%" stop-opacity="1" style="stop-color:rgb(255,196,68)"/><stop offset="99.64030000000001%" stop-opacity="1" style="stop-color:rgb(243,111,86)"/><stop offset="100%" stop-opacity="1" style="stop-color:rgb(243,111,86)"/></linearGradient><path d=" M 2325.06 1883.4 C 2309.61 1894.21 2301.32 1908.9 2297.02 1918.27 C 2308.38 1944.94 2334.15 1994.45 2387.48 2030.94 C 2474.92 2090.77 2603.14 2092.78 2692.44 2024.55 C 2799.14 1943.04 2816.97 1786.72 2772.15 1719.78 C 2766.99 1712.08 2750.03 1686.74 2723.7 1683.83 C 2707.07 1682 2684.44 1688.85 2648.68 1730.72 C 2574.17 1817.96 2600.49 1872.43 2556.47 1897.95 C 2490.46 1936.23 2392.37 1836.3 2325.06 1883.4 Z " fill="url(#_lgradient_1282)"/><path d=" M 2625.42 2061.24 C 2624.96 2061.24 2624.55 2060.92 2624.45 2060.45 C 2624.33 2059.92 2624.67 2059.38 2625.21 2059.27 C 2626.25 2059.04 2729.76 2035.2 2776.38 1906.59 C 2776.57 1906.08 2777.15 1905.81 2777.66 1905.99 C 2778.17 1906.18 2778.44 1906.75 2778.25 1907.27 C 2753.7 1975.02 2713.53 2013.26 2684.17 2033.41 C 2652.32 2055.26 2625.89 2061.16 2625.63 2061.21 L 2625.42 2061.24 Z " fill="rgb(155,48,94)"/></g></g></g></svg>