<?xml version="1.0" encoding="UTF-8" standalone="no"?><!-- Generator: Gravit.io --><svg xmlns="http://www.w3.org/2000/svg" xmlns:xlink="http://www.w3.org/1999/xlink" style="isolation:isolate" viewBox="0 0 3710 3710" width="3710pt" height="3710pt"><defs><clipPath id="_clipPath_bCIlOfG3TluXK1QxKeymcY7zDv6nX3rl"><rect width="3710" height="3710"/></clipPath></defs><g clip-path="url(#_clipPath_bCIlOfG3TluXK1QxKeymcY7zDv6nX3rl)"><g><clipPath id="_clipPath_ubcfZfPj3eh8fcVjvkKV0J6WkorFPcKs"><path d=" M 0 0 L 0 3710 L 3710 3710 L 3710 0 L 0 0 Z " fill="rgb(255,255,255)"/></clipPath><g clip-path="url(#_clipPath_ubcfZfPj3eh8fcVjvkKV0J6WkorFPcKs)"><linearGradient id="_lgradient_1066" x1="0" y1="0" x2="1" y2="0" gradientTransform="matrix(-3172.28,-4806.5,4806.5,-3172.28,3394.76,4189.51)" gradientUnits="userSpaceOnUse"><stop offset="0%" stop-opacity="1" style="stop-color:rgb(9,0,93)"/><stop offset="100%" stop-opacity="1" style="stop-color:rgb(26,15,145)"/></linearGradient><path d=" M 1154.72 585.579 C 1088.04 591.377 1036.92 647.217 1036.73 714.143 C 1035.57 1123.42 1033.66 2535.13 1060.34 3034.8 C 1063.16 3087.74 1106.56 3129.32 1159.57 3129.89 C 1421.74 3132.71 2175.89 3137.9 2604.02 3110.52 C 2693.19 3104.81 2762.58 3030.96 2762.48 2941.6 C 2761.96 2512.05 2755.09 1304 2696.25 751.812 C 2689.2 685.651 2636.02 634.009 2569.68 628.841 C 2283.74 606.562 1524.41 553.427 1154.72 585.579 Z " fill="url(#_lgradient_1066)"/><path d=" M 1141.98 821.401 C 1136.83 1171.5 1122.17 2336.15 1147.76 2766 C 1151.5 2828.83 1200.3 2878.43 1260.56 2880.53 C 1508.68 2889.17 2144.92 2905.91 2507.47 2866.02 C 2572.75 2858.83 2622.64 2802.25 2624.38 2733.73 C 2633.45 2376.45 2657.95 1291.72 2633.08 866.677 C 2629.11 798.871 2577.31 744.767 2512.37 740.391 C 2243.72 722.289 1553.86 680.542 1245.57 706.216 C 1187.69 711.036 1142.87 760.79 1141.98 821.401 Z " fill="rgb(145,179,250)"/><linearGradient id="_lgradient_1067" x1="0" y1="0" x2="1" y2="0" gradientTransform="matrix(278.871,0,0,278.871,1741.34,649.192)" gradientUnits="userSpaceOnUse"><stop offset="0%" stop-opacity="1" style="stop-color:rgb(79,82,255)"/><stop offset="100%" stop-opacity="1" style="stop-color:rgb(64,66,226)"/></linearGradient><path d=" M 1741.45 646.451 C 1741.66 656.124 1749.37 663.935 1759.04 664.229 C 1806.79 665.68 1941.27 669.797 2001.39 671.962 C 2013.24 672.389 2022.29 661.545 2019.79 649.952 C 2019.59 649.586 2018.05 634.722 2002.87 633.667 C 1962.21 630.839 1839.53 623.216 1758.46 627.894 C 1741.81 628.854 1740.91 647.786 1741.45 646.451 Z " fill="url(#_lgradient_1067)"/><linearGradient id="_lgradient_1068" x1="0" y1="0" x2="1" y2="0" gradientTransform="matrix(1496.88,-1833.34,1833.34,1496.88,1772.56,2598.93)" gradientUnits="userSpaceOnUse"><stop offset="0%" stop-opacity="1" style="stop-color:rgb(225,71,61)"/><stop offset="100%" stop-opacity="1" style="stop-color:rgb(233,96,90)"/></linearGradient><path d=" M 1433.2 1878.68 C 1433.2 1878.68 1775.17 1792.89 2136.5 1844.63 C 2238.16 1859.19 2328.21 1918.33 2383.07 2005.15 C 2481.92 2161.58 2621.67 2440.34 2592.11 2731.07 L 2436.96 2769.44 C 2436.96 2769.44 2329.74 2424.42 2209.05 2284 C 2209.05 2284 2066.13 2609.79 2073.36 2788.68 C 2073.56 2793.74 2073.89 2798.68 2074.34 2803.49 C 2090.74 2978.52 1388.26 2836.15 1388.26 2836.15 L 1433.2 1878.68 Z " fill="url(#_lgradient_1068)"/><linearGradient id="_lgradient_1069" x1="0" y1="0" x2="1" y2="0" gradientTransform="matrix(167.178,-452.682,452.682,167.178,1744.06,2167.92)" gradientUnits="userSpaceOnUse"><stop offset="0%" stop-opacity="1" style="stop-color:rgb(254,187,186)"/><stop offset="100%" stop-opacity="1" style="stop-color:rgb(255,146,142)"/></linearGradient><path d=" M 1802.9 1586.63 L 1730.1 1818.54 C 1723.32 1840.11 1730.06 1863.22 1746.98 1876.25 C 1785.94 1906.26 1862.97 1954.04 1957.08 1952.67 C 1974.3 1952.42 1988.78 1937.72 1989.98 1919.69 L 2015.85 1532.07 L 1802.9 1586.63 Z " fill="url(#_lgradient_1069)"/><linearGradient id="_lgradient_1070" x1="0" y1="0" x2="1" y2="0" gradientTransform="matrix(-489.85,204.924,-204.924,-489.85,2061.86,1480.65)" gradientUnits="userSpaceOnUse"><stop offset="0%" stop-opacity="1" style="stop-color:rgb(254,187,186)"/><stop offset="100%" stop-opacity="1" style="stop-color:rgb(255,146,142)"/></linearGradient><path d=" M 2084.81 1332.46 C 2084.81 1332.46 2113.09 1515.1 2095.28 1602.38 C 2077.47 1689.66 2081.34 1750.35 1977.33 1741.54 C 1873.32 1732.73 1802.55 1661.16 1779.67 1563.55 C 1779.67 1563.55 1743.24 1412.83 1773.4 1362.95 C 1803.56 1313.07 2084.81 1332.46 2084.81 1332.46 Z " fill="url(#_lgradient_1070)"/><linearGradient id="_lgradient_1071" x1="0" y1="0" x2="1" y2="0" gradientTransform="matrix(-205.992,617.978,-617.978,-205.992,2032.88,967.364)" gradientUnits="userSpaceOnUse"><stop offset="0%" stop-opacity="1" style="stop-color:rgb(9,0,93)"/><stop offset="100%" stop-opacity="1" style="stop-color:rgb(26,15,145)"/></linearGradient><path d=" M 1829.84 1510.87 L 1842.42 1514.17 C 1842.42 1514.17 1818.53 1394.3 1868.96 1387.59 C 1919.38 1380.88 2109.36 1391.48 2165.08 1337.72 C 2218.79 1285.9 2206.28 1197.43 2162.09 1161.99 C 2159.29 1159.74 2155.17 1160.25 2152.74 1162.89 L 2146.54 1169.65 C 2142.29 1174.27 2134.57 1171.37 2134.41 1165.09 C 2134.26 1159.14 2127.12 1155.97 2122.79 1160.06 C 2105.85 1176.06 2065.43 1198.7 1974.75 1191.94 C 1846.07 1182.35 1751.89 1210.7 1727.61 1294.99 C 1726.07 1300.33 1719.55 1301.78 1715.7 1297.78 C 1708.09 1289.88 1694.27 1283.48 1670.61 1294.68 C 1629.47 1314.16 1623.94 1391.28 1681.93 1471.16 C 1684.69 1474.95 1683.22 1480.42 1678.77 1481.9 C 1663.08 1487.1 1637.67 1502.6 1682.13 1543.84 C 1727.62 1586.03 1759.74 1591.17 1772.36 1591.25 C 1775.75 1591.28 1778.65 1588.94 1779.31 1585.61 L 1794.41 1509.23 C 1795.19 1505.28 1799.14 1502.8 1803.04 1503.83 L 1829.84 1510.87 Z " fill="url(#_lgradient_1071)"/><linearGradient id="_lgradient_1072" x1="0" y1="0" x2="1" y2="0" gradientTransform="matrix(-489.85,204.924,-204.924,-489.85,2028.65,1401.24)" gradientUnits="userSpaceOnUse"><stop offset="0%" stop-opacity="1" style="stop-color:rgb(254,187,186)"/><stop offset="100%" stop-opacity="1" style="stop-color:rgb(255,146,142)"/></linearGradient><path d=" M 1828.8 1527.41 C 1828.8 1527.41 1829.09 1415.57 1774.44 1432.59 C 1719.79 1449.61 1767.98 1556.29 1804.68 1570.12 L 1828.8 1527.41 Z " fill="url(#_lgradient_1072)"/><linearGradient id="_lgradient_1073" x1="0" y1="0" x2="1" y2="0" gradientTransform="matrix(1496.88,-1833.33,1833.33,1496.88,1400.27,2294.97)" gradientUnits="userSpaceOnUse"><stop offset="0%" stop-opacity="1" style="stop-color:rgb(225,71,61)"/><stop offset="100%" stop-opacity="1" style="stop-color:rgb(233,96,90)"/></linearGradient><path d=" M 1447.47 2613.31 C 1432.32 2506.34 1530.94 2311.92 1576.76 2252.25 C 1589.87 2235.19 1597.2 2214.32 1597.39 2192.8 C 1598.73 2041.31 1535.12 1944.01 1433.2 1878.68 C 1433.2 1878.68 1063.29 2309.64 1157.47 2641.12 C 1167.64 2676.9 1183.39 2707.63 1203.36 2734.04 C 1218.2 2609.14 1374.71 2619.07 1447.47 2613.31 Z " fill="url(#_lgradient_1073)"/><linearGradient id="_lgradient_1074" x1="0" y1="0" x2="1" y2="0" gradientTransform="matrix(391.384,1709.74,-1709.74,391.384,1296.57,1483.21)" gradientUnits="userSpaceOnUse"><stop offset="0%" stop-opacity="1" style="stop-color:rgb(255,146,142)"/><stop offset="100%" stop-opacity="1" style="stop-color:rgb(254,112,98)"/></linearGradient><path d=" M 1442.22 2534.75 L 1428.12 2533.15 C 1440.07 2428.25 1532.12 2298.74 1571.14 2247.93 L 1582.39 2256.58 C 1544.09 2306.45 1453.77 2433.38 1442.22 2534.75 Z " fill="url(#_lgradient_1074)"/><linearGradient id="_lgradient_1075" x1="0" y1="0" x2="1" y2="0" gradientTransform="matrix(252.839,665.364,-665.364,252.839,1403.78,2480.27)" gradientUnits="userSpaceOnUse"><stop offset="0%" stop-opacity="1" style="stop-color:rgb(254,187,186)"/><stop offset="100%" stop-opacity="1" style="stop-color:rgb(255,146,142)"/></linearGradient><path d=" M 1449.34 2608.29 C 1407.73 2608.36 1216.34 2614.91 1198.67 2729.1 C 1363.74 2947.43 1818.75 2868.66 1818.75 2868.66 L 1818.75 2783.71 C 1818.75 2783.71 1533.53 2731.91 1461.02 2614.8 C 1458.51 2610.75 1454.11 2608.28 1449.34 2608.29 Z " fill="url(#_lgradient_1075)"/><linearGradient id="_lgradient_1076" x1="0" y1="0" x2="1" y2="0" gradientTransform="matrix(269.639,709.577,-709.577,269.639,1730.97,2326.37)" gradientUnits="userSpaceOnUse"><stop offset="0%" stop-opacity="1" style="stop-color:rgb(254,187,186)"/><stop offset="100%" stop-opacity="1" style="stop-color:rgb(255,146,142)"/></linearGradient><path d=" M 1779.7 2850.15 C 1779.7 2850.15 1846.88 2691.62 1965.26 2747.85 C 2083.64 2804.08 2074.34 2840.88 2074.34 2840.88 L 1779.7 2850.15 Z " fill="url(#_lgradient_1076)"/><linearGradient id="_lgradient_1077" x1="0" y1="0" x2="1" y2="0" gradientTransform="matrix(350.17,-525.254,525.254,350.17,2009.75,2996.54)" gradientUnits="userSpaceOnUse"><stop offset="0%" stop-opacity="1" style="stop-color:rgb(79,82,255)"/><stop offset="100%" stop-opacity="1" style="stop-color:rgb(64,66,226)"/></linearGradient><path d=" M 1764.61 2883.04 L 1764.61 2883.04 C 1765.55 2895.03 1775.77 2904.16 1787.8 2903.74 L 2401.23 2882.34 C 2410.76 2882.01 2419.05 2875.69 2421.89 2866.58 L 2439.7 2809.61 C 2444.07 2795.61 2434.08 2781.24 2419.44 2780.47 L 2195.74 2768.58 C 2193.71 2768.48 2191.68 2768.64 2189.69 2769.08 L 1782.15 2859.34 C 1771.22 2861.76 1763.73 2871.87 1764.61 2883.04 Z " fill="url(#_lgradient_1077)"/><linearGradient id="_lgradient_1078" x1="0" y1="0" x2="1" y2="0" gradientTransform="matrix(350.17,-525.254,525.254,350.17,2129.27,3076.22)" gradientUnits="userSpaceOnUse"><stop offset="0%" stop-opacity="1" style="stop-color:rgb(79,82,255)"/><stop offset="100%" stop-opacity="1" style="stop-color:rgb(64,66,226)"/></linearGradient><path d=" M 2175.8 2860.65 L 2192.68 2782 L 2422.46 2792.96 L 2407.35 2858.22 L 2175.8 2860.65 Z " fill="url(#_lgradient_1078)"/><linearGradient id="_lgradient_1079" x1="0" y1="0" x2="1" y2="0" gradientTransform="matrix(1230.74,-669.44,669.44,1230.74,2376.06,2422.36)" gradientUnits="userSpaceOnUse"><stop offset="0%" stop-opacity="1" style="stop-color:rgb(79,82,255)"/><stop offset="100%" stop-opacity="1" style="stop-color:rgb(64,66,226)"/></linearGradient><path d=" M 2058.01 2014.07 C 2045 2120.33 1986.5 2552.07 1969.75 2675.42 C 1967.4 2692.77 1981.18 2708.03 1998.68 2707.53 L 2991.1 2679.13 C 3004.09 2678.76 3015.16 2669.61 3017.98 2656.93 L 3172.36 1961.68 C 3176.44 1943.3 3161.81 1926.12 3143.01 1927.22 L 2084.5 1989.22 C 2070.81 1990.02 2059.67 2000.46 2058.01 2014.07 Z " fill="url(#_lgradient_1079)"/><linearGradient id="_lgradient_1080" x1="0" y1="0" x2="1" y2="0" gradientTransform="matrix(-20.599,566.452,-566.452,-20.599,2511.84,2195.98)" gradientUnits="userSpaceOnUse"><stop offset="0%" stop-opacity="1" style="stop-color:rgb(79,82,255)"/><stop offset="100%" stop-opacity="1" style="stop-color:rgb(64,66,226)"/></linearGradient><path d=" M 2456.92 2450.06 L 2310.25 2866.37 L 2651.3 2873.6 L 2679.7 2452.56 C 2681.03 2432.81 2664.65 2416.4 2644.89 2417.71 L 2485.61 2428.29 C 2472.56 2429.16 2461.27 2437.72 2456.92 2450.06 Z " fill="url(#_lgradient_1080)"/><linearGradient id="_lgradient_1081" x1="0" y1="0" x2="1" y2="0" gradientTransform="matrix(530.798,-897.43,897.43,530.798,2338.1,3076.94)" gradientUnits="userSpaceOnUse"><stop offset="0%" stop-opacity="1" style="stop-color:rgb(79,82,255)"/><stop offset="100%" stop-opacity="1" style="stop-color:rgb(64,66,226)"/></linearGradient><path d=" M 2171.98 2872.3 L 2171.98 2872.3 C 2168.22 2883.76 2176.75 2895.54 2188.81 2895.54 L 2722.92 2895.54 C 2732.7 2895.54 2740.63 2887.61 2740.63 2877.82 L 2740.63 2854.92 C 2740.63 2844.84 2732.23 2836.79 2722.16 2837.22 L 2188.05 2860.13 C 2180.68 2860.44 2174.28 2865.29 2171.98 2872.3 Z " fill="url(#_lgradient_1081)"/><path d=" M 2043.01 2453.28 L 2035.97 2452.39 L 2084.73 2067.85 C 2087.76 2043.99 2107.37 2025.64 2131.36 2024.19 L 3046.09 1968.95 L 3046.52 1976.03 L 2131.79 2031.27 C 2111.2 2032.51 2094.37 2048.27 2091.77 2068.74 L 2043.01 2453.28 Z " fill="rgb(145,179,250)"/><path d=" M 2018.57 2646.07 L 2011.53 2645.18 L 2022.08 2561.93 L 2029.13 2562.81 L 2018.57 2646.07 Z " fill="rgb(145,179,250)"/><linearGradient id="_lgradient_1082" x1="0" y1="0" x2="1" y2="0" gradientTransform="matrix(144.34,-138.763,138.763,144.34,1808.31,1680.02)" gradientUnits="userSpaceOnUse"><stop offset="0%" stop-opacity="1" style="stop-color:rgb(79,82,255)"/><stop offset="100%" stop-opacity="1" style="stop-color:rgb(64,66,226)"/></linearGradient><path d=" M 1987.4 1645.31 C 1877.2 1653.64 1813.14 1539.68 1812.5 1538.53 L 1819.88 1534.46 C 1820.49 1535.56 1882.01 1644.82 1986.77 1636.91 L 1987.4 1645.31 Z " fill="url(#_lgradient_1082)"/><linearGradient id="_lgradient_1083" x1="0" y1="0" x2="1" y2="0" gradientTransform="matrix(55.189,0,0,55.189,1977.14,1641.05)" gradientUnits="userSpaceOnUse"><stop offset="0%" stop-opacity="1" style="stop-color:rgb(79,82,255)"/><stop offset="100%" stop-opacity="1" style="stop-color:rgb(64,66,226)"/></linearGradient><path d=" M 2032.33 1641.05 C 2032.33 1647.58 2027.04 1652.88 2020.5 1652.88 L 1988.97 1652.88 C 1982.44 1652.88 1977.14 1647.58 1977.14 1641.05 C 1977.14 1634.52 1982.44 1629.23 1988.97 1629.23 L 2020.5 1629.23 C 2027.04 1629.23 2032.33 1634.52 2032.33 1641.05 Z " fill="url(#_lgradient_1083)"/><linearGradient id="_lgradient_1084" x1="0" y1="0" x2="1" y2="0" gradientTransform="matrix(-1205.46,417.828,-417.828,-1205.46,2290.43,1155.68)" gradientUnits="userSpaceOnUse"><stop offset="0%" stop-opacity="1" style="stop-color:rgb(79,82,255)"/><stop offset="100%" stop-opacity="1" style="stop-color:rgb(64,66,226)"/></linearGradient><path d=" M 1820.1 1412.11 C 1820.1 1412.11 1859.65 1209.22 1976.19 1190.08 C 1976.19 1190.08 1943.19 1173.47 1908.78 1191.49 C 1874.38 1209.51 1787.41 1308.26 1790.96 1417.11 C 1814.61 1425.63 1820.1 1412.11 1820.1 1412.11 Z " fill="url(#_lgradient_1084)"/><linearGradient id="_lgradient_1085" x1="0" y1="0" x2="1" y2="0" gradientTransform="matrix(-195.692,381.086,-381.086,-195.692,1988.13,1139.99)" gradientUnits="userSpaceOnUse"><stop offset="0%" stop-opacity="1" style="stop-color:rgb(79,82,255)"/><stop offset="100%" stop-opacity="1" style="stop-color:rgb(64,66,226)"/></linearGradient><path d=" M 1799.85 1402.51 C 1739.27 1414.8 1746.71 1491.42 1746.71 1491.42 C 1742.35 1547.02 1758.58 1574.58 1779.37 1587.72 C 1793.58 1596.69 1811.46 1597.52 1826.46 1589.95 C 1841.46 1582.38 1851.4 1567.5 1852.63 1550.75 C 1853.75 1535.62 1855.03 1521.23 1856.16 1516.12 C 1858.88 1503.75 1860.44 1390.21 1799.85 1402.51 Z " fill="url(#_lgradient_1085)"/><linearGradient id="_lgradient_1086" x1="0" y1="0" x2="1" y2="0" gradientTransform="matrix(188.826,-181.96,181.96,188.826,1908.16,1394.54)" gradientUnits="userSpaceOnUse"><stop offset="0%" stop-opacity="1" style="stop-color:rgb(79,82,255)"/><stop offset="100%" stop-opacity="1" style="stop-color:rgb(64,66,226)"/></linearGradient><path d=" M 1805.42 1421.88 C 1792.84 1419.7 1780.44 1426.38 1775.38 1438.1 C 1739.17 1521.98 1783.63 1576.54 1805.45 1577.68 C 1828.46 1578.88 1827.99 1468.21 1823.1 1439.84 C 1821.06 1427.95 1813.5 1423.29 1805.42 1421.88 Z " fill="url(#_lgradient_1086)"/><path d=" M 3053.21 1401.58 C 3053.21 1607.82 2886.02 1775.02 2679.78 1775.02 C 2473.53 1775.02 2306.34 1607.82 2306.34 1401.58 C 2306.34 1195.34 2473.53 1028.14 2679.78 1028.14 C 2886.02 1028.14 3053.21 1195.34 3053.21 1401.58 Z " fill="rgb(255,255,255)"/><linearGradient id="_lgradient_1087" x1="0" y1="0" x2="1" y2="0" gradientTransform="matrix(46.349,398.601,-398.601,46.349,2603.95,626.79)" gradientUnits="userSpaceOnUse"><stop offset="0%" stop-opacity="1" style="stop-color:rgb(255,146,142)"/><stop offset="100%" stop-opacity="1" style="stop-color:rgb(254,112,98)"/></linearGradient><path d=" M 2665.85 1636.3 C 2648.26 1637.46 2631.9 1629.27 2622.79 1614.65 L 2469.89 1369.12 C 2455.56 1346.11 2463.28 1314.6 2487.12 1298.73 C 2510.95 1282.88 2541.87 1288.67 2556.18 1311.67 L 2662.22 1482.11 L 2802.15 1197.14 C 2814.7 1171.57 2844.87 1159.84 2869.51 1170.93 C 2894.15 1182.02 2903.95 1211.72 2891.41 1237.28 L 2710.59 1605.84 C 2702.31 1622.71 2685.86 1634.32 2667.61 1636.16 C 2667.03 1636.22 2666.44 1636.27 2665.85 1636.3 Z " fill="url(#_lgradient_1087)"/></g></g></g></svg>