<?xml version="1.0" encoding="UTF-8" standalone="no"?><!-- Generator: Gravit.io --><svg xmlns="http://www.w3.org/2000/svg" xmlns:xlink="http://www.w3.org/1999/xlink" style="isolation:isolate" viewBox="0 0 3710 3710" width="3710pt" height="3710pt"><defs><clipPath id="_clipPath_nDCjF15yamN6U0ghoHZsBEYMBux5SCB2"><rect width="3710" height="3710"/></clipPath></defs><g clip-path="url(#_clipPath_nDCjF15yamN6U0ghoHZsBEYMBux5SCB2)"><g><clipPath id="_clipPath_ioiIJ9yubhf1b5Ra0SvvccOi6cmyMcVx"><path d=" M 0 0 L 0 3710 L 3710 3710 L 3710 0 L 0 0 Z " fill="rgb(255,255,255)"/></clipPath><g clip-path="url(#_clipPath_ioiIJ9yubhf1b5Ra0SvvccOi6cmyMcVx)"><path d=" M 3710 3710 L 0 3710 L 0 0 L 3710 0 L 3710 3710 Z " fill="rgb(255,255,255)"/><linearGradient id="_lgradient_508" x1="0" y1="0" x2="1" y2="0" gradientTransform="matrix(-2476.95,-3076.22,3076.22,-2476.95,3589.08,4044.93)" gradientUnits="userSpaceOnUse"><stop offset="0%" stop-opacity="1" style="stop-color:rgb(218,227,254)"/><stop offset="100%" stop-opacity="1" style="stop-color:rgb(233,239,253)"/></linearGradient><path d=" M 1884.7 3223.34 C 1716.68 3223.34 1588.32 3199.84 1537.13 3189.45 C 1376.32 3156.78 1085.56 3097.73 842.005 2884.24 L 2853.04 2884.24 C 2816.72 2916.1 2783 2940.3 2754.4 2960.82 C 2458.01 3173.49 2129.34 3223.34 1884.7 3223.34 Z  M 598.238 2573.14 C 361.581 2119.92 442.884 1519.88 706.186 1104.73 C 761.882 1016.91 1056.08 529.511 1654.04 451.348 C 1713.38 443.589 1774.41 439.667 1836.2 439.667 C 1952.09 439.667 2070.91 453.444 2187.54 481.508 C 2051.03 559.742 1986.6 692.231 1986.6 692.231 C 1986.6 692.231 1906.6 663.864 1808.48 663.864 C 1677.04 663.864 1513.05 714.724 1464.99 952.793 C 1282.65 993.259 1189.99 1153.15 1200.69 1303.39 L 688.503 1290.14 C 687.508 1290.11 686.513 1290.1 685.522 1290.1 C 655.141 1290.1 625.951 1302.13 604.387 1323.62 C 582.119 1345.82 569.935 1376.17 570.678 1407.58 L 598.238 2573.14 Z  M 3166.8 2348.73 L 3178.38 1548.83 C 3183.52 1546.2 3188.44 1543.19 3193.07 1539.86 C 3250.15 1814.07 3237.07 2100.54 3166.8 2348.73 Z  M 2907.58 922.254 C 2891.37 920.958 2874.46 920.105 2856.85 919.724 C 2849.76 919.571 2844.06 914.279 2843.93 907.724 C 2843.68 895.057 2842.67 872.914 2839.07 844.86 C 2863.09 869.819 2885.93 895.655 2907.58 922.254 Z " fill-rule="evenodd" fill="url(#_lgradient_508)"/><linearGradient id="_lgradient_509" x1="0" y1="0" x2="1" y2="0" gradientTransform="matrix(-581.956,-1745.87,-1745.87,581.956,2107.17,2775.38)" gradientUnits="userSpaceOnUse"><stop offset="0%" stop-opacity="1" style="stop-color:rgb(9,0,93)"/><stop offset="100%" stop-opacity="1" style="stop-color:rgb(26,15,145)"/></linearGradient><path d=" M 3114.14 2884.24 L 2853.04 2884.24 L 842.005 2884.24 L 650.083 2884.24 C 625.023 2884.24 604.518 2863.75 604.518 2838.72 L 598.238 2573.14 L 570.678 1407.58 C 569.935 1376.17 582.119 1345.82 604.387 1323.62 C 625.951 1302.13 655.141 1290.1 685.522 1290.1 C 686.513 1290.1 687.508 1290.11 688.503 1290.14 L 1200.69 1303.39 C 1202 1321.78 1204.85 1339.99 1209.28 1357.85 L 697.973 1344.13 C 697.252 1344.11 696.531 1344.1 695.811 1344.1 C 674.492 1344.1 654.012 1352.56 638.876 1367.65 C 623.229 1383.26 614.624 1404.62 615.179 1426.71 L 649.503 2795.04 C 649.503 2818.75 668.902 2838.15 692.612 2838.15 L 3054.71 2838.15 C 3078.42 2838.15 3097.82 2818.75 3097.82 2795.04 L 3116.38 1561.89 L 3122.5 1561.94 C 3122.84 1561.95 3123.19 1561.95 3123.53 1561.95 C 3143.2 1561.95 3161.97 1557.24 3178.38 1548.83 L 3166.8 2348.73 L 3159.7 2838.72 C 3159.7 2863.75 3139.2 2884.24 3114.14 2884.24 Z " fill="url(#_lgradient_509)"/><linearGradient id="_lgradient_510" x1="0" y1="0" x2="1" y2="0" gradientTransform="matrix(3210.06,3666.44,3666.44,-3210.06,809.42,914.654)" gradientUnits="userSpaceOnUse"><stop offset="0%" stop-opacity="1" style="stop-color:rgb(255,146,142)"/><stop offset="100%" stop-opacity="1" style="stop-color:rgb(254,112,98)"/></linearGradient><path d=" M 692.612 2838.15 C 668.902 2838.15 649.503 2818.75 649.503 2795.04 L 615.179 1426.71 C 614.624 1404.62 623.229 1383.26 638.876 1367.65 C 654.012 1352.56 674.492 1344.1 695.811 1344.1 C 696.531 1344.1 697.252 1344.11 697.973 1344.13 L 1209.28 1357.85 C 1217.57 1391.3 1231.39 1423.43 1250.89 1452.66 C 1004.06 1446.67 821.467 1442.1 807.743 1440.98 C 801.483 1440.48 795.47 1440.17 789.719 1440.17 C 708.301 1440.17 677.99 1500.27 702.722 1882.96 C 717.644 2113.88 721.672 2495.27 727.109 2670.48 C 728.728 2722.66 771.372 2764.05 823.569 2764.2 C 1218.06 2765.28 2730 2769.61 2830.65 2772.61 C 2844.22 2773.01 2856.87 2773.23 2868.61 2773.23 C 2957.12 2773.23 2994.62 2760.93 2993.76 2723.73 C 2991.28 2617.49 2992.2 1676.65 2998.3 1595.39 C 2999.29 1582.23 2996.8 1570.8 2991.1 1560.85 L 3077.95 1561.57 L 3072.65 1922.51 C 3072.62 1924.39 3074.12 1925.93 3076 1925.96 L 3076.05 1925.96 C 3077.9 1925.96 3079.42 1924.47 3079.44 1922.61 L 3084.74 1561.63 L 3116.38 1561.89 L 3097.82 2795.04 C 3097.82 2818.75 3078.42 2838.15 3054.71 2838.15 L 692.612 2838.15 Z  M 3073.87 2070.39 C 3072.11 2070.42 3070.45 2071.86 3070.43 2073.73 L 3068.9 2177.98 C 3068.87 2179.86 3070.37 2181.4 3072.24 2181.43 L 3072.29 2181.43 C 3074.15 2181.43 3075.66 2179.94 3075.69 2178.08 L 3077.22 2073.83 C 3077.25 2071.96 3075.75 2070.41 3073.87 2070.39 Z " fill-rule="evenodd" fill="url(#_lgradient_510)"/><linearGradient id="_lgradient_511" x1="0" y1="0" x2="1" y2="0" gradientTransform="matrix(3210.06,3666.44,3666.44,-3210.06,809.42,914.654)" gradientUnits="userSpaceOnUse"><stop offset="0%" stop-opacity="1" style="stop-color:rgb(255,186,184)"/><stop offset="100%" stop-opacity="1" style="stop-color:rgb(254,165,156)"/></linearGradient><path d=" M 3072.29 2181.43 L 3072.24 2181.43 C 3070.37 2181.4 3068.87 2179.86 3068.9 2177.98 L 3070.43 2073.73 C 3070.45 2071.86 3072.11 2070.42 3073.87 2070.39 C 3075.75 2070.41 3077.25 2071.96 3077.22 2073.83 L 3075.69 2178.08 C 3075.66 2179.94 3074.15 2181.43 3072.29 2181.43 Z " fill="url(#_lgradient_511)"/><linearGradient id="_lgradient_512" x1="0" y1="0" x2="1" y2="0" gradientTransform="matrix(3210.06,3666.44,3666.44,-3210.06,809.42,914.654)" gradientUnits="userSpaceOnUse"><stop offset="0%" stop-opacity="1" style="stop-color:rgb(255,186,184)"/><stop offset="100%" stop-opacity="1" style="stop-color:rgb(254,165,156)"/></linearGradient><path d=" M 3076.05 1925.96 L 3076 1925.96 C 3074.12 1925.93 3072.62 1924.39 3072.65 1922.51 L 3077.95 1561.57 L 3084.74 1561.63 L 3079.44 1922.61 C 3079.42 1924.47 3077.9 1925.96 3076.05 1925.96 Z " fill="url(#_lgradient_512)"/><linearGradient id="_lgradient_513" x1="0" y1="0" x2="1" y2="0" gradientTransform="matrix(3210.06,3666.44,3666.44,-3210.06,809.42,914.654)" gradientUnits="userSpaceOnUse"><stop offset="0%" stop-opacity="1" style="stop-color:rgb(255,186,184)"/><stop offset="100%" stop-opacity="1" style="stop-color:rgb(254,165,156)"/></linearGradient><path d=" M 2868.61 2773.23 C 2856.87 2773.23 2844.22 2773.01 2830.65 2772.61 C 2730 2769.61 1218.06 2765.28 823.569 2764.2 C 771.372 2764.05 728.728 2722.66 727.109 2670.48 C 721.672 2495.27 717.644 2113.88 702.722 1882.96 C 677.99 1500.27 708.301 1440.17 789.719 1440.17 C 795.47 1440.17 801.483 1440.48 807.743 1440.98 C 821.467 1442.1 1004.06 1446.67 1250.89 1452.66 C 1263.95 1472.24 1279.55 1490.51 1297.75 1507.03 C 1326.11 1532.76 1364.13 1547.3 1403.86 1547.63 L 2991.1 1560.85 C 2996.8 1570.8 2999.29 1582.23 2998.3 1595.39 C 2992.2 1676.65 2991.28 2617.49 2993.76 2723.73 C 2994.62 2760.93 2957.12 2773.23 2868.61 2773.23 Z  M 806.533 2535.93 C 800.182 2535.93 795.033 2541.08 795.033 2547.43 L 795.033 2684.96 C 795.033 2691.31 800.182 2696.46 806.533 2696.46 L 2870.39 2696.46 C 2876.74 2696.46 2881.89 2691.31 2881.89 2684.96 L 2881.89 2547.43 C 2881.89 2541.08 2876.74 2535.93 2870.39 2535.93 L 806.533 2535.93 Z  M 1754.99 2304.77 L 1754.99 2500.61 L 2881.89 2500.61 L 2881.89 2304.77 L 1754.99 2304.77 Z  M 795.033 2002.98 L 795.033 2500.61 L 1684.35 2500.61 L 1684.35 2002.98 L 795.033 2002.98 Z  M 804.033 1563.14 C 799.062 1563.14 795.033 1567.16 795.033 1572.13 L 795.033 1714.66 C 795.033 1719.63 799.062 1723.66 804.033 1723.66 L 2709.15 1723.66 C 2714.12 1723.66 2718.15 1719.63 2718.15 1714.66 L 2718.15 1572.13 C 2718.15 1567.16 2714.12 1563.14 2709.15 1563.14 L 804.033 1563.14 Z " fill-rule="evenodd" fill="url(#_lgradient_513)"/><linearGradient id="_lgradient_514" x1="0" y1="0" x2="1" y2="0" gradientTransform="matrix(198.749,-1336.42,1336.42,198.749,1872.53,2762.67)" gradientUnits="userSpaceOnUse"><stop offset="0%" stop-opacity="1" style="stop-color:rgb(9,0,93)"/><stop offset="100%" stop-opacity="1" style="stop-color:rgb(26,15,145)"/></linearGradient><path d=" M 448.639 2956.51 L 3257.28 2956.51 C 3261.4 2956.51 3264.78 2953.14 3264.78 2949.01 L 3264.78 2839.6 C 3264.78 2835.47 3261.4 2832.1 3257.28 2832.1 L 448.639 2832.1 C 444.511 2832.1 441.134 2835.47 441.134 2839.6 L 441.134 2949.01 C 441.134 2953.14 444.511 2956.51 448.639 2956.51 Z " fill="url(#_lgradient_514)"/><linearGradient id="_lgradient_515" x1="0" y1="0" x2="1" y2="0" gradientTransform="matrix(3210.06,3666.44,3666.44,-3210.06,809.42,914.654)" gradientUnits="userSpaceOnUse"><stop offset="0%" stop-opacity="1" style="stop-color:rgb(255,211,210)"/><stop offset="100%" stop-opacity="1" style="stop-color:rgb(254,198,192)"/></linearGradient><path d=" M 2709.15 1723.66 L 804.033 1723.66 C 799.062 1723.66 795.033 1719.63 795.033 1714.66 L 795.033 1572.13 C 795.033 1567.16 799.062 1563.14 804.033 1563.14 L 2709.15 1563.14 C 2714.12 1563.14 2718.15 1567.16 2718.15 1572.13 L 2718.15 1714.66 C 2718.15 1719.63 2714.12 1723.66 2709.15 1723.66 Z " fill="url(#_lgradient_515)"/><linearGradient id="_lgradient_516" x1="0" y1="0" x2="1" y2="0" gradientTransform="matrix(3210.06,3666.44,3666.44,-3210.06,809.42,914.654)" gradientUnits="userSpaceOnUse"><stop offset="0%" stop-opacity="1" style="stop-color:rgb(255,211,210)"/><stop offset="100%" stop-opacity="1" style="stop-color:rgb(254,198,192)"/></linearGradient><path d=" M 2870.39 2696.46 L 806.533 2696.46 C 800.182 2696.46 795.033 2691.31 795.033 2684.96 L 795.033 2547.43 C 795.033 2541.08 800.182 2535.93 806.533 2535.93 L 2870.39 2535.93 C 2876.74 2535.93 2881.89 2541.08 2881.89 2547.43 L 2881.89 2684.96 C 2881.89 2691.31 2876.74 2696.46 2870.39 2696.46 Z " fill="url(#_lgradient_516)"/><linearGradient id="_lgradient_517" x1="0" y1="0" x2="1" y2="0" gradientTransform="matrix(3210.06,3666.44,3666.44,-3210.06,809.42,914.654)" gradientUnits="userSpaceOnUse"><stop offset="0%" stop-opacity="1" style="stop-color:rgb(255,211,210)"/><stop offset="100%" stop-opacity="1" style="stop-color:rgb(254,198,192)"/></linearGradient><path d=" M 2881.89 2500.61 L 1754.99 2500.61 L 1754.99 2304.77 L 2881.89 2304.77 L 2881.89 2500.61 Z " fill="url(#_lgradient_517)"/><path d=" M 1684.35 1832.82 L 795.033 1832.82 L 795.033 1791.08 L 1684.35 1791.08 L 1684.35 1832.82 Z " fill="rgb(255,255,255)"/><path d=" M 1684.35 1903.45 L 795.033 1903.45 L 795.033 1861.72 L 1684.35 1861.72 L 1684.35 1903.45 Z " fill="rgb(255,255,255)"/><path d=" M 1684.35 1974.09 L 795.033 1974.09 L 795.033 1932.35 L 1684.35 1932.35 L 1684.35 1974.09 Z " fill="rgb(255,255,255)"/><linearGradient id="_lgradient_518" x1="0" y1="0" x2="1" y2="0" gradientTransform="matrix(3210.06,3666.44,3666.44,-3210.06,809.42,914.654)" gradientUnits="userSpaceOnUse"><stop offset="0%" stop-opacity="1" style="stop-color:rgb(255,223,222)"/><stop offset="100%" stop-opacity="1" style="stop-color:rgb(255,213,208)"/></linearGradient><path d=" M 1684.35 2500.61 L 795.033 2500.61 L 795.033 2002.98 L 1684.35 2002.98 L 1684.35 2500.61 Z " fill="url(#_lgradient_518)"/><linearGradient id="_lgradient_519" x1="0" y1="0" x2="1" y2="0" gradientTransform="matrix(387.169,421.078,-421.078,387.169,2303.77,653.579)" gradientUnits="userSpaceOnUse"><stop offset="0%" stop-opacity="1" style="stop-color:rgb(202,203,255)"/><stop offset="100%" stop-opacity="1" style="stop-color:rgb(197,198,246)"/></linearGradient><path d=" M 2817.41 954.768 C 2814.59 954.768 2811.91 953.573 2810.02 951.522 C 2809.08 950.499 2808.34 949.267 2807.88 947.863 C 2804.53 937.625 2800.68 927.395 2796.44 917.461 C 2794.26 912.367 2796.63 906.475 2801.73 904.305 C 2803.01 903.757 2804.34 903.497 2805.66 903.497 C 2809.55 903.497 2813.26 905.782 2814.89 909.593 C 2819.35 920.056 2823.41 930.829 2826.94 941.609 C 2828.67 946.874 2825.8 952.539 2820.54 954.265 C 2819.5 954.606 2818.45 954.768 2817.41 954.768 Z  M 2781 875.345 C 2778.24 875.345 2775.54 874.208 2773.61 872.111 C 2773.16 871.624 2772.75 871.087 2772.4 870.498 C 2766.83 861.265 2760.79 852.153 2754.45 843.409 C 2751.19 838.924 2752.19 832.653 2756.67 829.401 C 2758.46 828.109 2760.52 827.485 2762.57 827.485 C 2765.68 827.485 2768.73 828.918 2770.68 831.63 C 2777.35 840.831 2783.71 850.421 2789.57 860.134 C 2792.43 864.878 2790.91 871.043 2786.17 873.902 C 2784.55 874.879 2782.76 875.345 2781 875.345 Z " fill-rule="evenodd" fill="url(#_lgradient_519)"/><linearGradient id="_lgradient_520" x1="0" y1="0" x2="1" y2="0" gradientTransform="matrix(387.169,421.078,-421.078,387.169,2303.77,653.579)" gradientUnits="userSpaceOnUse"><stop offset="0%" stop-opacity="1" style="stop-color:rgb(125,150,252)"/><stop offset="100%" stop-opacity="1" style="stop-color:rgb(121,145,243)"/></linearGradient><path d=" M 2153.08 818.567 C 2150.72 818.567 2148.35 817.74 2146.45 816.057 C 2146.18 815.823 2145.93 815.574 2145.69 815.317 C 2142.26 811.586 2142.14 805.788 2145.56 801.904 C 2153.06 793.409 2161.03 785.114 2169.27 777.25 C 2171.21 775.393 2173.7 774.471 2176.19 774.471 C 2178.84 774.471 2181.48 775.51 2183.45 777.572 L 2183.58 777.716 C 2187.27 781.727 2187.08 787.971 2183.12 791.751 C 2175.3 799.223 2167.72 807.104 2160.6 815.172 C 2158.62 817.419 2155.86 818.567 2153.08 818.567 Z " fill="url(#_lgradient_520)"/><linearGradient id="_lgradient_521" x1="0" y1="0" x2="1" y2="0" gradientTransform="matrix(387.169,421.078,-421.078,387.169,2303.77,653.579)" gradientUnits="userSpaceOnUse"><stop offset="0%" stop-opacity="1" style="stop-color:rgb(202,203,255)"/><stop offset="100%" stop-opacity="1" style="stop-color:rgb(197,198,246)"/></linearGradient><path d=" M 2727.84 805.982 C 2725.2 805.982 2722.57 804.949 2720.6 802.894 C 2713.12 795.1 2705.23 787.546 2697.14 780.433 C 2696.87 780.192 2696.61 779.94 2696.37 779.679 C 2692.94 775.953 2692.81 770.166 2696.23 766.281 C 2698.21 764.025 2700.98 762.872 2703.76 762.872 C 2706.11 762.872 2708.48 763.694 2710.38 765.366 C 2718.9 772.853 2727.21 780.808 2735.07 789.014 L 2735.22 789.168 C 2738.9 793.174 2738.72 799.407 2734.78 803.191 C 2732.83 805.055 2730.33 805.982 2727.84 805.982 Z " fill="url(#_lgradient_521)"/><linearGradient id="_lgradient_522" x1="0" y1="0" x2="1" y2="0" gradientTransform="matrix(387.169,421.078,-421.078,387.169,2303.77,653.579)" gradientUnits="userSpaceOnUse"><stop offset="0%" stop-opacity="1" style="stop-color:rgb(125,150,252)"/><stop offset="100%" stop-opacity="1" style="stop-color:rgb(121,145,243)"/></linearGradient><path d=" M 2217.83 759.893 C 2215.09 759.893 2212.39 758.777 2210.44 756.66 C 2210.18 756.372 2209.93 756.064 2209.69 755.738 C 2206.45 751.249 2207.45 744.978 2211.94 741.734 C 2221.17 735.072 2230.76 728.738 2240.47 722.91 C 2242.09 721.938 2243.87 721.475 2245.62 721.475 C 2249.02 721.475 2252.34 723.208 2254.23 726.343 C 2257.08 731.092 2255.54 737.253 2250.8 740.102 C 2241.57 745.643 2232.45 751.66 2223.69 757.994 C 2221.92 759.276 2219.86 759.893 2217.83 759.893 Z " fill="url(#_lgradient_522)"/><linearGradient id="_lgradient_523" x1="0" y1="0" x2="1" y2="0" gradientTransform="matrix(387.169,421.078,-421.078,387.169,2303.77,653.579)" gradientUnits="userSpaceOnUse"><stop offset="0%" stop-opacity="1" style="stop-color:rgb(202,203,255)"/><stop offset="100%" stop-opacity="1" style="stop-color:rgb(197,198,246)"/></linearGradient><path d=" M 2660.69 750.109 C 2658.8 750.109 2656.89 749.576 2655.19 748.461 C 2646.18 742.541 2636.8 736.944 2627.32 731.82 C 2626.31 731.275 2625.43 730.585 2624.7 729.788 C 2621.89 726.726 2621.18 722.098 2623.26 718.232 C 2625.08 714.874 2628.53 712.968 2632.1 712.968 C 2633.71 712.968 2635.34 713.356 2636.85 714.175 C 2646.84 719.569 2656.72 725.464 2666.2 731.697 C 2670.82 734.758 2672.12 740.954 2669.08 745.585 C 2667.16 748.517 2663.95 750.109 2660.69 750.109 Z " fill="url(#_lgradient_523)"/><linearGradient id="_lgradient_524" x1="0" y1="0" x2="1" y2="0" gradientTransform="matrix(387.169,421.078,-421.078,387.169,2303.77,653.579)" gradientUnits="userSpaceOnUse"><stop offset="0%" stop-opacity="1" style="stop-color:rgb(125,150,252)"/><stop offset="100%" stop-opacity="1" style="stop-color:rgb(121,145,243)"/></linearGradient><path d=" M 2293.88 716.96 C 2291.09 716.96 2288.4 715.786 2286.5 713.72 C 2285.74 712.898 2285.11 711.934 2284.65 710.847 C 2282.49 705.748 2284.87 699.861 2289.96 697.698 C 2300.41 693.262 2311.19 689.226 2321.99 685.704 C 2323.02 685.369 2324.07 685.209 2325.1 685.209 C 2329.32 685.209 2333.25 687.9 2334.63 692.129 C 2336.35 697.394 2333.47 703.056 2328.21 704.773 C 2317.95 708.117 2307.72 711.948 2297.8 716.16 C 2296.52 716.703 2295.19 716.96 2293.88 716.96 Z " fill="url(#_lgradient_524)"/><linearGradient id="_lgradient_525" x1="0" y1="0" x2="1" y2="0" gradientTransform="matrix(387.169,421.078,-421.078,387.169,2303.77,653.579)" gradientUnits="userSpaceOnUse"><stop offset="0%" stop-opacity="1" style="stop-color:rgb(202,203,255)"/><stop offset="100%" stop-opacity="1" style="stop-color:rgb(197,198,246)"/></linearGradient><path d=" M 2582.8 710.685 C 2581.64 710.685 2580.46 710.482 2579.31 710.054 C 2569.2 706.294 2558.8 702.924 2548.41 700.037 C 2546.54 699.518 2544.94 698.5 2543.72 697.169 C 2541.45 694.702 2540.47 691.156 2541.43 687.689 C 2542.67 683.25 2546.7 680.343 2551.09 680.343 C 2551.98 680.343 2552.88 680.461 2553.78 680.711 C 2564.71 683.749 2575.66 687.295 2586.3 691.254 C 2591.49 693.186 2594.14 698.958 2592.2 704.151 C 2590.7 708.188 2586.87 710.685 2582.8 710.685 Z  M 2389.55 690.291 C 2385.94 684.077 2382.18 677.924 2378.21 671.798 C 2388.66 670.009 2399.27 668.621 2409.8 667.667 C 2410.1 667.64 2410.4 667.627 2410.7 667.627 C 2415.83 667.627 2420.21 671.541 2420.69 676.752 C 2421.19 682.267 2417.12 687.143 2411.6 687.644 C 2404.27 688.308 2396.88 689.194 2389.55 690.291 Z " fill-rule="evenodd" fill="url(#_lgradient_525)"/><linearGradient id="_lgradient_526" x1="0" y1="0" x2="1" y2="0" gradientTransform="matrix(387.169,421.078,-421.078,387.169,2303.77,653.579)" gradientUnits="userSpaceOnUse"><stop offset="0%" stop-opacity="1" style="stop-color:rgb(111,130,247)"/><stop offset="100%" stop-opacity="1" style="stop-color:rgb(107,125,239)"/></linearGradient><path d=" M 2377.64 692.108 C 2374.78 692.108 2372.12 690.884 2370.26 688.858 C 2369.01 687.499 2368.12 685.781 2367.78 683.829 C 2366.81 678.377 2370.44 673.171 2375.9 672.201 C 2376.67 672.065 2377.44 671.93 2378.21 671.798 C 2382.18 677.924 2385.94 684.077 2389.55 690.291 C 2386.15 690.8 2382.77 691.354 2379.4 691.952 C 2378.81 692.057 2378.22 692.108 2377.64 692.108 Z " fill="url(#_lgradient_526)"/><linearGradient id="_lgradient_527" x1="0" y1="0" x2="1" y2="0" gradientTransform="matrix(387.169,421.078,-421.078,387.169,2303.77,653.579)" gradientUnits="userSpaceOnUse"><stop offset="0%" stop-opacity="1" style="stop-color:rgb(202,203,255)"/><stop offset="100%" stop-opacity="1" style="stop-color:rgb(197,198,246)"/></linearGradient><path d=" M 2498.06 689.55 C 2497.62 689.55 2497.17 689.521 2496.72 689.461 C 2486.01 688.03 2475.12 687.046 2464.36 686.527 C 2461.62 686.396 2459.19 685.173 2457.46 683.299 C 2455.71 681.394 2454.69 678.818 2454.83 676.031 C 2455.09 670.661 2459.52 666.483 2464.83 666.483 C 2465 666.483 2465.16 666.487 2465.33 666.495 C 2476.65 667.039 2488.1 668.077 2499.37 669.58 C 2504.87 670.308 2508.73 675.352 2507.99 680.844 C 2507.32 685.885 2503.01 689.55 2498.06 689.55 Z " fill="url(#_lgradient_527)"/><linearGradient id="_lgradient_528" x1="0" y1="0" x2="1" y2="0" gradientTransform="matrix(22.612,24.592,-24.592,22.612,2820.67,993.147)" gradientUnits="userSpaceOnUse"><stop offset="0%" stop-opacity="1" style="stop-color:rgb(202,203,255)"/><stop offset="100%" stop-opacity="1" style="stop-color:rgb(197,198,246)"/></linearGradient><path d=" M 2833.2 1023.394 C 2830.34 1023.394 2827.68 1022.163 2825.83 1020.145 C 2824.49 1018.692 2823.57 1016.831 2823.28 1014.724 C 2822.58 1009.6 2821.76 1004.408 2820.85 999.285 C 2819.88 993.834 2823.51 988.623 2828.96 987.653 C 2829.56 987.546 2830.15 987.495 2830.74 987.495 C 2835.5 987.495 2839.74 990.906 2840.59 995.766 C 2841.56 1001.153 2842.42 1006.615 2843.15 1012.007 C 2843.9 1017.493 2840.06 1022.552 2834.58 1023.3 C 2834.12 1023.363 2833.66 1023.394 2833.2 1023.394 Z " fill="url(#_lgradient_528)"/><linearGradient id="_lgradient_529" x1="0" y1="0" x2="1" y2="0" gradientTransform="matrix(15.517,16.876,-16.876,15.517,2750.12,1293.58)" gradientUnits="userSpaceOnUse"><stop offset="0%" stop-opacity="1" style="stop-color:rgb(125,150,252)"/><stop offset="100%" stop-opacity="1" style="stop-color:rgb(121,145,243)"/></linearGradient><path d=" M 2753.03 1318.44 C 2750.85 1318.44 2748.66 1317.74 2746.82 1316.28 C 2746.39 1315.95 2746 1315.58 2745.65 1315.19 C 2742.37 1311.63 2742.07 1306.12 2745.16 1302.2 C 2748.37 1298.14 2751.54 1293.95 2754.59 1289.74 C 2756.56 1287.03 2759.62 1285.59 2762.72 1285.59 C 2764.76 1285.59 2766.82 1286.21 2768.6 1287.5 C 2773.1 1290.77 2774.08 1297.03 2770.83 1301.51 C 2767.62 1305.94 2764.28 1310.36 2760.91 1314.63 C 2758.93 1317.13 2755.99 1318.44 2753.03 1318.44 Z " fill="url(#_lgradient_529)"/><linearGradient id="_lgradient_530" x1="0" y1="0" x2="1" y2="0" gradientTransform="matrix(398.793,433.72,-433.72,398.793,2178.2,1056.839)" gradientUnits="userSpaceOnUse"><stop offset="0%" stop-opacity="1" style="stop-color:rgb(125,150,252)"/><stop offset="100%" stop-opacity="1" style="stop-color:rgb(121,145,243)"/></linearGradient><path d=" M 2454.44 1467.08 C 2451.53 1467.08 2448.9 1465.83 2447.06 1463.84 C 2445.47 1462.1 2444.48 1459.8 2444.42 1457.25 C 2444.31 1451.72 2448.71 1447.14 2454.24 1447.02 C 2464.88 1446.81 2475.61 1446.14 2486.15 1445.04 C 2486.51 1445 2486.86 1444.98 2487.21 1444.98 C 2492.28 1444.98 2496.63 1448.81 2497.17 1453.97 C 2497.74 1459.48 2493.74 1464.41 2488.23 1464.99 C 2477.14 1466.15 2465.84 1466.85 2454.65 1467.08 C 2454.58 1467.08 2454.51 1467.08 2454.44 1467.08 Z  M 2401.23 1464.54 C 2400.85 1464.54 2400.46 1464.52 2400.06 1464.47 C 2388.98 1463.18 2377.8 1461.41 2366.84 1459.2 C 2364.69 1458.77 2362.83 1457.67 2361.45 1456.16 C 2359.35 1453.88 2358.34 1450.66 2358.99 1447.39 C 2359.95 1442.63 2364.14 1439.34 2368.81 1439.34 C 2369.47 1439.34 2370.14 1439.41 2370.81 1439.54 C 2381.22 1441.64 2391.84 1443.32 2402.38 1444.55 C 2407.88 1445.18 2411.82 1450.16 2411.18 1455.67 C 2410.59 1460.78 2406.25 1464.54 2401.23 1464.54 Z  M 2539.69 1455.9 C 2536.86 1455.9 2534.18 1454.69 2532.31 1452.65 C 2531.2 1451.45 2530.38 1449.96 2529.96 1448.26 C 2528.64 1442.88 2531.93 1437.45 2537.31 1436.13 C 2547.63 1433.6 2557.95 1430.6 2568 1427.21 C 2569.06 1426.85 2570.14 1426.68 2571.2 1426.68 C 2575.39 1426.68 2579.3 1429.32 2580.71 1433.5 C 2582.48 1438.75 2579.66 1444.44 2574.41 1446.21 C 2563.83 1449.78 2552.95 1452.94 2542.09 1455.61 C 2541.29 1455.81 2540.49 1455.9 2539.69 1455.9 Z  M 2317.45 1445.34 C 2316.36 1445.34 2315.25 1445.16 2314.15 1444.78 C 2303.59 1441.1 2293.07 1436.93 2282.88 1432.39 C 2281.59 1431.82 2280.48 1431 2279.58 1430.02 C 2276.96 1427.17 2276.12 1422.92 2277.8 1419.15 C 2279.47 1415.41 2283.13 1413.2 2286.97 1413.2 C 2288.34 1413.2 2289.72 1413.48 2291.05 1414.07 C 2300.72 1418.38 2310.71 1422.34 2320.75 1425.84 C 2325.98 1427.66 2328.75 1433.38 2326.92 1438.61 C 2325.48 1442.75 2321.6 1445.34 2317.45 1445.34 Z  M 2620.44 1426.25 C 2617.66 1426.25 2614.96 1425.1 2613.05 1423.02 C 2612.43 1422.34 2611.89 1421.57 2611.46 1420.7 C 2608.99 1415.75 2611 1409.73 2615.95 1407.25 C 2625.44 1402.52 2634.84 1397.32 2643.91 1391.79 C 2645.54 1390.79 2647.34 1390.32 2649.11 1390.32 C 2652.5 1390.32 2655.81 1392.04 2657.69 1395.13 C 2660.58 1399.86 2659.08 1406.03 2654.35 1408.91 C 2644.8 1414.73 2634.9 1420.21 2624.92 1425.2 C 2623.48 1425.91 2621.95 1426.25 2620.44 1426.25 Z  M 2239.93 1408.31 C 2238.12 1408.31 2236.29 1407.82 2234.64 1406.79 C 2225.14 1400.88 2215.79 1394.5 2206.85 1387.82 C 2206.34 1387.44 2205.88 1387.02 2205.46 1386.57 C 2202.26 1383.09 2201.88 1377.71 2204.81 1373.79 C 2206.78 1371.15 2209.8 1369.76 2212.86 1369.76 C 2214.94 1369.76 2217.05 1370.41 2218.85 1371.75 C 2227.34 1378.09 2236.22 1384.15 2245.24 1389.76 C 2249.94 1392.7 2251.38 1398.87 2248.46 1403.58 C 2246.56 1406.63 2243.28 1408.31 2239.93 1408.31 Z  M 2692.64 1379.63 C 2689.92 1379.63 2687.22 1378.53 2685.26 1376.4 C 2685.12 1376.25 2684.99 1376.09 2684.86 1375.93 C 2681.36 1371.63 2682.02 1365.32 2686.31 1361.82 C 2692.38 1356.89 2698.37 1351.72 2704.11 1346.43 C 2706.19 1344.52 2708.24 1342.59 2710.27 1340.64 C 2712.21 1338.78 2714.72 1337.85 2717.22 1337.85 C 2719.85 1337.85 2722.48 1338.88 2724.45 1340.93 C 2728.41 1344.9 2728.16 1351.27 2724.17 1355.11 C 2722.03 1357.16 2719.87 1359.19 2717.69 1361.2 C 2711.64 1366.75 2705.34 1372.2 2698.96 1377.39 C 2697.1 1378.9 2694.87 1379.63 2692.64 1379.63 Z  M 2172.44 1355.1 C 2169.9 1355.1 2167.35 1354.14 2165.4 1352.21 C 2160.75 1347.63 2156.14 1342.85 2151.68 1338.01 C 2148.56 1334.61 2145.48 1331.15 2142.45 1327.62 C 2138.85 1323.42 2139.32 1317.09 2143.52 1313.48 C 2145.42 1311.85 2147.75 1311.06 2150.06 1311.06 C 2152.89 1311.06 2155.7 1312.24 2157.67 1314.54 C 2164.66 1322.69 2171.97 1330.52 2179.48 1337.93 C 2183.42 1341.83 2183.47 1348.16 2179.58 1352.11 C 2177.62 1354.1 2175.03 1355.1 2172.44 1355.1 Z  M 2118.16 1288.43 C 2115.41 1288.43 2112.71 1287.3 2110.77 1285.2 C 2110.39 1284.78 2110.04 1284.33 2109.73 1283.84 C 2103.65 1274.45 2097.9 1264.69 2092.65 1254.84 C 2090.04 1249.96 2091.89 1243.88 2096.77 1241.28 C 2098.28 1240.48 2099.89 1240.09 2101.49 1240.09 C 2105.08 1240.09 2108.55 1242.02 2110.34 1245.4 C 2115.33 1254.76 2120.79 1264.02 2126.57 1272.95 C 2129.58 1277.6 2128.24 1283.81 2123.6 1286.82 C 2121.91 1287.91 2120.02 1288.43 2118.16 1288.43 Z  M 2079.69 1211.53 C 2076.88 1211.53 2074.19 1210.34 2072.3 1208.29 C 2071.44 1207.35 2070.75 1206.23 2070.28 1204.96 C 2066.42 1194.47 2062.96 1183.69 2060 1172.92 C 2058.53 1167.58 2061.67 1162.06 2067.01 1160.59 C 2067.9 1160.35 2068.8 1160.23 2069.68 1160.23 C 2074.08 1160.23 2078.11 1163.15 2079.34 1167.6 C 2082.15 1177.83 2085.43 1188.07 2089.1 1198.03 C 2091.02 1203.23 2088.35 1209 2083.15 1210.91 C 2082.01 1211.33 2080.84 1211.53 2079.69 1211.53 Z " fill-rule="evenodd" fill="url(#_lgradient_530)"/><linearGradient id="_lgradient_531" x1="0" y1="0" x2="1" y2="0" gradientTransform="matrix(22.324,24.279,-24.279,22.324,2047.03,1097.67)" gradientUnits="userSpaceOnUse"><stop offset="0%" stop-opacity="1" style="stop-color:rgb(125,150,252)"/><stop offset="100%" stop-opacity="1" style="stop-color:rgb(121,145,243)"/></linearGradient><path d=" M 2059.06 1127.8 C 2056.19 1127.8 2053.54 1126.57 2051.69 1124.55 C 2050.34 1123.09 2049.41 1121.21 2049.13 1119.08 C 2048.42 1113.7 2047.81 1108.2 2047.32 1102.74 C 2046.82 1097.22 2050.89 1092.35 2056.41 1091.85 C 2056.72 1091.82 2057.02 1091.81 2057.32 1091.81 C 2062.45 1091.81 2066.83 1095.72 2067.3 1100.94 C 2067.76 1106.13 2068.34 1111.35 2069.01 1116.47 C 2069.74 1121.95 2065.87 1126.99 2060.38 1127.72 C 2059.94 1127.77 2059.5 1127.8 2059.06 1127.8 Z " fill="url(#_lgradient_531)"/><linearGradient id="_lgradient_532" x1="0" y1="0" x2="1" y2="0" gradientTransform="matrix(-743.291,-2171.59,2171.59,-743.291,2929.01,2467.91)" gradientUnits="userSpaceOnUse"><stop offset="0%" stop-opacity="1" style="stop-color:rgb(79,82,255)"/><stop offset="100%" stop-opacity="1" style="stop-color:rgb(64,66,226)"/></linearGradient><path d=" M 2146.47 1055.786 C 2146.19 1057.765 2147.19 1059.707 2148.97 1060.62 L 2199.7 1086.71 C 2202.02 1113.25 2208.59 1139.61 2219.58 1164.73 L 2187.56 1211.9 C 2186.44 1213.56 2186.49 1215.74 2187.69 1217.34 L 2228.69 1272.12 C 2229.89 1273.72 2231.97 1274.39 2233.88 1273.78 L 2288.16 1256.36 C 2309.16 1273.99 2332.6 1287.72 2357.41 1297.43 L 2368.14 1353.46 C 2368.52 1355.42 2370.1 1356.93 2372.08 1357.21 L 2439.81 1366.96 C 2441.79 1367.24 2443.73 1366.24 2444.64 1364.46 L 2470.73 1313.73 C 2497.27 1311.41 2523.63 1304.84 2548.75 1293.85 L 2595.92 1325.86 C 2597.58 1326.99 2599.76 1326.94 2601.36 1325.74 L 2656.15 1284.73 C 2657.75 1283.54 2658.41 1281.45 2657.8 1279.55 L 2640.38 1225.26 C 2658.01 1204.26 2671.74 1180.82 2681.45 1156.01 L 2737.48 1145.29 C 2739.44 1144.91 2740.95 1143.33 2741.24 1141.35 L 2750.98 1073.62 C 2751.27 1071.64 2750.26 1069.7 2748.48 1068.78 L 2697.75 1042.698 C 2695.43 1016.158 2688.86 989.797 2677.87 964.679 L 2709.89 917.504 C 2711.01 915.85 2710.96 913.666 2709.76 912.064 L 2668.76 857.281 C 2667.56 855.68 2665.48 855.016 2663.57 855.627 L 2609.29 873.044 C 2588.29 855.419 2564.85 841.686 2540.04 831.979 L 2529.31 775.95 C 2528.93 773.986 2527.35 772.476 2525.37 772.192 L 2457.64 762.448 C 2455.66 762.164 2453.72 763.166 2452.81 764.944 L 2426.72 815.677 C 2400.18 817.996 2373.82 824.566 2348.7 835.555 L 2301.53 803.542 C 2299.87 802.42 2297.69 802.47 2296.09 803.669 L 2241.3 844.671 C 2239.7 845.869 2239.04 847.951 2239.65 849.855 L 2257.07 904.14 C 2239.44 925.142 2225.71 948.582 2216 973.391 L 2159.97 984.12 C 2158.01 984.495 2156.5 986.076 2156.21 988.055 L 2146.47 1055.786 Z " fill="url(#_lgradient_532)"/><path d=" M 2487.63 1029.085 C 2485.87 1027.178 2483.98 1025.39 2481.93 1023.729 C 2459.33 1005.422 2426.06 1008.911 2407.75 1031.5 C 2389.44 1054.094 2392.92 1087.37 2415.52 1105.68 C 2438.11 1123.98 2471.39 1120.5 2489.7 1097.91 C 2498.57 1086.96 2502.64 1073.22 2501.17 1059.207 C 2499.98 1047.821 2495.24 1037.362 2487.63 1029.085 Z  M 2398.06 1111.23 C 2375.36 1086.55 2373.56 1048.21 2395.28 1021.401 C 2419.16 991.933 2462.56 987.388 2492.03 1011.264 C 2506.31 1022.829 2515.22 1039.265 2517.13 1057.534 C 2519.05 1075.81 2513.73 1093.73 2502.17 1108 C 2478.29 1137.47 2434.89 1142.02 2405.42 1118.14 C 2402.77 1115.99 2400.31 1113.67 2398.06 1111.23 Z " fill="rgb(145,179,250)"/><path d=" M 2325.88 1179.5 C 2321.98 1175.26 2318.28 1170.81 2314.78 1166.13 C 2313.68 1164.66 2312.6 1163.17 2311.55 1161.67 C 2306.35 1154.24 2301.76 1146.42 2297.83 1138.31 C 2297.78 1138.2 2297.73 1138.09 2297.67 1137.98 C 2297.52 1137.66 2297.37 1137.35 2297.22 1137.03 C 2296.93 1136.42 2296.65 1135.81 2296.36 1135.19 C 2295.62 1133.57 2296.05 1131.71 2297.29 1130.57 C 2297.59 1130.29 2297.94 1130.05 2298.34 1129.87 C 2300.35 1128.95 2302.73 1129.84 2303.65 1131.84 C 2308.41 1142.21 2314.31 1152.12 2321.2 1161.32 C 2355.4 1207.03 2409.4 1229.37 2462.5 1225.38 C 2492.04 1223.16 2521.29 1212.79 2546.71 1193.77 C 2551.17 1190.43 2555.43 1186.89 2559.47 1183.18 C 2586.68 1158.15 2604.3 1124.81 2609.64 1087.73 C 2615.77 1045.139 2604.94 1002.707 2579.15 968.258 C 2525.9 897.114 2424.76 882.587 2353.64 935.814 C 2349.26 939.096 2345.06 942.588 2341.05 946.272 C 2323.7 962.234 2310.03 981.816 2301.1 1003.661 C 2300.86 1004.225 2300.52 1004.708 2300.1 1005.094 C 2298.99 1006.112 2297.35 1006.464 2295.87 1005.855 C 2293.82 1005.009 2292.83 1002.678 2293.67 1000.622 C 2303.05 977.688 2317.4 957.126 2335.62 940.369 C 2339.82 936.502 2344.23 932.838 2348.83 929.392 C 2423.5 873.507 2529.71 888.812 2585.58 963.448 C 2612.65 999.615 2624.01 1044.158 2617.58 1088.87 C 2611.98 1127.8 2593.47 1162.8 2564.91 1189.07 C 2560.67 1192.97 2556.2 1196.69 2551.52 1200.19 C 2515.35 1227.26 2470.81 1238.62 2426.09 1232.19 C 2387.16 1226.59 2352.15 1208.08 2325.88 1179.5 Z " fill="rgb(145,179,250)"/><linearGradient id="_lgradient_533" x1="0" y1="0" x2="1" y2="0" gradientTransform="matrix(11.036,12.002,-12.002,11.036,1722.75,725.571)" gradientUnits="userSpaceOnUse"><stop offset="0%" stop-opacity="1" style="stop-color:rgb(125,150,252)"/><stop offset="100%" stop-opacity="1" style="stop-color:rgb(121,145,243)"/></linearGradient><path d=" M 1724.07 744.278 C 1722.98 744.278 1721.88 743.992 1720.88 743.392 C 1720.36 743.077 1719.91 742.699 1719.52 742.273 C 1717.7 740.301 1717.32 737.301 1718.77 734.887 C 1721.48 730.382 1724.37 725.897 1727.35 721.558 C 1728.55 719.811 1730.48 718.871 1732.46 718.871 C 1733.66 718.871 1734.89 719.224 1735.96 719.959 C 1738.79 721.887 1739.49 725.752 1737.56 728.571 C 1734.72 732.705 1731.97 736.979 1729.38 741.279 C 1728.22 743.209 1726.17 744.278 1724.07 744.278 Z " fill="url(#_lgradient_533)"/><linearGradient id="_lgradient_534" x1="0" y1="0" x2="1" y2="0" gradientTransform="matrix(216.29,235.232,-235.232,216.29,1853.12,596.734)" gradientUnits="userSpaceOnUse"><stop offset="0%" stop-opacity="1" style="stop-color:rgb(125,150,252)"/><stop offset="100%" stop-opacity="1" style="stop-color:rgb(121,145,243)"/></linearGradient><path d=" M 2168.44 738.693 C 2166.74 738.693 2165.07 737.995 2163.88 736.696 C 2163.64 736.433 2163.41 736.144 2163.21 735.83 C 2158.36 728.216 2153 720.734 2147.28 713.591 C 2146.43 712.505 2145.57 711.448 2144.7 710.405 C 2142.52 707.766 2142.89 703.865 2145.52 701.683 C 2146.69 700.716 2148.12 700.239 2149.53 700.239 C 2151.32 700.239 2153.08 701.001 2154.24 702.501 C 2155.17 703.618 2156.08 704.738 2156.98 705.877 C 2162.95 713.342 2168.56 721.184 2173.65 729.169 C 2175.49 732.055 2174.65 735.882 2171.76 737.721 C 2170.73 738.379 2169.58 738.693 2168.44 738.693 Z  M 1752.29 705.884 C 1750.83 705.884 1749.36 705.37 1748.18 704.325 C 1748.02 704.178 1747.87 704.031 1747.73 703.878 C 1745.6 701.567 1745.53 697.976 1747.66 695.581 C 1753.67 688.807 1760.09 682.266 1766.76 676.141 C 1768.16 674.852 1769.58 673.574 1771.02 672.304 C 1772.16 671.298 1773.58 670.832 1774.99 670.832 C 1776.76 670.832 1778.52 671.555 1779.76 672.853 C 1782.03 675.42 1781.78 679.334 1779.21 681.596 C 1777.84 682.808 1776.48 684.028 1775.14 685.261 C 1768.79 691.102 1762.66 697.342 1756.93 703.799 C 1755.7 705.18 1754 705.884 1752.29 705.884 Z  M 2127.49 689.096 C 2125.96 689.096 2124.43 688.535 2123.23 687.404 C 2115.62 680.195 2107.5 673.411 2099.1 667.24 C 2098.77 666.996 2098.48 666.727 2098.21 666.437 C 2096.24 664.3 2096 661.005 2097.78 658.582 C 2099 656.931 2100.87 656.057 2102.78 656.057 C 2104.05 656.057 2105.34 656.448 2106.44 657.26 C 2115.25 663.735 2123.76 670.847 2131.75 678.4 C 2134.2 680.797 2134.34 684.677 2131.99 687.159 C 2130.77 688.447 2129.13 689.096 2127.49 689.096 Z  M 1800.54 663.354 C 1798.85 663.354 1797.18 662.662 1795.98 661.359 C 1795.78 661.143 1795.59 660.91 1795.43 660.664 C 1793.49 657.839 1794.21 653.984 1797.04 652.05 C 1806.09 645.845 1815.61 640.149 1825.33 635.121 C 1826.23 634.652 1827.2 634.43 1828.16 634.43 C 1830.4 634.43 1832.57 635.656 1833.67 637.775 C 1835.25 640.817 1834.06 644.548 1831.02 646.123 C 1821.75 650.92 1812.67 656.355 1804.04 662.27 C 1802.97 663.003 1801.75 663.354 1800.54 663.354 Z  M 2075.68 651.01 C 2074.66 651.01 2073.62 650.756 2072.67 650.22 C 2063.56 645.122 2054.03 640.545 2044.35 636.609 C 2043.47 636.254 2042.72 635.717 2042.12 635.065 C 2040.55 633.357 2040.01 630.83 2040.94 628.536 C 2041.92 626.131 2044.24 624.675 2046.68 624.675 C 2047.46 624.675 2048.25 624.821 2049.01 625.131 C 2059.17 629.26 2069.16 634.063 2078.71 639.408 C 2081.7 641.093 2082.76 644.856 2081.09 647.841 C 2079.96 649.868 2077.85 651.01 2075.68 651.01 Z  M 1857.67 633.817 C 1855.94 633.817 1854.28 633.083 1853.11 631.811 C 1852.57 631.233 1852.14 630.543 1851.85 629.762 C 1850.67 626.553 1852.32 622.992 1855.53 621.808 C 1865.81 618.022 1876.44 614.834 1887.13 612.346 C 1887.61 612.236 1888.08 612.182 1888.55 612.182 C 1891.36 612.182 1893.9 614.109 1894.57 616.975 C 1895.34 620.304 1893.27 623.635 1889.94 624.412 C 1879.75 626.786 1869.61 629.82 1859.81 633.435 C 1859.1 633.694 1858.38 633.817 1857.67 633.817 Z  M 2016.16 626.804 C 2015.63 626.804 2015.09 626.735 2014.55 626.59 C 2004.46 623.876 1994.1 621.757 1983.74 620.293 C 1982.27 620.083 1980.99 619.37 1980.05 618.353 C 1978.84 617.035 1978.21 615.201 1978.48 613.288 C 1978.91 610.196 1981.57 607.963 1984.6 607.963 C 1984.89 607.963 1985.18 607.983 1985.48 608.024 C 1996.33 609.562 2007.2 611.782 2017.77 614.627 C 2021.08 615.511 2023.03 618.913 2022.14 622.216 C 2021.4 624.981 2018.89 626.804 2016.16 626.804 Z  M 1920.3 619.218 C 1918.52 619.218 1916.89 618.454 1915.75 617.211 C 1914.88 616.267 1914.3 615.046 1914.15 613.676 C 1913.79 610.275 1916.26 607.221 1919.66 606.863 C 1928.99 605.877 1938.45 605.379 1947.83 605.379 C 1949.43 605.379 1951.02 605.394 1952.61 605.422 C 1956.03 605.487 1958.74 608.317 1958.68 611.729 C 1958.63 615.112 1955.86 617.811 1952.49 617.811 C 1952.45 617.811 1952.42 617.811 1952.38 617.81 C 1950.85 617.782 1949.32 617.768 1947.79 617.768 C 1938.85 617.768 1929.85 618.243 1920.96 619.183 C 1920.74 619.206 1920.52 619.218 1920.3 619.218 Z " fill-rule="evenodd" fill="url(#_lgradient_534)"/><linearGradient id="_lgradient_535" x1="0" y1="0" x2="1" y2="0" gradientTransform="matrix(246.862,268.482,-268.482,246.862,1724.14,909.06)" gradientUnits="userSpaceOnUse"><stop offset="0%" stop-opacity="1" style="stop-color:rgb(125,150,252)"/><stop offset="100%" stop-opacity="1" style="stop-color:rgb(121,145,243)"/></linearGradient><path d=" M 1948.21 1140.42 C 1940.51 1140.42 1932.78 1140.1 1925.12 1139.44 C 1923.52 1139.3 1922.1 1138.56 1921.09 1137.46 C 1919.96 1136.23 1919.33 1134.54 1919.48 1132.74 C 1919.76 1129.51 1922.46 1127.07 1925.64 1127.07 C 1925.82 1127.07 1926 1127.08 1926.18 1127.09 C 1933.5 1127.72 1940.9 1128.04 1948.26 1128.04 C 1951.22 1128.04 1954.17 1127.99 1957.11 1127.88 C 1957.18 1127.88 1957.26 1127.88 1957.33 1127.88 C 1960.66 1127.88 1963.4 1130.52 1963.52 1133.86 C 1963.64 1137.28 1960.96 1140.14 1957.55 1140.26 C 1954.44 1140.37 1951.33 1140.42 1948.21 1140.42 Z  M 1988.88 1137.24 C 1987.11 1137.24 1985.47 1136.48 1984.32 1135.23 C 1983.52 1134.37 1982.96 1133.26 1982.77 1132.01 C 1982.23 1128.63 1984.54 1125.46 1987.92 1124.92 C 1998.1 1123.33 2008.27 1121.09 2018.14 1118.27 C 2018.7 1118.11 2019.27 1118.03 2019.83 1118.03 C 2022.53 1118.03 2025.02 1119.8 2025.79 1122.53 C 2026.73 1125.82 2024.83 1129.24 2021.54 1130.18 C 2011.18 1133.13 2000.52 1135.49 1989.85 1137.17 C 1989.52 1137.22 1989.2 1137.24 1988.88 1137.24 Z  M 1894.31 1134.84 C 1893.89 1134.84 1893.47 1134.8 1893.04 1134.71 C 1882.49 1132.5 1871.96 1129.62 1861.76 1126.16 C 1860.74 1125.81 1859.87 1125.22 1859.2 1124.49 C 1857.71 1122.87 1857.13 1120.52 1857.89 1118.3 C 1858.76 1115.72 1861.17 1114.09 1863.75 1114.09 C 1864.41 1114.09 1865.08 1114.2 1865.74 1114.42 C 1875.48 1117.73 1885.51 1120.48 1895.58 1122.58 C 1898.93 1123.28 1901.07 1126.56 1900.37 1129.91 C 1899.76 1132.83 1897.18 1134.84 1894.31 1134.84 Z  M 1834.43 1114.51 C 1833.53 1114.51 1832.62 1114.31 1831.75 1113.9 C 1822.06 1109.23 1812.53 1103.9 1803.44 1098.07 C 1802.98 1097.77 1802.57 1097.43 1802.22 1097.04 C 1800.36 1095.02 1800.02 1091.93 1801.57 1089.51 C 1802.75 1087.67 1804.75 1086.66 1806.79 1086.66 C 1807.93 1086.66 1809.09 1086.98 1810.12 1087.64 C 1818.8 1093.2 1827.88 1098.28 1837.13 1102.74 C 1840.21 1104.24 1841.51 1107.92 1840.02 1111 C 1838.95 1113.22 1836.74 1114.51 1834.43 1114.51 Z  M 1781.22 1080.33 C 1779.82 1080.33 1778.42 1079.86 1777.26 1078.9 C 1768.99 1072.02 1761.03 1064.55 1753.62 1056.703 L 1753.57 1056.64 C 1751.28 1054.151 1751.41 1050.274 1753.88 1047.944 C 1755.07 1046.815 1756.6 1046.255 1758.13 1046.255 C 1759.77 1046.255 1761.41 1046.906 1762.63 1048.198 C 1769.7 1055.688 1777.28 1062.81 1785.18 1069.37 C 1787.77 1071.56 1788.17 1075.46 1785.98 1078.09 C 1784.76 1079.57 1782.99 1080.33 1781.22 1080.33 Z  M 1737.8 1034.324 C 1736.11 1034.324 1734.44 1033.636 1733.24 1032.329 C 1733.09 1032.163 1732.95 1031.993 1732.81 1031.81 C 1726.4 1023.14 1720.46 1013.99 1715.13 1004.618 C 1713.45 1001.641 1714.49 997.863 1717.46 996.176 C 1718.42 995.628 1719.47 995.368 1720.51 995.368 C 1722.67 995.368 1724.77 996.502 1725.91 998.499 C 1730.98 1007.443 1736.66 1016.172 1742.78 1024.448 C 1744.81 1027.197 1744.23 1031.077 1741.48 1033.109 C 1740.37 1033.929 1739.08 1034.324 1737.8 1034.324 Z  M 1706.6 979.281 C 1704.87 979.281 1703.21 978.555 1702.03 977.278 C 1701.56 976.76 1701.16 976.151 1700.87 975.462 C 1696.73 965.498 1693.17 955.177 1690.28 944.788 C 1689.36 941.491 1691.29 938.077 1694.59 937.158 C 1695.14 937.005 1695.69 936.932 1696.24 936.932 C 1698.95 936.932 1701.44 938.727 1702.21 941.465 C 1704.97 951.372 1708.37 961.208 1712.31 970.711 C 1713.62 973.869 1712.13 977.497 1708.97 978.807 C 1708.19 979.129 1707.39 979.281 1706.6 979.281 Z " fill-rule="evenodd" fill="url(#_lgradient_535)"/><linearGradient id="_lgradient_536" x1="0" y1="0" x2="1" y2="0" gradientTransform="matrix(16.883,18.362,-18.362,16.883,1680.21,894.988)" gradientUnits="userSpaceOnUse"><stop offset="0%" stop-opacity="1" style="stop-color:rgb(125,150,252)"/><stop offset="100%" stop-opacity="1" style="stop-color:rgb(121,145,243)"/></linearGradient><path d=" M 1689.57 918.043 C 1687.8 918.043 1686.16 917.285 1685.01 916.037 C 1684.2 915.157 1683.64 914.035 1683.45 912.765 C 1682.66 907.522 1682.03 902.232 1681.56 897.041 C 1681.26 893.635 1683.77 890.622 1687.18 890.316 C 1687.36 890.3 1687.54 890.292 1687.72 890.292 C 1690.9 890.292 1693.61 892.71 1693.9 895.932 C 1694.34 900.882 1694.95 905.929 1695.7 910.933 C 1696.21 914.317 1693.87 917.47 1690.49 917.974 C 1690.18 918.02 1689.87 918.043 1689.57 918.043 Z " fill="url(#_lgradient_536)"/><linearGradient id="_lgradient_537" x1="0" y1="0" x2="1" y2="0" gradientTransform="matrix(-743.291,-2171.59,2171.59,-743.291,2541.36,2600.36)" gradientUnits="userSpaceOnUse"><stop offset="0%" stop-opacity="1" style="stop-color:rgb(79,82,255)"/><stop offset="100%" stop-opacity="1" style="stop-color:rgb(64,66,226)"/></linearGradient><path d=" M 1747.4 865.668 C 1747.21 866.992 1747.88 868.292 1749.07 868.904 L 1783.02 886.36 C 1784.57 904.119 1788.96 921.759 1796.32 938.567 L 1774.9 970.133 C 1774.14 971.24 1774.18 972.702 1774.98 973.773 L 1802.42 1010.432 C 1803.22 1011.503 1804.61 1011.947 1805.89 1011.539 L 1842.21 999.884 C 1856.26 1011.678 1871.95 1020.868 1888.55 1027.363 L 1895.73 1064.86 C 1895.98 1066.17 1897.04 1067.18 1898.36 1067.37 L 1943.68 1073.89 C 1945.01 1074.08 1946.31 1073.41 1946.92 1072.22 L 1964.38 1038.271 C 1982.14 1036.719 1999.78 1032.324 2016.58 1024.97 L 2048.15 1046.391 C 2049.26 1047.143 2050.72 1047.109 2051.79 1046.307 L 2088.45 1018.87 C 2089.52 1018.068 2089.96 1016.675 2089.56 1015.401 L 2077.9 979.076 C 2089.69 965.022 2098.88 949.338 2105.38 932.736 L 2142.87 925.557 C 2144.19 925.305 2145.2 924.248 2145.39 922.924 L 2151.91 877.601 C 2152.1 876.277 2151.43 874.978 2150.24 874.366 L 2116.29 856.91 C 2114.74 839.151 2110.34 821.511 2102.99 804.704 L 2124.41 773.136 C 2125.16 772.029 2125.13 770.568 2124.32 769.496 L 2096.89 732.838 C 2096.09 731.766 2094.69 731.322 2093.42 731.731 L 2057.09 743.385 C 2043.04 731.592 2027.35 722.402 2010.75 715.906 L 2003.57 678.415 C 2003.32 677.1 2002.26 676.09 2000.94 675.9 L 1955.62 669.38 C 1954.29 669.19 1952.99 669.86 1952.38 671.05 L 1934.93 704.998 C 1917.17 706.55 1899.53 710.946 1882.72 718.3 L 1851.15 696.878 C 1850.05 696.127 1848.58 696.16 1847.51 696.963 L 1810.85 724.399 C 1809.78 725.202 1809.34 726.594 1809.75 727.869 L 1821.4 764.194 C 1809.61 778.247 1800.42 793.932 1793.92 810.533 L 1756.43 817.712 C 1755.12 817.964 1754.11 819.021 1753.92 820.346 L 1747.4 865.668 Z " fill="url(#_lgradient_537)"/><path d=" M 1975.04 848.32 C 1973.91 847.093 1972.68 845.936 1971.35 844.854 C 1956.58 832.895 1934.84 835.174 1922.87 849.938 C 1917.08 857.088 1914.41 866.071 1915.38 875.223 C 1916.34 884.382 1920.81 892.607 1927.95 898.412 C 1935.11 904.206 1944.09 906.872 1953.24 905.913 C 1962.4 904.953 1970.63 900.485 1976.43 893.331 C 1987.31 879.902 1986.41 860.688 1975.04 848.32 Z  M 1915.09 903.279 C 1908.33 895.923 1904.11 886.632 1903.05 876.515 C 1901.75 864.069 1905.37 851.86 1913.25 842.137 C 1929.51 822.069 1959.07 818.97 1979.15 835.231 C 1999.22 851.552 2002.32 881.063 1986.05 901.132 C 1978.17 910.857 1966.98 916.931 1954.53 918.232 C 1942.09 919.538 1929.88 915.918 1920.15 908.033 C 1918.34 906.56 1916.65 904.969 1915.09 903.279 Z " fill="rgb(145,179,250)"/><path d=" M 1864.79 950.737 C 1862.14 947.852 1859.61 944.809 1857.21 941.609 C 1852.45 935.251 1848.33 928.402 1844.96 921.234 C 1844.81 920.911 1844.66 920.588 1844.51 920.265 C 1843.36 917.763 1844.02 914.895 1845.94 913.124 C 1846.41 912.694 1846.95 912.329 1847.56 912.051 C 1850.67 910.624 1854.33 912.001 1855.77 915.099 C 1858.85 921.821 1862.68 928.24 1867.13 934.181 L 1867.13 934.183 C 1867.37 934.51 1867.62 934.834 1867.87 935.155 C 1878.53 949.12 1892.27 959.897 1907.89 966.882 C 1916.38 970.673 1925.42 973.343 1934.84 974.785 L 1935.07 974.821 C 1935.31 974.854 1935.54 974.892 1935.77 974.923 C 1963.35 978.887 1990.81 971.881 2013.12 955.188 C 2016 953.03 2018.76 950.741 2021.38 948.334 C 2038.99 932.135 2050.4 910.55 2053.85 886.542 C 2057.82 858.968 2050.81 831.503 2034.12 809.203 C 2017.43 786.923 1993.05 772.435 1965.47 768.463 C 1937.9 764.498 1910.43 771.505 1888.13 788.198 C 1885.29 790.32 1882.57 792.583 1879.98 794.965 C 1868.74 805.301 1859.9 817.976 1854.11 832.117 C 1853.76 832.988 1853.23 833.734 1852.57 834.33 C 1850.86 835.902 1848.33 836.444 1846.04 835.505 C 1842.87 834.201 1841.35 830.597 1842.65 827.423 C 1849.12 811.601 1859.02 797.416 1871.59 785.854 C 1874.49 783.185 1877.53 780.656 1880.7 778.281 C 1905.66 759.603 1936.39 751.764 1967.24 756.202 C 1998.09 760.642 2025.37 776.8 2044.03 801.777 C 2062.71 826.728 2070.55 857.456 2066.11 888.309 C 2062.25 915.166 2049.48 939.313 2029.78 957.436 C 2026.85 960.126 2023.77 962.69 2020.54 965.105 C 1972.23 1001.26 1904.78 994.235 1864.79 950.737 Z " fill="rgb(145,179,250)"/><linearGradient id="_lgradient_538" x1="0" y1="0" x2="1" y2="0" gradientTransform="matrix(-278.424,577.222,-577.222,-278.424,2893.87,-387.467)" gradientUnits="userSpaceOnUse"><stop offset="0%" stop-opacity="1" style="stop-color:rgb(9,0,93)"/><stop offset="100%" stop-opacity="1" style="stop-color:rgb(26,15,145)"/></linearGradient><path d=" M 893.533 1578.66 C 897.639 1515.19 935.967 1458.97 993.417 1431.68 L 1737.74 1078.17 C 1785.41 1055.53 1840.73 1055.53 1888.4 1078.17 L 2632.73 1431.68 C 2690.18 1458.97 2728.51 1515.19 2732.61 1578.66 C 2802.43 2657.87 2110.45 3051.09 1883.62 3150.42 C 1838.63 3170.12 1787.52 3170.12 1742.53 3150.42 C 1515.69 3051.09 823.715 2657.87 893.533 1578.66 Z " fill="url(#_lgradient_538)"/><path d=" M 2038.22 1225.03 C 2037 1225.03 2035.76 1224.77 2034.59 1224.21 L 1858.72 1140.68 C 1854.48 1138.67 1852.68 1133.61 1854.69 1129.37 C 1856.7 1125.14 1861.77 1123.33 1866 1125.34 L 2041.87 1208.87 C 2046.1 1210.88 2047.91 1215.95 2045.89 1220.18 C 2044.44 1223.24 2041.4 1225.03 2038.22 1225.03 Z " fill="rgb(145,179,250)"/><path d=" M 2675.69 1807.53 C 2675.6 1807.53 2675.5 1807.53 2675.4 1807.53 C 2670.72 1807.37 2667.05 1803.45 2667.2 1798.76 C 2669.54 1729.2 2668.31 1656.65 2663.56 1583.12 C 2661.08 1544.82 2637.89 1510.74 2603.04 1494.19 L 2102.33 1256.38 C 2098.09 1254.37 2096.29 1249.31 2098.3 1245.07 C 2100.31 1240.83 2105.37 1239.03 2109.61 1241.04 L 2610.32 1478.85 C 2650.73 1498.04 2677.62 1537.58 2680.5 1582.03 C 2685.29 1656.1 2686.52 1729.22 2684.17 1799.33 C 2684.02 1803.92 2680.25 1807.53 2675.69 1807.53 Z " fill="rgb(145,179,250)"/><linearGradient id="_lgradient_539" x1="0" y1="0" x2="1" y2="0" gradientTransform="matrix(-651.202,1598.41,1598.41,651.202,2137.65,1043.28)" gradientUnits="userSpaceOnUse"><stop offset="0%" stop-opacity="1" style="stop-color:rgb(79,82,255)"/><stop offset="100%" stop-opacity="1" style="stop-color:rgb(64,66,226)"/></linearGradient><path d=" M 1073.53 1620.78 C 1074.35 1604.69 1083.93 1590.33 1098.48 1583.41 L 1794.3 1252.94 C 1806.18 1247.3 1819.97 1247.3 1831.85 1252.94 L 2527.66 1583.41 C 2542.22 1590.33 2551.8 1604.69 2552.62 1620.78 C 2573.19 2023.36 2480.21 2359.26 2276.04 2619.6 C 2120.38 2818.09 1938.29 2924.46 1831.59 2974.08 C 1819.84 2979.55 1806.31 2979.55 1794.55 2974.08 C 1687.85 2924.46 1505.76 2818.09 1350.1 2619.6 C 1145.94 2359.26 1052.95 2023.35 1073.53 1620.78 Z " fill="url(#_lgradient_539)"/><linearGradient id="_lgradient_540" x1="0" y1="0" x2="1" y2="0" gradientTransform="matrix(-74.779,787.672,787.672,74.779,1827.91,1631.9)" gradientUnits="userSpaceOnUse"><stop offset="0%" stop-opacity="1" style="stop-color:rgb(255,146,142)"/><stop offset="100%" stop-opacity="1" style="stop-color:rgb(254,112,98)"/></linearGradient><path d=" M 2018.81 2053.31 L 2088.15 2053.31 L 2088.15 1776.95 C 2088.15 1668.4 2006.9 1576.68 1899.15 1563.58 L 1757.35 1546.35 C 1696.33 1538.93 1634.93 1558.06 1588.9 1598.82 C 1542.88 1639.59 1516.48 1698.24 1516.48 1759.72 L 1516.48 2000.98 L 1585.83 2000.98 L 1585.83 1759.72 C 1585.83 1718.07 1603.71 1678.35 1634.89 1650.74 C 1666.06 1623.12 1707.65 1610.16 1748.99 1615.19 L 1890.78 1632.42 C 1963.77 1641.29 2018.81 1703.43 2018.81 1776.95 L 2018.81 2053.31 Z " fill="url(#_lgradient_540)"/><linearGradient id="_lgradient_541" x1="0" y1="0" x2="1" y2="0" gradientTransform="matrix(-254.084,1905.63,-1905.63,-254.084,1846.66,1854.04)" gradientUnits="userSpaceOnUse"><stop offset="0%" stop-opacity="1" style="stop-color:rgb(255,146,142)"/><stop offset="100%" stop-opacity="1" style="stop-color:rgb(254,112,98)"/></linearGradient><path d=" M 2108.66 1991.26 L 1500.75 1957.58 C 1476.06 1956.22 1455.29 1975.87 1455.29 2000.6 L 1455.29 2482.19 C 1455.29 2505.98 1474.57 2525.27 1498.37 2525.27 L 2091.67 2525.27 C 2114.91 2525.27 2133.96 2506.82 2134.72 2483.59 L 2149.33 2035.68 C 2150.09 2012.28 2132.03 1992.56 2108.66 1991.26 Z " fill="url(#_lgradient_541)"/><linearGradient id="_lgradient_542" x1="0" y1="0" x2="1" y2="0" gradientTransform="matrix(209.385,274.172,274.172,-209.385,1693.1,2132.91)" gradientUnits="userSpaceOnUse"><stop offset="0%" stop-opacity="1" style="stop-color:rgb(225,71,61)"/><stop offset="100%" stop-opacity="1" style="stop-color:rgb(233,96,90)"/></linearGradient><path d=" M 1703.22 2387.3 L 1740.01 2281.52 C 1744.43 2268.8 1741.42 2254.58 1731.96 2245 C 1713.11 2225.9 1701.87 2199.25 1703.2 2170 C 1705.55 2118.4 1747.7 2076.56 1799.32 2074.57 C 1856.44 2072.38 1903.43 2118.04 1903.43 2174.67 C 1903.43 2206.09 1888.96 2234.11 1866.33 2252.47 C 1854.59 2262 1849.76 2277.65 1854.73 2291.93 L 1887.9 2387.3 C 1895.97 2410.5 1878.75 2434.73 1854.19 2434.73 L 1736.93 2434.73 C 1712.37 2434.73 1695.15 2410.5 1703.22 2387.3 Z " fill="url(#_lgradient_542)"/><linearGradient id="_lgradient_543" x1="0" y1="0" x2="1" y2="0" gradientTransform="matrix(-97.973,328.685,-328.685,-97.973,1625.53,-543.867)" gradientUnits="userSpaceOnUse"><stop offset="0%" stop-opacity="1" style="stop-color:rgb(83,216,255)"/><stop offset="100%" stop-opacity="1" style="stop-color:rgb(56,64,247)"/></linearGradient><path d=" M 468.944 3162.13 C 468.944 3162.13 458.025 3179.34 455.279 3227.53 C 455.022 3232.02 458.579 3235.85 463.076 3235.85 L 548.478 3235.85 C 551.913 3235.85 554.365 3232.48 553.266 3229.22 C 548.262 3214.41 533.13 3178.3 499.368 3157.67 L 468.944 3162.13 Z " fill="url(#_lgradient_543)"/><linearGradient id="_lgradient_544" x1="0" y1="0" x2="1" y2="0" gradientTransform="matrix(39.854,0,0,39.854,465.233,3151.09)" gradientUnits="userSpaceOnUse"><stop offset="0%" stop-opacity="1" style="stop-color:rgb(162,43,37)"/><stop offset="100%" stop-opacity="1" style="stop-color:rgb(192,66,60)"/></linearGradient><path d=" M 465.233 3129.48 L 470.064 3169.98 C 470.481 3173.47 473.22 3176.27 476.715 3176.67 C 481.386 3177.21 488.176 3177.59 494.773 3176.5 C 500.771 3175.51 505.088 3170.17 505.088 3164.09 L 505.088 3124.99 L 465.233 3129.48 Z " fill="url(#_lgradient_544)"/><linearGradient id="_lgradient_545" x1="0" y1="0" x2="1" y2="0" gradientTransform="matrix(-97.974,328.687,-328.687,-97.974,1842.12,-479.33)" gradientUnits="userSpaceOnUse"><stop offset="0%" stop-opacity="1" style="stop-color:rgb(83,216,255)"/><stop offset="100%" stop-opacity="1" style="stop-color:rgb(56,64,247)"/></linearGradient><path d=" M 680.24 3157.67 C 680.24 3157.67 663.895 3183.07 664.244 3217.95 C 664.327 3226.16 671.204 3232.7 679.419 3232.7 L 812.055 3232.7 C 818.266 3232.7 820.787 3224.72 815.705 3221.15 C 790.606 3203.53 741.275 3170.6 705.596 3157.67 L 680.24 3157.67 Z " fill="url(#_lgradient_545)"/><linearGradient id="_lgradient_546" x1="0" y1="0" x2="1" y2="0" gradientTransform="matrix(39.634,0,0,39.634,666.581,3133.4)" gradientUnits="userSpaceOnUse"><stop offset="0%" stop-opacity="1" style="stop-color:rgb(162,43,37)"/><stop offset="100%" stop-opacity="1" style="stop-color:rgb(192,66,60)"/></linearGradient><path d=" M 666.581 3113.92 L 676.884 3163.94 C 678.036 3169.54 683.51 3173.3 689.085 3172.06 C 692.474 3171.3 696.473 3169.85 700.744 3167.18 C 704.806 3164.64 706.863 3159.81 706.033 3155.1 L 695.376 3094.5 L 666.581 3113.92 Z " fill="url(#_lgradient_546)"/><path d=" M 484.158 2418.46 C 484.158 2418.46 448.335 2450.04 441.593 2488.04 C 434.852 2526.04 460.694 3143.63 460.694 3143.63 C 460.694 3143.63 496.516 3149.59 514.981 3138.4 C 514.981 3138.4 536.884 2737.59 553.531 2644.97 C 553.531 2644.97 640.837 3060.15 665.027 3135.17 C 665.027 3135.17 699.538 3139.37 710.667 3132.81 C 710.667 3132.81 687.798 2594.61 659.062 2498.92 L 484.158 2418.46 Z " fill="rgb(125,151,244)"/><path d=" M 552.486 2632.79 C 552.882 2632.79 553.285 2632.74 553.684 2632.64 C 556.218 2631.98 557.736 2629.39 557.076 2626.86 L 541.86 2568.49 C 541.561 2567.33 540.835 2566.34 539.832 2565.69 L 506.956 2544.6 C 504.765 2543.18 501.824 2543.83 500.407 2546.03 C 498.993 2548.24 499.636 2551.17 501.839 2552.58 L 533.153 2572.67 L 547.903 2629.25 C 548.458 2631.38 550.382 2632.79 552.486 2632.79 Z " fill="rgb(145,179,250)"/><linearGradient id="_lgradient_547" x1="0" y1="0" x2="1" y2="0" gradientTransform="matrix(-58.854,88.281,-88.281,-58.854,1081.16,1659.58)" gradientUnits="userSpaceOnUse"><stop offset="0%" stop-opacity="1" style="stop-color:rgb(79,82,255)"/><stop offset="100%" stop-opacity="1" style="stop-color:rgb(64,66,226)"/></linearGradient><path d=" M 779.225 2080.8 C 639.062 2137.84 618.021 2183.49 618.021 2183.49 L 734.396 2252.76 C 734.396 2252.76 865.234 2183.14 922.924 2062.14 C 895.523 2052.04 872.518 2037.18 856.296 2024.76 C 837.023 2047.29 811.92 2067.5 779.225 2080.8 Z " fill="url(#_lgradient_547)"/><linearGradient id="_lgradient_548" x1="0" y1="0" x2="1" y2="0" gradientTransform="matrix(131.375,-66.608,66.608,131.375,823.014,1959.12)" gradientUnits="userSpaceOnUse"><stop offset="0%" stop-opacity="1" style="stop-color:rgb(162,43,37)"/><stop offset="100%" stop-opacity="1" style="stop-color:rgb(192,66,60)"/></linearGradient><path d=" M 889.747 1776.58 C 887.38 1772.36 880.944 1774.15 881.094 1778.98 L 882.5 1824.31 C 882.773 1833.07 885.727 1841.53 890.965 1848.55 L 907.793 1866.82 C 914.865 1876.3 917.55 1888.33 915.138 1899.91 C 909.365 1927.62 894.037 1980.65 856.296 2024.76 C 872.518 2037.18 895.523 2052.04 922.924 2062.14 C 944.091 2017.74 955.425 1966.43 946.816 1909.09 C 953.401 1902.74 954.888 1892.76 950.445 1884.76 L 889.747 1776.58 Z " fill="url(#_lgradient_548)"/><linearGradient id="_lgradient_549" x1="0" y1="0" x2="1" y2="0" gradientTransform="matrix(-80.63,763.62,-763.62,-80.63,796.237,1933.29)" gradientUnits="userSpaceOnUse"><stop offset="0%" stop-opacity="1" style="stop-color:rgb(79,82,255)"/><stop offset="100%" stop-opacity="1" style="stop-color:rgb(64,66,226)"/></linearGradient><path d=" M 887.31 2127.93 C 834.222 2070.73 733.101 2044.88 674.555 2034.27 C 648.905 2029.62 623.621 2043.89 614.533 2068.32 C 588.187 2139.15 516.53 2323.41 502.641 2355.08 C 491.246 2381.06 479.349 2406.43 471.789 2422.29 C 467.272 2431.77 471.219 2443.11 480.677 2447.67 C 529.934 2471.41 618.567 2498.28 654.501 2508.76 C 662.404 2511.06 670.274 2505.13 670.274 2496.89 C 670.274 2489.91 672.173 2483.06 675.766 2477.07 L 811.854 2250.29 C 896.675 2344.34 970.957 2352.94 1028.02 2332.36 C 1018.42 2302.7 1012.15 2273 1009.13 2243.23 C 924.833 2228.79 887.31 2127.93 887.31 2127.93 Z " fill="url(#_lgradient_549)"/><linearGradient id="_lgradient_550" x1="0" y1="0" x2="1" y2="0" gradientTransform="matrix(-318.271,395.959,-395.959,-318.271,1265.29,2004.99)" gradientUnits="userSpaceOnUse"><stop offset="0%" stop-opacity="1" style="stop-color:rgb(162,43,37)"/><stop offset="100%" stop-opacity="1" style="stop-color:rgb(192,66,60)"/></linearGradient><path d=" M 1148.47 2227.45 L 1133.26 2207.16 C 1084.01 2240.99 1042.84 2249.01 1009.13 2243.23 C 1012.15 2273 1018.42 2302.7 1028.02 2332.36 C 1103.19 2305.24 1148.47 2227.45 1148.47 2227.45 Z " fill="url(#_lgradient_550)"/><linearGradient id="_lgradient_551" x1="0" y1="0" x2="1" y2="0" gradientTransform="matrix(-318.269,395.957,-395.957,-318.269,1325.63,2053.49)" gradientUnits="userSpaceOnUse"><stop offset="0%" stop-opacity="1" style="stop-color:rgb(162,43,37)"/><stop offset="100%" stop-opacity="1" style="stop-color:rgb(192,66,60)"/></linearGradient><path d=" M 1137.75 2227.81 L 1223.45 2231.15 L 1302.37 2187.08 C 1291.04 2179.98 1226.98 2194.49 1226.98 2194.49 C 1226.98 2194.49 1160.02 2184.37 1141.9 2184.34 C 1126.85 2184.32 1129 2205.97 1130.16 2213.3 C 1130.39 2214.8 1130.59 2215.7 1130.59 2215.7 L 1137.75 2227.81 Z " fill="url(#_lgradient_551)"/><linearGradient id="_lgradient_552" x1="0" y1="0" x2="1" y2="0" gradientTransform="matrix(-133.553,76.963,-76.963,-133.553,1106.09,1812.37)" gradientUnits="userSpaceOnUse"><stop offset="0%" stop-opacity="1" style="stop-color:rgb(162,43,37)"/><stop offset="100%" stop-opacity="1" style="stop-color:rgb(192,66,60)"/></linearGradient><path d=" M 755.083 1929.21 L 709.86 2039.56 C 709.86 2039.56 761.821 2075.53 803.625 2072.1 L 826.195 1972.88 L 755.083 1929.21 Z " fill="url(#_lgradient_552)"/><linearGradient id="_lgradient_553" x1="0" y1="0" x2="1" y2="0" gradientTransform="matrix(-7.366,225.801,-225.801,-7.366,810.085,1870.04)" gradientUnits="userSpaceOnUse"><stop offset="0%" stop-opacity="1" style="stop-color:rgb(162,43,37)"/><stop offset="100%" stop-opacity="1" style="stop-color:rgb(192,66,60)"/></linearGradient><path d=" M 831.473 1853.98 C 832.508 1855.45 864.188 1969.89 864.188 1969.89 L 798.457 1986.59 L 752.315 1882.58 C 752.315 1882.58 814.133 1829.41 831.473 1853.98 Z " fill="url(#_lgradient_553)"/><linearGradient id="_lgradient_554" x1="0" y1="0" x2="1" y2="0" gradientTransform="matrix(-15.208,562.678,562.678,15.208,803.178,1706.63)" gradientUnits="userSpaceOnUse"><stop offset="0%" stop-opacity="1" style="stop-color:rgb(9,0,93)"/><stop offset="100%" stop-opacity="1" style="stop-color:rgb(26,15,145)"/></linearGradient><path d=" M 777.067 1898.38 L 797.07 1955.04 C 797.326 1955.77 797.67 1956.44 798.113 1957.07 C 800.827 1960.92 811.139 1973.51 823.37 1962.17 C 834.468 1951.89 844.75 1942.67 854.246 1940.99 C 858.509 1940.24 862.639 1942.84 863.792 1947.01 C 866.668 1957.41 872.714 1980.97 874.847 2002.23 C 875.279 2006.55 872.299 2010.45 868.039 2011.26 C 855.2 2013.69 827.981 2018.08 805.256 2016.48 C 802.177 2016.26 799.468 2014.41 798.183 2011.6 C 791.92 1997.92 772.732 1956.4 765.596 1945.66 C 758.896 1935.57 742.477 1935.86 735.59 1936.47 C 733.331 1936.67 731.111 1935.94 729.407 1934.44 C 723.383 1929.16 711.916 1915.68 728.046 1899.54 C 731.422 1896.16 731.33 1890.71 727.852 1887.44 C 720.926 1880.93 713.518 1869.38 725.058 1855.05 C 736.787 1840.49 752.271 1842.81 761.758 1846.27 C 765.594 1847.67 769.779 1846.05 771.864 1842.54 C 773.051 1840.54 775.121 1839.03 778.712 1839.34 C 783.551 1839.75 787.618 1835.71 787.531 1830.86 C 787.364 1821.53 790.703 1809.75 806.886 1804.71 C 835.599 1795.77 853.505 1823.51 855.279 1844.21 C 857.052 1864.91 825.371 1872.83 806.74 1871.44 C 792.575 1870.37 782.059 1884.41 777.831 1891.21 C 776.491 1893.36 776.225 1895.99 777.067 1898.38 Z " fill="url(#_lgradient_554)"/><linearGradient id="_lgradient_555" x1="0" y1="0" x2="1" y2="0" gradientTransform="matrix(24.62,-154.604,154.604,24.62,729.383,2101.7)" gradientUnits="userSpaceOnUse"><stop offset="0%" stop-opacity="1" style="stop-color:rgb(162,43,37)"/><stop offset="100%" stop-opacity="1" style="stop-color:rgb(192,66,60)"/></linearGradient><path d=" M 773.084 1966.21 C 773.084 1966.21 768.445 1930.28 753.497 1928.52 C 738.548 1926.75 723.997 1939.04 738.859 1959.21 C 757.346 1984.3 773.084 1966.21 773.084 1966.21 Z " fill="url(#_lgradient_555)"/></g></g></g></svg>