<?xml version="1.0" encoding="UTF-8" standalone="no"?><!-- Generator: Gravit.io --><svg xmlns="http://www.w3.org/2000/svg" xmlns:xlink="http://www.w3.org/1999/xlink" style="isolation:isolate" viewBox="0 0 3710 3710" width="3710pt" height="3710pt"><defs><clipPath id="_clipPath_VbrBM0eYwdcciRnrBPS484xb0CiihuTf"><rect width="3710" height="3710"/></clipPath></defs><g clip-path="url(#_clipPath_VbrBM0eYwdcciRnrBPS484xb0CiihuTf)"><g><clipPath id="_clipPath_xGRZE1z1SV7P64vt4xnX3aFjU88Z96i1"><path d=" M 0 520 L 0 2993.333 L 3710 2993.333 L 3710 520 L 0 520 Z " fill="rgb(255,255,255)"/></clipPath><g clip-path="url(#_clipPath_xGRZE1z1SV7P64vt4xnX3aFjU88Z96i1)"><linearGradient id="_lgradient_573" x1="0" y1="0" x2="1" y2="0" gradientTransform="matrix(3236.529,0,0,3236.529,230.398,1703.491)" gradientUnits="userSpaceOnUse"><stop offset="0%" stop-opacity="1" style="stop-color:rgb(218,227,254)"/><stop offset="100%" stop-opacity="1" style="stop-color:rgb(233,239,253)"/></linearGradient><path d=" M 2198.044 2740.274 C 2192.902 2740.274 2187.821 2740.274 2182.754 2740.259 C 2196.005 2737.666 2208.207 2731.445 2218.565 2722.526 C 2719.048 2634.1 2994.292 2342.727 3142.767 2086.295 C 3148.418 2086.819 3154.145 2087.164 3159.886 2087.344 C 3204.601 2310.828 3176.435 2634.985 2860.837 2693.221 C 2657.694 2730.71 2404.02 2740.274 2198.044 2740.274 Z  M 1312.574 2707.926 C 981.715 2678.635 581.791 2610.776 415.586 2453.997 C 109.484 2165.261 224.703 1877.41 459.084 1795.867 C 693.463 1714.32 733.441 1629.521 607.325 1515.131 C 481.209 1400.741 321.037 1165.934 586.985 929.969 C 656.884 867.95 729.379 845.644 802.585 845.644 C 896.381 845.644 991.348 882.256 1083.552 918.872 C 1175.751 955.484 1265.192 992.099 1347.913 992.099 C 1363.558 992.099 1378.952 990.791 1394.091 987.925 C 1572.92 954.066 1563.926 859.887 1681.597 859.887 C 1720.346 859.887 1772.81 870.094 1850.233 896.022 C 1895.743 911.26 1933.172 917.824 1964.681 917.824 C 2149.567 917.824 2130.484 691.895 2345.2 668.291 C 2354.958 667.219 2364.297 666.707 2373.246 666.707 C 2465.659 666.707 2517.089 721.196 2563.647 775.686 C 2603.641 822.499 2640.066 869.317 2695.753 881.576 C 2610.641 930.257 2553.259 1021.947 2553.259 1127.032 C 2553.259 1154.95 2557.307 1181.922 2564.862 1207.393 C 2423.342 1340.676 2323.719 1482.998 2254.496 1624.738 C 2252.172 1528.979 2248.71 1442.543 2243.733 1373.579 C 2240.96 1335.085 2215.132 1304.432 2182.274 1300.587 C 2060.856 1286.377 1691.64 1254.573 1472.927 1254.573 C 1436.502 1254.573 1404.27 1255.454 1378.032 1257.446 C 1344.888 1259.96 1318.916 1291.723 1318.092 1330.567 C 1313.06 1568.122 1296.733 2387.532 1304.526 2677.916 C 1304.823 2688.978 1307.738 2699.247 1312.574 2707.926 Z  M 2826.3 1965.507 C 2849.16 1925.378 2870.026 1885.485 2889.153 1845.87 C 2892.961 1872.111 2900.366 1897.173 2910.873 1920.559 C 2884.341 1935.042 2856.175 1950.033 2826.3 1965.507 Z  M 2993.888 1582.97 C 3026.76 1479.908 3048.736 1382.555 3063.216 1294.789 C 3097.887 1247.872 3118.379 1189.848 3118.379 1127.032 C 3118.379 1082.172 3107.916 1039.746 3089.313 1002.072 C 3089.598 973.821 3089.133 949.357 3088.369 929.221 C 3087.529 907.072 3063.725 886.056 3043.834 886.056 C 3040.086 886.056 3036.459 886.806 3033.176 888.438 C 3024.212 892.878 3015.323 897.353 3006.524 901.85 C 2962.709 868.584 2908.895 847.817 2850.374 844.845 C 2949.712 797.499 3041.75 772.638 3123.34 772.638 C 3246.153 772.638 3345.326 828.943 3410.262 949.67 C 3510.979 1136.915 3480.774 1383.018 3292.726 1550.944 C 3255.296 1532.64 3213.235 1522.367 3168.76 1522.367 C 3102.729 1522.367 3041.99 1545.012 2993.888 1582.97 Z " fill-rule="evenodd" fill="url(#_lgradient_573)"/><path d=" M 2845.069 1471.624 C 2671.209 1471.624 2530.273 1330.679 2530.273 1156.817 C 2530.273 982.953 2671.209 842.008 2845.069 842.008 C 3018.928 842.008 3159.886 982.953 3159.886 1156.817 C 3159.886 1330.679 3018.928 1471.624 2845.069 1471.624 Z " fill="rgb(226,232,253)"/><path d=" M 804.157 1363.266 C 781.684 1522.066 688.636 2451.538 1545.144 2695.514 C 1545.144 2695.514 1763.921 2099.381 826.009 1354.504 C 817.804 1347.988 805.626 1352.891 804.157 1363.266 Z " fill="rgb(145,179,250)"/><path d=" M 885.761 1503.72 C 897.613 1556.886 911.819 1609.634 927.022 1662.001 C 942.283 1714.371 958.893 1766.347 976.737 1817.887 C 1012.514 1920.926 1053.285 2022.273 1100.524 2120.531 C 1147.795 2218.715 1201.455 2314.006 1264.431 2402.821 C 1280.182 2425.006 1296.458 2446.817 1313.521 2467.997 C 1330.547 2489.193 1348.073 2509.984 1366.518 2529.951 C 1384.942 2549.902 1403.863 2569.419 1423.775 2587.872 C 1443.656 2606.354 1464.249 2624.042 1485.59 2640.771 L 1485.625 2640.786 C 1488.134 2642.765 1488.575 2646.392 1486.608 2648.895 C 1484.642 2651.399 1481.014 2651.848 1478.505 2649.885 L 1478.482 2649.855 C 1456.933 2632.796 1436.175 2614.778 1416.16 2595.981 C 1396.114 2577.214 1377.1 2557.412 1358.603 2537.161 C 1340.086 2516.924 1322.518 2495.864 1305.467 2474.413 C 1288.38 2452.977 1272.101 2430.927 1256.362 2408.517 C 1193.433 2318.803 1140.042 2222.823 1093.11 2124.069 C 1046.214 2025.241 1005.864 1923.447 970.54 1820.018 C 952.923 1768.282 936.548 1716.129 921.525 1663.588 C 906.555 1611.023 892.613 1558.203 880.974 1504.724 C 880.688 1503.403 881.524 1502.101 882.844 1501.813 C 884.16 1501.527 885.458 1502.359 885.75 1503.672 L 885.761 1503.72 Z " fill="rgb(189,208,251)"/><path d=" M 2162.233 2673.569 C 2162.233 2673.569 1788.595 1505.016 3033.176 888.438 C 3053.922 878.158 3087.38 902.89 3088.369 929.221 C 3097.618 1174.321 3063.396 2057.874 2162.233 2673.569 Z " fill="rgb(189,208,251)"/><path d=" M 2924.319 1208.45 C 2867.358 1314.393 2810.126 1420.176 2752.385 1525.695 L 2708.975 1604.78 L 2665.189 1683.654 L 2621.134 1762.381 C 2606.459 1788.625 2591.484 1814.705 2576.659 1840.869 C 2517.104 1945.378 2457.564 2049.914 2396.18 2153.374 C 2334.992 2256.94 2273.113 2360.145 2208.132 2461.417 C 2207.487 2462.421 2206.168 2462.706 2205.164 2462.061 C 2204.175 2461.432 2203.89 2460.143 2204.489 2459.153 L 2204.489 2459.138 L 2251.168 2381.985 L 2297.172 2304.413 C 2312.507 2278.57 2327.557 2252.533 2342.771 2226.615 L 2365.526 2187.686 L 2388.041 2148.623 L 2477.86 1992.206 C 2507.57 1939.942 2537.4 1887.731 2566.855 1835.316 L 2744.036 1521.06 C 2803.066 1416.288 2862.066 1311.48 2920.287 1206.25 C 2920.902 1205.137 2922.296 1204.731 2923.405 1205.344 C 2924.514 1205.953 2924.919 1207.341 2924.319 1208.45 Z " fill="rgb(145,179,250)"/><path d=" M 655.271 2245.862 C 741.642 2239.521 1245.909 2223.287 1349.406 2698.002 C 1349.406 2698.002 1020.769 2794.912 649.832 2257.419 C 646.586 2252.712 649.628 2246.282 655.271 2245.862 Z " fill="rgb(189,208,251)"/><path d=" M 729.37 2291.791 C 784.475 2308.31 838.421 2328.037 891.643 2349.697 C 944.807 2371.447 997.073 2395.491 1047.924 2422.353 C 1098.74 2449.245 1148.162 2479 1194.824 2512.877 C 1218.031 2529.966 1240.763 2547.774 1262.185 2567.171 C 1283.569 2586.597 1303.911 2607.239 1322.638 2629.394 C 1324.696 2631.822 1324.391 2635.464 1321.958 2637.518 C 1319.523 2639.587 1315.881 2639.272 1313.823 2636.844 L 1313.788 2636.799 L 1313.739 2636.739 C 1295.631 2614.898 1275.852 2594.437 1254.978 2575.1 C 1234.063 2555.778 1211.773 2537.97 1188.973 2520.837 C 1143.115 2486.87 1094.326 2456.83 1044.048 2429.593 C 993.733 2402.402 941.908 2377.938 889.133 2355.738 C 836.334 2333.673 782.62 2313.436 728.004 2296.498 L 727.944 2296.468 C 726.653 2296.078 725.932 2294.699 726.333 2293.41 C 726.73 2292.136 728.086 2291.416 729.37 2291.791 Z " fill="rgb(145,179,250)"/><path d=" M 2189.575 2727.383 C 2166.865 2730.98 2147.858 2710.234 2153.179 2687.869 C 2182.484 2564.487 2296.917 2223.137 2691.526 2032.811 C 3024.767 1872.09 3190.18 1753.31 3261.547 1694.193 C 3276.627 1681.692 3298.917 1695.692 3294.21 1714.701 C 3242.21 1924.398 3012.805 2597.105 2189.575 2727.383 Z " fill="rgb(145,179,250)"/><path d=" M 2178.527 2698.047 C 2177.268 2698.047 2175.994 2697.628 2174.929 2696.788 C 2172.441 2694.795 2172.036 2691.167 2174.015 2688.679 C 2174.899 2687.569 2263.295 2577.364 2406.403 2438.512 C 2538.494 2310.334 2745.64 2130.77 2982.225 2003.204 C 2985.029 2001.699 2988.536 2002.741 2990.035 2005.545 C 2991.549 2008.352 2990.5 2011.852 2987.697 2013.366 C 2752.34 2140.273 2546.124 2319.043 2414.573 2446.667 C 2271.944 2585.038 2183.908 2694.78 2183.039 2695.874 C 2181.9 2697.298 2180.221 2698.047 2178.527 2698.047 Z " fill="rgb(189,208,251)"/><path d=" M 2070.885 2619.725 C 2221.068 2552.945 2822.163 2298.387 3259.688 2297.952 C 3290.927 2297.922 3312.138 2336.116 3290.028 2359.276 C 3161.819 2493.735 2771.692 2929.087 2069.955 2650.979 C 2056.449 2645.628 2057.259 2625.796 2070.885 2619.725 Z " fill="rgb(189,208,251)"/><path d=" M 2087.853 2641.55 C 2084.705 2641.55 2082.127 2639.017 2082.082 2635.854 C 2082.052 2632.676 2084.6 2630.053 2087.793 2630.008 C 2422.593 2625.751 2674.543 2564.832 2826.96 2514.466 C 2991.849 2459.978 3078.58 2405.954 3079.435 2405.415 C 3082.133 2403.721 3085.686 2404.53 3087.395 2407.228 C 3089.088 2409.911 3088.279 2413.479 3085.581 2415.173 C 3084.711 2415.728 2996.796 2470.501 2830.573 2525.424 C 2677.391 2576.045 2424.211 2637.278 2087.928 2641.55 L 2087.853 2641.55 Z " fill="rgb(145,179,250)"/><linearGradient id="_lgradient_574" x1="0" y1="0" x2="1" y2="0" gradientTransform="matrix(17.989,-1594.925,1594.925,17.989,1774.729,2775.665)" gradientUnits="userSpaceOnUse"><stop offset="0%" stop-opacity="1" style="stop-color:rgb(9,0,93)"/><stop offset="100%" stop-opacity="1" style="stop-color:rgb(26,15,145)"/></linearGradient><path d=" M 1947.053 2745.55 C 1721.5 2745.55 1446.665 2737.965 1352.727 2734.368 C 1335.886 2733.723 1321.186 2723.365 1312.574 2707.926 C 1307.738 2699.247 1304.823 2688.978 1304.526 2677.916 C 1296.733 2387.532 1313.06 1568.122 1318.092 1330.567 C 1318.916 1291.723 1344.888 1259.96 1378.032 1257.446 C 1404.27 1255.454 1436.502 1254.573 1472.927 1254.573 C 1691.64 1254.573 2060.856 1286.377 2182.274 1300.587 C 2215.132 1304.432 2240.96 1335.085 2243.733 1373.579 C 2248.71 1442.543 2252.172 1528.979 2254.496 1624.738 C 2260.162 1858.674 2259.023 2148.068 2256.609 2372.796 C 2256.579 2376.859 2256.534 2380.861 2256.489 2384.863 C 2256.31 2401.382 2256.115 2417.556 2255.92 2433.296 C 2254.871 2519.128 2253.686 2592.518 2252.742 2645.508 C 2252.187 2677.106 2238.891 2705.033 2218.565 2722.526 C 2208.207 2731.445 2196.005 2737.666 2182.754 2740.259 C 2179.336 2740.933 2175.829 2741.353 2172.291 2741.533 C 2113.216 2744.426 2033.785 2745.55 1947.053 2745.55 Z  M 1497.242 1340.081 C 1470.512 1340.081 1447.134 1340.624 1428.25 1341.829 C 1399.89 1343.639 1377.335 1370.256 1376.122 1403.451 C 1369.123 1595.192 1347.042 2233.076 1354.05 2468.942 C 1355.073 2503.418 1378.302 2531.3 1407.74 2533.308 C 1493.339 2539.169 1724.768 2550.022 1915.949 2550.022 C 1995.47 2550.022 2068.021 2548.148 2120.246 2543.262 C 2152.25 2540.249 2177.373 2509.969 2179.097 2472.449 C 2188.121 2276.846 2213.978 1682.883 2207.263 1449.651 C 2206.183 1412.446 2181.555 1382.059 2149.866 1378.731 C 2035.119 1366.677 1684.34 1340.081 1497.242 1340.081 Z  M 1670.654 1284.876 C 1663.714 1284.876 1657.028 1284.995 1650.733 1285.258 C 1644.452 1285.521 1639.505 1291.607 1639.505 1298.955 C 1639.505 1306.243 1644.362 1312.255 1650.583 1312.634 C 1681.312 1314.517 1767.834 1319.843 1806.508 1322.469 C 1806.748 1322.484 1806.987 1322.493 1807.212 1322.493 C 1814.497 1322.493 1820.074 1314.697 1818.679 1306.195 L 1818.425 1304.696 C 1817.45 1298.71 1813.193 1294.204 1808.007 1293.648 C 1785.027 1291.184 1721.245 1284.876 1670.654 1284.876 Z " fill-rule="evenodd" fill="url(#_lgradient_574)"/><linearGradient id="_lgradient_575" x1="0" y1="0" x2="1" y2="0" gradientTransform="matrix(-1969.283,2519.202,-2519.202,-1969.283,2027.339,1619.971)" gradientUnits="userSpaceOnUse"><stop offset="0%" stop-opacity="1" style="stop-color:rgb(64,66,226)"/><stop offset="100%" stop-opacity="1" style="stop-color:rgb(79,82,255)"/></linearGradient><path d=" M 1915.949 2550.022 C 1724.768 2550.022 1493.339 2539.169 1407.74 2533.308 C 1378.302 2531.3 1355.073 2503.418 1354.05 2468.942 C 1347.042 2233.076 1369.123 1595.192 1376.122 1403.451 C 1377.335 1370.256 1399.89 1343.639 1428.25 1341.829 C 1447.134 1340.624 1470.512 1340.081 1497.242 1340.081 C 1684.34 1340.081 2035.119 1366.677 2149.866 1378.731 C 2181.555 1382.059 2206.183 1412.446 2207.263 1449.651 C 2213.978 1682.883 2188.121 2276.846 2179.097 2472.449 C 2177.373 2509.969 2152.25 2540.249 2120.246 2543.262 C 2068.021 2548.148 1995.47 2550.022 1915.949 2550.022 Z  M 1472.56 1709.933 C 1466.772 1709.933 1461.167 1712.129 1456.906 1716.119 C 1452.14 1720.581 1449.513 1726.862 1449.664 1733.389 C 1454.101 1925.937 1440.378 2185.797 1761.178 2385.628 C 1764.881 2387.921 1769.093 2389.091 1773.32 2389.091 C 1776.663 2389.091 1780.006 2388.371 1783.108 2386.887 C 1847.475 2356.398 2157.826 2183.684 2108.479 1707.014 C 2107.325 1695.832 2098.211 1687.123 2086.984 1686.505 C 2032.72 1683.522 1876.391 1668.925 1782.074 1598.439 C 1777.877 1595.305 1772.151 1592.803 1766.994 1592.803 C 1763.861 1592.803 1760.938 1593.734 1758.705 1596.014 C 1680.488 1676.043 1564.031 1710.756 1491.849 1710.756 C 1485.773 1710.756 1480.01 1710.51 1474.61 1710.024 C 1473.925 1709.963 1473.242 1709.933 1472.56 1709.933 Z " fill-rule="evenodd" fill="url(#_lgradient_575)"/><linearGradient id="_lgradient_576" x1="0" y1="0" x2="1" y2="0" gradientTransform="matrix(17.989,-1594.925,1594.925,17.989,1774.729,2775.665)" gradientUnits="userSpaceOnUse"><stop offset="0%" stop-opacity="1" style="stop-color:rgb(132,128,174)"/><stop offset="100%" stop-opacity="1" style="stop-color:rgb(141,135,200)"/></linearGradient><path d=" M 1807.212 1322.493 C 1806.987 1322.493 1806.748 1322.484 1806.508 1322.469 C 1767.834 1319.843 1681.312 1314.517 1650.583 1312.634 C 1644.362 1312.255 1639.505 1306.243 1639.505 1298.955 C 1639.505 1291.607 1644.452 1285.521 1650.733 1285.258 C 1657.028 1284.995 1663.714 1284.876 1670.654 1284.876 C 1721.245 1284.876 1785.027 1291.184 1808.007 1293.648 C 1813.193 1294.204 1817.45 1298.71 1818.425 1304.696 L 1818.679 1306.195 C 1820.074 1314.697 1814.497 1322.493 1807.212 1322.493 Z " fill="url(#_lgradient_576)"/><linearGradient id="_lgradient_577" x1="0" y1="0" x2="1" y2="0" gradientTransform="matrix(664.114,0,0,664.114,1449.658,1990.948)" gradientUnits="userSpaceOnUse"><stop offset="0%" stop-opacity="1" style="stop-color:rgb(254,112,98)"/><stop offset="100%" stop-opacity="1" style="stop-color:rgb(255,146,142)"/></linearGradient><path d=" M 1773.32 2389.091 C 1769.093 2389.091 1764.881 2387.921 1761.178 2385.628 C 1440.378 2185.797 1454.101 1925.937 1449.664 1733.389 C 1449.513 1726.862 1452.14 1720.581 1456.906 1716.119 C 1461.167 1712.129 1466.772 1709.933 1472.56 1709.933 C 1473.242 1709.933 1473.925 1709.963 1474.61 1710.024 C 1480.01 1710.51 1485.773 1710.756 1491.849 1710.756 C 1564.031 1710.756 1680.488 1676.043 1758.705 1596.014 C 1760.938 1593.734 1763.861 1592.803 1766.994 1592.803 C 1772.151 1592.803 1777.877 1595.305 1782.074 1598.439 C 1876.391 1668.925 2032.72 1683.522 2086.984 1686.505 C 2098.211 1687.123 2107.325 1695.832 2108.479 1707.014 C 2157.826 2183.684 1847.475 2356.398 1783.108 2386.887 C 1780.006 2388.371 1776.663 2389.091 1773.32 2389.091 Z  M 1771.191 1631.252 C 1768.673 1631.252 1766.17 1632.158 1764.191 1633.931 C 1680.907 1708.554 1567.404 1741.956 1491.784 1741.956 C 1488.926 1741.956 1486.25 1743.074 1484.255 1745.108 C 1482.273 1747.127 1481.209 1749.797 1481.261 1752.63 L 1481.48 1764.898 C 1483.101 1857.186 1484.938 1961.787 1522.539 2064.724 C 1564.676 2180.071 1645.216 2274.538 1768.748 2353.504 C 1770.472 2354.614 1772.451 2355.168 1774.429 2355.168 C 1776.078 2355.168 1777.712 2354.779 1779.211 2354.014 L 1779.211 2354.014 C 1811.439 2337.45 1893.899 2288.868 1963.422 2195.616 C 2056.464 2070.84 2095.333 1912.903 2078.979 1726.186 C 2078.514 1721.03 2074.452 1717.006 2069.296 1716.629 C 1999.443 1711.48 1868.581 1693.772 1776.993 1633.003 C 1775.224 1631.829 1773.2 1631.252 1771.191 1631.252 Z  M 1774.429 2346.249 C 1774.129 2346.249 1773.83 2346.159 1773.56 2345.995 C 1651.722 2268.122 1572.35 2175.11 1530.918 2061.666 C 1493.829 1960.134 1492.006 1856.327 1490.398 1764.742 L 1490.179 1752.463 C 1490.168 1751.93 1490.413 1751.567 1490.62 1751.356 C 1490.796 1751.177 1491.182 1750.875 1491.849 1750.875 C 1569.098 1750.875 1685.104 1716.767 1770.142 1640.574 C 1770.442 1640.305 1770.817 1640.167 1771.191 1640.167 C 1771.491 1640.167 1771.791 1640.257 1772.061 1640.436 C 1865.343 1702.328 1997.914 1720.312 2068.636 1725.521 C 2069.416 1725.581 2070.015 1726.186 2070.09 1726.966 C 2086.249 1911.434 2047.965 2067.317 1956.272 2190.294 C 1887.873 2282.033 1806.807 2329.805 1775.134 2346.084 C 1774.924 2346.189 1774.669 2346.249 1774.429 2346.249 Z " fill-rule="evenodd" fill="url(#_lgradient_577)"/><linearGradient id="_lgradient_578" x1="0" y1="0" x2="1" y2="0" gradientTransform="matrix(664.114,0,0,664.114,1449.658,1990.948)" gradientUnits="userSpaceOnUse"><stop offset="0%" stop-opacity="1" style="stop-color:rgb(255,196,190)"/><stop offset="100%" stop-opacity="1" style="stop-color:rgb(255,210,208)"/></linearGradient><path d=" M 1774.429 2355.168 C 1772.451 2355.168 1770.472 2354.614 1768.748 2353.504 C 1645.216 2274.538 1564.676 2180.071 1522.539 2064.724 C 1484.938 1961.787 1483.101 1857.186 1481.48 1764.898 L 1481.261 1752.63 C 1481.209 1749.797 1482.273 1747.127 1484.255 1745.108 C 1486.25 1743.074 1488.926 1741.956 1491.784 1741.956 C 1567.404 1741.956 1680.907 1708.554 1764.191 1633.931 C 1766.17 1632.158 1768.673 1631.252 1771.191 1631.252 C 1773.2 1631.252 1775.224 1631.829 1776.993 1633.003 C 1868.581 1693.772 1999.443 1711.48 2069.296 1716.629 C 2074.452 1717.006 2078.514 1721.03 2078.979 1726.186 C 2095.333 1912.903 2056.464 2070.84 1963.422 2195.616 C 1893.899 2288.868 1811.439 2337.45 1779.211 2354.014 L 1779.211 2354.014 C 1777.712 2354.779 1776.078 2355.168 1774.429 2355.168 Z  M 1771.191 1640.167 C 1770.817 1640.167 1770.442 1640.305 1770.142 1640.574 C 1685.104 1716.767 1569.098 1750.875 1491.849 1750.875 C 1491.182 1750.875 1490.796 1751.177 1490.62 1751.356 C 1490.413 1751.567 1490.168 1751.93 1490.179 1752.463 L 1490.398 1764.742 C 1492.006 1856.327 1493.829 1960.134 1530.918 2061.666 C 1572.35 2175.11 1651.722 2268.122 1773.56 2345.995 C 1773.83 2346.159 1774.129 2346.249 1774.429 2346.249 C 1774.669 2346.249 1774.924 2346.189 1775.134 2346.084 C 1806.807 2329.805 1887.873 2282.033 1956.272 2190.294 C 2047.965 2067.317 2086.249 1911.434 2070.09 1726.966 C 2070.015 1726.186 2069.416 1725.581 2068.636 1725.521 C 1997.914 1720.312 1865.343 1702.328 1772.061 1640.436 C 1771.791 1640.257 1771.491 1640.167 1771.191 1640.167 Z " fill-rule="evenodd" fill="url(#_lgradient_578)"/><linearGradient id="_lgradient_579" x1="0" y1="0" x2="1" y2="0" gradientTransform="matrix(11.992,431.709,-431.709,11.992,1782.704,1419.3)" gradientUnits="userSpaceOnUse"><stop offset="0%" stop-opacity="1" style="stop-color:rgb(9,0,93)"/><stop offset="100%" stop-opacity="1" style="stop-color:rgb(26,15,145)"/></linearGradient><path d=" M 1606.318 1898.543 L 1770.622 2228.953 L 1981.845 1759.605 L 1762.452 2002.51 L 1606.318 1898.543 Z " fill="url(#_lgradient_579)"/><path d=" M 1717.453 2745.475 C 1694.653 2751.996 1670.13 2748.428 1650.163 2735.672 C 1630.181 2722.901 1616.631 2702.155 1612.973 2678.725 L 1603.739 2615.993 C 1602.33 2606.399 1608.956 2597.51 1618.534 2596.086 C 1628.113 2594.662 1637.032 2601.303 1638.441 2610.881 L 1647.66 2673.479 C 1649.743 2686.805 1657.538 2698.752 1669.035 2706.097 C 1680.548 2713.457 1694.668 2715.511 1707.784 2711.748 C 1740.717 2702.304 1759.844 2667.828 1750.4 2634.895 L 1189.201 676.727 C 1186.533 667.416 1191.919 657.702 1201.229 655.034 C 1210.541 652.365 1220.254 657.75 1222.924 667.062 L 1784.113 2625.226 C 1798.893 2676.762 1768.988 2730.695 1717.453 2745.475 Z " fill="rgb(125,151,244)"/><linearGradient id="_lgradient_580" x1="0" y1="0" x2="1" y2="0" gradientTransform="matrix(-1303.86,926.191,-926.191,-1303.86,1738.004,781.93)" gradientUnits="userSpaceOnUse"><stop offset="0%" stop-opacity="1" style="stop-color:rgb(225,216,252)"/><stop offset="100%" stop-opacity="1" style="stop-color:rgb(255,146,142)"/></linearGradient><path d=" M 466.678 1736.795 C 640.422 1667.717 810.429 1655.199 977.404 1688.494 L 1259.808 843.512 C 1259.808 843.512 569.367 988.931 466.678 1736.795 Z " fill="url(#_lgradient_580)"/><linearGradient id="_lgradient_581" x1="0" y1="0" x2="1.9081588023819647" y2="1.0792092256535815" gradientTransform="matrix(1145.879,0,0,617.369,1255.593,794.479)" gradientUnits="userSpaceOnUse"><stop offset="0%" stop-opacity="1" style="stop-color:rgb(254,112,98)"/><stop offset="100%" stop-opacity="1" style="stop-color:rgb(255,255,255)"/></linearGradient><path d=" M 2401.472 1182.293 C 2217.516 1215.732 2066.687 1295.162 1942.691 1411.848 L 1255.593 844.72 C 1255.593 844.72 1918.242 602.35 2401.472 1182.293 Z " fill="url(#_lgradient_581)"/><linearGradient id="_lgradient_582" x1="0" y1="0" x2="1" y2="0" gradientTransform="matrix(-485.577,737.356,-737.356,-485.577,1747.118,844.654)" gradientUnits="userSpaceOnUse"><stop offset="0%" stop-opacity="1" style="stop-color:rgb(225,216,252)"/><stop offset="100%" stop-opacity="1" style="stop-color:rgb(255,146,142)"/></linearGradient><path d=" M 1257.096 842.009 C 1257.096 842.009 875.334 974.225 979.512 1687.89 L 1034.957 1654.307 C 1288.778 1500.558 1579.051 1417.37 1875.776 1413.334 L 1940.592 1412.452 C 1650.943 751.943 1257.096 842.009 1257.096 842.009 Z " fill="url(#_lgradient_582)"/><linearGradient id="_lgradient_583" x1="0" y1="0" x2="1" y2="0" gradientTransform="matrix(75.875,-21.745,21.745,75.875,1219.158,852.881)" gradientUnits="userSpaceOnUse"><stop offset="0%" stop-opacity="1" style="stop-color:rgb(225,71,61)"/><stop offset="100%" stop-opacity="1" style="stop-color:rgb(233,96,90)"/></linearGradient><path d=" M 1294.568 840.393 L 1224.457 860.485 C 1222.865 860.942 1221.206 860.02 1220.749 858.428 L 1217.57 847.333 C 1217.114 845.741 1218.033 844.08 1219.625 843.624 L 1289.735 823.532 C 1291.327 823.075 1292.987 823.995 1293.444 825.587 L 1296.625 836.684 C 1297.08 838.276 1296.159 839.935 1294.568 840.393 Z " fill="url(#_lgradient_583)"/><linearGradient id="_lgradient_584" x1="0" y1="0" x2="1" y2="0" gradientTransform="matrix(19.853,-5.69,5.69,19.853,462.777,1744.753)" gradientUnits="userSpaceOnUse"><stop offset="0%" stop-opacity="1" style="stop-color:rgb(225,71,61)"/><stop offset="100%" stop-opacity="1" style="stop-color:rgb(233,96,90)"/></linearGradient><path d=" M 477.416 1759.35 L 468.76 1759.539 C 467.518 1759.567 466.49 1758.581 466.463 1757.34 L 465.795 1726.765 C 465.766 1725.524 466.751 1724.495 467.994 1724.468 L 476.649 1724.279 C 477.89 1724.251 478.918 1725.236 478.945 1726.477 L 479.614 1757.052 C 479.642 1758.295 478.657 1759.321 477.416 1759.35 Z " fill="url(#_lgradient_584)"/><linearGradient id="_lgradient_585" x1="0" y1="0" x2="1" y2="0" gradientTransform="matrix(19.853,-5.69,5.69,19.853,968.686,1695.554)" gradientUnits="userSpaceOnUse"><stop offset="0%" stop-opacity="1" style="stop-color:rgb(225,71,61)"/><stop offset="100%" stop-opacity="1" style="stop-color:rgb(233,96,90)"/></linearGradient><path d=" M 983.324 1710.15 L 974.669 1710.34 C 973.428 1710.367 972.399 1709.383 972.371 1708.141 L 971.702 1677.565 C 971.675 1676.324 972.659 1675.295 973.901 1675.269 L 982.556 1675.08 C 983.799 1675.053 984.827 1676.036 984.854 1677.279 L 985.523 1707.854 C 985.55 1709.095 984.565 1710.123 983.324 1710.15 Z " fill="url(#_lgradient_585)"/><linearGradient id="_lgradient_586" x1="0" y1="0" x2="1" y2="0" gradientTransform="matrix(19.853,-5.69,5.69,19.853,2389.15,1192.669)" gradientUnits="userSpaceOnUse"><stop offset="0%" stop-opacity="1" style="stop-color:rgb(225,71,61)"/><stop offset="100%" stop-opacity="1" style="stop-color:rgb(233,96,90)"/></linearGradient><path d=" M 2404.32 1207.113 L 2411.755 1202.688 C 2412.834 1202.054 2413.179 1200.673 2412.549 1199.606 L 2396.915 1173.318 C 2396.285 1172.251 2394.906 1171.9 2393.827 1172.534 L 2386.392 1176.959 C 2385.328 1177.593 2384.968 1178.972 2385.612 1180.041 L 2401.232 1206.329 C 2401.876 1207.396 2403.256 1207.747 2404.32 1207.113 Z " fill="url(#_lgradient_586)"/><linearGradient id="_lgradient_587" x1="0" y1="0" x2="1" y2="0" gradientTransform="matrix(19.853,-5.69,5.69,19.853,1933.982,1418.908)" gradientUnits="userSpaceOnUse"><stop offset="0%" stop-opacity="1" style="stop-color:rgb(225,71,61)"/><stop offset="100%" stop-opacity="1" style="stop-color:rgb(233,96,90)"/></linearGradient><path d=" M 1949.152 1433.353 L 1956.587 1428.928 C 1957.651 1428.293 1958.011 1426.913 1957.366 1425.846 L 1941.747 1399.558 C 1941.117 1398.491 1939.738 1398.14 1938.659 1398.774 L 1931.224 1403.199 C 1930.159 1403.833 1929.8 1405.213 1930.444 1406.279 L 1946.064 1432.569 C 1946.693 1433.634 1948.087 1433.987 1949.152 1433.353 Z " fill="url(#_lgradient_587)"/><linearGradient id="_lgradient_588" x1="0" y1="0" x2="1" y2="0" gradientTransform="matrix(-47.326,118.716,118.716,47.326,1114.045,1968.185)" gradientUnits="userSpaceOnUse"><stop offset="0%" stop-opacity="1" style="stop-color:rgb(9,0,93)"/><stop offset="100%" stop-opacity="1" style="stop-color:rgb(26,15,145)"/></linearGradient><path d=" M 1085.984 2032.046 C 1085.984 2032.046 1070.028 2039.811 1067.095 2048.715 C 1064.742 2055.865 1047.1 2056.794 1045.357 2070.855 C 1044.457 2078.125 1039.082 2083.941 1031.848 2085.05 C 1013.83 2087.809 986.063 2097.162 981.62 2128.446 C 978.229 2152.325 990.401 2161.379 1003.177 2164.512 C 1012.559 2166.82 1018.794 2175.949 1016.897 2185.423 C 1015.075 2194.507 1017.79 2205.015 1033.531 2213.319 C 1068.805 2231.921 1104.032 2169.219 1104.032 2169.219 L 1111.251 2059.732 L 1085.984 2032.046 Z " fill="url(#_lgradient_588)"/><linearGradient id="_lgradient_589" x1="0" y1="0" x2="1" y2="0" gradientTransform="matrix(-87.433,198.929,198.929,87.433,1211.685,2036.768)" gradientUnits="userSpaceOnUse"><stop offset="0%" stop-opacity="1" style="stop-color:rgb(162,43,37)"/><stop offset="100%" stop-opacity="1" style="stop-color:rgb(192,66,60)"/></linearGradient><path d=" M 1252.025 1974.302 C 1252.025 1974.302 1206.636 2098.032 1129.299 2136.706 C 1129.299 2136.706 1155.039 2178.707 1168.472 2181.256 C 1168.472 2181.256 1251.09 2075.517 1259.511 1988.881 L 1252.025 1974.302 Z " fill="url(#_lgradient_589)"/><linearGradient id="_lgradient_590" x1="0" y1="0" x2="1" y2="0" gradientTransform="matrix(29.98,284.808,284.808,-29.98,959.015,3089.239)" gradientUnits="userSpaceOnUse"><stop offset="0%" stop-opacity="1" style="stop-color:rgb(9,0,93)"/><stop offset="100%" stop-opacity="1" style="stop-color:rgb(26,15,145)"/></linearGradient><path d=" M 940.994 2718.583 L 938.711 2737.351 C 938.278 2740.918 935.476 2743.722 931.913 2744.141 C 925.898 2744.816 916.244 2745.52 906.799 2744.531 C 902.654 2744.096 899.962 2739.884 901.226 2735.912 C 903.528 2728.672 907.74 2717.804 913.813 2711.403 L 934.628 2711.403 C 938.477 2711.403 941.459 2714.761 940.994 2718.583 Z " fill="url(#_lgradient_590)"/><linearGradient id="_lgradient_591" x1="0" y1="0" x2="1" y2="0" gradientTransform="matrix(-57.751,-674.959,-674.959,57.751,1110.614,2886.47)" gradientUnits="userSpaceOnUse"><stop offset="0%" stop-opacity="1" style="stop-color:rgb(162,43,37)"/><stop offset="100%" stop-opacity="1" style="stop-color:rgb(192,66,60)"/></linearGradient><path d=" M 1104.032 2498.772 L 1107.544 2519.443 C 1107.544 2519.443 1095.78 2638.612 1093.686 2686.28 C 1093.357 2693.76 1095.292 2701.15 1099.214 2707.521 L 1119.674 2740.739 L 1067.678 2710.054 L 1066.642 2703.713 L 1075.154 2692.006 L 1064.006 2558.506 C 1063.35 2550.667 1064.969 2542.797 1068.667 2535.842 L 1079.421 2515.65 L 1104.032 2498.772 Z " fill="url(#_lgradient_591)"/><linearGradient id="_lgradient_592" x1="0" y1="0" x2="1" y2="0" gradientTransform="matrix(29.98,284.808,284.808,-29.98,1131.238,3071.101)" gradientUnits="userSpaceOnUse"><stop offset="0%" stop-opacity="1" style="stop-color:rgb(9,0,93)"/><stop offset="100%" stop-opacity="1" style="stop-color:rgb(26,15,145)"/></linearGradient><path d=" M 1123.097 2745.55 L 1106.505 2745.55 C 1103.399 2745.55 1100.47 2744.126 1098.575 2741.668 C 1093.402 2734.937 1082.684 2721.836 1077.561 2721.492 C 1070.663 2721.027 1071.544 2745.55 1071.544 2745.55 L 1067.678 2745.55 L 1062.779 2715.076 C 1061.547 2707.416 1065.361 2699.816 1072.247 2696.219 C 1072.247 2696.219 1073.822 2707.881 1082.373 2713.037 C 1090.923 2718.194 1117.169 2736.676 1117.169 2736.676 C 1117.169 2736.676 1120.384 2736.212 1123.913 2736.856 C 1129.147 2737.801 1128.417 2745.55 1123.097 2745.55 Z " fill="url(#_lgradient_592)"/><linearGradient id="_lgradient_593" x1="0" y1="0" x2="1" y2="0" gradientTransform="matrix(-57.766,-675.136,-675.136,57.766,994.445,2896.514)" gradientUnits="userSpaceOnUse"><stop offset="0%" stop-opacity="1" style="stop-color:rgb(162,43,37)"/><stop offset="100%" stop-opacity="1" style="stop-color:rgb(192,66,60)"/></linearGradient><path d=" M 1032.815 2508.59 C 1032.815 2508.59 963.888 2639.332 952.932 2669.192 C 941.976 2699.037 938.137 2723.95 937.99 2726.303 C 937.761 2729.991 933.177 2733.513 920.543 2733.513 C 914.024 2733.513 910.83 2730.905 909.266 2728.372 C 907.932 2726.213 907.863 2723.515 908.987 2721.237 C 912.975 2713.172 925.628 2687.389 930.314 2675.697 C 935.909 2661.727 947.945 2598.439 954.545 2576.449 C 961.145 2554.444 968.605 2530.58 997.348 2508.59 C 997.348 2508.59 1017.08 2489.268 1032.815 2508.59 Z " fill="url(#_lgradient_593)"/><linearGradient id="_lgradient_594" x1="0" y1="0" x2="1" y2="0" gradientTransform="matrix(-28.877,267.911,267.911,28.877,1109.187,2205.809)" gradientUnits="userSpaceOnUse"><stop offset="0%" stop-opacity="1" style="stop-color:rgb(254,112,98)"/><stop offset="100%" stop-opacity="1" style="stop-color:rgb(255,146,142)"/></linearGradient><path d=" M 1076.357 2294.354 C 1094.138 2219.015 1049.095 2176.399 1049.095 2176.399 C 1077.516 2149.117 1129.299 2136.706 1129.299 2136.706 C 1129.299 2136.706 1178.71 2172.831 1172.847 2201.102 C 1169.413 2217.681 1138.116 2300.365 1138.116 2300.365 C 1138.116 2300.365 1109.178 2314.066 1076.357 2294.354 Z " fill="url(#_lgradient_594)"/><linearGradient id="_lgradient_595" x1="0" y1="0" x2="1" y2="0" gradientTransform="matrix(-95.935,371.749,-371.749,-95.935,1258.213,1704.734)" gradientUnits="userSpaceOnUse"><stop offset="0%" stop-opacity="1" style="stop-color:rgb(9,0,93)"/><stop offset="100%" stop-opacity="1" style="stop-color:rgb(26,15,145)"/></linearGradient><path d=" M 1036.937 2331.649 C 1044.172 2309.854 1076.357 2294.354 1076.357 2294.354 C 1109.178 2314.066 1138.116 2300.365 1138.116 2300.365 C 1138.116 2300.365 1144.606 2325.174 1140.127 2348.228 C 1135.647 2371.283 1107.544 2519.443 1107.544 2519.443 C 1063.264 2528.407 995.16 2510.419 995.16 2510.419 C 1023.365 2460.337 1029.701 2353.445 1036.937 2331.649 Z " fill="url(#_lgradient_595)"/><linearGradient id="_lgradient_596" x1="0" y1="0" x2="1" y2="0" gradientTransform="matrix(-10.848,-79.363,-79.363,10.848,1116.947,2221.159)" gradientUnits="userSpaceOnUse"><stop offset="0%" stop-opacity="1" style="stop-color:rgb(162,43,37)"/><stop offset="100%" stop-opacity="1" style="stop-color:rgb(192,66,60)"/></linearGradient><path d=" M 1096.995 2086.924 L 1082.541 2151.845 C 1081.155 2157.572 1086.369 2156.627 1092.152 2155.548 C 1101.621 2153.764 1113.826 2150.077 1117.906 2142.717 C 1118.321 2141.967 1118.528 2141.113 1118.647 2140.258 L 1124.857 2095.244 C 1125.349 2091.661 1123.418 2088.198 1120.122 2086.744 L 1108.137 2081.423 C 1103.523 2079.384 1098.182 2082.007 1096.995 2086.924 Z " fill="url(#_lgradient_596)"/><linearGradient id="_lgradient_597" x1="0" y1="0" x2="1" y2="0" gradientTransform="matrix(-72.064,0,0,72.064,1072.236,2259.833)" gradientUnits="userSpaceOnUse"><stop offset="0%" stop-opacity="1" style="stop-color:rgb(162,43,37)"/><stop offset="100%" stop-opacity="1" style="stop-color:rgb(192,66,60)"/></linearGradient><path d=" M 1049.095 2176.399 C 1049.095 2176.399 948.204 2248.59 1036.192 2324.439 C 1036.192 2324.439 1039.548 2328.232 1046.147 2330.195 C 1049.48 2331.2 1059.336 2338.649 1064.334 2342.547 C 1065.941 2343.791 1068.261 2343.371 1069.342 2341.647 C 1070.187 2340.283 1070.288 2338.605 1069.606 2337.151 L 1057.115 2310.738 C 1053.646 2307.515 1048.338 2307.276 1044.603 2310.199 C 1042.219 2312.072 1038.728 2311.293 1037.395 2308.565 C 1030.593 2294.714 1017.75 2253.972 1070.318 2207.938 C 1072.293 2206.199 1072.794 2203.336 1071.581 2201.012 C 1067.888 2193.922 1059.441 2179.832 1049.095 2176.399 Z " fill="url(#_lgradient_597)"/><linearGradient id="_lgradient_598" x1="0" y1="0" x2="1" y2="0" gradientTransform="matrix(-94.652,-168.447,-168.447,94.652,1144.329,2118.838)" gradientUnits="userSpaceOnUse"><stop offset="0%" stop-opacity="1" style="stop-color:rgb(162,43,37)"/><stop offset="100%" stop-opacity="1" style="stop-color:rgb(192,66,60)"/></linearGradient><path d=" M 1113.956 2025.091 C 1113.956 2025.091 1131.076 2032.316 1142.717 2057.064 C 1154.359 2081.798 1145.664 2093.22 1134.746 2094.794 C 1123.827 2096.368 1107.497 2096.128 1090.224 2080.134 C 1072.951 2064.154 1091.701 2016.524 1113.956 2025.091 Z " fill="url(#_lgradient_598)"/><linearGradient id="_lgradient_599" x1="0" y1="0" x2="1" y2="0" gradientTransform="matrix(-47.326,118.716,118.716,47.326,1123.974,1972.142)" gradientUnits="userSpaceOnUse"><stop offset="0%" stop-opacity="1" style="stop-color:rgb(9,0,93)"/><stop offset="100%" stop-opacity="1" style="stop-color:rgb(26,15,145)"/></linearGradient><path d=" M 1101.836 2066.928 C 1101.836 2066.928 1088.919 2030.742 1121.008 2030.307 L 1128.558 2035.584 C 1128.558 2035.584 1140.333 2015.521 1121.008 2005.941 C 1101.683 1996.361 1079.066 2004.276 1070.841 2030.307 C 1062.617 2056.345 1061.214 2073.778 1074.896 2086.235 C 1088.578 2098.691 1094.216 2084.571 1094.216 2084.571 C 1094.216 2084.571 1086.766 2072.909 1089.799 2066.673 C 1092.831 2060.452 1099.827 2067.962 1099.827 2067.962 L 1101.836 2066.928 Z " fill="url(#_lgradient_599)"/><linearGradient id="_lgradient_600" x1="0" y1="0" x2="1" y2="0" gradientTransform="matrix(-94.651,-168.447,-168.447,94.651,1124.181,2130.155)" gradientUnits="userSpaceOnUse"><stop offset="0%" stop-opacity="1" style="stop-color:rgb(162,43,37)"/><stop offset="100%" stop-opacity="1" style="stop-color:rgb(192,66,60)"/></linearGradient><path d=" M 1098.236 2070.96 C 1098.236 2070.96 1091.705 2052.312 1082.993 2059.747 C 1074.281 2067.167 1090.074 2076.971 1096.256 2080.134 L 1098.236 2070.96 Z " fill="url(#_lgradient_600)"/><linearGradient id="_lgradient_601" x1="0" y1="0" x2="1" y2="0" gradientTransform="matrix(-87.433,198.929,198.929,87.433,1228.962,2044.368)" gradientUnits="userSpaceOnUse"><stop offset="0%" stop-opacity="1" style="stop-color:rgb(162,43,37)"/><stop offset="100%" stop-opacity="1" style="stop-color:rgb(192,66,60)"/></linearGradient><path d=" M 1256.381 1996.823 C 1257.074 1999.025 1249.054 2002.377 1244.333 1993.372 C 1244.168 1989.057 1241.543 1970.571 1244.123 1967.056 C 1257.855 1948.332 1284.48 1924.862 1284.48 1924.862 C 1288.98 1929.302 1285.273 1933.664 1285.273 1933.664 L 1272.358 1947.121 C 1275.059 1952.003 1278.354 1956.124 1279.898 1962.028 C 1281.068 1966.5 1280.353 1971.28 1278.094 1975.35 C 1275.826 1979.433 1272.734 1984.742 1269.809 1988.899 C 1264.274 1996.763 1256.381 1996.823 1256.381 1996.823 Z " fill="url(#_lgradient_601)"/><linearGradient id="_lgradient_602" x1="0" y1="0" x2="1" y2="0" gradientTransform="matrix(-20.867,0,0,20.867,1270.755,1970.893)" gradientUnits="userSpaceOnUse"><stop offset="0%" stop-opacity="1" style="stop-color:rgb(162,43,37)"/><stop offset="100%" stop-opacity="1" style="stop-color:rgb(192,66,60)"/></linearGradient><path d=" M 1263.155 1987.658 L 1260.315 1987.151 C 1260.682 1985.105 1263.969 1967.045 1266.658 1962.671 C 1267.651 1961.057 1268.042 1959.735 1267.793 1958.844 C 1267.667 1958.398 1267.358 1957.996 1266.85 1957.621 L 1256.158 1966.684 L 1252.593 1976.266 L 1249.888 1975.257 L 1253.718 1964.971 L 1266.509 1954.129 L 1267.364 1954.565 C 1269.112 1955.455 1270.16 1956.603 1270.572 1958.062 C 1271.058 1959.796 1270.581 1961.797 1269.115 1964.182 C 1267.083 1967.491 1264.124 1982.25 1263.155 1987.658 Z " fill="url(#_lgradient_602)"/></g></g></g></svg>