<?xml version="1.0" encoding="UTF-8" standalone="no"?><!-- Generator: Gravit.io --><svg xmlns="http://www.w3.org/2000/svg" xmlns:xlink="http://www.w3.org/1999/xlink" style="isolation:isolate" viewBox="0 0 3710 3710" width="3710pt" height="3710pt"><defs><clipPath id="_clipPath_MdNBCOE974PEuM93VTBUt8LSsaKlorvL"><rect width="3710" height="3710"/></clipPath></defs><g clip-path="url(#_clipPath_MdNBCOE974PEuM93VTBUt8LSsaKlorvL)"><g><clipPath id="_clipPath_OYPL5BRhz9gnk6p9UPt0yxyR97l21v3p"><path d=" M 0 0 L 0 3710 L 3710 3710 L 3710 0 L 0 0 Z " fill="rgb(255,255,255)"/></clipPath><g clip-path="url(#_clipPath_OYPL5BRhz9gnk6p9UPt0yxyR97l21v3p)"><linearGradient id="_lgradient_790" x1="0" y1="0" x2="1" y2="0" gradientTransform="matrix(-2491.47,-3094.25,3094.25,-2491.47,3596.44,4081.41)" gradientUnits="userSpaceOnUse"><stop offset="0%" stop-opacity="1" style="stop-color:rgb(218,227,254)"/><stop offset="100%" stop-opacity="1" style="stop-color:rgb(233,239,253)"/></linearGradient><path d=" M 1882.06 3255 C 1775.55 3255 1684.91 3245.62 1619.51 3236.06 L 2139.21 3236.06 C 2047.46 3249.91 1960.44 3255 1882.06 3255 Z  M 2373.89 3181.85 L 2359.39 3131.21 C 2355.59 3117.93 2340.48 3108.57 2323.16 3108.57 C 2322.66 3108.57 2322.16 3108.57 2321.66 3108.59 L 1661.64 3129.18 L 1647.75 2803.19 C 2125.71 2811.1 2640.94 2817.87 2949.3 2818.01 C 2936.89 2832.96 2924.15 2847.33 2911.02 2861.15 C 2853.79 2921.4 2799.64 2960.25 2756.86 2990.95 C 2632.03 3080.51 2501.5 3141.37 2373.89 3181.85 Z  M 3097.26 1245.98 C 3095.32 1245.84 3093.38 1245.73 3091.42 1245.67 C 2750.52 1234.77 1370.03 1202.74 764.464 1202.74 C 722.244 1202.74 683.846 1202.89 649.773 1203.22 C 664.671 1176.16 680.31 1149.69 696.629 1123.96 C 752.651 1035.63 1048.58 545.37 1650.04 466.748 C 1709.74 458.945 1771.11 455 1833.27 455 C 2150.13 455 2488.74 557.352 2745.62 772.566 C 2902.02 903.602 3017.79 1067.02 3097.26 1245.98 Z " fill-rule="evenodd" fill="url(#_lgradient_790)"/><path d=" M 588.715 1046.15 C 587.13 1045.4 586.035 1043.79 586.049 1041.96 C 586.091 1035.91 586.262 1029.76 586.557 1023.67 C 586.678 1021.18 588.832 1019.29 591.369 1019.45 C 597.521 1019.81 595.358 1025.81 595.245 1042.18 C 595.229 1044.68 593.155 1046.66 590.615 1046.6 C 589.937 1046.58 589.293 1046.43 588.715 1046.15 Z " fill="rgb(145,179,250)"/><path d=" M 1267.17 675.81 C 1237.29 658.232 1231.1 659.284 1234.13 653.121 C 1236.05 649.212 1240.82 651.122 1240.27 651.1 C 1250.96 656.337 1261.56 662.041 1271.78 668.044 C 1273.97 669.338 1274.72 672.124 1273.45 674.266 C 1272.23 676.313 1269.51 677.147 1267.17 675.81 Z  M 1146.84 621.593 C 1147.46 619.176 1149.95 617.741 1152.42 618.39 C 1163.88 621.405 1175.38 624.903 1186.61 628.789 C 1192.38 630.788 1189.47 639.332 1183.71 637.336 C 1172.7 633.529 1161.42 630.099 1150.19 627.144 C 1147.7 626.485 1146.24 623.986 1146.84 621.593 Z  M 1341.21 730.076 C 1315.44 706.841 1309.23 706.676 1313.47 701.292 C 1315.01 699.329 1317.89 699.007 1319.91 700.555 C 1329.31 707.794 1338.54 715.493 1347.35 723.438 C 1351.88 727.512 1345.75 734.161 1341.21 730.076 Z  M 1055.21 608.074 C 1055.31 605.574 1057.45 603.663 1059.99 603.803 C 1071.79 604.454 1083.74 605.58 1095.5 607.145 C 1101.55 607.968 1100.45 616.928 1094.42 616.126 C 1082.9 614.592 1071.2 613.492 1059.63 612.853 C 1057.1 612.715 1055.12 610.578 1055.21 608.074 Z  M 965.662 616.695 C 964.331 616.065 963.319 614.826 963.056 613.292 C 962.632 610.816 964.32 608.508 966.823 608.133 C 978.479 606.393 990.359 605.087 1002.14 604.253 C 1004.66 604.069 1006.9 605.949 1007.13 608.45 C 1007.35 610.944 1005.49 613.115 1002.96 613.294 C 991.418 614.112 979.777 615.392 968.357 617.098 C 967.407 617.24 966.475 617.081 965.662 616.695 Z  M 876.596 639.417 C 875.555 638.924 874.695 638.055 874.246 636.912 C 873.323 634.564 874.492 631.956 876.859 631.088 C 887.891 627.041 899.215 623.378 910.52 620.199 C 912.952 619.516 915.516 620.912 916.255 623.322 C 916.989 625.731 915.617 628.236 913.187 628.92 C 902.108 632.034 891.011 635.625 880.199 639.591 C 878.985 640.036 877.692 639.937 876.596 639.417 Z  M 792.416 677.864 C 791.032 675.741 791.638 672.946 793.769 671.62 C 803.697 665.442 813.998 659.581 824.386 654.197 C 829.733 651.441 834.124 659.464 828.778 662.238 C 818.598 667.514 808.504 673.256 798.776 679.309 C 796.648 680.633 793.799 679.987 792.416 677.864 Z  M 721.001 734.499 C 719.213 732.69 719.226 729.821 721.031 728.092 C 729.431 720.034 738.273 712.206 747.311 704.824 C 751.958 701.03 757.896 708.051 753.254 711.845 C 744.399 719.078 735.734 726.748 727.502 734.641 C 725.699 736.374 722.783 736.309 721.001 734.499 Z  M 661.814 798.237 C 668.328 788.627 675.316 779.157 682.59 770.086 C 686.343 765.412 693.575 771.13 689.845 775.782 C 682.718 784.67 675.869 793.95 669.489 803.362 C 666.133 808.316 658.466 803.174 661.814 798.237 Z  M 618.627 879.06 C 623.031 868.246 627.948 857.406 633.079 847.221 C 635.829 841.742 643.976 846.115 641.331 851.361 C 636.225 861.52 631.481 871.979 627.171 882.563 C 626.231 884.873 623.556 885.958 621.197 884.991 C 618.812 884.012 617.697 881.345 618.627 879.06 Z  M 593.014 967.11 C 595.079 955.667 597.635 944.168 600.609 932.935 C 601.248 930.523 603.757 929.114 606.215 929.786 C 612.905 931.659 608.16 935.128 602.068 968.851 C 601.625 971.308 599.239 972.909 596.738 972.428 C 594.203 971.938 592.574 969.536 593.014 967.11 Z " fill="rgb(145,179,250)"/><path d=" M 1392.7 784.89 C 1383.08 772.772 1376.85 768.424 1381.58 764.486 C 1383.5 762.888 1386.41 763.138 1388.07 765.075 C 1398.52 777.206 1403.86 782.139 1399.16 785.733 C 1397.75 786.812 1394.27 786.87 1392.7 784.89 Z " fill="rgb(145,179,250)"/><path d=" M 1488.6 1123.69 C 1486.82 1122.85 1485.7 1120.94 1485.97 1118.93 C 1486.78 1113.03 1487.46 1107.05 1488.02 1101.15 C 1488.25 1098.66 1490.49 1096.87 1493.02 1097.14 C 1495.54 1097.42 1497.41 1099.65 1497.18 1102.14 C 1496.61 1108.17 1495.91 1114.27 1495.09 1120.29 C 1494.75 1122.77 1492.44 1124.47 1489.92 1124.09 C 1489.45 1124.03 1489.01 1123.89 1488.6 1123.69 Z " fill="rgb(145,179,250)"/><path d=" M 1464.59 1218.43 C 1462.44 1217.41 1461.38 1214.93 1462.22 1212.72 C 1466.55 1201.2 1470.43 1189.4 1473.74 1177.66 C 1474.42 1175.26 1476.95 1173.89 1479.4 1174.6 C 1481.85 1175.33 1483.28 1177.83 1482.61 1180.23 C 1479.23 1192.22 1475.27 1204.25 1470.84 1216 C 1469.97 1218.33 1467.32 1219.49 1464.94 1218.58 C 1464.82 1218.54 1464.71 1218.49 1464.59 1218.43 Z  M 1419.67 1305.1 C 1413.67 1301.18 1419.77 1299.42 1437.3 1267.2 C 1440.15 1261.98 1448.29 1266.34 1445.43 1271.59 C 1439.44 1282.59 1432.92 1293.44 1426.03 1303.85 C 1424.63 1305.96 1421.75 1306.47 1419.67 1305.1 Z  M 1356.01 1379.39 C 1351.01 1374.28 1357.42 1373.86 1381.76 1346.39 C 1385.73 1341.92 1392.71 1347.94 1388.74 1352.42 C 1380.43 1361.79 1371.61 1370.93 1362.51 1379.56 C 1360.71 1381.27 1357.8 1381.22 1356.01 1379.39 Z  M 1279.07 1439.52 C 1278.29 1439.14 1277.59 1438.55 1277.1 1437.76 C 1275.76 1435.61 1276.43 1432.83 1278.59 1431.55 C 1289.19 1425.25 1299.65 1418.43 1309.67 1411.27 C 1311.71 1409.81 1314.59 1410.28 1316.1 1412.32 C 1317.62 1414.35 1317.19 1417.18 1315.15 1418.64 C 1304.93 1425.95 1294.26 1432.91 1283.43 1439.34 C 1282.07 1440.15 1280.43 1440.16 1279.07 1439.52 Z  M 1189.3 1480.2 C 1188.21 1479.68 1187.32 1478.75 1186.89 1477.54 C 1186.06 1475.16 1187.32 1472.6 1189.72 1471.82 C 1201.5 1467.97 1213.25 1463.58 1224.65 1458.77 C 1226.97 1457.8 1229.69 1458.87 1230.73 1461.17 C 1231.76 1463.48 1230.72 1466.14 1228.4 1467.12 C 1216.76 1472.02 1204.77 1476.5 1192.75 1480.43 C 1191.58 1480.81 1190.35 1480.69 1189.3 1480.2 Z  M 1092.38 1500.46 C 1090.97 1499.79 1089.93 1498.45 1089.74 1496.82 C 1089.45 1494.33 1091.25 1492.11 1093.78 1491.87 C 1106.16 1490.67 1118.64 1488.93 1130.88 1486.7 C 1133.37 1486.25 1135.79 1487.88 1136.3 1490.34 C 1136.8 1492.8 1135.19 1495.16 1132.7 1495.61 C 1120.21 1497.89 1107.47 1499.66 1094.83 1500.89 C 1093.96 1500.97 1093.12 1500.81 1092.38 1500.46 Z  M 992.951 1499.18 C 991.213 1498.36 990.098 1496.52 990.313 1494.54 C 990.582 1492.06 992.846 1490.3 995.372 1490.61 C 1007.8 1492.13 1020.41 1493.15 1032.86 1493.63 C 1035.41 1493.73 1037.42 1495.83 1037.36 1498.33 C 1037.31 1500.84 1035.21 1502.78 1032.67 1502.69 C 1019.96 1502.19 1007.08 1501.16 994.397 1499.6 C 993.883 1499.54 993.395 1499.39 992.951 1499.18 Z  M 754.255 1396.86 C 744.389 1388.77 734.733 1380.16 725.561 1371.27 C 723.735 1369.5 723.683 1366.63 725.448 1364.86 C 730.421 1359.87 731.137 1366.21 760.064 1389.93 C 762.033 1391.55 762.329 1394.41 760.726 1396.32 C 759.121 1398.23 756.228 1398.47 754.255 1396.86 Z  M 893.4 1470.77 C 895.692 1464.14 899.284 1469.64 935.282 1479.08 C 937.755 1479.72 939.249 1482.22 938.638 1484.63 C 938.025 1487.05 935.531 1488.49 933.067 1487.84 C 920.749 1484.61 908.371 1480.82 896.279 1476.57 C 893.857 1475.71 892.59 1473.11 893.4 1470.77 Z  M 838.761 1451.98 C 827.349 1446.19 816.046 1439.86 805.167 1433.15 C 802.995 1431.82 802.304 1429.02 803.624 1426.9 C 807.342 1420.94 809.466 1426.99 842.857 1443.94 C 845.132 1445.1 846.058 1447.83 844.926 1450.05 C 842.949 1453.93 838.208 1451.96 838.761 1451.98 Z " fill="rgb(145,179,250)"/><path d=" M 683.633 1324.72 C 673.737 1312.12 668.648 1306.97 673.515 1303.6 C 678.578 1300.09 680.741 1306.35 690.87 1319.26 C 692.438 1321.25 692.086 1324.1 690.089 1325.6 C 688.091 1327.11 685.2 1326.72 683.633 1324.72 Z " fill="rgb(145,179,250)"/><path d=" M 743.123 1214.79 L 809.004 1212.04 C 826.966 1237.03 849.051 1259.46 874.805 1278.16 C 872.214 1341.25 867.56 1345.5 874.099 1348.28 L 947.22 1379.46 C 949.357 1380.37 951.821 1379.86 953.355 1378.18 L 997.113 1330.31 C 1028.41 1335.93 1059.84 1336.33 1090.26 1331.96 L 1133.98 1381.45 C 1135.52 1383.18 1137.98 1383.79 1140.12 1382.95 L 1213.28 1354.42 C 1215.42 1353.59 1216.76 1351.5 1216.62 1349.22 L 1212.66 1284.23 C 1237.71 1266.96 1260.07 1245.59 1278.59 1220.53 L 1344.42 1225.66 C 1346.73 1225.84 1348.88 1224.56 1349.76 1222.47 L 1380.11 1150.94 C 1380.99 1148.85 1380.43 1146.41 1378.7 1144.87 L 1329.34 1100.89 C 1334.5 1070.13 1334.34 1039.16 1329.37 1009.1 C 1376.78 966.839 1382.92 967.301 1380.23 960.851 C 1349.31 890.138 1351.86 884.542 1344.65 884.841 L 1278.76 887.592 C 1260.8 862.594 1238.72 840.171 1212.96 821.472 C 1215.55 758.413 1220.21 754.136 1213.67 751.343 C 1140.49 721.615 1139.12 716.3 1134.41 721.449 L 1090.65 769.32 C 1059.36 763.693 1027.93 763.297 997.507 767.667 C 954.321 720.766 954.247 714.103 947.65 716.677 C 875.754 746.186 870.724 743.389 871.15 750.41 L 875.107 815.401 C 850.06 832.665 827.697 854.041 809.179 879.095 C 746.232 875.487 740.771 870.625 738.004 877.158 C 709.259 948.457 703.735 949.998 709.072 954.757 L 758.423 998.742 C 753.269 1029.49 753.425 1060.47 758.396 1090.53 C 711.151 1132.65 704.841 1132.29 707.537 1138.78 C 738.456 1209.49 735.908 1215.09 743.123 1214.79 Z " fill="rgb(145,179,250)"/><path d=" M 1053.11 988.166 C 1018.93 982.612 986.325 1005.12 981.163 1039.63 C 976.073 1073.62 1000.07 1105.86 1034.66 1111.46 C 1069.24 1117.08 1101.52 1094 1106.61 1060 C 1111.7 1025.96 1087.64 993.766 1053.11 988.166 Z  M 1033.65 1118.17 L 1033.69 1118.19 L 1033.65 1118.17 Z  M 967.514 1037.41 C 973.708 996.019 1013.01 967.91 1055.12 974.75 C 1097.22 981.602 1126.45 1020.83 1120.26 1062.22 C 1114.06 1103.61 1074.76 1131.72 1032.65 1124.88 C 990.528 1118.04 961.32 1078.79 967.514 1037.41 Z " fill="rgb(189,208,251)"/><path d=" M 962.109 1224.57 L 962.109 1224.57 C 951.757 1219.67 941.835 1213.91 932.525 1207.39 C 929.727 1205.44 928.805 1201.84 930.187 1198.92 C 930.352 1198.57 930.549 1198.23 930.781 1197.9 C 932.949 1194.86 937.257 1194.17 940.378 1196.35 C 951.086 1203.84 962.674 1210.26 974.809 1215.45 C 1066.25 1254.44 1171.17 1215.38 1212.42 1128.36 C 1213.47 1126.13 1214.48 1123.88 1215.45 1121.6 C 1254.6 1029.3 1209.57 922.664 1115.95 882.717 C 1022.46 842.853 914.403 884.533 875.312 976.567 C 852.074 1031.36 865.279 1070.48 862.616 1076.1 C 859.738 1082.17 850.528 1080.68 849.531 1074.01 C 844.082 1037.59 849.091 999.19 865.833 963.867 C 938.078 811.458 1162.65 820.153 1228.29 977.749 C 1248.49 1026.25 1248.45 1079.26 1228.19 1127.03 C 1227.14 1129.5 1226.04 1131.94 1224.9 1134.36 C 1203.96 1178.56 1167.33 1212.58 1121.01 1230.65 C 1072.15 1249.7 1018.35 1248.73 969.522 1227.91 C 967.029 1226.85 964.555 1225.73 962.109 1224.57 Z " fill="rgb(189,208,251)"/><path d=" M 1538.56 942.913 C 1549.54 956.152 1562.72 967.736 1577.79 977.033 L 1578.13 1013.85 C 1578.16 1017.93 1581.67 1016.39 1622.1 1030.71 C 1625.84 1031.96 1625.47 1028.45 1647.88 1000.48 C 1665.51 1002.12 1683 1000.79 1699.75 996.83 L 1726.04 1022.64 C 1728.96 1025.5 1730.34 1021.93 1769.05 1003.46 C 1770.21 1002.89 1770.87 1001.64 1770.7 1000.36 L 1765.9 963.837 C 1779.14 952.851 1790.73 939.673 1800.02 924.606 C 1835.2 923.546 1838.4 926.01 1839.68 922.199 C 1852.83 880.46 1855.83 879.353 1852.67 876.932 L 1823.47 854.51 C 1825.11 836.881 1823.79 819.388 1819.82 802.647 L 1845.63 776.357 C 1848.49 773.442 1844.92 772.053 1826.46 733.344 C 1824.71 729.826 1822.63 732.544 1786.83 736.489 C 1775.84 723.249 1762.67 711.667 1747.6 702.37 L 1747.26 665.556 C 1747.22 661.466 1743.71 663.013 1703.28 648.696 C 1699.56 647.45 1700.03 650.816 1677.5 678.923 C 1659.87 677.283 1642.38 678.607 1625.64 682.573 L 1599.35 656.766 C 1598.43 655.861 1597.03 655.641 1595.88 656.217 L 1556.33 675.938 C 1555.18 676.514 1554.52 677.76 1554.68 679.041 L 1559.48 715.565 C 1546.24 726.552 1534.66 739.729 1525.36 754.795 C 1490.19 755.856 1486.98 753.391 1485.71 757.204 C 1472.56 798.926 1469.56 800.045 1472.71 802.47 L 1501.91 824.892 C 1500.28 842.521 1501.6 860.014 1505.56 876.755 C 1481.44 902.375 1477.41 902.907 1479.21 906.516 L 1498.93 946.059 C 1500.69 949.593 1502.93 946.837 1538.56 942.913 Z " fill="rgb(145,179,250)"/><path d=" M 1630.42 837.257 C 1629.08 855.057 1642.46 870.627 1660.25 871.975 C 1688.82 874.134 1705.98 840.421 1687.24 818.608 C 1668.58 796.894 1632.6 808.497 1630.42 837.257 Z  M 1659.73 878.827 L 1659.77 878.846 L 1659.73 878.827 Z  M 1616.72 836.224 C 1618.64 810.813 1640.76 791.801 1666.17 793.726 C 1691.58 795.647 1710.59 817.766 1708.67 843.178 C 1706.75 868.528 1684.57 887.595 1659.21 885.678 C 1633.86 883.756 1614.8 861.579 1616.72 836.224 Z " fill="rgb(189,208,251)"/><path d=" M 1430.53 906.172 C 1428.83 900.222 1427.33 894.12 1426.09 888.035 C 1425.59 885.555 1427.19 883.138 1429.67 882.632 C 1435.91 881.36 1434.94 888.3 1439.34 903.647 C 1440.04 906.08 1438.63 908.616 1436.2 909.313 C 1433.78 910.008 1431.23 908.615 1430.53 906.172 Z " fill="rgb(145,179,250)"/><path d=" M 1687.54 604.042 C 1687.85 601.532 1690.14 599.747 1692.65 600.058 C 1705.15 601.61 1717.59 604.149 1729.63 607.607 C 1735.44 609.248 1732.94 618.088 1727.1 616.413 C 1715.52 613.087 1703.55 610.644 1691.52 609.153 C 1688.95 608.824 1687.24 606.502 1687.54 604.042 Z  M 1593.84 616.507 C 1592.71 615.967 1591.79 614.963 1591.41 613.661 C 1590.7 611.234 1592.08 608.687 1594.51 607.974 C 1606.55 604.424 1618.98 601.806 1631.44 600.192 C 1633.95 599.87 1636.25 601.638 1636.57 604.148 C 1636.9 606.656 1635.13 608.954 1632.62 609.279 C 1620.63 610.83 1608.68 613.346 1597.1 616.759 C 1595.98 617.091 1594.83 616.971 1593.84 616.507 Z  M 1508.73 662.147 C 1508.14 661.873 1507.61 661.473 1507.18 660.951 C 1505.55 659.01 1505.81 656.122 1507.75 654.496 C 1517.38 646.431 1527.72 639.064 1538.48 632.6 C 1540.64 631.3 1543.46 632.001 1544.76 634.166 C 1546.07 636.334 1545.37 639.15 1543.2 640.451 C 1532.85 646.672 1522.9 653.762 1513.63 661.522 C 1512.21 662.707 1510.29 662.89 1508.73 662.147 Z  M 1448.71 737.868 C 1446.45 736.736 1445.53 733.985 1446.66 731.721 C 1452.27 720.498 1458.83 709.62 1466.14 699.392 C 1469.67 694.466 1477.12 699.787 1473.59 704.722 C 1466.56 714.56 1460.25 725.022 1454.86 735.818 C 1452.87 739.791 1448.16 737.848 1448.71 737.868 Z  M 1421.59 826.961 C 1422.24 814.816 1423.83 802.18 1426.49 789.548 C 1427.75 783.605 1436.7 785.529 1435.46 791.44 C 1428.55 824.168 1433.58 832.192 1425.92 831.781 C 1423.38 831.641 1421.46 829.474 1421.59 826.961 Z " fill="rgb(145,179,250)"/><path d=" M 1796.43 649.657 C 1782.7 639.973 1776.61 638.922 1779.77 633.607 C 1781.06 631.433 1783.83 630.681 1786.05 632.012 C 1791.35 635.164 1796.62 638.583 1801.71 642.17 C 1803.78 643.627 1804.27 646.485 1802.81 648.555 C 1801.38 650.59 1798.55 651.135 1796.43 649.657 Z " fill="rgb(145,179,250)"/><path d=" M 1893.48 812.531 C 1891.52 795.775 1888.25 790.593 1894.32 789.405 C 1896.81 788.917 1899.21 790.537 1899.7 793.017 C 1900.89 799.076 1901.86 805.284 1902.58 811.467 C 1902.88 813.98 1901.08 816.256 1898.56 816.548 C 1896.06 816.844 1893.78 815.048 1893.48 812.531 Z " fill="rgb(145,179,250)"/><path d=" M 1885.57 905.426 C 1894.98 873.433 1890.54 865.546 1898.12 866.557 C 1900.63 866.889 1902.39 869.193 1902.06 871.701 C 1900.43 883.984 1897.84 896.2 1894.36 908.013 C 1893.65 910.439 1891.1 911.829 1888.68 911.114 C 1886.25 910.401 1884.86 907.857 1885.57 905.426 Z  M 1842.4 994.13 C 1836.51 989.252 1845.39 987 1862.38 958.512 C 1865.48 953.312 1873.36 957.992 1870.25 963.202 C 1863.93 973.801 1856.73 984.001 1848.85 993.524 C 1847.23 995.476 1844.34 995.738 1842.4 994.13 Z  M 1767.26 1052.32 C 1763.76 1045.55 1772.79 1046.94 1799.59 1027.37 C 1804.49 1023.81 1809.89 1031.2 1804.99 1034.77 C 1795 1042.06 1784.39 1048.63 1773.43 1054.29 C 1771.19 1055.45 1768.42 1054.57 1767.26 1052.32 Z  M 1675.32 1076.28 C 1675.14 1073.76 1677.04 1071.57 1679.56 1071.39 C 1712.85 1069.02 1718.64 1062.1 1720.36 1069.54 C 1720.92 1072.01 1719.38 1074.47 1716.92 1075.03 C 1704.89 1077.8 1692.54 1079.65 1680.21 1080.53 C 1677.69 1080.7 1675.5 1078.81 1675.32 1076.28 Z  M 1581.31 1062.23 C 1583.78 1055.04 1589.12 1062.53 1621.7 1068.34 C 1627.65 1069.38 1626.08 1078.42 1620.09 1077.36 C 1607.91 1075.19 1595.82 1072.05 1584.16 1068.05 C 1581.8 1067.25 1580.48 1064.66 1581.31 1062.23 Z " fill="rgb(145,179,250)"/><path d=" M 1529.91 1041.38 C 1524.74 1037.96 1519.63 1034.3 1514.74 1030.5 C 1512.74 1028.95 1512.38 1026.07 1513.93 1024.08 C 1517.84 1019.05 1521.61 1024.92 1534.96 1033.73 C 1537.07 1035.12 1537.65 1037.96 1536.26 1040.08 C 1534.85 1042.22 1531.99 1042.75 1529.91 1041.38 Z " fill="rgb(145,179,250)"/><path d=" M 1605.75 936.948 C 1602 934.75 1601.29 930.476 1603.11 927.395 C 1605.05 924.129 1609.3 923.061 1612.53 924.988 C 1618.59 928.581 1625.09 931.552 1631.85 933.816 C 1633.33 934.011 1668.1 948.32 1708.01 928.483 C 1787.17 889 1779.13 772.691 1695.14 744.612 C 1646.82 728.452 1594.67 751.492 1573.37 796.433 C 1551.92 841.694 1575.36 865.618 1560.82 868.815 C 1557.12 869.636 1553.45 867.295 1552.63 863.587 C 1548.22 843.599 1549.33 822.722 1555.86 803.212 C 1575.67 743.963 1640.06 711.7 1699.5 731.579 C 1763.46 752.965 1795.43 825.883 1765.97 888.037 C 1742.21 938.167 1683.53 965.592 1627.49 946.849 L 1627.49 946.848 C 1619.91 944.31 1612.59 940.98 1605.75 936.948 Z " fill="rgb(189,208,251)"/><linearGradient id="_lgradient_791" x1="0" y1="0" x2="1" y2="0" gradientTransform="matrix(-403.937,1017.51,-1017.51,-403.937,2066.52,2615.83)" gradientUnits="userSpaceOnUse"><stop offset="0%" stop-opacity="1" style="stop-color:rgb(9,0,93)"/><stop offset="100%" stop-opacity="1" style="stop-color:rgb(26,15,145)"/></linearGradient><path d=" M 1678.69 2688.19 L 1627.98 3143 L 2216.33 3143 L 2139.7 2688.19 L 1678.69 2688.19 Z " fill="url(#_lgradient_791)"/><linearGradient id="_lgradient_792" x1="0" y1="0" x2="1" y2="0" gradientTransform="matrix(-536.876,1610.63,-1610.63,-536.876,2161.53,1078.12)" gradientUnits="userSpaceOnUse"><stop offset="0%" stop-opacity="1" style="stop-color:rgb(9,0,93)"/><stop offset="100%" stop-opacity="1" style="stop-color:rgb(26,15,145)"/></linearGradient><path d=" M 2958.8 2818.01 C 2955.66 2818.01 2952.48 2818.01 2949.3 2818.01 C 2640.94 2817.87 2125.71 2811.1 1647.75 2803.19 L 1642.82 2687.57 L 3183.99 2713.83 L 3184.05 2713.83 C 3186.08 2713.83 3187.73 2712.21 3187.77 2710.17 C 3187.8 2708.12 3186.17 2706.43 3184.11 2706.39 L 1642.5 2680.13 L 1641.1 2647.27 L 3057.17 2664.76 C 3057.71 2664.77 3058.26 2664.77 3058.8 2664.77 C 3117.63 2664.78 3165.57 2617.18 3165.79 2558.15 L 3169.85 1380.08 C 3170.01 1337.49 3136.07 1302.58 3093.48 1301.55 L 609.916 1251.37 C 609.215 1251.35 608.509 1251.35 607.812 1251.35 C 561.13 1251.35 523.046 1289.21 523.046 1336.15 L 523.046 2524.84 C 523.046 2584.93 571.284 2633.89 631.37 2634.79 L 644.981 2634.96 L 644.749 2663.12 L 523.107 2661.05 C 523.038 2661.05 522.969 2661.04 522.901 2661.04 C 521.044 2661.04 519.36 2662.73 519.325 2664.71 C 519.293 2666.76 520.927 2668.45 522.984 2668.49 L 644.687 2670.56 L 643.755 2783.51 C 638.862 2783.38 634.105 2783.26 629.447 2783.14 C 526.557 2780.49 444.54 2696.32 444.54 2593.4 L 444.54 1342.24 C 444.54 1267.23 504.42 1205.98 579.41 1204.29 C 600.11 1203.83 623.641 1203.47 649.773 1203.22 C 683.846 1202.89 722.244 1202.74 764.464 1202.74 C 1370.03 1202.74 2750.52 1234.77 3091.42 1245.67 C 3093.38 1245.73 3095.32 1245.84 3097.26 1245.98 C 3163.76 1250.79 3218.52 1300.92 3228.84 1367.32 C 3279.25 1691.81 3265.63 2390.75 3257.24 2681.41 C 3255.09 2756.15 3194.52 2815.98 3119.75 2817.09 C 3076.71 2817.72 3022.38 2818.01 2958.8 2818.01 Z " fill="url(#_lgradient_792)"/><path d=" M 523.046 1336.15 L 523.046 2524.84 C 523.046 2584.93 571.284 2633.89 631.37 2634.79 L 3057.17 2664.76 C 3116.74 2665.65 3165.57 2617.72 3165.79 2558.15 L 3169.85 1380.08 C 3170.01 1337.49 3136.07 1302.58 3093.48 1301.55 L 609.916 1251.37 C 562.283 1250.21 523.046 1288.51 523.046 1336.15 Z " fill="rgb(125,151,244)"/><path d=" M 591.859 1373.88 L 591.859 2489.56 C 591.859 2545.96 637.789 2591.92 695.001 2592.76 L 3004.75 2620.89 C 3061.48 2621.72 3107.97 2576.74 3108.18 2520.82 L 3112.04 1415.11 C 3112.2 1375.13 3079.88 1342.37 3039.33 1341.39 L 674.573 1294.3 C 629.22 1293.21 591.859 1329.16 591.859 1373.88 Z " fill="rgb(145,179,250)"/><path d=" M 3184.05 2713.83 L 3183.99 2713.83 L 522.984 2668.49 C 520.927 2668.45 519.293 2666.76 519.325 2664.71 C 519.362 2662.65 521.171 2660.92 523.107 2661.05 L 3184.11 2706.39 C 3186.17 2706.43 3187.8 2708.12 3187.77 2710.17 C 3187.73 2712.21 3186.08 2713.83 3184.05 2713.83 Z " fill="rgb(145,179,250)"/><path d=" M 1879.8 2713.83 C 1866.58 2713.83 1855.83 2724.58 1855.83 2737.8 C 1855.83 2751.01 1866.58 2761.77 1879.8 2761.77 C 1893.01 2761.77 1903.77 2751.01 1903.77 2737.8 C 1903.77 2724.58 1893.01 2713.83 1879.8 2713.83 Z  M 1879.8 2769.21 C 1862.48 2769.21 1848.39 2755.12 1848.39 2737.8 C 1848.39 2720.48 1862.48 2706.39 1879.8 2706.39 C 1897.12 2706.39 1911.21 2720.48 1911.21 2737.8 C 1911.21 2755.12 1897.12 2769.21 1879.8 2769.21 Z " fill="rgb(145,179,250)"/><linearGradient id="_lgradient_793" x1="0" y1="0" x2="1" y2="0" gradientTransform="matrix(623.802,-659.595,659.595,623.802,1470.12,3658.88)" gradientUnits="userSpaceOnUse"><stop offset="0%" stop-opacity="1" style="stop-color:rgb(9,0,93)"/><stop offset="100%" stop-opacity="1" style="stop-color:rgb(26,15,145)"/></linearGradient><path d=" M 2343.06 3236.06 L 2139.21 3236.06 L 1619.51 3236.06 L 1606.49 3236.06 C 1639.33 3234.3 1664.94 3206.4 1663.52 3173.22 L 1662.59 3151.38 L 1891.66 3148.03 C 1893.71 3148 1895.35 3146.31 1895.32 3144.26 C 1895.29 3142.22 1893.69 3140.59 1891.59 3140.59 C 1891.58 3140.59 1891.56 3140.59 1891.55 3140.59 L 1662.27 3143.94 L 1661.64 3129.18 L 2321.66 3108.59 C 2322.16 3108.57 2322.66 3108.57 2323.16 3108.57 C 2340.48 3108.57 2355.59 3117.93 2359.39 3131.21 L 2373.89 3181.85 L 2379.31 3200.81 C 2384.49 3218.89 2366.84 3236.06 2343.06 3236.06 Z " fill="url(#_lgradient_793)"/><path d=" M 1945.52 3147.24 C 1943.49 3147.24 1941.83 3145.61 1941.8 3143.58 C 1941.77 3141.52 1943.41 3139.83 1945.46 3139.8 L 1981.03 3139.28 C 1982.99 3139.34 1984.78 3140.9 1984.81 3142.95 C 1984.83 3145 1983.19 3146.69 1981.14 3146.72 L 1945.57 3147.24 L 1945.52 3147.24 Z " fill="rgb(145,179,250)"/><path d=" M 1477.42 3212.88 C 1477.22 3212.88 1477.02 3212.86 1476.83 3212.83 C 1474.8 3212.51 1473.42 3210.6 1473.74 3208.57 L 1478.81 3176.79 C 1481.61 3159.27 1496.51 3146.37 1514.25 3146.11 L 1891.55 3140.59 C 1893.66 3140.57 1895.29 3142.2 1895.32 3144.26 C 1895.35 3146.31 1893.71 3148 1891.66 3148.03 L 1514.36 3153.55 C 1500.24 3153.75 1488.38 3164.02 1486.16 3177.96 L 1481.08 3209.74 C 1480.79 3211.57 1479.21 3212.88 1477.42 3212.88 Z " fill="rgb(145,179,250)"/><path d=" M 1346.76 1377.11 L 1626.98 1375.03 C 1665.26 1374.75 1695.98 1404.29 1694.37 1439.85 L 1666.97 2045.45 C 1665.46 2078.63 1636.22 2104.9 1600.49 2105.17 L 1352.16 2107.01 C 1315.16 2107.28 1284.96 2079.62 1284.71 2045.23 L 1280.22 1439.87 C 1279.97 1405.48 1309.76 1377.38 1346.76 1377.11 Z " fill="rgb(189,208,251)"/><path d=" M 645.718 2545.8 C 638.129 2538.43 633.366 2529.24 632.726 2519.18 L 617.963 2286.99 C 616.813 2268.9 629.221 2252.78 648.207 2244.37 L 645.718 2545.8 Z  M 1625.33 2277.36 L 1624.97 2269.12 C 1625.21 2270.78 1625.33 2272.46 1625.33 2274.17 L 1625.33 2277.36 Z " fill="rgb(167,194,251)"/><path d=" M 2658.72 2163.07 L 1772.08 2175.98 C 1737.94 2176.47 1711.02 2203.52 1712.69 2235.66 L 1727.45 2519.77 C 1729.03 2550.08 1755.57 2573.9 1787.78 2573.9 L 2659.65 2573.9 C 2693.01 2573.9 2720.05 2548.42 2720.05 2516.99 L 2720.05 2219.98 C 2720.05 2188.2 2692.44 2162.58 2658.72 2163.07 Z " fill="rgb(189,208,251)"/><path d=" M 1169.76 1349.01 L 711.772 1349.01 C 674.773 1349.01 644.777 1379.24 644.777 1416.54 L 644.777 2072.92 C 644.777 2110.21 674.773 2140.44 711.772 2140.44 L 1169.76 2140.44 C 1206.76 2140.44 1236.76 2110.21 1236.76 2072.92 L 1236.76 1416.54 C 1236.76 1379.24 1206.76 1349.01 1169.76 1349.01 Z " fill="rgb(189,208,251)"/><path d=" M 2300.19 1603.45 L 1842.19 1603.45 C 1805.19 1603.45 1775.2 1619.65 1775.2 1639.64 L 1775.2 1991.39 C 1775.2 2011.38 1805.19 2027.58 1842.19 2027.58 L 2300.19 2027.58 C 2337.19 2027.58 2367.18 2011.38 2367.18 1991.39 L 2367.18 1639.64 C 2367.18 1619.65 2337.19 1603.45 2300.19 1603.45 Z " fill="rgb(189,208,251)"/><path d=" M 3063.9 1572.03 L 2513.82 1572.03 C 2469.38 1572.03 2433.36 1588.23 2433.36 1608.21 L 2433.36 1959.97 C 2433.36 1979.95 2469.38 1996.15 2513.82 1996.15 L 3063.9 1996.15 C 3108.34 1996.15 3144.36 1979.95 3144.36 1959.97 L 3144.36 1608.21 C 3144.36 1588.23 3108.34 1572.03 3063.9 1572.03 Z " fill="rgb(189,208,251)"/><linearGradient id="_lgradient_794" x1="0" y1="0" x2="1" y2="0" gradientTransform="matrix(-1336.3,1763.17,-1763.17,-1336.3,2992.33,147.865)" gradientUnits="userSpaceOnUse"><stop offset="0%" stop-opacity="1" style="stop-color:rgb(64,66,226)"/><stop offset="100%" stop-opacity="1" style="stop-color:rgb(79,82,255)"/></linearGradient><path d=" M 2904.35 992.618 C 2724.02 987.552 1832.02 957.778 1648.95 951.657 C 1630.88 951.053 1616.07 978.808 1616.07 1013.26 L 1616.07 1172.48 C 1616.07 1206.5 1630.54 1234.09 1648.39 1234.09 L 2903.85 1234.09 C 2921.7 1234.09 2936.17 1206.5 2936.17 1172.48 L 2936.17 1054.22 C 2936.17 1020.55 2922 993.114 2904.35 992.618 Z " fill="url(#_lgradient_794)"/><linearGradient id="_lgradient_795" x1="0" y1="0" x2="1" y2="0" gradientTransform="matrix(631.895,1111.46,1111.46,-631.895,1412.01,463.641)" gradientUnits="userSpaceOnUse"><stop offset="0%" stop-opacity="1" style="stop-color:rgb(254,112,98)"/><stop offset="100%" stop-opacity="1" style="stop-color:rgb(255,146,142)"/></linearGradient><path d=" M 1715.04 1195.67 L 1763.85 1170.1 C 1767.65 1168.12 1772.18 1168.12 1775.97 1170.12 L 1824.7 1195.84 C 1834.24 1200.87 1845.41 1192.78 1843.61 1182.14 L 1834.38 1127.82 C 1833.66 1123.6 1835.06 1119.29 1838.14 1116.3 L 1877.65 1077.91 C 1885.39 1070.39 1881.14 1057.26 1870.47 1055.69 L 1815.96 1047.68 C 1811.72 1047.06 1808.06 1044.39 1806.17 1040.55 L 1781.86 991.104 C 1777.1 981.42 1763.3 981.399 1758.51 991.068 L 1734.05 1040.44 C 1732.15 1044.28 1728.48 1046.94 1724.24 1047.54 L 1669.7 1055.38 C 1659.02 1056.92 1654.74 1070.04 1662.45 1077.58 L 1701.85 1116.1 C 1704.91 1119.09 1706.3 1123.4 1705.57 1127.63 L 1696.18 1181.92 C 1694.34 1192.55 1705.49 1200.68 1715.04 1195.67 Z " fill="url(#_lgradient_795)"/><linearGradient id="_lgradient_796" x1="0" y1="0" x2="1" y2="0" gradientTransform="matrix(631.895,1111.46,1111.46,-631.895,1599.25,357.198)" gradientUnits="userSpaceOnUse"><stop offset="0%" stop-opacity="1" style="stop-color:rgb(254,112,98)"/><stop offset="100%" stop-opacity="1" style="stop-color:rgb(255,146,142)"/></linearGradient><path d=" M 1966.88 1202.85 L 2015.69 1177.29 C 2019.48 1175.3 2024.01 1175.31 2027.8 1177.31 L 2076.53 1203.02 C 2086.07 1208.06 2097.25 1199.96 2095.44 1189.33 L 2086.21 1135.01 C 2085.49 1130.78 2086.9 1126.48 2089.97 1123.49 L 2129.48 1085.09 C 2137.22 1077.57 2132.98 1064.44 2122.3 1062.88 L 2067.79 1054.87 C 2063.55 1054.25 2059.89 1051.58 2058 1047.73 L 2033.69 998.289 C 2028.93 988.606 2015.13 988.585 2010.34 998.254 L 1985.88 1047.62 C 1983.98 1051.46 1980.31 1054.12 1976.07 1054.73 L 1921.53 1062.57 C 1910.85 1064.11 1906.57 1077.22 1914.28 1084.77 L 1953.68 1123.28 C 1956.74 1126.28 1958.14 1130.59 1957.41 1134.81 L 1948.01 1189.1 C 1946.17 1199.73 1957.32 1207.86 1966.88 1202.85 Z " fill="url(#_lgradient_796)"/><linearGradient id="_lgradient_797" x1="0" y1="0" x2="1" y2="0" gradientTransform="matrix(631.895,1111.46,1111.46,-631.895,1790.62,248.404)" gradientUnits="userSpaceOnUse"><stop offset="0%" stop-opacity="1" style="stop-color:rgb(254,112,98)"/><stop offset="100%" stop-opacity="1" style="stop-color:rgb(255,146,142)"/></linearGradient><path d=" M 2220.91 1204.27 L 2269.72 1178.7 C 2273.51 1176.72 2278.04 1176.72 2281.83 1178.72 L 2330.56 1204.44 C 2340.11 1209.47 2351.28 1201.38 2349.47 1190.74 L 2340.24 1136.42 C 2339.52 1132.2 2340.93 1127.89 2344 1124.91 L 2383.52 1086.51 C 2391.25 1078.99 2387.01 1065.86 2376.33 1064.29 L 2321.82 1056.28 C 2317.58 1055.66 2313.92 1052.99 2312.03 1049.15 L 2287.72 999.704 C 2282.96 990.021 2269.16 990 2264.37 999.668 L 2239.91 1049.04 C 2238.01 1052.88 2234.34 1055.54 2230.1 1056.15 L 2175.57 1063.98 C 2164.88 1065.52 2160.6 1078.64 2168.32 1086.18 L 2207.71 1124.7 C 2210.78 1127.69 2212.17 1132 2211.44 1136.23 L 2202.04 1190.52 C 2200.2 1201.15 2211.35 1209.28 2220.91 1204.27 Z " fill="url(#_lgradient_797)"/><linearGradient id="_lgradient_798" x1="0" y1="0" x2="1" y2="0" gradientTransform="matrix(631.895,1111.46,1111.46,-631.895,1975.73,143.169)" gradientUnits="userSpaceOnUse"><stop offset="0%" stop-opacity="1" style="stop-color:rgb(254,112,98)"/><stop offset="100%" stop-opacity="1" style="stop-color:rgb(255,146,142)"/></linearGradient><path d=" M 2467.5 1207.16 L 2516.3 1181.6 C 2520.1 1179.61 2524.63 1179.62 2528.42 1181.62 L 2577.15 1207.33 C 2586.69 1212.36 2597.87 1204.27 2596.06 1193.63 L 2586.83 1139.32 C 2586.11 1135.09 2587.51 1130.78 2590.59 1127.8 L 2630.1 1089.4 C 2637.84 1081.88 2633.59 1068.75 2622.92 1067.18 L 2568.41 1059.18 C 2564.17 1058.56 2560.51 1055.89 2558.62 1052.04 L 2534.31 1002.6 C 2529.55 992.914 2515.75 992.893 2510.96 1002.56 L 2486.5 1051.93 C 2484.6 1055.77 2480.93 1058.43 2476.69 1059.04 L 2422.15 1066.88 C 2411.47 1068.41 2407.19 1081.53 2414.9 1089.07 L 2454.3 1127.59 C 2457.36 1130.59 2458.75 1134.9 2458.02 1139.12 L 2448.63 1193.41 C 2446.79 1204.04 2457.94 1212.17 2467.5 1207.16 Z " fill="url(#_lgradient_798)"/><linearGradient id="_lgradient_799" x1="0" y1="0" x2="1" y2="0" gradientTransform="matrix(631.895,1111.46,1111.46,-631.895,2165.39,35.349)" gradientUnits="userSpaceOnUse"><stop offset="0%" stop-opacity="1" style="stop-color:rgb(254,112,98)"/><stop offset="100%" stop-opacity="1" style="stop-color:rgb(255,146,142)"/></linearGradient><path d=" M 2718.45 1207.16 L 2767.26 1181.6 C 2771.05 1179.61 2775.58 1179.62 2779.37 1181.62 L 2828.1 1207.33 C 2837.65 1212.36 2848.82 1204.27 2847.01 1193.63 L 2837.78 1139.32 C 2837.06 1135.09 2838.47 1130.78 2841.54 1127.8 L 2881.06 1089.4 C 2888.79 1081.88 2884.55 1068.75 2873.87 1067.18 L 2819.36 1059.18 C 2815.12 1058.56 2811.46 1055.89 2809.57 1052.04 L 2785.26 1002.6 C 2780.5 992.914 2766.7 992.893 2761.91 1002.56 L 2737.45 1051.93 C 2735.55 1055.77 2731.88 1058.43 2727.64 1059.04 L 2673.11 1066.88 C 2662.42 1068.41 2658.14 1081.53 2665.86 1089.07 L 2705.25 1127.59 C 2708.32 1130.59 2709.71 1134.9 2708.98 1139.12 L 2699.58 1193.41 C 2697.74 1204.04 2708.89 1212.17 2718.45 1207.16 Z " fill="url(#_lgradient_799)"/><linearGradient id="_lgradient_800" x1="0" y1="0" x2="1" y2="0" gradientTransform="matrix(-1096.96,1686.03,-1686.03,-1096.96,1504.29,2066.63)" gradientUnits="userSpaceOnUse"><stop offset="0%" stop-opacity="1" style="stop-color:rgb(79,82,255)"/><stop offset="100%" stop-opacity="1" style="stop-color:rgb(64,66,226)"/></linearGradient><path d=" M 697.692 3245.12 C 665.912 3245.12 640.157 3219.21 640.42 3187.36 L 643.755 2783.51 L 644.687 2670.56 L 644.749 2663.12 L 644.981 2634.96 L 645.438 2579.65 L 645.718 2545.8 L 648.207 2244.37 L 649.418 2097.66 L 649.939 2034.67 C 650.294 1991.7 679.778 1955.78 719.495 1945.5 C 716.845 1949.65 715.292 1954.59 715.28 1959.94 L 712.41 3168.35 C 712.381 3179.95 721.056 3189.73 732.578 3191.03 C 787.131 3197.2 870.073 3199.51 963.631 3199.51 C 1194.76 3199.51 1490.58 3185.43 1582.45 3180.75 C 1598.23 3179.95 1610.39 3166.56 1609.68 3150.78 L 1558.04 1999.85 C 1557.43 1986.42 1546.34 1976.04 1533.1 1976.04 C 1532.53 1976.04 1531.94 1976.06 1531.36 1976.1 C 1478.01 1979.75 1422.77 1981.31 1367.29 1981.31 C 1156.19 1981.31 942.046 1958.75 819.349 1943.17 L 1236.76 1946.62 L 1283.98 1947.01 L 1533.58 1949.07 C 1577.16 1949.43 1612.81 1983.88 1614.67 2027.42 L 1617.89 2102.91 L 1624.97 2269.12 L 1625.33 2277.36 L 1639.26 2604.26 L 1641.1 2647.27 L 1642.5 2680.13 L 1642.82 2687.57 L 1647.75 2803.19 L 1661.64 3129.18 L 1662.27 3143.94 L 1662.59 3151.38 L 1663.52 3173.22 C 1664.94 3206.4 1639.33 3234.3 1606.49 3236.06 C 1605.61 3236.1 1604.72 3236.13 1603.82 3236.14 L 698.274 3245.12 C 698.08 3245.12 697.885 3245.12 697.692 3245.12 Z " fill="url(#_lgradient_800)"/><path d=" M 830.736 3227.16 L 830.726 3227.16 L 729.427 3225.01 C 695.328 3224.29 667.814 3195.96 668.096 3161.85 L 669.359 3008.89 C 669.371 3007.46 670.536 3006.32 671.961 3006.33 C 673.411 3006.42 674.534 3007.51 674.52 3008.93 L 673.256 3161.89 C 672.998 3193.19 698.246 3219.19 729.536 3219.85 L 830.835 3222 C 832.261 3222.03 833.389 3223.21 833.36 3224.63 C 833.331 3226.05 832.157 3227.18 830.736 3227.16 Z " fill="rgb(189,208,251)"/><path d=" M 672.288 2964.11 C 670.874 2964.09 669.74 2962.93 669.752 2961.51 L 669.955 2936.74 C 669.967 2935.31 671.131 2934.17 672.557 2934.18 L 672.572 2934.18 C 673.994 2934.2 675.127 2935.36 675.115 2936.78 L 674.912 2961.55 C 674.9 2962.98 673.736 2964.12 672.31 2964.11 L 672.288 2964.11 Z " fill="rgb(189,208,251)"/><linearGradient id="_lgradient_801" x1="0" y1="0" x2="1" y2="0" gradientTransform="matrix(-984.191,1545.98,-1545.98,-984.191,1268.47,2389.81)" gradientUnits="userSpaceOnUse"><stop offset="0%" stop-opacity="1" style="stop-color:rgb(255,146,142)"/><stop offset="100%" stop-opacity="1" style="stop-color:rgb(254,179,177)"/></linearGradient><path d=" M 963.631 3199.51 C 870.073 3199.51 787.131 3197.2 732.578 3191.03 C 721.056 3189.73 712.381 3179.95 712.41 3168.35 L 715.28 1959.94 C 715.292 1954.59 716.845 1949.65 719.495 1945.5 C 724.32 1937.94 732.781 1933 742.208 1933 C 743.492 1933 744.793 1933.09 746.106 1933.28 C 763.864 1935.84 788.776 1939.29 819.349 1943.17 C 942.046 1958.75 1156.19 1981.31 1367.29 1981.31 C 1422.77 1981.31 1478.01 1979.75 1531.36 1976.1 C 1531.94 1976.06 1532.53 1976.04 1533.1 1976.04 C 1546.34 1976.04 1557.43 1986.42 1558.04 1999.85 L 1609.68 3150.78 C 1610.39 3166.56 1598.23 3179.95 1582.45 3180.75 C 1490.58 3185.43 1194.76 3199.51 963.631 3199.51 Z  M 753.662 1962.95 C 739.609 1962.95 727.782 1974.35 727.749 1988.87 L 724.986 3151.78 C 724.959 3162.94 733.307 3172.35 744.396 3173.61 C 796.895 3179.55 876.702 3181.76 966.737 3181.76 C 1189.16 3181.76 1473.86 3168.21 1562.27 3163.72 C 1577.45 3162.94 1589.15 3150.06 1588.47 3134.87 L 1538.77 2027.28 C 1538.19 2014.36 1527.52 2004.37 1514.78 2004.37 C 1514.22 2004.37 1513.66 2004.38 1513.1 2004.42 C 1461.76 2007.94 1408.6 2009.44 1355.21 2009.44 C 1101.44 2009.44 843.089 1975.56 757.415 1963.22 C 756.15 1963.03 754.898 1962.95 753.662 1962.95 Z " fill-rule="evenodd" fill="url(#_lgradient_801)"/><linearGradient id="_lgradient_802" x1="0" y1="0" x2="1" y2="0" gradientTransform="matrix(-984.191,1545.98,-1545.98,-984.191,1268.47,2389.81)" gradientUnits="userSpaceOnUse"><stop offset="0%" stop-opacity="1" style="stop-color:rgb(255,211,210)"/><stop offset="100%" stop-opacity="1" style="stop-color:rgb(255,225,224)"/></linearGradient><path d=" M 966.737 3181.76 C 876.702 3181.76 796.895 3179.55 744.396 3173.61 C 733.307 3172.35 724.959 3162.94 724.986 3151.78 L 727.749 1988.87 C 727.782 1974.35 739.609 1962.95 753.662 1962.95 C 754.898 1962.95 756.15 1963.03 757.415 1963.22 C 843.089 1975.56 1101.44 2009.44 1355.21 2009.44 C 1408.6 2009.44 1461.76 2007.94 1513.1 2004.42 C 1513.66 2004.38 1514.22 2004.37 1514.78 2004.37 C 1527.52 2004.37 1538.19 2014.36 1538.77 2027.28 L 1588.47 3134.87 C 1589.15 3150.06 1577.45 3162.94 1562.27 3163.72 C 1473.86 3168.21 1189.16 3181.76 966.737 3181.76 Z  M 931.436 2962.63 C 931.319 2962.63 931.202 2962.63 931.084 2962.63 C 914.617 2963.24 886.635 2966.3 861.947 2969.01 C 850.608 2970.25 840.305 2971.38 832.818 2972.07 C 827.403 2972.57 822.452 2975.16 819.234 2979.19 C 816.354 2982.79 815.081 2987.2 815.653 2991.63 L 825.267 3066.02 C 826.741 3077.44 837.312 3085.94 849.945 3085.94 C 850.081 3085.94 850.218 3085.94 850.354 3085.93 L 939.258 3084.64 L 939.501 3084.64 C 951.904 3084.34 961.967 3074.96 961.983 3063.62 C 962.033 3029.07 961.657 2996.64 956.605 2979.6 C 953.543 2969.27 943.364 2962.63 931.436 2962.63 Z  M 1468.12 3005.22 L 1022 3005.37 C 1014.5 3005.37 1010.07 3011.26 1012.15 3018.47 L 1017.35 3036.41 C 1019.41 3043.5 1027.04 3049.18 1034.43 3049.18 C 1034.55 3049.18 1034.66 3049.18 1034.78 3049.18 L 1469.65 3038.69 C 1477.14 3038.51 1483 3032.23 1482.65 3024.74 L 1482.38 3018.84 C 1482.03 3011.35 1475.62 3005.22 1468.12 3005.22 Z  M 937.46 2773.74 C 937.185 2773.74 936.909 2773.74 936.633 2773.75 C 920.159 2774.36 890.942 2777.55 867.464 2780.13 C 856.137 2781.37 845.843 2782.49 838.364 2783.18 C 832.949 2783.69 827.996 2786.28 824.779 2790.3 C 821.901 2793.9 820.628 2798.32 821.199 2802.75 L 830.813 2877.13 C 832.289 2888.55 842.858 2897.05 855.485 2897.05 C 855.623 2897.05 855.761 2897.05 855.899 2897.05 L 944.805 2895.76 L 945.041 2895.76 C 957.445 2895.46 967.514 2886.07 967.53 2874.74 C 967.578 2840.18 967.204 2807.75 962.151 2790.71 C 959.131 2780.53 948.829 2773.74 937.46 2773.74 Z  M 1473.66 2816.34 L 1027.54 2816.48 C 1020.04 2816.49 1015.61 2822.38 1017.7 2829.59 L 1022.9 2847.52 C 1024.95 2854.62 1032.59 2860.3 1039.98 2860.3 C 1040.09 2860.3 1040.21 2860.29 1040.32 2860.29 L 1475.19 2849.8 C 1482.69 2849.62 1488.54 2843.35 1488.2 2835.85 L 1487.93 2829.96 C 1487.58 2822.46 1481.16 2816.34 1473.66 2816.34 Z  M 941.597 2590.61 C 941.365 2590.61 941.131 2590.61 940.898 2590.62 C 940.778 2590.62 940.657 2590.62 940.535 2590.63 C 924.068 2591.23 896.087 2594.3 871.399 2597 C 860.06 2598.24 849.756 2599.37 842.269 2600.06 C 836.854 2600.57 831.903 2603.16 828.685 2607.18 C 825.805 2610.78 824.533 2615.19 825.105 2619.62 L 834.718 2694.01 C 836.192 2705.43 846.765 2713.93 859.398 2713.93 C 859.533 2713.93 859.67 2713.93 859.805 2713.93 L 948.709 2712.64 L 948.952 2712.63 C 961.355 2712.33 971.417 2702.95 971.433 2691.62 C 971.484 2657.06 971.108 2624.63 966.056 2607.59 C 963.055 2597.48 953.089 2590.61 941.597 2590.61 Z  M 1477.57 2633.22 L 1031.45 2633.36 C 1023.95 2633.36 1019.52 2639.26 1021.61 2646.46 L 1026.8 2664.4 C 1028.86 2671.49 1036.49 2677.17 1043.88 2677.17 C 1044 2677.17 1044.11 2677.17 1044.23 2677.17 L 1479.1 2666.68 C 1486.59 2666.5 1492.45 2660.22 1492.1 2652.73 L 1491.83 2646.83 C 1491.48 2639.34 1485.07 2633.21 1477.57 2633.22 Z  M 936.999 2400.11 C 936.768 2400.11 936.536 2400.11 936.304 2400.12 C 936.183 2400.12 936.063 2400.13 935.941 2400.13 C 919.473 2400.73 891.492 2403.8 866.804 2406.5 C 855.466 2407.75 845.16 2408.88 837.674 2409.57 C 832.26 2410.07 827.309 2412.66 824.091 2416.68 C 821.21 2420.28 819.938 2424.7 820.509 2429.12 L 830.124 2503.51 C 831.598 2514.93 842.173 2523.44 854.808 2523.44 C 854.941 2523.44 855.077 2523.43 855.21 2523.43 L 944.113 2522.14 L 944.357 2522.13 C 956.761 2521.84 966.822 2512.45 966.84 2501.12 C 966.888 2466.56 966.514 2434.13 961.461 2417.09 C 958.461 2406.98 948.491 2400.11 936.999 2400.11 Z  M 1472.97 2442.72 L 1026.85 2442.86 C 1019.35 2442.87 1014.92 2448.76 1017.01 2455.96 L 1022.21 2473.9 C 1024.26 2481 1031.9 2486.68 1039.29 2486.68 C 1039.4 2486.68 1039.52 2486.68 1039.63 2486.67 L 1474.5 2476.18 C 1482 2476 1487.85 2469.72 1487.51 2462.23 L 1487.23 2456.34 C 1486.89 2448.84 1480.47 2442.72 1472.97 2442.72 Z  M 940.448 2200.46 C 940.217 2200.46 939.984 2200.46 939.753 2200.46 C 939.632 2200.47 939.512 2200.47 939.389 2200.48 C 922.922 2201.08 894.941 2204.15 870.253 2206.85 C 858.914 2208.09 848.609 2209.22 841.123 2209.91 C 835.708 2210.41 830.757 2213.01 827.54 2217.03 C 824.659 2220.63 823.386 2225.04 823.958 2229.47 L 833.572 2303.86 C 835.047 2315.28 845.619 2323.78 858.251 2323.78 C 858.386 2323.78 858.523 2323.78 858.658 2323.78 L 947.562 2322.49 L 947.806 2322.48 C 960.209 2322.18 970.271 2312.8 970.288 2301.46 C 970.336 2266.91 969.962 2234.48 964.91 2217.44 C 961.909 2207.32 951.939 2200.46 940.448 2200.46 Z  M 1476.42 2243.07 L 1030.3 2243.21 C 1022.8 2243.21 1018.37 2249.11 1020.46 2256.31 L 1025.66 2274.25 C 1027.71 2281.34 1035.35 2287.02 1042.74 2287.02 C 1042.85 2287.02 1042.97 2287.02 1043.08 2287.02 L 1477.95 2276.53 C 1485.45 2276.35 1491.3 2270.07 1490.95 2262.58 L 1490.68 2256.68 C 1490.34 2249.19 1483.92 2243.06 1476.42 2243.07 Z  M 837.699 2119.15 C 830.422 2119.15 828.184 2123.83 832.749 2129.67 C 837.372 2135.57 847.29 2140.45 854.79 2140.51 L 1497.57 2145.82 C 1497.64 2145.82 1497.7 2145.82 1497.77 2145.82 C 1505.17 2145.82 1511 2142.31 1510.75 2137.97 C 1510.49 2133.59 1504.15 2129.9 1496.65 2129.78 L 837.978 2119.15 C 837.885 2119.15 837.791 2119.15 837.699 2119.15 Z  M 838.065 2074.9 C 830.787 2074.9 828.549 2079.59 833.115 2085.42 C 837.738 2091.32 847.656 2096.21 855.155 2096.27 L 1497.94 2101.58 C 1498 2101.58 1498.07 2101.58 1498.13 2101.58 C 1505.54 2101.58 1511.36 2098.07 1511.11 2093.72 C 1510.86 2089.34 1504.52 2085.66 1497.02 2085.53 L 838.344 2074.9 C 838.251 2074.9 838.157 2074.9 838.065 2074.9 Z  M 849.949 3078.68 C 840.961 3078.68 833.469 3072.88 832.462 3065.09 L 822.848 2990.7 C 822.53 2988.25 823.259 2985.76 824.898 2983.72 C 826.891 2981.23 830.021 2979.62 833.488 2979.3 C 841.004 2978.6 851.351 2977.47 862.736 2976.22 C 886.087 2973.66 915.145 2970.48 931.352 2969.88 C 931.541 2969.88 931.729 2969.88 931.917 2969.88 C 940.036 2969.88 947.58 2974.69 949.649 2981.66 C 954.424 2997.76 954.778 3029.62 954.73 3063.61 C 954.718 3071.03 947.824 3077.18 939.329 3077.39 L 939.153 3077.39 L 850.25 3078.68 C 850.149 3078.68 850.05 3078.68 849.949 3078.68 Z  M 922.307 2979 C 922.066 2979 921.824 2979.01 921.581 2979.02 C 902.34 2979.72 861.857 2984.82 843.215 2986.55 C 836.305 2987.19 831.311 2992.77 832.106 2998.92 L 839.787 3058.36 C 840.777 3066.02 848.023 3071.76 856.635 3071.76 C 856.73 3071.76 856.825 3071.76 856.92 3071.75 L 927.965 3070.72 C 936.454 3070.6 943.259 3064.39 943.27 3056.82 C 943.304 3031.54 943.136 3004.15 939.09 2990.5 C 937.069 2983.68 930.163 2979 922.307 2979 Z  M 855.483 2889.8 C 846.501 2889.8 839.015 2883.99 838.009 2876.2 L 828.395 2801.81 C 828.077 2799.36 828.805 2796.89 830.443 2794.84 C 832.438 2792.34 835.57 2790.73 839.035 2790.41 C 846.545 2789.71 856.882 2788.58 868.255 2787.34 C 891.614 2784.78 920.685 2781.59 936.898 2781 C 937.153 2780.99 937.408 2780.99 937.663 2780.99 C 945.704 2780.99 953.143 2785.86 955.196 2792.77 C 959.972 2808.88 960.325 2840.73 960.276 2874.73 C 960.263 2882.2 953.075 2888.16 944.699 2888.51 L 855.794 2889.79 C 855.689 2889.8 855.587 2889.8 855.483 2889.8 Z  M 927.851 2790.12 C 927.611 2790.12 927.37 2790.13 927.128 2790.14 C 907.886 2790.84 867.403 2795.94 848.762 2797.66 C 841.852 2798.3 836.858 2803.89 837.652 2810.04 L 845.334 2869.48 C 846.323 2877.14 853.571 2882.87 862.183 2882.87 C 862.277 2882.87 862.371 2882.87 862.466 2882.87 L 933.51 2881.84 C 941.999 2881.72 948.804 2875.51 948.816 2867.94 C 948.851 2842.65 948.683 2815.26 944.637 2801.62 C 942.615 2794.8 935.708 2790.12 927.851 2790.12 Z  M 859.398 2706.67 C 850.409 2706.67 842.92 2700.87 841.913 2693.08 L 832.299 2618.69 C 831.981 2616.24 832.71 2613.76 834.349 2611.71 C 836.344 2609.22 839.474 2607.61 842.94 2607.29 C 850.455 2606.59 860.802 2605.46 872.187 2604.21 C 895.538 2601.65 924.598 2598.47 940.802 2597.88 C 941.119 2597.86 941.434 2597.85 941.75 2597.85 C 949.719 2597.85 957.063 2602.79 959.1 2609.65 C 963.875 2625.76 964.228 2657.61 964.18 2691.61 C 964.169 2699.03 957.275 2705.17 948.779 2705.38 L 948.605 2705.38 L 859.701 2706.67 C 859.599 2706.67 859.499 2706.67 859.398 2706.67 Z  M 931.759 2607 C 931.518 2607 931.275 2607 931.032 2607.01 C 911.791 2607.72 871.307 2612.81 852.666 2614.54 C 845.756 2615.18 840.763 2620.76 841.557 2626.91 L 849.238 2686.36 C 850.228 2694.01 857.474 2699.75 866.087 2699.75 C 866.182 2699.75 866.276 2699.75 866.37 2699.75 L 937.416 2698.72 C 945.905 2698.59 952.709 2692.39 952.72 2684.81 C 952.755 2659.53 952.587 2632.14 948.54 2618.49 C 946.519 2611.68 939.615 2607 931.759 2607 Z  M 854.804 2516.18 C 845.815 2516.18 838.324 2510.38 837.32 2502.58 L 827.704 2428.19 C 827.387 2425.74 828.116 2423.26 829.754 2421.22 C 831.747 2418.72 834.878 2417.11 838.345 2416.79 C 845.861 2416.09 856.209 2414.96 867.593 2413.71 C 890.943 2411.16 920.002 2407.97 936.208 2407.38 C 936.583 2407.36 936.956 2407.35 937.329 2407.35 C 945.228 2407.35 952.484 2412.35 954.505 2419.15 C 959.281 2435.26 959.634 2467.11 959.587 2501.11 C 959.575 2508.53 952.682 2514.68 944.184 2514.88 L 944.009 2514.89 L 855.106 2516.18 C 855.005 2516.18 854.905 2516.18 854.804 2516.18 Z  M 927.165 2416.5 C 926.924 2416.5 926.681 2416.51 926.438 2416.51 C 907.197 2417.22 866.713 2422.32 848.072 2424.04 C 841.162 2424.68 836.167 2430.27 836.962 2436.42 L 844.645 2495.86 C 845.632 2503.51 852.88 2509.25 861.493 2509.25 C 861.587 2509.25 861.681 2509.25 861.776 2509.25 L 932.821 2508.22 C 941.31 2508.1 948.114 2501.89 948.125 2494.32 C 948.161 2469.03 947.992 2441.64 943.946 2428 C 941.926 2421.18 935.021 2416.5 927.165 2416.5 Z  M 858.251 2316.52 C 849.264 2316.52 841.773 2310.72 840.767 2302.93 L 831.153 2228.54 C 830.835 2226.09 831.563 2223.61 833.202 2221.56 C 835.196 2219.07 838.326 2217.46 841.793 2217.14 C 849.31 2216.44 859.657 2215.31 871.041 2214.06 C 894.392 2211.5 923.451 2208.32 939.656 2207.73 C 940.031 2207.7 940.405 2207.69 940.778 2207.69 C 948.678 2207.69 955.932 2212.69 957.953 2219.5 C 962.729 2235.6 963.083 2267.46 963.035 2301.46 C 963.023 2308.88 956.13 2315.02 947.632 2315.23 L 947.457 2315.23 L 858.554 2316.52 C 858.453 2316.52 858.352 2316.52 858.251 2316.52 Z  M 930.611 2216.85 C 930.371 2216.85 930.129 2216.85 929.886 2216.86 C 910.644 2217.56 870.161 2222.66 851.52 2224.39 C 844.61 2225.03 839.615 2230.61 840.411 2236.76 L 848.092 2296.21 C 849.082 2303.86 856.329 2309.6 864.943 2309.6 C 865.036 2309.6 865.131 2309.6 865.224 2309.6 L 936.27 2308.56 C 944.759 2308.44 951.563 2302.23 951.574 2294.66 C 951.609 2269.38 951.44 2241.99 947.394 2228.34 C 945.373 2221.53 938.468 2216.85 930.611 2216.85 Z " fill-rule="evenodd" fill="url(#_lgradient_802)"/><linearGradient id="_lgradient_803" x1="0" y1="0" x2="1" y2="0" gradientTransform="matrix(-984.191,1545.98,-1545.98,-984.191,1268.47,2389.81)" gradientUnits="userSpaceOnUse"><stop offset="0%" stop-opacity="1" style="stop-color:rgb(255,237,237)"/><stop offset="100%" stop-opacity="1" style="stop-color:rgb(255,243,243)"/></linearGradient><path d=" M 1498.13 2101.58 C 1498.07 2101.58 1498 2101.58 1497.94 2101.58 L 855.155 2096.27 C 847.656 2096.21 837.738 2091.32 833.115 2085.42 C 828.549 2079.59 830.787 2074.9 838.065 2074.9 C 838.157 2074.9 838.251 2074.9 838.344 2074.9 L 1497.02 2085.53 C 1504.52 2085.66 1510.86 2089.34 1511.11 2093.72 C 1511.36 2098.07 1505.54 2101.58 1498.13 2101.58 Z " fill="url(#_lgradient_803)"/><linearGradient id="_lgradient_804" x1="0" y1="0" x2="1" y2="0" gradientTransform="matrix(-984.191,1545.98,-1545.98,-984.191,1268.47,2389.81)" gradientUnits="userSpaceOnUse"><stop offset="0%" stop-opacity="1" style="stop-color:rgb(255,237,237)"/><stop offset="100%" stop-opacity="1" style="stop-color:rgb(255,243,243)"/></linearGradient><path d=" M 1497.77 2145.82 C 1497.7 2145.82 1497.64 2145.82 1497.57 2145.82 L 854.79 2140.51 C 847.29 2140.45 837.372 2135.57 832.749 2129.67 C 828.184 2123.83 830.422 2119.15 837.699 2119.15 C 837.791 2119.15 837.885 2119.15 837.978 2119.15 L 1496.65 2129.78 C 1504.15 2129.9 1510.49 2133.59 1510.75 2137.97 C 1511 2142.31 1505.17 2145.82 1497.77 2145.82 Z " fill="url(#_lgradient_804)"/><path d=" M 838.345 2416.79 C 834.878 2417.11 831.747 2418.72 829.754 2421.22 C 828.116 2423.26 827.387 2425.74 827.704 2428.19 L 837.32 2502.58 C 838.336 2510.47 845.983 2516.31 855.106 2516.18 L 944.009 2514.89 L 944.184 2514.88 C 952.682 2514.68 959.575 2508.53 959.587 2501.11 C 959.634 2467.11 959.281 2435.26 954.505 2419.15 C 952.388 2412.03 944.533 2406.88 936.208 2407.38 C 920.002 2407.97 890.943 2411.16 867.593 2413.71 C 856.209 2414.96 845.861 2416.09 838.345 2416.79 Z  M 944.357 2522.13 L 944.113 2522.14 L 855.21 2523.43 C 842.399 2523.62 831.613 2515.05 830.124 2503.51 L 820.509 2429.12 C 819.938 2424.7 821.21 2420.28 824.091 2416.68 C 827.309 2412.66 832.26 2410.07 837.674 2409.57 C 845.16 2408.88 855.466 2407.75 866.804 2406.5 C 891.492 2403.8 919.473 2400.73 935.941 2400.13 C 936.063 2400.13 936.183 2400.12 936.304 2400.12 C 948.087 2399.84 958.401 2406.77 961.461 2417.09 C 966.514 2434.13 966.888 2466.56 966.84 2501.12 C 966.822 2512.45 956.761 2521.84 944.357 2522.13 Z " fill="rgb(255,255,255)"/><linearGradient id="_lgradient_805" x1="0" y1="0" x2="1" y2="0" gradientTransform="matrix(-984.191,1545.98,-1545.98,-984.191,1268.47,2389.81)" gradientUnits="userSpaceOnUse"><stop offset="0%" stop-opacity="1" style="stop-color:rgb(255,237,237)"/><stop offset="100%" stop-opacity="1" style="stop-color:rgb(255,243,243)"/></linearGradient><path d=" M 861.493 2509.25 C 852.88 2509.25 845.632 2503.51 844.645 2495.86 L 836.962 2436.42 C 836.167 2430.27 841.162 2424.68 848.072 2424.04 C 866.713 2422.32 907.197 2417.22 926.438 2416.51 C 926.681 2416.51 926.924 2416.5 927.165 2416.5 C 935.021 2416.5 941.926 2421.18 943.946 2428 C 947.992 2441.64 948.161 2469.03 948.125 2494.32 C 948.114 2501.89 941.31 2508.1 932.821 2508.22 L 861.776 2509.25 C 861.681 2509.25 861.587 2509.25 861.493 2509.25 Z " fill="url(#_lgradient_805)"/><linearGradient id="_lgradient_806" x1="0" y1="0" x2="1" y2="0" gradientTransform="matrix(-984.191,1545.98,-1545.98,-984.191,1268.47,2389.81)" gradientUnits="userSpaceOnUse"><stop offset="0%" stop-opacity="1" style="stop-color:rgb(255,237,237)"/><stop offset="100%" stop-opacity="1" style="stop-color:rgb(255,243,243)"/></linearGradient><path d=" M 1039.29 2486.68 C 1031.9 2486.68 1024.26 2481 1022.21 2473.9 L 1017.01 2455.96 C 1014.92 2448.76 1019.35 2442.87 1026.85 2442.86 L 1472.97 2442.72 C 1480.47 2442.72 1486.89 2448.84 1487.23 2456.34 L 1487.51 2462.23 C 1487.85 2469.72 1482 2476 1474.5 2476.18 L 1039.63 2486.67 C 1039.52 2486.68 1039.4 2486.68 1039.29 2486.68 Z " fill="url(#_lgradient_806)"/><linearGradient id="_lgradient_807" x1="0" y1="0" x2="1" y2="0" gradientTransform="matrix(423.619,-1099.73,1099.73,423.619,7910.11,-15778.2)" gradientUnits="userSpaceOnUse"><stop offset="0%" stop-opacity="1" style="stop-color:rgb(254,112,98)"/><stop offset="100%" stop-opacity="1" style="stop-color:rgb(255,146,142)"/></linearGradient><path d=" M 852.138 2435.65 L 852.138 2435.65 C 858.643 2431.62 867.191 2433.72 871.079 2440.31 L 889.368 2471.32 C 891.199 2474.42 895.785 2474.11 897.182 2470.79 L 938.33 2372.93 C 940.383 2368.05 947.613 2369.51 947.661 2374.81 C 947.932 2404.43 941.433 2460.91 895.256 2509.16 C 895.256 2509.16 868.938 2499.65 846.829 2454.05 C 843.636 2447.47 845.916 2439.5 852.138 2435.65 Z " fill="url(#_lgradient_807)"/><path d=" M 841.793 2217.14 C 838.326 2217.46 835.196 2219.07 833.202 2221.56 C 831.563 2223.61 830.835 2226.09 831.153 2228.54 L 840.767 2302.93 C 841.784 2310.81 849.432 2316.65 858.554 2316.52 L 947.457 2315.23 L 947.632 2315.23 C 956.13 2315.02 963.023 2308.88 963.035 2301.46 C 963.083 2267.46 962.729 2235.6 957.953 2219.5 C 955.837 2212.37 947.982 2207.22 939.656 2207.73 C 923.451 2208.32 894.392 2211.5 871.041 2214.06 C 859.657 2215.31 849.31 2216.44 841.793 2217.14 Z  M 947.806 2322.48 L 947.562 2322.49 L 858.658 2323.78 C 845.847 2323.96 835.063 2315.4 833.572 2303.86 L 823.958 2229.47 C 823.386 2225.04 824.659 2220.63 827.54 2217.03 C 830.757 2213.01 835.708 2210.41 841.123 2209.91 C 848.609 2209.22 858.914 2208.09 870.253 2206.85 C 894.941 2204.15 922.922 2201.08 939.389 2200.48 C 939.512 2200.47 939.632 2200.47 939.753 2200.46 C 951.535 2200.18 961.849 2207.12 964.91 2217.44 C 969.962 2234.48 970.336 2266.91 970.288 2301.46 C 970.271 2312.8 960.209 2322.18 947.806 2322.48 Z " fill="rgb(255,255,255)"/><linearGradient id="_lgradient_808" x1="0" y1="0" x2="1" y2="0" gradientTransform="matrix(-984.191,1545.98,-1545.98,-984.191,1268.47,2389.81)" gradientUnits="userSpaceOnUse"><stop offset="0%" stop-opacity="1" style="stop-color:rgb(255,237,237)"/><stop offset="100%" stop-opacity="1" style="stop-color:rgb(255,243,243)"/></linearGradient><path d=" M 864.943 2309.6 C 856.329 2309.6 849.082 2303.86 848.092 2296.21 L 840.411 2236.76 C 839.615 2230.61 844.61 2225.03 851.52 2224.39 C 870.161 2222.66 910.644 2217.56 929.886 2216.86 C 930.129 2216.85 930.371 2216.85 930.611 2216.85 C 938.468 2216.85 945.373 2221.53 947.394 2228.34 C 951.44 2241.99 951.609 2269.38 951.574 2294.66 C 951.563 2302.23 944.759 2308.44 936.27 2308.56 L 865.224 2309.6 C 865.131 2309.6 865.036 2309.6 864.943 2309.6 Z " fill="url(#_lgradient_808)"/><linearGradient id="_lgradient_809" x1="0" y1="0" x2="1" y2="0" gradientTransform="matrix(-984.191,1545.98,-1545.98,-984.191,1268.47,2389.81)" gradientUnits="userSpaceOnUse"><stop offset="0%" stop-opacity="1" style="stop-color:rgb(255,237,237)"/><stop offset="100%" stop-opacity="1" style="stop-color:rgb(255,243,243)"/></linearGradient><path d=" M 1042.74 2287.02 C 1035.35 2287.02 1027.71 2281.34 1025.66 2274.25 L 1020.46 2256.31 C 1018.37 2249.11 1022.8 2243.21 1030.3 2243.21 L 1476.42 2243.07 C 1483.92 2243.06 1490.34 2249.19 1490.68 2256.68 L 1490.95 2262.58 C 1491.3 2270.07 1485.45 2276.35 1477.95 2276.53 L 1043.08 2287.02 C 1042.97 2287.02 1042.85 2287.02 1042.74 2287.02 Z " fill="url(#_lgradient_809)"/><linearGradient id="_lgradient_810" x1="0" y1="0" x2="1" y2="0" gradientTransform="matrix(423.618,-1099.73,1099.73,423.618,7846.14,-15802.8)" gradientUnits="userSpaceOnUse"><stop offset="0%" stop-opacity="1" style="stop-color:rgb(254,112,98)"/><stop offset="100%" stop-opacity="1" style="stop-color:rgb(255,146,142)"/></linearGradient><path d=" M 855.586 2235.99 L 855.586 2235.99 C 862.091 2231.96 870.639 2234.07 874.527 2240.66 L 892.816 2271.66 C 894.648 2274.77 899.233 2274.46 900.63 2271.13 L 941.778 2173.28 C 943.831 2168.4 951.062 2169.86 951.109 2175.15 C 951.38 2204.78 944.881 2261.25 898.705 2309.5 C 898.705 2309.5 872.387 2300 850.277 2254.4 C 847.084 2247.81 849.364 2239.85 855.586 2235.99 Z " fill="url(#_lgradient_810)"/><path d=" M 842.94 2607.29 C 839.474 2607.61 836.344 2609.22 834.349 2611.71 C 832.71 2613.76 831.981 2616.24 832.299 2618.69 L 841.913 2693.08 C 842.931 2700.96 850.578 2706.8 859.701 2706.67 L 948.605 2705.38 L 948.779 2705.38 C 957.275 2705.17 964.169 2699.03 964.18 2691.61 C 964.228 2657.61 963.875 2625.76 959.1 2609.65 C 956.982 2602.52 949.13 2597.47 940.802 2597.88 C 924.598 2598.47 895.538 2601.65 872.187 2604.21 C 860.802 2605.46 850.455 2606.59 842.94 2607.29 Z  M 948.952 2712.63 L 948.709 2712.64 L 859.805 2713.93 C 846.994 2714.11 836.208 2705.55 834.718 2694.01 L 825.105 2619.62 C 824.533 2615.19 825.805 2610.78 828.685 2607.18 C 831.903 2603.16 836.854 2600.57 842.269 2600.06 C 849.756 2599.37 860.06 2598.24 871.399 2597 C 896.087 2594.3 924.068 2591.23 940.535 2590.63 C 940.657 2590.62 940.778 2590.62 940.898 2590.62 C 952.682 2590.33 962.995 2597.27 966.056 2607.59 C 971.108 2624.63 971.484 2657.06 971.433 2691.62 C 971.417 2702.95 961.355 2712.33 948.952 2712.63 Z " fill="rgb(255,255,255)"/><linearGradient id="_lgradient_811" x1="0" y1="0" x2="1" y2="0" gradientTransform="matrix(-984.191,1545.98,-1545.98,-984.191,1268.47,2389.81)" gradientUnits="userSpaceOnUse"><stop offset="0%" stop-opacity="1" style="stop-color:rgb(255,237,237)"/><stop offset="100%" stop-opacity="1" style="stop-color:rgb(255,243,243)"/></linearGradient><path d=" M 866.087 2699.75 C 857.474 2699.75 850.228 2694.01 849.238 2686.36 L 841.557 2626.91 C 840.763 2620.76 845.756 2615.18 852.666 2614.54 C 871.307 2612.81 911.791 2607.72 931.032 2607.01 C 931.275 2607 931.518 2607 931.759 2607 C 939.615 2607 946.519 2611.68 948.54 2618.49 C 952.587 2632.14 952.755 2659.53 952.72 2684.81 C 952.709 2692.39 945.905 2698.59 937.416 2698.72 L 866.37 2699.75 C 866.276 2699.75 866.182 2699.75 866.087 2699.75 Z " fill="url(#_lgradient_811)"/><linearGradient id="_lgradient_812" x1="0" y1="0" x2="1" y2="0" gradientTransform="matrix(-984.191,1545.98,-1545.98,-984.191,1268.47,2389.81)" gradientUnits="userSpaceOnUse"><stop offset="0%" stop-opacity="1" style="stop-color:rgb(255,237,237)"/><stop offset="100%" stop-opacity="1" style="stop-color:rgb(255,243,243)"/></linearGradient><path d=" M 1043.88 2677.17 C 1036.49 2677.17 1028.86 2671.49 1026.8 2664.4 L 1021.61 2646.46 C 1019.52 2639.26 1023.95 2633.36 1031.45 2633.36 L 1477.57 2633.22 C 1485.07 2633.21 1491.48 2639.34 1491.83 2646.83 L 1492.1 2652.73 C 1492.45 2660.22 1486.59 2666.5 1479.1 2666.68 L 1044.23 2677.17 C 1044.11 2677.17 1044 2677.17 1043.88 2677.17 Z " fill="url(#_lgradient_812)"/><linearGradient id="_lgradient_813" x1="0" y1="0" x2="1" y2="0" gradientTransform="matrix(423.619,-1099.73,1099.73,423.619,7978.01,-15752)" gradientUnits="userSpaceOnUse"><stop offset="0%" stop-opacity="1" style="stop-color:rgb(254,112,98)"/><stop offset="100%" stop-opacity="1" style="stop-color:rgb(255,146,142)"/></linearGradient><path d=" M 856.733 2626.14 L 856.733 2626.14 C 863.238 2622.11 871.786 2624.22 875.673 2630.81 L 893.962 2661.81 C 895.793 2664.92 900.379 2664.61 901.776 2661.29 L 942.924 2563.43 C 944.977 2558.55 952.208 2560.01 952.256 2565.3 C 952.526 2594.93 946.027 2651.4 899.85 2699.66 C 899.85 2699.66 873.534 2690.15 851.423 2644.55 C 848.23 2637.96 850.51 2630 856.733 2626.14 Z " fill="url(#_lgradient_813)"/><path d=" M 839.035 2790.41 C 835.57 2790.73 832.438 2792.34 830.443 2794.84 C 828.805 2796.89 828.077 2799.36 828.395 2801.81 L 838.009 2876.2 C 839.027 2884.08 846.674 2889.93 855.794 2889.79 L 944.699 2888.51 C 953.075 2888.16 960.263 2882.2 960.276 2874.73 C 960.325 2840.73 959.972 2808.88 955.196 2792.77 C 953.078 2785.64 945.228 2780.68 936.898 2781 C 920.685 2781.59 891.614 2784.78 868.255 2787.34 C 856.882 2788.58 846.545 2789.71 839.035 2790.41 Z  M 945.041 2895.76 L 944.805 2895.76 L 855.899 2897.05 C 843.09 2897.24 832.305 2888.68 830.813 2877.13 L 821.199 2802.75 C 820.628 2798.32 821.901 2793.9 824.779 2790.3 C 827.996 2786.28 832.949 2783.69 838.364 2783.18 C 845.843 2782.49 856.137 2781.37 867.464 2780.13 C 890.942 2777.55 920.159 2774.36 936.633 2773.75 C 948.326 2773.41 959.058 2780.29 962.151 2790.71 C 967.204 2807.75 967.578 2840.18 967.53 2874.74 C 967.514 2886.07 957.445 2895.46 945.041 2895.76 Z " fill="rgb(255,255,255)"/><linearGradient id="_lgradient_814" x1="0" y1="0" x2="1" y2="0" gradientTransform="matrix(-984.191,1545.98,-1545.98,-984.191,1268.47,2389.81)" gradientUnits="userSpaceOnUse"><stop offset="0%" stop-opacity="1" style="stop-color:rgb(255,237,237)"/><stop offset="100%" stop-opacity="1" style="stop-color:rgb(255,243,243)"/></linearGradient><path d=" M 862.183 2882.87 C 853.571 2882.87 846.323 2877.14 845.334 2869.48 L 837.652 2810.04 C 836.858 2803.89 841.852 2798.3 848.762 2797.66 C 867.403 2795.94 907.886 2790.84 927.128 2790.14 C 927.37 2790.13 927.611 2790.12 927.851 2790.12 C 935.708 2790.12 942.615 2794.8 944.637 2801.62 C 948.683 2815.26 948.851 2842.65 948.816 2867.94 C 948.804 2875.51 941.999 2881.72 933.51 2881.84 L 862.466 2882.87 C 862.371 2882.87 862.277 2882.87 862.183 2882.87 Z " fill="url(#_lgradient_814)"/><linearGradient id="_lgradient_815" x1="0" y1="0" x2="1" y2="0" gradientTransform="matrix(-984.191,1545.98,-1545.98,-984.191,1268.47,2389.81)" gradientUnits="userSpaceOnUse"><stop offset="0%" stop-opacity="1" style="stop-color:rgb(255,237,237)"/><stop offset="100%" stop-opacity="1" style="stop-color:rgb(255,243,243)"/></linearGradient><path d=" M 1039.98 2860.3 C 1032.59 2860.3 1024.95 2854.62 1022.9 2847.52 L 1017.7 2829.59 C 1015.61 2822.38 1020.04 2816.49 1027.54 2816.48 L 1473.66 2816.34 C 1481.16 2816.34 1487.58 2822.46 1487.93 2829.96 L 1488.2 2835.85 C 1488.54 2843.35 1482.69 2849.62 1475.19 2849.8 L 1040.32 2860.29 C 1040.21 2860.29 1040.09 2860.3 1039.98 2860.3 Z " fill="url(#_lgradient_815)"/><linearGradient id="_lgradient_816" x1="0" y1="0" x2="1" y2="0" gradientTransform="matrix(423.617,-1099.72,1099.72,423.617,8036.03,-15729.7)" gradientUnits="userSpaceOnUse"><stop offset="0%" stop-opacity="1" style="stop-color:rgb(254,112,98)"/><stop offset="100%" stop-opacity="1" style="stop-color:rgb(255,146,142)"/></linearGradient><path d=" M 852.828 2809.27 L 852.828 2809.27 C 859.333 2805.24 867.881 2807.34 871.77 2813.93 L 890.059 2844.94 C 891.889 2848.04 896.475 2847.73 897.872 2844.41 L 939.02 2746.56 C 941.072 2741.67 948.303 2743.13 948.352 2748.43 C 948.622 2778.05 942.123 2834.52 895.946 2882.78 C 895.946 2882.78 869.629 2873.28 847.519 2827.67 C 844.326 2821.09 846.606 2813.12 852.828 2809.27 Z " fill="url(#_lgradient_816)"/><path d=" M 833.488 2979.3 C 830.021 2979.62 826.891 2981.23 824.898 2983.72 C 823.259 2985.76 822.53 2988.25 822.848 2990.7 L 832.462 3065.09 C 833.48 3072.97 841.128 3078.81 850.25 3078.68 L 939.153 3077.39 L 939.329 3077.39 C 947.824 3077.18 954.718 3071.03 954.73 3063.61 C 954.778 3029.62 954.424 2997.76 949.649 2981.66 C 947.532 2974.53 939.684 2969.66 931.352 2969.88 C 915.145 2970.48 886.087 2973.66 862.736 2976.22 C 851.351 2977.47 841.004 2978.6 833.488 2979.3 Z  M 939.501 3084.64 L 939.258 3084.64 L 850.354 3085.93 C 837.542 3086.12 826.757 3077.56 825.267 3066.02 L 815.653 2991.63 C 815.081 2987.2 816.354 2982.79 819.234 2979.19 C 822.452 2975.16 827.403 2972.57 832.818 2972.07 C 840.305 2971.38 850.608 2970.25 861.947 2969.01 C 886.635 2966.3 914.617 2963.24 931.084 2962.63 C 943.163 2962.5 953.513 2969.17 956.605 2979.6 C 961.657 2996.64 962.033 3029.07 961.983 3063.62 C 961.967 3074.96 951.904 3084.34 939.501 3084.64 Z " fill="rgb(255,255,255)"/><linearGradient id="_lgradient_817" x1="0" y1="0" x2="1" y2="0" gradientTransform="matrix(-984.191,1545.98,-1545.98,-984.191,1268.47,2389.81)" gradientUnits="userSpaceOnUse"><stop offset="0%" stop-opacity="1" style="stop-color:rgb(255,237,237)"/><stop offset="100%" stop-opacity="1" style="stop-color:rgb(255,243,243)"/></linearGradient><path d=" M 856.635 3071.76 C 848.023 3071.76 840.777 3066.02 839.787 3058.36 L 832.106 2998.92 C 831.311 2992.77 836.305 2987.19 843.215 2986.55 C 861.857 2984.82 902.34 2979.72 921.581 2979.02 C 921.824 2979.01 922.066 2979 922.307 2979 C 930.163 2979 937.069 2983.68 939.09 2990.5 C 943.136 3004.15 943.304 3031.54 943.27 3056.82 C 943.259 3064.39 936.454 3070.6 927.965 3070.72 L 856.92 3071.75 C 856.825 3071.76 856.73 3071.76 856.635 3071.76 Z " fill="url(#_lgradient_817)"/><linearGradient id="_lgradient_818" x1="0" y1="0" x2="1" y2="0" gradientTransform="matrix(-984.191,1545.98,-1545.98,-984.191,1268.47,2389.81)" gradientUnits="userSpaceOnUse"><stop offset="0%" stop-opacity="1" style="stop-color:rgb(255,237,237)"/><stop offset="100%" stop-opacity="1" style="stop-color:rgb(255,243,243)"/></linearGradient><path d=" M 1034.43 3049.18 C 1027.04 3049.18 1019.41 3043.5 1017.35 3036.41 L 1012.15 3018.47 C 1010.07 3011.26 1014.5 3005.37 1022 3005.37 L 1468.12 3005.22 C 1475.62 3005.22 1482.03 3011.35 1482.38 3018.84 L 1482.65 3024.74 C 1483 3032.23 1477.14 3038.51 1469.65 3038.69 L 1034.78 3049.18 C 1034.66 3049.18 1034.55 3049.18 1034.43 3049.18 Z " fill="url(#_lgradient_818)"/><linearGradient id="_lgradient_819" x1="0" y1="0" x2="1" y2="0" gradientTransform="matrix(423.619,-1099.73,1099.73,423.619,8094.56,-15707.1)" gradientUnits="userSpaceOnUse"><stop offset="0%" stop-opacity="1" style="stop-color:rgb(254,112,98)"/><stop offset="100%" stop-opacity="1" style="stop-color:rgb(255,146,142)"/></linearGradient><path d=" M 847.282 2998.15 L 847.282 2998.15 C 853.787 2994.12 862.335 2996.23 866.223 3002.82 L 884.512 3033.82 C 886.343 3036.92 890.928 3036.61 892.325 3033.29 L 933.473 2935.44 C 935.526 2930.56 942.757 2932.02 942.805 2937.31 C 943.075 2966.93 936.576 3023.41 890.4 3071.66 C 890.4 3071.66 864.083 3062.16 841.973 3016.56 C 838.779 3009.97 841.06 3002.01 847.282 2998.15 Z " fill="url(#_lgradient_819)"/><linearGradient id="_lgradient_820" x1="0" y1="0" x2="1" y2="0" gradientTransform="matrix(-530.658,238.17,-238.17,-530.658,1339.14,1755.51)" gradientUnits="userSpaceOnUse"><stop offset="0%" stop-opacity="1" style="stop-color:rgb(9,0,93)"/><stop offset="100%" stop-opacity="1" style="stop-color:rgb(26,15,145)"/></linearGradient><path d=" M 1148.91 1856.05 C 1136.56 1855.95 1126.64 1845.86 1126.74 1833.52 C 1126.85 1821.18 1136.93 1811.25 1149.28 1811.35 C 1161.62 1811.46 1171.54 1821.55 1171.44 1833.89 C 1171.34 1846.23 1161.25 1856.16 1148.91 1856.05 Z  M 1188.87 1790.05 C 1160.5 1769.97 1135.69 1770.15 1118.18 1775.16 C 1102.21 1779.73 1091.75 1795.03 1093.13 1811.59 L 1099.98 1893.86 L 1189.55 1902.56 C 1189.55 1902.56 1244.51 1829.45 1188.87 1790.05 Z " fill-rule="evenodd" fill="url(#_lgradient_820)"/><path d=" M 1105.55 1835.67 C 1103.99 1835.08 1102.83 1833.65 1102.68 1831.88 L 1101.85 1821.93 C 1100.45 1805.08 1111.18 1789.49 1127.36 1784.86 C 1138.44 1781.69 1149.84 1781.31 1161.23 1783.74 C 1163.59 1784.29 1165.16 1786.61 1164.65 1789.01 C 1164.13 1791.41 1161.78 1792.94 1159.38 1792.43 C 1149.42 1790.3 1139.47 1790.63 1129.8 1793.39 C 1117.68 1796.86 1109.65 1808.55 1110.7 1821.2 L 1111.53 1831.15 C 1111.73 1833.59 1109.92 1835.73 1107.47 1835.94 C 1106.8 1835.99 1106.14 1835.89 1105.55 1835.67 Z  M 1107.68 1861.35 C 1106.13 1860.76 1104.96 1859.33 1104.82 1857.56 L 1103.73 1844.45 C 1103.52 1842.01 1105.34 1839.87 1107.78 1839.66 C 1110.22 1839.45 1112.37 1841.27 1112.58 1843.72 L 1113.67 1856.82 C 1113.87 1859.27 1112.06 1861.41 1109.61 1861.61 C 1108.94 1861.67 1108.28 1861.57 1107.68 1861.35 Z " fill="rgb(189,208,251)"/><linearGradient id="_lgradient_821" x1="0" y1="0" x2="1" y2="0" gradientTransform="matrix(-367.343,474.996,-474.996,-367.343,1317.61,1703.49)" gradientUnits="userSpaceOnUse"><stop offset="0%" stop-opacity="1" style="stop-color:rgb(9,0,93)"/><stop offset="100%" stop-opacity="1" style="stop-color:rgb(26,15,145)"/></linearGradient><path d=" M 977.214 1945.99 L 977.556 1904.65 C 977.672 1890.38 989.594 1879.05 1003.85 1879.66 L 1288.76 1891.77 C 1301.4 1892.31 1311.57 1902.38 1312.22 1915.02 L 1314.27 1954.75 L 977.214 1945.99 Z " fill="url(#_lgradient_821)"/><path d=" M 1071.62 1896.21 C 1070.21 1896.19 1069.07 1895.03 1069.08 1893.61 C 1069.1 1892.18 1070.26 1891.04 1071.69 1891.05 L 1083.94 1891.15 C 1085.43 1891.18 1086.51 1892.33 1086.5 1893.75 C 1086.49 1895.18 1085.32 1896.32 1083.9 1896.31 L 1071.64 1896.21 L 1071.62 1896.21 Z " fill="rgb(189,208,251)"/><path d=" M 991.203 1935.13 C 989.509 1934.49 988.31 1932.85 988.327 1930.93 L 988.464 1914.21 C 988.52 1907.34 991.246 1900.91 996.142 1896.1 C 1001.04 1891.28 1007.52 1888.66 1014.38 1888.71 L 1059.44 1889.09 C 1061.88 1889.12 1063.87 1891.11 1063.84 1893.57 C 1063.82 1896.02 1061.82 1897.99 1059.37 1897.97 L 1014.31 1897.59 C 1005.03 1897.52 997.418 1905 997.343 1914.29 L 997.204 1931.01 C 997.183 1933.46 995.179 1935.43 992.726 1935.41 C 992.192 1935.41 991.679 1935.31 991.203 1935.13 Z " fill="rgb(189,208,251)"/><linearGradient id="_lgradient_822" x1="0" y1="0" x2="1" y2="0" gradientTransform="matrix(-254.732,458.635,-458.635,-254.732,1271.58,1732.34)" gradientUnits="userSpaceOnUse"><stop offset="0%" stop-opacity="1" style="stop-color:rgb(9,0,93)"/><stop offset="100%" stop-opacity="1" style="stop-color:rgb(26,15,145)"/></linearGradient><path d=" M 888.041 1930.12 L 1386.4 1934.22 C 1404.32 1934.37 1419.53 1947.39 1422.44 1965.07 L 1422.85 1967.51 C 1426.03 1986.88 1411 2004.45 1391.37 2004.29 L 880.083 2000.06 C 868.336 1999.97 859.056 1990.07 859.716 1978.34 L 861.006 1955.46 C 861.812 1941.16 873.71 1930 888.041 1930.12 Z " fill="url(#_lgradient_822)"/><linearGradient id="_lgradient_823" x1="0" y1="0" x2="1" y2="0" gradientTransform="matrix(-159.501,0,0,159.501,2946.47,3240.23)" gradientUnits="userSpaceOnUse"><stop offset="0%" stop-opacity="1" style="stop-color:rgb(79,82,255)"/><stop offset="100%" stop-opacity="1" style="stop-color:rgb(64,66,226)"/></linearGradient><path d=" M 2791.48 3232.51 C 2818.8 3234.87 2866.23 3238.71 2903.61 3240.35 C 2926.08 3241.34 2939.02 3239.14 2946.47 3236.16 C 2946.46 3237 2946.44 3237.79 2946.41 3238.53 C 2946.23 3242.46 2943.03 3245.61 2939.06 3245.83 C 2868.42 3249.78 2812.23 3247.2 2792.23 3245.98 C 2788.1 3245.73 2785.63 3241.24 2787.75 3237.71 C 2788.8 3235.95 2790.09 3234.22 2791.48 3232.51 Z " fill="url(#_lgradient_823)"/><linearGradient id="_lgradient_824" x1="0" y1="0" x2="1" y2="0" gradientTransform="matrix(-155.006,0,0,155.006,2946.48,3208.97)" gradientUnits="userSpaceOnUse"><stop offset="0%" stop-opacity="1" style="stop-color:rgb(9,0,93)"/><stop offset="100%" stop-opacity="1" style="stop-color:rgb(26,15,145)"/></linearGradient><path d=" M 2903.61 3240.35 C 2866.23 3238.71 2818.8 3234.87 2791.48 3232.51 C 2818.34 3199.55 2903.61 3177.34 2903.61 3177.34 L 2927.69 3177.34 C 2944.26 3201.21 2946.66 3223.94 2946.47 3236.16 C 2939.02 3239.14 2926.08 3241.34 2903.61 3240.35 Z " fill="url(#_lgradient_824)"/><linearGradient id="_lgradient_825" x1="0" y1="0" x2="1" y2="0" gradientTransform="matrix(-44.928,0,0,44.928,2931.75,3165.32)" gradientUnits="userSpaceOnUse"><stop offset="0%" stop-opacity="1" style="stop-color:rgb(254,187,186)"/><stop offset="100%" stop-opacity="1" style="stop-color:rgb(255,146,142)"/></linearGradient><path d=" M 2931.75 3138.02 L 2929.5 3182.62 C 2929.25 3187.45 2925.64 3191.5 2920.8 3192.2 C 2915.99 3192.88 2909.54 3192.97 2902.71 3190.7 C 2898.5 3189.3 2895.38 3185.75 2894.61 3181.43 L 2886.82 3138.02 L 2931.75 3138.02 Z " fill="url(#_lgradient_825)"/><linearGradient id="_lgradient_826" x1="0" y1="0" x2="1" y2="0" gradientTransform="matrix(-61.123,0,0,61.123,3264.45,3236.79)" gradientUnits="userSpaceOnUse"><stop offset="0%" stop-opacity="1" style="stop-color:rgb(79,82,255)"/><stop offset="100%" stop-opacity="1" style="stop-color:rgb(64,66,226)"/></linearGradient><path d=" M 3244.55 3240.02 C 3256.4 3238.37 3261.76 3232.21 3264.01 3225.63 L 3264.05 3225.81 C 3265.8 3232.75 3261.75 3239.94 3253.67 3243.37 C 3243.91 3247.5 3233.23 3248.21 3224.94 3247.86 C 3216.05 3247.5 3207.88 3243.82 3203.4 3237.93 L 3203.33 3237.84 C 3212.26 3242.26 3224.79 3242.78 3244.55 3240.02 Z " fill="url(#_lgradient_826)"/><linearGradient id="_lgradient_827" x1="0" y1="0" x2="1" y2="0" gradientTransform="matrix(-89.717,0,0,89.717,3264.01,3189.72)" gradientUnits="userSpaceOnUse"><stop offset="0%" stop-opacity="1" style="stop-color:rgb(9,0,93)"/><stop offset="100%" stop-opacity="1" style="stop-color:rgb(26,15,145)"/></linearGradient><path d=" M 3188.68 3137.73 L 3208.54 3137.73 C 3238.79 3137.12 3257.79 3200.92 3264.01 3225.63 C 3261.76 3232.21 3256.4 3238.37 3244.55 3240.02 C 3224.79 3242.78 3212.26 3242.26 3203.33 3237.84 C 3186.99 3216.33 3178.88 3184.83 3174.99 3166.45 C 3170.56 3145.54 3188.68 3137.73 3188.68 3137.73 Z " fill="url(#_lgradient_827)"/><linearGradient id="_lgradient_828" x1="0" y1="0" x2="1" y2="0" gradientTransform="matrix(-53.693,0,0,53.693,3217.38,3127.87)" gradientUnits="userSpaceOnUse"><stop offset="0%" stop-opacity="1" style="stop-color:rgb(254,187,186)"/><stop offset="100%" stop-opacity="1" style="stop-color:rgb(255,146,142)"/></linearGradient><path d=" M 3205.99 3096.34 L 3217.02 3140.2 C 3218.37 3145.58 3215.8 3151.14 3210.82 3153.7 C 3204.65 3156.86 3195.97 3160.19 3187.99 3159.23 C 3184.23 3158.77 3181.11 3156.13 3179.87 3152.59 L 3163.68 3106.45 L 3205.99 3096.34 Z " fill="url(#_lgradient_828)"/><linearGradient id="_lgradient_829" x1="0" y1="0" x2="1" y2="0" gradientTransform="matrix(-281.393,1112.17,-1112.17,-281.393,3317.8,1596.72)" gradientUnits="userSpaceOnUse"><stop offset="0%" stop-opacity="1" style="stop-color:rgb(79,82,255)"/><stop offset="100%" stop-opacity="1" style="stop-color:rgb(64,66,226)"/></linearGradient><path d=" M 3219.14 3109.02 C 3205.42 3121.19 3160.79 3122.8 3160.79 3122.8 C 3000.03 2736.96 2934.27 2682.14 2934.27 2682.14 C 2957.48 2827.77 2938.01 3150.19 2938.01 3150.19 C 2911.49 3161.9 2877.28 3150.19 2877.28 3150.19 C 2875.13 2911.77 2838.48 2703.84 2795.19 2539.92 C 2903.84 2537.47 2961.63 2500.29 2980.49 2485.37 C 3071.07 2631.39 3219.14 3109.02 3219.14 3109.02 Z " fill="url(#_lgradient_829)"/><linearGradient id="_lgradient_830" x1="0" y1="0" x2="1" y2="0" gradientTransform="matrix(-475.521,756.742,-756.742,-475.521,2956.54,2103.26)" gradientUnits="userSpaceOnUse"><stop offset="0%" stop-opacity="1" style="stop-color:rgb(254,112,98)"/><stop offset="100%" stop-opacity="1" style="stop-color:rgb(255,146,142)"/></linearGradient><path d=" M 2952.9 2041.65 C 2973.47 2144.23 2966.09 2327.84 2961.25 2411.59 C 2959.89 2435.13 2976.32 2467.76 2989.61 2490.02 C 2991.69 2493.51 2990.4 2497.98 2986.79 2499.84 C 2964.55 2511.27 2889.22 2546.69 2801.91 2551.1 C 2796.09 2551.39 2790.89 2547.42 2789.38 2541.79 C 2724.62 2299.98 2649.4 2145.45 2649.4 2145.45 C 2732.45 2012.83 2952.9 2041.65 2952.9 2041.65 Z " fill="url(#_lgradient_830)"/><path d=" M 2923.3 2673.01 C 2924.21 2673.01 2925.14 2672.76 2925.98 2672.25 C 2928.4 2670.77 2929.17 2667.61 2927.7 2665.18 C 2926.83 2663.76 2906.04 2630.15 2863.96 2609.85 C 2861.4 2608.62 2858.32 2609.68 2857.08 2612.24 C 2855.84 2614.8 2856.92 2617.89 2859.48 2619.12 C 2898.71 2638.05 2918.7 2670.22 2918.9 2670.54 C 2919.87 2672.13 2921.57 2673.01 2923.3 2673.01 Z " fill="rgb(145,179,250)"/><linearGradient id="_lgradient_831" x1="0" y1="0" x2="1" y2="0" gradientTransform="matrix(191.139,169.258,169.258,-191.139,2971.38,2345.21)" gradientUnits="userSpaceOnUse"><stop offset="0%" stop-opacity="1" style="stop-color:rgb(254,187,186)"/><stop offset="100%" stop-opacity="1" style="stop-color:rgb(255,146,142)"/></linearGradient><path d=" M 3081.9 2336.06 C 3075.29 2383.85 3055.78 2435.98 3016.73 2491.35 L 3001.89 2479.25 C 3001.89 2479.25 3019.02 2409.73 3009.28 2330.84 C 3033.37 2326.14 3061.81 2330.98 3081.9 2336.06 Z " fill="url(#_lgradient_831)"/><linearGradient id="_lgradient_832" x1="0" y1="0" x2="1" y2="0" gradientTransform="matrix(-475.52,756.741,-756.741,-475.52,3038.73,2154.91)" gradientUnits="userSpaceOnUse"><stop offset="0%" stop-opacity="1" style="stop-color:rgb(254,112,98)"/><stop offset="100%" stop-opacity="1" style="stop-color:rgb(255,146,142)"/></linearGradient><path d=" M 2929.93 2168.23 L 2952.9 2041.65 C 2952.9 2041.65 3106.38 2158.97 3081.9 2336.06 C 3061.81 2330.98 3033.37 2326.14 3009.28 2330.84 C 3002.27 2274.01 2981.31 2212.31 2929.93 2168.23 Z " fill="url(#_lgradient_832)"/><linearGradient id="_lgradient_833" x1="0" y1="0" x2="1" y2="0" gradientTransform="matrix(-475.521,756.741,-756.741,-475.521,2812.84,2012.96)" gradientUnits="userSpaceOnUse"><stop offset="0%" stop-opacity="1" style="stop-color:rgb(254,112,98)"/><stop offset="100%" stop-opacity="1" style="stop-color:rgb(255,146,142)"/></linearGradient><path d=" M 2649.4 2145.45 L 2708.64 2273.04 C 2699.06 2350.07 2657.68 2383.38 2613.07 2396.15 C 2610.28 2361.05 2601.41 2332.68 2593.17 2313.06 C 2650.18 2254.21 2649.4 2145.45 2649.4 2145.45 Z " fill="url(#_lgradient_833)"/><linearGradient id="_lgradient_834" x1="0" y1="0" x2="1" y2="0" gradientTransform="matrix(-150.531,0,0,150.531,2613.07,2361.22)" gradientUnits="userSpaceOnUse"><stop offset="0%" stop-opacity="1" style="stop-color:rgb(254,187,186)"/><stop offset="100%" stop-opacity="1" style="stop-color:rgb(255,146,142)"/></linearGradient><path d=" M 2593.17 2313.06 C 2601.41 2332.68 2610.28 2361.05 2613.07 2396.15 C 2494.03 2442.34 2462.53 2352.77 2462.53 2352.77 L 2484.53 2348.89 C 2534.21 2354.12 2568.92 2338.1 2593.17 2313.06 Z " fill="url(#_lgradient_834)"/><linearGradient id="_lgradient_835" x1="0" y1="0" x2="1" y2="0" gradientTransform="matrix(1.644,281.105,281.105,-1.644,2759.38,1958.95)" gradientUnits="userSpaceOnUse"><stop offset="0%" stop-opacity="1" style="stop-color:rgb(254,187,186)"/><stop offset="100%" stop-opacity="1" style="stop-color:rgb(255,146,142)"/></linearGradient><path d=" M 2703.98 1987.94 L 2732.58 2093.08 C 2735.79 2104.89 2748.57 2111.23 2759.93 2106.69 C 2772.2 2101.78 2787.76 2095.09 2801.16 2087.86 C 2815.46 2080.14 2819.93 2061.74 2810.88 2048.25 L 2751.42 1959.59 L 2703.98 1987.94 Z " fill="url(#_lgradient_835)"/><linearGradient id="_lgradient_836" x1="0" y1="0" x2="1" y2="0" gradientTransform="matrix(-788.264,0,0,788.264,3177.78,2471.49)" gradientUnits="userSpaceOnUse"><stop offset="0%" stop-opacity="1" style="stop-color:rgb(9,0,93)"/><stop offset="100%" stop-opacity="1" style="stop-color:rgb(26,15,145)"/></linearGradient><path d=" M 2407.98 2282.41 L 3140.84 2549.14 C 3171.58 2560.33 3186.27 2595.33 3172.73 2625.11 L 3170.51 2629.99 C 3158.53 2656.34 3127.39 2667.89 3101.12 2655.74 L 2389.52 2326.55 L 2407.98 2282.41 Z " fill="url(#_lgradient_836)"/><path d=" M 1719.6 2206.29 C 1712.89 2179.26 1709.34 2151.03 1709.34 2121.96 C 1709.34 2045.86 1733.71 1975.36 1775.2 1917.55 L 1775.2 1991.39 C 1775.2 2011.38 1805.19 2027.58 1842.19 2027.58 L 2300.19 2027.58 C 2337.19 2027.58 2367.18 2011.38 2367.18 1991.39 L 2367.18 1917.74 C 2408.59 1975.51 2432.9 2045.94 2432.9 2121.96 C 2432.9 2137.01 2431.95 2151.84 2430.09 2166.4 L 1772.08 2175.98 C 1749.2 2176.31 1729.56 2188.57 1719.6 2206.29 Z " fill="rgb(170,197,251)"/><path d=" M 2071.12 2477.21 C 1900.91 2477.21 1758.16 2361.78 1719.6 2206.29 C 1729.56 2188.57 1749.2 2176.31 1772.08 2175.98 L 2430.09 2166.4 C 2407.82 2341.62 2255.6 2477.21 2071.12 2477.21 Z " fill="rgb(204,219,252)"/><path d=" M 2300.19 2027.58 L 1842.19 2027.58 C 1805.19 2027.58 1775.2 2011.38 1775.2 1991.39 L 1775.2 1917.55 C 1840.68 1826.32 1948.82 1766.71 2071.12 1766.71 C 2193.51 1766.71 2301.71 1826.4 2367.18 1917.74 L 2367.18 1991.39 C 2367.18 2011.38 2337.19 2027.58 2300.19 2027.58 Z " fill="rgb(204,219,252)"/><linearGradient id="_lgradient_837" x1="0" y1="0" x2="1" y2="0" gradientTransform="matrix(-805.121,0,0,805.121,2473.68,2121.96)" gradientUnits="userSpaceOnUse"><stop offset="0%" stop-opacity="1" style="stop-color:rgb(9,0,93)"/><stop offset="100%" stop-opacity="1" style="stop-color:rgb(26,15,145)"/></linearGradient><path d=" M 1727.7 2121.96 C 1727.7 1935.71 1881.45 1784.73 2071.12 1784.73 C 2260.79 1784.73 2414.55 1935.71 2414.55 2121.96 C 2414.55 2308.21 2260.79 2459.19 2071.12 2459.19 C 1881.45 2459.19 1727.7 2308.21 1727.7 2121.96 Z  M 1668.56 2121.96 C 1668.56 2340.28 1848.79 2517.26 2071.12 2517.26 C 2293.45 2517.26 2473.68 2340.28 2473.68 2121.96 C 2473.68 1903.65 2293.45 1726.66 2071.12 1726.66 C 1848.79 1726.66 1668.56 1903.65 1668.56 2121.96 Z " fill-rule="evenodd" fill="url(#_lgradient_837)"/><path d=" M 2440.31 2059.4 C 2439.5 2059.4 2438.78 2058.82 2438.63 2057.99 C 2434.13 2032.88 2426.91 2008.18 2417.18 1984.57 C 2359.83 1845.44 2223.99 1755.55 2071.12 1755.55 C 1999.83 1755.55 1930.53 1775.35 1870.71 1812.81 C 1869.92 1813.31 1868.86 1813.07 1868.36 1812.27 C 1867.86 1811.47 1868.1 1810.42 1868.9 1809.92 C 1929.26 1772.12 1999.19 1752.14 2071.12 1752.14 C 2225.38 1752.14 2362.45 1842.86 2420.33 1983.27 C 2430.16 2007.1 2437.44 2032.04 2441.99 2057.39 C 2442.16 2058.32 2441.54 2059.2 2440.61 2059.37 C 2440.51 2059.39 2440.41 2059.4 2440.31 2059.4 Z  M 2443.08 2169.93 L 2442.86 2169.92 C 2441.92 2169.8 2441.26 2168.94 2441.38 2168.01 C 2442.56 2158.78 2443.39 2149.36 2443.86 2140.01 C 2443.91 2139.07 2444.74 2138.34 2445.64 2138.39 C 2446.58 2138.44 2447.31 2139.24 2447.26 2140.18 C 2446.79 2149.62 2445.95 2159.13 2444.76 2168.44 C 2444.65 2169.3 2443.92 2169.93 2443.08 2169.93 Z " fill="rgb(189,208,251)"/><linearGradient id="_lgradient_838" x1="0" y1="0" x2="1" y2="0" gradientTransform="matrix(191.142,169.26,169.26,-191.142,2895.9,2430.45)" gradientUnits="userSpaceOnUse"><stop offset="0%" stop-opacity="1" style="stop-color:rgb(254,187,186)"/><stop offset="100%" stop-opacity="1" style="stop-color:rgb(255,146,142)"/></linearGradient><path d=" M 3008.01 2477.14 L 2938.73 2471.49 L 2908.72 2499.15 C 2908.72 2499.15 2915.82 2508.96 2938.01 2503.32 C 2960.21 2497.68 2990.61 2496.3 2990.61 2496.3 C 2990.61 2496.3 3021.24 2510.11 3021.62 2484.27 L 3008.01 2477.14 Z " fill="url(#_lgradient_838)"/><linearGradient id="_lgradient_839" x1="0" y1="0" x2="1" y2="0" gradientTransform="matrix(-53.906,0,0,53.906,2478.53,2343.54)" gradientUnits="userSpaceOnUse"><stop offset="0%" stop-opacity="1" style="stop-color:rgb(254,187,186)"/><stop offset="100%" stop-opacity="1" style="stop-color:rgb(255,146,142)"/></linearGradient><path d=" M 2471.36 2369.16 C 2465.37 2373.84 2444.84 2364.06 2432.28 2357.31 C 2426.16 2354.01 2423.19 2346.86 2425.29 2340.23 C 2428.31 2330.7 2433.35 2318.39 2439.56 2316.84 C 2449.85 2314.27 2496.05 2349.87 2471.36 2369.16 Z " fill="url(#_lgradient_839)"/><path d=" M 3126.38 2644.49 C 3125.68 2644.49 3125.02 2644.05 3124.77 2643.34 C 3124.47 2642.45 3124.94 2641.48 3125.83 2641.18 C 3146.93 2633.88 3157.99 2622 3158.69 2605.89 C 3159.4 2589.59 3149.1 2574.44 3133.06 2568.18 L 3045.07 2533.87 C 3044.19 2533.53 3043.75 2532.54 3044.1 2531.66 C 3044.44 2530.78 3045.42 2530.35 3046.3 2530.69 L 3134.3 2565.01 C 3151.7 2571.79 3162.86 2588.28 3162.09 2606.04 C 3161.33 2623.69 3149.5 2636.6 3126.94 2644.4 C 3126.76 2644.46 3126.57 2644.49 3126.38 2644.49 Z " fill="rgb(189,208,251)"/><path d=" M 3018.57 2523.41 C 3018.36 2523.41 3018.16 2523.38 3017.95 2523.3 L 3006.55 2518.85 C 3005.67 2518.51 3005.24 2517.52 3005.58 2516.64 C 3005.92 2515.76 3006.9 2515.33 3007.79 2515.67 L 3019.19 2520.12 C 3020.07 2520.46 3020.5 2521.45 3020.16 2522.33 C 3019.9 2523 3019.25 2523.41 3018.57 2523.41 Z " fill="rgb(189,208,251)"/><linearGradient id="_lgradient_840" x1="0" y1="0" x2="1" y2="0" gradientTransform="matrix(135.33,103.548,103.548,-135.33,2692.84,1932.59)" gradientUnits="userSpaceOnUse"><stop offset="0%" stop-opacity="1" style="stop-color:rgb(254,187,186)"/><stop offset="100%" stop-opacity="1" style="stop-color:rgb(255,146,142)"/></linearGradient><path d=" M 2697.8 1884.72 C 2697.8 1884.72 2674.13 1939.1 2672.54 1967.64 C 2670.95 1996.19 2664.8 2014.71 2697.8 2020.46 C 2730.8 2026.2 2758.61 2009.76 2773.67 1981.33 C 2773.67 1981.33 2797.27 1937.52 2791.97 1919.58 C 2786.68 1901.64 2697.8 1884.72 2697.8 1884.72 Z " fill="url(#_lgradient_840)"/><linearGradient id="_lgradient_841" x1="0" y1="0" x2="1" y2="0" gradientTransform="matrix(-122.543,157.774,157.774,122.543,2787.91,1850.85)" gradientUnits="userSpaceOnUse"><stop offset="0%" stop-opacity="1" style="stop-color:rgb(9,0,93)"/><stop offset="100%" stop-opacity="1" style="stop-color:rgb(26,15,145)"/></linearGradient><path d=" M 2762.39 1960.89 L 2758.22 1960.89 C 2758.22 1960.89 2775.41 1925.63 2760.3 1919.43 C 2745.2 1913.24 2685.37 1901.04 2672.46 1879.81 C 2660.01 1859.34 2671.11 1832.91 2687.72 1825.51 C 2688.77 1825.04 2690.01 1825.53 2690.54 1826.55 L 2691.92 1829.15 C 2692.86 1830.94 2695.49 1830.67 2696.05 1828.73 C 2696.59 1826.89 2699.06 1826.49 2700.07 1828.11 C 2704.02 1834.46 2714.72 1844.79 2743.42 1850.08 C 2784.14 1857.6 2811.06 1874.08 2811.72 1902.22 C 2811.77 1904 2813.67 1904.99 2815.2 1904.06 C 2818.2 1902.23 2823.01 1901.37 2829.44 1906.77 C 2840.62 1916.17 2836.05 1940.56 2811.54 1960.63 C 2810.37 1961.58 2810.38 1963.4 2811.64 1964.22 C 2816.09 1967.11 2822.71 1973.99 2805.54 1983.17 C 2787.99 1992.55 2777.6 1991.53 2773.68 1990.53 C 2772.62 1990.26 2771.91 1989.3 2771.98 1988.21 L 2773.52 1963.27 C 2773.6 1961.98 2772.58 1960.89 2771.28 1960.89 L 2762.39 1960.89 Z " fill="url(#_lgradient_841)"/><linearGradient id="_lgradient_842" x1="0" y1="0" x2="1" y2="0" gradientTransform="matrix(135.328,103.547,103.547,-135.328,2709.62,1910.65)" gradientUnits="userSpaceOnUse"><stop offset="0%" stop-opacity="1" style="stop-color:rgb(254,187,186)"/><stop offset="100%" stop-opacity="1" style="stop-color:rgb(255,146,142)"/></linearGradient><path d=" M 2761.36 1966.11 C 2761.36 1966.11 2770.39 1931.37 2785.97 1941.11 C 2801.54 1950.85 2777.89 1980.03 2765.37 1981.33 L 2761.36 1966.11 Z " fill="url(#_lgradient_842)"/><linearGradient id="_lgradient_843" x1="0" y1="0" x2="1" y2="0" gradientTransform="matrix(695.386,-1354.98,1354.98,695.386,1891.49,2353.94)" gradientUnits="userSpaceOnUse"><stop offset="0%" stop-opacity="1" style="stop-color:rgb(254,112,98)"/><stop offset="100%" stop-opacity="1" style="stop-color:rgb(255,146,142)"/></linearGradient><path d=" M 1877.75 1991.62 C 1938.7 2051.52 1991.39 2113.76 2037.35 2177.91 C 2105.83 2021.78 2178.82 1876.72 2257.83 1746.42 L 2451.59 1681.84 C 2318.11 1855.89 2175.82 2115.24 2054.17 2375.37 C 1966.22 2251.41 1878.34 2127.7 1814.95 2083.81 L 1877.75 1991.62 Z " fill="url(#_lgradient_843)"/></g></g></g></svg>