<svg id="Capa_1" enable-background="new 0 0 512 512" height="512" viewBox="0 0 512 512" width="512" xmlns="http://www.w3.org/2000/svg"><g><g id="Page-1_17_"><g id="_x30_18---Mobile-Phone-Crack"><path id="Shape_47_" d="m375.467 512c18.851 0 34.133-15.282 34.133-34.133v-443.734c0-18.851-15.282-34.133-34.133-34.133h-238.934c-18.851 0-34.133 15.282-34.133 34.133v443.733c0 18.851 15.282 34.133 34.133 34.133h238.934zm-53.837-494.933-10.948 11.673c-3.224 3.439-7.728 5.391-12.442 5.393h-84.48c-4.716-.006-9.22-1.957-12.45-5.393l-10.94-11.674h131.26zm-202.163 17.066c0-9.426 7.641-17.067 17.067-17.067h30.438l21.888 23.347c6.463 6.868 15.47 10.769 24.9 10.786h84.48c9.432-.011 18.441-3.914 24.9-10.786l21.888-23.347h30.438c9.426 0 17.067 7.641 17.067 17.067v401.067c0 9.426-7.641 17.067-17.067 17.067h-238.933c-9.426 0-17.067-7.641-17.067-17.067v-401.067zm0 443.734v-13.278c5.166 3.071 11.057 4.709 17.067 4.745h238.933c6.01-.035 11.901-1.673 17.067-4.745v13.278c0 9.426-7.641 17.067-17.067 17.067h-238.934c-9.425-.001-17.066-7.642-17.066-17.067z"/><path id="Shape_46_" d="m145.067 264.533h30.601l19.866 19.874-7.125 35.652-23.774 23.774c-2.283 2.286-3.079 5.665-2.057 8.73l8.533 25.6c.963 2.896 3.399 5.059 6.389 5.672s6.08-.414 8.107-2.697c2.027-2.282 2.681-5.473 1.718-8.369l-6.827-20.599 20.437-20.48 43.11-14.37 11.955 18.04v57.173c0 2.263.9 4.433 2.5 6.033l25.6 25.6c3.348 3.234 8.671 3.188 11.962-.104 3.292-3.292 3.338-8.614.104-11.962l-23.1-23.1v-53.64l12.297-18.449 26.01 6.502 40.96 40.96c3.348 3.234 8.671 3.188 11.962-.104 3.292-3.292 3.338-8.614.104-11.962l-41.685-41.685-13.662-27.315 27.306-27.307h30.575c4.713 0 8.533-3.82 8.533-8.533s-3.82-8.533-8.533-8.533h-32.742l-18.458-6.153v-25.421l32.7-49.05c1.692-2.536 1.902-5.783.552-8.517-1.351-2.734-4.057-4.539-7.1-4.736s-5.959 1.244-7.651 3.781l-32.879 49.314-23.305 11.682-4.395-13.184 24.32-56.755c.99-2.306.915-4.931-.205-7.177l-17.067-34.133c-1.363-2.729-4.078-4.523-7.122-4.707s-5.956 1.27-7.637 3.814c-1.682 2.544-1.878 5.793-.515 8.521l15.317 30.592-23.04 53.76-19.755 13.167-36.873-14.754-26.88-26.846 28.1-28.1c2.173-2.174 3.008-5.349 2.187-8.312s-3.172-5.254-6.155-5.999l-27.665-6.921v-27.467c0-4.713-3.82-8.533-8.533-8.533s-8.533 3.821-8.533 8.533v34.133c.001 3.917 2.668 7.33 6.468 8.277l19.507 4.881-23.474 23.476c-3.331 3.332-3.331 8.734 0 12.066l32.887 32.887 13.5 33.758-25.301 12.655h-32.119c-4.713 0-8.533 3.821-8.533 8.533-.001 4.714 3.82 8.534 8.533 8.534zm72.081-17.92c3.977-1.983 5.767-6.687 4.113-10.812l-9.634-24.175 24.183 9.677c2.614 1.034 5.569.715 7.902-.853l16.307-10.871 5.001 15.002c.779 2.358 2.547 4.259 4.841 5.208 2.295.949 4.889.851 7.106-.267l21.7-10.914v20.326c-.001 3.675 2.351 6.937 5.837 8.098l12.493 4.164-24.363 24.371c-2.598 2.595-3.244 6.562-1.604 9.847l8.772 17.519-16.137-4.028c-3.496-.873-7.164.544-9.165 3.541l-9.967 14.993-9.967-14.95c-1.577-2.383-4.242-3.818-7.1-3.823-.916.002-1.826.149-2.697.435l-37.257 12.416 5.649-28.245c.551-2.788-.323-5.668-2.33-7.68l-17.229-17.229z"/></g></g></g></svg>