<svg id="Layer_1_1_" enable-background="new 0 0 64 64" height="512" viewBox="0 0 64 64" width="512" xmlns="http://www.w3.org/2000/svg"><path d="m45 2h-4-1-16-1-4c-3.309 0-6 2.691-6 6v48c0 3.309 2.691 6 6 6h26c3.309 0 6-2.691 6-6v-48c0-3.309-2.691-6-6-6zm-7.816 2c-.112.314-.184.648-.184 1 0 .552-.448 1-1 1h-8c-.552 0-1-.448-1-1 0-.352-.072-.686-.184-1zm11.816 52c0 2.206-1.794 4-4 4h-26c-2.206 0-4-1.794-4-4v-48c0-2.206 1.794-4 4-4h4 1c.552 0 1 .448 1 1 0 1.654 1.346 3 3 3h8c1.654 0 3-1.346 3-3 0-.552.448-1 1-1h1 4c2.206 0 4 1.794 4 4z"/><path d="m19 9c0-.552.448-1 1-1h2v-2h-2c-1.654 0-3 1.346-3 3v5h2z"/><path d="m44 6h-2v2h2c.552 0 1 .448 1 1v10.492l-4 2.921-4-2.921v-8.492c0-.357-.19-.688-.501-.866-.309-.178-.691-.179-1 .001-3.392 1.964-5.499 5.61-5.499 9.516 0 4.581 2.783 8.611 7 10.249v4.1h2v-4.808c0-.437-.283-.823-.7-.954-3.769-1.184-6.3-4.635-6.3-8.587 0-2.571 1.117-5.005 3-6.695v7.044c0 .319.152.619.41.808l5 3.651c.352.256.828.256 1.18 0l3.41-2.49v33.031c0 .552-.448 1-1 1h-24c-.552 0-1-.448-1-1v-1h3.5c.473 0 .882-.331.979-.794l.863-4.108c.022-.109.096-.159.152-.182s.142-.037.234.026l3.454 2.381c.396.275.934.225 1.274-.116l3.75-3.75c.341-.341.391-.877.116-1.274l-2.381-3.455c-.063-.09-.049-.177-.026-.233s.072-.13.182-.152l4.108-.863c.464-.098.795-.507.795-.98v-5c0-.473-.331-.882-.794-.979l-4.108-.863c-.109-.022-.159-.096-.182-.152s-.036-.144.026-.234l2.381-3.454c.274-.397.225-.934-.116-1.274l-3.75-3.75c-.341-.342-.878-.392-1.274-.116l-3.455 2.381c-.09.063-.177.05-.233.026-.057-.022-.13-.072-.152-.182l-.863-4.108c-.098-.464-.507-.795-.98-.795h-3.5v-6h-2v39c0 1.654 1.346 3 3 3h24c1.654 0 3-1.346 3-3v-46c0-1.654-1.346-3-3-3zm-22.312 18 .696 3.314c.155.738.667 1.347 1.368 1.627.7.279 1.492.191 2.11-.237l2.769-1.908 2.572 2.572-1.908 2.768c-.429.621-.518 1.41-.237 2.111s.889 1.213 1.627 1.368l3.315.697v3.377l-3.314.696c-.738.155-1.347.667-1.627 1.368s-.191 1.49.237 2.11l1.908 2.769-2.572 2.572-2.768-1.908c-.621-.427-1.411-.516-2.111-.237-.701.28-1.213.889-1.368 1.627l-.697 3.314h-2.688v-7.085c.33.048.662.085 1 .085 2.491 0 4.814-1.341 6.063-3.499l-1.73-1.002c-.894 1.543-2.554 2.501-4.333 2.501-.34 0-.672-.044-1-.111v-9.783c1.28-.256 2.663-.006 3.764.727l1.107-1.666c-1.429-.95-3.191-1.318-4.871-1.083v-7.084z"/><path d="m27 38c0-1.23-.324-2.441-.938-3.501l-1.73 1.002c.437.756.668 1.62.668 2.499z"/><path d="m37 36h2v18h-2z"/></svg>