<svg height="512pt" viewBox="-11 0 512 512" width="512pt" xmlns="http://www.w3.org/2000/svg"><path d="m137.589844 223.613281c4.140625 0 7.5-3.355469 7.5-7.5v-16.636719c0-4.140624-3.359375-7.5-7.5-7.5s-7.5 3.359376-7.5 7.5v16.636719c0 4.144531 3.359375 7.5 7.5 7.5zm0 0"/><path d="m352.617188 223.613281c4.144531 0 7.5-3.355469 7.5-7.5v-16.636719c0-4.140624-3.355469-7.5-7.5-7.5-4.140626 0-7.5 3.359376-7.5 7.5v16.636719c0 4.144531 3.359374 7.5 7.5 7.5zm0 0"/><path d="m266.128906 261.265625c-3.121094-2.726563-7.859375-2.40625-10.582031.710937-2.53125 2.894532-6.335937 4.554688-10.441406 4.554688-4.109375 0-7.914063-1.660156-10.441407-4.554688-2.726562-3.117187-7.464843-3.4375-10.585937-.710937-3.117187 2.726563-3.433594 7.464844-.710937 10.582031 5.378906 6.152344 13.304687 9.683594 21.738281 9.683594 8.433593 0 16.355469-3.53125 21.734375-9.683594 2.726562-3.117187 2.40625-7.855468-.710938-10.582031zm0 0"/><path d="m42.449219 168.273438c-4.445313 0-7.84375-4.519532-6.394531-8.773438 3.578124-10.503906 7.996093-20.816406 13.136718-30.652344 1.183594-2.257812 3.476563-3.660156 5.988282-3.660156h285.113281c4.144531 0 7.5-3.359375 7.5-7.5s-3.355469-7.5-7.5-7.5h-271.6875c5.738281-8.683594 12.179687-17.015625 19.238281-24.878906 2.765625-3.082032 2.507812-7.824219-.574219-10.589844s-7.824219-2.511719-10.589843.570312c-9.886719 11.015626-18.632813 22.90625-26.066407 35.382813-6.25 1.339844-11.660156 5.386719-14.714843 11.226563-5.496094 10.511718-10.21875 21.539062-14.042969 32.765624-1.78125 5.222657-1.503907 10.71875.671875 15.617188-4.109375 15.171875-6.664063 30.824219-7.613282 46.625-9.175781 8.703125-14.914062 20.992188-14.914062 34.609375 0 26.316406 21.410156 47.726563 47.726562 47.726563 1.386719 0 2.773438-.082032 4.160157-.203126 19.042969 53.839844 59.980469 97.417969 112.070312 119.976563-13.90625 13.078125-36.71875 41.273437-36.71875 85.484375 0 4.140625 3.355469 7.5 7.5 7.5h220.730469c4.140625 0 7.5-3.359375 7.5-7.5 0-44.230469-22.808594-72.414062-36.714844-85.488281 52.085938-22.558594 93.023438-66.132813 112.066406-119.972657 1.382813.121094 2.773438.203126 4.15625.203126 26.320313 0 47.730469-21.410157 47.730469-47.726563 0-13.613281-5.738281-25.90625-14.914062-34.609375-.949219-15.800781-3.503907-31.453125-7.613281-46.628906 2.175781-4.894532 2.449218-10.390625.671874-15.613282-3.824218-11.226562-8.546874-22.253906-14.042968-32.765624-3.054688-5.84375-8.476563-9.894532-14.734375-11.230469-9.578125-16.082031-21.1875-31.03125-34.601563-44.441407-42.703125-42.707031-99.480468-66.226562-159.867187-66.226562-53.621094 0-105.546875 19.050781-146.21875 53.644531-3.152344 2.683594-3.535157 7.414063-.851563 10.570313s7.414063 3.539062 10.570313.855468c37.960937-32.289062 86.4375-50.070312 136.5-50.070312 56.382812 0 109.390625 21.960938 149.265625 61.832031 10.238281 10.238281 19.367187 21.421875 27.238281 33.355469h-51.316406c-4.140625 0-7.5 3.359375-7.5 7.5s3.359375 7.5 7.5 7.5h64.734375c2.511718 0 4.808594 1.402344 5.988281 3.660156 5.140625 9.835938 9.5625 20.148438 13.136719 30.652344 1.453125 4.261719-1.953125 8.773438-6.394532 8.773438zm4.796875 115.964843c-17.824219-.257812-32.246094-14.835937-32.246094-32.722656 0-14.972656 10.960938-28.632813 25.535156-31.921875-.09375 1.742188-.164062 3.484375-.214844 5.226562-.582031 19.835938 1.882813 39.449219 6.734376 58.664063.066406.25.125.503906.191406.753906zm35.5-100.964843c-1.019532 4.265624-1.550782 8.644531-1.550782 13.113281 0 31.09375 25.296876 56.394531 56.394532 56.394531s56.394531-25.300781 56.394531-56.394531c0-4.46875-.53125-8.847657-1.550781-13.113281h105.339844c-1.019532 4.265624-1.550782 8.644531-1.550782 13.113281 0 31.09375 25.296875 56.394531 56.394532 56.394531 31.097656 0 56.394531-25.300781 56.394531-56.394531 0-4.46875-.53125-8.847657-1.550781-13.113281h21.46875c3.761718 14.5625 6.019531 29.816406 6.019531 44.875.003906.421874.011719.847656.015625 1.273437-.003906.011719-.011719.023437-.015625.039063-4.003907 9.175781-10.226563 17.609374-17.199219 24.738281-16.476562 16.832031-37.429688 25.367187-62.28125 25.367187-30.554688 0-42.039062-13.136718-54.195312-27.042968-11.929688-13.648438-25.453126-29.117188-56.167969-29.117188-30.714844 0-44.238281 15.46875-56.167969 29.117188-12.160156 13.90625-23.644531 27.042968-54.195312 27.042968-24.851563 0-45.804688-8.535156-62.28125-25.367187-7.019532-7.175781-13.085938-15.550781-17.199219-24.738281-.003907-.015626-.011719-.027344-.015625-.039063 0-.40625.007812-.816406.015625-1.222656.214843-15.152344 2.230469-30.253907 6.019531-44.921875h21.464844zm227.671875 241.863281c3.753906 2.988281 10.6875 9.113281 17.535156 18.328125 11.796875 15.886718 18.429687 33.863281 19.765625 53.535156h-38.953125v-29.082031c0-4.140625-3.359375-7.5-7.5-7.5-4.144531 0-7.5 3.359375-7.5 7.5v29.082031h-97.324219v-29.082031c0-4.140625-3.355468-7.5-7.5-7.5-4.140625 0-7.5 3.359375-7.5 7.5v29.082031h-38.953125c1.335938-19.679688 7.972657-37.664062 19.78125-53.554688 6.839844-9.207031 13.769531-15.324218 17.515625-18.308593 11.078125 3.726562 22.417969 6.472656 33.941406 8.246093.152344.023438.304688.046876.457032.070313 20.445312 3.113281 41.398437 3.101563 61.84375 0 .148437-.023437.296875-.046875.449218-.066406 11.523438-1.777344 22.863282-4.523438 33.941407-8.25zm-30.613281-7.527344c-22.867188 4.238281-46.539063 4.238281-69.40625 0-78.777344-14.609375-140.640626-78.015625-152.925782-157.550781.523438.605468 3.050782 3.378906 3.785156 4.140625 13.382813 13.851562 36.996094 30.367187 73.480469 30.367187 37.363281 0 52.308594-17.089844 65.488281-32.171875 11.71875-13.402343 20.972657-23.988281 44.875-23.988281 23.90625 0 33.160157 10.585938 44.875 23.988281 13.183594 15.082031 28.125 32.171875 65.492188 32.171875 36.484375 0 60.097656-16.515625 73.476562-30.367187.601563-.625 3.265626-3.535157 3.804688-4.15625-12.300781 79.550781-74.164062 142.957031-152.945312 157.566406zm163.15625-133.371094c5.1875-19.28125 7.511718-39.425781 6.925781-59.382812-.050781-1.757813-.121094-3.511719-.21875-5.261719 2.167969.488281 4.277343 1.195312 6.300781 2.105469 11.511719 5.203125 19.238281 17.191406 19.238281 29.816406 0 17.882813-14.421875 32.464844-32.246093 32.722656zm4.796874-100.964843c2.492188 0 5.074219-.449219 7.417969-1.296876 1.894531 8.195313 3.308594 16.523438 4.238281 24.921876-.023437-.007813-.046874-.015626-.070312-.023438-3.570312-1.347656-7.320312-2.277344-11.109375-2.738281-.007813-.054688-.019531-.113281-.027344-.167969-.917969-6.960938-2.183593-13.867188-3.8125-20.691406h3.363281zm-55.871093 0c1.414062 4.210937 2.125 8.601562 2.125 13.113281 0 22.824219-18.570313 41.394531-41.394531 41.394531-22.828126 0-41.394532-18.570312-41.394532-41.394531 0-4.511719.710938-8.902344 2.125-13.113281zm-215.027344 0c1.414063 4.210937 2.125 8.605468 2.125 13.113281 0 22.824219-18.570313 41.394531-41.394531 41.394531-22.824219 0-41.394532-18.570312-41.394532-41.394531 0-4.511719.710938-8.902344 2.121094-13.113281zm-146.066406 23.625c.929687-8.398438 2.34375-16.726563 4.238281-24.921876 2.363281.855469 4.90625 1.296876 7.417969 1.296876 1.117187 0 2.253906.054687 3.363281-.007813-.714844 3.398437-1.515625 6.769531-2.148438 10.183594-.644531 3.492187-1.199218 6.996093-1.664062 10.515625-.007812.058594-.019531.113281-.027344.171875-3.800781.464843-7.53125 1.398437-11.117187 2.742187-.019531.007813-.042969.011719-.0625.019532zm0 0"/></svg>