<svg id="Capa_1" enable-background="new 0 0 512 512" height="512" viewBox="0 0 512 512" width="512" xmlns="http://www.w3.org/2000/svg"><g><g id="Page-1_18_"><g id="_x30_19---Upgrade-Laptop"><path id="Shape_51_" d="m200.704 145.067h12.629v59.733c0 9.426 7.641 17.067 17.067 17.067h51.2c9.426 0 17.067-7.641 17.067-17.067v-59.733h12.544c12.276.166 23.403-7.197 28.049-18.56 4.387-10.783 1.614-23.156-6.955-31.036l-55.27-53.052c-11.867-11.088-30.302-11.062-42.138.06l-55.27 52.983c-8.569 7.913-11.324 20.315-6.912 31.113 4.648 11.326 15.748 18.659 27.989 18.492zm-9.276-37.274 55.219-52.907c2.538-2.37 5.88-3.688 9.353-3.686 3.429-.023 6.739 1.258 9.259 3.584l55.245 53.018c3.514 3.073 4.672 8.047 2.876 12.356-2.019 4.9-6.872 8.028-12.169 7.842h-21.077c-4.713 0-8.533 3.821-8.533 8.533v68.267h-51.2v-68.267c0-4.713-3.821-8.533-8.533-8.533h-21.163c-5.277.199-10.12-2.905-12.143-7.782-1.775-4.331-.626-9.31 2.866-12.425z"/><path id="Shape_50_" d="m494.933 409.6v-298.667c-.028-23.552-19.114-42.638-42.667-42.667h-47.667c-37.209-43.333-91.481-68.266-148.599-68.266s-111.39 24.933-148.599 68.267h-47.668c-23.552.028-42.638 19.114-42.667 42.667v298.666c-9.425 0-17.066 7.641-17.066 17.067v25.6c.038 32.974 26.759 59.695 59.733 59.733h392.533c32.974-.038 59.696-26.759 59.733-59.733v-25.6c.001-9.426-7.64-17.067-17.066-17.067zm-238.933-392.533c98.969 0 179.2 80.231 179.2 179.2s-80.231 179.2-179.2 179.2-179.2-80.231-179.2-179.2c.113-98.923 80.277-179.088 179.2-179.2zm-221.867 93.866c0-14.138 11.462-25.6 25.6-25.6h34.475c-56.113 81.714-42.488 192.443 31.761 258.115s185.813 65.673 260.062 0 87.874-176.401 31.761-258.115h34.475c14.138 0 25.6 11.462 25.6 25.6v298.667h-443.734zm145.067 315.734h153.6v8.533c0 9.426-7.641 17.067-17.067 17.067h-119.466c-9.426 0-17.067-7.641-17.067-17.067zm315.733 25.6c-.028 23.552-19.114 42.638-42.667 42.667h-392.533c-23.552-.028-42.638-19.114-42.667-42.667v-25.6h145.067v8.533c0 18.851 15.282 34.133 34.133 34.133h119.467c18.851 0 34.133-15.282 34.133-34.133v-8.533h145.067z"/><g clip-rule="evenodd" fill-rule="evenodd"><path id="Path_38_" d="m136.533 443.733h-25.6c-4.713 0-8.533 3.82-8.533 8.533s3.821 8.533 8.533 8.533h25.6c4.713 0 8.533-3.82 8.533-8.533s-3.82-8.533-8.533-8.533z"/><circle id="Oval_21_" cx="42.667" cy="452.267" r="8.533"/><circle id="Oval_20_" cx="76.8" cy="452.267" r="8.533"/></g><path id="Shape_49_" d="m281.6 238.933h-51.2c-9.426 0-17.067 7.641-17.067 17.067v17.067c0 9.426 7.641 17.067 17.067 17.067h51.2c9.426 0 17.067-7.641 17.067-17.067v-17.067c0-9.426-7.641-17.067-17.067-17.067zm-51.2 34.134v-17.067h51.2v17.067z"/><path id="Shape_48_" d="m281.6 307.2h-51.2c-9.426 0-17.067 7.641-17.067 17.067v17.067c0 9.426 7.641 17.067 17.067 17.067h51.2c9.426 0 17.067-7.641 17.067-17.067v-17.067c0-9.426-7.641-17.067-17.067-17.067zm-51.2 34.133v-17.067h51.2v17.067z"/></g></g></g></svg>