<svg height="512" viewBox="0 0 60 60" width="512" xmlns="http://www.w3.org/2000/svg"><g id="Page-1" fill="none" fill-rule="evenodd"><g id="036---Water-Resilience" fill="rgb(0,0,0)" fill-rule="nonzero"><path id="Shape" d="m5 13c.26519481-.0000566.51950727-.1054506.707-.293l3-3c.37897221-.39237889.37355237-1.01608478-.01218142-1.40181858-.3857338-.38573379-1.00943969-.39115363-1.40181858-.01218142l-3 3c-.28590792.2859943-.37142191.7160366-.21667798 1.0896546.15474393.3736179.51928208.6172591.92367798.6173454z"/><path id="Shape" d="m5 19c.26519481-.0000566.51950727-.1054506.707-.293l9-9c.3789722-.39237889.3735524-1.01608478-.0121814-1.40181858-.3857338-.38573379-1.0094397-.39115363-1.4018186-.01218142l-9 9c-.28590792.2859943-.37142191.7160366-.21667798 1.0896546.15474393.3736179.51928208.6172591.92367798.6173454z"/><path id="Shape" d="m56.646 12.966c-8.701-1.154-13.646-3.316-15.827-4.502-1.1344043-.61892567-2.5055957-.61892567-3.64 0-1.6580454.87577922-3.3913281 1.6010203-5.179 2.167v-6.631c0-2.209139-1.790861-4-4-4h-24c-2.209139 0-4 1.790861-4 4v45c0 2.209139 1.790861 4 4 4h22.352c3.341397 2.7982844 7.0997896 5.0568964 11.139 6.694.9626111.4111051 2.0513889.4111051 3.014 0 16.962-7.194 19.495-17.843 19.495-23.551v-19.357c-.0055376-1.932863-1.4380958-3.5644589-3.354-3.82zm-32.955-10.966-1.283 1.368c-.3778598.40298537-.9055734.63173367-1.458.632h-9.9c-.5526257-.00070589-1.08048187-.22935917-1.459-.632l-1.282-1.368zm-21.691 2c0-1.1045695.8954305-2 2-2h1.567l2.565 2.736c.75738475.80478557 1.8128722 1.26199467 2.918 1.264h9.9c1.105276-.00129287 2.1610336-.45861896 2.918-1.264l2.565-2.736h1.567c1.1045695 0 2 .8954305 2 2v7.237c-2.8379681.7780353-5.7270762 1.3557901-8.646 1.729-1.9159042.2555411-3.3484624 1.887137-3.354 3.82v19.357c.0200994 3.843458 1.1161542 7.6044778 3.164 10.857h-17.164c-1.1045695 0-2-.8954305-2-2zm0 45v-.556c.60534654.3599241 1.29574677.5518554 2 .556h18.544c.5387641.6953446 1.1125034 1.3628715 1.719 2h-20.263c-1.1045695 0-2-.8954305-2-2zm56-12.857c0 9-6.49 16.712-18.28 21.713-.4618964.193449-.9821036.193449-1.444 0-11.786-5.001-18.276-12.711-18.276-21.713v-19.357c.0034697-.930849.6941793-1.7159599 1.617-1.838 9.021-1.2 14.221-3.475 16.517-4.726.5393402-.29342768 1.1906598-.29342768 1.73 0 2.3 1.252 7.5 3.53 16.52 4.728.9221124.1215707 1.6124721.9059149 1.616 1.836z"/><path id="Shape" d="m53.51 16.539c-4.5667579-.6838177-9.0192544-1.9857566-13.235-3.87-.8069761-.3824674-1.7430239-.3824674-2.55 0-4.2158013 1.8840918-8.6682768 3.1860246-13.235 3.87-1.4420408.2416346-2.4963801 1.4928685-2.49 2.955v16.649c0 7.785 5.6 14.637 15.752 19.294.7918445.3639713 1.7031555.3639713 2.495 0 10.158-4.653 15.753-11.505 15.753-19.294v-16.649c.0063801-1.4621315-1.0479592-2.7133654-2.49-2.955zm-29.51 2.955c.0009806-.4828595.3468504-.8960518.822-.982 4.747-.7148679 9.3747353-2.0719691 13.756-4.034.2667899-.1279303.5772101-.1279303.844 0 4.3810885 1.9625089 9.0088901 3.3196295 13.756 4.034.4751496.0859482.8210194.4991405.822.982v16.649c-.0048335.6440192-.0546212 1.2869154-.149 1.924-1.1579673.125597-2.2795683.4794112-3.3 1.041-2.21887 1.1913328-4.88713 1.1913328-7.106 0-2.781582-1.473479-6.112418-1.473479-8.894 0-1.0791948.6180309-2.30785.9266652-3.551.892-1.2437279.034155-2.4728905-.2744329-3.553-.892-1.0204317-.5615888-2.1420327-.915403-3.3-1.041-.0937094-.6371315-.1428288-1.2800275-.147-1.924zm15.414 34.126c-.2636287.1185027-.5653713.1185027-.829 0-7.552-3.463-12.373-8.149-13.985-13.463.6820323.1558349 1.3392515.4051946 1.953.741 1.3581136.7558675 2.8930903 1.1362462 4.447 1.102 1.5537859.035389 3.0888885-.3443305 4.447-1.1 2.2183707-1.1933166 4.8876293-1.1933166 7.106 0 2.7810445 1.4713683 6.1099555 1.4713683 8.891 0 .6137485-.3358054 1.2709677-.5851651 1.953-.741-1.608 5.314-6.429 10-13.983 13.461z"/><path id="Shape" d="m39.007 35c1.1962848-.0061595 2.3270167-.5474329 3.0820581-1.4753594.7550415-.9279266 1.0551244-2.1450879.8179419-3.3176406-.2834649-1.1288652-.8417031-2.1701081-1.625-3.031-.3582866-.4255531-.6756887-.8839111-.948-1.369-.2557258-.4968191-.7682311-.8084934-1.327-.807-.5662758-.0032989-1.086601.3111367-1.347.814-.2716785.4826492-.5877094.9389523-.944 1.363-1.0315958 1.0689584-1.6411793 2.4753343-1.716 3.959.0189236 1.0437724.4517294 2.0372724 1.2031964 2.7619214s1.7600327 1.1210814 2.8038036 1.1020786zm-.721-6.588c.24-.306.486-.619.714-.954.228.335.473.647.713.953.5807185.6161999 1.0043495 1.3632997 1.235 2.178.1124538.5495404-.0096051 1.121077-.3367326 1.5767393-.3271275.4556622-.8296219.7540778-1.3862674.8232607-.5459611.0760113-1.098662-.0817519-1.5222355-.4345078-.4235736-.3527559-.6787368-.8677891-.7027645-1.4184922.0928761-1.031554.5485456-1.9967513 1.286-2.724z"/><path id="Shape" d="m48.021 30c1.1971621-.0046689 2.329296-.5453086 3.0854692-1.4734362s1.0568791-2.1461565.8195308-3.3195638c-.2836956-1.1284796-.8419153-2.1693446-1.625-3.03-.3580805-.426067-.6754667-.8847369-.948-1.37-.2625405-.4976004-.7795055-.8084308-1.3421169-.8069613-.5626113.0014695-1.0779455.3149962-1.3378831.8139613-.2719414.4821714-.5879578.9381188-.944 1.362-1.0310853 1.0695135-1.6399606 2.47625-1.714 3.96.0183974 1.0437681.4509005 2.0374259 1.2022673 2.7621592.7513668.7247332 1.7599803 1.1211089 2.8037327 1.1018408zm-.721-6.589c.239-.306.484-.618.713-.953.227.335.473.648.714.954.5798371.6163003 1.0030559 1.3629349 1.234 2.177.1121352.5496587-.0101808 1.1211771-.337464 1.5767917s-.8298422.7539918-1.386536.8232083c-.5459183.076346-1.0986985-.081323-1.5221971-.434175-.4234985-.352852-.6783556-.868093-.7018029-1.418825.0925755-1.0321325.5486775-1.9978497 1.287-2.725z"/><path id="Shape" d="m30.007 30c1.1962848-.0061595 2.3270167-.5474329 3.0820581-1.4753594.7550415-.9279266 1.0551244-2.1450879.8179419-3.3176406-.2834649-1.1288652-.8417031-2.1701081-1.625-3.031-.3582866-.4255531-.6756887-.8839111-.948-1.369-.2557258-.4968191-.7682311-.8084934-1.327-.807-.5662758-.0032989-1.086601.3111367-1.347.814-.2716785.4826492-.5877094.9389523-.944 1.363-1.0315958 1.0689584-1.6411793 2.4753343-1.716 3.959.0189236 1.0437724.4517294 2.0372724 1.2031964 2.7619214s1.7600327 1.1210814 2.8038036 1.1020786zm-.721-6.588c.24-.306.486-.619.714-.954.228.335.473.647.713.953.5807185.6161999 1.0043495 1.3632997 1.235 2.178.1124538.5495404-.0096051 1.121077-.3367326 1.5767393-.3271275.4556622-.8296219.7540778-1.3862674.8232607-.5460187.0763323-1.0988956-.0813131-1.522547-.4341338s-.6787306-.8680484-.702453-1.4188662c.0928761-1.031554.5485456-1.9967513 1.286-2.724z"/></g></g></svg>