<?xml version="1.0" encoding="UTF-8" standalone="no"?><!-- Generator: Gravit.io --><svg xmlns="http://www.w3.org/2000/svg" xmlns:xlink="http://www.w3.org/1999/xlink" style="isolation:isolate" viewBox="0 0 3710 3710" width="3710pt" height="3710pt"><defs><clipPath id="_clipPath_tUh43PyqRhuaXIG4JbhddwSrKokkkmSt"><rect width="3710" height="3710"/></clipPath></defs><g clip-path="url(#_clipPath_tUh43PyqRhuaXIG4JbhddwSrKokkkmSt)"><clipPath id="_clipPath_wd0RYAqSQmFKqZpu4adCp0c9ng1WPdpA"><path d=" M 0 0 L 0 3710 L 3710 3710 L 3710 0 L 0 0 Z " fill="rgb(255,255,255)"/></clipPath><g clip-path="url(#_clipPath_wd0RYAqSQmFKqZpu4adCp0c9ng1WPdpA)"><linearGradient id="_lgradient_0" x1="0" y1="0" x2="1" y2="0" gradientTransform="matrix(-2470.74,-3068.5,3068.5,-2470.74,3566.3,4051.23)" gradientUnits="userSpaceOnUse"><stop offset="0%" stop-opacity="1" style="stop-color:rgb(218,227,254)"/><stop offset="100%" stop-opacity="1" style="stop-color:rgb(233,239,253)"/></linearGradient><path d=" M 1866.19 3231.7 C 1698.59 3231.7 1570.55 3208.26 1519.49 3197.89 C 1334.29 3160.27 976.309 3087.57 717.495 2783.21 C 451.521 2470.43 394.334 2035.44 480.207 1638.46 C 511.103 1826.53 575.222 2015.62 696.545 2188.76 C 871.744 2438.78 1150.21 2509.46 1150.21 2509.46 L 1150.21 2509.46 L 1150.21 2509.46 C 1085.6 2461.56 1025.04 2403.93 975.589 2325.75 C 998.103 2338.94 1024.16 2346.77 1052.04 2347.49 C 1283.83 2353.47 1864.91 2364.58 2369.78 2371.28 C 2365.94 2593.73 2362.21 2880.61 2365.68 3009.73 C 2366.22 3030.12 2380.2 3046.49 2397.63 3047.15 C 2434.51 3048.56 2513.46 3050.9 2602.77 3052.58 C 2344.3 3195.42 2074.67 3231.7 1866.19 3231.7 Z  M 2997.74 2697.22 C 2998.38 2593.4 2998.33 2479.98 2996.7 2376.81 C 3001.5 2376.81 3006.22 2376.82 3010.91 2376.82 C 3061.44 2376.82 3105 2376.6 3140.2 2376.12 C 3105.31 2494.07 3057.35 2602.97 2997.74 2697.22 Z  M 896.545 2148.96 C 847.763 1985.75 834.211 1760.79 879.829 1437.51 C 908.665 1233.15 882.616 1061.98 832.265 922.637 C 980.652 747.478 1242.35 518.121 1636.1 466.651 C 1695.3 458.912 1756.17 455 1817.81 455 C 2010.28 455 2210.8 493.07 2395.9 571.635 L 1952.88 782.039 C 1916.36 799.383 1892 835.122 1889.39 875.466 C 1885.96 928.432 1885.42 978.78 1887.41 1026.66 C 1610.14 1021.86 1346.68 1018.46 1165.59 1018.46 C 1102.85 1018.46 1050.07 1018.86 1009.96 1019.76 C 946.9 1021.18 896.545 1072.69 896.545 1135.77 L 896.545 2148.96 Z " fill-rule="evenodd" fill="url(#_lgradient_0)"/><path d=" M 494.736 502.493 C 491.33 487.995 511.726 478.356 524.216 488.484 C 651.044 591.328 955.774 899.302 879.829 1437.51 C 784.546 2112.77 947.445 2359.16 1150.21 2509.46 C 1150.21 2509.46 871.744 2438.78 696.545 2188.76 C 266.389 1574.9 555.299 760.298 494.736 502.493 Z " fill="rgb(145,179,250)"/><path d=" M 1043.22 2457.93 C 1039.59 2457.93 1035.93 2456.94 1032.82 2454.88 C 961.616 2407.7 896.981 2351.95 843.389 2289.1 C 816.689 2257.62 792.731 2224.46 771.446 2190.13 C 760.905 2172.93 750.721 2155.56 741.447 2137.85 C 731.801 2120.29 723.31 2102.12 715.235 2083.89 C 682.932 2010.77 666.654 1932.76 661.154 1855.42 C 655.561 1777.93 659.08 1700.98 662.074 1624.59 C 665.563 1548.16 668.731 1472.04 668.109 1395.85 C 667.882 1319.66 663.903 1243.49 658.271 1167.41 C 652.3 1091.34 643.575 1015.4 632.189 939.722 C 621.261 863.98 607.12 788.576 591.254 713.404 C 590.821 711.333 592.345 709.305 594.744 708.83 C 595.089 708.762 595.433 708.729 595.772 708.729 C 597.864 708.729 599.754 709.973 600.241 711.81 C 620.012 786.456 636.452 861.777 650.57 937.445 C 664.268 1013.17 675.195 1089.3 683.429 1165.69 C 685.446 1184.78 687.283 1203.9 688.998 1223.03 C 690.5 1242.16 692.043 1261.3 693.156 1280.47 C 695.637 1318.78 697.324 1357.13 698.213 1395.51 C 700.229 1472.27 698.583 1549.08 696.339 1625.51 C 693.982 1701.92 691.228 1778.11 697.325 1853.32 C 700.369 1890.91 705.874 1928.19 714.626 1964.84 C 723.409 2001.48 735.439 2037.45 750.488 2072.52 C 781.49 2142.33 822.41 2209.67 873.525 2270.11 C 898.938 2300.47 926.95 2329.18 957.184 2356.09 C 964.611 2362.93 972.586 2369.31 980.259 2375.95 C 988.221 2382.34 996.045 2388.86 1004.21 2395.08 C 1020.29 2407.73 1037.05 2419.78 1054 2431.68 L 1054.05 2431.72 C 1061.19 2436.75 1062.45 2445.8 1056.8 2452.15 C 1053.43 2455.94 1048.36 2457.93 1043.22 2457.93 Z " fill="rgb(192,214,252)"/><path d=" M 795.943 2118.78 C 780.392 2135.28 753.045 2130.54 743.69 2109.89 C 692.072 1995.93 575.267 1660.54 768.176 1274.15 C 931.08 947.863 988.405 755.456 1008.38 666.306 C 1012.6 647.455 1038.43 644.952 1046.23 662.627 C 1132.27 857.631 1359.43 1520.93 795.943 2118.78 Z " fill="rgb(125,151,244)"/><path d=" M 767.696 2106.76 C 767.143 2106.86 766.574 2106.91 765.991 2106.9 C 761.103 2106.82 757.201 2102.8 757.275 2097.91 C 757.361 2092.37 768.145 1538.47 974.157 1074.56 C 976.141 1070.09 981.37 1068.08 985.841 1070.06 C 990.309 1072.04 992.322 1077.27 990.339 1081.74 C 785.826 1542.28 775.062 2092.68 774.977 2098.18 C 774.912 2102.49 771.783 2106.03 767.696 2106.76 Z " fill="rgb(145,179,250)"/><linearGradient id="_lgradient_1" x1="0" y1="0" x2="1" y2="0" gradientTransform="matrix(170.846,-806.391,806.391,170.846,2106.9,2766.95)" gradientUnits="userSpaceOnUse"><stop offset="0%" stop-opacity="1" style="stop-color:rgb(9,0,93)"/><stop offset="100%" stop-opacity="1" style="stop-color:rgb(26,15,145)"/></linearGradient><path d=" M 1901.51 2267.65 L 1851.73 2714.1 L 2429.27 2714.1 L 2354.04 2267.65 L 1901.51 2267.65 Z " fill="url(#_lgradient_1)"/><linearGradient id="_lgradient_2" x1="0" y1="0" x2="1" y2="0" gradientTransform="matrix(222.102,1667.46,-1667.46,222.102,1933.36,671.281)" gradientUnits="userSpaceOnUse"><stop offset="0%" stop-opacity="1" style="stop-color:rgb(9,0,93)"/><stop offset="100%" stop-opacity="1" style="stop-color:rgb(26,15,145)"/></linearGradient><path d=" M 3010.91 2376.82 C 3006.22 2376.82 3001.5 2376.81 2996.7 2376.81 C 2995.97 2330.81 2994.92 2286.84 2993.47 2246.7 L 3093.63 2247.94 C 3094.08 2247.95 3094.54 2247.95 3095 2247.95 C 3144.47 2247.95 3184.79 2207.93 3184.97 2158.28 L 3188.38 1167.6 C 3188.39 1167.53 3188.39 1167.46 3188.39 1167.39 C 3188.41 1131.66 3159.91 1102.42 3124.16 1101.55 L 3055.22 1100.16 C 3056.78 1084.61 3058.07 1068.77 3059.06 1052.65 C 3083.35 1053.35 3104.57 1053.99 3122.43 1054.56 C 3180.56 1056.42 3229.07 1099.39 3237.99 1156.86 C 3280.39 1429.74 3268.94 2017.51 3261.88 2261.94 C 3260.07 2324.8 3209.13 2375.11 3146.26 2376.04 C 3144.27 2376.07 3142.24 2376.1 3140.2 2376.12 C 3105 2376.6 3061.44 2376.82 3010.91 2376.82 Z  M 2369.78 2371.28 C 1864.91 2364.58 1283.83 2353.47 1052.04 2347.49 C 1024.16 2346.77 998.103 2338.94 975.589 2325.75 C 928.227 2298.01 896.545 2246.59 896.545 2187.93 L 896.545 2148.96 L 896.545 1135.77 C 896.545 1072.69 946.9 1021.18 1009.96 1019.76 C 1050.07 1018.86 1102.85 1018.46 1165.59 1018.46 C 1346.68 1018.46 1610.14 1021.86 1887.41 1026.66 C 1888.11 1043.62 1889.14 1060.28 1890.46 1076.62 L 1035.62 1059.35 C 1035.03 1059.34 1034.43 1059.33 1033.85 1059.33 C 994.59 1059.33 962.564 1091.17 962.564 1130.65 L 962.564 2130.27 L 962.564 2130.27 C 962.564 2180.81 1003.13 2221.98 1053.66 2222.74 L 2372.19 2239.03 C 2371.43 2278.66 2370.6 2323.49 2369.78 2371.28 Z " fill-rule="evenodd" fill="url(#_lgradient_2)"/><linearGradient id="_lgradient_3" x1="0" y1="0" x2="1" y2="0" gradientTransform="matrix(-181.095,2337.16,-2337.16,-181.095,2176.44,319.626)" gradientUnits="userSpaceOnUse"><stop offset="0%" stop-opacity="1" style="stop-color:rgb(83,216,255)"/><stop offset="100%" stop-opacity="1" style="stop-color:rgb(56,64,247)"/></linearGradient><path d=" M 962.564 1130.65 L 962.564 2130.27 C 962.564 2180.81 1003.13 2221.98 1053.66 2222.74 L 3093.63 2247.94 C 3143.72 2248.69 3184.78 2208.39 3184.97 2158.28 L 3188.38 1167.6 C 3188.52 1131.77 3159.98 1102.42 3124.16 1101.55 L 1035.62 1059.35 C 995.561 1058.38 962.564 1090.58 962.564 1130.65 Z " fill="url(#_lgradient_3)"/><path d=" M 3200.33 2289.36 L 3200.27 2289.36 L 962.509 2251.23 C 960.699 2251.2 959.256 2249.71 959.287 2247.9 C 959.316 2246.09 960.792 2244.66 962.621 2244.67 L 3200.38 2282.8 C 3202.2 2282.83 3203.64 2284.33 3203.61 2286.13 C 3203.58 2287.93 3202.12 2289.36 3200.33 2289.36 Z " fill="rgb(145,179,250)"/><linearGradient id="_lgradient_4" x1="0" y1="0" x2="1" y2="0" gradientTransform="matrix(-61.504,-580.874,580.874,-61.504,2187.11,3306.65)" gradientUnits="userSpaceOnUse"><stop offset="0%" stop-opacity="1" style="stop-color:rgb(9,0,93)"/><stop offset="100%" stop-opacity="1" style="stop-color:rgb(26,15,145)"/></linearGradient><path d=" M 2553.67 2805.44 L 1708.4 2805.44 C 1685.44 2805.44 1668.2 2789.09 1672.64 2771.53 L 1683.48 2728.64 C 1686.74 2715.74 1700.94 2706.27 1717.79 2705.74 L 2532.66 2680.32 C 2550.27 2679.77 2565.86 2689.11 2569.7 2702.52 L 2589.25 2770.84 C 2594.33 2788.59 2577 2805.44 2553.67 2805.44 Z " fill="url(#_lgradient_4)"/><path d=" M 962.564 1130.65 L 962.564 2130.27 C 962.564 2180.81 1003.13 2221.98 1053.66 2222.74 L 3093.63 2247.94 C 3143.72 2248.69 3184.78 2208.39 3184.97 2158.28 L 3188.38 1167.6 C 3188.52 1131.77 3159.98 1102.42 3124.16 1101.55 L 1035.62 1059.35 C 995.561 1058.38 962.564 1090.58 962.564 1130.65 Z " fill="rgb(145,179,250)"/><linearGradient id="_lgradient_5" x1="0" y1="0" x2="1" y2="0" gradientTransform="matrix(87.127,-2085.92,2085.92,87.127,2017.36,2605.63)" gradientUnits="userSpaceOnUse"><stop offset="0%" stop-opacity="1" style="stop-color:rgb(146,137,255)"/><stop offset="100%" stop-opacity="1" style="stop-color:rgb(64,66,226)"/></linearGradient><path d=" M 3187.98 1283.47 L 3188.38 1167.38 C 3188.52 1131.55 3159.98 1102.31 3124.17 1101.44 L 1036.15 1059.3 C 996.095 1058.33 963.632 1090.58 963.632 1130.65 L 963.632 1283.47 L 3187.98 1283.47 Z " fill="url(#_lgradient_5)"/><path d=" M 1120.8 1195.29 C 1120.8 1208.5 1110.09 1219.2 1096.89 1219.2 C 1083.68 1219.2 1072.97 1208.5 1072.97 1195.29 C 1072.97 1182.08 1083.68 1171.38 1096.89 1171.38 C 1110.09 1171.38 1120.8 1182.08 1120.8 1195.29 Z " fill="rgb(189,208,251)"/><path d=" M 1203.65 1195.29 C 1203.65 1208.5 1192.95 1219.2 1179.74 1219.2 C 1166.53 1219.2 1155.82 1208.5 1155.82 1195.29 C 1155.82 1182.08 1166.53 1171.38 1179.74 1171.38 C 1192.95 1171.38 1203.65 1182.08 1203.65 1195.29 Z " fill="rgb(189,208,251)"/><path d=" M 1283.95 1195.29 C 1283.95 1208.5 1273.24 1219.2 1260.04 1219.2 C 1246.83 1219.2 1236.12 1208.5 1236.12 1195.29 C 1236.12 1182.08 1246.83 1171.38 1260.04 1171.38 C 1273.24 1171.38 1283.95 1182.08 1283.95 1195.29 Z " fill="rgb(189,208,251)"/><path d=" M 3064.06 2193.28 L 1103.16 2165.01 C 1073.36 2164.58 1049.42 2140.3 1049.42 2110.49 L 1049.42 1914.24 C 1049.42 1886.5 1072.07 1864.11 1099.81 1864.42 L 3065.31 1886.77 C 3087.88 1887.03 3106.03 1905.39 3106.03 1927.96 L 3106.03 2151.9 C 3106.03 2174.99 3087.14 2193.61 3064.06 2193.28 Z " fill="rgb(189,208,251)"/><path d=" M 2358.1 1839.89 L 1104.61 1821.86 C 1074.01 1821.42 1049.42 1796.48 1049.42 1765.87 L 1049.42 1377.82 C 1049.42 1355.91 1067.19 1338.14 1089.1 1338.14 L 2349.76 1338.14 C 2374.92 1338.14 2395.32 1358.54 2395.32 1383.7 L 2395.32 1803.21 C 2395.32 1823.68 2378.57 1840.19 2358.1 1839.89 Z " fill="rgb(189,208,251)"/><path d=" M 3093.53 1840.43 L 2587.37 1840.43 C 2712.43 1770.88 2908.6 1621.71 3004.68 1338.14 L 3097.37 1338.14 C 3102.15 1338.14 3106.03 1342.02 3106.03 1346.81 L 3106.03 1827.93 C 3106.03 1834.83 3100.44 1840.43 3093.53 1840.43 Z " fill="rgb(191,211,252)"/><linearGradient id="_lgradient_6" x1="0" y1="0" x2="1" y2="0" gradientTransform="matrix(-27.335,1259.7,-1259.7,-27.335,1379.75,1951.04)" gradientUnits="userSpaceOnUse"><stop offset="0%" stop-opacity="1" style="stop-color:rgb(9,0,93)"/><stop offset="100%" stop-opacity="1" style="stop-color:rgb(26,15,145)"/></linearGradient><path d=" M 568.104 2929.92 C 568.104 2945.82 581.121 2958.82 597.031 2958.82 L 2161.24 2958.82 C 2177.15 2958.82 2190.17 2945.82 2190.17 2929.92 L 2203.18 2031.02 C 2203.18 2015.12 2184.46 1984.09 2150.14 1986.42 L 621.419 1946.87 C 601.458 1946.35 582.157 1954.04 568.021 1968.13 C 553.886 1982.21 546.151 2001.48 546.623 2021.42 L 568.104 2929.92 Z " fill="url(#_lgradient_6)"/><path d=" M 596.662 2902.2 C 596.662 2917.25 608.977 2929.57 624.028 2929.57 L 2123.52 2929.57 C 2138.57 2929.57 2150.88 2917.25 2150.88 2902.2 L 2163.17 2086.16 C 2161.72 2037.06 2118.67 2019.41 2092.57 2020.45 L 627.432 1981.14 C 613.408 1980.76 599.849 1986.17 589.916 1996.08 C 579.983 2005.98 574.521 2019.54 574.873 2033.57 L 596.662 2902.2 Z " fill="rgb(145,179,250)"/><linearGradient id="_lgradient_7" x1="0" y1="0" x2="1" y2="0" gradientTransform="matrix(25.205,-882.179,882.179,25.205,1364.8,2940.73)" gradientUnits="userSpaceOnUse"><stop offset="0%" stop-opacity="1" style="stop-color:rgb(9,0,93)"/><stop offset="100%" stop-opacity="1" style="stop-color:rgb(26,15,145)"/></linearGradient><path d=" M 446.862 3033.44 L 2279.7 3033.44 C 2282.81 3033.44 2285.35 3030.9 2285.35 3027.79 L 2285.35 2960.12 C 2285.35 2957.01 2282.81 2954.46 2279.7 2954.46 L 446.862 2954.46 C 443.753 2954.46 441.209 2957.01 441.209 2960.12 L 441.209 3027.79 C 441.209 3030.9 443.753 3033.44 446.862 3033.44 Z " fill="url(#_lgradient_7)"/><linearGradient id="_lgradient_8" x1="0" y1="0" x2="1" y2="0" gradientTransform="matrix(574.011,-994.269,994.269,574.011,1211.05,2366.18)" gradientUnits="userSpaceOnUse"><stop offset="0%" stop-opacity="1" style="stop-color:rgb(79,82,255)"/><stop offset="100%" stop-opacity="1" style="stop-color:rgb(64,66,226)"/></linearGradient><path d=" M 2161.94 2168.45 L 2163.17 2086.69 C 2161.72 2037.58 2118.67 2019.67 2092.57 2020.71 L 627.432 1981.27 C 613.408 1980.9 599.849 1986.23 589.916 1996.14 C 579.983 2006.05 574.521 2020.1 574.872 2034.13 L 578.23 2168.45 L 2161.94 2168.45 Z " fill="url(#_lgradient_8)"/><path d=" M 2134.68 2514.52 L 2134.62 2514.52 C 2132.41 2514.49 2130.64 2512.67 2130.67 2510.45 L 2131.64 2444.27 C 2131.67 2442.08 2133.46 2440.32 2135.65 2440.32 L 2135.71 2440.32 C 2137.92 2440.36 2139.69 2442.18 2139.66 2444.39 L 2138.69 2510.57 C 2138.66 2512.77 2136.87 2514.52 2134.68 2514.52 Z " fill="rgb(189,208,251)"/><path d=" M 2137.06 2352.35 L 2137 2352.35 C 2134.79 2352.32 2133.02 2350.49 2133.05 2348.28 L 2136.77 2094.81 C 2136.7 2079.76 2132.13 2067.74 2123.19 2059.17 C 2106.49 2043.17 2079.98 2043.99 2078.87 2044.04 L 1610.58 2031.48 C 1608.36 2031.42 1606.62 2029.58 1606.68 2027.36 C 1606.73 2025.15 1608.43 2023.26 1610.79 2023.46 L 2078.8 2036.02 C 2081.72 2035.85 2109.94 2035.36 2128.74 2053.37 C 2139.31 2063.5 2144.71 2077.46 2144.79 2094.85 L 2141.07 2348.4 C 2141.04 2350.59 2139.25 2352.35 2137.06 2352.35 Z " fill="rgb(189,208,251)"/><path d=" M 1498.38 2584.18 L 679.458 2584.18 C 658.386 2584.18 641.303 2567.09 641.303 2546.02 L 641.303 2246.47 C 641.303 2225.4 658.386 2208.32 679.458 2208.32 L 1498.38 2208.32 C 1519.45 2208.32 1536.53 2225.4 1536.53 2246.47 L 1536.53 2546.02 C 1536.53 2567.09 1519.45 2584.18 1498.38 2584.18 Z " fill="rgb(189,208,251)"/><path d=" M 2091.21 2584.18 L 1610.57 2584.18 C 1595.47 2584.18 1583.23 2571.94 1583.23 2556.84 L 1583.23 2235.65 C 1583.23 2220.56 1595.47 2208.32 1610.57 2208.32 L 2091.21 2208.32 C 2106.31 2208.32 2118.55 2220.56 2118.55 2235.65 L 2118.55 2556.84 C 2118.55 2571.94 2106.31 2584.18 2091.21 2584.18 Z " fill="rgb(189,208,251)"/><path d=" M 2084.95 2893.98 L 674.903 2893.98 C 656.346 2893.98 641.303 2878.93 641.303 2860.38 L 641.303 2672.45 C 641.303 2653.89 656.346 2638.85 674.903 2638.85 L 2084.95 2638.85 C 2103.5 2638.85 2118.55 2653.89 2118.55 2672.45 L 2118.55 2860.38 C 2118.55 2878.93 2103.5 2893.98 2084.95 2893.98 Z " fill="rgb(189,208,251)"/><path d=" M 671.675 2072.21 C 671.675 2082.6 663.251 2091.02 652.86 2091.02 C 642.468 2091.02 634.044 2082.6 634.044 2072.21 C 634.044 2061.81 642.468 2053.39 652.86 2053.39 C 663.251 2053.39 671.675 2061.81 671.675 2072.21 Z " fill="rgb(189,208,251)"/><path d=" M 734.394 2074.02 C 734.394 2084.41 725.97 2092.83 715.578 2092.83 C 705.187 2092.83 696.763 2084.41 696.763 2074.02 C 696.763 2063.63 705.187 2055.2 715.578 2055.2 C 725.97 2055.2 734.394 2063.63 734.394 2074.02 Z " fill="rgb(189,208,251)"/><path d=" M 792.931 2077.5 C 792.931 2087.89 784.507 2096.32 774.115 2096.32 C 763.724 2096.32 755.3 2087.89 755.3 2077.5 C 755.3 2067.11 763.724 2058.69 774.115 2058.69 C 784.507 2058.69 792.931 2067.11 792.931 2077.5 Z " fill="rgb(189,208,251)"/><linearGradient id="_lgradient_9" x1="0" y1="0" x2="1" y2="0" gradientTransform="matrix(633.82,0,0,633.82,2364.3,2560.38)" gradientUnits="userSpaceOnUse"><stop offset="0%" stop-opacity="1" style="stop-color:rgb(9,0,93)"/><stop offset="100%" stop-opacity="1" style="stop-color:rgb(26,15,145)"/></linearGradient><path d=" M 2791.6 3054.56 C 2730.64 3054.56 2664.25 3053.73 2602.77 3052.58 C 2513.46 3050.9 2434.51 3048.56 2397.63 3047.15 C 2380.2 3046.49 2366.22 3030.12 2365.68 3009.73 C 2362.21 2880.61 2365.94 2593.73 2369.78 2371.28 C 2370.6 2323.49 2371.43 2278.66 2372.19 2239.03 C 2372.58 2219.05 2372.95 2200.39 2373.29 2183.32 C 2373.82 2156.9 2374.29 2134.29 2374.67 2116.58 C 2375.21 2090.83 2392.43 2069.78 2414.4 2068.11 C 2431.8 2066.79 2453.16 2066.2 2477.31 2066.2 C 2622.29 2066.2 2867.05 2087.29 2947.53 2096.71 C 2969.31 2099.26 2986.43 2119.58 2988.27 2145.09 C 2989.33 2159.68 2990.28 2175.46 2991.13 2192.23 C 2992.01 2209.4 2992.79 2227.61 2993.47 2246.7 C 2994.92 2286.84 2995.97 2330.81 2996.7 2376.81 C 2998.33 2479.98 2998.38 2593.4 2997.74 2697.22 C 2997.01 2817.52 2995.37 2924.9 2994.25 2988.24 C 2993.64 3022.62 2970.28 3050.46 2940.91 3051.9 C 2901.75 3053.82 2849.09 3054.56 2791.6 3054.56 Z  M 2608.38 2086.29 C 2603.78 2086.29 2599.35 2086.37 2595.17 2086.55 C 2591.01 2086.72 2587.74 2090.75 2587.74 2095.62 C 2587.74 2100.46 2590.95 2104.44 2595.08 2104.69 C 2615.44 2105.94 2672.8 2109.47 2698.44 2111.21 C 2698.6 2111.22 2698.75 2111.23 2698.91 2111.23 C 2703.74 2111.23 2707.43 2106.06 2706.5 2100.42 L 2706.34 2099.43 C 2705.69 2095.46 2702.87 2092.48 2699.43 2092.11 C 2684.19 2090.47 2641.91 2086.29 2608.38 2086.29 Z " fill-rule="evenodd" fill="url(#_lgradient_9)"/><path d=" M 2413.14 2164.9 C 2408.5 2292 2393.86 2714.85 2398.5 2871.2 C 2399.18 2894.06 2414.58 2912.54 2434.1 2913.87 C 2514.44 2919.38 2788.56 2931.5 2906.41 2920.46 C 2927.63 2918.48 2944.28 2898.4 2945.43 2873.53 C 2951.4 2743.86 2968.55 2350.13 2964.09 2195.52 C 2963.38 2170.86 2947.05 2150.71 2926.04 2148.51 C 2839.12 2139.38 2547.83 2117.65 2447.69 2124.05 C 2428.89 2125.25 2413.94 2142.89 2413.14 2164.9 Z " fill="rgb(145,179,250)"/><linearGradient id="_lgradient_10" x1="0" y1="0" x2="1" y2="0" gradientTransform="matrix(633.82,0,0,633.82,2364.3,2560.38)" gradientUnits="userSpaceOnUse"><stop offset="0%" stop-opacity="1" style="stop-color:rgb(132,128,174)"/><stop offset="100%" stop-opacity="1" style="stop-color:rgb(141,135,200)"/></linearGradient><path d=" M 2698.91 2111.23 C 2698.75 2111.23 2698.6 2111.22 2698.44 2111.21 C 2672.8 2109.47 2615.44 2105.94 2595.08 2104.69 C 2590.95 2104.44 2587.74 2100.46 2587.74 2095.62 C 2587.74 2090.75 2591.01 2086.72 2595.17 2086.55 C 2599.35 2086.37 2603.78 2086.29 2608.38 2086.29 C 2641.91 2086.29 2684.19 2090.47 2699.43 2092.11 C 2702.87 2092.48 2705.69 2095.46 2706.34 2099.43 L 2706.5 2100.42 C 2707.43 2106.06 2703.74 2111.23 2698.91 2111.23 Z " fill="url(#_lgradient_10)"/><linearGradient id="_lgradient_11" x1="0" y1="0" x2="1" y2="0" gradientTransform="matrix(68.339,-1011.41,1011.41,68.339,2633.99,3017.82)" gradientUnits="userSpaceOnUse"><stop offset="0%" stop-opacity="1" style="stop-color:rgb(79,82,255)"/><stop offset="100%" stop-opacity="1" style="stop-color:rgb(64,66,226)"/></linearGradient><path d=" M 2964.8 2243.63 C 2964.72 2226.54 2964.5 2209.75 2964.09 2195.68 C 2963.38 2171.02 2947.05 2150.79 2926.04 2148.59 C 2839.12 2139.46 2547.83 2117.69 2447.69 2124.09 C 2428.89 2125.29 2413.94 2143.07 2413.14 2165.08 C 2412.42 2184.79 2411.9 2200.33 2410.81 2231.08 L 2964.8 2243.63 Z " fill="url(#_lgradient_11)"/><path d=" M 2683.87 2514.52 L 2457.32 2514.52 C 2443.93 2514.52 2433.07 2503.35 2433.07 2489.56 L 2433.07 2290.63 C 2433.07 2278.02 2443.15 2267.89 2455.38 2268.19 L 2684.03 2273.82 C 2696.61 2274.13 2706.65 2284.72 2706.65 2297.67 L 2706.65 2491.07 C 2706.65 2504.02 2696.45 2514.52 2683.87 2514.52 Z " fill="rgb(189,208,251)"/><path d=" M 2910.99 2514.52 L 2757.37 2514.52 C 2740.41 2514.52 2726.66 2500.77 2726.66 2483.81 L 2726.66 2298.35 C 2726.66 2285.11 2737.39 2274.38 2750.63 2274.38 L 2912.61 2274.38 C 2925.93 2274.38 2936.73 2285.18 2936.73 2298.5 L 2936.73 2488.78 C 2936.73 2503 2925.21 2514.52 2910.99 2514.52 Z " fill="rgb(189,208,251)"/><path d=" M 2912 2709.46 L 2452.3 2709.46 C 2437.19 2709.46 2424.93 2697.21 2424.93 2682.09 L 2424.93 2568.23 C 2424.93 2555.97 2434.87 2546.02 2447.14 2546.02 L 2910.9 2546.02 C 2925.17 2546.02 2936.73 2557.59 2936.73 2571.85 L 2936.73 2684.74 C 2936.73 2698.39 2925.66 2709.46 2912 2709.46 Z " fill="rgb(189,208,251)"/><path d=" M 2883.69 2893.97 L 2448.04 2887.9 C 2435.13 2887.72 2424.76 2878.3 2424.76 2866.75 L 2424.76 2761.29 C 2424.76 2751.11 2433.98 2742.87 2445.35 2742.87 L 2903.65 2742.87 C 2914.52 2742.87 2923.34 2750.74 2923.37 2760.46 L 2923.66 2858.67 C 2923.72 2878.37 2905.7 2894.28 2883.69 2893.97 Z " fill="rgb(189,208,251)"/><path d=" M 2473.91 2191.8 C 2473.91 2200.29 2467.02 2207.18 2458.53 2207.18 C 2450.04 2207.18 2443.15 2200.29 2443.15 2191.8 C 2443.15 2183.31 2450.04 2176.43 2458.53 2176.43 C 2467.02 2176.43 2473.91 2183.31 2473.91 2191.8 Z " fill="rgb(189,208,251)"/><path d=" M 2525.16 2193.28 C 2525.16 2201.78 2518.28 2208.66 2509.78 2208.66 C 2501.29 2208.66 2494.41 2201.78 2494.41 2193.28 C 2494.41 2184.79 2501.29 2177.91 2509.78 2177.91 C 2518.28 2177.91 2525.16 2184.79 2525.16 2193.28 Z " fill="rgb(189,208,251)"/><path d=" M 2573 2196.13 C 2573 2204.62 2566.11 2211.51 2557.62 2211.51 C 2549.13 2211.51 2542.24 2204.62 2542.24 2196.13 C 2542.24 2187.64 2549.13 2180.76 2557.62 2180.76 C 2566.11 2180.76 2573 2187.64 2573 2196.13 Z " fill="rgb(189,208,251)"/><linearGradient id="_lgradient_12" x1="0" y1="0" x2="1" y2="0" gradientTransform="matrix(-615.014,712.39,-712.39,-615.014,3590.12,-182.698)" gradientUnits="userSpaceOnUse"><stop offset="0%" stop-opacity="1" style="stop-color:rgb(233,96,90)"/><stop offset="100%" stop-opacity="1" style="stop-color:rgb(225,216,252)"/></linearGradient><path d=" M 2473.91 1883.97 C 2463.61 1883.97 2453.31 1882.55 2443.31 1879.7 C 2438.48 1878.32 2433.72 1876.62 2429.06 1874.58 C 2299.95 1818.04 1933.75 1611.7 1890.46 1076.62 L 1890.46 1076.62 C 1889.14 1060.28 1888.11 1043.62 1887.41 1026.66 C 1885.42 978.78 1885.96 928.432 1889.39 875.466 C 1892 835.122 1916.36 799.383 1952.88 782.039 L 2395.9 571.635 L 2426.02 557.327 C 2441.17 550.132 2457.54 546.534 2473.91 546.534 C 2490.27 546.534 2506.64 550.132 2521.79 557.327 L 2994.93 782.039 C 3031.45 799.383 3055.81 835.122 3058.42 875.466 C 3062.47 938.105 3062.49 997.094 3059.06 1052.65 C 3058.07 1068.77 3056.78 1084.61 3055.22 1100.16 L 3055.22 1100.16 C 3046.37 1188.4 3028.63 1267.45 3004.68 1338.14 C 2908.6 1621.71 2712.43 1770.88 2587.37 1840.43 C 2560.72 1855.25 2537.28 1866.46 2518.75 1874.58 C 2513.3 1876.96 2507.72 1878.89 2502.05 1880.37 C 2492.82 1882.77 2483.36 1883.97 2473.91 1883.97 Z  M 2287.72 657.185 C 2286.49 657.185 2285.24 657.453 2284.06 658.017 L 1965.77 809.182 C 1939.05 821.872 1921.28 848.012 1919.37 877.407 C 1916.32 924.606 1915.54 971.182 1917.04 1015.84 C 1917.19 1020.46 1920.98 1024.1 1925.57 1024.1 C 1925.66 1024.1 1925.76 1024.1 1925.86 1024.1 C 1930.58 1023.94 1934.27 1019.99 1934.11 1015.27 C 1932.63 971.165 1933.41 925.153 1936.43 878.508 C 1937.93 855.298 1951.98 834.646 1973.1 824.615 L 2291.39 673.446 C 2295.65 671.425 2297.46 666.329 2295.44 662.068 C 2293.98 658.989 2290.91 657.185 2287.72 657.185 Z  M 2442.57 583.642 C 2441.34 583.642 2440.1 583.909 2438.91 584.474 L 2327.12 637.569 C 2322.86 639.591 2321.04 644.686 2323.07 648.948 C 2324.53 652.027 2327.59 653.829 2330.79 653.829 C 2332.02 653.829 2333.26 653.563 2334.44 652.999 L 2446.24 599.904 C 2450.5 597.881 2452.32 592.786 2450.29 588.524 C 2448.83 585.447 2445.77 583.642 2442.57 583.642 Z " fill-rule="evenodd" fill="url(#_lgradient_12)"/><linearGradient id="_lgradient_13" x1="0" y1="0" x2="1" y2="0" gradientTransform="matrix(-615.014,712.39,-712.39,-615.014,3590.12,-182.698)" gradientUnits="userSpaceOnUse"><stop offset="0%" stop-opacity="1" style="stop-color:rgb(247,207,205)"/><stop offset="100%" stop-opacity="1" style="stop-color:rgb(249,214,212)"/></linearGradient><path d=" M 2330.79 653.829 C 2327.59 653.829 2324.53 652.027 2323.07 648.948 C 2321.04 644.686 2322.86 639.591 2327.12 637.569 L 2438.91 584.474 C 2440.1 583.909 2441.34 583.642 2442.57 583.642 C 2445.77 583.642 2448.83 585.447 2450.29 588.524 C 2452.32 592.786 2450.5 597.881 2446.24 599.904 L 2334.44 652.999 C 2333.26 653.563 2332.02 653.829 2330.79 653.829 Z " fill="url(#_lgradient_13)"/><linearGradient id="_lgradient_14" x1="0" y1="0" x2="1" y2="0" gradientTransform="matrix(-615.014,712.39,-712.39,-615.014,3590.12,-182.698)" gradientUnits="userSpaceOnUse"><stop offset="0%" stop-opacity="1" style="stop-color:rgb(247,207,205)"/><stop offset="100%" stop-opacity="1" style="stop-color:rgb(249,214,212)"/></linearGradient><path d=" M 1925.57 1024.1 C 1920.98 1024.1 1917.19 1020.46 1917.04 1015.84 C 1915.54 971.182 1916.32 924.606 1919.37 877.407 C 1921.28 848.012 1939.05 821.872 1965.77 809.182 L 2284.06 658.017 C 2285.24 657.453 2286.49 657.185 2287.72 657.185 C 2290.91 657.185 2293.98 658.989 2295.44 662.068 C 2297.46 666.329 2295.65 671.425 2291.39 673.446 L 1973.1 824.615 C 1951.98 834.646 1937.93 855.298 1936.43 878.508 C 1933.41 925.153 1932.63 971.165 1934.11 1015.27 C 1934.27 1019.99 1930.58 1023.94 1925.86 1024.1 C 1925.76 1024.1 1925.66 1024.1 1925.57 1024.1 Z " fill="url(#_lgradient_14)"/><linearGradient id="_lgradient_15" x1="0" y1="0" x2="1" y2="0" gradientTransform="matrix(-1568.28,2352.42,-2352.42,-1568.28,2749.48,673.016)" gradientUnits="userSpaceOnUse"><stop offset="0%" stop-opacity="1" style="stop-color:rgb(225,216,252)"/><stop offset="100%" stop-opacity="1" style="stop-color:rgb(254,112,98)"/></linearGradient><path d=" M 2944.01 902.241 C 2943.49 892.014 2937.4 882.884 2928.15 878.491 L 2485.84 668.422 C 2478.29 664.835 2469.52 664.835 2461.97 668.422 L 2019.67 878.491 C 2010.42 882.884 2004.33 892.014 2003.8 902.241 C 1990.72 1158.15 2049.83 1371.66 2179.61 1537.15 C 2278.56 1663.33 2394.31 1730.94 2462.13 1762.49 C 2469.61 1765.96 2478.21 1765.96 2485.68 1762.49 C 2553.5 1730.94 2669.25 1663.33 2768.2 1537.15 C 2897.98 1371.66 2957.09 1158.14 2944.01 902.241 Z " fill="url(#_lgradient_15)"/><linearGradient id="_lgradient_16" x1="0" y1="0" x2="1" y2="0" gradientTransform="matrix(165.968,0,0,165.968,1434.99,3167.22)" gradientUnits="userSpaceOnUse"><stop offset="0%" stop-opacity="1" style="stop-color:rgb(79,82,255)"/><stop offset="100%" stop-opacity="1" style="stop-color:rgb(64,66,226)"/></linearGradient><path d=" M 1596.27 3159.19 C 1567.83 3161.65 1518.49 3165.64 1479.59 3167.35 C 1456.2 3168.38 1442.74 3166.09 1434.99 3162.99 C 1435 3163.86 1435.02 3164.69 1435.06 3165.45 C 1435.24 3169.54 1438.57 3172.82 1442.7 3173.05 C 1516.21 3177.15 1574.67 3174.47 1595.48 3173.21 C 1599.79 3172.94 1602.35 3168.27 1600.15 3164.6 C 1599.05 3162.76 1597.72 3160.96 1596.27 3159.19 Z " fill="url(#_lgradient_16)"/><linearGradient id="_lgradient_17" x1="0" y1="0" x2="1" y2="0" gradientTransform="matrix(161.291,0,0,161.291,1434.98,3134.69)" gradientUnits="userSpaceOnUse"><stop offset="0%" stop-opacity="1" style="stop-color:rgb(9,0,93)"/><stop offset="100%" stop-opacity="1" style="stop-color:rgb(26,15,145)"/></linearGradient><path d=" M 1479.59 3167.35 C 1518.49 3165.64 1567.83 3161.65 1596.27 3159.19 C 1568.31 3124.89 1479.59 3101.78 1479.59 3101.78 L 1454.53 3101.78 C 1437.29 3126.62 1434.8 3150.27 1434.99 3162.99 C 1442.74 3166.09 1456.2 3168.38 1479.59 3167.35 Z " fill="url(#_lgradient_17)"/><linearGradient id="_lgradient_18" x1="0" y1="0" x2="1" y2="0" gradientTransform="matrix(46.75,0,0,46.75,1450.31,3089.27)" gradientUnits="userSpaceOnUse"><stop offset="0%" stop-opacity="1" style="stop-color:rgb(254,187,186)"/><stop offset="100%" stop-opacity="1" style="stop-color:rgb(255,146,142)"/></linearGradient><path d=" M 1450.31 3060.87 L 1452.65 3107.27 C 1452.91 3112.3 1456.67 3116.52 1461.7 3117.24 C 1466.71 3117.95 1473.42 3118.04 1480.53 3115.68 C 1484.9 3114.22 1488.15 3110.54 1488.96 3106.04 L 1497.06 3060.87 L 1450.31 3060.87 Z " fill="url(#_lgradient_18)"/><linearGradient id="_lgradient_19" x1="0" y1="0" x2="1" y2="0" gradientTransform="matrix(63.602,0,0,63.602,1138.75,3208.37)" gradientUnits="userSpaceOnUse"><stop offset="0%" stop-opacity="1" style="stop-color:rgb(79,82,255)"/><stop offset="100%" stop-opacity="1" style="stop-color:rgb(64,66,226)"/></linearGradient><path d=" M 1159.46 3212.72 C 1147.13 3210.5 1141.56 3202.22 1139.22 3193.37 L 1139.17 3193.61 C 1137.36 3202.94 1141.56 3212.62 1149.97 3217.22 C 1160.13 3222.78 1171.24 3223.73 1179.87 3223.27 C 1189.12 3222.78 1197.62 3217.83 1202.29 3209.91 L 1202.36 3209.79 C 1193.07 3215.73 1180.03 3216.43 1159.46 3212.72 Z " fill="url(#_lgradient_19)"/><linearGradient id="_lgradient_20" x1="0" y1="0" x2="1" y2="0" gradientTransform="matrix(93.355,0,0,93.355,1139.22,3145.08)" gradientUnits="userSpaceOnUse"><stop offset="0%" stop-opacity="1" style="stop-color:rgb(9,0,93)"/><stop offset="100%" stop-opacity="1" style="stop-color:rgb(26,15,145)"/></linearGradient><path d=" M 1217.6 3075.16 L 1196.93 3075.16 C 1165.45 3074.33 1145.69 3160.14 1139.22 3193.37 C 1141.56 3202.22 1147.13 3210.5 1159.46 3212.72 C 1180.03 3216.43 1193.07 3215.73 1202.36 3209.79 C 1219.36 3180.86 1227.79 3138.5 1231.85 3113.78 C 1236.46 3085.67 1217.6 3075.16 1217.6 3075.16 Z " fill="url(#_lgradient_20)"/><linearGradient id="_lgradient_21" x1="0" y1="0" x2="1" y2="0" gradientTransform="matrix(55.871,0,0,55.871,1187.74,3064.9)" gradientUnits="userSpaceOnUse"><stop offset="0%" stop-opacity="1" style="stop-color:rgb(254,187,186)"/><stop offset="100%" stop-opacity="1" style="stop-color:rgb(255,146,142)"/></linearGradient><path d=" M 1199.59 3032.09 L 1188.11 3077.73 C 1186.71 3083.33 1189.38 3089.12 1194.56 3091.77 C 1200.98 3095.07 1210.02 3098.53 1218.32 3097.53 C 1222.23 3097.05 1225.47 3094.3 1226.76 3090.63 L 1243.61 3042.61 L 1199.59 3032.09 Z " fill="url(#_lgradient_21)"/><linearGradient id="_lgradient_22" x1="0" y1="0" x2="1" y2="0" gradientTransform="matrix(-477.01,781.388,-781.388,-477.01,1639.66,2461.98)" gradientUnits="userSpaceOnUse"><stop offset="0%" stop-opacity="1" style="stop-color:rgb(79,82,255)"/><stop offset="100%" stop-opacity="1" style="stop-color:rgb(64,66,226)"/></linearGradient><path d=" M 1603.27 2430.97 C 1603.27 2430.97 1500.72 3071.99 1502.41 3075.51 C 1502.41 3075.51 1474.08 3088.39 1443.21 3077.16 C 1443.21 3077.16 1452.48 2734.48 1474.21 2603.09 C 1474.21 2603.09 1299.19 2909.38 1243.61 3061.99 C 1243.61 3061.99 1214.62 3058.53 1190.63 3042.74 C 1190.63 3042.74 1379.07 2491.45 1429.35 2418.02 L 1603.27 2430.97 Z " fill="url(#_lgradient_22)"/><linearGradient id="_lgradient_23" x1="0" y1="0" x2="1" y2="0" gradientTransform="matrix(-498.869,194.764,-194.764,-498.869,2229.98,2280.14)" gradientUnits="userSpaceOnUse"><stop offset="0%" stop-opacity="1" style="stop-color:rgb(79,82,255)"/><stop offset="100%" stop-opacity="1" style="stop-color:rgb(64,66,226)"/></linearGradient><path d=" M 1478.3 2599.75 C 1477.75 2599.75 1477.2 2599.61 1476.7 2599.29 C 1475.28 2598.4 1474.85 2596.54 1475.74 2595.12 L 1514.06 2533.91 C 1514.5 2533.2 1515.22 2532.71 1516.03 2532.54 L 1544.23 2526.87 C 1545.88 2526.54 1547.47 2527.6 1547.8 2529.24 C 1548.13 2530.88 1547.07 2532.48 1545.43 2532.81 L 1518.51 2538.23 L 1480.87 2598.33 C 1480.3 2599.25 1479.31 2599.75 1478.3 2599.75 Z " fill="url(#_lgradient_23)"/><linearGradient id="_lgradient_24" x1="0" y1="0" x2="1" y2="0" gradientTransform="matrix(-221.28,287.879,-287.879,-221.28,1956.22,1888.04)" gradientUnits="userSpaceOnUse"><stop offset="0%" stop-opacity="1" style="stop-color:rgb(254,187,186)"/><stop offset="100%" stop-opacity="1" style="stop-color:rgb(255,146,142)"/></linearGradient><path d=" M 2073.86 1803.26 C 2073.86 1803.26 2004.67 1818.53 1962.58 1837.96 C 1954.22 1841.82 1947.55 1848.57 1943.75 1856.88 C 1931.17 1884.46 1893.5 1953.6 1820.47 1986.6 C 1830.98 2000.56 1847.92 2029.6 1855.3 2078.41 C 1899.17 2045.76 1937.04 1991.23 1955.22 1901.81 C 1955.22 1901.81 1969.06 1909.33 1986.33 1900.95 C 1995.46 1896.51 2006 1890.23 2013.9 1885.29 C 2021.78 1880.36 2027.65 1872.7 2029.93 1863.76 C 2032.94 1851.95 2031.17 1841.57 2031.17 1830.43 L 2066.74 1819.41 C 2066.74 1819.41 2077.43 1815.37 2073.86 1803.26 Z " fill="url(#_lgradient_24)"/><linearGradient id="_lgradient_25" x1="0" y1="0" x2="1" y2="0" gradientTransform="matrix(-517.635,486.884,-486.884,-517.635,2041.69,1686.76)" gradientUnits="userSpaceOnUse"><stop offset="0%" stop-opacity="1" style="stop-color:rgb(255,146,142)"/><stop offset="100%" stop-opacity="1" style="stop-color:rgb(254,112,98)"/></linearGradient><path d=" M 1855.3 2078.41 C 1847.92 2029.6 1830.98 2000.56 1820.47 1986.6 C 1775.09 2007.1 1716.07 2013.65 1640.92 1987.61 C 1633.99 1985.21 1626.76 1983.8 1619.44 1983.37 C 1579.43 1981.03 1447.58 1976.75 1338.48 2012.79 C 1315.52 2020.38 1296.93 2037.35 1287.34 2059.34 C 1257.83 2127.07 1210.05 2281.31 1342.69 2359.18 C 1352.88 2333.88 1364.65 2313.54 1374.7 2298.6 C 1353.34 2262.57 1347.02 2213.35 1384.92 2149.27 C 1412.56 2223.91 1425.53 2332.81 1428.24 2381 C 1429.13 2396.87 1426.35 2412.7 1420.12 2427.35 L 1419.44 2428.95 C 1418.11 2432.09 1419.94 2435.69 1423.29 2436.44 C 1497.97 2453.21 1575.63 2448.66 1598.84 2446.74 C 1602.98 2446.4 1606.42 2443.43 1607.37 2439.43 C 1643.68 2286.43 1643.76 2182.06 1634.87 2116.09 C 1668.84 2123.68 1772.71 2139.88 1855.3 2078.41 Z " fill="url(#_lgradient_25)"/><linearGradient id="_lgradient_26" x1="0" y1="0" x2="1" y2="0" gradientTransform="matrix(32.566,0,0,32.566,1605.49,2070.16)" gradientUnits="userSpaceOnUse"><stop offset="0%" stop-opacity="1" style="stop-color:rgb(225,71,61)"/><stop offset="100%" stop-opacity="1" style="stop-color:rgb(233,96,90)"/></linearGradient><path d=" M 1635.02 2120.2 C 1633.52 2120.2 1632.22 2119.09 1632.02 2117.57 C 1623.49 2053.15 1606.13 2025.04 1605.95 2024.76 C 1605.06 2023.35 1605.48 2021.48 1606.9 2020.58 C 1608.3 2019.7 1610.17 2020.11 1611.07 2021.52 C 1611.81 2022.69 1629.3 2050.84 1638.03 2116.78 C 1638.24 2118.44 1637.08 2119.96 1635.42 2120.18 C 1635.29 2120.19 1635.15 2120.2 1635.02 2120.2 Z " fill="url(#_lgradient_26)"/><linearGradient id="_lgradient_27" x1="0" y1="0" x2="1" y2="0" gradientTransform="matrix(24.208,-127.094,127.094,24.208,1462.99,2074.1)" gradientUnits="userSpaceOnUse"><stop offset="0%" stop-opacity="1" style="stop-color:rgb(254,187,186)"/><stop offset="100%" stop-opacity="1" style="stop-color:rgb(255,146,142)"/></linearGradient><path d=" M 1450.74 1894.25 C 1450.74 1894.25 1443.19 1974.12 1436.54 1997.74 C 1435.53 2001.33 1437.08 2005.11 1440.34 2006.97 C 1451.63 2013.42 1478.7 2023.94 1515.74 2005.79 C 1521.74 2002.85 1525.35 1996.59 1525.07 1989.98 L 1521.8 1912.79 L 1450.74 1894.25 Z " fill="url(#_lgradient_27)"/><linearGradient id="_lgradient_28" x1="0" y1="0" x2="1" y2="0" gradientTransform="matrix(-138.124,105.686,-105.686,-138.124,1528.5,1840.92)" gradientUnits="userSpaceOnUse"><stop offset="0%" stop-opacity="1" style="stop-color:rgb(254,187,186)"/><stop offset="100%" stop-opacity="1" style="stop-color:rgb(255,146,142)"/></linearGradient><path d=" M 1523.43 1792.06 C 1523.43 1792.06 1547.59 1847.57 1549.22 1876.7 C 1550.84 1905.83 1557.12 1924.73 1523.43 1930.6 C 1489.75 1936.47 1461.37 1919.69 1446 1890.67 C 1446 1890.67 1421.91 1845.95 1427.32 1827.64 C 1432.72 1809.33 1523.43 1792.06 1523.43 1792.06 Z " fill="url(#_lgradient_28)"/><linearGradient id="_lgradient_29" x1="0" y1="0" x2="1" y2="0" gradientTransform="matrix(128.64,165.624,-165.624,128.64,1431.26,1757.24)" gradientUnits="userSpaceOnUse"><stop offset="0%" stop-opacity="1" style="stop-color:rgb(9,0,93)"/><stop offset="100%" stop-opacity="1" style="stop-color:rgb(26,15,145)"/></linearGradient><path d=" M 1457.51 1869.8 L 1459.43 1868.96 C 1461.87 1867.88 1462.91 1864.98 1461.69 1862.61 C 1456.94 1853.43 1447.68 1832.4 1459.64 1827.49 C 1475.05 1821.17 1536.12 1808.72 1549.3 1787.05 C 1561.96 1766.22 1550.74 1739.34 1533.88 1731.7 C 1532.75 1731.19 1531.42 1731.59 1530.84 1732.69 L 1529.43 1735.35 C 1528.47 1737.17 1525.78 1736.89 1525.21 1734.91 C 1524.66 1733.01 1522.14 1732.65 1521.09 1734.32 C 1517.04 1740.8 1506.11 1751.31 1476.87 1756.71 C 1435.31 1764.38 1407.84 1781.2 1407.15 1809.91 C 1407.11 1811.74 1405.17 1812.75 1403.61 1811.8 C 1400.54 1809.93 1395.63 1809.05 1389.07 1814.57 C 1377.66 1824.17 1382.33 1849.06 1407.35 1869.54 C 1408.54 1870.51 1408.53 1872.36 1407.24 1873.2 C 1402.7 1876.15 1395.94 1883.18 1413.46 1892.54 C 1431.58 1902.23 1445.11 1901.43 1450.32 1900.58 C 1451.62 1900.36 1452.46 1899.11 1452.17 1897.82 L 1446.61 1872.58 C 1446.3 1871.16 1447.38 1869.8 1448.85 1869.8 L 1457.51 1869.8 Z " fill="url(#_lgradient_29)"/><linearGradient id="_lgradient_30" x1="0" y1="0" x2="1" y2="0" gradientTransform="matrix(-138.124,105.686,-105.686,-138.124,1511.36,1818.53)" gradientUnits="userSpaceOnUse"><stop offset="0%" stop-opacity="1" style="stop-color:rgb(254,187,186)"/><stop offset="100%" stop-opacity="1" style="stop-color:rgb(255,146,142)"/></linearGradient><path d=" M 1458.56 1875.13 C 1458.56 1875.13 1449.34 1839.68 1433.44 1849.62 C 1417.55 1859.56 1441.69 1889.34 1454.47 1890.67 L 1458.56 1875.13 Z " fill="url(#_lgradient_30)"/><linearGradient id="_lgradient_31" x1="0" y1="0" x2="1" y2="0" gradientTransform="matrix(54.305,0,0,54.305,1963.57,1865.37)" gradientUnits="userSpaceOnUse"><stop offset="0%" stop-opacity="1" style="stop-color:rgb(255,146,142)"/><stop offset="100%" stop-opacity="1" style="stop-color:rgb(254,112,98)"/></linearGradient><path d=" M 1973.67 1893.56 C 1973 1893.56 1972.33 1893.34 1971.76 1892.88 C 1970.47 1891.83 1970.27 1889.92 1971.33 1888.62 C 1973.94 1885.4 1997.17 1857.01 2006.11 1851.96 C 2009.37 1850.12 2011.31 1848.22 2011.72 1846.46 C 2011.92 1845.63 2011.79 1844.69 2011.31 1843.61 L 1984.03 1849.08 L 1968.57 1862.35 C 1967.3 1863.44 1965.39 1863.29 1964.3 1862.02 C 1963.21 1860.75 1963.36 1858.84 1964.63 1857.75 L 1980.68 1843.97 C 1981.08 1843.63 1981.55 1843.4 1982.06 1843.3 L 2012.27 1837.25 C 2013.48 1837 2014.69 1837.51 2015.37 1838.52 C 2017.59 1841.81 2018.32 1844.86 2017.61 1847.85 C 2016.78 1851.39 2013.99 1854.46 2009.09 1857.23 C 2002.36 1861.03 1982.94 1883.94 1976.02 1892.44 C 1975.43 1893.18 1974.55 1893.56 1973.67 1893.56 Z " fill="url(#_lgradient_31)"/><linearGradient id="_lgradient_32" x1="0" y1="0" x2="1" y2="0" gradientTransform="matrix(25.626,-30.751,30.751,25.626,1711.48,2058.29)" gradientUnits="userSpaceOnUse"><stop offset="0%" stop-opacity="1" style="stop-color:rgb(254,187,186)"/><stop offset="100%" stop-opacity="1" style="stop-color:rgb(255,146,142)"/></linearGradient><path d=" M 1457.38 2397.56 L 1564.18 2398.88 L 1526.8 2363.7 C 1517.51 2354.96 1503.33 2353.54 1492.61 2360.49 C 1486.33 2364.57 1479.52 2370.1 1473.62 2377.42 C 1473.62 2377.42 1407 2353.07 1374.7 2298.6 C 1364.65 2313.54 1352.88 2333.88 1342.69 2359.18 C 1371.64 2376.17 1409.17 2389.54 1457.38 2397.56 Z " fill="url(#_lgradient_32)"/><linearGradient id="_lgradient_33" x1="0" y1="0" x2="1" y2="0" gradientTransform="matrix(215.186,70.576,70.576,-215.186,1422.91,2339.44)" gradientUnits="userSpaceOnUse"><stop offset="0%" stop-opacity="1" style="stop-color:rgb(9,0,93)"/><stop offset="100%" stop-opacity="1" style="stop-color:rgb(26,15,145)"/></linearGradient><path d=" M 1468.89 2411.34 C 1469.1 2411.35 1469.3 2411.35 1469.51 2411.35 L 1740.61 2411.06 C 1747.31 2411.05 1752.74 2405.67 1752.73 2399.04 C 1752.72 2392.41 1747.27 2386.93 1740.58 2387.05 L 1469.49 2387.34 C 1462.78 2387.34 1457.36 2392.73 1457.36 2399.36 C 1457.37 2405.78 1462.48 2411.02 1468.89 2411.34 Z " fill="url(#_lgradient_33)"/><linearGradient id="_lgradient_34" x1="0" y1="0" x2="1" y2="0" gradientTransform="matrix(154.057,162.829,162.829,-154.057,1719.09,2200.07)" gradientUnits="userSpaceOnUse"><stop offset="0%" stop-opacity="1" style="stop-color:rgb(9,0,93)"/><stop offset="100%" stop-opacity="1" style="stop-color:rgb(26,15,145)"/></linearGradient><path d=" M 1984.31 2167.8 L 1758.54 2167.8 C 1741.89 2167.8 1726.73 2177.31 1719.62 2192.21 L 1615.25 2411.19 L 1895.82 2411.19 C 1906.55 2411.19 1916.2 2404.7 1920.14 2394.83 L 2001.08 2192.19 C 2005.76 2180.49 1997.04 2167.8 1984.31 2167.8 Z " fill="url(#_lgradient_34)"/><linearGradient id="_lgradient_35" x1="0" y1="0" x2="1" y2="0" gradientTransform="matrix(69.639,104.868,104.868,-69.638,1812.5,2240.77)" gradientUnits="userSpaceOnUse"><stop offset="0%" stop-opacity="1" style="stop-color:rgb(79,82,255)"/><stop offset="100%" stop-opacity="1" style="stop-color:rgb(64,66,226)"/></linearGradient><path d=" M 1825.25 2280.08 C 1820.36 2295.12 1823.98 2309.72 1833.33 2312.7 C 1842.68 2315.68 1854.23 2305.9 1859.12 2290.86 C 1864.01 2275.82 1860.4 2261.21 1851.04 2258.24 C 1841.69 2255.26 1830.15 2265.04 1825.25 2280.08 Z " fill="url(#_lgradient_35)"/></g></g></svg>